<?xml version="1.0" standalone="no"?>
<!DOCTYPE svg PUBLIC "-//W3C//DTD SVG 1.1//EN" "http://www.w3.org/Graphics/SVG/1.1/DTD/svg11.dtd" >
<svg xmlns="http://www.w3.org/2000/svg" xmlns:xlink="http://www.w3.org/1999/xlink" version="1.1">
<metadata>
Created by FontForge 20161003 at Wed May 31 14:55:52 2017
 By www-data
Copyright (c) by Kobi Benezri, www.lineto.com, All rights reserved. http://www.kobibenezri.com
</metadata>
<defs>
<font id="LetteraTextPro" horiz-adv-x="568" >
  <font-face 
    font-family="LetteraTextPro"
    font-weight="400"
    font-stretch="normal"
    units-per-em="1000"
    panose-1="2 11 5 4 2 1 1 2 1 2"
    ascent="727"
    descent="-273"
    x-height="507"
    cap-height="690"
    bbox="-181 -224 1003 1061"
    underline-thickness="40"
    underline-position="-150"
    unicode-range="U+000D-FB02"
  />
<missing-glyph 
d="M77 0v690h414v-690h-414zM131 54h306v582h-306v-582z" />
    <glyph glyph-name="f_i" unicode="fi" horiz-adv-x="594" 
d="M140 507v57q0 62 43.5 106t105.5 44q48 0 97 -20l-22 -53q-32 17 -74 17q-38 0 -64.5 -26.5t-26.5 -64.5v-60h158v-54h-158v-453h-59v453h-120v54h120zM458 0v507h59v-507h-59zM443 642q0 18 13 31.5t32 13.5q18 0 31.5 -13.5t13.5 -31.5q0 -19 -13.5 -32t-31.5 -13
q-19 0 -32 13t-13 32z" />
    <glyph glyph-name="f_l" unicode="fl" horiz-adv-x="595" 
d="M458 0v696h59v-696h-59zM140 507v57q0 62 43.5 106t105.5 44q48 0 97 -20l-22 -53q-32 17 -74 17q-38 0 -64.5 -26.5t-26.5 -64.5v-60h158v-54h-158v-453h-59v453h-120v54h120z" />
    <glyph glyph-name=".notdef" 
d="M77 0v690h414v-690h-414zM131 54h306v582h-306v-582z" />
    <glyph glyph-name=".null" horiz-adv-x="0" 
 />
    <glyph glyph-name=".null" horiz-adv-x="0" 
 />
    <glyph glyph-name="uni000D" unicode="&#xd;" horiz-adv-x="219" 
 />
    <glyph glyph-name="space" unicode=" " horiz-adv-x="219" 
 />
    <glyph glyph-name="exclam" unicode="!" horiz-adv-x="286" 
d="M201 653l-26 -455h-38l-26 455q0 19 13 32t32 13t32 -13t13 -32zM107 41q0 20 14.5 35t34.5 15t35 -15t15 -35t-15 -34.5t-35 -14.5t-34.5 14.5t-14.5 34.5z" />
    <glyph glyph-name="quotedbl" unicode="&#x22;" horiz-adv-x="422" 
d="M126 461h-10q-8 22 -23 71q-23 77 -23 116q0 20 15.5 35t35.5 15t35.5 -15t15.5 -35q0 -39 -23 -116q-12 -40 -23 -71zM306 461h-10q-8 22 -23 71q-23 77 -23 116q0 20 15.5 35t35.5 15t35.5 -15t15.5 -35q0 -39 -23 -116q-12 -40 -23 -71z" />
    <glyph glyph-name="numbersign" unicode="#" horiz-adv-x="718" 
d="M234 -40h-52l24 176h-146l7 54h146l26 190h-148l7 54h148l24 174h52l-24 -174h160l24 174h52l-24 -174h148l-7 -54h-148l-26 -190h150l-7 -54h-150l-24 -176h-52l24 176h-160zM291 380l-26 -190h160l26 190h-160z" />
    <glyph glyph-name="dollar" unicode="$" horiz-adv-x="564" 
d="M259 -76v77q-96 10 -150 66t-57 121h61q3 -49 50.5 -90t130.5 -41q86 0 124.5 33t38.5 73q0 55 -36 73t-140 33q-46 7 -79.5 17t-65.5 27t-48.5 45.5t-16.5 66.5q0 10 2 23t13.5 36.5t29.5 42t55.5 33.5t87.5 17v76h49v-78q76 -10 121 -54.5t54 -120.5h-59
q-11 63 -47.5 92.5t-105.5 29.5q-58 0 -98.5 -24t-40.5 -72q0 -21 9 -37t21 -25.5t36.5 -17.5t43 -11.5t51.5 -8.5q31 -5 44 -7.5t40 -8t39.5 -11t32.5 -14t29.5 -19.5t20.5 -25.5t15 -34t4 -42.5q0 -27 -11.5 -54t-35 -51.5t-66 -40.5t-97.5 -18v-76h-49z" />
    <glyph glyph-name="percent" unicode="%" horiz-adv-x="631" 
d="M36 564q0 56 40 96t96 40t96.5 -40t40.5 -96q0 -57 -40.5 -97t-96.5 -40t-96 40t-40 97zM89 564q0 -36 24 -60.5t59 -24.5t60 24.5t25 60.5q0 35 -25 59.5t-60 24.5q-34 0 -58.5 -24.5t-24.5 -59.5zM492 690h57l-410 -690h-57zM322 127q0 56 40 96t96 40t96.5 -40
t40.5 -96q0 -57 -40.5 -97t-96.5 -40t-96 40t-40 97zM375 127q0 -36 24 -60.5t59 -24.5t60 24.5t25 60.5q0 35 -25 59.5t-60 24.5q-34 0 -58.5 -24.5t-24.5 -59.5z" />
    <glyph glyph-name="ampersand" unicode="&#x26;" horiz-adv-x="591" 
d="M498 92l71 -92h-66l-45 56q-80 -64 -186 -64q-91 0 -153.5 59.5t-62.5 145.5q0 42 19 79t49 63t46.5 37.5t32.5 19.5q-2 2 -14.5 17.5t-23.5 30t-23.5 34t-20 41.5t-7.5 41q0 55 42 96.5t107 41.5q60 0 103.5 -40t43.5 -98q0 -93 -134 -175l189 -246q20 23 47 79l50 -19
q-32 -68 -64 -103v-4zM419 110l-184 241h-6q-34 -18 -73 -59.5t-39 -93.5q0 -61 44.5 -104.5t107.5 -43.5q83 0 150 53v7zM349 557q0 35 -25.5 58.5t-61.5 23.5q-35 0 -61 -24t-26 -58q0 -46 70 -128h6q20 12 38.5 26.5t39 43.5t20.5 58z" />
    <glyph glyph-name="quotesingle" unicode="'" horiz-adv-x="242" 
d="M126 461h-10q-8 22 -23 71q-23 77 -23 116q0 20 15.5 35t35.5 15t35.5 -15t15.5 -35q0 -39 -23 -116q-12 -40 -23 -71z" />
    <glyph glyph-name="parenleft" unicode="(" horiz-adv-x="280" 
d="M271 -165h-55q-23 31 -45 68.5t-49.5 96.5t-44.5 131.5t-17 145.5v3q0 74 17.5 148.5t46 135t50 97t43.5 68.5h55q-6 -8 -16 -23t-35.5 -62.5t-45 -97.5t-35.5 -123t-17 -143v-2q0 -69 15 -140.5t37 -123.5t44 -94t37 -64z" />
    <glyph glyph-name="parenright" unicode=")" horiz-adv-x="280" 
d="M64 -165h-55q6 8 16 22.5t35.5 61.5t45 96t35.5 121.5t16 141.5v2q-1 70 -16.5 142t-37 125t-43.5 95.5t-37 64.5l-15 22h55q22 -32 43.5 -68.5t50 -97t46 -135t17.5 -148.5v-3q0 -73 -17 -145.5t-44.5 -131.5t-49.5 -96.5t-45 -68.5z" />
    <glyph glyph-name="asterisk" unicode="*" horiz-adv-x="584" 
d="M63 399l146 84l49 15q-8 3 -26 8.5t-24 7.5l-145 84l28 48l141 -82l43 -36q-1 8 -5.5 26.5t-5.5 26.5v165h56v-165l-11 -53q8 6 25 21l18 15l141 82l28 -48l-145 -84l-51 -16q25 -8 50 -15l145 -84l-28 -49l-141 82l-42 36l6 -27t5 -25v-165h-56v165l10 51
q-15 -14 -41 -35l-142 -82z" />
    <glyph glyph-name="plus" unicode="+" horiz-adv-x="525" 
d="M45 264v54h188v190h59v-190h188v-54h-188v-192h-59v192h-188z" />
    <glyph glyph-name="comma" unicode="," horiz-adv-x="229" 
d="M65 44q0 21 14 36t34 15q23 0 37.5 -16t14.5 -43q0 -40 -23.5 -81.5t-46.5 -62.5l-23 -22l-27 30q48 46 65 96q-19 0 -32 14t-13 34z" />
    <glyph glyph-name="hyphen" unicode="-" horiz-adv-x="368" 
d="M55 214v54h258v-54h-258z" />
    <glyph glyph-name="period" unicode="." horiz-adv-x="230" 
d="M63 43q0 21 15 36.5t36 15.5t36.5 -15.5t15.5 -36.5t-15.5 -36t-36.5 -15t-36 15t-15 36z" />
    <glyph glyph-name="slash" unicode="/" horiz-adv-x="399" 
d="M310 690h69l-290 -690h-69z" />
    <glyph glyph-name="zero" unicode="0" horiz-adv-x="561" 
d="M281 526q-76 0 -122 -70q-43 -64 -43 -167t43 -171q46 -70 122 -70q75 0 121 70q43 68 43 171t-43 167q-46 70 -121 70zM282 582q101 0 164 -86q60 -80 60 -207q0 -130 -60 -211q-63 -86 -164 -86q-104 0 -167 86q-60 81 -60 211q0 127 60 207q63 86 167 86z" />
    <glyph glyph-name="one" unicode="1" horiz-adv-x="332" 
d="M173 581h59v-581h-59v460h-7q-68 -50 -131 -50v55q47 0 92.5 32t45.5 84z" />
    <glyph glyph-name="two" unicode="2" horiz-adv-x="504" 
d="M110 405l-61 1q0 73 57 124.5t138 51.5q82 0 139 -51.5t57 -124.5q0 -63 -40.5 -104t-113.5 -77q-69 -35 -120.5 -76.5t-51.5 -79.5v-15h340v-54h-412v14q0 85 54.5 146t159.5 115q62 32 92.5 60t30.5 70q0 51 -39 86t-96 35q-56 0 -95 -35t-39 -86z" />
    <glyph glyph-name="three" unicode="3" horiz-adv-x="514" 
d="M243 -106q-84 0 -146 49.5t-72 123.5h62q9 -51 53.5 -84t103.5 -33q66 0 112 41.5t46 100.5q0 58 -44 100.5t-107 42.5h-69v54h61q58 0 99 34.5t41 83.5t-41 84t-99 35q-57 0 -97.5 -34.5t-41.5 -84.5l-60 20q8 66 65.5 110.5t133.5 44.5q83 0 142.5 -50.5t59.5 -122.5
q0 -42 -28.5 -80t-72.5 -63v-8q52 -28 86 -72.5t34 -94.5q0 -82 -64.5 -139.5t-156.5 -57.5z" />
    <glyph glyph-name="four" unicode="4" horiz-adv-x="498" 
d="M0 111v41l308 435h75v-422h95v-54h-95v-207h-59v207h-324zM322 513l-244 -348h246v348h-2z" />
    <glyph glyph-name="five" unicode="5" horiz-adv-x="523" 
d="M45 84l60 10q0 -3 1 -8t5 -20t10 -28.5t18 -30.5t27.5 -29t40 -20t53.5 -8q41 0 71.5 16t46.5 37t25.5 50t11.5 47.5t2 36.5q0 23 -7.5 49t-23 53t-45.5 45t-69 18q-36 0 -70 -22t-50 -43t-18 -29l-71 1l35 363h341v-54h-286q-1 -13 -11 -99.5t-14 -131.5l3 3
q65 70 144 70q56 0 98.5 -23.5t64 -60t31.5 -71t10 -66.5q0 -23 -3 -47.5t-16.5 -62t-35.5 -66t-64.5 -49t-99.5 -20.5q-50 0 -89.5 17t-61.5 40t-37.5 53t-20 48t-6.5 32z" />
    <glyph glyph-name="six" unicode="6" horiz-adv-x="552" 
d="M285 393q-62 0 -106 -50.5t-44 -122.5q0 -71 44 -121.5t106 -50.5q63 0 107 50.5t44 121.5q0 72 -44 122.5t-107 50.5zM489 530l-54 -20q-40 114 -146 114q-80 0 -126.5 -83t-46.5 -215h3q27 54 69.5 88.5t92.5 34.5q92 0 154 -67.5t62 -164.5q0 -94 -61.5 -159.5
t-149.5 -65.5q-144 0 -203 155q-28 78 -28 188q0 146 63.5 245.5t168.5 99.5q148 0 202 -150z" />
    <glyph glyph-name="seven" unicode="7" horiz-adv-x="424" 
d="M178 -96h-60v3q0 347 216 596v15h-334v54h419v-56q-10 -8 -26 -22.5t-57.5 -69.5t-73.5 -119.5t-58 -172.5t-26 -228z" />
    <glyph glyph-name="eight" unicode="8" horiz-adv-x="530" 
d="M45 189q0 50 33.5 94.5t85.5 72.5v7q-44 26 -72 63.5t-28 80.5q0 72 59 122.5t141 50.5q83 0 142.5 -50.5t59.5 -122.5q0 -42 -28.5 -80t-72.5 -63v-8q52 -28 86 -72.5t34 -94.5q0 -82 -64.5 -139.5t-156.5 -57.5q-90 0 -154.5 57.5t-64.5 139.5zM107 190
q0 -59 46.5 -100.5t111.5 -41.5t111.5 41.5t46.5 100.5q0 58 -44.5 100.5t-107.5 42.5h-12q-64 -3 -108 -44t-44 -99zM126 505q0 -49 41 -83.5t98 -34.5t98 34.5t41 83.5t-41 84t-98 35t-98 -35t-41 -84z" />
    <glyph glyph-name="nine" unicode="9" horiz-adv-x="552" 
d="M267 181q62 0 106 50.5t44 122.5q0 71 -44 121.5t-106 50.5q-63 0 -107 -50.5t-44 -121.5q0 -72 44 -122.5t107 -50.5zM63 44l54 20q40 -114 146 -114q80 0 126.5 83t46.5 215h-3q-27 -54 -69.5 -88.5t-92.5 -34.5q-92 0 -154 67.5t-62 164.5q0 94 61.5 159.5t149.5 65.5
q144 0 203 -155q28 -78 28 -188q0 -146 -63.5 -245.5t-168.5 -99.5q-148 0 -202 150z" />
    <glyph glyph-name="colon" unicode=":" horiz-adv-x="254" 
d="M80 43q0 21 15 36.5t36 15.5t36.5 -15.5t15.5 -36.5t-15.5 -36t-36.5 -15t-36 15t-15 36zM80 433q0 21 15 36.5t36 15.5t36.5 -15.5t15.5 -36.5t-15.5 -36t-36.5 -15t-36 15t-15 36z" />
    <glyph glyph-name="semicolon" unicode=";" horiz-adv-x="254" 
d="M83 44q0 21 14 36t34 15q23 0 37.5 -16t14.5 -43q0 -40 -23.5 -81.5t-46.5 -62.5l-23 -22l-27 30q48 46 65 96q-19 0 -32 14t-13 34zM80 433q0 21 15 36.5t36 15.5t36.5 -15.5t15.5 -36.5t-15.5 -36t-36.5 -15t-36 15t-15 36z" />
    <glyph glyph-name="less" unicode="&#x3c;" horiz-adv-x="428" 
d="M377 6l-38 -39l-324 324l324 324l38 -39l-280 -271v-29z" />
    <glyph glyph-name="equal" unicode="=" horiz-adv-x="496" 
d="M50 319v54h396v-54h-396zM50 169v54h396v-54h-396z" />
    <glyph glyph-name="greater" unicode="&#x3e;" horiz-adv-x="428" 
d="M89 -33l-38 39l280 270v29l-280 271l38 39l324 -324z" />
    <glyph glyph-name="question" unicode="?" horiz-adv-x="443" 
d="M224 198h-59v100q0 40 34 74l107 107q25 25 25 60q0 44 -31.5 73.5t-88.5 29.5q-53 0 -86.5 -30t-33.5 -73h-61q0 76 53 117.5t127 41.5q86 0 134 -44t48 -109q0 -60 -38 -98l-119 -122q-11 -11 -11 -37v-90zM145 41q0 20 14.5 35t34.5 15t35 -15t15 -35t-15 -34.5
t-35 -14.5t-34.5 14.5t-14.5 34.5z" />
    <glyph glyph-name="at" unicode="@" horiz-adv-x="878" 
d="M407 184q58 0 93 41t35 104q0 50 -24.5 85.5t-71.5 35.5q-58 0 -93 -41t-35 -105q0 -50 24.5 -85t71.5 -35zM753 356q0 121 -84.5 203.5t-216.5 82.5q-135 0 -229.5 -94.5t-94.5 -230.5q0 -134 94.5 -228t229.5 -94q97 0 176 51l38 -40q-96 -66 -216 -66
q-157 0 -267.5 110t-110.5 267q0 159 110 270t268 111q154 0 256 -102t102 -241q0 -103 -42 -164.5t-123 -61.5q-88 0 -107 69h-7q-26 -34 -53.5 -51.5t-70.5 -17.5q-67 0 -106.5 49.5t-39.5 122.5q0 87 49 144.5t133 57.5q79 0 120 -72h2l8 65h52l-32 -262q-1 -7 -1 -15
q0 -35 54 -35q109 0 109 172z" />
    <glyph glyph-name="A" unicode="A" horiz-adv-x="597" 
d="M582 0h-64l-70 205h-299l-70 -205h-64l234 690h99zM297 644l-129 -382h261l-129 382h-3z" />
    <glyph glyph-name="B" unicode="B" horiz-adv-x="625" 
d="M565 512q0 -44 -25 -83t-64 -65v-11q46 -25 76.5 -69.5t30.5 -95.5q0 -79 -53.5 -133.5t-129.5 -54.5h-316v690h300q75 0 128 -52t53 -126zM145 327v-270h244q58 0 94.5 39t36.5 97q0 55 -39 94.5t-92 39.5h-244zM145 633v-249h228q53 0 91 36.5t38 89.5q0 51 -37 87
t-92 36h-228z" />
    <glyph glyph-name="C" unicode="C" horiz-adv-x="661" 
d="M119 344q0 -134 67 -217q60 -76 162 -76q79 0 129 46q54 50 76 143h62q-24 -115 -98 -184q-72 -64 -169 -64q-125 0 -207 96q-85 98 -85 257q0 158 86 257q82 96 206 96q92 0 166 -63q73 -65 99 -175h-63q-24 88 -76 134q-52 45 -126 45q-101 0 -162 -77
q-67 -83 -67 -218z" />
    <glyph glyph-name="D" unicode="D" horiz-adv-x="676" 
d="M145 57h199q90 0 152.5 84t62.5 203q0 120 -62.5 204.5t-152.5 84.5h-199v-576zM357 0h-273v690h273q109 0 187 -101t78 -244t-78 -244t-187 -101z" />
    <glyph glyph-name="E" unicode="E" horiz-adv-x="618" 
d="M551 690v-57h-406v-255h366v-57h-366v-264h426v-57h-487v690h467z" />
    <glyph glyph-name="F" unicode="F" horiz-adv-x="578" 
d="M551 690v-57h-406v-255h366v-57h-366v-321h-61v690h467z" />
    <glyph glyph-name="G" unicode="G" horiz-adv-x="686" 
d="M551 0v121q-33 -57 -88 -93q-54 -36 -115 -36q-124 0 -207 95q-85 99 -85 258q0 158 86 257q82 96 206 96q98 0 178 -70.5t80 -171.5h-62q0 75 -58.5 129t-137.5 54q-96 0 -161 -79q-68 -84 -68 -214q0 -133 68 -217q64 -78 161 -78q76 0 137 66q64 68 70 179h-216v57
h273v-353h-61z" />
    <glyph glyph-name="H" unicode="H" horiz-adv-x="688" 
d="M145 0h-61v690h61v-299h398v299h61v-690h-61v334h-398v-334z" />
    <glyph glyph-name="I" unicode="I" horiz-adv-x="229" 
d="M84 0v690h61v-690h-61z" />
    <glyph glyph-name="J" unicode="J" horiz-adv-x="513" 
d="M379 690h61v-452q0 -123 -54 -184.5t-157 -61.5q-179 0 -214 182l62 14q23 -137 150 -137q152 0 152 187v452z" />
    <glyph glyph-name="K" unicode="K" horiz-adv-x="613" 
d="M517 0l-253 330h-62l-57 -54v-276h-61v690h61v-332l350 332h86l-284 -270v-33l296 -387h-76z" />
    <glyph glyph-name="L" unicode="L" horiz-adv-x="535" 
d="M145 690v-633h375v-57h-436v690h61z" />
    <glyph glyph-name="M" unicode="M" horiz-adv-x="798" 
d="M347 30l-202 601v-631h-61v690h105l205 -607h10l205 607h105v-690h-61v631l-202 -601h-104z" />
    <glyph glyph-name="N" unicode="N" horiz-adv-x="702" 
d="M557 690h61v-690h-110l-359 647h-4v-647h-61v690h110l358 -647h5v647z" />
    <glyph glyph-name="O" unicode="O" horiz-adv-x="693" 
d="M56 345q0 158 86 257q83 96 207 96q121 0 203 -96q85 -98 85 -257q0 -160 -84 -258q-83 -95 -204 -95q-124 0 -208 96q-85 98 -85 257zM119 345q0 -132 68 -215q64 -79 160 -79t160 79q67 83 67 215q0 131 -67 214q-64 80 -160 80t-160 -80q-68 -83 -68 -214z" />
    <glyph glyph-name="P" unicode="P" horiz-adv-x="629" 
d="M413 286h-268v-286h-61v690h328q77 0 130.5 -58t53.5 -142q0 -87 -53.5 -145.5t-129.5 -58.5zM145 633v-290h259q54 0 91.5 42.5t37.5 102.5t-37.5 102.5t-91.5 42.5h-259z" />
    <glyph glyph-name="Q" unicode="Q" horiz-adv-x="691" 
d="M56 345q0 158 86 257q83 96 207 96q121 0 203 -96q85 -98 85 -257q0 -160 -84 -258q-28 -31 -62 -54l86 -158l-53 -28l-87 160q-42 -15 -88 -15q-124 0 -208 96q-85 98 -85 257zM119 345q0 -132 68 -215q64 -79 160 -79t160 79q67 83 67 215q0 131 -67 214
q-64 80 -160 80t-160 -80q-68 -83 -68 -214z" />
    <glyph glyph-name="R" unicode="R" horiz-adv-x="660" 
d="M145 358h255q53 0 91 40t38 97q0 58 -38 98t-91 40h-255v-275zM145 301v-301h-61v690h327q75 0 128 -57t53 -137q0 -66 -37.5 -118t-96.5 -69l165 -309h-69l-159 301h-250z" />
    <glyph glyph-name="S" unicode="S" horiz-adv-x="635" 
d="M292 698q105 0 173 -48.5t88 -146.5h-65q-30 136 -195 136q-62 0 -117 -36.5t-55 -99.5q0 -27 14 -47.5t33.5 -32t50.5 -20t53.5 -11t54.5 -5.5q43 -3 77 -9t70.5 -19.5t60 -33.5t39 -53.5t15.5 -76.5q0 -101 -68.5 -152t-179.5 -51q-118 0 -200.5 61.5t-96.5 169.5h63
q19 -84 80 -128t151 -44q83 0 135.5 34.5t52.5 112.5q0 37 -17 62.5t-50 39t-66.5 19.5t-80.5 9q-46 3 -86 12t-80.5 28.5t-64 55.5t-23.5 85q0 82 72.5 135.5t161.5 53.5z" />
    <glyph glyph-name="T" unicode="T" horiz-adv-x="607" 
d="M577 690v-57h-244v-633h-61v633h-242v57h547z" />
    <glyph glyph-name="U" unicode="U" horiz-adv-x="668" 
d="M334 51q111 0 157 59t46 163v417h61v-429q0 -123 -63.5 -196t-200.5 -73t-200.5 73t-63.5 196v429h61v-417q0 -104 46 -163t157 -59z" />
    <glyph glyph-name="V" unicode="V" horiz-adv-x="597" 
d="M518 690h64l-234 -690h-99l-234 690h64l216 -645h7z" />
    <glyph glyph-name="W" unicode="W" horiz-adv-x="841" 
d="M426 614h-11l-140 -614h-91l-159 690h63l141 -626l136 596h111l136 -596l141 626h63l-159 -690h-91z" />
    <glyph glyph-name="X" unicode="X" horiz-adv-x="636" 
d="M603 690l-238 -320v-32l251 -338h-75l-215 294h-17l-215 -294h-74l251 338v32l-238 320h75l203 -278h14l203 278h75z" />
    <glyph glyph-name="Y" unicode="Y" horiz-adv-x="555" 
d="M308 0h-61v322l-239 368h71l192 -301h13l192 301h71l-239 -368v-322z" />
    <glyph glyph-name="Z" unicode="Z" horiz-adv-x="619" 
d="M578 0h-555v61l465 565v7h-433v57h512v-61l-465 -565v-7h476v-57z" />
    <glyph glyph-name="bracketleft" unicode="[" horiz-adv-x="314" 
d="M285 726v-54h-103v-780h103v-54h-162v888h162z" />
    <glyph glyph-name="backslash" unicode="\" horiz-adv-x="399" 
d="M20 690h69l290 -690h-69z" />
    <glyph glyph-name="bracketright" unicode="]" horiz-adv-x="314" 
d="M29 672v54h162v-888h-162v54h103v780h-103z" />
    <glyph glyph-name="asciicircum" unicode="^" horiz-adv-x="472" 
d="M58 425l130 261h96l130 -261h-80l-98 213l-98 -213h-80z" />
    <glyph glyph-name="underscore" unicode="_" horiz-adv-x="464" 
d="M28 -54v54h408v-54h-408z" />
    <glyph glyph-name="grave" unicode="`" horiz-adv-x="311" 
d="M230 566l-176 101l39 60l164 -119z" />
    <glyph glyph-name="a" unicode="a" horiz-adv-x="560" 
d="M132 364h-59q0 10 3 25t16 38.5t34 42.5t61 33t93 14q173 0 173 -151v-290q0 -15 10.5 -24t22.5 -9q23 0 32 22l46 -22q-23 -51 -76 -51q-35 0 -57 23t-25 52h-9q-38 -42 -85 -58.5t-78 -16.5q-18 0 -36 2t-47 11t-50 24.5t-37 47t-16 73.5q0 119 176 155l170 35v22
q0 48 -22.5 73.5t-94.5 25.5q-43 0 -74.5 -11.5t-45 -29t-19.5 -31.5t-6 -25zM394 173v113l-148 -32q-27 -6 -45.5 -12t-42.5 -17.5t-36.5 -30t-12.5 -43.5q0 -103 122 -103h6q54 0 105.5 36.5t51.5 88.5z" />
    <glyph glyph-name="b" unicode="b" horiz-adv-x="595" 
d="M78 0v696h59v-282h6q72 103 171 103q95 0 161.5 -77t66.5 -186q0 -108 -66.5 -185t-161.5 -77q-103 0 -171 97h-6v-89h-59zM137 255v-9q2 -89 48 -143.5t125 -54.5q72 0 121.5 60t49.5 146q0 87 -49.5 147t-121.5 60q-81 0 -127 -56.5t-46 -149.5z" />
    <glyph glyph-name="c" unicode="c" horiz-adv-x="560" 
d="M114 254q0 -91 50.5 -148.5t123.5 -57.5q53 0 95.5 31.5t62.5 87.5h64q-23 -80 -84 -127.5t-138 -47.5q-99 0 -167 73.5t-68 188.5t68 189t167 74q83 0 146.5 -55.5t81.5 -145.5h-63q-16 66 -61.5 105.5t-103.5 39.5q-73 0 -123.5 -58t-50.5 -149z" />
    <glyph glyph-name="d" unicode="d" horiz-adv-x="595" 
d="M517 696v-696h-59v89h-6q-68 -97 -171 -97q-95 0 -161.5 77t-66.5 185q0 109 66.5 186t161.5 77q99 0 171 -103h6v282h59zM458 246v9q0 93 -46 149.5t-127 56.5q-72 0 -121.5 -60t-49.5 -147q0 -86 49.5 -146t121.5 -60q79 0 125 54.5t48 143.5z" />
    <glyph glyph-name="e" unicode="e" horiz-adv-x="567" 
d="M292 -8q-100 0 -169.5 73.5t-69.5 188.5t69.5 189t169.5 74q99 0 163 -73.5t64 -189.5v-16h-403q2 -83 55.5 -136.5t128.5 -53.5q108 0 155 114l53 -24q-29 -68 -87 -107t-129 -39zM291 461q-68 0 -117 -47t-58 -124h340q-9 77 -54.5 124t-110.5 47z" />
    <glyph glyph-name="f" unicode="f" horiz-adv-x="366" 
d="M140 507v57q0 62 43.5 106t105.5 44q69 0 116 -55l-51 -28q-25 27 -64 27q-38 0 -64.5 -26.5t-26.5 -64.5v-60h158v-54h-158v-453h-59v453h-120v54h120z" />
    <glyph glyph-name="g" unicode="g" horiz-adv-x="567" 
d="M431 227v66q0 81 -47 124.5t-112 43.5q-66 0 -112 -58t-46 -140t46 -140t112 -58q64 0 111.5 42.5t47.5 119.5zM74 -86l53 26q24 -44 67 -66.5t89 -22.5q76 0 112 39t36 102v100q-50 -83 -160 -83q-91 0 -154.5 73.5t-63.5 179.5q0 107 63.5 181t154.5 74q95 0 155 -83h5
v73h59v-522q0 -82 -52 -136t-155 -54q-61 0 -119 30t-90 89z" />
    <glyph glyph-name="h" unicode="h" horiz-adv-x="569" 
d="M137 0h-59v696h59v-300h8q31 55 79 88t107 33q45 0 78 -14t48.5 -31.5t24.5 -42t10 -36t1 -23.5v-370h-59v359q0 8 -1 16t-6.5 25t-16 29t-33 22t-52.5 10q-70 0 -129 -66.5t-59 -173.5v-221z" />
    <glyph glyph-name="i" unicode="i" horiz-adv-x="212" 
d="M77 0v507h59v-507h-59zM61 642q0 18 13 31.5t32 13.5q18 0 31.5 -13.5t13.5 -31.5q0 -19 -13.5 -32t-31.5 -13q-19 0 -32 13t-13 32z" />
    <glyph glyph-name="j" unicode="j" horiz-adv-x="212" 
d="M136 -45q0 -67 -43 -113.5t-127 -46.5h-6v56h6q55 0 83 29.5t28 71.5v555h59v-552zM61 642q0 18 13 31.5t32 13.5q18 0 31.5 -13.5t13.5 -31.5q0 -19 -13.5 -32t-31.5 -13q-19 0 -32 13t-13 32z" />
    <glyph glyph-name="k" unicode="k" horiz-adv-x="532" 
d="M137 0h-59v696h59v-377h21l225 188h87l-185 -156v-19l229 -332h-70l-203 295h-24l-80 -67v-228z" />
    <glyph glyph-name="l" unicode="l" horiz-adv-x="215" 
d="M78 0v696h59v-696h-59z" />
    <glyph glyph-name="m" unicode="m" horiz-adv-x="904" 
d="M136 0h-59v507h59v-111h8q30 55 77 88t104 33q43 0 74.5 -12.5t47 -32.5t23 -38t10.5 -38h10q30 55 77 88t104 33q44 0 76 -14t47 -31.5t23.5 -42t9.5 -36t1 -23.5v-370h-59v359q0 8 -0.5 16t-6.5 25t-16 29t-31.5 22t-50.5 10q-66 0 -122 -63.5t-60 -165.5v-232h-59v359
q0 8 -0.5 16t-6.5 25t-16 29t-31.5 22t-50.5 10q-68 0 -125 -66.5t-57 -173.5v-221z" />
    <glyph glyph-name="n" unicode="n" 
d="M136 0h-59v507h59v-111h8q31 55 79 88t107 33q45 0 78 -14t48.5 -31.5t24.5 -42t10 -36t1 -23.5v-370h-59v359q0 8 -1 16t-6.5 25t-16 29t-33 22t-52.5 10q-70 0 -129 -66.5t-59 -173.5v-221z" />
    <glyph glyph-name="o" unicode="o" horiz-adv-x="582" 
d="M53 254q0 115 69.5 189t169.5 74q99 0 168 -74t69 -189t-69 -188.5t-168 -73.5q-100 0 -169.5 73.5t-69.5 188.5zM114 254q0 -91 51.5 -148.5t125.5 -57.5t125.5 57.5t51.5 148.5t-51.5 149t-125.5 58t-125.5 -58t-51.5 -149z" />
    <glyph glyph-name="p" unicode="p" horiz-adv-x="597" 
d="M80 -181v688h59v-93h6q72 103 171 103q95 0 161.5 -77t66.5 -186q0 -108 -66.5 -185t-161.5 -77q-103 0 -171 97h-6v-270h-59zM139 255v-9q2 -89 48 -143.5t125 -54.5q72 0 121.5 60t49.5 146q0 87 -49.5 147t-121.5 60q-81 0 -127 -56.5t-46 -149.5z" />
    <glyph glyph-name="q" unicode="q" horiz-adv-x="597" 
d="M517 507v-688h-59v270h-6q-68 -97 -171 -97q-95 0 -161.5 77t-66.5 185q0 109 66.5 186t161.5 77q99 0 171 -103h6v93h59zM458 246v9q0 93 -46 149.5t-127 56.5q-72 0 -121.5 -60t-49.5 -147q0 -86 49.5 -146t121.5 -60q79 0 125 54.5t48 143.5z" />
    <glyph glyph-name="r" unicode="r" horiz-adv-x="382" 
d="M136 0h-59v507h59v-118h8q31 55 79 88t107 33q4 0 11 -0.5t11 -0.5v-58q-14 3 -28 3q-70 0 -129 -66.5t-59 -173.5v-214z" />
    <glyph glyph-name="s" unicode="s" horiz-adv-x="525" 
d="M455 356h-60q-11 55 -43.5 80t-95.5 25q-55 0 -91.5 -20.5t-36.5 -65.5q0 -20 12.5 -35.5t27.5 -23.5t41.5 -14.5t40.5 -8.5t39 -5q32 -4 55 -8t52 -14.5t47.5 -25t31.5 -40t13 -58.5q0 -58 -52.5 -104t-159.5 -46q-105 0 -165 53t-63 118h61q3 -43 47 -79t120 -36
q79 0 115 29t36 65q0 18 -3.5 30.5t-15 22t-21 15t-34.5 11t-42 8.5t-56 8q-40 6 -68.5 13.5t-58.5 22.5t-45.5 41.5t-15.5 63.5q0 10 2 22.5t13 34.5t29.5 39t56.5 30t88 13q52 0 91.5 -15.5t58.5 -34.5t31.5 -46.5t14.5 -39t3 -25.5z" />
    <glyph glyph-name="t" unicode="t" horiz-adv-x="398" 
d="M126 121v332h-106v54h106v133h59v-133h150v-54h-150v-335q0 -29 20.5 -49.5t49.5 -20.5q44 0 62 38l51 -27q-17 -30 -47 -48.5t-66 -18.5q-53 0 -91 38t-38 91z" />
    <glyph glyph-name="u" unicode="u" 
d="M432 507h59v-507h-59v114h-8q-31 -55 -79.5 -88.5t-106.5 -33.5q-45 0 -78 14t-48.5 31.5t-24.5 42t-10 36t-1 23.5v368h59v-357q0 -8 1 -16t6.5 -25t16 -29t33 -22t52.5 -10q70 0 129 66.5t59 173.5v219z" />
    <glyph glyph-name="v" unicode="v" horiz-adv-x="524" 
d="M433 507h63l-187 -507h-94l-187 507h63l168 -461h6z" />
    <glyph glyph-name="w" unicode="w" horiz-adv-x="766" 
d="M383 427l-120 -427h-94l-137 507h61l121 -456h5l128 452h72l128 -452h5l121 456h61l-137 -507h-94z" />
    <glyph glyph-name="x" unicode="x" horiz-adv-x="498" 
d="M402 0l-150 218h-6l-150 -218h-70l183 258v12l-172 237h70l139 -197h6l139 197h70l-172 -237v-12l183 -258h-70z" />
    <glyph glyph-name="y" unicode="y" horiz-adv-x="496" 
d="M88 -205q-27 0 -51 7l14 55q18 -6 36 -6q72 0 91 53l44 115l-202 488h64l163 -394h13l150 394h63l-239 -621q-35 -91 -146 -91z" />
    <glyph glyph-name="z" unicode="z" horiz-adv-x="481" 
d="M448 0h-415v54l314 396v3h-289v54h366v-53l-315 -397v-3h339v-54z" />
    <glyph glyph-name="braceleft" unicode="{" horiz-adv-x="270" 
d="M168 170v-207q0 -35 4 -52t20 -17h34v-56h-34q-84 0 -84 145v175q0 66 -74 97v63q74 24 74 98v185q0 68 18 96.5t65 28.5h35v-56h-34q-16 0 -20 -19.5t-4 -71.5v-175q0 -90 -61 -119q61 -34 61 -115z" />
    <glyph glyph-name="bar" unicode="|" horiz-adv-x="306" 
d="M183 786v-888h-60v888h60z" />
    <glyph glyph-name="braceright" unicode="}" horiz-adv-x="270" 
d="M102 -37v207q0 81 61 115q-61 29 -61 119v175q0 27 -0.5 39.5t-2.5 27t-7 19.5t-14 5h-34v56h35q47 0 65 -28.5t18 -96.5v-185q0 -74 74 -98v-63q-74 -31 -74 -97v-175q0 -145 -84 -145h-34v56h34q16 0 20 17t4 52z" />
    <glyph glyph-name="asciitilde" unicode="~" horiz-adv-x="505" 
d="M182 279q-42 0 -98 -65l-44 38q76 83 138 83q44 0 83.5 -32t61.5 -32q42 0 98 65l44 -38q-76 -83 -138 -83q-34 0 -59.5 16t-45 32t-40.5 16z" />
    <glyph glyph-name="uni00A0" unicode="&#xa0;" horiz-adv-x="219" 
 />
    <glyph glyph-name="exclamdown" unicode="&#xa1;" horiz-adv-x="286" 
d="M148 292l26 -455q0 -19 -13 -32t-32 -13t-32 13t-13 32l26 455h38zM80 448q0 20 14.5 35t34.5 15t35 -15t15 -35t-15 -34.5t-35 -14.5t-34.5 14.5t-14.5 34.5z" />
    <glyph glyph-name="cent" unicode="&#xa2;" horiz-adv-x="479" 
d="M258 0h-49v79q-70 9 -116 65.5t-46 140.5t45.5 140.5t116.5 66.5v80h49v-80q58 -8 101 -50.5t56 -106.5h-62q-11 40 -36 66.5t-59 33.5v-300q64 13 90 81h62q-16 -57 -57 -93.5t-95 -44.5v-78zM107 282q0 -56 29 -96t73 -50v299q-46 -10 -74 -51.5t-28 -101.5z" />
    <glyph glyph-name="sterling" unicode="&#xa3;" horiz-adv-x="584" 
d="M412 266h-207q0 -7 3.5 -28.5t3.5 -36.5q0 -63 -54 -113q26 8 41 8q42 0 94 -19.5t86 -19.5t54.5 20t20.5 50h59q0 -53 -36.5 -90t-89.5 -37q-41 0 -96 22.5t-91 22.5q-34 0 -57.5 -9.5t-60.5 -33.5l-4 -2l-28 42q103 74 103 177q0 23 -6 47h-97v50h90q-3 19 -8.5 44.5
t-7.5 39.5t-2 32q0 69 56 109.5t121 40.5q46 0 82 -17t54.5 -41t27.5 -45t9 -34h-60q0 3 -3.5 11t-12 20.5t-20.5 23t-33 18.5t-45 8q-42 0 -79 -28t-37 -75q0 -23 14 -107h216v-50z" />
    <glyph glyph-name="currency" unicode="&#xa4;" horiz-adv-x="530" 
d="M115 389l-57 55l43 43l56 -56q49 36 109 36q58 0 107 -36l56 56l43 -43l-58 -55q33 -46 33 -101q0 -56 -34 -105l59 -55l-43 -43l-58 56q-47 -33 -105 -33q-61 0 -107 34l-58 -57l-43 43l59 55q-34 46 -34 105q0 55 32 101zM140 286q0 -52 36.5 -88.5t88.5 -36.5
t88.5 36.5t36.5 88.5t-36.5 88.5t-88.5 36.5t-88.5 -36.5t-36.5 -88.5z" />
    <glyph glyph-name="yen" unicode="&#xa5;" 
d="M128 236v50h102l-178 286h68l165 -279l165 279h68l-178 -286h102v-50h-127v-70h127v-50h-127v-116h-60v116h-127v50h127v70h-127z" />
    <glyph glyph-name="brokenbar" unicode="&#xa6;" horiz-adv-x="306" 
d="M183 786v-349h-60v349h60zM183 247v-349h-60v349h60z" />
    <glyph glyph-name="section" unicode="&#xa7;" horiz-adv-x="472" 
d="M303 157h9q60 29 60 84q0 40 -51 78l-152 122h-9q-60 -29 -60 -84q0 -40 51 -78zM39 363q0 70 92 113q-39 41 -39 75q0 42 42 71.5t101 29.5q60 0 102.5 -29.5t42.5 -71.5h-61q0 19 -24.5 32t-59.5 13q-36 0 -59.5 -13.5t-23.5 -37.5q0 -19 41 -52l165 -132
q75 -58 75 -126q0 -71 -93 -114q40 -40 40 -74q0 -42 -42 -71.5t-101 -29.5q-60 0 -102.5 29.5t-42.5 71.5h61q0 -19 24.5 -32t59.5 -13q36 0 59.5 13t23.5 38q0 19 -41 52l-165 132q-75 58 -75 126z" />
    <glyph glyph-name="dieresis" unicode="&#xa8;" horiz-adv-x="386" 
d="M54 642q0 18 13 31.5t32 13.5q18 0 31.5 -13.5t13.5 -31.5q0 -19 -13.5 -32t-31.5 -13q-19 0 -32 13t-13 32zM242 642q0 18 13 31.5t32 13.5q18 0 31.5 -13.5t13.5 -31.5q0 -19 -13.5 -32t-31.5 -13q-19 0 -32 13t-13 32z" />
    <glyph glyph-name="copyright" unicode="&#xa9;" horiz-adv-x="544" 
d="M358 303l41 -12q-28 -89 -115 -89q-54 0 -90.5 40t-36.5 103t37 103t90 40q42 0 72 -24t43 -66l-41 -12q-17 58 -74 58q-35 0 -58.5 -27.5t-23.5 -71.5q0 -45 23.5 -72t58.5 -27q58 0 74 57zM89 344q0 -80 57.5 -137.5t137.5 -57.5t138 57.5t58 137.5t-58 138t-138 58
t-137.5 -58t-57.5 -138zM45 344q0 99 70 169.5t169 70.5t169.5 -70.5t70.5 -169.5t-70.5 -169t-169.5 -70t-169 70t-70 169z" />
    <glyph glyph-name="ordfeminine" unicode="&#xaa;" horiz-adv-x="350" 
d="M315 462l37 -19q-23 -33 -60 -33q-42 0 -53 42q-43 -42 -94 -42q-8 0 -17 1t-25 6.5t-27.5 14t-21 26.5t-9.5 42q0 37 27 55.5t73 29.5l81 19v7q0 43 -54 43q-36 0 -52 -14t-16 -29h-45q0 8 4 20t14 28.5t34.5 27.5t59.5 11q98 0 98 -83v-129q0 -32 24 -32q14 0 22 8z
M226 564l-71 -17q-65 -15 -65 -45q0 -20 13.5 -32t24 -14t20.5 -2q24 0 51 15t27 45v50z" />
    <glyph glyph-name="guillemotleft" unicode="&#xab;" horiz-adv-x="488" 
d="M213 449l-143 -165v-12l143 -165l-40 -38l-158 195v28l158 195zM413 449l-143 -165v-12l143 -165l-40 -38l-158 195v28l158 195z" />
    <glyph glyph-name="logicalnot" unicode="&#xac;" horiz-adv-x="488" 
d="M45 264v54h388v-181h-59v127h-329z" />
    <glyph glyph-name="uni00AD" unicode="&#xad;" horiz-adv-x="368" 
d="M55 214v54h258v-54h-258z" />
    <glyph glyph-name="registered" unicode="&#xae;" horiz-adv-x="544" 
d="M389 408q0 -25 -16 -45.5t-41 -27.5l65 -122h-50l-63 116h-49v-116h-45v273h119q33 0 56.5 -23t23.5 -55zM235 444v-73h66q19 0 31 10.5t12 25.5q0 16 -12 26.5t-31 10.5h-66zM45 344q0 99 70 169.5t169 70.5t169.5 -70.5t70.5 -169.5t-70.5 -169t-169.5 -70t-169 70
t-70 169zM89 344q0 -80 57.5 -137.5t137.5 -57.5t138 57.5t58 137.5t-58 138t-138 58t-137.5 -58t-57.5 -138z" />
    <glyph glyph-name="macron" unicode="&#xaf;" horiz-adv-x="376" 
d="M54 616v54h268v-54h-268z" />
    <glyph glyph-name="degree" unicode="&#xb0;" horiz-adv-x="299" 
d="M38 586q0 47 32.5 79.5t79.5 32.5t79 -32.5t32 -79.5q0 -46 -32.5 -78.5t-78.5 -32.5q-47 0 -79.5 32t-32.5 79zM84 586q0 -26 19 -45.5t47 -19.5q27 0 46 19.5t19 45.5q0 27 -19 46.5t-46 19.5q-28 0 -47 -19.5t-19 -46.5z" />
    <glyph glyph-name="plusminus" unicode="&#xb1;" horiz-adv-x="500" 
d="M45 300v54h176v178h59v-178h175v-54h-175v-180h-59v180h-176zM47 8v54h408v-54h-408z" />
    <glyph glyph-name="twosuperior" unicode="&#xb2;" horiz-adv-x="277" 
d="M90 449h147v-42h-197v30q0 21 28 51.5t70 52.5q49 27 49 59q0 21 -14 35.5t-34 14.5t-33.5 -14.5t-13.5 -35.5h-47q0 40 27.5 68t65.5 28q40 0 68 -28t28 -68q0 -21 -7 -37t-24.5 -30.5t-28.5 -22t-38 -22.5q-17 -10 -28.5 -19.5t-14.5 -14t-3 -5.5z" />
    <glyph glyph-name="threesuperior" unicode="&#xb3;" horiz-adv-x="280" 
d="M118 532v42h17q17 0 29 11t12 25t-12 24.5t-29 10.5t-29.5 -10.5t-12.5 -24.5h-46q0 38 26.5 59.5t62.5 21.5q35 0 60.5 -22.5t25.5 -54.5q0 -23 -10.5 -36t-31.5 -25q50 -27 50 -70q0 -36 -28 -61t-68 -25q-39 0 -66.5 25.5t-27.5 64.5h46q0 -17 14.5 -30.5t34.5 -13.5
t34.5 13.5t14.5 30.5q0 18 -14.5 31.5t-34.5 13.5h-17z" />
    <glyph glyph-name="acute" unicode="&#xb4;" horiz-adv-x="311" 
d="M257 667l-176 -101l-27 42l164 119z" />
    <glyph glyph-name="mu" unicode="&#xb5;" horiz-adv-x="562" 
d="M294 -8q-44 0 -77.5 12t-77.5 57v-238h-59v684h59v-256q0 -108 38.5 -154t109.5 -46q64 0 101.5 66.5t37.5 179.5v210h59v-507h-59v93v-1q-49 -100 -132 -100z" />
    <glyph glyph-name="paragraph" unicode="&#xb6;" horiz-adv-x="596" 
d="M546 636h-80v-769h-59v769h-129v-769h-59v469q-73 0 -124 51.5t-51 124.5t51.5 125.5t123.5 52.5h327v-54z" />
    <glyph glyph-name="periodcentered" unicode="&#xb7;" horiz-adv-x="283" 
d="M90 335q0 21 15 36.5t36 15.5t36.5 -15.5t15.5 -36.5t-15.5 -36t-36.5 -15t-36 15t-15 36z" />
    <glyph glyph-name="cedilla" unicode="&#xb8;" horiz-adv-x="289" 
d="M115 0h57v-43q29 -8 46 -30.5t17 -48.5q0 -37 -27.5 -63t-66.5 -26q-35 0 -57.5 17t-29.5 35l52 25q12 -23 34 -23q14 0 24.5 9.5t10.5 25.5q0 40 -60 40v82z" />
    <glyph glyph-name="onesuperior" unicode="&#xb9;" horiz-adv-x="197" 
d="M20 597v40q24 0 47.5 16.5t23.5 36.5h44v-283h-46v217q-3 -2 -13.5 -8.5t-16 -9.5t-16.5 -6t-23 -3z" />
    <glyph glyph-name="ordmasculine" unicode="&#xba;" horiz-adv-x="351" 
d="M45 554q0 63 38 103.5t94 40.5q54 0 91.5 -40.5t37.5 -103.5t-37.5 -103.5t-91.5 -40.5q-56 0 -94 40.5t-38 103.5zM90 552q0 -43 25 -71t60 -28t60 28t25 71q0 45 -24.5 73.5t-60.5 28.5t-60.5 -28.5t-24.5 -73.5z" />
    <glyph glyph-name="guillemotright" unicode="&#xbb;" horiz-adv-x="488" 
d="M418 284l-143 165l40 38l158 -195v-28l-158 -195l-40 38l143 165v12zM218 284l-143 165l40 38l158 -195v-28l-158 -195l-40 38l143 165v12z" />
    <glyph glyph-name="onequarter" unicode="&#xbc;" horiz-adv-x="640" 
d="M554 0h-45v72h-138v34l145 184h38v-176h43v-42h-43v-72zM424 114h85v107zM93 597v40q24 0 47.5 16.5t23.5 36.5h44v-283h-46v217q-3 -2 -13.5 -8.5t-16 -9.5t-16.5 -6t-23 -3zM501 690h57l-410 -690h-57z" />
    <glyph glyph-name="onehalf" unicode="&#xbd;" horiz-adv-x="640" 
d="M457 43h147v-42h-197v30q0 21 28 51.5t70 52.5q49 27 49 59q0 21 -14 35.5t-34 14.5t-33.5 -14.5t-13.5 -35.5h-47q0 40 27.5 68t65.5 28q40 0 68 -28t28 -68q0 -21 -7 -37t-24.5 -30.5t-28.5 -22t-38 -22.5q-17 -10 -28.5 -19.5t-14.5 -14t-3 -5.5zM501 690h57
l-410 -690h-57zM93 597v40q24 0 47.5 16.5t23.5 36.5h44v-283h-46v217q-3 -2 -13.5 -8.5t-16 -9.5t-16.5 -6t-23 -3z" />
    <glyph glyph-name="threequarters" unicode="&#xbe;" horiz-adv-x="640" 
d="M172 539v42h17q17 0 29 11t12 25t-12 24.5t-29 10.5t-29.5 -10.5t-12.5 -24.5h-46q0 38 26.5 59.5t62.5 21.5q35 0 60.5 -22.5t25.5 -54.5q0 -37 -42 -61q50 -27 50 -70q0 -36 -28 -61t-68 -25q-39 0 -66.5 25.5t-27.5 64.5h46q0 -17 14.5 -30.5t34.5 -13.5t34.5 13.5
t14.5 30.5q0 18 -14.5 31.5t-34.5 13.5h-17zM545 0h-45v72h-138v34l145 184h38v-176h43v-42h-43v-72zM415 114h85v107zM512 690h57l-410 -690h-57z" />
    <glyph glyph-name="questiondown" unicode="&#xbf;" horiz-adv-x="443" 
d="M219 289h59v-100q0 -40 -34 -74l-107 -107q-25 -25 -25 -60q0 -44 31.5 -73.5t88.5 -29.5q53 0 86.5 30t33.5 73h61q0 -76 -53 -117.5t-127 -41.5q-86 0 -134 44t-48 109q0 60 38 98l119 122q11 11 11 37v90zM200 445q0 20 14.5 35t34.5 15t35 -15t15 -35t-15 -34.5
t-35 -14.5t-34.5 14.5t-14.5 34.5z" />
    <glyph glyph-name="Agrave" unicode="&#xc0;" horiz-adv-x="597" 
d="M582 0h-64l-70 205h-299l-70 -205h-64l234 690h99zM297 644l-129 -382h261l-129 382h-3zM349 744l-194 80l31 67l184 -100z" />
    <glyph glyph-name="Aacute" unicode="&#xc1;" horiz-adv-x="597" 
d="M582 0h-64l-70 205h-299l-70 -205h-64l234 690h99zM297 644l-129 -382h261l-129 382h-3zM444 824l-194 -80l-21 47l184 100z" />
    <glyph glyph-name="Acircumflex" unicode="&#xc2;" horiz-adv-x="597" 
d="M582 0h-64l-70 205h-299l-70 -205h-64l234 690h99zM297 644l-129 -382h261l-129 382h-3zM273 899h50l129 -103l-41 -47l-113 91l-113 -91l-41 47z" />
    <glyph glyph-name="Atilde" unicode="&#xc3;" horiz-adv-x="597" 
d="M582 0h-64l-70 205h-299l-70 -205h-64l234 690h99zM297 644l-129 -382h261l-129 382h-3zM139 774v21q0 38 27 63.5t64 25.5q24 0 45.5 -9.5t33.5 -21t25 -21t23 -9.5q31 0 31 30v21h63v-21q0 -38 -27 -63.5t-64 -25.5q-24 0 -45.5 9.5t-33.5 21t-25 21t-23 9.5
q-31 0 -31 -30v-21h-63z" />
    <glyph glyph-name="Adieresis" unicode="&#xc4;" horiz-adv-x="597" 
d="M582 0h-64l-70 205h-299l-70 -205h-64l234 690h99zM297 644l-129 -382h261l-129 382h-3zM154 824q0 20 14 34t33 14t33.5 -14t14.5 -34q0 -19 -14 -33t-34 -14q-19 0 -33 13.5t-14 33.5zM347 824q0 20 14 34t33 14q20 0 34 -14t14 -34q0 -19 -14 -33t-34 -14t-33.5 13.5
t-13.5 33.5z" />
    <glyph glyph-name="Aring" unicode="&#xc5;" horiz-adv-x="597" 
d="M582 0h-64l-70 205h-299l-70 -205h-64l234 690h99zM297 644l-129 -382h261l-129 382h-3zM193 824q0 43 31 73.5t75 30.5q43 0 73.5 -30.5t30.5 -73.5q0 -44 -30.5 -75t-73.5 -31q-44 0 -75 31t-31 75zM245 824q0 -23 15.5 -38.5t38.5 -15.5q22 0 37 15.5t15 38.5
q0 22 -15 37t-37 15q-23 0 -38.5 -15t-15.5 -37z" />
    <glyph glyph-name="AE" unicode="&#xc6;" horiz-adv-x="955" 
d="M471 0v205h-289l-113 -205h-69l377 690h511v-57h-356v-255h316v-57h-316v-264h376v-57h-437zM414 633l-202 -371h259v371h-57z" />
    <glyph glyph-name="Ccedilla" unicode="&#xc7;" horiz-adv-x="661" 
d="M119 344q0 -134 67 -217q60 -76 162 -76q79 0 129 46q54 50 76 143h62q-24 -115 -98 -184q-64 -57 -150 -63v-27q30 -10 48 -33.5t18 -50.5q0 -38 -29 -65.5t-70 -27.5q-36 0 -60 18t-31 36l54 27q14 -25 36 -25q15 0 26 10t11 27q0 43 -64 43v70q-100 16 -165 93
q-85 98 -85 257q0 158 86 257q82 96 206 96q92 0 166 -63q73 -65 99 -175h-63q-24 88 -76 134q-52 45 -126 45q-101 0 -162 -77q-67 -83 -67 -218z" />
    <glyph glyph-name="Egrave" unicode="&#xc8;" horiz-adv-x="618" 
d="M551 690v-57h-406v-255h366v-57h-366v-264h426v-57h-487v690h467zM385 744l-194 80l31 67l184 -100z" />
    <glyph glyph-name="Eacute" unicode="&#xc9;" horiz-adv-x="618" 
d="M551 690v-57h-406v-255h366v-57h-366v-264h426v-57h-487v690h467zM472 824l-194 -80l-21 47l184 100z" />
    <glyph glyph-name="Ecircumflex" unicode="&#xca;" horiz-adv-x="618" 
d="M551 690v-57h-406v-255h366v-57h-366v-264h426v-57h-487v690h467zM289 899h50l129 -103l-41 -47l-113 91l-113 -91l-41 47z" />
    <glyph glyph-name="Edieresis" unicode="&#xcb;" horiz-adv-x="618" 
d="M551 690v-57h-406v-255h366v-57h-366v-264h426v-57h-487v690h467zM168 824q0 20 14 34t33 14t33.5 -14t14.5 -34q0 -19 -14 -33t-34 -14q-19 0 -33 13.5t-14 33.5zM361 824q0 20 14 34t33 14q20 0 34 -14t14 -34q0 -19 -14 -33t-34 -14t-33.5 13.5t-13.5 33.5z" />
    <glyph glyph-name="Igrave" unicode="&#xcc;" horiz-adv-x="229" 
d="M134 744l-194 80l31 67l184 -100zM84 0v690h61v-690h-61z" />
    <glyph glyph-name="Iacute" unicode="&#xcd;" horiz-adv-x="229" 
d="M84 0v690h61v-690h-61zM287 824l-194 -80l-21 47l184 100z" />
    <glyph glyph-name="Icircumflex" unicode="&#xce;" horiz-adv-x="229" 
d="M84 0v690h61v-690h-61zM89 899h50l129 -103l-41 -47l-113 91l-113 -91l-41 47z" />
    <glyph glyph-name="Idieresis" unicode="&#xcf;" horiz-adv-x="229" 
d="M84 0v690h61v-690h-61zM-30 824q0 20 14 34t33 14t33.5 -14t14.5 -34q0 -19 -14 -33t-34 -14q-19 0 -33 13.5t-14 33.5zM163 824q0 20 14 34t33 14q20 0 34 -14t14 -34q0 -19 -14 -33t-34 -14t-33.5 13.5t-13.5 33.5z" />
    <glyph glyph-name="Eth" unicode="&#xd0;" horiz-adv-x="676" 
d="M24 317v57h60v316h273q109 0 187 -101t78 -244t-78 -244t-187 -101h-273v317h-60zM145 57h199q90 0 152.5 84t62.5 203q0 120 -62.5 204.5t-152.5 84.5h-199v-259h174v-57h-174v-260z" />
    <glyph glyph-name="Ntilde" unicode="&#xd1;" horiz-adv-x="702" 
d="M557 690h61v-690h-110l-359 647h-4v-647h-61v690h110l358 -647h5v647zM188 774v21q0 38 27 63.5t64 25.5q24 0 45.5 -9.5t33.5 -21t25 -21t23 -9.5q31 0 31 30v21h63v-21q0 -38 -27 -63.5t-64 -25.5q-24 0 -45.5 9.5t-33.5 21t-25 21t-23 9.5q-31 0 -31 -30v-21h-63z" />
    <glyph glyph-name="Ograve" unicode="&#xd2;" horiz-adv-x="693" 
d="M56 345q0 158 86 257q83 96 207 96q121 0 203 -96q85 -98 85 -257q0 -160 -84 -258q-83 -95 -204 -95q-124 0 -208 96q-85 98 -85 257zM119 345q0 -132 68 -215q64 -79 160 -79t160 79q67 83 67 215q0 131 -67 214q-64 80 -160 80t-160 -80q-68 -83 -68 -214zM406 744
l-194 80l31 67l184 -100z" />
    <glyph glyph-name="Oacute" unicode="&#xd3;" horiz-adv-x="693" 
d="M56 345q0 158 86 257q83 96 207 96q121 0 203 -96q85 -98 85 -257q0 -160 -84 -258q-83 -95 -204 -95q-124 0 -208 96q-85 98 -85 257zM119 345q0 -132 68 -215q64 -79 160 -79t160 79q67 83 67 215q0 131 -67 214q-64 80 -160 80t-160 -80q-68 -83 -68 -214zM482 824
l-194 -80l-21 47l184 100z" />
    <glyph glyph-name="Ocircumflex" unicode="&#xd4;" horiz-adv-x="693" 
d="M56 345q0 158 86 257q83 96 207 96q121 0 203 -96q85 -98 85 -257q0 -160 -84 -258q-83 -95 -204 -95q-124 0 -208 96q-85 98 -85 257zM119 345q0 -132 68 -215q64 -79 160 -79t160 79q67 83 67 215q0 131 -67 214q-64 80 -160 80t-160 -80q-68 -83 -68 -214zM321 899h50
l129 -103l-41 -47l-113 91l-113 -91l-41 47z" />
    <glyph glyph-name="Otilde" unicode="&#xd5;" horiz-adv-x="693" 
d="M56 345q0 158 86 257q83 96 207 96q121 0 203 -96q85 -98 85 -257q0 -160 -84 -258q-83 -95 -204 -95q-124 0 -208 96q-85 98 -85 257zM119 345q0 -132 68 -215q64 -79 160 -79t160 79q67 83 67 215q0 131 -67 214q-64 80 -160 80t-160 -80q-68 -83 -68 -214zM193 774v21
q0 38 27 63.5t64 25.5q24 0 45.5 -9.5t33.5 -21t25 -21t23 -9.5q31 0 31 30v21h63v-21q0 -38 -27 -63.5t-64 -25.5q-24 0 -45.5 9.5t-33.5 21t-25 21t-23 9.5q-31 0 -31 -30v-21h-63z" />
    <glyph glyph-name="Odieresis" unicode="&#xd6;" horiz-adv-x="693" 
d="M56 345q0 158 86 257q83 96 207 96q121 0 203 -96q85 -98 85 -257q0 -160 -84 -258q-83 -95 -204 -95q-124 0 -208 96q-85 98 -85 257zM119 345q0 -132 68 -215q64 -79 160 -79t160 79q67 83 67 215q0 131 -67 214q-64 80 -160 80t-160 -80q-68 -83 -68 -214zM202 824
q0 20 14 34t33 14t33.5 -14t14.5 -34q0 -19 -14 -33t-34 -14q-19 0 -33 13.5t-14 33.5zM395 824q0 20 14 34t33 14q20 0 34 -14t14 -34q0 -19 -14 -33t-34 -14t-33.5 13.5t-13.5 33.5z" />
    <glyph glyph-name="multiply" unicode="&#xd7;" horiz-adv-x="504" 
d="M50 443l39 39l153 -159h19l154 159l39 -39l-159 -154v-19l159 -153l-39 -39l-154 159h-19l-153 -159l-39 39l159 153v19z" />
    <glyph glyph-name="Oslash" unicode="&#xd8;" horiz-adv-x="693" 
d="M56 345q0 158 86 257q83 96 207 96q59 0 115 -27l41 89l52 -24l-44 -96q20 -15 39 -38q85 -98 85 -257q0 -160 -84 -258q-83 -95 -204 -95q-66 0 -121 28l-41 -90l-52 24l44 97q-23 19 -38 37q-85 98 -85 257zM507 559l-21 22l-233 -507q44 -23 94 -23q96 0 160 79
q67 83 67 215q0 131 -67 214zM119 345q0 -132 68 -215q10 -13 19 -21l233 507q-43 23 -92 23q-96 0 -160 -80q-68 -83 -68 -214z" />
    <glyph glyph-name="Ugrave" unicode="&#xd9;" horiz-adv-x="668" 
d="M334 51q111 0 157 59t46 163v417h61v-429q0 -123 -63.5 -196t-200.5 -73t-200.5 73t-63.5 196v429h61v-417q0 -104 46 -163t157 -59zM406 744l-194 80l31 67l184 -100z" />
    <glyph glyph-name="Uacute" unicode="&#xda;" horiz-adv-x="668" 
d="M334 51q111 0 157 59t46 163v417h61v-429q0 -123 -63.5 -196t-200.5 -73t-200.5 73t-63.5 196v429h61v-417q0 -104 46 -163t157 -59zM482 824l-194 -80l-21 47l184 100z" />
    <glyph glyph-name="Ucircumflex" unicode="&#xdb;" horiz-adv-x="668" 
d="M334 51q111 0 157 59t46 163v417h61v-429q0 -123 -63.5 -196t-200.5 -73t-200.5 73t-63.5 196v429h61v-417q0 -104 46 -163t157 -59zM309 899h50l129 -103l-41 -47l-113 91l-113 -91l-41 47z" />
    <glyph glyph-name="Udieresis" unicode="&#xdc;" horiz-adv-x="668" 
d="M334 51q111 0 157 59t46 163v417h61v-429q0 -123 -63.5 -196t-200.5 -73t-200.5 73t-63.5 196v429h61v-417q0 -104 46 -163t157 -59zM190 824q0 20 14 34t33 14t33.5 -14t14.5 -34q0 -19 -14 -33t-34 -14q-19 0 -33 13.5t-14 33.5zM383 824q0 20 14 34t33 14q20 0 34 -14
t14 -34q0 -19 -14 -33t-34 -14t-33.5 13.5t-13.5 33.5z" />
    <glyph glyph-name="Yacute" unicode="&#xdd;" horiz-adv-x="555" 
d="M308 0h-61v322l-239 368h71l192 -301h13l192 301h71l-239 -368v-322zM422 824l-194 -80l-21 47l184 100z" />
    <glyph glyph-name="Thorn" unicode="&#xde;" horiz-adv-x="601" 
d="M367 146h-222v-146h-61v690h61v-140h222q77 0 130.5 -58t53.5 -142t-54 -144t-130 -60zM145 493v-290h214q53 0 91 42.5t38 102.5t-38 102.5t-91 42.5h-214z" />
    <glyph glyph-name="germandbls" unicode="&#xdf;" horiz-adv-x="551" 
d="M235 349v54h33q54 0 91.5 37.5t37.5 92.5q0 53 -38 90.5t-91 37.5t-91 -38t-38 -90v-533h-83v54h25v479q0 76 55.5 130t133.5 54t133 -54t55 -130q0 -53 -24 -84.5t-68 -60.5v-9q143 -60 143 -183q0 -85 -65.5 -144.5t-157.5 -59.5q-28 0 -55 7l4 54q20 -5 47 -5
q72 0 119 43.5t47 106.5q0 62 -49 106.5t-117 44.5h-47z" />
    <glyph glyph-name="agrave" unicode="&#xe0;" horiz-adv-x="560" 
d="M132 364h-59q0 10 3 25t16 38.5t34 42.5t61 33t93 14q173 0 173 -151v-290q0 -15 10.5 -24t22.5 -9q23 0 32 22l46 -22q-23 -51 -76 -51q-35 0 -57 23t-25 52h-9q-38 -42 -85 -58.5t-78 -16.5q-18 0 -36 2t-47 11t-50 24.5t-37 47t-16 73.5q0 119 176 155l170 35v22
q0 48 -22.5 73.5t-94.5 25.5q-43 0 -74.5 -11.5t-45 -29t-19.5 -31.5t-6 -25zM394 173v113l-148 -32q-27 -6 -45.5 -12t-42.5 -17.5t-36.5 -30t-12.5 -43.5q0 -103 122 -103h6q54 0 105.5 36.5t51.5 88.5zM328 566l-176 101l39 60l164 -119z" />
    <glyph glyph-name="aacute" unicode="&#xe1;" horiz-adv-x="560" 
d="M132 364h-59q0 10 3 25t16 38.5t34 42.5t61 33t93 14q173 0 173 -151v-290q0 -15 10.5 -24t22.5 -9q23 0 32 22l46 -22q-23 -51 -76 -51q-35 0 -57 23t-25 52h-9q-38 -42 -85 -58.5t-78 -16.5q-18 0 -36 2t-47 11t-50 24.5t-37 47t-16 73.5q0 119 176 155l170 35v22
q0 48 -22.5 73.5t-94.5 25.5q-43 0 -74.5 -11.5t-45 -29t-19.5 -31.5t-6 -25zM394 173v113l-148 -32q-27 -6 -45.5 -12t-42.5 -17.5t-36.5 -30t-12.5 -43.5q0 -103 122 -103h6q54 0 105.5 36.5t51.5 88.5zM395 667l-176 -101l-27 42l164 119z" />
    <glyph glyph-name="acircumflex" unicode="&#xe2;" horiz-adv-x="560" 
d="M132 364h-59q0 10 3 25t16 38.5t34 42.5t61 33t93 14q173 0 173 -151v-290q0 -15 10.5 -24t22.5 -9q23 0 32 22l46 -22q-23 -51 -76 -51q-35 0 -57 23t-25 52h-9q-38 -42 -85 -58.5t-78 -16.5q-18 0 -36 2t-47 11t-50 24.5t-37 47t-16 73.5q0 119 176 155l170 35v22
q0 48 -22.5 73.5t-94.5 25.5q-43 0 -74.5 -11.5t-45 -29t-19.5 -31.5t-6 -25zM394 173v113l-148 -32q-27 -6 -45.5 -12t-42.5 -17.5t-36.5 -30t-12.5 -43.5q0 -103 122 -103h6q54 0 105.5 36.5t51.5 88.5zM252 718h50l117 -106l-39 -44l-103 94l-103 -94l-39 44z" />
    <glyph glyph-name="atilde" unicode="&#xe3;" horiz-adv-x="560" 
d="M132 364h-59q0 10 3 25t16 38.5t34 42.5t61 33t93 14q173 0 173 -151v-290q0 -15 10.5 -24t22.5 -9q23 0 32 22l46 -22q-23 -51 -76 -51q-35 0 -57 23t-25 52h-9q-38 -42 -85 -58.5t-78 -16.5q-18 0 -36 2t-47 11t-50 24.5t-37 47t-16 73.5q0 119 176 155l170 35v22
q0 48 -22.5 73.5t-94.5 25.5q-43 0 -74.5 -11.5t-45 -29t-19.5 -31.5t-6 -25zM394 173v113l-148 -32q-27 -6 -45.5 -12t-42.5 -17.5t-36.5 -30t-12.5 -43.5q0 -103 122 -103h6q54 0 105.5 36.5t51.5 88.5zM129 596v19q0 37 25.5 61.5t61.5 24.5q29 0 51.5 -14.5t38.5 -29.5
t29 -15t22 7.5t9 21.5v19h59v-19q0 -37 -25.5 -61.5t-61.5 -24.5q-29 0 -51.5 14.5t-38.5 29.5t-29 15t-22 -7.5t-9 -21.5v-19h-59z" />
    <glyph glyph-name="adieresis" unicode="&#xe4;" horiz-adv-x="560" 
d="M132 364h-59q0 10 3 25t16 38.5t34 42.5t61 33t93 14q173 0 173 -151v-290q0 -15 10.5 -24t22.5 -9q23 0 32 22l46 -22q-23 -51 -76 -51q-35 0 -57 23t-25 52h-9q-38 -42 -85 -58.5t-78 -16.5q-18 0 -36 2t-47 11t-50 24.5t-37 47t-16 73.5q0 119 176 155l170 35v22
q0 48 -22.5 73.5t-94.5 25.5q-43 0 -74.5 -11.5t-45 -29t-19.5 -31.5t-6 -25zM394 173v113l-148 -32q-27 -6 -45.5 -12t-42.5 -17.5t-36.5 -30t-12.5 -43.5q0 -103 122 -103h6q54 0 105.5 36.5t51.5 88.5zM139 642q0 18 13 31.5t32 13.5q18 0 31.5 -13.5t13.5 -31.5
q0 -19 -13.5 -32t-31.5 -13q-19 0 -32 13t-13 32zM327 642q0 18 13 31.5t32 13.5q18 0 31.5 -13.5t13.5 -31.5q0 -19 -13.5 -32t-31.5 -13q-19 0 -32 13t-13 32z" />
    <glyph glyph-name="aring" unicode="&#xe5;" horiz-adv-x="560" 
d="M132 364h-59q0 10 3 25t16 38.5t34 42.5t61 33t93 14q173 0 173 -151v-290q0 -15 10.5 -24t22.5 -9q23 0 32 22l46 -22q-23 -51 -76 -51q-35 0 -57 23t-25 52h-9q-38 -42 -85 -58.5t-78 -16.5q-18 0 -36 2t-47 11t-50 24.5t-37 47t-16 73.5q0 119 176 155l170 35v22
q0 48 -22.5 73.5t-94.5 25.5q-43 0 -74.5 -11.5t-45 -29t-19.5 -31.5t-6 -25zM394 173v113l-148 -32q-27 -6 -45.5 -12t-42.5 -17.5t-36.5 -30t-12.5 -43.5q0 -103 122 -103h6q54 0 105.5 36.5t51.5 88.5zM175 658q0 42 30.5 72t73.5 30q42 0 72 -30t30 -72q0 -43 -30 -73.5
t-72 -30.5q-43 0 -73.5 30t-30.5 74zM227 658q0 -22 14.5 -37t37.5 -15q21 0 35.5 15t14.5 37q0 21 -14.5 35.5t-35.5 14.5q-22 0 -37 -14.5t-15 -35.5z" />
    <glyph glyph-name="ae" unicode="&#xe6;" horiz-adv-x="904" 
d="M629 -8q-57 0 -105.5 26t-79.5 73h-19q-39 -50 -91.5 -74.5t-99.5 -24.5q-13 0 -25.5 1t-36.5 5t-43.5 15t-39 27t-30.5 44.5t-11 65.5q0 66 54.5 103t121.5 37h171v80q0 18 -3 31t-13.5 28.5t-36 23.5t-64.5 8q-40 0 -70 -10t-44 -24.5t-22 -28.5t-9 -24l-1 -10h-59
q0 6 1.5 16.5t13 37t31 46.5t62 36.5t99.5 16.5q139 0 166 -96q67 96 183 96q99 0 163 -73.5t64 -189.5v-16h-403q2 -83 55.5 -136.5t128.5 -53.5q108 0 155 114l53 -24q-29 -68 -87 -107t-129 -39zM395 174v64h-155q-131 0 -131 -87q0 -103 119 -103h7q56 0 108 38t52 88z
M628 461q-68 0 -117 -47t-58 -124h340q-9 77 -54.5 124t-110.5 47z" />
    <glyph glyph-name="ccedilla" unicode="&#xe7;" horiz-adv-x="560" 
d="M114 254q0 -91 50.5 -148.5t123.5 -57.5q53 0 95.5 31.5t62.5 87.5h64q-21 -72 -72.5 -118t-119.5 -55v-37q29 -8 46 -30.5t17 -48.5q0 -37 -27.5 -63t-66.5 -26q-35 0 -57.5 17t-29.5 35l52 25q12 -23 34 -23q14 0 24.5 9.5t10.5 25.5q0 40 -60 40v76q-90 10 -149 81.5
t-59 178.5q0 115 68 189t167 74q83 0 146.5 -55.5t81.5 -145.5h-63q-16 66 -61.5 105.5t-103.5 39.5q-73 0 -123.5 -58t-50.5 -149z" />
    <glyph glyph-name="egrave" unicode="&#xe8;" horiz-adv-x="567" 
d="M292 -8q-100 0 -169.5 73.5t-69.5 188.5t69.5 189t169.5 74q99 0 163 -73.5t64 -189.5v-16h-403q2 -83 55.5 -136.5t128.5 -53.5q108 0 155 114l53 -24q-29 -68 -87 -107t-129 -39zM291 461q-68 0 -117 -47t-58 -124h340q-9 77 -54.5 124t-110.5 47zM334 566l-176 101
l39 60l164 -119z" />
    <glyph glyph-name="eacute" unicode="&#xe9;" horiz-adv-x="567" 
d="M292 -8q-100 0 -169.5 73.5t-69.5 188.5t69.5 189t169.5 74q99 0 163 -73.5t64 -189.5v-16h-403q2 -83 55.5 -136.5t128.5 -53.5q108 0 155 114l53 -24q-29 -68 -87 -107t-129 -39zM291 461q-68 0 -117 -47t-58 -124h340q-9 77 -54.5 124t-110.5 47zM414 667l-176 -101
l-27 42l164 119z" />
    <glyph glyph-name="ecircumflex" unicode="&#xea;" horiz-adv-x="567" 
d="M292 -8q-100 0 -169.5 73.5t-69.5 188.5t69.5 189t169.5 74q99 0 163 -73.5t64 -189.5v-16h-403q2 -83 55.5 -136.5t128.5 -53.5q108 0 155 114l53 -24q-29 -68 -87 -107t-129 -39zM291 461q-68 0 -117 -47t-58 -124h340q-9 77 -54.5 124t-110.5 47zM266 718h50l117 -106
l-39 -44l-103 94l-103 -94l-39 44z" />
    <glyph glyph-name="edieresis" unicode="&#xeb;" horiz-adv-x="567" 
d="M292 -8q-100 0 -169.5 73.5t-69.5 188.5t69.5 189t169.5 74q99 0 163 -73.5t64 -189.5v-16h-403q2 -83 55.5 -136.5t128.5 -53.5q108 0 155 114l53 -24q-29 -68 -87 -107t-129 -39zM291 461q-68 0 -117 -47t-58 -124h340q-9 77 -54.5 124t-110.5 47zM153 642
q0 18 13 31.5t32 13.5q18 0 31.5 -13.5t13.5 -31.5q0 -19 -13.5 -32t-31.5 -13q-19 0 -32 13t-13 32zM341 642q0 18 13 31.5t32 13.5q18 0 31.5 -13.5t13.5 -31.5q0 -19 -13.5 -32t-31.5 -13q-19 0 -32 13t-13 32z" />
    <glyph glyph-name="igrave" unicode="&#xec;" horiz-adv-x="212" 
d="M77 0v507h59v-507h-59zM136 566l-176 101l39 60l164 -119z" />
    <glyph glyph-name="iacute" unicode="&#xed;" horiz-adv-x="212" 
d="M77 0v507h59v-507h-59zM253 667l-176 -101l-27 42l164 119z" />
    <glyph glyph-name="icircumflex" unicode="&#xee;" horiz-adv-x="212" 
d="M77 0v507h59v-507h-59zM81 718h50l117 -106l-39 -44l-103 94l-103 -94l-39 44z" />
    <glyph glyph-name="idieresis" unicode="&#xef;" horiz-adv-x="212" 
d="M77 0v507h59v-507h-59zM-34 642q0 18 13 31.5t32 13.5q18 0 31.5 -13.5t13.5 -31.5q0 -19 -13.5 -32t-31.5 -13q-19 0 -32 13t-13 32zM154 642q0 18 13 31.5t32 13.5q18 0 31.5 -13.5t13.5 -31.5q0 -19 -13.5 -32t-31.5 -13q-19 0 -32 13t-13 32z" />
    <glyph glyph-name="eth" unicode="&#xf0;" horiz-adv-x="580" 
d="M114 254q0 -90 51 -148t125 -58t125 58t51 148t-51 148.5t-125 58.5t-125 -58.5t-51 -148.5zM289 517q62 0 128 -55q-37 60 -131 140q-15 -8 -100 -56l-35 35l93 53q-44 28 -87 49l35 34q52 -25 103 -61q94 55 106 62l36 -34l-99 -59q189 -165 189 -371
q0 -115 -69 -188.5t-169 -73.5q-99 0 -167.5 73.5t-68.5 188.5t68.5 189t167.5 74z" />
    <glyph glyph-name="ntilde" unicode="&#xf1;" 
d="M136 0h-59v507h59v-111h8q31 55 79 88t107 33q45 0 78 -14t48.5 -31.5t24.5 -42t10 -36t1 -23.5v-370h-59v359q0 8 -1 16t-6.5 25t-16 29t-33 22t-52.5 10q-70 0 -129 -66.5t-59 -173.5v-221zM135 596v19q0 37 25.5 61.5t61.5 24.5q29 0 51.5 -14.5t38.5 -29.5t29 -15
t22 7.5t9 21.5v19h59v-19q0 -37 -25.5 -61.5t-61.5 -24.5q-29 0 -51.5 14.5t-38.5 29.5t-29 15t-22 -7.5t-9 -21.5v-19h-59z" />
    <glyph glyph-name="ograve" unicode="&#xf2;" horiz-adv-x="582" 
d="M53 254q0 115 69.5 189t169.5 74q99 0 168 -74t69 -189t-69 -188.5t-168 -73.5q-100 0 -169.5 73.5t-69.5 188.5zM114 254q0 -91 51.5 -148.5t125.5 -57.5t125.5 57.5t51.5 148.5t-51.5 149t-125.5 58t-125.5 -58t-51.5 -149zM333 566l-176 101l39 60l164 -119z" />
    <glyph glyph-name="oacute" unicode="&#xf3;" horiz-adv-x="582" 
d="M53 254q0 115 69.5 189t169.5 74q99 0 168 -74t69 -189t-69 -188.5t-168 -73.5q-100 0 -169.5 73.5t-69.5 188.5zM114 254q0 -91 51.5 -148.5t125.5 -57.5t125.5 57.5t51.5 148.5t-51.5 149t-125.5 58t-125.5 -58t-51.5 -149zM414 667l-176 -101l-27 42l164 119z" />
    <glyph glyph-name="ocircumflex" unicode="&#xf4;" horiz-adv-x="582" 
d="M53 254q0 115 69.5 189t169.5 74q99 0 168 -74t69 -189t-69 -188.5t-168 -73.5q-100 0 -169.5 73.5t-69.5 188.5zM114 254q0 -91 51.5 -148.5t125.5 -57.5t125.5 57.5t51.5 148.5t-51.5 149t-125.5 58t-125.5 -58t-51.5 -149zM266 718h50l117 -106l-39 -44l-103 94
l-103 -94l-39 44z" />
    <glyph glyph-name="otilde" unicode="&#xf5;" horiz-adv-x="582" 
d="M53 254q0 115 69.5 189t169.5 74q99 0 168 -74t69 -189t-69 -188.5t-168 -73.5q-100 0 -169.5 73.5t-69.5 188.5zM114 254q0 -91 51.5 -148.5t125.5 -57.5t125.5 57.5t51.5 148.5t-51.5 149t-125.5 58t-125.5 -58t-51.5 -149zM141 596v19q0 37 25.5 61.5t61.5 24.5
q29 0 51.5 -14.5t38.5 -29.5t29 -15t22 7.5t9 21.5v19h59v-19q0 -37 -25.5 -61.5t-61.5 -24.5q-29 0 -51.5 14.5t-38.5 29.5t-29 15t-22 -7.5t-9 -21.5v-19h-59z" />
    <glyph glyph-name="odieresis" unicode="&#xf6;" horiz-adv-x="582" 
d="M53 254q0 115 69.5 189t169.5 74q99 0 168 -74t69 -189t-69 -188.5t-168 -73.5q-100 0 -169.5 73.5t-69.5 188.5zM114 254q0 -91 51.5 -148.5t125.5 -57.5t125.5 57.5t51.5 148.5t-51.5 149t-125.5 58t-125.5 -58t-51.5 -149zM151 642q0 18 13 31.5t32 13.5
q18 0 31.5 -13.5t13.5 -31.5q0 -19 -13.5 -32t-31.5 -13q-19 0 -32 13t-13 32zM339 642q0 18 13 31.5t32 13.5q18 0 31.5 -13.5t13.5 -31.5q0 -19 -13.5 -32t-31.5 -13q-19 0 -32 13t-13 32z" />
    <glyph glyph-name="divide" unicode="&#xf7;" horiz-adv-x="486" 
d="M45 262v56h396v-56h-396zM197 446q0 18 13 31.5t32 13.5q18 0 31.5 -13.5t13.5 -31.5q0 -19 -13.5 -32t-31.5 -13q-19 0 -32 13t-13 32zM197 134q0 18 13 31.5t32 13.5q18 0 31.5 -13.5t13.5 -31.5q0 -19 -13.5 -32t-31.5 -13q-19 0 -32 13t-13 32z" />
    <glyph glyph-name="oslash" unicode="&#xf8;" horiz-adv-x="582" 
d="M53 254q0 115 69.5 189t169.5 74q65 0 119 -34l61 92l45 -30l-63 -96q75 -75 75 -195q0 -115 -69 -188.5t-168 -73.5q-68 0 -120 33l-63 -95l-45 30l65 98q-76 74 -76 196zM114 254q0 -87 48 -145l217 326q-42 26 -88 26q-74 0 -125.5 -58t-51.5 -149zM468 254
q0 84 -48 144l-216 -325q41 -25 87 -25q74 0 125.5 57.5t51.5 148.5z" />
    <glyph glyph-name="ugrave" unicode="&#xf9;" 
d="M432 507h59v-507h-59v114h-8q-31 -55 -79.5 -88.5t-106.5 -33.5q-45 0 -78 14t-48.5 31.5t-24.5 42t-10 36t-1 23.5v368h59v-357q0 -8 1 -16t6.5 -25t16 -29t33 -22t52.5 -10q70 0 129 66.5t59 173.5v219zM332 566l-176 101l39 60l164 -119z" />
    <glyph glyph-name="uacute" unicode="&#xfa;" 
d="M432 507h59v-507h-59v114h-8q-31 -55 -79.5 -88.5t-106.5 -33.5q-45 0 -78 14t-48.5 31.5t-24.5 42t-10 36t-1 23.5v368h59v-357q0 -8 1 -16t6.5 -25t16 -29t33 -22t52.5 -10q70 0 129 66.5t59 173.5v219zM410 667l-176 -101l-27 42l164 119z" />
    <glyph glyph-name="ucircumflex" unicode="&#xfb;" 
d="M432 507h59v-507h-59v114h-8q-31 -55 -79.5 -88.5t-106.5 -33.5q-45 0 -78 14t-48.5 31.5t-24.5 42t-10 36t-1 23.5v368h59v-357q0 -8 1 -16t6.5 -25t16 -29t33 -22t52.5 -10q70 0 129 66.5t59 173.5v219zM257 718h50l117 -106l-39 -44l-103 94l-103 -94l-39 44z" />
    <glyph glyph-name="udieresis" unicode="&#xfc;" 
d="M432 507h59v-507h-59v114h-8q-31 -55 -79.5 -88.5t-106.5 -33.5q-45 0 -78 14t-48.5 31.5t-24.5 42t-10 36t-1 23.5v368h59v-357q0 -8 1 -16t6.5 -25t16 -29t33 -22t52.5 -10q70 0 129 66.5t59 173.5v219zM139 642q0 18 13 31.5t32 13.5q18 0 31.5 -13.5t13.5 -31.5
q0 -19 -13.5 -32t-31.5 -13q-19 0 -32 13t-13 32zM327 642q0 18 13 31.5t32 13.5q18 0 31.5 -13.5t13.5 -31.5q0 -19 -13.5 -32t-31.5 -13q-19 0 -32 13t-13 32z" />
    <glyph glyph-name="yacute" unicode="&#xfd;" horiz-adv-x="496" 
d="M88 -205q-27 0 -51 7l14 55q18 -6 36 -6q72 0 91 53l44 115l-202 488h64l163 -394h13l150 394h63l-239 -621q-35 -91 -146 -91zM375 667l-176 -101l-27 42l164 119z" />
    <glyph glyph-name="thorn" unicode="&#xfe;" horiz-adv-x="595" 
d="M78 -181v877h59v-282h6q72 103 171 103q95 0 161.5 -77t66.5 -186q0 -108 -66.5 -185t-161.5 -77q-103 0 -171 97h-6v-270h-59zM137 255v-9q2 -89 48 -143.5t125 -54.5q72 0 121.5 60t49.5 146q0 87 -49.5 147t-121.5 60q-81 0 -127 -56.5t-46 -149.5z" />
    <glyph glyph-name="ydieresis" unicode="&#xff;" horiz-adv-x="496" 
d="M88 -205q-27 0 -51 7l14 55q18 -6 36 -6q72 0 91 53l44 115l-202 488h64l163 -394h13l150 394h63l-239 -621q-35 -91 -146 -91zM106 642q0 18 13 31.5t32 13.5q18 0 31.5 -13.5t13.5 -31.5q0 -19 -13.5 -32t-31.5 -13q-19 0 -32 13t-13 32zM294 642q0 18 13 31.5t32 13.5
q18 0 31.5 -13.5t13.5 -31.5q0 -19 -13.5 -32t-31.5 -13q-19 0 -32 13t-13 32z" />
    <glyph glyph-name="Amacron" unicode="&#x100;" horiz-adv-x="597" 
d="M582 0h-64l-70 205h-299l-70 -205h-64l234 690h99zM297 644l-129 -382h261l-129 382h-3zM157 796v57h284v-57h-284z" />
    <glyph glyph-name="amacron" unicode="&#x101;" horiz-adv-x="560" 
d="M132 364h-59q0 10 3 25t16 38.5t34 42.5t61 33t93 14q173 0 173 -151v-290q0 -15 10.5 -24t22.5 -9q23 0 32 22l46 -22q-23 -51 -76 -51q-35 0 -57 23t-25 52h-9q-38 -42 -85 -58.5t-78 -16.5q-18 0 -36 2t-47 11t-50 24.5t-37 47t-16 73.5q0 119 176 155l170 35v22
q0 48 -22.5 73.5t-94.5 25.5q-43 0 -74.5 -11.5t-45 -29t-19.5 -31.5t-6 -25zM394 173v113l-148 -32q-27 -6 -45.5 -12t-42.5 -17.5t-36.5 -30t-12.5 -43.5q0 -103 122 -103h6q54 0 105.5 36.5t51.5 88.5zM146 616v54h268v-54h-268z" />
    <glyph glyph-name="Abreve" unicode="&#x102;" horiz-adv-x="597" 
d="M582 0h-64l-70 205h-299l-70 -205h-64l234 690h99zM297 644l-129 -382h261l-129 382h-3zM211 896q0 -34 25.5 -60t60.5 -26t60.5 25.5t25.5 60.5v2h62q0 -61 -43.5 -104t-104.5 -43t-104.5 43t-43.5 104h62v-2z" />
    <glyph glyph-name="abreve" unicode="&#x103;" horiz-adv-x="560" 
d="M132 364h-59q0 10 3 25t16 38.5t34 42.5t61 33t93 14q173 0 173 -151v-290q0 -15 10.5 -24t22.5 -9q23 0 32 22l46 -22q-23 -51 -76 -51q-35 0 -57 23t-25 52h-9q-38 -42 -85 -58.5t-78 -16.5q-18 0 -36 2t-47 11t-50 24.5t-37 47t-16 73.5q0 119 176 155l170 35v22
q0 48 -22.5 73.5t-94.5 25.5q-43 0 -74.5 -11.5t-45 -29t-19.5 -31.5t-6 -25zM394 173v113l-148 -32q-27 -6 -45.5 -12t-42.5 -17.5t-36.5 -30t-12.5 -43.5q0 -103 122 -103h6q54 0 105.5 36.5t51.5 88.5zM201 711q0 -33 24.5 -57t57.5 -24t57.5 24t24.5 57v2h58
q0 -57 -41.5 -98t-98.5 -41q-58 0 -99 40.5t-41 98.5h58v-2z" />
    <glyph glyph-name="Aogonek" unicode="&#x104;" horiz-adv-x="597" 
d="M348 690l234 -690q-91 -55 -91 -119q0 -15 12.5 -24.5t26.5 -9.5q25 0 40 23l51 -24q-13 -25 -38.5 -41t-58.5 -16q-35 0 -66 24t-31 61q0 75 89 131l-68 200h-299l-70 -205h-64l234 690h99zM168 262h261l-129 382h-3z" />
    <glyph glyph-name="aogonek" unicode="&#x105;" horiz-adv-x="560" 
d="M132 364h-59q0 10 3 25t16 38.5t34 42.5t61 33t93 14q173 0 173 -151v-290q0 -15 10.5 -24t22.5 -9q23 0 32 22l46 -22q-10 -22 -33.5 -44t-44.5 -36.5t-38 -36.5t-17 -45q0 -15 13 -25.5t27 -10.5q29 0 41 25l50 -24q-13 -25 -38.5 -41t-58.5 -16q-35 0 -65.5 24
t-30.5 61q0 73 89 125q-23 7 -36.5 26t-15.5 42h-9q-38 -42 -85 -58.5t-78 -16.5q-18 0 -36 2t-47 11t-50 24.5t-37 47t-16 73.5q0 119 176 155l170 35v22q0 48 -22.5 73.5t-94.5 25.5q-43 0 -74.5 -11.5t-45 -29t-19.5 -31.5t-6 -25zM394 173v113l-148 -32
q-27 -6 -45.5 -12t-42.5 -17.5t-36.5 -30t-12.5 -43.5q0 -103 122 -103h6q54 0 105.5 36.5t51.5 88.5z" />
    <glyph glyph-name="Cacute" unicode="&#x106;" horiz-adv-x="661" 
d="M119 344q0 -134 67 -217q60 -76 162 -76q79 0 129 46q54 50 76 143h62q-24 -115 -98 -184q-72 -64 -169 -64q-125 0 -207 96q-85 98 -85 257q0 158 86 257q82 96 206 96q92 0 166 -63q73 -65 99 -175h-63q-24 88 -76 134q-52 45 -126 45q-101 0 -162 -77
q-67 -83 -67 -218zM482 824l-194 -80l-21 47l184 100z" />
    <glyph glyph-name="cacute" unicode="&#x107;" horiz-adv-x="560" 
d="M114 254q0 -91 50.5 -148.5t123.5 -57.5q53 0 95.5 31.5t62.5 87.5h64q-23 -80 -84 -127.5t-138 -47.5q-99 0 -167 73.5t-68 188.5t68 189t167 74q83 0 146.5 -55.5t81.5 -145.5h-63q-16 66 -61.5 105.5t-103.5 39.5q-73 0 -123.5 -58t-50.5 -149zM421 667l-176 -101
l-27 42l164 119z" />
    <glyph glyph-name="Ccircumflex" unicode="&#x108;" horiz-adv-x="661" 
d="M119 344q0 -134 67 -217q60 -76 162 -76q79 0 129 46q54 50 76 143h62q-24 -115 -98 -184q-72 -64 -169 -64q-125 0 -207 96q-85 98 -85 257q0 158 86 257q82 96 206 96q92 0 166 -63q73 -65 99 -175h-63q-24 88 -76 134q-52 45 -126 45q-101 0 -162 -77
q-67 -83 -67 -218zM323 899h50l129 -103l-41 -47l-113 91l-113 -91l-41 47z" />
    <glyph glyph-name="ccircumflex" unicode="&#x109;" horiz-adv-x="560" 
d="M114 254q0 -91 50.5 -148.5t123.5 -57.5q53 0 95.5 31.5t62.5 87.5h64q-23 -80 -84 -127.5t-138 -47.5q-99 0 -167 73.5t-68 188.5t68 189t167 74q83 0 146.5 -55.5t81.5 -145.5h-63q-16 66 -61.5 105.5t-103.5 39.5q-73 0 -123.5 -58t-50.5 -149zM266 718h50l117 -106
l-39 -44l-103 94l-103 -94l-39 44z" />
    <glyph glyph-name="Cdotaccent" unicode="&#x10a;" horiz-adv-x="661" 
d="M119 344q0 -134 67 -217q60 -76 162 -76q79 0 129 46q54 50 76 143h62q-24 -115 -98 -184q-72 -64 -169 -64q-125 0 -207 96q-85 98 -85 257q0 158 86 257q82 96 206 96q92 0 166 -63q73 -65 99 -175h-63q-24 88 -76 134q-52 45 -126 45q-101 0 -162 -77
q-67 -83 -67 -218zM301 824q0 20 14 34t33 14q20 0 34 -14t14 -34q0 -19 -14 -33t-34 -14t-33.5 13.5t-13.5 33.5z" />
    <glyph glyph-name="cdotaccent" unicode="&#x10b;" horiz-adv-x="560" 
d="M114 254q0 -91 50.5 -148.5t123.5 -57.5q53 0 95.5 31.5t62.5 87.5h64q-23 -80 -84 -127.5t-138 -47.5q-99 0 -167 73.5t-68 188.5t68 189t167 74q83 0 146.5 -55.5t81.5 -145.5h-63q-16 66 -61.5 105.5t-103.5 39.5q-73 0 -123.5 -58t-50.5 -149zM246 642q0 18 13 31.5
t32 13.5q18 0 31.5 -13.5t13.5 -31.5q0 -19 -13.5 -32t-31.5 -13q-19 0 -32 13t-13 32z" />
    <glyph glyph-name="Ccaron" unicode="&#x10c;" horiz-adv-x="661" 
d="M119 344q0 -134 67 -217q60 -76 162 -76q79 0 129 46q54 50 76 143h62q-24 -115 -98 -184q-72 -64 -169 -64q-125 0 -207 96q-85 98 -85 257q0 158 86 257q82 96 206 96q92 0 166 -63q73 -65 99 -175h-63q-24 88 -76 134q-52 45 -126 45q-101 0 -162 -77
q-67 -83 -67 -218zM373 749h-50l-129 103l41 47l113 -91l113 91l41 -47z" />
    <glyph glyph-name="ccaron" unicode="&#x10d;" horiz-adv-x="560" 
d="M114 254q0 -91 50.5 -148.5t123.5 -57.5q53 0 95.5 31.5t62.5 87.5h64q-23 -80 -84 -127.5t-138 -47.5q-99 0 -167 73.5t-68 188.5t68 189t167 74q83 0 146.5 -55.5t81.5 -145.5h-63q-16 66 -61.5 105.5t-103.5 39.5q-73 0 -123.5 -58t-50.5 -149zM316 568h-50l-117 106
l39 44l103 -94l103 94l39 -44z" />
    <glyph glyph-name="Dcaron" unicode="&#x10e;" horiz-adv-x="676" 
d="M145 57h199q90 0 152.5 84t62.5 203q0 120 -62.5 204.5t-152.5 84.5h-199v-576zM357 0h-273v690h273q109 0 187 -101t78 -244t-78 -244t-187 -101zM336 749h-50l-129 103l41 47l113 -91l113 91l41 -47z" />
    <glyph glyph-name="dcaron" unicode="&#x10f;" horiz-adv-x="657" 
d="M575 650q0 20 14.5 34t34.5 14q23 0 37 -15t14 -42v-6q0 -59 -71 -133l-30 27q29 32 48 75q-18 0 -32.5 13.5t-14.5 32.5zM517 696v-696h-59v89h-6q-68 -97 -171 -97q-95 0 -161.5 77t-66.5 185q0 109 66.5 186t161.5 77q99 0 171 -103h6v282h59zM458 246v9
q0 93 -46 149.5t-127 56.5q-72 0 -121.5 -60t-49.5 -147q0 -86 49.5 -146t121.5 -60q79 0 125 54.5t48 143.5z" />
    <glyph glyph-name="Dcroat" unicode="&#x110;" horiz-adv-x="676" 
d="M24 317v57h60v316h273q109 0 187 -101t78 -244t-78 -244t-187 -101h-273v317h-60zM145 57h199q90 0 152.5 84t62.5 203q0 120 -62.5 204.5t-152.5 84.5h-199v-259h174v-57h-174v-260z" />
    <glyph glyph-name="dcroat" unicode="&#x111;" horiz-adv-x="595" 
d="M517 696v-78h60v-54h-60v-564h-59v89h-6q-68 -97 -171 -97q-95 0 -161.5 77t-66.5 185q0 109 66.5 186t161.5 77q99 0 171 -103h6v150h-151v54h151v78h59zM458 246v9q0 93 -46 149.5t-127 56.5q-72 0 -121.5 -60t-49.5 -147q0 -86 49.5 -146t121.5 -60q79 0 125 54.5
t48 143.5z" />
    <glyph glyph-name="Emacron" unicode="&#x112;" horiz-adv-x="618" 
d="M551 690v-57h-406v-255h366v-57h-366v-264h426v-57h-487v690h467zM171 796v57h284v-57h-284z" />
    <glyph glyph-name="emacron" unicode="&#x113;" horiz-adv-x="567" 
d="M292 -8q-100 0 -169.5 73.5t-69.5 188.5t69.5 189t169.5 74q99 0 163 -73.5t64 -189.5v-16h-403q2 -83 55.5 -136.5t128.5 -53.5q108 0 155 114l53 -24q-29 -68 -87 -107t-129 -39zM291 461q-68 0 -117 -47t-58 -124h340q-9 77 -54.5 124t-110.5 47zM160 616v54h268v-54
h-268z" />
    <glyph glyph-name="Ebreve" unicode="&#x114;" horiz-adv-x="618" 
d="M551 690v-57h-406v-255h366v-57h-366v-264h426v-57h-487v690h467zM238 896q0 -34 26 -60t60 -26q35 0 60.5 25.5t25.5 60.5v2h62q0 -61 -43.5 -104t-104.5 -43t-104.5 43t-43.5 104h62v-2z" />
    <glyph glyph-name="ebreve" unicode="&#x115;" horiz-adv-x="567" 
d="M292 -8q-100 0 -169.5 73.5t-69.5 188.5t69.5 189t169.5 74q99 0 163 -73.5t64 -189.5v-16h-403q2 -83 55.5 -136.5t128.5 -53.5q108 0 155 114l53 -24q-29 -68 -87 -107t-129 -39zM291 461q-68 0 -117 -47t-58 -124h340q-9 77 -54.5 124t-110.5 47zM210 711
q0 -33 24.5 -57t57.5 -24t57.5 24t24.5 57v2h58q0 -57 -41.5 -98t-98.5 -41q-58 0 -99 40.5t-41 98.5h58v-2z" />
    <glyph glyph-name="Edotaccent" unicode="&#x116;" horiz-adv-x="618" 
d="M551 690v-57h-406v-255h366v-57h-366v-264h426v-57h-487v690h467zM270 824q0 20 14 34t33 14t33.5 -14t14.5 -34q0 -19 -14 -33t-34 -14q-19 0 -33 13.5t-14 33.5z" />
    <glyph glyph-name="edotaccent" unicode="&#x117;" horiz-adv-x="567" 
d="M292 -8q-100 0 -169.5 73.5t-69.5 188.5t69.5 189t169.5 74q99 0 163 -73.5t64 -189.5v-16h-403q2 -83 55.5 -136.5t128.5 -53.5q108 0 155 114l53 -24q-29 -68 -87 -107t-129 -39zM291 461q-68 0 -117 -47t-58 -124h340q-9 77 -54.5 124t-110.5 47zM247 642
q0 18 13 31.5t32 13.5q18 0 31.5 -13.5t13.5 -31.5q0 -19 -13.5 -32t-31.5 -13q-19 0 -32 13t-13 32z" />
    <glyph glyph-name="Eogonek" unicode="&#x118;" horiz-adv-x="618" 
d="M522 -130l51 -24q-13 -25 -38.5 -41t-58.5 -16q-35 0 -66 24t-31 61q0 42 25.5 74.5t57.5 51.5h-378v690h467v-57h-406v-255h366v-57h-366v-264h426v-57h-37q-91 -55 -91 -119q0 -15 12.5 -24.5t26.5 -9.5q25 0 40 23z" />
    <glyph glyph-name="eogonek" unicode="&#x119;" horiz-adv-x="567" 
d="M291 461q-68 0 -117 -47t-58 -124h340q-9 77 -54.5 124t-110.5 47zM430 -130l50 -24q-13 -25 -38.5 -41t-58.5 -16q-35 0 -65.5 24t-30.5 61q0 71 84 132q-36 -14 -79 -14q-100 0 -169.5 73.5t-69.5 188.5t69.5 189t169.5 74q99 0 163 -73.5t64 -189.5v-16h-403
q2 -83 55.5 -136.5t128.5 -53.5q108 0 155 114l53 -24q-7 -14 -17 -33q-34 -52 -73.5 -100.5t-54 -71.5t-14.5 -52q0 -15 13 -25.5t27 -10.5q29 0 41 25z" />
    <glyph glyph-name="Ecaron" unicode="&#x11a;" horiz-adv-x="618" 
d="M551 690v-57h-406v-255h366v-57h-366v-264h426v-57h-487v690h467zM348 749h-50l-129 103l41 47l113 -91l113 91l41 -47z" />
    <glyph glyph-name="ecaron" unicode="&#x11b;" horiz-adv-x="567" 
d="M292 -8q-100 0 -169.5 73.5t-69.5 188.5t69.5 189t169.5 74q99 0 163 -73.5t64 -189.5v-16h-403q2 -83 55.5 -136.5t128.5 -53.5q108 0 155 114l53 -24q-29 -68 -87 -107t-129 -39zM291 461q-68 0 -117 -47t-58 -124h340q-9 77 -54.5 124t-110.5 47zM316 568h-50
l-117 106l39 44l103 -94l103 94l39 -44z" />
    <glyph glyph-name="Gcircumflex" unicode="&#x11c;" horiz-adv-x="686" 
d="M551 0v121q-33 -57 -88 -93q-54 -36 -115 -36q-124 0 -207 95q-85 99 -85 258q0 158 86 257q82 96 206 96q98 0 178 -70.5t80 -171.5h-62q0 75 -58.5 129t-137.5 54q-96 0 -161 -79q-68 -84 -68 -214q0 -133 68 -217q64 -78 161 -78q76 0 137 66q64 68 70 179h-216v57
h273v-353h-61zM322 899h50l129 -103l-41 -47l-113 91l-113 -91l-41 47z" />
    <glyph glyph-name="gcircumflex" unicode="&#x11d;" horiz-adv-x="567" 
d="M431 227v66q0 81 -47 124.5t-112 43.5q-66 0 -112 -58t-46 -140t46 -140t112 -58q64 0 111.5 42.5t47.5 119.5zM74 -86l53 26q24 -44 67 -66.5t89 -22.5q76 0 112 39t36 102v100q-50 -83 -160 -83q-91 0 -154.5 73.5t-63.5 179.5q0 107 63.5 181t154.5 74q95 0 155 -83h5
v73h59v-522q0 -82 -52 -136t-155 -54q-61 0 -119 30t-90 89zM261 718h50l117 -106l-39 -44l-103 94l-103 -94l-39 44z" />
    <glyph glyph-name="Gbreve" unicode="&#x11e;" horiz-adv-x="686" 
d="M551 0v121q-33 -57 -88 -93q-54 -36 -115 -36q-124 0 -207 95q-85 99 -85 258q0 158 86 257q82 96 206 96q98 0 178 -70.5t80 -171.5h-62q0 75 -58.5 129t-137.5 54q-96 0 -161 -79q-68 -84 -68 -214q0 -133 68 -217q64 -78 161 -78q76 0 137 66q64 68 70 179h-216v57
h273v-353h-61zM268 896q0 -34 26 -60t60 -26q35 0 60.5 25.5t25.5 60.5v2h62q0 -61 -43.5 -104t-104.5 -43t-104.5 43t-43.5 104h62v-2z" />
    <glyph glyph-name="gbreve" unicode="&#x11f;" horiz-adv-x="567" 
d="M431 227v66q0 81 -47 124.5t-112 43.5q-66 0 -112 -58t-46 -140t46 -140t112 -58q64 0 111.5 42.5t47.5 119.5zM74 -86l53 26q24 -44 67 -66.5t89 -22.5q76 0 112 39t36 102v100q-50 -83 -160 -83q-91 0 -154.5 73.5t-63.5 179.5q0 107 63.5 181t154.5 74q95 0 155 -83h5
v73h59v-522q0 -82 -52 -136t-155 -54q-61 0 -119 30t-90 89zM199 711q0 -33 24.5 -57t57.5 -24t57.5 24t24.5 57v2h58q0 -57 -41.5 -98t-98.5 -41q-58 0 -99 40.5t-41 98.5h58v-2z" />
    <glyph glyph-name="Gdotaccent" unicode="&#x120;" horiz-adv-x="686" 
d="M551 0v121q-33 -57 -88 -93q-54 -36 -115 -36q-124 0 -207 95q-85 99 -85 258q0 158 86 257q82 96 206 96q98 0 178 -70.5t80 -171.5h-62q0 75 -58.5 129t-137.5 54q-96 0 -161 -79q-68 -84 -68 -214q0 -133 68 -217q64 -78 161 -78q76 0 137 66q64 68 70 179h-216v57
h273v-353h-61zM292 824q0 20 14 34t33 14t33.5 -14t14.5 -34q0 -19 -14 -33t-34 -14q-19 0 -33 13.5t-14 33.5z" />
    <glyph glyph-name="gdotaccent" unicode="&#x121;" horiz-adv-x="567" 
d="M431 227v66q0 81 -47 124.5t-112 43.5q-66 0 -112 -58t-46 -140t46 -140t112 -58q64 0 111.5 42.5t47.5 119.5zM74 -86l53 26q24 -44 67 -66.5t89 -22.5q76 0 112 39t36 102v100q-50 -83 -160 -83q-91 0 -154.5 73.5t-63.5 179.5q0 107 63.5 181t154.5 74q95 0 155 -83h5
v73h59v-522q0 -82 -52 -136t-155 -54q-61 0 -119 30t-90 89zM225 642q0 18 13 31.5t32 13.5q18 0 31.5 -13.5t13.5 -31.5q0 -19 -13.5 -32t-31.5 -13q-19 0 -32 13t-13 32z" />
    <glyph glyph-name="Gcommaaccent" unicode="&#x122;" horiz-adv-x="686" 
d="M551 0v121q-33 -57 -88 -93q-54 -36 -115 -36q-124 0 -207 95q-85 99 -85 258q0 158 86 257q82 96 206 96q98 0 178 -70.5t80 -171.5h-62q0 75 -58.5 129t-137.5 54q-96 0 -161 -79q-68 -84 -68 -214q0 -133 68 -217q64 -78 161 -78q76 0 137 66q64 68 70 179h-216v57
h273v-353h-61zM299 -86q0 20 15 34t34 14q23 0 37 -15t14 -42v-7q0 -42 -63 -112l-29 27q31 30 39 55q-18 0 -32.5 14t-14.5 32z" />
    <glyph glyph-name="gcommaaccent" unicode="&#x123;" horiz-adv-x="567" 
d="M319 605q0 -20 -15 -34t-34 -14q-23 0 -37 15t-14 42v7q0 42 63 112l29 -27q-31 -30 -39 -55q18 0 32.5 -14t14.5 -32zM431 227v66q0 81 -47 124.5t-112 43.5q-66 0 -112 -58t-46 -140t46 -140t112 -58q64 0 111.5 42.5t47.5 119.5zM74 -86l53 26q24 -44 67 -66.5
t89 -22.5q76 0 112 39t36 102v100q-50 -83 -160 -83q-91 0 -154.5 73.5t-63.5 179.5q0 107 63.5 181t154.5 74q95 0 155 -83h5v73h59v-522q0 -82 -52 -136t-155 -54q-61 0 -119 30t-90 89z" />
    <glyph glyph-name="Hcircumflex" unicode="&#x124;" horiz-adv-x="688" 
d="M145 0h-61v690h61v-299h398v299h61v-690h-61v334h-398v-334zM319 899h50l129 -103l-41 -47l-113 91l-113 -91l-41 47z" />
    <glyph glyph-name="hcircumflex" unicode="&#x125;" horiz-adv-x="569" 
d="M137 0h-59v696h59v-300h8q31 55 79 88t107 33q45 0 78 -14t48.5 -31.5t24.5 -42t10 -36t1 -23.5v-370h-59v359q0 8 -1 16t-6.5 25t-16 29t-33 22t-52.5 10q-70 0 -129 -66.5t-59 -173.5v-221zM194 907h50l117 -106l-39 -44l-103 94l-103 -94l-39 44z" />
    <glyph glyph-name="Hbar" unicode="&#x126;" horiz-adv-x="682" 
d="M22 513v57h62v120h61v-120h392v120h61v-120h62v-57h-62v-513h-61v334h-392v-334h-61v513h-62zM145 391h392v122h-392v-122z" />
    <glyph glyph-name="hbar" unicode="&#x127;" horiz-adv-x="569" 
d="M288 564h-151v-168h8q31 55 79 88t107 33q45 0 78 -14t48.5 -31.5t24.5 -42t10 -36t1 -23.5v-370h-59v359q0 8 -1 16t-6.5 25t-16 29t-33 22t-52.5 10q-70 0 -129 -66.5t-59 -173.5v-221h-59v564h-60v54h60v78h59v-78h151v-54z" />
    <glyph glyph-name="Itilde" unicode="&#x128;" horiz-adv-x="229" 
d="M84 0v690h61v-690h-61zM-42 774v21q0 38 27 63.5t64 25.5q24 0 45.5 -9.5t33.5 -21t25 -21t23 -9.5q31 0 31 30v21h63v-21q0 -38 -27 -63.5t-64 -25.5q-24 0 -45.5 9.5t-33.5 21t-25 21t-23 9.5q-31 0 -31 -30v-21h-63z" />
    <glyph glyph-name="itilde" unicode="&#x129;" horiz-adv-x="212" 
d="M77 0v507h59v-507h-59zM-43 596v19q0 37 25.5 61.5t61.5 24.5q29 0 51.5 -14.5t38.5 -29.5t29 -15t22 7.5t9 21.5v19h59v-19q0 -37 -25.5 -61.5t-61.5 -24.5q-29 0 -51.5 14.5t-38.5 29.5t-29 15t-22 -7.5t-9 -21.5v-19h-59z" />
    <glyph glyph-name="Imacron" unicode="&#x12a;" horiz-adv-x="229" 
d="M84 0v690h61v-690h-61zM-28 796v57h284v-57h-284z" />
    <glyph glyph-name="imacron" unicode="&#x12b;" horiz-adv-x="212" 
d="M77 0v507h59v-507h-59zM-27 616v54h268v-54h-268z" />
    <glyph glyph-name="Ibreve" unicode="&#x12c;" horiz-adv-x="229" 
d="M84 0v690h61v-690h-61zM28 896q0 -34 26 -60t60 -26q35 0 60.5 25.5t25.5 60.5v2h62q0 -61 -43.5 -104t-104.5 -43t-104.5 43t-43.5 104h62v-2z" />
    <glyph glyph-name="ibreve" unicode="&#x12d;" horiz-adv-x="212" 
d="M77 0v507h59v-507h-59zM24 711q0 -33 24.5 -57t57.5 -24t57.5 24t24.5 57v2h58q0 -57 -41.5 -98t-98.5 -41q-58 0 -99 40.5t-41 98.5h58v-2z" />
    <glyph glyph-name="Iogonek" unicode="&#x12e;" horiz-adv-x="229" 
d="M84 9v681h61v-690q-91 -55 -91 -119q0 -15 12.5 -24.5t26.5 -9.5q25 0 40 23l51 -24q-13 -25 -38.5 -41t-58.5 -16q-35 0 -66 24t-31 61q0 74 94 135z" />
    <glyph glyph-name="iogonek" unicode="&#x12f;" horiz-adv-x="212" 
d="M62 642q0 18 13 31.5t32 13.5q18 0 31.5 -13.5t13.5 -31.5q0 -19 -13.5 -32t-31.5 -13q-19 0 -32 13t-13 32zM128 -130l50 -24q-13 -25 -38.5 -41t-58.5 -16q-35 0 -65.5 24t-30.5 61q0 42 28.5 77t63.5 55v501h59v-507q-1 -1 -16.5 -12.5t-31 -24.5t-28.5 -35.5
t-13 -46.5q0 -15 13 -25.5t27 -10.5q29 0 41 25z" />
    <glyph glyph-name="Idotaccent" unicode="&#x130;" horiz-adv-x="229" 
d="M84 0v690h61v-690h-61zM67 824q0 20 14 34t33 14q20 0 34 -14t14 -34q0 -19 -14 -33t-34 -14t-33.5 13.5t-13.5 33.5z" />
    <glyph glyph-name="dotlessi" unicode="&#x131;" horiz-adv-x="212" 
d="M77 0v507h59v-507h-59z" />
    <glyph glyph-name="IJ" unicode="&#x132;" horiz-adv-x="742" 
d="M84 0v690h61v-690h-61zM608 690h61v-452q0 -123 -54 -184.5t-157 -61.5q-179 0 -214 182l62 14q23 -137 150 -137q152 0 152 187v452z" />
    <glyph glyph-name="ij" unicode="&#x133;" horiz-adv-x="460" 
d="M77 0v507h59v-507h-59zM61 642q0 18 13 31.5t32 13.5q18 0 31.5 -13.5t13.5 -31.5q0 -19 -13.5 -32t-31.5 -13q-19 0 -32 13t-13 32zM384 -45q0 -67 -43 -113.5t-127 -46.5h-6v56h6q55 0 83 29.5t28 71.5v555h59v-552zM309 642q0 18 13 31.5t32 13.5q18 0 31.5 -13.5
t13.5 -31.5q0 -19 -13.5 -32t-31.5 -13q-19 0 -32 13t-13 32z" />
    <glyph glyph-name="Jcircumflex" unicode="&#x134;" horiz-adv-x="513" 
d="M379 690h61v-452q0 -123 -54 -184.5t-157 -61.5q-179 0 -214 182l62 14q23 -137 150 -137q152 0 152 187v452zM286 899h50l129 -103l-41 -47l-113 91l-113 -91l-41 47z" />
    <glyph glyph-name="jcircumflex" unicode="&#x135;" horiz-adv-x="212" 
d="M136 -45q0 -67 -43 -113.5t-127 -46.5h-6v56h6q55 0 83 29.5t28 71.5v555h59v-552zM80 718h50l117 -106l-39 -44l-103 94l-103 -94l-39 44z" />
    <glyph glyph-name="Kcommaaccent" unicode="&#x136;" horiz-adv-x="613" 
d="M517 0l-253 330h-62l-57 -54v-276h-61v690h61v-332l350 332h86l-284 -270v-33l296 -387h-76zM279 -96q0 20 15 34t34 14q23 0 37 -15t14 -42v-7q0 -42 -63 -112l-29 27q31 30 39 55q-18 0 -32.5 14t-14.5 32z" />
    <glyph glyph-name="kcommaaccent" unicode="&#x137;" horiz-adv-x="532" 
d="M137 0h-59v696h59v-377h21l225 188h87l-185 -156v-19l229 -332h-70l-203 295h-24l-80 -67v-228zM236 -96q0 20 15 34t34 14q23 0 37 -15t14 -42v-7q0 -42 -63 -112l-29 27q31 30 39 55q-18 0 -32.5 14t-14.5 32z" />
    <glyph glyph-name="kgreenlandic" unicode="&#x138;" horiz-adv-x="531" 
d="M136 0h-59v507h59v-233h9l282 233h86l-249 -209v-10l224 -288h-77l-191 245h-14l-70 -59v-186z" />
    <glyph glyph-name="Lacute" unicode="&#x139;" horiz-adv-x="535" 
d="M145 690v-633h375v-57h-436v690h61zM283 824l-194 -80l-21 47l184 100z" />
    <glyph glyph-name="lacute" unicode="&#x13a;" horiz-adv-x="215" 
d="M78 0v696h59v-696h-59zM272 818l-194 -80l-21 47l184 100z" />
    <glyph glyph-name="Lcommaaccent" unicode="&#x13b;" horiz-adv-x="535" 
d="M145 690v-633h375v-57h-436v690h61zM251 -96q0 20 15 34t34 14q23 0 37 -15t14 -42v-7q0 -42 -63 -112l-29 27q31 30 39 55q-18 0 -32.5 14t-14.5 32z" />
    <glyph glyph-name="lcommaaccent" unicode="&#x13c;" horiz-adv-x="215" 
d="M78 0v696h59v-696h-59zM57 -96q0 20 15 34t34 14q23 0 37 -15t14 -42v-7q0 -42 -63 -112l-29 27q31 30 39 55q-18 0 -32.5 14t-14.5 32z" />
    <glyph glyph-name="Lcaron" unicode="&#x13d;" horiz-adv-x="535" 
d="M250 663q0 20 14.5 34t34.5 14q23 0 37 -15t14 -42v-6q0 -59 -71 -133l-30 27q29 32 48 75q-18 0 -32.5 13.5t-14.5 32.5zM145 690v-633h375v-57h-436v690h61z" />
    <glyph glyph-name="lcaron" unicode="&#x13e;" horiz-adv-x="277" 
d="M195 650q0 20 14.5 34t34.5 14q23 0 37 -15t14 -42v-6q0 -59 -71 -133l-30 27q29 32 48 75q-18 0 -32.5 13.5t-14.5 32.5zM78 0v696h59v-696h-59z" />
    <glyph glyph-name="Ldot" unicode="&#x13f;" horiz-adv-x="535" 
d="M145 690v-633h375v-57h-436v690h61zM297 335q0 21 15 36.5t36 15.5t36.5 -15.5t15.5 -36.5t-15.5 -36t-36.5 -15t-36 15t-15 36z" />
    <glyph glyph-name="ldot" unicode="&#x140;" horiz-adv-x="340" 
d="M78 0v696h59v-696h-59zM227 335q0 21 15 36.5t36 15.5t36.5 -15.5t15.5 -36.5t-15.5 -36t-36.5 -15t-36 15t-15 36z" />
    <glyph glyph-name="Lslash" unicode="&#x141;" horiz-adv-x="555" 
d="M145 296v-239h375v-57h-436v259l-68 -41v71l68 41v360h61v-322l131 81v-72z" />
    <glyph glyph-name="lslash" unicode="&#x142;" horiz-adv-x="215" 
d="M78 386v310h59v-273l77 47v-72l-77 -47v-351h-59v315l-81 -49v71z" />
    <glyph glyph-name="Nacute" unicode="&#x143;" horiz-adv-x="702" 
d="M557 690h61v-690h-110l-359 647h-4v-647h-61v690h110l358 -647h5v647zM500 824l-194 -80l-21 47l184 100z" />
    <glyph glyph-name="nacute" unicode="&#x144;" 
d="M136 0h-59v507h59v-111h8q31 55 79 88t107 33q45 0 78 -14t48.5 -31.5t24.5 -42t10 -36t1 -23.5v-370h-59v359q0 8 -1 16t-6.5 25t-16 29t-33 22t-52.5 10q-70 0 -129 -66.5t-59 -173.5v-221zM421 667l-176 -101l-27 42l164 119z" />
    <glyph glyph-name="Ncommaaccent" unicode="&#x145;" horiz-adv-x="702" 
d="M557 690h61v-690h-110l-359 647h-4v-647h-61v690h110l358 -647h5v647zM299 -96q0 20 15 34t34 14q23 0 37 -15t14 -42v-7q0 -42 -63 -112l-29 27q31 30 39 55q-18 0 -32.5 14t-14.5 32z" />
    <glyph glyph-name="ncommaaccent" unicode="&#x146;" 
d="M136 0h-59v507h59v-111h8q31 55 79 88t107 33q45 0 78 -14t48.5 -31.5t24.5 -42t10 -36t1 -23.5v-370h-59v359q0 8 -1 16t-6.5 25t-16 29t-33 22t-52.5 10q-70 0 -129 -66.5t-59 -173.5v-221zM244 -96q0 20 15 34t34 14q23 0 37 -15t14 -42v-7q0 -42 -63 -112l-29 27
q31 30 39 55q-18 0 -32.5 14t-14.5 32z" />
    <glyph glyph-name="Ncaron" unicode="&#x147;" horiz-adv-x="702" 
d="M557 690h61v-690h-110l-359 647h-4v-647h-61v690h110l358 -647h5v647zM376 749h-50l-129 103l41 47l113 -91l113 91l41 -47z" />
    <glyph glyph-name="ncaron" unicode="&#x148;" 
d="M136 0h-59v507h59v-111h8q31 55 79 88t107 33q45 0 78 -14t48.5 -31.5t24.5 -42t10 -36t1 -23.5v-370h-59v359q0 8 -1 16t-6.5 25t-16 29t-33 22t-52.5 10q-70 0 -129 -66.5t-59 -173.5v-221zM316 568h-50l-117 106l39 44l103 -94l103 94l39 -44z" />
    <glyph glyph-name="napostrophe" unicode="&#x149;" horiz-adv-x="663" 
d="M60 650q0 20 14.5 34t34.5 14q23 0 37 -15t14 -42v-6q0 -59 -71 -133l-30 27q29 32 48 75q-18 0 -32.5 13.5t-14.5 32.5zM231 0h-59v507h59v-111h8q31 55 79 88t107 33q45 0 78 -14t48.5 -31.5t24.5 -42t10 -36t1 -23.5v-370h-59v359q0 8 -1 16t-6.5 25t-16 29t-33 22
t-52.5 10q-70 0 -129 -66.5t-59 -173.5v-221z" />
    <glyph glyph-name="Eng" unicode="&#x14a;" horiz-adv-x="702" 
d="M557 690h61v-655q0 -246 -214 -246q-53 0 -126 22l21 55q65 -18 105 -18q143 0 150 154l-405 645h-4v-647h-61v690h110l363 -581v581z" />
    <glyph glyph-name="eng" unicode="&#x14b;" horiz-adv-x="589" 
d="M492 -45q0 -67 -43 -113.5t-127 -46.5h-6v56h6q55 0 83 29.5t28 71.5v413q-1 12 -4.5 25t-13.5 31t-33.5 29t-57.5 11q-70 0 -129 -66.5t-59 -173.5v-221h-59v507h59v-111h8q31 55 79 88t107 33q45 0 78 -14t48.5 -31.5t24.5 -42t10 -36t1 -23.5v-415z" />
    <glyph glyph-name="Omacron" unicode="&#x14c;" horiz-adv-x="693" 
d="M56 345q0 158 86 257q83 96 207 96q121 0 203 -96q85 -98 85 -257q0 -160 -84 -258q-83 -95 -204 -95q-124 0 -208 96q-85 98 -85 257zM119 345q0 -132 68 -215q64 -79 160 -79t160 79q67 83 67 215q0 131 -67 214q-64 80 -160 80t-160 -80q-68 -83 -68 -214zM207 796v57
h284v-57h-284z" />
    <glyph glyph-name="omacron" unicode="&#x14d;" horiz-adv-x="582" 
d="M53 254q0 115 69.5 189t169.5 74q99 0 168 -74t69 -189t-69 -188.5t-168 -73.5q-100 0 -169.5 73.5t-69.5 188.5zM114 254q0 -91 51.5 -148.5t125.5 -57.5t125.5 57.5t51.5 148.5t-51.5 149t-125.5 58t-125.5 -58t-51.5 -149zM158 616v54h268v-54h-268z" />
    <glyph glyph-name="Obreve" unicode="&#x14e;" horiz-adv-x="693" 
d="M56 345q0 158 86 257q83 96 207 96q121 0 203 -96q85 -98 85 -257q0 -160 -84 -258q-83 -95 -204 -95q-124 0 -208 96q-85 98 -85 257zM119 345q0 -132 68 -215q64 -79 160 -79t160 79q67 83 67 215q0 131 -67 214q-64 80 -160 80t-160 -80q-68 -83 -68 -214zM259 896
q0 -34 25.5 -60t60.5 -26t60.5 25.5t25.5 60.5v2h62q0 -61 -43.5 -104t-104.5 -43t-104.5 43t-43.5 104h62v-2z" />
    <glyph glyph-name="obreve" unicode="&#x14f;" horiz-adv-x="582" 
d="M53 254q0 115 69.5 189t169.5 74q99 0 168 -74t69 -189t-69 -188.5t-168 -73.5q-100 0 -169.5 73.5t-69.5 188.5zM114 254q0 -91 51.5 -148.5t125.5 -57.5t125.5 57.5t51.5 148.5t-51.5 149t-125.5 58t-125.5 -58t-51.5 -149zM210 711q0 -33 24.5 -57t57.5 -24t57.5 24
t24.5 57v2h58q0 -57 -41.5 -98t-98.5 -41q-58 0 -99 40.5t-41 98.5h58v-2z" />
    <glyph glyph-name="Ohungarumlaut" unicode="&#x150;" horiz-adv-x="693" 
d="M56 345q0 158 86 257q83 96 207 96q121 0 203 -96q85 -98 85 -257q0 -160 -84 -258q-83 -95 -204 -95q-124 0 -208 96q-85 98 -85 257zM119 345q0 -132 68 -215q64 -79 160 -79t160 79q67 83 67 215q0 131 -67 214q-64 80 -160 80t-160 -80q-68 -83 -68 -214zM270 744
l-35 38l131 135l49 -53zM411 744l-29 42l148 115l40 -59z" />
    <glyph glyph-name="ohungarumlaut" unicode="&#x151;" horiz-adv-x="582" 
d="M53 254q0 115 69.5 189t169.5 74q99 0 168 -74t69 -189t-69 -188.5t-168 -73.5q-100 0 -169.5 73.5t-69.5 188.5zM114 254q0 -91 51.5 -148.5t125.5 -57.5t125.5 57.5t51.5 148.5t-51.5 149t-125.5 58t-125.5 -58t-51.5 -149zM216 566l-33 37l127 131l48 -52zM352 566
l-28 41l145 112l40 -57z" />
    <glyph glyph-name="OE" unicode="&#x152;" horiz-adv-x="1032" 
d="M56 345q0 159 82 257q79 96 197 96q112 0 193 -101q11 -15 20 -29v122h417v-57h-356v-255h316v-57h-316v-264h376v-57h-437v118q-12 -18 -19 -26q-82 -100 -194 -100q-119 0 -198 96q-81 97 -81 257zM119 345q0 -131 64 -215q60 -79 151 -79q92 0 152 79q53 71 62 181v67
q-9 108 -62 181q-61 80 -152 80q-90 0 -151 -80q-64 -84 -64 -214z" />
    <glyph glyph-name="oe" unicode="&#x153;" horiz-adv-x="982" 
d="M707 -8q-65 0 -121 38.5t-88 100.5q-32 -62 -87 -100.5t-119 -38.5q-100 0 -169.5 73.5t-69.5 188.5t69.5 189t169.5 74q63 0 118.5 -39t87.5 -101q32 62 88 101t121 39q99 0 163 -73.5t64 -189.5v-16h-403q2 -83 55.5 -136.5t128.5 -53.5q108 0 155 114l53 -24
q-29 -68 -87 -107t-129 -39zM114 254q0 -91 51.5 -148.5t125.5 -57.5t125.5 57.5t51.5 148.5t-51.5 149t-125.5 58t-125.5 -58t-51.5 -149zM706 461q-68 0 -117 -47t-58 -124h340q-9 77 -54.5 124t-110.5 47z" />
    <glyph glyph-name="Racute" unicode="&#x154;" horiz-adv-x="660" 
d="M145 358h255q53 0 91 40t38 97q0 58 -38 98t-91 40h-255v-275zM145 301v-301h-61v690h327q75 0 128 -57t53 -137q0 -66 -37.5 -118t-96.5 -69l165 -309h-69l-159 301h-250zM482 824l-194 -80l-21 47l184 100z" />
    <glyph glyph-name="racute" unicode="&#x155;" horiz-adv-x="382" 
d="M136 0h-59v507h59v-118h8q31 55 79 88t107 33q4 0 11 -0.5t11 -0.5v-58q-14 3 -28 3q-70 0 -129 -66.5t-59 -173.5v-214zM390 667l-176 -101l-27 42l164 119z" />
    <glyph glyph-name="Rcommaaccent" unicode="&#x156;" horiz-adv-x="660" 
d="M145 358h255q53 0 91 40t38 97q0 58 -38 98t-91 40h-255v-275zM145 301v-301h-61v690h327q75 0 128 -57t53 -137q0 -66 -37.5 -118t-96.5 -69l165 -309h-69l-159 301h-250zM293 -96q0 20 15 34t34 14q23 0 37 -15t14 -42v-7q0 -42 -63 -112l-29 27q31 30 39 55
q-18 0 -32.5 14t-14.5 32z" />
    <glyph glyph-name="rcommaaccent" unicode="&#x157;" horiz-adv-x="382" 
d="M136 0h-59v507h59v-118h8q31 55 79 88t107 33q4 0 11 -0.5t11 -0.5v-58q-14 3 -28 3q-70 0 -129 -66.5t-59 -173.5v-214zM57 -96q0 20 15 34t34 14q23 0 37 -15t14 -42v-7q0 -42 -63 -112l-29 27q31 30 39 55q-18 0 -32.5 14t-14.5 32z" />
    <glyph glyph-name="Rcaron" unicode="&#x158;" horiz-adv-x="660" 
d="M145 358h255q53 0 91 40t38 97q0 58 -38 98t-91 40h-255v-275zM145 301v-301h-61v690h327q75 0 128 -57t53 -137q0 -66 -37.5 -118t-96.5 -69l165 -309h-69l-159 301h-250zM348 749h-50l-129 103l41 47l113 -91l113 91l41 -47z" />
    <glyph glyph-name="rcaron" unicode="&#x159;" horiz-adv-x="382" 
d="M136 0h-59v507h59v-118h8q31 55 79 88t107 33q4 0 11 -0.5t11 -0.5v-58q-14 3 -28 3q-70 0 -129 -66.5t-59 -173.5v-214zM240 568h-50l-117 106l39 44l103 -94l103 94l39 -44z" />
    <glyph glyph-name="Sacute" unicode="&#x15a;" horiz-adv-x="635" 
d="M292 698q105 0 173 -48.5t88 -146.5h-65q-30 136 -195 136q-62 0 -117 -36.5t-55 -99.5q0 -27 14 -47.5t33.5 -32t50.5 -20t53.5 -11t54.5 -5.5q43 -3 77 -9t70.5 -19.5t60 -33.5t39 -53.5t15.5 -76.5q0 -101 -68.5 -152t-179.5 -51q-118 0 -200.5 61.5t-96.5 169.5h63
q19 -84 80 -128t151 -44q83 0 135.5 34.5t52.5 112.5q0 37 -17 62.5t-50 39t-66.5 19.5t-80.5 9q-46 3 -86 12t-80.5 28.5t-64 55.5t-23.5 85q0 82 72.5 135.5t161.5 53.5zM462 824l-194 -80l-21 47l184 100z" />
    <glyph glyph-name="sacute" unicode="&#x15b;" horiz-adv-x="525" 
d="M455 356h-60q-11 55 -43.5 80t-95.5 25q-55 0 -91.5 -20.5t-36.5 -65.5q0 -20 12.5 -35.5t27.5 -23.5t41.5 -14.5t40.5 -8.5t39 -5q32 -4 55 -8t52 -14.5t47.5 -25t31.5 -40t13 -58.5q0 -58 -52.5 -104t-159.5 -46q-105 0 -165 53t-63 118h61q3 -43 47 -79t120 -36
q79 0 115 29t36 65q0 18 -3.5 30.5t-15 22t-21 15t-34.5 11t-42 8.5t-56 8q-40 6 -68.5 13.5t-58.5 22.5t-45.5 41.5t-15.5 63.5q0 10 2 22.5t13 34.5t29.5 39t56.5 30t88 13q52 0 91.5 -15.5t58.5 -34.5t31.5 -46.5t14.5 -39t3 -25.5zM390 667l-176 -101l-27 42l164 119z
" />
    <glyph glyph-name="Scircumflex" unicode="&#x15c;" horiz-adv-x="635" 
d="M292 698q105 0 173 -48.5t88 -146.5h-65q-30 136 -195 136q-62 0 -117 -36.5t-55 -99.5q0 -27 14 -47.5t33.5 -32t50.5 -20t53.5 -11t54.5 -5.5q43 -3 77 -9t70.5 -19.5t60 -33.5t39 -53.5t15.5 -76.5q0 -101 -68.5 -152t-179.5 -51q-118 0 -200.5 61.5t-96.5 169.5h63
q19 -84 80 -128t151 -44q83 0 135.5 34.5t52.5 112.5q0 37 -17 62.5t-50 39t-66.5 19.5t-80.5 9q-46 3 -86 12t-80.5 28.5t-64 55.5t-23.5 85q0 82 72.5 135.5t161.5 53.5zM292 899h50l129 -103l-41 -47l-113 91l-113 -91l-41 47z" />
    <glyph glyph-name="scircumflex" unicode="&#x15d;" horiz-adv-x="525" 
d="M455 356h-60q-11 55 -43.5 80t-95.5 25q-55 0 -91.5 -20.5t-36.5 -65.5q0 -20 12.5 -35.5t27.5 -23.5t41.5 -14.5t40.5 -8.5t39 -5q32 -4 55 -8t52 -14.5t47.5 -25t31.5 -40t13 -58.5q0 -58 -52.5 -104t-159.5 -46q-105 0 -165 53t-63 118h61q3 -43 47 -79t120 -36
q79 0 115 29t36 65q0 18 -3.5 30.5t-15 22t-21 15t-34.5 11t-42 8.5t-56 8q-40 6 -68.5 13.5t-58.5 22.5t-45.5 41.5t-15.5 63.5q0 10 2 22.5t13 34.5t29.5 39t56.5 30t88 13q52 0 91.5 -15.5t58.5 -34.5t31.5 -46.5t14.5 -39t3 -25.5zM238 718h50l117 -106l-39 -44l-103 94
l-103 -94l-39 44z" />
    <glyph glyph-name="Scedilla" unicode="&#x15e;" horiz-adv-x="635" 
d="M292 698q105 0 173 -48.5t88 -146.5h-65q-30 136 -195 136q-62 0 -117 -36.5t-55 -99.5q0 -27 14 -47.5t33.5 -32t50.5 -20t53.5 -11t54.5 -5.5q43 -3 77 -9t70.5 -19.5t60 -33.5t39 -53.5t15.5 -76.5q0 -98 -66 -149.5t-173 -53.5v-26q30 -10 48 -33.5t18 -50.5
q0 -38 -29 -65.5t-70 -27.5q-36 0 -60 18t-31 36l54 27q14 -25 36 -25q15 0 26 10t11 27q0 43 -64 43v71q-99 12 -166 71.5t-79 155.5h63q19 -84 80 -128t151 -44q83 0 135.5 34.5t52.5 112.5q0 37 -17 62.5t-50 39t-66.5 19.5t-80.5 9q-46 3 -86 12t-80.5 28.5t-64 55.5
t-23.5 85q0 82 72.5 135.5t161.5 53.5z" />
    <glyph glyph-name="scedilla" unicode="&#x15f;" horiz-adv-x="525" 
d="M455 356h-60q-11 55 -43.5 80t-95.5 25q-55 0 -91.5 -20.5t-36.5 -65.5q0 -20 12.5 -35.5t27.5 -23.5t41.5 -14.5t40.5 -8.5t39 -5q32 -4 55 -8t52 -14.5t47.5 -25t31.5 -40t13 -58.5q0 -55 -46.5 -99.5t-141.5 -49.5v-36q29 -8 46 -30.5t17 -48.5q0 -37 -27.5 -63
t-66.5 -26q-35 0 -57.5 17t-29.5 35l52 25q12 -23 34 -23q14 0 24.5 9.5t10.5 25.5q0 40 -60 40v76q-90 8 -141 59t-54 110h61q3 -43 47 -79t120 -36q79 0 115 29t36 65q0 18 -3.5 30.5t-15 22t-21 15t-34.5 11t-42 8.5t-56 8q-40 6 -68.5 13.5t-58.5 22.5t-45.5 41.5
t-15.5 63.5q0 10 2 22.5t13 34.5t29.5 39t56.5 30t88 13q52 0 91.5 -15.5t58.5 -34.5t31.5 -46.5t14.5 -39t3 -25.5z" />
    <glyph glyph-name="Scaron" unicode="&#x160;" horiz-adv-x="635" 
d="M292 698q105 0 173 -48.5t88 -146.5h-65q-30 136 -195 136q-62 0 -117 -36.5t-55 -99.5q0 -27 14 -47.5t33.5 -32t50.5 -20t53.5 -11t54.5 -5.5q43 -3 77 -9t70.5 -19.5t60 -33.5t39 -53.5t15.5 -76.5q0 -101 -68.5 -152t-179.5 -51q-118 0 -200.5 61.5t-96.5 169.5h63
q19 -84 80 -128t151 -44q83 0 135.5 34.5t52.5 112.5q0 37 -17 62.5t-50 39t-66.5 19.5t-80.5 9q-46 3 -86 12t-80.5 28.5t-64 55.5t-23.5 85q0 82 72.5 135.5t161.5 53.5zM340 749h-50l-129 103l41 47l113 -91l113 91l41 -47z" />
    <glyph glyph-name="scaron" unicode="&#x161;" horiz-adv-x="525" 
d="M455 356h-60q-11 55 -43.5 80t-95.5 25q-55 0 -91.5 -20.5t-36.5 -65.5q0 -20 12.5 -35.5t27.5 -23.5t41.5 -14.5t40.5 -8.5t39 -5q32 -4 55 -8t52 -14.5t47.5 -25t31.5 -40t13 -58.5q0 -58 -52.5 -104t-159.5 -46q-105 0 -165 53t-63 118h61q3 -43 47 -79t120 -36
q79 0 115 29t36 65q0 18 -3.5 30.5t-15 22t-21 15t-34.5 11t-42 8.5t-56 8q-40 6 -68.5 13.5t-58.5 22.5t-45.5 41.5t-15.5 63.5q0 10 2 22.5t13 34.5t29.5 39t56.5 30t88 13q52 0 91.5 -15.5t58.5 -34.5t31.5 -46.5t14.5 -39t3 -25.5zM288 568h-50l-117 106l39 44l103 -94
l103 94l39 -44z" />
    <glyph glyph-name="Tcommaaccent" unicode="&#x162;" horiz-adv-x="607" 
d="M577 690v-57h-244v-667q30 -10 48 -33.5t18 -50.5q0 -38 -29 -65.5t-70 -27.5q-36 0 -60 18t-31 36l54 27q14 -25 36 -25q15 0 26 10t11 27q0 43 -64 43v708h-242v57h547z" />
    <glyph glyph-name="tcommaaccent" unicode="&#x163;" horiz-adv-x="398" 
d="M126 121v332h-106v54h106v133h59v-133h150v-54h-150v-335q0 -29 20.5 -49.5t49.5 -20.5q44 0 62 38l51 -27q-31 -56 -92 -65v-37q29 -8 46 -30.5t17 -48.5q0 -37 -27.5 -63t-66.5 -26q-35 0 -57.5 17t-29.5 35l52 25q12 -23 34 -23q14 0 24.5 9.5t10.5 25.5q0 40 -60 40
v79q-41 11 -67 45.5t-26 78.5z" />
    <glyph glyph-name="Tcaron" unicode="&#x164;" horiz-adv-x="607" 
d="M577 690v-57h-244v-633h-61v633h-242v57h547zM328 749h-50l-129 103l41 47l113 -91l113 91l41 -47z" />
    <glyph glyph-name="tcaron" unicode="&#x165;" horiz-adv-x="398" 
d="M249 707q0 20 14.5 34t34.5 14q23 0 37 -15t14 -42v-6q0 -59 -71 -133l-30 27q29 32 48 75q-18 0 -32.5 13.5t-14.5 32.5zM126 121v332h-106v54h106v133h59v-133h150v-54h-150v-335q0 -29 20.5 -49.5t49.5 -20.5q44 0 62 38l51 -27q-17 -30 -47 -48.5t-66 -18.5
q-53 0 -91 38t-38 91z" />
    <glyph glyph-name="Tbar" unicode="&#x166;" horiz-adv-x="607" 
d="M112 327v57h160v249h-242v57h547v-57h-244v-249h159v-57h-159v-327h-61v327h-160z" />
    <glyph glyph-name="tbar" unicode="&#x167;" horiz-adv-x="399" 
d="M336 282h-150v-164q0 -29 20.5 -49.5t49.5 -20.5q44 0 62 38l51 -27q-17 -30 -47 -48.5t-66 -18.5q-53 0 -91 38t-38 91v161h-107v54h107v117h-106v54h106v133h59v-133h150v-54h-150v-117h150v-54z" />
    <glyph glyph-name="Utilde" unicode="&#x168;" horiz-adv-x="668" 
d="M334 51q111 0 157 59t46 163v417h61v-429q0 -123 -63.5 -196t-200.5 -73t-200.5 73t-63.5 196v429h61v-417q0 -104 46 -163t157 -59zM178 774v21q0 38 27 63.5t64 25.5q24 0 45.5 -9.5t33.5 -21t25 -21t23 -9.5q31 0 31 30v21h63v-21q0 -38 -27 -63.5t-64 -25.5
q-24 0 -45.5 9.5t-33.5 21t-25 21t-23 9.5q-31 0 -31 -30v-21h-63z" />
    <glyph glyph-name="utilde" unicode="&#x169;" 
d="M432 507h59v-507h-59v114h-8q-31 -55 -79.5 -88.5t-106.5 -33.5q-45 0 -78 14t-48.5 31.5t-24.5 42t-10 36t-1 23.5v368h59v-357q0 -8 1 -16t6.5 -25t16 -29t33 -22t52.5 -10q70 0 129 66.5t59 173.5v219zM138 596v19q0 37 25.5 61.5t61.5 24.5q29 0 51.5 -14.5
t38.5 -29.5t29 -15t22 7.5t9 21.5v19h59v-19q0 -37 -25.5 -61.5t-61.5 -24.5q-29 0 -51.5 14.5t-38.5 29.5t-29 15t-22 -7.5t-9 -21.5v-19h-59z" />
    <glyph glyph-name="Umacron" unicode="&#x16a;" horiz-adv-x="668" 
d="M334 51q111 0 157 59t46 163v417h61v-429q0 -123 -63.5 -196t-200.5 -73t-200.5 73t-63.5 196v429h61v-417q0 -104 46 -163t157 -59zM192 796v57h284v-57h-284z" />
    <glyph glyph-name="umacron" unicode="&#x16b;" 
d="M432 507h59v-507h-59v114h-8q-31 -55 -79.5 -88.5t-106.5 -33.5q-45 0 -78 14t-48.5 31.5t-24.5 42t-10 36t-1 23.5v368h59v-357q0 -8 1 -16t6.5 -25t16 -29t33 -22t52.5 -10q70 0 129 66.5t59 173.5v219zM149 616v54h268v-54h-268z" />
    <glyph glyph-name="Ubreve" unicode="&#x16c;" horiz-adv-x="668" 
d="M334 51q111 0 157 59t46 163v417h61v-429q0 -123 -63.5 -196t-200.5 -73t-200.5 73t-63.5 196v429h61v-417q0 -104 46 -163t157 -59zM246 896q0 -34 26 -60t60 -26q35 0 60.5 25.5t25.5 60.5v2h62q0 -61 -43.5 -104t-104.5 -43t-104.5 43t-43.5 104h62v-2z" />
    <glyph glyph-name="ubreve" unicode="&#x16d;" 
d="M432 507h59v-507h-59v114h-8q-31 -55 -79.5 -88.5t-106.5 -33.5q-45 0 -78 14t-48.5 31.5t-24.5 42t-10 36t-1 23.5v368h59v-357q0 -8 1 -16t6.5 -25t16 -29t33 -22t52.5 -10q70 0 129 66.5t59 173.5v219zM202 711q0 -33 24.5 -57t57.5 -24t57.5 24t24.5 57v2h58
q0 -57 -41.5 -98t-98.5 -41q-58 0 -99 40.5t-41 98.5h58v-2z" />
    <glyph glyph-name="Uring" unicode="&#x16e;" horiz-adv-x="668" 
d="M334 51q111 0 157 59t46 163v417h61v-429q0 -123 -63.5 -196t-200.5 -73t-200.5 73t-63.5 196v429h61v-417q0 -104 46 -163t157 -59zM228 824q0 43 31 73.5t75 30.5q43 0 73.5 -30.5t30.5 -73.5q0 -44 -30.5 -75t-73.5 -31q-44 0 -75 31t-31 75zM280 824
q0 -23 15.5 -38.5t38.5 -15.5q22 0 37 15.5t15 38.5q0 22 -15 37t-37 15q-23 0 -38.5 -15t-15.5 -37z" />
    <glyph glyph-name="uring" unicode="&#x16f;" 
d="M432 507h59v-507h-59v114h-8q-31 -55 -79.5 -88.5t-106.5 -33.5q-45 0 -78 14t-48.5 31.5t-24.5 42t-10 36t-1 23.5v368h59v-357q0 -8 1 -16t6.5 -25t16 -29t33 -22t52.5 -10q70 0 129 66.5t59 173.5v219zM182 658q0 42 30.5 72t73.5 30q42 0 72 -30t30 -72
q0 -43 -30 -73.5t-72 -30.5q-44 0 -74 30t-30 74zM234 658q0 -22 15 -37t37 -15q21 0 35.5 15t14.5 37q0 21 -14.5 35.5t-35.5 14.5q-22 0 -37 -14.5t-15 -35.5z" />
    <glyph glyph-name="Uhungarumlaut" unicode="&#x170;" horiz-adv-x="668" 
d="M334 51q111 0 157 59t46 163v417h61v-429q0 -123 -63.5 -196t-200.5 -73t-200.5 73t-63.5 196v429h61v-417q0 -104 46 -163t157 -59zM250 744l-35 38l131 135l49 -53zM391 744l-29 42l148 115l40 -59z" />
    <glyph glyph-name="uhungarumlaut" unicode="&#x171;" 
d="M432 507h59v-507h-59v114h-8q-31 -55 -79.5 -88.5t-106.5 -33.5q-45 0 -78 14t-48.5 31.5t-24.5 42t-10 36t-1 23.5v368h59v-357q0 -8 1 -16t6.5 -25t16 -29t33 -22t52.5 -10q70 0 129 66.5t59 173.5v219zM154 566l-33 37l127 131l48 -52zM290 566l-28 41l145 112l40 -57
z" />
    <glyph glyph-name="Uogonek" unicode="&#x172;" horiz-adv-x="668" 
d="M429 -130l51 -24q-13 -25 -38.5 -41t-58.5 -16q-35 0 -66 24t-31 61q0 70 71 119q-9 -1 -23 -1q-137 0 -200.5 73t-63.5 196v429h61v-417q0 -104 46 -163t157 -59t157 59t46 163v417h61v-429q0 -155 -93 -222q-13 -10 -36.5 -23.5t-31.5 -18.5q-87 -59 -87 -116
q0 -15 12.5 -24.5t26.5 -9.5q25 0 40 23z" />
    <glyph glyph-name="uogonek" unicode="&#x173;" 
d="M483 -130l50 -24q-13 -25 -38.5 -41t-58.5 -16q-35 0 -65.5 24t-30.5 61q0 42 28.5 77t63.5 55v108h-8q-31 -55 -79.5 -88.5t-106.5 -33.5q-45 0 -78 14t-48.5 31.5t-24.5 42t-10 36t-1 23.5v368h59v-357q0 -8 1 -16t6.5 -25t16 -29t33 -22t52.5 -10q70 0 129 66.5
t59 173.5v219h59v-507q-1 -1 -16.5 -12.5t-31 -24.5t-28.5 -35.5t-13 -46.5q0 -15 13 -25.5t27 -10.5q28 0 41 25z" />
    <glyph glyph-name="Wcircumflex" unicode="&#x174;" horiz-adv-x="841" 
d="M426 614h-11l-140 -614h-91l-159 690h63l141 -626l136 596h111l136 -596l141 626h63l-159 -690h-91zM396 899h50l129 -103l-41 -47l-113 91l-113 -91l-41 47z" />
    <glyph glyph-name="wcircumflex" unicode="&#x175;" horiz-adv-x="766" 
d="M383 427l-120 -427h-94l-137 507h61l121 -456h5l128 452h72l128 -452h5l121 456h61l-137 -507h-94zM359 718h50l117 -106l-39 -44l-103 94l-103 -94l-39 44z" />
    <glyph glyph-name="Ycircumflex" unicode="&#x176;" horiz-adv-x="555" 
d="M308 0h-61v322l-239 368h71l192 -301h13l192 301h71l-239 -368v-322zM252 899h50l129 -103l-41 -47l-113 91l-113 -91l-41 47z" />
    <glyph glyph-name="ycircumflex" unicode="&#x177;" horiz-adv-x="496" 
d="M88 -205q-27 0 -51 7l14 55q18 -6 36 -6q72 0 91 53l44 115l-202 488h64l163 -394h13l150 394h63l-239 -621q-35 -91 -146 -91zM226 718h50l117 -106l-39 -44l-103 94l-103 -94l-39 44z" />
    <glyph glyph-name="Ydieresis" unicode="&#x178;" horiz-adv-x="555" 
d="M308 0h-61v322l-239 368h71l192 -301h13l192 301h71l-239 -368v-322zM132 824q0 20 14 34t33 14t33.5 -14t14.5 -34q0 -19 -14 -33t-34 -14q-19 0 -33 13.5t-14 33.5zM325 824q0 20 14 34t33 14q20 0 34 -14t14 -34q0 -19 -14 -33t-34 -14t-33.5 13.5t-13.5 33.5z" />
    <glyph glyph-name="Zacute" unicode="&#x179;" horiz-adv-x="619" 
d="M578 0h-555v61l465 565v7h-433v57h512v-61l-465 -565v-7h476v-57zM460 824l-194 -80l-21 47l184 100z" />
    <glyph glyph-name="zacute" unicode="&#x17a;" horiz-adv-x="481" 
d="M448 0h-415v54l314 396v3h-289v54h366v-53l-315 -397v-3h339v-54zM375 667l-176 -101l-27 42l164 119z" />
    <glyph glyph-name="Zdotaccent" unicode="&#x17b;" horiz-adv-x="619" 
d="M578 0h-555v61l465 565v7h-433v57h512v-61l-465 -565v-7h476v-57zM264 824q0 20 14 34t33 14t33.5 -14t14.5 -34q0 -19 -14 -33t-34 -14q-19 0 -33 13.5t-14 33.5z" />
    <glyph glyph-name="zdotaccent" unicode="&#x17c;" horiz-adv-x="481" 
d="M448 0h-415v54l314 396v3h-289v54h366v-53l-315 -397v-3h339v-54zM197 642q0 18 13 31.5t32 13.5q18 0 31.5 -13.5t13.5 -31.5q0 -19 -13.5 -32t-31.5 -13q-19 0 -32 13t-13 32z" />
    <glyph glyph-name="Zcaron" unicode="&#x17d;" horiz-adv-x="619" 
d="M578 0h-555v61l465 565v7h-433v57h512v-61l-465 -565v-7h476v-57zM339 749h-50l-129 103l41 47l113 -91l113 91l41 -47z" />
    <glyph glyph-name="zcaron" unicode="&#x17e;" horiz-adv-x="481" 
d="M448 0h-415v54l314 396v3h-289v54h366v-53l-315 -397v-3h339v-54zM264 568h-50l-117 106l39 44l103 -94l103 94l39 -44z" />
    <glyph glyph-name="longs" unicode="&#x17f;" horiz-adv-x="291" 
d="M140 507v57q0 62 43.5 106t105.5 44q69 0 116 -55l-51 -28q-25 27 -64 27q-38 0 -64.5 -26.5t-26.5 -64.5v-567h-59v453h-120v54h120z" />
    <glyph glyph-name="uni018F" unicode="&#x18f;" horiz-adv-x="687" 
d="M340 698q124 0 207.5 -98.5t83.5 -253.5q0 -165 -85.5 -259.5t-212.5 -94.5q-120 0 -201.5 99.5t-81.5 254.5v17h518q-2 121 -68.5 198.5t-163.5 77.5q-72 0 -130 -44t-87 -119l-56 26q36 90 112 143t165 53zM334 51q92 0 155.5 67t76.5 188h-451q11 -113 72.5 -184
t146.5 -71z" />
    <glyph glyph-name="florin" unicode="&#x192;" horiz-adv-x="552" 
d="M173 44l48 284h-136l9 52h136l17 103q10 63 56 97t115 34q66 0 116 -26l-32 -51q-35 19 -81 19q-97 0 -112 -90l-15 -86h172l-9 -52h-171l-51 -301q-11 -64 -57.5 -97.5t-115.5 -33.5q-67 0 -117 27l33 52q38 -20 85 -20q94 0 110 89z" />
    <glyph glyph-name="uni01B5" unicode="&#x1b5;" horiz-adv-x="619" 
d="M578 0h-555v61l210 256h-129v57h176l208 252v7h-433v57h512v-61l-210 -255h171v-57h-218l-208 -253v-7h476v-57z" />
    <glyph glyph-name="uni01B6" unicode="&#x1b6;" horiz-adv-x="481" 
d="M448 0h-415v54l133 168h-72v57h117l136 171v3h-289v54h366v-53l-139 -175h103v-57h-148l-131 -165v-3h339v-54z" />
    <glyph glyph-name="Aringacute" unicode="&#x1fa;" horiz-adv-x="597" 
d="M582 0h-64l-70 205h-299l-70 -205h-64l234 690h99zM297 644l-129 -382h261l-129 382h-3zM193 814q0 43 31 73.5t75 30.5q43 0 73.5 -30.5t30.5 -73.5q0 -44 -30.5 -75t-73.5 -31q-44 0 -75 31t-31 75zM245 814q0 -23 15.5 -38.5t38.5 -15.5q22 0 37 15.5t15 38.5
q0 22 -15 37t-37 15q-23 0 -38.5 -15t-15.5 -37zM415 994l-194 -80l-21 47l184 100z" />
    <glyph glyph-name="aringacute" unicode="&#x1fb;" horiz-adv-x="560" 
d="M132 364h-59q0 10 3 25t16 38.5t34 42.5t61 33t93 14q173 0 173 -151v-290q0 -15 10.5 -24t22.5 -9q23 0 32 22l46 -22q-23 -51 -76 -51q-35 0 -57 23t-25 52h-9q-38 -42 -85 -58.5t-78 -16.5q-18 0 -36 2t-47 11t-50 24.5t-37 47t-16 73.5q0 119 176 155l170 35v22
q0 48 -22.5 73.5t-94.5 25.5q-43 0 -74.5 -11.5t-45 -29t-19.5 -31.5t-6 -25zM394 173v113l-148 -32q-27 -6 -45.5 -12t-42.5 -17.5t-36.5 -30t-12.5 -43.5q0 -103 122 -103h6q54 0 105.5 36.5t51.5 88.5zM173 647q0 42 30.5 72t73.5 30q42 0 72 -30t30 -72q0 -43 -30 -73.5
t-72 -30.5q-43 0 -73.5 30.5t-30.5 73.5zM225 647q0 -23 14.5 -37.5t37.5 -14.5q21 0 35.5 15t14.5 37q0 21 -14.5 35.5t-35.5 14.5q-22 0 -37 -14.5t-15 -35.5zM449 856l-176 -101l-27 42l164 119z" />
    <glyph glyph-name="AEacute" unicode="&#x1fc;" horiz-adv-x="955" 
d="M471 0v205h-289l-113 -205h-69l377 690h511v-57h-356v-255h316v-57h-316v-264h376v-57h-437zM414 633l-202 -371h259v371h-57zM726 824l-194 -80l-21 47l184 100z" />
    <glyph glyph-name="aeacute" unicode="&#x1fd;" horiz-adv-x="904" 
d="M629 -8q-57 0 -105.5 26t-79.5 73h-19q-39 -50 -91.5 -74.5t-99.5 -24.5q-13 0 -25.5 1t-36.5 5t-43.5 15t-39 27t-30.5 44.5t-11 65.5q0 66 54.5 103t121.5 37h171v80q0 18 -3 31t-13.5 28.5t-36 23.5t-64.5 8q-40 0 -70 -10t-44 -24.5t-22 -28.5t-9 -24l-1 -10h-59
q0 6 1.5 16.5t13 37t31 46.5t62 36.5t99.5 16.5q139 0 166 -96q67 96 183 96q99 0 163 -73.5t64 -189.5v-16h-403q2 -83 55.5 -136.5t128.5 -53.5q108 0 155 114l53 -24q-29 -68 -87 -107t-129 -39zM395 174v64h-155q-131 0 -131 -87q0 -103 119 -103h7q56 0 108 38t52 88z
M628 461q-68 0 -117 -47t-58 -124h340q-9 77 -54.5 124t-110.5 47zM594 667l-176 -101l-27 42l164 119z" />
    <glyph glyph-name="Oslashacute" unicode="&#x1fe;" horiz-adv-x="693" 
d="M56 345q0 158 86 257q83 96 207 96q59 0 115 -27l41 89l52 -24l-44 -96q20 -15 39 -38q85 -98 85 -257q0 -160 -84 -258q-83 -95 -204 -95q-66 0 -121 28l-41 -90l-52 24l44 97q-23 19 -38 37q-85 98 -85 257zM507 559l-21 22l-233 -507q44 -23 94 -23q96 0 160 79
q67 83 67 215q0 131 -67 214zM119 345q0 -132 68 -215q10 -13 19 -21l233 507q-43 23 -92 23q-96 0 -160 -80q-68 -83 -68 -214zM482 824l-194 -80l-21 47l184 100z" />
    <glyph glyph-name="oslashacute" unicode="&#x1ff;" horiz-adv-x="582" 
d="M53 254q0 115 69.5 189t169.5 74q65 0 119 -34l61 92l45 -30l-63 -96q75 -75 75 -195q0 -115 -69 -188.5t-168 -73.5q-68 0 -120 33l-63 -95l-45 30l65 98q-76 74 -76 196zM114 254q0 -87 48 -145l217 326q-42 26 -88 26q-74 0 -125.5 -58t-51.5 -149zM468 254
q0 84 -48 144l-216 -325q41 -25 87 -25q74 0 125.5 57.5t51.5 148.5zM414 667l-176 -101l-27 42l164 119z" />
    <glyph glyph-name="Scommaaccent" unicode="&#x218;" horiz-adv-x="635" 
d="M292 698q105 0 173 -48.5t88 -146.5h-65q-30 136 -195 136q-62 0 -117 -36.5t-55 -99.5q0 -27 14 -47.5t33.5 -32t50.5 -20t53.5 -11t54.5 -5.5q43 -3 77 -9t70.5 -19.5t60 -33.5t39 -53.5t15.5 -76.5q0 -101 -68.5 -152t-179.5 -51q-118 0 -200.5 61.5t-96.5 169.5h63
q19 -84 80 -128t151 -44q83 0 135.5 34.5t52.5 112.5q0 37 -17 62.5t-50 39t-66.5 19.5t-80.5 9q-46 3 -86 12t-80.5 28.5t-64 55.5t-23.5 85q0 82 72.5 135.5t161.5 53.5zM285 -96q0 20 15 34t34 14q23 0 37 -15t14 -42v-7q0 -42 -63 -112l-29 27q31 30 39 55
q-18 0 -32.5 14t-14.5 32z" />
    <glyph glyph-name="scommaaccent" unicode="&#x219;" horiz-adv-x="525" 
d="M455 356h-60q-11 55 -43.5 80t-95.5 25q-55 0 -91.5 -20.5t-36.5 -65.5q0 -20 12.5 -35.5t27.5 -23.5t41.5 -14.5t40.5 -8.5t39 -5q32 -4 55 -8t52 -14.5t47.5 -25t31.5 -40t13 -58.5q0 -58 -52.5 -104t-159.5 -46q-105 0 -165 53t-63 118h61q3 -43 47 -79t120 -36
q79 0 115 29t36 65q0 18 -3.5 30.5t-15 22t-21 15t-34.5 11t-42 8.5t-56 8q-40 6 -68.5 13.5t-58.5 22.5t-45.5 41.5t-15.5 63.5q0 10 2 22.5t13 34.5t29.5 39t56.5 30t88 13q52 0 91.5 -15.5t58.5 -34.5t31.5 -46.5t14.5 -39t3 -25.5zM227 -96q0 20 15 34t34 14
q23 0 37 -15t14 -42v-7q0 -42 -63 -112l-29 27q31 30 39 55q-18 0 -32.5 14t-14.5 32z" />
    <glyph glyph-name="uni021A" unicode="&#x21a;" horiz-adv-x="607" 
d="M577 690v-57h-244v-633h-61v633h-242v57h547zM255 -96q0 20 15 34t34 14q23 0 37 -15t14 -42v-7q0 -42 -63 -112l-29 27q31 30 39 55q-18 0 -32.5 14t-14.5 32z" />
    <glyph glyph-name="uni021B" unicode="&#x21b;" horiz-adv-x="398" 
d="M126 121v332h-106v54h106v133h59v-133h150v-54h-150v-335q0 -29 20.5 -49.5t49.5 -20.5q44 0 62 38l51 -27q-17 -30 -47 -48.5t-66 -18.5q-53 0 -91 38t-38 91zM187 -96q0 20 15 34t34 14q23 0 37 -15t14 -42v-7q0 -42 -63 -112l-29 27q31 30 39 55q-18 0 -32.5 14
t-14.5 32z" />
    <glyph glyph-name="dotlessj" unicode="&#x237;" horiz-adv-x="212" 
d="M136 -45q0 -67 -43 -113.5t-127 -46.5h-6v56h6q55 0 83 29.5t28 71.5v555h59v-552z" />
    <glyph glyph-name="uni0259" unicode="&#x259;" horiz-adv-x="567" 
d="M275 517q100 0 169.5 -73.5t69.5 -188.5t-69.5 -189t-169.5 -74q-99 0 -163 73.5t-64 189.5v16h403q-2 83 -55.5 136.5t-128.5 53.5q-108 0 -155 -114l-53 24q29 68 87 107t129 39zM276 48q68 0 117 47t58 124h-340q9 -77 54.5 -124t110.5 -47z" />
    <glyph glyph-name="circumflex" unicode="&#x2c6;" horiz-adv-x="392" 
d="M171 718h50l117 -106l-39 -44l-103 94l-103 -94l-39 44z" />
    <glyph glyph-name="caron" unicode="&#x2c7;" horiz-adv-x="392" 
d="M221 568h-50l-117 106l39 44l103 -94l103 94l39 -44z" />
    <glyph glyph-name="uni02C9" unicode="&#x2c9;" horiz-adv-x="376" 
d="M54 616v54h268v-54h-268z" />
    <glyph glyph-name="breve" unicode="&#x2d8;" horiz-adv-x="388" 
d="M112 711q0 -33 24.5 -57t57.5 -24t57.5 24t24.5 57v2h58q0 -57 -41.5 -98t-98.5 -41q-58 0 -99 40.5t-41 98.5h58v-2z" />
    <glyph glyph-name="dotaccent" unicode="&#x2d9;" horiz-adv-x="198" 
d="M54 642q0 18 13 31.5t32 13.5q18 0 31.5 -13.5t13.5 -31.5q0 -19 -13.5 -32t-31.5 -13q-19 0 -32 13t-13 32z" />
    <glyph glyph-name="ring" unicode="&#x2da;" horiz-adv-x="314" 
d="M54 658q0 42 30.5 72t73.5 30q42 0 72 -30t30 -72q0 -43 -30 -73.5t-72 -30.5q-44 0 -74 30t-30 74zM106 658q0 -22 15 -37t37 -15q21 0 35.5 15t14.5 37q0 21 -14.5 35.5t-35.5 14.5q-22 0 -37 -14.5t-15 -35.5z" />
    <glyph glyph-name="ogonek" unicode="&#x2db;" horiz-adv-x="301" 
d="M197 -130l50 -24q-13 -25 -38.5 -41t-58.5 -16q-35 0 -65.5 24t-30.5 61q0 42 26 74.5t59 51.5h66q-1 -1 -16.5 -12.5t-31 -24.5t-28.5 -35.5t-13 -46.5q0 -15 13 -25.5t27 -10.5q28 0 41 25z" />
    <glyph glyph-name="tilde" unicode="&#x2dc;" horiz-adv-x="404" 
d="M54 596v19q0 37 25.5 61.5t61.5 24.5q29 0 51.5 -14.5t38.5 -29.5t29 -15t22 7.5t9 21.5v19h59v-19q0 -37 -25.5 -61.5t-61.5 -24.5q-29 0 -51.5 14.5t-38.5 29.5t-29 15t-22 -7.5t-9 -21.5v-19h-59z" />
    <glyph glyph-name="hungarumlaut" unicode="&#x2dd;" horiz-adv-x="434" 
d="M87 566l-33 37l127 131l48 -52zM223 566l-28 41l145 112l40 -57z" />
    <glyph glyph-name="uni0394" unicode="&#x394;" horiz-adv-x="544" 
d="M301 690l213 -636v-54h-484v54l213 636h58zM454 54l-182 548l-182 -548h364z" />
    <glyph glyph-name="uni03A9" unicode="&#x3a9;" horiz-adv-x="622" 
d="M186 54v9q-136 128 -136 309q0 147 74 236.5t190 89.5q117 0 187.5 -93.5t70.5 -229.5q0 -101 -40.5 -182t-96.5 -130v-9h132v-54h-217v48q66 48 113.5 124.5t47.5 181.5q0 68 -20 131t-67 108.5t-112 45.5q-93 0 -147 -82t-54 -205q0 -99 49 -179t112 -125v-48h-217v54
h131z" />
    <glyph glyph-name="uni03BC" unicode="&#x3bc;" horiz-adv-x="562" 
d="M294 -8q-44 0 -77.5 12t-77.5 57v-238h-59v684h59v-256q0 -108 38.5 -154t109.5 -46q64 0 101.5 66.5t37.5 179.5v210h59v-507h-59v93v-1q-49 -100 -132 -100z" />
    <glyph glyph-name="pi" unicode="&#x3c0;" horiz-adv-x="553" 
d="M381 137v316h-231v-453h-60v453h-66v54h480v-54h-63v-336q0 -35 4 -52t20 -17h34v-56h-34q-84 0 -84 145z" />
    <glyph glyph-name="afii10023" unicode="&#x401;" horiz-adv-x="618" 
d="M551 690v-57h-406v-255h366v-57h-366v-264h426v-57h-487v690h467zM168 824q0 20 14 34t33 14t33.5 -14t14.5 -34q0 -19 -14 -33t-34 -14q-19 0 -33 13.5t-14 33.5zM361 824q0 20 14 34t33 14q20 0 34 -14t14 -34q0 -19 -14 -33t-34 -14t-33.5 13.5t-13.5 33.5z" />
    <glyph glyph-name="afii10051" unicode="&#x402;" horiz-adv-x="770" 
d="M614 -48v407q0 8 -1 16t-8 25t-19.5 29t-39 22t-63.5 10q-84 0 -154.5 -67t-70.5 -173v-221h-59v633h-169v57h477v-57h-249v-237h8q36 55 92.5 88t125.5 33q53 0 91.5 -14t56.5 -31.5t28 -42t11.5 -36t1.5 -23.5v-415q0 -67 -43 -113.5t-127 -46.5h-6v56h6q55 0 83 29.5
t28 71.5z" />
    <glyph glyph-name="afii10052" unicode="&#x403;" horiz-adv-x="550" 
d="M520 690v-57h-375v-633h-61v690h436zM452 824l-194 -80l-21 47l184 100z" />
    <glyph glyph-name="afii10053" unicode="&#x404;" horiz-adv-x="651" 
d="M186 562q-59 -73 -66 -184h328v-57h-329q6 -120 67 -194q60 -76 162 -76q73 0 124.5 43.5t77.5 116.5l55 -25q-31 -84 -99.5 -139t-157.5 -55q-125 0 -207 96q-85 98 -85 257q0 158 86 257q82 96 206 96q82 0 149.5 -51t104.5 -136l-55 -26q-25 68 -76.5 111t-122.5 43
q-101 0 -162 -77z" />
    <glyph glyph-name="afii10054" unicode="&#x405;" horiz-adv-x="635" 
d="M292 698q105 0 173 -48.5t88 -146.5h-65q-30 136 -195 136q-62 0 -117 -36.5t-55 -99.5q0 -27 14 -47.5t33.5 -32t50.5 -20t53.5 -11t54.5 -5.5q43 -3 77 -9t70.5 -19.5t60 -33.5t39 -53.5t15.5 -76.5q0 -101 -68.5 -152t-179.5 -51q-118 0 -200.5 61.5t-96.5 169.5h63
q19 -84 80 -128t151 -44q83 0 135.5 34.5t52.5 112.5q0 37 -17 62.5t-50 39t-66.5 19.5t-80.5 9q-46 3 -86 12t-80.5 28.5t-64 55.5t-23.5 85q0 82 72.5 135.5t161.5 53.5z" />
    <glyph glyph-name="afii10055" unicode="&#x406;" horiz-adv-x="229" 
d="M84 0v690h61v-690h-61z" />
    <glyph glyph-name="afii10056" unicode="&#x407;" horiz-adv-x="229" 
d="M84 0v690h61v-690h-61zM-30 824q0 20 14 34t33 14t33.5 -14t14.5 -34q0 -19 -14 -33t-34 -14q-19 0 -33 13.5t-14 33.5zM163 824q0 20 14 34t33 14q20 0 34 -14t14 -34q0 -19 -14 -33t-34 -14t-33.5 13.5t-13.5 33.5z" />
    <glyph glyph-name="afii10057" unicode="&#x408;" horiz-adv-x="513" 
d="M379 690h61v-452q0 -123 -54 -184.5t-157 -61.5q-179 0 -214 182l62 14q23 -137 150 -137q152 0 152 187v452z" />
    <glyph glyph-name="afii10058" unicode="&#x409;" horiz-adv-x="1045" 
d="M186 690h380v-290h259q74 0 126 -58t52 -144q0 -83 -52.5 -140.5t-126.5 -57.5h-320v633h-263l-37 -356q-28 -277 -190 -277v57q34 5 58.5 26t38.5 55t21 67t12 78zM815 343h-249v-286h249q52 0 88.5 42t36.5 101q0 60 -36 101.5t-89 41.5z" />
    <glyph glyph-name="afii10059" unicode="&#x40a;" horiz-adv-x="1045" 
d="M145 0h-61v690h61v-290h359v290h61v-290h260q74 0 126 -58t52 -144q0 -83 -52.5 -140.5t-126.5 -57.5h-320v343h-359v-343zM565 343v-286h250q52 0 88.5 42t36.5 101q0 60 -36 101.5t-89 41.5h-250z" />
    <glyph glyph-name="afii10060" unicode="&#x40b;" horiz-adv-x="749" 
d="M507 633h-249v-237h8q36 55 92.5 88t125.5 33q53 0 91.5 -14t56.5 -31.5t28 -42t11.5 -36t1.5 -23.5v-370h-59v359q0 8 -1 16t-8 25t-19.5 29t-39 22t-63.5 10q-84 0 -154.5 -67t-70.5 -173v-221h-59v633h-169v57h477v-57z" />
    <glyph glyph-name="afii10061" unicode="&#x40c;" horiz-adv-x="613" 
d="M457 65l-212 265h-100v-330h-61v690h61v-303h41l319 303h86l-308 -293v-18l221 -276q35 -44 89 -44v-59q-92 7 -136 65zM466 824l-194 -80l-21 47l184 100z" />
    <glyph glyph-name="afii10062" unicode="&#x40e;" horiz-adv-x="503" 
d="M90 -8q-27 0 -51 7l14 55q18 -6 36 -6q37 0 64.5 15t36.5 38l35 92l-217 497h66l175 -399h16l158 399h65l-242 -607q-16 -40 -57 -65.5t-99 -25.5zM161 896q0 -34 25.5 -60t60.5 -26t60.5 25.5t25.5 60.5v2h62q0 -61 -43.5 -104t-104.5 -43t-104.5 43t-43.5 104h62v-2z
" />
    <glyph glyph-name="afii10145" unicode="&#x40f;" horiz-adv-x="632" 
d="M548 690v-690h-201l-6 -144h-50l-7 144h-200v690h61v-633h342v633h61z" />
    <glyph glyph-name="afii10017" unicode="&#x410;" horiz-adv-x="597" 
d="M582 0h-64l-70 205h-299l-70 -205h-64l234 690h99zM297 644l-129 -382h261l-129 382h-3z" />
    <glyph glyph-name="afii10018" unicode="&#x411;" horiz-adv-x="625" 
d="M520 690v-57h-375v-233h260q74 0 126 -58t52 -144q0 -83 -52.5 -140.5t-126.5 -57.5h-320v690h436zM145 343v-286h250q52 0 88.5 42t36.5 101q0 60 -36 101.5t-89 41.5h-250z" />
    <glyph glyph-name="afii10019" unicode="&#x412;" horiz-adv-x="625" 
d="M565 512q0 -44 -25 -83t-64 -65v-11q46 -25 76.5 -69.5t30.5 -95.5q0 -79 -53.5 -133.5t-129.5 -54.5h-316v690h300q75 0 128 -52t53 -126zM145 327v-270h244q58 0 94.5 39t36.5 97q0 55 -39 94.5t-92 39.5h-244zM145 633v-249h228q53 0 91 36.5t38 89.5q0 51 -37 87
t-92 36h-228z" />
    <glyph glyph-name="afii10020" unicode="&#x413;" horiz-adv-x="550" 
d="M520 690v-57h-375v-633h-61v690h436z" />
    <glyph glyph-name="afii10021" unicode="&#x414;" horiz-adv-x="665" 
d="M181 690h399v-633h70l-4 -201h-57v144h-527l-4 -144h-58v201h70q63 51 82 226q7 60 14 162t11 173zM212 277q-19 -158 -68 -220h375v576h-281q-12 -232 -26 -356z" />
    <glyph glyph-name="afii10022" unicode="&#x415;" horiz-adv-x="618" 
d="M551 690v-57h-406v-255h366v-57h-366v-264h426v-57h-487v690h467z" />
    <glyph glyph-name="afii10024" unicode="&#x416;" horiz-adv-x="997" 
d="M368 330l-212 -265q-44 -58 -136 -65v59q54 0 89 44l221 276v18l-308 293h86l319 -303h41v303h61v-303h41l319 303h86l-308 -293v-18l221 -276q35 -44 89 -44v-59q-92 7 -136 65l-212 265h-100v-330h-61v330h-100z" />
    <glyph glyph-name="afii10025" unicode="&#x417;" horiz-adv-x="525" 
d="M247 -8q-85 0 -149 51t-74 127h63q9 -52 54.5 -85.5t105.5 -33.5q68 0 116 42t48 103q0 59 -46 102t-110 43h-73v57h65q60 0 102.5 35t42.5 85t-43 85.5t-102 35.5q-58 0 -99.5 -32.5t-44.5 -80.5h-62q3 73 64.5 122.5t141.5 49.5q86 0 147 -52t61 -126
q0 -43 -29.5 -81.5t-74.5 -64.5v-8q53 -29 88 -74.5t35 -97.5q0 -84 -66.5 -143t-160.5 -59z" />
    <glyph glyph-name="afii10026" unicode="&#x418;" horiz-adv-x="702" 
d="M84 690h61v-647h2l361 647h110v-690h-61v647h-1l-362 -647h-110v690z" />
    <glyph glyph-name="afii10027" unicode="&#x419;" horiz-adv-x="702" 
d="M84 690h61v-647h2l361 647h110v-690h-61v647h-1l-362 -647h-110v690zM266 896q0 -34 26 -60t60 -26q35 0 60.5 25.5t25.5 60.5v2h62q0 -61 -43.5 -104t-104.5 -43t-104.5 43t-43.5 104h62v-2z" />
    <glyph glyph-name="afii10028" unicode="&#x41a;" horiz-adv-x="613" 
d="M457 65l-212 265h-100v-330h-61v690h61v-303h41l319 303h86l-308 -293v-18l221 -276q35 -44 89 -44v-59q-92 7 -136 65z" />
    <glyph glyph-name="afii10029" unicode="&#x41b;" horiz-adv-x="657" 
d="M180 690h393v-690h-61v633h-275q-12 -232 -26 -356q-5 -48 -11 -79.5t-19 -71.5t-32 -65t-51.5 -44t-76.5 -24v58q30 3 52.5 19.5t35 36.5t22 54.5t13 58t7.5 63.5q7 60 14 162t11 173z" />
    <glyph glyph-name="afii10030" unicode="&#x41c;" horiz-adv-x="798" 
d="M347 30l-202 601v-631h-61v690h105l205 -607h10l205 607h105v-690h-61v631l-202 -601h-104z" />
    <glyph glyph-name="afii10031" unicode="&#x41d;" horiz-adv-x="688" 
d="M145 0h-61v690h61v-299h398v299h61v-690h-61v334h-398v-334z" />
    <glyph glyph-name="afii10032" unicode="&#x41e;" horiz-adv-x="693" 
d="M56 345q0 158 86 257q83 96 207 96q121 0 203 -96q85 -98 85 -257q0 -160 -84 -258q-83 -95 -204 -95q-124 0 -208 96q-85 98 -85 257zM119 345q0 -132 68 -215q64 -79 160 -79t160 79q67 83 67 215q0 131 -67 214q-64 80 -160 80t-160 -80q-68 -83 -68 -214z" />
    <glyph glyph-name="afii10033" unicode="&#x41f;" horiz-adv-x="647" 
d="M145 0h-61v690h479v-690h-61v633h-357v-633z" />
    <glyph glyph-name="afii10034" unicode="&#x420;" horiz-adv-x="629" 
d="M413 286h-268v-286h-61v690h328q77 0 130.5 -58t53.5 -142q0 -87 -53.5 -145.5t-129.5 -58.5zM145 633v-290h259q54 0 91.5 42.5t37.5 102.5t-37.5 102.5t-91.5 42.5h-259z" />
    <glyph glyph-name="afii10035" unicode="&#x421;" horiz-adv-x="661" 
d="M119 344q0 -134 67 -217q60 -76 162 -76q79 0 129 46q54 50 76 143h62q-24 -115 -98 -184q-72 -64 -169 -64q-125 0 -207 96q-85 98 -85 257q0 158 86 257q82 96 206 96q92 0 166 -63q73 -65 99 -175h-63q-24 88 -76 134q-52 45 -126 45q-101 0 -162 -77
q-67 -83 -67 -218z" />
    <glyph glyph-name="afii10036" unicode="&#x422;" horiz-adv-x="607" 
d="M577 690v-57h-244v-633h-61v633h-242v57h547z" />
    <glyph glyph-name="afii10037" unicode="&#x423;" horiz-adv-x="503" 
d="M90 -8q-27 0 -51 7l14 55q18 -6 36 -6q37 0 64.5 15t36.5 38l35 92l-217 497h66l175 -399h16l158 399h65l-242 -607q-16 -40 -57 -65.5t-99 -25.5z" />
    <glyph glyph-name="afii10038" unicode="&#x424;" horiz-adv-x="779" 
d="M359 -10v74q-135 0 -222.5 83.5t-87.5 204.5q0 128 89 210t221 82v56h61v-56q132 0 221 -82t89 -210q0 -121 -87.5 -204.5t-222.5 -83.5v-74h-61zM667 353q0 97 -69 164t-178 67v-460q105 0 176 66t71 163zM112 353q0 -97 71 -163t176 -66v460q-109 0 -178 -67t-69 -164z
" />
    <glyph glyph-name="afii10039" unicode="&#x425;" horiz-adv-x="636" 
d="M603 690l-238 -320v-32l251 -338h-75l-215 294h-17l-215 -294h-74l251 338v32l-238 320h75l203 -278h14l203 278h75z" />
    <glyph glyph-name="afii10040" unicode="&#x426;" horiz-adv-x="634" 
d="M548 690v-633h71l-5 -201h-57v144h-473v690h61v-633h342v633h61z" />
    <glyph glyph-name="afii10041" unicode="&#x427;" horiz-adv-x="634" 
d="M491 690h59v-690h-59v338h-8q-60 -47 -111 -61t-107 -14q-53 0 -91.5 14t-56.5 31.5t-28 42t-11.5 36t-1.5 23.5v280h59v-269q0 -8 1 -16t8 -25t19.5 -29t39 -22t63.5 -10q42 0 81 9.5t64 23t44 27t27 23.5l9 9v279z" />
    <glyph glyph-name="afii10042" unicode="&#x428;" horiz-adv-x="983" 
d="M84 0v690h61v-633h316v633h61v-633h316v633h61v-690h-815z" />
    <glyph glyph-name="afii10043" unicode="&#x429;" horiz-adv-x="984" 
d="M852 0h-768v690h61v-633h316v633h61v-633h316v633h61v-633h70l-4 -201h-57v144h-56z" />
    <glyph glyph-name="afii10044" unicode="&#x42a;" horiz-adv-x="787" 
d="M30 633v57h277v-290h260q74 0 126 -58t52 -144q0 -83 -52.5 -140.5t-126.5 -57.5h-320v633h-216zM307 343v-286h250q52 0 88.5 42t36.5 101q0 60 -36 101.5t-89 41.5h-250z" />
    <glyph glyph-name="afii10045" unicode="&#x42b;" horiz-adv-x="823" 
d="M145 400h250q74 0 126 -58t52 -144q0 -83 -52.5 -140.5t-126.5 -57.5h-310v690h61v-290zM145 343v-286h240q52 0 88.5 42t36.5 101q0 60 -36 101.5t-89 41.5h-240zM678 0v690h61v-690h-61z" />
    <glyph glyph-name="afii10046" unicode="&#x42c;" horiz-adv-x="625" 
d="M145 400h260q74 0 126 -58t52 -144q0 -83 -52.5 -140.5t-126.5 -57.5h-320v690h61v-290zM145 343v-286h250q52 0 88.5 42t36.5 101q0 60 -36 101.5t-89 41.5h-250z" />
    <glyph glyph-name="afii10047" unicode="&#x42d;" horiz-adv-x="651" 
d="M465 562q-61 77 -162 77q-71 0 -122.5 -43t-76.5 -111l-55 26q37 85 104.5 136t149.5 51q124 0 206 -96q86 -99 86 -257q0 -159 -85 -257q-82 -96 -207 -96q-89 0 -157.5 55t-99.5 139l55 25q26 -73 77.5 -116.5t124.5 -43.5q102 0 162 76q61 74 67 194h-329v57h328
q-7 111 -66 184z" />
    <glyph glyph-name="afii10048" unicode="&#x42e;" horiz-adv-x="932" 
d="M145 0h-61v690h61v-299h152q12 128 84 211q83 96 207 96q121 0 203 -96q85 -98 85 -257q0 -160 -84 -258q-83 -95 -204 -95q-124 0 -208 96q-82 95 -85 246h-150v-334zM358 345q0 -132 68 -215q64 -79 160 -79t160 79q67 83 67 215q0 131 -67 214q-64 80 -160 80
t-160 -80q-68 -83 -68 -214z" />
    <glyph glyph-name="afii10049" unicode="&#x42f;" horiz-adv-x="660" 
d="M515 0v301h-169l-175 -236q-48 -65 -142 -65h-12v59h8q66 0 99 44l148 198q-90 0 -141 60.5t-51 134.5q0 80 53 137t128 57h315v-690h-61zM272 358h243v275h-243q-53 0 -91 -40t-38 -98q0 -57 38 -97t91 -40z" />
    <glyph glyph-name="afii10065" unicode="&#x430;" horiz-adv-x="560" 
d="M132 364h-59q0 10 3 25t16 38.5t34 42.5t61 33t93 14q173 0 173 -151v-290q0 -15 10.5 -24t22.5 -9q23 0 32 22l46 -22q-23 -51 -76 -51q-35 0 -57 23t-25 52h-9q-38 -42 -85 -58.5t-78 -16.5q-18 0 -36 2t-47 11t-50 24.5t-37 47t-16 73.5q0 119 176 155l170 35v22
q0 48 -22.5 73.5t-94.5 25.5q-43 0 -74.5 -11.5t-45 -29t-19.5 -31.5t-6 -25zM394 173v113l-148 -32q-27 -6 -45.5 -12t-42.5 -17.5t-36.5 -30t-12.5 -43.5q0 -103 122 -103h6q54 0 105.5 36.5t51.5 88.5z" />
    <glyph glyph-name="afii10066" unicode="&#x431;" horiz-adv-x="581" 
d="M112 395h7q23 56 71.5 89t100.5 33q102 0 170.5 -78.5t68.5 -185.5t-69.5 -184t-169.5 -77q-53 0 -96 19.5t-69.5 49.5t-44 70t-24.5 79t-7 78q0 192 68 282t224 110l136 18l6 -53l-134 -19q-67 -9 -112 -28.5t-70 -51t-36.5 -65.5t-19.5 -86zM291 461q-73 0 -125 -61
t-52 -147q0 -85 52 -145t125 -60q74 0 126 60t52 145q0 86 -52 147t-126 61z" />
    <glyph glyph-name="afii10067" unicode="&#x432;" horiz-adv-x="531" 
d="M464 376q0 -32 -20.5 -62.5t-51.5 -48.5v-3q37 -18 61.5 -52t24.5 -72q0 -58 -43 -98t-104 -40h-254v507h241q61 0 103.5 -38t42.5 -93zM136 234v-180h188q45 0 69 25.5t24 65.5q0 38 -25.5 63.5t-67.5 25.5h-188zM136 453v-165h174q42 0 67.5 23.5t25.5 60.5
q0 35 -24.5 58t-68.5 23h-174z" />
    <glyph glyph-name="afii10068" unicode="&#x433;" horiz-adv-x="474" 
d="M136 0h-59v507h354v-54h-295v-453z" />
    <glyph glyph-name="afii10069" unicode="&#x434;" horiz-adv-x="559" 
d="M133 507h354v-453h69l-4 -198h-56v144h-437l-3 -144h-56v198h61q33 33 48 135q6 52 12 131.5t9 133.5zM169 204q-11 -104 -42 -150h301v399h-242q-9 -163 -17 -249z" />
    <glyph glyph-name="afii10070" unicode="&#x435;" horiz-adv-x="567" 
d="M292 -8q-100 0 -169.5 73.5t-69.5 188.5t69.5 189t169.5 74q99 0 163 -73.5t64 -189.5v-16h-403q2 -83 55.5 -136.5t128.5 -53.5q108 0 155 114l53 -24q-29 -68 -87 -107t-129 -39zM291 461q-68 0 -117 -47t-58 -124h340q-9 77 -54.5 124t-110.5 47z" />
    <glyph glyph-name="afii10072" unicode="&#x436;" horiz-adv-x="807" 
d="M303 234l-147 -186q-37 -48 -126 -48h-4v54q62 0 86 31l141 180v27l-226 215h82l225 -219h40v219h59v-219h40l225 219h82l-226 -215v-27l141 -180q24 -31 86 -31v-54h-4q-89 0 -126 48l-147 186h-71v-234h-59v234h-71z" />
    <glyph glyph-name="afii10073" unicode="&#x437;" horiz-adv-x="437" 
d="M202 -8q-70 0 -122.5 40t-57.5 98h62q7 -35 40.5 -58.5t77.5 -23.5q50 0 85.5 29t35.5 70q0 39 -34 69t-80 30h-59v54h52q44 0 75 23.5t31 56.5q0 34 -31 57.5t-75 23.5q-41 0 -71.5 -22.5t-32.5 -53.5h-61q0 55 48 93.5t117 38.5q70 0 118.5 -38.5t48.5 -93.5
q0 -32 -23.5 -61t-59.5 -47v-6q42 -22 70 -56.5t28 -72.5q0 -62 -53.5 -106t-128.5 -44z" />
    <glyph glyph-name="afii10074" unicode="&#x438;" horiz-adv-x="581" 
d="M77 507h59v-432l291 432h77v-507h-59v430l-291 -430h-77v507z" />
    <glyph glyph-name="afii10075" unicode="&#x439;" horiz-adv-x="581" 
d="M77 507h59v-432l291 432h77v-507h-59v430l-291 -430h-77v507zM207 711q0 -33 24.5 -57t57.5 -24t57.5 24t24.5 57v2h58q0 -57 -41.5 -98t-98.5 -41q-58 0 -99 40.5t-41 98.5h58v-2z" />
    <glyph glyph-name="afii10076" unicode="&#x43a;" horiz-adv-x="510" 
d="M354 48q-127 161 -147 186h-71v-234h-59v507h59v-219h40l225 219h82l-226 -215v-27l141 -180q24 -31 86 -31v-54h-4q-89 0 -126 48z" />
    <glyph glyph-name="afii10077" unicode="&#x43b;" horiz-adv-x="580" 
d="M169 507h334v-507h-59v453h-222q-9 -163 -17 -249q-10 -106 -48 -158t-117 -54v56q50 3 72 32.5t33 108.5q6 52 12 131.5t9 133.5z" />
    <glyph glyph-name="afii10078" unicode="&#x43c;" horiz-adv-x="685" 
d="M297 32l-161 422v-454h-59v507h103l161 -436h4l164 436h99v-507h-59v454l-161 -422h-91z" />
    <glyph glyph-name="afii10079" unicode="&#x43d;" horiz-adv-x="588" 
d="M136 0h-59v507h59v-213h316v213h59v-507h-59v240h-316v-240z" />
    <glyph glyph-name="afii10080" unicode="&#x43e;" horiz-adv-x="582" 
d="M53 254q0 115 69.5 189t169.5 74q99 0 168 -74t69 -189t-69 -188.5t-168 -73.5q-100 0 -169.5 73.5t-69.5 188.5zM114 254q0 -91 51.5 -148.5t125.5 -57.5t125.5 57.5t51.5 148.5t-51.5 149t-125.5 58t-125.5 -58t-51.5 -149z" />
    <glyph glyph-name="afii10081" unicode="&#x43f;" horiz-adv-x="578" 
d="M136 0h-59v507h424v-507h-59v453h-306v-453z" />
    <glyph glyph-name="afii10082" unicode="&#x440;" horiz-adv-x="597" 
d="M80 -181v688h59v-93h6q72 103 171 103q95 0 161.5 -77t66.5 -186q0 -108 -66.5 -185t-161.5 -77q-103 0 -171 97h-6v-270h-59zM139 255v-9q2 -89 48 -143.5t125 -54.5q72 0 121.5 60t49.5 146q0 87 -49.5 147t-121.5 60q-81 0 -127 -56.5t-46 -149.5z" />
    <glyph glyph-name="afii10083" unicode="&#x441;" horiz-adv-x="560" 
d="M114 254q0 -91 50.5 -148.5t123.5 -57.5q53 0 95.5 31.5t62.5 87.5h64q-23 -80 -84 -127.5t-138 -47.5q-99 0 -167 73.5t-68 188.5t68 189t167 74q83 0 146.5 -55.5t81.5 -145.5h-63q-16 66 -61.5 105.5t-103.5 39.5q-73 0 -123.5 -58t-50.5 -149z" />
    <glyph glyph-name="afii10084" unicode="&#x442;" horiz-adv-x="452" 
d="M432 507v-54h-175v-453h-61v453h-176v54h412z" />
    <glyph glyph-name="afii10085" unicode="&#x443;" horiz-adv-x="496" 
d="M88 -205q-27 0 -51 7l14 55q18 -6 36 -6q72 0 91 53l44 115l-202 488h64l163 -394h13l150 394h63l-239 -621q-35 -91 -146 -91z" />
    <glyph glyph-name="afii10086" unicode="&#x444;" horiz-adv-x="679" 
d="M310 -175v167q-116 4 -186.5 75.5t-70.5 186.5q0 114 70.5 186.5t186.5 76.5v179h59v-179q115 -4 186 -76.5t71 -186.5q0 -115 -70.5 -186.5t-186.5 -75.5v-167h-59zM565 254q0 89 -53.5 146t-142.5 61v-413q89 3 142.5 59.5t53.5 146.5zM114 254q0 -90 53.5 -146.5
t142.5 -59.5v413q-89 -4 -142.5 -61t-53.5 -146z" />
    <glyph glyph-name="afii10087" unicode="&#x445;" horiz-adv-x="498" 
d="M402 0l-150 218h-6l-150 -218h-70l183 258v12l-172 237h70l139 -197h6l139 197h70l-172 -237v-12l183 -258h-70z" />
    <glyph glyph-name="afii10088" unicode="&#x446;" horiz-adv-x="572" 
d="M510 0h-433v507h59v-453h306v453h59v-453h68l-3 -198h-56v144z" />
    <glyph glyph-name="afii10089" unicode="&#x447;" 
d="M432 507h59v-507h-59v233h-8q-92 -63 -186 -63q-45 0 -78 14t-48.5 31.5t-24.5 42t-10 36t-1 23.5v190h59v-179q0 -8 1 -16t6.5 -25t16 -29t33 -22t52.5 -10q50 0 97 16t69 32l22 17v216z" />
    <glyph glyph-name="afii10090" unicode="&#x448;" horiz-adv-x="873" 
d="M796 0h-719v507h59v-453h271v453h59v-453h271v453h59v-507z" />
    <glyph glyph-name="afii10091" unicode="&#x449;" horiz-adv-x="867" 
d="M805 0h-728v507h59v-453h271v453h59v-453h271v453h59v-453h68l-3 -198h-56v144z" />
    <glyph glyph-name="afii10092" unicode="&#x44a;" horiz-adv-x="629" 
d="M17 453v54h217v-199h178q66 0 115 -45t49 -107q0 -67 -46 -111.5t-118 -44.5h-237v453h-158zM234 254v-200h178q46 0 74.5 28.5t28.5 72.5q0 41 -30 70t-73 29h-178z" />
    <glyph glyph-name="afii10093" unicode="&#x44b;" horiz-adv-x="716" 
d="M580 0v507h59v-507h-59zM136 254v-200h178q46 0 74.5 28.5t28.5 72.5q0 41 -30 70t-73 29h-178zM77 0v507h59v-199h178q66 0 115 -45t49 -107q0 -67 -46 -111.5t-118 -44.5h-237z" />
    <glyph glyph-name="afii10094" unicode="&#x44c;" horiz-adv-x="531" 
d="M136 254v-200h178q46 0 74.5 28.5t28.5 72.5q0 41 -30 70t-73 29h-178zM77 0v507h59v-199h178q66 0 115 -45t49 -107q0 -67 -46 -111.5t-118 -44.5h-237z" />
    <glyph glyph-name="afii10095" unicode="&#x44d;" horiz-adv-x="552" 
d="M252 461q-108 0 -155 -114l-53 24q29 68 87 107t129 39q100 0 169.5 -74t69.5 -189t-69.5 -188.5t-169.5 -73.5q-71 0 -129 39t-87 107l53 24q47 -114 155 -114q77 0 127.5 47t56.5 132h-260v54h260q-4 81 -58.5 130.5t-125.5 49.5z" />
    <glyph glyph-name="afii10096" unicode="&#x44e;" horiz-adv-x="787" 
d="M136 0h-59v507h59v-213h124q13 99 79.5 161t157.5 62q99 0 168 -74t69 -189t-69 -188.5t-168 -73.5q-97 0 -166 69t-73 179h-122v-240zM319 254q0 -91 51.5 -148.5t125.5 -57.5t125.5 57.5t51.5 148.5t-51.5 149t-125.5 58t-125.5 -58t-51.5 -149z" />
    <glyph glyph-name="afii10097" unicode="&#x44f;" horiz-adv-x="519" 
d="M382 205h-144l-73 -133q-43 -72 -135 -72h-4v54h4q20 0 31 1.5t26.5 12.5t28.5 33l59 106q-57 9 -89 53.5t-32 93.5q0 61 40.5 107t96.5 46h251v-507h-60v205zM204 259h179v194h-179q-36 0 -62.5 -29t-26.5 -68q0 -38 26.5 -67.5t62.5 -29.5z" />
    <glyph glyph-name="afii10071" unicode="&#x451;" horiz-adv-x="567" 
d="M292 -8q-100 0 -169.5 73.5t-69.5 188.5t69.5 189t169.5 74q99 0 163 -73.5t64 -189.5v-16h-403q2 -83 55.5 -136.5t128.5 -53.5q108 0 155 114l53 -24q-29 -68 -87 -107t-129 -39zM291 461q-68 0 -117 -47t-58 -124h340q-9 77 -54.5 124t-110.5 47zM153 642
q0 18 13 31.5t32 13.5q18 0 31.5 -13.5t13.5 -31.5q0 -19 -13.5 -32t-31.5 -13q-19 0 -32 13t-13 32zM341 642q0 18 13 31.5t32 13.5q18 0 31.5 -13.5t13.5 -31.5q0 -19 -13.5 -32t-31.5 -13q-19 0 -32 13t-13 32z" />
    <glyph glyph-name="afii10099" unicode="&#x452;" horiz-adv-x="589" 
d="M492 -45q0 -67 -43 -113.5t-127 -46.5h-6v56h6q55 0 83 29.5t28 71.5v413q-1 12 -4.5 25t-13.5 31t-33.5 29t-57.5 11q-68 0 -126 -63.5t-62 -165.5v-232h-59v553h-60v54h60v89h59v-89h129v-54h-129v-157h8q31 55 79 88t107 33q45 0 78 -14t48.5 -31.5t24.5 -42t10 -36
t1 -23.5v-415z" />
    <glyph glyph-name="afii10100" unicode="&#x453;" horiz-adv-x="474" 
d="M136 0h-59v507h354v-54h-295v-453zM375 667l-176 -101l-27 42l164 119z" />
    <glyph glyph-name="afii10101" unicode="&#x454;" horiz-adv-x="552" 
d="M300 461q-71 0 -125.5 -49.5t-58.5 -130.5h260v-54h-260q6 -85 56.5 -132t127.5 -47q108 0 155 114l53 -24q-29 -68 -87 -107t-129 -39q-100 0 -169.5 73.5t-69.5 188.5t69.5 189t169.5 74q71 0 129 -39t87 -107l-53 -24q-47 114 -155 114z" />
    <glyph glyph-name="afii10102" unicode="&#x455;" horiz-adv-x="525" 
d="M455 356h-60q-11 55 -43.5 80t-95.5 25q-55 0 -91.5 -20.5t-36.5 -65.5q0 -20 12.5 -35.5t27.5 -23.5t41.5 -14.5t40.5 -8.5t39 -5q32 -4 55 -8t52 -14.5t47.5 -25t31.5 -40t13 -58.5q0 -58 -52.5 -104t-159.5 -46q-105 0 -165 53t-63 118h61q3 -43 47 -79t120 -36
q79 0 115 29t36 65q0 18 -3.5 30.5t-15 22t-21 15t-34.5 11t-42 8.5t-56 8q-40 6 -68.5 13.5t-58.5 22.5t-45.5 41.5t-15.5 63.5q0 10 2 22.5t13 34.5t29.5 39t56.5 30t88 13q52 0 91.5 -15.5t58.5 -34.5t31.5 -46.5t14.5 -39t3 -25.5z" />
    <glyph glyph-name="afii10103" unicode="&#x456;" horiz-adv-x="212" 
d="M77 0v507h59v-507h-59zM61 642q0 18 13 31.5t32 13.5q18 0 31.5 -13.5t13.5 -31.5q0 -19 -13.5 -32t-31.5 -13q-19 0 -32 13t-13 32z" />
    <glyph glyph-name="afii10104" unicode="&#x457;" horiz-adv-x="212" 
d="M77 0v507h59v-507h-59zM-34 642q0 18 13 31.5t32 13.5q18 0 31.5 -13.5t13.5 -31.5q0 -19 -13.5 -32t-31.5 -13q-19 0 -32 13t-13 32zM154 642q0 18 13 31.5t32 13.5q18 0 31.5 -13.5t13.5 -31.5q0 -19 -13.5 -32t-31.5 -13q-19 0 -32 13t-13 32z" />
    <glyph glyph-name="afii10105" unicode="&#x458;" horiz-adv-x="212" 
d="M136 -45q0 -67 -43 -113.5t-127 -46.5h-6v56h6q55 0 83 29.5t28 71.5v555h59v-552zM61 642q0 18 13 31.5t32 13.5q18 0 31.5 -13.5t13.5 -31.5q0 -19 -13.5 -32t-31.5 -13q-19 0 -32 13t-13 32z" />
    <glyph glyph-name="afii10106" unicode="&#x459;" horiz-adv-x="891" 
d="M165 507h331v-199h178q66 0 115 -45t49 -107q0 -67 -46 -111.5t-118 -44.5h-237v453h-220l-26 -249q-4 -38 -8 -61.5t-14.5 -54t-26.5 -47.5t-43.5 -29t-65.5 -12v54q24 2 41.5 11.5t26.5 20.5t16 33t9 35.5t5 41.5zM496 254v-200h178q46 0 74.5 28.5t28.5 72.5
q0 41 -30 70t-73 29h-178z" />
    <glyph glyph-name="afii10107" unicode="&#x45a;" horiz-adv-x="876" 
d="M136 0h-59v507h59v-199h286v199h59v-199h178q66 0 115 -45t49 -107q0 -67 -46 -111.5t-118 -44.5h-237v254h-286v-254zM481 254v-200h178q46 0 74.5 28.5t28.5 72.5q0 41 -30 70t-73 29h-178z" />
    <glyph glyph-name="afii10108" unicode="&#x45b;" horiz-adv-x="569" 
d="M266 553h-129v-157h8q31 55 79 88t107 33q45 0 78 -14t48.5 -31.5t24.5 -42t10 -36t1 -23.5v-370h-59v359q0 8 -1 16t-6.5 25t-16 29t-33 22t-52.5 10q-70 0 -129 -66.5t-59 -173.5v-221h-59v553h-60v54h60v89h59v-89h129v-54z" />
    <glyph glyph-name="afii10109" unicode="&#x45c;" horiz-adv-x="510" 
d="M354 48q-127 161 -147 186h-71v-234h-59v507h59v-219h40l225 219h82l-226 -215v-27l141 -180q24 -31 86 -31v-54h-4q-89 0 -126 48zM385 667l-176 -101l-27 42l164 119z" />
    <glyph glyph-name="afii10110" unicode="&#x45e;" horiz-adv-x="496" 
d="M88 -205q-27 0 -51 7l14 55q18 -6 36 -6q72 0 91 53l44 115l-202 488h64l163 -394h13l150 394h63l-239 -621q-35 -91 -146 -91zM169 711q0 -33 24.5 -57t57.5 -24t57.5 24t24.5 57v2h58q0 -57 -41.5 -98t-98.5 -41q-58 0 -99 40.5t-41 98.5h58v-2z" />
    <glyph glyph-name="afii10193" unicode="&#x45f;" horiz-adv-x="558" 
d="M77 507h59v-453h286v453h59v-507h-170l-6 -144h-50l-7 144h-171v507z" />
    <glyph glyph-name="afii10050" unicode="&#x490;" horiz-adv-x="550" 
d="M84 0v690h365l10 144h50l11 -201h-375v-633h-61z" />
    <glyph glyph-name="afii10098" unicode="&#x491;" horiz-adv-x="474" 
d="M431 453h-295v-453h-59v507h283l10 144h50z" />
    <glyph glyph-name="Wgrave" unicode="&#x1e80;" horiz-adv-x="841" 
d="M426 614h-11l-140 -614h-91l-159 690h63l141 -626l136 596h111l136 -596l141 626h63l-159 -690h-91zM476 744l-194 80l31 67l184 -100z" />
    <glyph glyph-name="wgrave" unicode="&#x1e81;" horiz-adv-x="766" 
d="M383 427l-120 -427h-94l-137 507h61l121 -456h5l128 452h72l128 -452h5l121 456h61l-137 -507h-94zM418 566l-176 101l39 60l164 -119z" />
    <glyph glyph-name="Wacute" unicode="&#x1e82;" horiz-adv-x="841" 
d="M426 614h-11l-140 -614h-91l-159 690h63l141 -626l136 596h111l136 -596l141 626h63l-159 -690h-91zM558 824l-194 -80l-21 47l184 100z" />
    <glyph glyph-name="wacute" unicode="&#x1e83;" horiz-adv-x="766" 
d="M383 427l-120 -427h-94l-137 507h61l121 -456h5l128 452h72l128 -452h5l121 456h61l-137 -507h-94zM525 667l-176 -101l-27 42l164 119z" />
    <glyph glyph-name="Wdieresis" unicode="&#x1e84;" horiz-adv-x="841" 
d="M426 614h-11l-140 -614h-91l-159 690h63l141 -626l136 596h111l136 -596l141 626h63l-159 -690h-91zM276 824q0 20 14 34t33 14t33.5 -14t14.5 -34q0 -19 -14 -33t-34 -14q-19 0 -33 13.5t-14 33.5zM469 824q0 20 14 34t33 14q20 0 34 -14t14 -34q0 -19 -14 -33t-34 -14
t-33.5 13.5t-13.5 33.5z" />
    <glyph glyph-name="wdieresis" unicode="&#x1e85;" horiz-adv-x="766" 
d="M383 427l-120 -427h-94l-137 507h61l121 -456h5l128 452h72l128 -452h5l121 456h61l-137 -507h-94zM244 642q0 18 13 31.5t32 13.5q18 0 31.5 -13.5t13.5 -31.5q0 -19 -13.5 -32t-31.5 -13q-19 0 -32 13t-13 32zM432 642q0 18 13 31.5t32 13.5q18 0 31.5 -13.5
t13.5 -31.5q0 -19 -13.5 -32t-31.5 -13q-19 0 -32 13t-13 32z" />
    <glyph glyph-name="uni1E8A" unicode="&#x1e8a;" horiz-adv-x="636" 
d="M603 690l-238 -320v-32l251 -338h-75l-215 294h-17l-215 -294h-74l251 338v32l-238 320h75l203 -278h14l203 278h75zM271 824q0 20 14 34t33 14q20 0 34 -14t14 -34q0 -19 -14 -33t-34 -14t-33.5 13.5t-13.5 33.5z" />
    <glyph glyph-name="uni1E8B" unicode="&#x1e8b;" horiz-adv-x="498" 
d="M402 0l-150 218h-6l-150 -218h-70l183 258v12l-172 237h70l139 -197h6l139 197h70l-172 -237v-12l183 -258h-70zM203 642q0 18 13 31.5t32 13.5q18 0 31.5 -13.5t13.5 -31.5q0 -19 -13.5 -32t-31.5 -13q-19 0 -32 13t-13 32z" />
    <glyph glyph-name="Ygrave" unicode="&#x1ef2;" horiz-adv-x="555" 
d="M308 0h-61v322l-239 368h71l192 -301h13l192 301h71l-239 -368v-322zM327 744l-194 80l31 67l184 -100z" />
    <glyph glyph-name="ygrave" unicode="&#x1ef3;" horiz-adv-x="496" 
d="M88 -205q-27 0 -51 7l14 55q18 -6 36 -6q72 0 91 53l44 115l-202 488h64l163 -394h13l150 394h63l-239 -621q-35 -91 -146 -91zM294 566l-176 101l39 60l164 -119z" />
    <glyph glyph-name="uni2007" unicode="&#x2007;" horiz-adv-x="561" 
 />
    <glyph glyph-name="uni2008" unicode="&#x2008;" horiz-adv-x="230" 
 />
    <glyph glyph-name="uni200B" unicode="&#x200b;" horiz-adv-x="0" 
 />
    <glyph glyph-name="endash" unicode="&#x2013;" horiz-adv-x="615" 
d="M55 214v54h505v-54h-505z" />
    <glyph glyph-name="emdash" unicode="&#x2014;" horiz-adv-x="977" 
d="M55 214v54h867v-54h-867z" />
    <glyph glyph-name="quoteleft" unicode="&#x2018;" horiz-adv-x="219" 
d="M160 520q0 -21 -14 -36t-34 -15q-23 0 -37.5 16t-14.5 43q0 40 23 81.5t47 62.5l23 22l27 -30q-48 -46 -65 -96q19 0 32 -14t13 -34z" />
    <glyph glyph-name="quoteright" unicode="&#x2019;" horiz-adv-x="219" 
d="M60 649q0 21 14 36t34 15q23 0 37.5 -16t14.5 -43q0 -40 -23 -81.5t-47 -63.5l-23 -21l-27 30q48 46 65 96q-19 0 -32 14t-13 34z" />
    <glyph glyph-name="quotesinglbase" unicode="&#x201a;" horiz-adv-x="229" 
d="M89 44q0 21 14 36t34 15q23 0 37.5 -16t14.5 -43q0 -40 -23.5 -81.5t-46.5 -62.5l-23 -22l-27 30q48 46 65 96q-19 0 -32 14t-13 34z" />
    <glyph glyph-name="quotedblleft" unicode="&#x201c;" horiz-adv-x="385" 
d="M160 520q0 -21 -14 -36t-34 -15q-23 0 -37.5 16t-14.5 43q0 40 23 81.5t47 62.5l23 22l27 -30q-48 -46 -65 -96q19 0 32 -14t13 -34zM326 520q0 -21 -14 -36t-34 -15q-23 0 -37.5 16t-14.5 43q0 40 23 81.5t47 62.5l23 22l27 -30q-48 -46 -65 -96q19 0 32 -14t13 -34z
" />
    <glyph glyph-name="quotedblright" unicode="&#x201d;" horiz-adv-x="385" 
d="M60 649q0 21 14 36t34 15q23 0 37.5 -16t14.5 -43q0 -40 -23 -81.5t-47 -63.5l-23 -21l-27 30q48 46 65 96q-19 0 -32 14t-13 34zM226 649q0 21 14 36t34 15q23 0 37.5 -16t14.5 -43q0 -40 -23 -81.5t-47 -63.5l-23 -21l-27 30q48 46 65 96q-19 0 -32 14t-13 34z" />
    <glyph glyph-name="quotedblbase" unicode="&#x201e;" horiz-adv-x="395" 
d="M89 44q0 21 14 36t34 15q23 0 37.5 -16t14.5 -43q0 -40 -23.5 -81.5t-46.5 -62.5l-23 -22l-27 30q48 46 65 96q-19 0 -32 14t-13 34zM255 44q0 21 14 36t34 15q23 0 37.5 -16t14.5 -43q0 -40 -23.5 -81.5t-46.5 -62.5l-23 -22l-27 30q48 46 65 96q-19 0 -32 14t-13 34z
" />
    <glyph glyph-name="dagger" unicode="&#x2020;" horiz-adv-x="499" 
d="M45 513h175v185h59v-185h175v-54h-175v-561h-59v561h-175v54z" />
    <glyph glyph-name="daggerdbl" unicode="&#x2021;" horiz-adv-x="499" 
d="M45 513h175v185h59v-185h175v-54h-175v-322h175v-54h-175v-185h-59v185h-175v54h175v322h-175v54z" />
    <glyph glyph-name="bullet" unicode="&#x2022;" horiz-adv-x="406" 
d="M318 278q0 -48 -33.5 -81.5t-81.5 -33.5t-81.5 33.5t-33.5 81.5t33.5 81.5t81.5 33.5t81.5 -33.5t33.5 -81.5z" />
    <glyph glyph-name="ellipsis" unicode="&#x2026;" horiz-adv-x="712" 
d="M63 43q0 21 15 36.5t36 15.5t36.5 -15.5t15.5 -36.5t-15.5 -36t-36.5 -15t-36 15t-15 36zM304 43q0 21 15 36.5t36 15.5t36.5 -15.5t15.5 -36.5t-15.5 -36t-36.5 -15t-36 15t-15 36zM545 43q0 21 15 36.5t36 15.5t36.5 -15.5t15.5 -36.5t-15.5 -36t-36.5 -15t-36 15
t-15 36z" />
    <glyph glyph-name="perthousand" unicode="&#x2030;" horiz-adv-x="953" 
d="M492 690h57l-410 -690h-57zM322 127q0 56 40 96t96 40t96.5 -40t40.5 -96q0 -57 -40.5 -97t-96.5 -40t-96 40t-40 97zM375 127q0 -36 24 -60.5t59 -24.5t60 24.5t25 60.5q0 35 -25 59.5t-60 24.5q-34 0 -58.5 -24.5t-24.5 -59.5zM644 127q0 56 40 96t96 40t96.5 -40
t40.5 -96q0 -57 -40.5 -97t-96.5 -40t-96 40t-40 97zM697 127q0 -36 24 -60.5t59 -24.5t60 24.5t25 60.5q0 35 -25 59.5t-60 24.5q-34 0 -58.5 -24.5t-24.5 -59.5zM36 564q0 56 40 96t96 40t96.5 -40t40.5 -96q0 -57 -40.5 -97t-96.5 -40t-96 40t-40 97zM89 564
q0 -36 24 -60.5t59 -24.5t60 24.5t25 60.5q0 35 -25 59.5t-60 24.5q-34 0 -58.5 -24.5t-24.5 -59.5z" />
    <glyph glyph-name="guilsinglleft" unicode="&#x2039;" horiz-adv-x="288" 
d="M213 449l-143 -165v-12l143 -165l-40 -38l-158 195v28l158 195z" />
    <glyph glyph-name="guilsinglright" unicode="&#x203a;" horiz-adv-x="288" 
d="M218 284l-143 165l40 38l158 -195v-28l-158 -195l-40 38l143 165v12z" />
    <glyph glyph-name="fraction" unicode="&#x2044;" horiz-adv-x="80" 
d="M229 690h57l-410 -690h-57z" />
    <glyph glyph-name="uni2070" unicode="&#x2070;" horiz-adv-x="298" 
d="M147 691q55 0 83 -49q23 -41 23 -97q0 -60 -23 -98q-28 -50 -83 -50q-43 0 -78 49q-24 39 -24 99q0 61 24 98q35 48 78 48zM148 645q-24 0 -43 -33q-13 -26 -13 -67q0 -43 13 -69q19 -33 43 -33q29 0 45 33q13 26 13 69q0 38 -13 67q-16 33 -45 33z" />
    <glyph glyph-name="uni2074" unicode="&#x2074;" horiz-adv-x="271" 
d="M198 407h-45v65h-138v34l145 184h38v-176h43v-42h-43v-65zM68 514h85v107z" />
    <glyph glyph-name="uni2075" unicode="&#x2075;" horiz-adv-x="268" 
d="M43 461l42 11q12 -29 43 -29q51 0 51 54q0 16 -11.5 32.5t-33.5 16.5q-33 0 -45 -22l-41 6l18 152h149v-42h-113l-10 -71q17 22 48 22q45 0 64 -30t19 -63q0 -13 -3 -26.5t-11.5 -32t-29 -30.5t-50.5 -12q-37 0 -57.5 19.5t-28.5 44.5z" />
    <glyph glyph-name="uni2076" unicode="&#x2076;" horiz-adv-x="287" 
d="M226 638l-37 -19q-13 27 -44 27q-22 0 -36 -19.5t-17 -36.5t-3 -29q25 31 56 31q40 0 66 -28t26 -69t-27 -69.5t-66 -28.5q-61 0 -86 66q-13 33 -13 81q0 62 27.5 104.5t71.5 42.5q25 0 44 -11t26.5 -21t11.5 -21zM143 549q-19 0 -33 -15.5t-14 -37.5t14 -37.5t33 -15.5
q20 0 34 15.5t14 37.5t-14 37.5t-34 15.5z" />
    <glyph glyph-name="uni2077" unicode="&#x2077;" horiz-adv-x="239" 
d="M120 407h-46v2q0 57 17.5 107t32.5 71.5t40 49.5l5 5v6h-140v42h191v-42q-4 -3 -11 -8.5t-24 -26t-30 -45.5t-24 -68.5t-11 -92.5z" />
    <glyph glyph-name="uni2078" unicode="&#x2078;" horiz-adv-x="289" 
d="M104 609q0 -15 12 -25t29 -10t29 10t12 25t-12 25.5t-29 10.5t-29 -10.5t-12 -25.5zM96 487q0 -19 14.5 -31.5t34.5 -12.5t34.5 12.5t14.5 31.5t-14.5 32t-34.5 13t-34.5 -13t-14.5 -32zM50 480q0 49 49 73q-41 21 -41 63q0 31 25.5 53t61.5 22t61.5 -22t25.5 -53
q0 -42 -42 -64q49 -24 49 -72q0 -34 -28 -58.5t-67 -24.5t-66.5 24.5t-27.5 58.5z" />
    <glyph glyph-name="uni2079" unicode="&#x2079;" horiz-adv-x="287" 
d="M61 450l37 19q13 -27 44 -27q22 0 36 19.5t17 36.5t3 29q-25 -31 -56 -31q-40 0 -66 28t-26 69t27 69.5t66 28.5q61 0 86 -66q13 -33 13 -81q0 -62 -27.5 -104.5t-71.5 -42.5q-25 0 -44 11t-26.5 21t-11.5 21zM144 539q19 0 33 15.5t14 37.5t-14 37.5t-33 15.5
q-20 0 -34 -15.5t-14 -37.5t14 -37.5t34 -15.5z" />
    <glyph glyph-name="uni2080" unicode="&#x2080;" horiz-adv-x="298" 
d="M147 154q55 0 83 -49q23 -41 23 -97q0 -60 -23 -98q-28 -50 -83 -50q-43 0 -78 49q-24 39 -24 99t24 98q35 48 78 48zM148 108q-24 0 -43 -33q-13 -26 -13 -67q0 -43 13 -69q19 -33 43 -33q29 0 45 33q13 26 13 69q0 38 -13 67q-16 33 -45 33z" />
    <glyph glyph-name="uni2081" unicode="&#x2081;" horiz-adv-x="197" 
d="M20 60v40q24 0 47.5 16.5t23.5 36.5h44v-283h-46v217q-3 -2 -13.5 -8.5t-16 -9.5t-16.5 -6t-23 -3z" />
    <glyph glyph-name="uni2082" unicode="&#x2082;" horiz-adv-x="277" 
d="M90 -88h147v-42h-197v30q0 21 28 51.5t70 52.5q49 27 49 59q0 21 -14 35.5t-34 14.5t-33.5 -14.5t-13.5 -35.5h-47q0 40 27.5 68t65.5 28q40 0 68 -28t28 -68q0 -21 -7 -37t-24.5 -30.5t-28.5 -22t-38 -22.5q-17 -10 -28.5 -19.5t-14.5 -14t-3 -5.5z" />
    <glyph glyph-name="uni2083" unicode="&#x2083;" horiz-adv-x="280" 
d="M118 -5v42h17q17 0 29 11t12 25t-12 24.5t-29 10.5t-29.5 -10.5t-12.5 -24.5h-46q0 38 26.5 59.5t62.5 21.5q35 0 60.5 -22.5t25.5 -54.5q0 -37 -42 -61q50 -27 50 -70q0 -36 -28 -61t-68 -25q-39 0 -66.5 25.5t-27.5 64.5h46q0 -17 14.5 -30.5t34.5 -13.5t34.5 13.5
t14.5 30.5q0 18 -14.5 31.5t-34.5 13.5h-17z" />
    <glyph glyph-name="uni2084" unicode="&#x2084;" horiz-adv-x="271" 
d="M198 -130h-45v65h-138v34l145 184h38v-176h43v-42h-43v-65zM68 -23h85v107z" />
    <glyph glyph-name="uni2085" unicode="&#x2085;" horiz-adv-x="268" 
d="M43 -76l42 11q12 -29 43 -29q51 0 51 54q0 16 -11.5 32.5t-33.5 16.5q-33 0 -45 -22l-41 6l18 152h149v-42h-113l-10 -71q17 22 48 22q45 0 64 -30t19 -63q0 -13 -3 -26.5t-11.5 -32t-29 -30.5t-50.5 -12q-37 0 -57.5 19.5t-28.5 44.5z" />
    <glyph glyph-name="uni2086" unicode="&#x2086;" horiz-adv-x="287" 
d="M226 101l-37 -19q-13 27 -44 27q-22 0 -36 -19.5t-17 -36.5t-3 -29q25 31 56 31q40 0 66 -28t26 -69t-27 -69.5t-66 -28.5q-61 0 -86 66q-13 33 -13 81q0 62 27.5 104.5t71.5 42.5q25 0 44 -11t26.5 -21t11.5 -21zM143 12q-19 0 -33 -15.5t-14 -37.5t14 -37.5t33 -15.5
q20 0 34 15.5t14 37.5t-14 37.5t-34 15.5z" />
    <glyph glyph-name="uni2087" unicode="&#x2087;" horiz-adv-x="239" 
d="M120 -130h-46v2q0 57 17.5 107t32.5 71.5t40 49.5l5 5v6h-140v42h191v-42q-4 -3 -11 -8.5t-24 -26t-30 -45.5t-24 -68.5t-11 -92.5z" />
    <glyph glyph-name="uni2088" unicode="&#x2088;" horiz-adv-x="289" 
d="M104 72q0 -15 12 -25t29 -10t29 10t12 25t-12 25.5t-29 10.5t-29 -10.5t-12 -25.5zM96 -50q0 -19 14.5 -31.5t34.5 -12.5t34.5 12.5t14.5 31.5t-14.5 32t-34.5 13t-34.5 -13t-14.5 -32zM50 -57q0 49 49 73q-41 21 -41 63q0 31 25.5 53t61.5 22t61.5 -22t25.5 -53
q0 -42 -42 -64q49 -24 49 -72q0 -34 -28 -58.5t-67 -24.5t-66.5 24.5t-27.5 58.5z" />
    <glyph glyph-name="uni2089" unicode="&#x2089;" horiz-adv-x="287" 
d="M61 -87l37 19q13 -27 44 -27q22 0 36 19.5t17 36.5t3 29q-25 -31 -56 -31q-40 0 -66 28t-26 69t27 69.5t66 28.5q61 0 86 -66q13 -33 13 -81q0 -62 -27.5 -104.5t-71.5 -42.5q-25 0 -44 11t-26.5 21t-11.5 21zM144 2q19 0 33 15.5t14 37.5t-14 37.5t-33 15.5
q-20 0 -34 -15.5t-14 -37.5t14 -37.5t34 -15.5z" />
    <glyph glyph-name="Euro" unicode="&#x20ac;" horiz-adv-x="598" 
d="M68 370h60q21 94 83 152t141 60q50 0 90.5 -21t55.5 -41l16 -21l-19 -59q-19 28 -30.5 42t-42 29t-70.5 15q-62 0 -104.5 -42t-58.5 -114h284l-16 -50h-276q-1 -12 -1 -35q0 -20 1 -30h255l-16 -51h-232q16 -72 59 -114t105 -42q52 0 85 22.5t65 77.5l41 -41
q-9 -14 -20.5 -28t-35.5 -36.5t-59.5 -36.5t-75.5 -14q-80 0 -142 58t-83 154h-75l16 51h52q-1 10 -1 32t1 33h-68z" />
    <glyph glyph-name="uni2117" unicode="&#x2117;" horiz-adv-x="544" 
d="M323 330h-79v-117h-45v273h124q33 0 56.5 -23t23.5 -55t-23.5 -55t-56.5 -23zM244 444v-73h71q19 0 31 10.5t12 25.5q0 16 -12 26.5t-31 10.5h-71zM45 344q0 99 70 169.5t169 70.5t169.5 -70.5t70.5 -169.5t-70.5 -169t-169.5 -70t-169 70t-70 169zM89 344
q0 -80 57.5 -137.5t137.5 -57.5t138 57.5t58 137.5t-58 138t-138 58t-137.5 -58t-57.5 -138z" />
    <glyph glyph-name="trademark" unicode="&#x2122;" horiz-adv-x="608" 
d="M251 690v-43h-113v-303h-46v303h-112v43h271zM600 344h-46v279q-13 -45 -34 -99.5t-34 -101.5h-61l-68 201v-279h-46v346h64l81 -236q13 47 40.5 119t40.5 117h63v-346z" />
    <glyph glyph-name="Omega" unicode="&#x2126;" horiz-adv-x="622" 
d="M186 54v9q-136 128 -136 309q0 147 74 236.5t190 89.5q117 0 187.5 -93.5t70.5 -229.5q0 -101 -40.5 -182t-96.5 -130v-9h132v-54h-217v48q66 48 113.5 124.5t47.5 181.5q0 68 -20 131t-67 108.5t-112 45.5q-93 0 -147 -82t-54 -205q0 -99 49 -179t112 -125v-48h-217v54
h131z" />
    <glyph glyph-name="onethird" unicode="&#x2153;" horiz-adv-x="640" 
d="M102 597v40q24 0 47.5 16.5t23.5 36.5h44v-283h-46v217q-3 -2 -13.5 -8.5t-16 -9.5t-16.5 -6t-23 -3zM478 131v42h17q17 0 29 11t12 25t-12 24.5t-29 10.5t-29.5 -10.5t-12.5 -24.5h-46q0 38 26.5 59.5t62.5 21.5q35 0 60.5 -22.5t25.5 -54.5q0 -37 -42 -61
q50 -27 50 -70q0 -36 -28 -61t-68 -25q-39 0 -66.5 25.5t-27.5 64.5h46q0 -17 14.5 -30.5t34.5 -13.5t34.5 13.5t14.5 30.5q0 18 -14.5 31.5t-34.5 13.5h-17zM501 690h57l-410 -690h-57z" />
    <glyph glyph-name="twothirds" unicode="&#x2154;" horiz-adv-x="640" 
d="M487 131v42h17q17 0 29 11t12 25t-12 24.5t-29 10.5t-29.5 -10.5t-12.5 -24.5h-46q0 38 26.5 59.5t62.5 21.5q35 0 60.5 -22.5t25.5 -54.5q0 -37 -42 -61q50 -27 50 -70q0 -36 -28 -61t-68 -25q-39 0 -66.5 25.5t-27.5 64.5h46q0 -17 14.5 -30.5t34.5 -13.5t34.5 13.5
t14.5 30.5q0 18 -14.5 31.5t-34.5 13.5h-17zM133 451h147v-42h-197v30q0 21 28 51.5t70 52.5q49 27 49 59q0 21 -14 35.5t-34 14.5t-33.5 -14.5t-13.5 -35.5h-47q0 40 27.5 68t65.5 28q40 0 68 -28t28 -68q0 -21 -7 -37t-24.5 -30.5t-28.5 -22t-38 -22.5
q-17 -10 -28.5 -19.5t-14.5 -14t-3 -5.5zM523 690h57l-410 -690h-57z" />
    <glyph glyph-name="uni2155" unicode="&#x2155;" horiz-adv-x="640" 
d="M102 597v40q24 0 47.5 16.5t23.5 36.5h44v-283h-46v217q-3 -2 -13.5 -8.5t-16 -9.5t-16.5 -6t-23 -3zM501 690h57l-410 -690h-57zM410 60l42 11q12 -29 43 -29q51 0 51 54q0 16 -11.5 32.5t-33.5 16.5q-33 0 -45 -22l-41 6l18 152h149v-42h-113l-10 -71q17 22 48 22
q45 0 64 -30t19 -63q0 -13 -3 -26.5t-11.5 -32t-29 -30.5t-50.5 -12q-37 0 -57.5 19.5t-28.5 44.5z" />
    <glyph glyph-name="uni2156" unicode="&#x2156;" horiz-adv-x="640" 
d="M133 451h147v-42h-197v30q0 21 28 51.5t70 52.5q49 27 49 59q0 21 -14 35.5t-34 14.5t-33.5 -14.5t-13.5 -35.5h-47q0 40 27.5 68t65.5 28q40 0 68 -28t28 -68q0 -21 -7 -37t-24.5 -30.5t-28.5 -22t-38 -22.5q-17 -10 -28.5 -19.5t-14.5 -14t-3 -5.5zM523 690h57
l-410 -690h-57zM419 60l42 11q12 -29 43 -29q51 0 51 54q0 16 -11.5 32.5t-33.5 16.5q-33 0 -45 -22l-41 6l18 152h149v-42h-113l-10 -71q17 22 48 22q45 0 64 -30t19 -63q0 -13 -3 -26.5t-11.5 -32t-29 -30.5t-50.5 -12q-37 0 -57.5 19.5t-28.5 44.5z" />
    <glyph glyph-name="uni2157" unicode="&#x2157;" horiz-adv-x="640" 
d="M163 539v42h17q17 0 29 11t12 25t-12 24.5t-29 10.5t-29.5 -10.5t-12.5 -24.5h-46q0 38 26.5 59.5t62.5 21.5q35 0 60.5 -22.5t25.5 -54.5q0 -37 -42 -61q50 -27 50 -70q0 -36 -28 -61t-68 -25q-39 0 -66.5 25.5t-27.5 64.5h46q0 -17 14.5 -30.5t34.5 -13.5t34.5 13.5
t14.5 30.5q0 18 -14.5 31.5t-34.5 13.5h-17zM501 690h57l-410 -690h-57zM409 60l42 11q12 -29 43 -29q51 0 51 54q0 16 -11.5 32.5t-33.5 16.5q-33 0 -45 -22l-41 6l18 152h149v-42h-113l-10 -71q17 22 48 22q45 0 64 -30t19 -63q0 -13 -3 -26.5t-11.5 -32t-29 -30.5
t-50.5 -12q-37 0 -57.5 19.5t-28.5 44.5z" />
    <glyph glyph-name="uni2158" unicode="&#x2158;" horiz-adv-x="640" 
d="M501 690h57l-410 -690h-57zM220 407h-45v65h-138v34l145 184h38v-176h43v-42h-43v-65zM90 514h85v107zM409 60l42 11q12 -29 43 -29q51 0 51 54q0 16 -11.5 32.5t-33.5 16.5q-33 0 -45 -22l-41 6l18 152h149v-42h-113l-10 -71q17 22 48 22q45 0 64 -30t19 -63
q0 -13 -3 -26.5t-11.5 -32t-29 -30.5t-50.5 -12q-37 0 -57.5 19.5t-28.5 44.5z" />
    <glyph glyph-name="uni2159" unicode="&#x2159;" horiz-adv-x="640" 
d="M102 597v40q24 0 47.5 16.5t23.5 36.5h44v-283h-46v217q-3 -2 -13.5 -8.5t-16 -9.5t-16.5 -6t-23 -3zM501 690h57l-410 -690h-57zM578 237l-37 -19q-13 27 -44 27q-22 0 -36 -19.5t-17 -36.5t-3 -29q25 31 56 31q40 0 66 -28t26 -69t-27 -69.5t-66 -28.5q-61 0 -86 66
q-13 33 -13 81q0 62 27.5 104.5t71.5 42.5q25 0 44 -11t26.5 -21t11.5 -21zM495 148q-19 0 -33 -15.5t-14 -37.5t14 -37.5t33 -15.5q20 0 34 15.5t14 37.5t-14 37.5t-34 15.5z" />
    <glyph glyph-name="uni215A" unicode="&#x215a;" horiz-adv-x="640" 
d="M501 690h57l-410 -690h-57zM87 469l42 11q12 -29 43 -29q51 0 51 54q0 16 -11.5 32.5t-33.5 16.5q-33 0 -45 -22l-41 6l18 152h149v-42h-113l-10 -71q17 22 48 22q45 0 64 -30t19 -63q0 -13 -3 -26.5t-11.5 -32t-29 -30.5t-50.5 -12q-37 0 -57.5 19.5t-28.5 44.5z
M578 237l-37 -19q-13 27 -44 27q-22 0 -36 -19.5t-17 -36.5t-3 -29q25 31 56 31q40 0 66 -28t26 -69t-27 -69.5t-66 -28.5q-61 0 -86 66q-13 33 -13 81q0 62 27.5 104.5t71.5 42.5q25 0 44 -11t26.5 -21t11.5 -21zM495 148q-19 0 -33 -15.5t-14 -37.5t14 -37.5t33 -15.5
q20 0 34 15.5t14 37.5t-14 37.5t-34 15.5z" />
    <glyph glyph-name="oneeighth" unicode="&#x215b;" horiz-adv-x="640" 
d="M449 208q0 -15 12 -25t29 -10t29 10t12 25t-12 25.5t-29 10.5t-29 -10.5t-12 -25.5zM441 86q0 -19 14.5 -31.5t34.5 -12.5t34.5 12.5t14.5 31.5t-14.5 32t-34.5 13t-34.5 -13t-14.5 -32zM395 79q0 49 49 73q-41 21 -41 63q0 31 25.5 53t61.5 22t61.5 -22t25.5 -53
q0 -42 -42 -64q49 -24 49 -72q0 -34 -28 -58.5t-67 -24.5t-66.5 24.5t-27.5 58.5zM87 597v40q24 0 47.5 16.5t23.5 36.5h44v-283h-46v217q-3 -2 -13.5 -8.5t-16 -9.5t-16.5 -6t-23 -3zM501 690h57l-410 -690h-57z" />
    <glyph glyph-name="threeeighths" unicode="&#x215c;" horiz-adv-x="640" 
d="M163 539v42h17q17 0 29 11t12 25t-12 24.5t-29 10.5t-29.5 -10.5t-12.5 -24.5h-46q0 38 26.5 59.5t62.5 21.5q35 0 60.5 -22.5t25.5 -54.5q0 -37 -42 -61q50 -27 50 -70q0 -36 -28 -61t-68 -25q-39 0 -66.5 25.5t-27.5 64.5h46q0 -17 14.5 -30.5t34.5 -13.5t34.5 13.5
t14.5 30.5q0 18 -14.5 31.5t-34.5 13.5h-17zM455 208q0 -15 12 -25t29 -10t29 10t12 25t-12 25.5t-29 10.5t-29 -10.5t-12 -25.5zM447 86q0 -19 14.5 -31.5t34.5 -12.5t34.5 12.5t14.5 31.5t-14.5 32t-34.5 13t-34.5 -13t-14.5 -32zM401 79q0 49 49 73q-41 21 -41 63
q0 31 25.5 53t61.5 22t61.5 -22t25.5 -53q0 -42 -42 -64q49 -24 49 -72q0 -34 -28 -58.5t-67 -24.5t-66.5 24.5t-27.5 58.5zM501 690h57l-410 -690h-57z" />
    <glyph glyph-name="fiveeighths" unicode="&#x215d;" horiz-adv-x="640" 
d="M455 208q0 -15 12 -25t29 -10t29 10t12 25t-12 25.5t-29 10.5t-29 -10.5t-12 -25.5zM447 86q0 -19 14.5 -31.5t34.5 -12.5t34.5 12.5t14.5 31.5t-14.5 32t-34.5 13t-34.5 -13t-14.5 -32zM401 79q0 49 49 73q-41 21 -41 63q0 31 25.5 53t61.5 22t61.5 -22t25.5 -53
q0 -42 -42 -64q49 -24 49 -72q0 -34 -28 -58.5t-67 -24.5t-66.5 24.5t-27.5 58.5zM501 690h57l-410 -690h-57zM87 469l42 11q12 -29 43 -29q51 0 51 54q0 16 -11.5 32.5t-33.5 16.5q-33 0 -45 -22l-41 6l18 152h149v-42h-113l-10 -71q17 22 48 22q45 0 64 -30t19 -63
q0 -13 -3 -26.5t-11.5 -32t-29 -30.5t-50.5 -12q-37 0 -57.5 19.5t-28.5 44.5z" />
    <glyph glyph-name="seveneighths" unicode="&#x215e;" horiz-adv-x="640" 
d="M464 208q0 -15 12 -25t29 -10t29 10t12 25t-12 25.5t-29 10.5t-29 -10.5t-12 -25.5zM456 86q0 -19 14.5 -31.5t34.5 -12.5t34.5 12.5t14.5 31.5t-14.5 32t-34.5 13t-34.5 -13t-14.5 -32zM410 79q0 49 49 73q-41 21 -41 63q0 31 25.5 53t61.5 22t61.5 -22t25.5 -53
q0 -42 -42 -64q49 -24 49 -72q0 -34 -28 -58.5t-67 -24.5t-66.5 24.5t-27.5 58.5zM202 407h-46v2q0 57 17.5 107t32.5 71.5t40 49.5l5 5v6h-140v42h191v-42q-4 -3 -11 -8.5t-24 -26t-30 -45.5t-24 -68.5t-11 -92.5zM501 690h57l-410 -690h-57z" />
    <glyph glyph-name="arrowleft" unicode="&#x2190;" horiz-adv-x="603" 
d="M282 489l-125 -144h354v-54h-354l125 -144l-40 -38l-158 195v28l158 195z" />
    <glyph glyph-name="arrowup" unicode="&#x2191;" horiz-adv-x="602" 
d="M472 333l-144 125v-354h-54v354l-144 -125l-38 40l195 158h28l195 -158z" />
    <glyph glyph-name="arrowright" unicode="&#x2192;" horiz-adv-x="603" 
d="M446 345l-125 144l40 38l158 -195v-28l-158 -195l-40 38l125 144h-354v54h354z" />
    <glyph glyph-name="arrowdown" unicode="&#x2193;" horiz-adv-x="602" 
d="M328 177l144 125l38 -40l-195 -158h-28l-195 158l38 40l144 -125v354h54v-354z" />
    <glyph glyph-name="uni2196" unicode="&#x2196;" horiz-adv-x="549" 
d="M418 442l-191 6l224 -274l-42 -34l-224 274l-32 -187l-55 7l51 245l22 18h251z" />
    <glyph glyph-name="uni2197" unicode="&#x2197;" horiz-adv-x="549" 
d="M322 448l-191 -6l-4 55h251l22 -18l51 -245l-55 -7l-32 187l-224 -274l-42 34z" />
    <glyph glyph-name="uni2198" unicode="&#x2198;" horiz-adv-x="549" 
d="M131 195l191 -6l-224 274l42 34l224 -274l32 187l55 -7l-51 -245l-22 -18h-251z" />
    <glyph glyph-name="uni2199" unicode="&#x2199;" horiz-adv-x="549" 
d="M227 189l191 6l4 -55h-251l-22 18l-51 245l55 7l32 -187l224 274l42 -34z" />
    <glyph glyph-name="partialdiff" unicode="&#x2202;" horiz-adv-x="604" 
d="M477 333h9q10 80 10 108q0 65 -15 116t-36 78t-46 45t-41 23t-25 5v60q12 0 34 -6.5t56.5 -28t63 -54.5t49.5 -94.5t21 -139.5q0 -83 -19 -162t-55 -145t-95.5 -106t-132.5 -40q-81 0 -141.5 62t-60.5 151q0 57 27.5 114.5t85.5 99.5t132 42q57 0 105 -35t74 -93zM258 48
q80 0 130.5 63t50.5 134q0 66 -43.5 111.5t-100.5 45.5q-80 0 -130.5 -63t-50.5 -134q0 -66 43.5 -111.5t100.5 -45.5z" />
    <glyph glyph-name="Delta" unicode="&#x2206;" horiz-adv-x="544" 
d="M301 690l213 -636v-54h-484v54l213 636h58zM454 54l-182 548l-182 -548h364z" />
    <glyph glyph-name="product" unicode="&#x220f;" horiz-adv-x="652" 
d="M533 -48h-60v688h-291v-688h-60v688h-106v54h620v-54h-103v-688z" />
    <glyph glyph-name="summation" unicode="&#x2211;" horiz-adv-x="565" 
d="M36 639v51h484v-54h-394v-5l293 -286l-293 -286v-5h394v-54h-484v51l294 279v29z" />
    <glyph glyph-name="minus" unicode="&#x2212;" horiz-adv-x="498" 
d="M45 264v54h408v-54h-408z" />
    <glyph glyph-name="uni2215" unicode="&#x2215;" horiz-adv-x="80" 
d="M229 690h57l-410 -690h-57z" />
    <glyph glyph-name="uni2219" unicode="&#x2219;" horiz-adv-x="283" 
d="M90 335q0 21 15 36.5t36 15.5t36.5 -15.5t15.5 -36.5t-15.5 -36t-36.5 -15t-36 15t-15 36z" />
    <glyph glyph-name="radical" unicode="&#x221a;" horiz-adv-x="527" 
d="M666 786h-151l-261 -794h-55l-166 506h59l134 -413l248 755h192v-54z" />
    <glyph glyph-name="infinity" unicode="&#x221e;" horiz-adv-x="642" 
d="M594 275q0 -54 -37.5 -88t-88.5 -34q-37 0 -67.5 20t-78.5 69q-30 -31 -45 -45t-44.5 -29t-61.5 -15q-51 0 -87 34.5t-36 84.5q0 52 36.5 87t91.5 35q42 0 75.5 -23.5t73.5 -67.5q31 33 47.5 48.5t44 29t57.5 13.5q54 0 87 -33t33 -86zM175 209q44 0 106 57v12
q-62 60 -103 60q-29 0 -49 -19t-20 -47q0 -26 19.5 -44.5t46.5 -18.5zM533 274q0 28 -17 46t-46 18q-43 0 -104 -59v-10q60 -60 100 -60q27 0 47 18.5t20 46.5z" />
    <glyph glyph-name="integral" unicode="&#x222b;" horiz-adv-x="293" 
d="M36 -158v54h20q25 0 43 18t18 43v777q0 44 32 75t74 31h34v-54h-21q-25 0 -42.5 -17.5t-17.5 -42.5v-778q0 -43 -32 -74.5t-74 -31.5h-34z" />
    <glyph glyph-name="approxequal" unicode="&#x2248;" horiz-adv-x="525" 
d="M94 284l-44 38q76 83 138 83q41 0 89 -29q34 -27 56 -30h-1q47 0 99 60l44 -38q-76 -83 -138 -83q-41 0 -89 29q-34 27 -56 30h1q-47 0 -99 -60zM94 141l-44 38q76 83 138 83q41 0 89 -29q34 -27 56 -30h-1q47 0 99 60l44 -38q-76 -83 -138 -83q-41 0 -89 29
q-34 27 -56 30h1q-47 0 -99 -60z" />
    <glyph glyph-name="notequal" unicode="&#x2260;" horiz-adv-x="496" 
d="M375 480l-51 -107h122v-54h-147l-45 -96h192v-54h-218l-61 -130l-46 24l50 106h-121v54h146l46 96h-192v54h217l63 131z" />
    <glyph glyph-name="lessequal" unicode="&#x2264;" horiz-adv-x="494" 
d="M420 135l-38 -39l-324 324l324 324l38 -39l-280 -271v-29zM35 -54v54h408v-54h-408z" />
    <glyph glyph-name="greaterequal" unicode="&#x2265;" horiz-adv-x="494" 
d="M112 96l-38 39l280 270v29l-280 271l38 39l324 -324zM51 -54v54h408v-54h-408z" />
    <glyph glyph-name="dotmath" unicode="&#x22c5;" horiz-adv-x="283" 
d="M90 335q0 21 15 36.5t36 15.5t36.5 -15.5t15.5 -36.5t-15.5 -36t-36.5 -15t-36 15t-15 36z" />
    <glyph glyph-name="uni25AF" unicode="&#x25af;" 
d="M77 0v690h414v-690h-414zM131 54h306v582h-306v-582z" />
    <glyph glyph-name="lozenge" unicode="&#x25ca;" 
d="M42 325v40l213 373h58l213 -373v-40l-213 -373h-58zM103 336l182 -326l180 326v18l-180 326l-182 -326v-18z" />
    <glyph glyph-name="fi" unicode="&#xfb01;" horiz-adv-x="594" 
d="M140 507v57q0 62 43.5 106t105.5 44q48 0 97 -20l-22 -53q-32 17 -74 17q-38 0 -64.5 -26.5t-26.5 -64.5v-60h158v-54h-158v-453h-59v453h-120v54h120zM458 0v507h59v-507h-59zM443 642q0 18 13 31.5t32 13.5q18 0 31.5 -13.5t13.5 -31.5q0 -19 -13.5 -32t-31.5 -13
q-19 0 -32 13t-13 32z" />
    <glyph glyph-name="fl" unicode="&#xfb02;" horiz-adv-x="595" 
d="M458 0v696h59v-696h-59zM140 507v57q0 62 43.5 106t105.5 44q48 0 97 -20l-22 -53q-32 17 -74 17q-38 0 -64.5 -26.5t-26.5 -64.5v-60h158v-54h-158v-453h-59v453h-120v54h120z" />
    <glyph glyph-name="i.latn_TRK" horiz-adv-x="212" 
d="M77 0v507h59v-507h-59zM61 642q0 18 13 31.5t32 13.5q18 0 31.5 -13.5t13.5 -31.5q0 -19 -13.5 -32t-31.5 -13q-19 0 -32 13t-13 32z" />
    <glyph glyph-name="Ldot.latn_CAT" horiz-adv-x="535" 
d="M145 690v-633h375v-57h-436v690h61zM297 335q0 21 15 36.5t36 15.5t36.5 -15.5t15.5 -36.5t-15.5 -36t-36.5 -15t-36 15t-15 36z" />
    <glyph glyph-name="ldot.latn_CAT" horiz-adv-x="340" 
d="M78 0v696h59v-696h-59zM227 335q0 21 15 36.5t36 15.5t36.5 -15.5t15.5 -36.5t-15.5 -36t-36.5 -15t-36 15t-15 36z" />
    <glyph glyph-name="zero.numr" horiz-adv-x="298" 
d="M147 691q55 0 83 -49q23 -41 23 -97q0 -60 -23 -98q-28 -50 -83 -50q-43 0 -78 49q-24 39 -24 99q0 61 24 98q35 48 78 48zM148 645q-24 0 -43 -33q-13 -26 -13 -67q0 -43 13 -69q19 -33 43 -33q29 0 45 33q13 26 13 69q0 38 -13 67q-16 33 -45 33z" />
    <glyph glyph-name="one.numr" horiz-adv-x="197" 
d="M20 597v40q24 0 47.5 16.5t23.5 36.5h44v-283h-46v217q-3 -2 -13.5 -8.5t-16 -9.5t-16.5 -6t-23 -3z" />
    <glyph glyph-name="two.numr" horiz-adv-x="277" 
d="M90 449h147v-42h-197v30q0 21 28 51.5t70 52.5q49 27 49 59q0 21 -14 35.5t-34 14.5t-33.5 -14.5t-13.5 -35.5h-47q0 40 27.5 68t65.5 28q40 0 68 -28t28 -68q0 -21 -7 -37t-24.5 -30.5t-28.5 -22t-38 -22.5q-17 -10 -28.5 -19.5t-14.5 -14t-3 -5.5z" />
    <glyph glyph-name="three.numr" horiz-adv-x="280" 
d="M118 532v42h17q17 0 29 11t12 25t-12 24.5t-29 10.5t-29.5 -10.5t-12.5 -24.5h-46q0 38 26.5 59.5t62.5 21.5q35 0 60.5 -22.5t25.5 -54.5q0 -23 -10.5 -36t-31.5 -25q50 -27 50 -70q0 -36 -28 -61t-68 -25q-39 0 -66.5 25.5t-27.5 64.5h46q0 -17 14.5 -30.5t34.5 -13.5
t34.5 13.5t14.5 30.5q0 18 -14.5 31.5t-34.5 13.5h-17z" />
    <glyph glyph-name="four.numr" horiz-adv-x="271" 
d="M198 407h-45v65h-138v34l145 184h38v-176h43v-42h-43v-65zM68 514h85v107z" />
    <glyph glyph-name="five.numr" horiz-adv-x="268" 
d="M43 461l42 11q12 -29 43 -29q51 0 51 54q0 16 -11.5 32.5t-33.5 16.5q-33 0 -45 -22l-41 6l18 152h149v-42h-113l-10 -71q17 22 48 22q45 0 64 -30t19 -63q0 -13 -3 -26.5t-11.5 -32t-29 -30.5t-50.5 -12q-37 0 -57.5 19.5t-28.5 44.5z" />
    <glyph glyph-name="six.numr" horiz-adv-x="287" 
d="M226 638l-37 -19q-13 27 -44 27q-22 0 -36 -19.5t-17 -36.5t-3 -29q25 31 56 31q40 0 66 -28t26 -69t-27 -69.5t-66 -28.5q-61 0 -86 66q-13 33 -13 81q0 62 27.5 104.5t71.5 42.5q25 0 44 -11t26.5 -21t11.5 -21zM143 549q-19 0 -33 -15.5t-14 -37.5t14 -37.5t33 -15.5
q20 0 34 15.5t14 37.5t-14 37.5t-34 15.5z" />
    <glyph glyph-name="seven.numr" horiz-adv-x="239" 
d="M120 407h-46v2q0 57 17.5 107t32.5 71.5t40 49.5l5 5v6h-140v42h191v-42q-4 -3 -11 -8.5t-24 -26t-30 -45.5t-24 -68.5t-11 -92.5z" />
    <glyph glyph-name="eight.numr" horiz-adv-x="289" 
d="M104 609q0 -15 12 -25t29 -10t29 10t12 25t-12 25.5t-29 10.5t-29 -10.5t-12 -25.5zM96 487q0 -19 14.5 -31.5t34.5 -12.5t34.5 12.5t14.5 31.5t-14.5 32t-34.5 13t-34.5 -13t-14.5 -32zM50 480q0 49 49 73q-41 21 -41 63q0 31 25.5 53t61.5 22t61.5 -22t25.5 -53
q0 -42 -42 -64q49 -24 49 -72q0 -34 -28 -58.5t-67 -24.5t-66.5 24.5t-27.5 58.5z" />
    <glyph glyph-name="nine.numr" horiz-adv-x="287" 
d="M61 450l37 19q13 -27 44 -27q22 0 36 19.5t17 36.5t3 29q-25 -31 -56 -31q-40 0 -66 28t-26 69t27 69.5t66 28.5q61 0 86 -66q13 -33 13 -81q0 -62 -27.5 -104.5t-71.5 -42.5q-25 0 -44 11t-26.5 21t-11.5 21zM144 539q19 0 33 15.5t14 37.5t-14 37.5t-33 15.5
q-20 0 -34 -15.5t-14 -37.5t14 -37.5t34 -15.5z" />
    <glyph glyph-name="zero.dnom" horiz-adv-x="298" 
d="M147 284q55 0 83 -49q23 -41 23 -97q0 -60 -23 -98q-28 -50 -83 -50q-43 0 -78 49q-24 39 -24 99t24 98q35 48 78 48zM148 238q-24 0 -43 -33q-13 -26 -13 -67q0 -43 13 -69q19 -33 43 -33q29 0 45 33q13 26 13 69q0 38 -13 67q-16 33 -45 33z" />
    <glyph glyph-name="one.dnom" horiz-adv-x="197" 
d="M20 190v40q24 0 47.5 16.5t23.5 36.5h44v-283h-46v217q-3 -2 -13.5 -8.5t-16 -9.5t-16.5 -6t-23 -3z" />
    <glyph glyph-name="two.dnom" horiz-adv-x="277" 
d="M90 42h147v-42h-197v30q0 21 28 51.5t70 52.5q49 27 49 59q0 21 -14 35.5t-34 14.5t-33.5 -14.5t-13.5 -35.5h-47q0 40 27.5 68t65.5 28q40 0 68 -28t28 -68q0 -21 -7 -37t-24.5 -30.5t-28.5 -22t-38 -22.5q-17 -10 -28.5 -19.5t-14.5 -14t-3 -5.5z" />
    <glyph glyph-name="three.dnom" horiz-adv-x="280" 
d="M118 125v42h17q17 0 29 11t12 25t-12 24.5t-29 10.5t-29.5 -10.5t-12.5 -24.5h-46q0 38 26.5 59.5t62.5 21.5q35 0 60.5 -22.5t25.5 -54.5q0 -37 -42 -61q50 -27 50 -70q0 -36 -28 -61t-68 -25q-39 0 -66.5 25.5t-27.5 64.5h46q0 -17 14.5 -30.5t34.5 -13.5t34.5 13.5
t14.5 30.5q0 18 -14.5 31.5t-34.5 13.5h-17z" />
    <glyph glyph-name="four.dnom" horiz-adv-x="271" 
d="M198 0h-45v65h-138v34l145 184h38v-176h43v-42h-43v-65zM68 107h85v107z" />
    <glyph glyph-name="five.dnom" horiz-adv-x="268" 
d="M43 54l42 11q12 -29 43 -29q51 0 51 54q0 16 -11.5 32.5t-33.5 16.5q-33 0 -45 -22l-41 6l18 152h149v-42h-113l-10 -71q17 22 48 22q45 0 64 -30t19 -63q0 -13 -3 -26.5t-11.5 -32t-29 -30.5t-50.5 -12q-37 0 -57.5 19.5t-28.5 44.5z" />
    <glyph glyph-name="six.dnom" horiz-adv-x="287" 
d="M226 231l-37 -19q-13 27 -44 27q-22 0 -36 -19.5t-17 -36.5t-3 -29q25 31 56 31q40 0 66 -28t26 -69t-27 -69.5t-66 -28.5q-61 0 -86 66q-13 33 -13 81q0 62 27.5 104.5t71.5 42.5q25 0 44 -11t26.5 -21t11.5 -21zM143 142q-19 0 -33 -15.5t-14 -37.5t14 -37.5t33 -15.5
q20 0 34 15.5t14 37.5t-14 37.5t-34 15.5z" />
    <glyph glyph-name="seven.dnom" horiz-adv-x="239" 
d="M120 0h-46v2q0 57 17.5 107t32.5 71.5t40 49.5l5 5v6h-140v42h191v-42q-4 -3 -11 -8.5t-24 -26t-30 -45.5t-24 -68.5t-11 -92.5z" />
    <glyph glyph-name="eight.dnom" horiz-adv-x="289" 
d="M104 202q0 -15 12 -25t29 -10t29 10t12 25t-12 25.5t-29 10.5t-29 -10.5t-12 -25.5zM96 80q0 -19 14.5 -31.5t34.5 -12.5t34.5 12.5t14.5 31.5t-14.5 32t-34.5 13t-34.5 -13t-14.5 -32zM50 73q0 49 49 73q-41 21 -41 63q0 31 25.5 53t61.5 22t61.5 -22t25.5 -53
q0 -42 -42 -64q49 -24 49 -72q0 -34 -28 -58.5t-67 -24.5t-66.5 24.5t-27.5 58.5z" />
    <glyph glyph-name="nine.dnom" horiz-adv-x="287" 
d="M61 43l37 19q13 -27 44 -27q22 0 36 19.5t17 36.5t3 29q-25 -31 -56 -31q-40 0 -66 28t-26 69t27 69.5t66 28.5q61 0 86 -66q13 -33 13 -81q0 -62 -27.5 -104.5t-71.5 -42.5q-25 0 -44 11t-26.5 21t-11.5 21zM144 132q19 0 33 15.5t14 37.5t-14 37.5t-33 15.5
q-20 0 -34 -15.5t-14 -37.5t14 -37.5t34 -15.5z" />
    <glyph glyph-name="space.frac" horiz-adv-x="43" 
 />
    <glyph glyph-name="numbersign.lf" horiz-adv-x="738" 
d="M244 10h-52l24 176h-146l7 54h146l26 190h-148l7 54h148l24 174h52l-24 -174h160l24 174h52l-24 -174h148l-7 -54h-148l-26 -190h150l-7 -54h-150l-24 -176h-52l24 176h-160zM301 430l-26 -190h160l26 190h-160z" />
    <glyph glyph-name="dollar.lf" horiz-adv-x="634" 
d="M287 -107v110q-81 11 -139 55q-79 60 -104 163h62q26 -85 83 -126q54 -39 142 -39q95 0 143 34q53 39 53 114q0 35 -28 61q-38 37 -108 46l-163 22q-71 10 -117 53q-47 47 -47 112q0 82 76 132q63 43 147 46v105h56v-107q74 -8 123 -40q65 -44 99 -141h-64q-28 67 -75 97
q-44 29 -126 29q-66 0 -119 -31q-57 -41 -57 -95q0 -39 29 -66q31 -30 80 -36l164 -20q100 -13 152 -71q39 -42 39 -99q0 -98 -70 -151q-64 -48 -175 -50v-107h-56z" />
    <glyph glyph-name="plus.lf" horiz-adv-x="525" 
d="M45 319v54h188v190h59v-190h188v-54h-188v-192h-59v192h-188z" />
    <glyph glyph-name="zero.lf" horiz-adv-x="585" 
d="M293 642q-75 0 -122 -87q-43 -80 -43 -208q0 -130 43 -211q46 -88 122 -88q75 0 121 88q43 81 43 211q0 128 -43 208q-47 87 -121 87zM294 698q100 0 164 -103q60 -94 60 -248q0 -155 -60 -252q-63 -103 -164 -103q-104 0 -167 103q-60 97 -60 252q0 153 60 248
q64 103 167 103z" />
    <glyph glyph-name="one.lf" horiz-adv-x="345" 
d="M190 0v583h-7q-31 -32 -74 -54t-87 -22v55q62 0 115 39.5t53 88.5h59v-690h-59z" />
    <glyph glyph-name="two.lf" horiz-adv-x="534" 
d="M110 497h-61v9q0 21 11 50.5t33 62.5t64 56t96 23q64 0 114 -35t72 -77.5t22 -79.5v-2q0 -31 -6 -57t-23 -59t-55 -63t-95 -55q-76 -33 -117 -75t-53 -105v-36h375v-54h-445v6q0 120 50.5 190.5t163.5 123.5q39 18 67 37.5t43 35.5t23 35t9.5 32t1.5 31v6q0 47 -40 96
t-106 49q-38 0 -68 -17t-45.5 -42t-23 -47.5t-7.5 -38.5z" />
    <glyph glyph-name="three.lf" horiz-adv-x="542" 
d="M268 -8q-84 0 -146 51t-72 127h62q9 -53 53.5 -87.5t103.5 -34.5q66 0 112.5 43t46.5 104q0 60 -44.5 103.5t-107.5 43.5h-69v55h62q58 0 99 35.5t41 86.5q0 52 -41 88t-99 36t-98.5 -35.5t-41.5 -87.5l-60 19q8 68 65.5 113.5t133.5 45.5q83 0 142.5 -52t59.5 -126
q0 -43 -28.5 -81.5t-72.5 -64.5v-8q52 -29 86 -75t34 -97q0 -84 -64.5 -143t-156.5 -59z" />
    <glyph glyph-name="four.lf" horiz-adv-x="537" 
d="M16 193v41l331 456h75v-443h95v-54h-95v-193h-59v193h-347zM361 616q-56 -78 -140 -190t-133 -179h275v369h-2z" />
    <glyph glyph-name="five.lf" horiz-adv-x="522" 
d="M45 189l60 9q0 -3 1 -8.5t5 -21t10 -29.5t18 -31.5t27.5 -30t40 -21t53.5 -8.5q41 0 71.5 16.5t46.5 39t25.5 52t11.5 49.5t2 38q0 25 -6 51.5t-19.5 55t-42 47t-67.5 18.5q-28 0 -55 -13.5t-44 -31.5t-27.5 -32.5t-11.5 -20.5l-71 8l35 365h341v-54h-286
q-1 -6 -11 -96.5t-14 -136.5h3q64 73 144 73q56 0 97 -24.5t60.5 -62.5t28 -73.5t8.5 -69.5q0 -24 -3 -49.5t-16.5 -64.5t-35.5 -68t-64.5 -50.5t-99.5 -21.5q-50 0 -89.5 18t-61.5 41.5t-37.5 54.5t-20 49.5t-6.5 33.5z" />
    <glyph glyph-name="six.lf" horiz-adv-x="581" 
d="M299 405q-66 0 -112.5 -52.5t-46.5 -126.5t46.5 -126t112.5 -52q67 0 113.5 52t46.5 126t-46.5 126.5t-113.5 52.5zM512 544l-54 -19q-42 117 -156 117q-83 0 -132 -85.5t-49 -221.5h4q28 56 73 91t97 35q95 0 160 -69.5t65 -168.5q0 -96 -64 -163.5t-156 -67.5
q-73 0 -127 41.5t-84 117.5q-29 78 -29 193q0 150 65.5 252t174.5 102q154 0 212 -154z" />
    <glyph glyph-name="seven.lf" horiz-adv-x="445" 
d="M188 0h-60v3q0 113 22 216.5t58 181t68.5 128.5t67.5 92v15h-324v54h414v-56q-10 -8 -26.5 -24.5t-59 -75t-75 -125.5t-59 -177t-26.5 -229v-3z" />
    <glyph glyph-name="eight.lf" horiz-adv-x="540" 
d="M50 194q0 52 33.5 98t85.5 74v7q-44 26 -72 65t-28 82q0 74 59 126t141 52q83 0 142.5 -52t59.5 -126q0 -43 -28.5 -81.5t-72.5 -64.5v-8q52 -29 86 -75t34 -97q0 -84 -64.5 -143t-156.5 -59q-90 0 -154.5 59t-64.5 143zM111 195q0 -61 46.5 -104t112.5 -43t112.5 43
t46.5 104q0 60 -44.5 103.5t-107.5 43.5h-14q-64 -3 -108 -45.5t-44 -101.5zM130 519q0 -51 41 -86.5t99 -35.5t99 35.5t41 86.5q0 52 -41 88t-99 36t-99 -36t-41 -88z" />
    <glyph glyph-name="nine.lf" horiz-adv-x="579" 
d="M281 285q66 0 112.5 52.5t46.5 126.5t-46.5 126t-112.5 52q-67 0 -113.5 -52t-46.5 -126t46.5 -126.5t113.5 -52.5zM68 146l54 19q42 -117 156 -117q83 0 132 85.5t49 221.5h-4q-28 -56 -73 -91t-97 -35q-95 0 -160 69.5t-65 168.5q0 96 64 163.5t156 67.5
q73 0 127 -41.5t84 -117.5q29 -78 29 -193q0 -150 -65.5 -252t-174.5 -102q-154 0 -212 154z" />
    <glyph glyph-name="less.lf" horiz-adv-x="428" 
d="M377 81l-38 -39l-324 324l324 324l38 -39l-280 -271v-29z" />
    <glyph glyph-name="equal.lf" horiz-adv-x="496" 
d="M50 394v54h396v-54h-396zM50 244v54h396v-54h-396z" />
    <glyph glyph-name="greater.lf" horiz-adv-x="428" 
d="M89 42l-38 39l280 270v29l-280 271l38 39l324 -324z" />
    <glyph glyph-name="asciitilde.lf" horiz-adv-x="505" 
d="M182 279q-42 0 -98 -65l-44 38q76 83 138 83q44 0 83.5 -32t61.5 -32q42 0 98 65l44 -38q-76 -83 -138 -83q-34 0 -59.5 16t-45 32t-40.5 16z" />
    <glyph glyph-name="cent.lf" horiz-adv-x="560" 
d="M264 0v77q-91 10 -151 82t-60 179t60.5 179.5t150.5 81.5v80h49v-80q75 -8 131 -62t72 -137h-63q-15 59 -52.5 97t-87.5 46v-409q45 7 80 37.5t53 79.5h64q-22 -73 -75 -119.5t-122 -54.5v-77h-49zM114 338q0 -83 42.5 -139t107.5 -65v409q-65 -10 -107.5 -66.5
t-42.5 -138.5z" />
    <glyph glyph-name="sterling.lf" horiz-adv-x="584" 
d="M442 343h-234q12 -66 12 -128q0 -65 -62 -127q26 8 41 8q49 0 107 -20q55 -19 93 -19q34 0 54.5 20t20.5 50h59q0 -53 -36.5 -90t-89.5 -37q-45 0 -110 23q-64 22 -97 22q-34 0 -57.5 -9.5t-60.5 -33.5l-4 -2l-28 42q4 2 11.5 7t26.5 21.5t33 35.5t26 50t12 64
q0 48 -12 123h-97v54h90q-18 104 -18 151q0 69 59 109.5t128 40.5q48 0 86.5 -17t58 -41t29 -45t9.5 -34h-60q0 3 -3.5 11.5t-13 20.5t-22.5 23t-35.5 19t-49.5 8q-46 0 -86 -28.5t-40 -75.5q0 -40 17 -142h243v-54z" />
    <glyph glyph-name="currency.lf" horiz-adv-x="530" 
d="M115 447l-57 55l43 43l56 -56q49 36 109 36q58 0 107 -36l56 56l43 -43l-58 -55q33 -46 33 -101q0 -56 -34 -105l59 -55l-43 -43l-58 56q-47 -33 -105 -33q-61 0 -107 34l-58 -57l-43 43l59 55q-34 46 -34 105q0 55 32 101zM140 344q0 -52 36.5 -88.5t88.5 -36.5
t88.5 36.5t36.5 88.5t-36.5 88.5t-88.5 36.5t-88.5 -36.5t-36.5 -88.5z" />
    <glyph glyph-name="yen.lf" 
d="M105 298v54h117l-210 328h71l201 -326l201 326h71l-209 -328h116v-54h-148v-101h148v-54h-148v-143h-61v143h-149v54h149v101h-149z" />
    <glyph glyph-name="section.lf" horiz-adv-x="472" 
d="M303 203h9q60 29 60 84q0 40 -51 78l-152 122h-9q-60 -29 -60 -84q0 -40 51 -78zM39 409q0 70 92 113q-39 41 -39 75q0 42 42 71.5t101 29.5q60 0 102.5 -29.5t42.5 -71.5h-61q0 19 -24.5 32t-59.5 13q-36 0 -59.5 -13.5t-23.5 -37.5q0 -19 41 -52l165 -132
q75 -58 75 -126q0 -71 -93 -114q40 -40 40 -74q0 -42 -42 -71.5t-101 -29.5q-60 0 -102.5 29.5t-42.5 71.5h61q0 -19 24.5 -32t59.5 -13q36 0 59.5 13t23.5 38q0 19 -41 52l-165 132q-75 58 -75 126z" />
    <glyph glyph-name="logicalnot.lf" horiz-adv-x="488" 
d="M45 319v54h388v-181h-59v127h-329z" />
    <glyph glyph-name="plusminus.lf" horiz-adv-x="500" 
d="M45 365v54h176v178h59v-178h175v-54h-175v-180h-59v180h-176zM47 73v54h408v-54h-408z" />
    <glyph glyph-name="multiply.lf" horiz-adv-x="504" 
d="M50 508l39 39l153 -159h19l154 159l39 -39l-159 -154v-19l159 -153l-39 -39l-154 159h-19l-153 -159l-39 39l159 153v19z" />
    <glyph glyph-name="divide.lf" horiz-adv-x="486" 
d="M45 317v56h396v-56h-396zM197 501q0 18 13 31.5t32 13.5q18 0 31.5 -13.5t13.5 -31.5q0 -19 -13.5 -32t-31.5 -13q-19 0 -32 13t-13 32zM197 189q0 18 13 31.5t32 13.5q18 0 31.5 -13.5t13.5 -31.5q0 -19 -13.5 -32t-31.5 -13q-19 0 -32 13t-13 32z" />
    <glyph glyph-name="florin.lf" horiz-adv-x="569" 
d="M173 44l64 376h-136l9 52h136l18 111q10 63 56 97t115 34q66 0 116 -26l-32 -51q-35 19 -81 19q-97 0 -112 -90l-16 -94h172l-9 -52h-171l-67 -393q-11 -65 -57.5 -98t-115.5 -33q-67 0 -117 27l33 52q38 -20 85 -20q94 0 110 89z" />
    <glyph glyph-name="Euro.lf" horiz-adv-x="670" 
d="M466 253h-275q17 -77 58 -126q60 -76 162 -76q79 0 129 46q35 31 56 82l44 -44q-25 -46 -60 -79q-72 -64 -169 -64q-125 0 -207 96q-58 65 -77 165h-90l27 54h56q-1 12 -1 38q0 25 1 37h-83l27 54h63q19 98 78 166q82 96 206 96q92 0 166 -63q27 -24 51 -61l-32 -65
q-23 52 -59 85q-52 45 -126 45q-101 0 -162 -77q-41 -51 -58 -126h368l-27 -54h-349q-1 -13 -1 -38t1 -37h310z" />
    <glyph glyph-name="minus.lf" horiz-adv-x="498" 
d="M45 319v54h408v-54h-408z" />
    <glyph glyph-name="infinity.lf" horiz-adv-x="642" 
d="M594 275q0 -54 -37.5 -88t-88.5 -34q-37 0 -67.5 20t-78.5 69q-30 -31 -45 -45t-44.5 -29t-61.5 -15q-51 0 -87 34.5t-36 84.5q0 52 36.5 87t91.5 35q42 0 75.5 -23.5t73.5 -67.5q31 33 47.5 48.5t44 29t57.5 13.5q54 0 87 -33t33 -86zM175 209q44 0 106 57v12
q-62 60 -103 60q-29 0 -49 -19t-20 -47q0 -26 19.5 -44.5t46.5 -18.5zM533 274q0 28 -17 46t-46 18q-43 0 -104 -59v-10q60 -60 100 -60q27 0 47 18.5t20 46.5z" />
    <glyph glyph-name="approxequal.lf" horiz-adv-x="525" 
d="M94 284l-44 38q76 83 138 83q41 0 89 -29q34 -27 56 -30h-1q47 0 99 60l44 -38q-76 -83 -138 -83q-41 0 -89 29q-34 27 -56 30h1q-47 0 -99 -60zM94 141l-44 38q76 83 138 83q41 0 89 -29q34 -27 56 -30h-1q47 0 99 60l44 -38q-76 -83 -138 -83q-41 0 -89 29
q-34 27 -56 30h1q-47 0 -99 -60z" />
    <glyph glyph-name="notequal.lf" horiz-adv-x="496" 
d="M375 480l-51 -107h122v-54h-147l-45 -96h192v-54h-218l-61 -130l-46 24l50 106h-121v54h146l46 96h-192v54h217l63 131z" />
    <glyph glyph-name="commaaccent.case" horiz-adv-x="208" 
d="M54 -96q0 20 15 34t34 14q23 0 37 -15t14 -42v-7q0 -42 -63 -112l-29 27q31 30 39 55q-18 0 -32.5 14t-14.5 32z" />
    <glyph glyph-name="parenleft.case" horiz-adv-x="280" 
d="M271 -105h-55q-23 31 -45 68.5t-49.5 96.5t-44.5 131.5t-17 145.5v3q0 74 17.5 148.5t46 135t50 97t43.5 68.5h55q-6 -8 -16 -23t-35.5 -62.5t-45 -97.5t-35.5 -123t-17 -143v-2q0 -69 15 -140.5t37 -123.5t44 -94t37 -64z" />
    <glyph glyph-name="parenright.case" horiz-adv-x="280" 
d="M64 -105h-55q6 8 16 22.5t35.5 61.5t45 96t35.5 121.5t16 141.5v2q-1 70 -16.5 142t-37 125t-43.5 95.5t-37 64.5l-15 22h55q22 -32 43.5 -68.5t50 -97t46 -135t17.5 -148.5v-3q0 -73 -17 -145.5t-44.5 -131.5t-49.5 -96.5t-45 -68.5z" />
    <glyph glyph-name="hyphen.case" horiz-adv-x="369" 
d="M56 314v54h258v-54h-258z" />
    <glyph glyph-name="bracketleft.case" horiz-adv-x="314" 
d="M285 786v-54h-103v-780h103v-54h-162v888h162z" />
    <glyph glyph-name="bracketright.case" horiz-adv-x="314" 
d="M29 732v54h162v-888h-162v54h103v780h-103z" />
    <glyph glyph-name="grave.case" horiz-adv-x="335" 
d="M254 744l-194 80l31 67l184 -100z" />
    <glyph glyph-name="braceleft.case" horiz-adv-x="270" 
d="M168 230v-207q0 -35 4 -52t20 -17h34v-56h-34q-84 0 -84 145v175q0 66 -74 97v63q74 24 74 98v185q0 68 18 96.5t65 28.5h35v-56h-34q-16 0 -20 -19.5t-4 -71.5v-175q0 -90 -61 -119q61 -34 61 -115z" />
    <glyph glyph-name="braceright.case" horiz-adv-x="270" 
d="M92 23v207q0 81 61 115q-61 29 -61 119v175q0 27 -0.5 39.5t-2.5 27t-7 19.5t-14 5h-34v56h35q47 0 65 -28.5t18 -96.5v-185q0 -74 74 -98v-63q-74 -31 -74 -97v-175q0 -145 -84 -145h-34v56h34q16 0 20 17t4 52z" />
    <glyph glyph-name="dieresis.case" horiz-adv-x="408" 
d="M60 824q0 20 14 34t33 14t33.5 -14t14.5 -34q0 -19 -14 -33t-34 -14q-19 0 -33 13.5t-14 33.5zM253 824q0 20 14 34t33 14q20 0 34 -14t14 -34q0 -19 -14 -33t-34 -14t-33.5 13.5t-13.5 33.5z" />
    <glyph glyph-name="guillemotleft.case" horiz-adv-x="512" 
d="M220 489l-143 -165v-12l143 -165l-40 -38l-158 195v28l158 195zM420 489l-143 -165v-12l143 -165l-40 -38l-158 195v28l158 195z" />
    <glyph glyph-name="uni00AD.case" horiz-adv-x="640" 
 />
    <glyph glyph-name="macron.case" horiz-adv-x="404" 
d="M60 796v57h284v-57h-284z" />
    <glyph glyph-name="acute.case" horiz-adv-x="335" 
d="M275 824l-194 -80l-21 47l184 100z" />
    <glyph glyph-name="cedilla.case" horiz-adv-x="310" 
d="M123 0h61v-34q30 -10 48 -33.5t18 -50.5q0 -38 -29 -65.5t-70 -27.5q-36 0 -60 18t-31 36l54 27q14 -25 36 -25q15 0 26 10t11 27q0 43 -64 43v75z" />
    <glyph glyph-name="guillemotright.case" horiz-adv-x="512" 
d="M435 324l-143 165l40 38l158 -195v-28l-158 -195l-40 38l143 165v12zM235 324l-143 165l40 38l158 -195v-28l-158 -195l-40 38l143 165v12z" />
    <glyph glyph-name="circumflex.case" horiz-adv-x="428" 
d="M189 899h50l129 -103l-41 -47l-113 91l-113 -91l-41 47z" />
    <glyph glyph-name="caron.case" horiz-adv-x="428" 
d="M239 749h-50l-129 103l41 47l113 -91l113 91l41 -47z" />
    <glyph glyph-name="breve.case" horiz-adv-x="416" 
d="M122 896q0 -34 26 -60t60 -26q35 0 60.5 25.5t25.5 60.5v2h62q0 -61 -43.5 -104t-104.5 -43t-104.5 43t-43.5 104h62v-2z" />
    <glyph glyph-name="dotaccent.case" horiz-adv-x="215" 
d="M60 824q0 20 14 34t33 14t33.5 -14t14.5 -34q0 -19 -14 -33t-34 -14q-19 0 -33 13.5t-14 33.5z" />
    <glyph glyph-name="ring.case" horiz-adv-x="330" 
d="M60 824q0 43 31 73.5t75 30.5q43 0 73.5 -30.5t30.5 -73.5q0 -44 -30.5 -75t-73.5 -31q-44 0 -75 31t-31 75zM112 824q0 -23 15.5 -38.5t38.5 -15.5q22 0 37 15.5t15 38.5q0 22 -15 37t-37 15q-23 0 -38.5 -15t-15.5 -37z" />
    <glyph glyph-name="ogonek.case" horiz-adv-x="314" 
d="M203 -130l51 -24q-13 -25 -38.5 -41t-58.5 -16q-35 0 -66 24t-31 61q0 42 25.5 74.5t57.5 51.5h72q-91 -55 -91 -119q0 -15 12.5 -24.5t26.5 -9.5q25 0 40 23z" />
    <glyph glyph-name="tilde.case" horiz-adv-x="432" 
d="M60 774v21q0 38 27 63.5t64 25.5q24 0 45.5 -9.5t33.5 -21t25 -21t23 -9.5q31 0 31 30v21h63v-21q0 -38 -27 -63.5t-64 -25.5q-24 0 -45.5 9.5t-33.5 21t-25 21t-23 9.5q-31 0 -31 -30v-21h-63z" />
    <glyph glyph-name="hungarumlaut.case" horiz-adv-x="455" 
d="M95 744l-35 38l131 135l49 -53zM236 744l-29 42l148 115l40 -59z" />
    <glyph glyph-name="endash.case" horiz-adv-x="614" 
d="M55 314v54h504v-54h-504z" />
    <glyph glyph-name="emdash.case" horiz-adv-x="976" 
d="M55 314v54h866v-54h-866z" />
    <glyph glyph-name="guilsinglleft.case" horiz-adv-x="312" 
d="M220 489l-143 -165v-12l143 -165l-40 -38l-158 195v28l158 195z" />
    <glyph glyph-name="guilsinglright.case" horiz-adv-x="312" 
d="M235 324l-143 165l40 38l158 -195v-28l-158 -195l-40 38l143 165v12z" />
    <glyph glyph-name="zero.zero" horiz-adv-x="585" 
d="M294 698q100 0 164 -103q60 -94 60 -248q0 -155 -60 -252q-63 -103 -164 -103q-104 0 -167 103q-60 97 -60 252q0 153 60 248q64 103 167 103zM457 347q0 99 -28 175l-244 -410q42 -64 108 -64q75 0 121 88q43 81 43 211zM293 642q-75 0 -122 -87q-43 -80 -43 -208
q0 -106 28 -178l243 410q-44 63 -106 63z" />
    <glyph glyph-name="a.ss01" horiz-adv-x="594" 
d="M517 507v-507h-59v89h-6q-68 -97 -171 -97q-95 0 -161.5 77t-66.5 185q0 109 66.5 186t161.5 77q99 0 171 -103h6v93h59zM458 246v9q0 93 -46 149.5t-127 56.5q-72 0 -121.5 -60t-49.5 -147q0 -86 49.5 -146t121.5 -60q79 0 125 54.5t48 143.5z" />
    <glyph glyph-name="agrave.ss01" horiz-adv-x="594" 
d="M517 507v-507h-59v89h-6q-68 -97 -171 -97q-95 0 -161.5 77t-66.5 185q0 109 66.5 186t161.5 77q99 0 171 -103h6v93h59zM458 246v9q0 93 -46 149.5t-127 56.5q-72 0 -121.5 -60t-49.5 -147q0 -86 49.5 -146t121.5 -60q79 0 125 54.5t48 143.5zM328 566l-176 101l39 60
l164 -119z" />
    <glyph glyph-name="aacute.ss01" horiz-adv-x="594" 
d="M517 507v-507h-59v89h-6q-68 -97 -171 -97q-95 0 -161.5 77t-66.5 185q0 109 66.5 186t161.5 77q99 0 171 -103h6v93h59zM458 246v9q0 93 -46 149.5t-127 56.5q-72 0 -121.5 -60t-49.5 -147q0 -86 49.5 -146t121.5 -60q79 0 125 54.5t48 143.5zM405 667l-176 -101l-27 42
l164 119z" />
    <glyph glyph-name="acircumflex.ss01" horiz-adv-x="594" 
d="M517 507v-507h-59v89h-6q-68 -97 -171 -97q-95 0 -161.5 77t-66.5 185q0 109 66.5 186t161.5 77q99 0 171 -103h6v93h59zM458 246v9q0 93 -46 149.5t-127 56.5q-72 0 -121.5 -60t-49.5 -147q0 -86 49.5 -146t121.5 -60q79 0 125 54.5t48 143.5zM261 718h50l117 -106
l-39 -44l-103 94l-103 -94l-39 44z" />
    <glyph glyph-name="atilde.ss01" horiz-adv-x="594" 
d="M517 507v-507h-59v89h-6q-68 -97 -171 -97q-95 0 -161.5 77t-66.5 185q0 109 66.5 186t161.5 77q99 0 171 -103h6v93h59zM458 246v9q0 93 -46 149.5t-127 56.5q-72 0 -121.5 -60t-49.5 -147q0 -86 49.5 -146t121.5 -60q79 0 125 54.5t48 143.5zM135 596v19
q0 37 25.5 61.5t61.5 24.5q29 0 51.5 -14.5t38.5 -29.5t29 -15t22 7.5t9 21.5v19h59v-19q0 -37 -25.5 -61.5t-61.5 -24.5q-29 0 -51.5 14.5t-38.5 29.5t-29 15t-22 -7.5t-9 -21.5v-19h-59z" />
    <glyph glyph-name="adieresis.ss01" horiz-adv-x="594" 
d="M517 507v-507h-59v89h-6q-68 -97 -171 -97q-95 0 -161.5 77t-66.5 185q0 109 66.5 186t161.5 77q99 0 171 -103h6v93h59zM458 246v9q0 93 -46 149.5t-127 56.5q-72 0 -121.5 -60t-49.5 -147q0 -86 49.5 -146t121.5 -60q79 0 125 54.5t48 143.5zM145 642q0 18 13 31.5
t32 13.5q18 0 31.5 -13.5t13.5 -31.5q0 -19 -13.5 -32t-31.5 -13q-19 0 -32 13t-13 32zM333 642q0 18 13 31.5t32 13.5q18 0 31.5 -13.5t13.5 -31.5q0 -19 -13.5 -32t-31.5 -13q-19 0 -32 13t-13 32z" />
    <glyph glyph-name="aring.ss01" horiz-adv-x="594" 
d="M517 507v-507h-59v89h-6q-68 -97 -171 -97q-95 0 -161.5 77t-66.5 185q0 109 66.5 186t161.5 77q99 0 171 -103h6v93h59zM458 246v9q0 93 -46 149.5t-127 56.5q-72 0 -121.5 -60t-49.5 -147q0 -86 49.5 -146t121.5 -60q79 0 125 54.5t48 143.5zM182 658q0 42 30.5 72
t73.5 30q42 0 72 -30t30 -72q0 -43 -30 -73.5t-72 -30.5q-44 0 -74 30t-30 74zM234 658q0 -22 15 -37t37 -15q21 0 35.5 15t14.5 37q0 21 -14.5 35.5t-35.5 14.5q-22 0 -37 -14.5t-15 -35.5z" />
    <glyph glyph-name="amacron.ss01" horiz-adv-x="594" 
d="M517 507v-507h-59v89h-6q-68 -97 -171 -97q-95 0 -161.5 77t-66.5 185q0 109 66.5 186t161.5 77q99 0 171 -103h6v93h59zM458 246v9q0 93 -46 149.5t-127 56.5q-72 0 -121.5 -60t-49.5 -147q0 -86 49.5 -146t121.5 -60q79 0 125 54.5t48 143.5zM152 616v54h268v-54h-268z
" />
    <glyph glyph-name="abreve.ss01" horiz-adv-x="594" 
d="M517 507v-507h-59v89h-6q-68 -97 -171 -97q-95 0 -161.5 77t-66.5 185q0 109 66.5 186t161.5 77q99 0 171 -103h6v93h59zM458 246v9q0 93 -46 149.5t-127 56.5q-72 0 -121.5 -60t-49.5 -147q0 -86 49.5 -146t121.5 -60q79 0 125 54.5t48 143.5zM201 711q0 -33 24.5 -57
t57.5 -24t57.5 24t24.5 57v2h58q0 -57 -41.5 -98t-98.5 -41q-58 0 -99 40.5t-41 98.5h58v-2z" />
    <glyph glyph-name="aogonek.ss01" horiz-adv-x="594" 
d="M458 246v9q0 93 -46 149.5t-127 56.5q-72 0 -121.5 -60t-49.5 -147q0 -86 49.5 -146t121.5 -60q79 0 125 54.5t48 143.5zM458 6v83h-6q-68 -97 -171 -97q-95 0 -161.5 77t-66.5 185q0 109 66.5 186t161.5 77q99 0 171 -103h6v93h59v-507q-1 -1 -16.5 -12.5t-31 -24.5
t-28.5 -35.5t-13 -46.5q0 -36 38 -36q32 0 43 25l50 -24q-13 -25 -38.5 -41t-58.5 -16q-35 0 -65.5 24t-30.5 61q0 42 28.5 77t63.5 55z" />
    <glyph glyph-name="aringacute.ss01" horiz-adv-x="594" 
d="M386 856l-177 -100l-27 42l165 118zM517 507v-507h-59v89h-6q-68 -97 -171 -97q-95 0 -161.5 77t-66.5 185q0 109 66.5 186t161.5 77q99 0 171 -103h6v93h59zM458 246v9q0 93 -46 149.5t-127 56.5q-72 0 -121.5 -60t-49.5 -147q0 -86 49.5 -146t121.5 -60q79 0 125 54.5
t48 143.5zM182 647q0 42 30.5 72t73.5 30q42 0 72 -30t30 -72q0 -43 -30 -73.5t-72 -30.5q-44 0 -74 30.5t-30 73.5zM234 647q0 -23 15 -37.5t37 -14.5q21 0 35.5 15t14.5 37q0 21 -14.5 35.5t-35.5 14.5q-22 0 -37 -14.5t-15 -35.5z" />
    <glyph glyph-name="afii10065.ss01" horiz-adv-x="594" 
d="M517 507v-507h-59v89h-6q-68 -97 -171 -97q-95 0 -161.5 77t-66.5 185q0 109 66.5 186t161.5 77q99 0 171 -103h6v93h59zM458 246v9q0 93 -46 149.5t-127 56.5q-72 0 -121.5 -60t-49.5 -147q0 -86 49.5 -146t121.5 -60q79 0 125 54.5t48 143.5z" />
    <glyph glyph-name="g.ss02" horiz-adv-x="537" 
d="M537 -61q0 -67 -73 -114t-177 -47q-107 0 -177 47.5t-70 113.5q0 86 94 123v5q-61 21 -62 76q0 44 61 79v23q-41 44 -41 103q0 70 56 119.5t135 49.5q57 0 101 -26l11 4q17 77 92 77q13 0 28 -3l-9 -56q-12 2 -18 2q-54 0 -59 -61q43 -46 43 -106q0 -70 -55.5 -120
t-133.5 -50q-58 0 -103 25q-49 -11 -49 -60q0 -45 68 -45h88q133 0 191.5 -37t58.5 -122zM477 -59q0 55 -44 79t-146 24q-95 0 -141 -29t-46 -74q0 -47 54 -78t133 -31q80 0 135 31t55 78zM280 232q57 0 95 33.5t38 84.5q0 47 -38.5 80t-94.5 33q-53 0 -91 -33t-38 -80
q0 -50 37.5 -84t91.5 -34z" />
    <glyph glyph-name="gcircumflex.ss02" horiz-adv-x="537" 
d="M537 -61q0 -67 -73 -114t-177 -47q-107 0 -177 47.5t-70 113.5q0 86 94 123v5q-61 21 -62 76q0 44 61 79v23q-41 44 -41 103q0 70 56 119.5t135 49.5q57 0 101 -26l11 4q17 77 92 77q13 0 28 -3l-9 -56q-12 2 -18 2q-54 0 -59 -61q43 -46 43 -106q0 -70 -55.5 -120
t-133.5 -50q-58 0 -103 25q-49 -11 -49 -60q0 -45 68 -45h88q133 0 191.5 -37t58.5 -122zM477 -59q0 55 -44 79t-146 24q-95 0 -141 -29t-46 -74q0 -47 54 -78t133 -31q80 0 135 31t55 78zM280 232q57 0 95 33.5t38 84.5q0 47 -38.5 80t-94.5 33q-53 0 -91 -33t-38 -80
q0 -50 37.5 -84t91.5 -34zM253 718h50l117 -106l-39 -44l-103 94l-103 -94l-39 44z" />
    <glyph glyph-name="gbreve.ss02" horiz-adv-x="537" 
d="M537 -61q0 -67 -73 -114t-177 -47q-107 0 -177 47.5t-70 113.5q0 86 94 123v5q-61 21 -62 76q0 44 61 79v23q-41 44 -41 103q0 70 56 119.5t135 49.5q57 0 101 -26l11 4q17 77 92 77q13 0 28 -3l-9 -56q-12 2 -18 2q-54 0 -59 -61q43 -46 43 -106q0 -70 -55.5 -120
t-133.5 -50q-58 0 -103 25q-49 -11 -49 -60q0 -45 68 -45h88q133 0 191.5 -37t58.5 -122zM477 -59q0 55 -44 79t-146 24q-95 0 -141 -29t-46 -74q0 -47 54 -78t133 -31q80 0 135 31t55 78zM280 232q57 0 95 33.5t38 84.5q0 47 -38.5 80t-94.5 33q-53 0 -91 -33t-38 -80
q0 -50 37.5 -84t91.5 -34zM200 711q0 -33 24.5 -57t57.5 -24t57.5 24t24.5 57v2h58q0 -57 -41.5 -98t-98.5 -41q-58 0 -99 40.5t-41 98.5h58v-2z" />
    <glyph glyph-name="gdotaccent.ss02" horiz-adv-x="537" 
d="M537 -61q0 -67 -73 -114t-177 -47q-107 0 -177 47.5t-70 113.5q0 86 94 123v5q-61 21 -62 76q0 44 61 79v23q-41 44 -41 103q0 70 56 119.5t135 49.5q57 0 101 -26l11 4q17 77 92 77q13 0 28 -3l-9 -56q-12 2 -18 2q-54 0 -59 -61q43 -46 43 -106q0 -70 -55.5 -120
t-133.5 -50q-58 0 -103 25q-49 -11 -49 -60q0 -45 68 -45h88q133 0 191.5 -37t58.5 -122zM477 -59q0 55 -44 79t-146 24q-95 0 -141 -29t-46 -74q0 -47 54 -78t133 -31q80 0 135 31t55 78zM280 232q57 0 95 33.5t38 84.5q0 47 -38.5 80t-94.5 33q-53 0 -91 -33t-38 -80
q0 -50 37.5 -84t91.5 -34zM233 642q0 18 13 31.5t32 13.5q18 0 31.5 -13.5t13.5 -31.5q0 -19 -13.5 -32t-31.5 -13q-19 0 -32 13t-13 32z" />
    <glyph glyph-name="gcommaaccent.ss02" horiz-adv-x="537" 
d="M331 605q0 -20 -15 -34t-34 -14q-23 0 -37 15t-14 42v7q0 42 63 112l29 -27q-31 -30 -39 -55q18 0 32.5 -14t14.5 -32zM537 -61q0 -67 -73 -114t-177 -47q-107 0 -177 47.5t-70 113.5q0 86 94 123v5q-61 21 -62 76q0 44 61 79v23q-41 44 -41 103q0 70 56 119.5t135 49.5
q57 0 101 -26l11 4q17 77 92 77q13 0 28 -3l-9 -56q-12 2 -18 2q-54 0 -59 -61q43 -46 43 -106q0 -70 -55.5 -120t-133.5 -50q-58 0 -103 25q-49 -11 -49 -60q0 -45 68 -45h88q133 0 191.5 -37t58.5 -122zM477 -59q0 55 -44 79t-146 24q-95 0 -141 -29t-46 -74q0 -47 54 -78
t133 -31q80 0 135 31t55 78zM280 232q57 0 95 33.5t38 84.5q0 47 -38.5 80t-94.5 33q-53 0 -91 -33t-38 -80q0 -50 37.5 -84t91.5 -34z" />
    <glyph glyph-name="asterisk.ss04" horiz-adv-x="654" 
d="M30 207l218 125l49 15q-8 3 -26 8.5t-24 7.5l-216 125l28 48l212 -123l43 -36l-11 53v248h56v-248l-11 -53q8 6 26 21l17 15l213 124l28 -48l-217 -126l-51 -16q25 -8 50 -15l218 -126l-28 -49l-214 124l-42 36l6 -27t5 -25v-248h-56v248l10 51q-15 -14 -41 -35
l-214 -123z" />
    <glyph glyph-name="dollar.ss05" horiz-adv-x="564" 
d="M259 -76v77q-96 10 -150 66t-57 121h61q3 -43 41 -81.5t105 -47.5v213q-39 7 -69 16.5t-59 26.5t-44.5 45t-15.5 65q0 10 2 23t13.5 36.5t29.5 42t55.5 33.5t87.5 17v76h49v-78q76 -10 121 -54.5t54 -120.5h-59q-19 106 -116 119v-195q30 -5 43.5 -7.5t41 -9t41 -13
t32.5 -18.5t28.5 -27t16.5 -36.5t7 -48.5t-11.5 -54t-35 -51.5t-66 -40.5t-97.5 -18v-76h-49zM457 163q0 51 -32 69.5t-117 32.5v-208q78 3 113.5 35t35.5 71zM132 426q0 -45 32 -64t95 -30v190q-54 -2 -90.5 -26t-36.5 -70z" />
    <glyph glyph-name="sterling.ss06" horiz-adv-x="558" 
d="M412 266h-207q8 -40 8 -61q0 -84 -91 -151h370v-54h-452v58q44 19 79 60t35 99q0 25 -7 49h-97v50h90q-3 19 -8.5 44.5t-7.5 39.5t-2 32q0 69 56 109.5t121 40.5q46 0 82 -17t54.5 -41t27.5 -45t9 -34h-60q0 3 -3.5 11t-12 20.5t-20.5 23t-33 18.5t-45 8q-42 0 -79 -28
t-37 -75q0 -23 14 -107h216v-50z" />
    <glyph glyph-name="commaaccent" horiz-adv-x="208" 
d="M54 -96q0 20 15 34t34 14q23 0 37 -15t14 -42v-7q0 -42 -63 -112l-29 27q31 30 39 55q-18 0 -32.5 14t-14.5 32z" />
    </font>
</defs>
</svg>
