<?xml version="1.0" standalone="no"?>
<!DOCTYPE svg PUBLIC "-//W3C//DTD SVG 1.1//EN" "http://www.w3.org/Graphics/SVG/1.1/DTD/svg11.dtd" >
<svg xmlns="http://www.w3.org/2000/svg" xmlns:xlink="http://www.w3.org/1999/xlink" version="1.1">
<metadata>
Created by FontForge 20161003 at Wed May 31 14:56:50 2017
 By www-data
Copyright (c) by Kobi Benezri, www.lineto.com, All rights reserved. http://www.kobibenezri.com
</metadata>
<defs>
<font id="LetteraTextProItalic" horiz-adv-x="640" >
  <font-face 
    font-family="LetteraTextProItalic"
    font-weight="400"
    font-style="italic"
    font-stretch="normal"
    units-per-em="1000"
    panose-1="2 11 5 4 2 1 1 2 1 2"
    ascent="727"
    descent="-273"
    x-height="507"
    cap-height="690"
    bbox="-215 -224 1059 1061"
    underline-thickness="40"
    underline-position="-150"
    slope="-6"
    unicode-range="U+000D-FB02"
  />
<missing-glyph horiz-adv-x="566" 
d="M42 0v690h482v-690h-482zM96 54h374v582h-374v-582z" />
    <glyph glyph-name="f_i" unicode="fi" horiz-adv-x="562" 
d="M393 0l66 507h59l-66 -507h-59zM140 507l8 57q8 62 57.5 106t111.5 44q53 0 93 -21l-28 -52q-31 17 -72 17q-38 0 -68 -26.5t-35 -64.5l-8 -60h158l-7 -54h-158l-59 -453h-59l59 453h-119l7 54h119zM512 687q18 0 29 -11.5t11 -29.5q0 -21 -14.5 -35t-34.5 -14
q-18 0 -30 12t-12 29q0 21 15 35t36 14z" />
    <glyph glyph-name="f_l" unicode="fl" horiz-adv-x="568" 
d="M395 0l92 696h59l-92 -696h-59zM140 507l8 57q8 62 57.5 106t111.5 44q53 0 93 -21l-28 -52q-31 17 -72 17q-38 0 -68 -26.5t-35 -64.5l-8 -60h158l-7 -54h-158l-59 -453h-59l59 453h-119l7 54h119z" />
    <glyph glyph-name=".notdef" horiz-adv-x="566" 
d="M42 0v690h482v-690h-482zM96 54h374v582h-374v-582z" />
    <glyph glyph-name=".null" horiz-adv-x="0" 
 />
    <glyph glyph-name=".null" horiz-adv-x="0" 
 />
    <glyph glyph-name="uni000D" unicode="&#xd;" horiz-adv-x="219" 
 />
    <glyph glyph-name="space" unicode=" " horiz-adv-x="219" 
 />
    <glyph glyph-name="exclam" unicode="!" horiz-adv-x="282" 
d="M142 198h-38l34 458q2 17 16 29.5t34 12.5q18 0 29 -11t11 -27v-4zM108 91q19 0 31.5 -13t12.5 -32q0 -23 -16 -38.5t-38 -15.5q-19 0 -32.5 13t-13.5 32q0 23 16.5 38.5t39.5 15.5z" />
    <glyph glyph-name="quotedbl" unicode="&#x22;" horiz-adv-x="417" 
d="M315 461h-10q-1 6 -7.5 36.5t-11.5 68t-5 72.5q0 23 17 41.5t40 18.5q20 0 34 -15t14 -36t-13 -55.5t-34.5 -80.5t-23.5 -50zM137 461h-10q-1 6 -7.5 36.5t-11.5 68t-5 72.5q0 23 17 41.5t40 18.5q20 0 34 -15t14 -36t-13 -55.5t-34.5 -80.5t-23.5 -50z" />
    <glyph glyph-name="numbersign" unicode="#" horiz-adv-x="701" 
d="M170 -40h-52l46 176h-146l15 54h146l50 190h-148l14 54h148l47 174h52l-47 -174h160l47 174h52l-47 -174h148l-14 -54h-148l-50 -190h150l-15 -54h-150l-46 -176h-52l46 176h-160zM280 380l-50 -190h160l50 190h-160z" />
    <glyph glyph-name="dollar" unicode="$" horiz-adv-x="558" 
d="M208 -76l11 79q-70 11 -116 49q-68 56 -68 130v6h61v-6q0 -24 14 -49.5t36 -40.5q48 -35 118 -35q75 0 123 35q51 38 51 86q0 36 -21 54q-25 21 -138 38q-4 1 -34 5t-47 8t-40.5 14.5t-37.5 26.5q-35 38 -35 93q0 69 63 115q63 43 146 46l10 75h49l-11 -79
q60 -10 101 -45q51 -42 51 -111v-17l-59 -1v14q0 45 -36 76q-16 13 -43.5 22.5t-51.5 9.5q-27 0 -61 -8t-54 -23q-42 -27 -42 -73q0 -39 20 -59q22 -22 136 -36q117 -15 158 -52q38 -36 38 -88q0 -77 -68 -129q-69 -54 -164 -54l-10 -76h-49z" />
    <glyph glyph-name="percent" unicode="%" horiz-adv-x="598" 
d="M521 690h57l-494 -690h-57zM202 700q54 0 88 -35.5t34 -88.5q0 -65 -44 -107t-105 -42q-54 0 -90.5 36t-36.5 88q0 65 45.5 107t108.5 42zM197 648q-39 0 -67.5 -26t-28.5 -66q0 -32 22.5 -54.5t56.5 -22.5q38 0 65 26t27 66q0 33 -21 55t-54 22zM434 263q54 0 88 -35.5
t34 -88.5q0 -65 -44 -107t-105 -42q-54 0 -90.5 36t-36.5 88q0 65 45.5 107t108.5 42zM429 211q-39 0 -67.5 -26t-28.5 -66q0 -32 22.5 -54.5t56.5 -22.5q38 0 65 26t27 66q0 33 -21 55t-54 22z" />
    <glyph glyph-name="ampersand" unicode="&#x26;" horiz-adv-x="590" 
d="M454 92l60 -92h-66l-39 56q-88 -64 -192 -64q-83 0 -139.5 47t-56.5 123q0 42 18 81.5t44 66t52.5 47t44.5 29.5l18 10q-1 2 -11.5 17.5t-19 30t-18.5 34t-16 41.5t-6 41q0 60 48.5 99t109.5 39q59 0 99 -35t40 -89q0 -33 -20.5 -66.5t-51.5 -60t-50.5 -40t-34.5 -22.5
l160 -246q21 22 56 79l48 -19q-38 -66 -77 -103v-4zM377 110l-152 241h-8q-24 -12 -51 -31.5t-55.5 -61.5t-28.5 -89q0 -53 41.5 -87t101.5 -34q75 0 151 55zM363 568q0 34 -24 54t-60 20q-37 0 -64 -26t-27 -64q0 -51 52 -123h8q14 8 37 24.5t50.5 50.5t27.5 64z" />
    <glyph glyph-name="quotesingle" unicode="'" horiz-adv-x="239" 
d="M137 461h-10q-1 6 -7.5 36.5t-11.5 68t-5 72.5q0 23 17 41.5t40 18.5q20 0 34 -15t14 -36t-13 -55.5t-34.5 -80.5t-23.5 -50z" />
    <glyph glyph-name="parenleft" unicode="(" horiz-adv-x="283" 
d="M238 -165h-55q-103 172 -103 364q0 46 5 81q31 224 215 449h55q-7 -8 -19 -23t-43.5 -62.5t-57.5 -97.5t-51.5 -123t-35.5 -143q-6 -45 -6 -88q0 -92 24 -181t48 -133z" />
    <glyph glyph-name="parenright" unicode=")" horiz-adv-x="282" 
d="M-17 -165h-55q7 8 19 22.5t43.5 62t57.5 96.5t51 121.5t34 142.5q5 36 5 85q0 59 -10 118t-24 101t-27.5 76.5t-23.5 51.5l-10 17h55q104 -178 104 -370q0 -34 -5 -79q-9 -73 -35.5 -146.5t-62 -132.5t-62.5 -97t-54 -69z" />
    <glyph glyph-name="asterisk" unicode="*" horiz-adv-x="620" 
d="M90 399l157 84l51 15q-8 3 -25 8.5t-23 7.5l-134 84l34 48l130 -82l38 -36q0 10 -2 29t-2 24l22 165h56l-22 -165l-18 -53q9 6 48 36l152 82l22 -48l-156 -84l-53 -16q24 -9 48 -15l134 -84l-35 -49l-130 82l-37 36q0 -10 2 -29t2 -23l-22 -165h-56l22 165l16 51
q-13 -11 -45 -35l-153 -82z" />
    <glyph glyph-name="plus" unicode="+" horiz-adv-x="523" 
d="M43 264l7 54h188l25 190h59l-25 -190h188l-7 -54h-188l-25 -192h-59l25 192h-188z" />
    <glyph glyph-name="comma" unicode="," horiz-adv-x="229" 
d="M130 49v-7q0 -34 -34 -85.5t-80 -85.5l-21 29q46 42 75 96q-40 7 -40 43q0 24 16.5 40t40.5 16q18 0 30.5 -13.5t12.5 -32.5z" />
    <glyph glyph-name="hyphen" unicode="-" horiz-adv-x="344" 
d="M35 214l6 54h258l-6 -54h-258z" />
    <glyph glyph-name="period" unicode="." horiz-adv-x="230" 
d="M85 95q21 0 33.5 -13.5t12.5 -33.5q0 -24 -16.5 -40t-39.5 -16q-20 0 -34 13.5t-14 33.5q0 24 17 40t41 16z" />
    <glyph glyph-name="slash" unicode="/" horiz-adv-x="399" 
d="M346 690h69l-374 -690h-69z" />
    <glyph glyph-name="zero" unicode="0" horiz-adv-x="561" 
d="M258 48q90 0 145 86q46 71 46 177q0 92 -36 150q-41 65 -111 65q-90 0 -145 -84q-46 -71 -46 -179q0 -91 36 -150q41 -65 111 -65zM256 -8q-98 0 -156 83q-50 75 -50 188q0 127 61 214q70 105 194 105q98 0 156 -83q50 -75 50 -188q0 -124 -61 -212q-75 -107 -194 -107z
" />
    <glyph glyph-name="one" unicode="1" horiz-adv-x="333" 
d="M214 581h59l-82 -581h-59l64 460h-7q-75 -50 -138 -50l8 55q47 0 97 32t58 84z" />
    <glyph glyph-name="two" unicode="2" horiz-adv-x="504" 
d="M123 408v-3l-59 1v2q0 67 56.5 120.5t149.5 53.5q84 0 134 -44.5t50 -113.5q0 -68 -50 -114.5t-131 -84.5q-67 -31 -117.5 -73.5t-56.5 -82.5l-2 -15h340l-7 -54h-412l1 14q6 87 63 147.5t168 113.5q67 32 104.5 66.5t37.5 81.5t-35 75t-92 28q-66 0 -104 -37.5
t-38 -80.5z" />
    <glyph glyph-name="three" unicode="3" horiz-adv-x="514" 
d="M208 -106q-86 0 -145 46.5t-59 126.5h62q2 -52 42.5 -84.5t107.5 -32.5q66 0 117.5 48t51.5 108q0 59 -34.5 94t-96.5 35h-69l7 54h61q60 0 109 39.5t49 96.5q0 49 -37.5 75t-97.5 26q-56 0 -96 -33t-52 -85l-54 19q17 67 76 111t134 44q89 0 139 -41t50 -114
q0 -51 -35.5 -92.5t-86.5 -68.5l-1 -8q97 -57 97 -153q0 -88 -72.5 -149.5t-166.5 -61.5z" />
    <glyph glyph-name="four" unicode="4" horiz-adv-x="501" 
d="M-10 111l6 41l368 435h75l-58 -422h95l-8 -54h-95l-29 -207h-59l29 207h-324zM368 513l-292 -348h246l48 348h-2z" />
    <glyph glyph-name="five" unicode="5" horiz-adv-x="523" 
d="M16 84l62 10v-4q0 -12 2 -26t10.5 -35.5t23 -38t42.5 -28.5t66 -12q41 0 73.5 17.5t51 42t31 54.5t16.5 52.5t4 38.5q0 147 -124 147q-36 0 -73 -22t-56.5 -42.5t-21.5 -28.5h-71l86 363h341l-8 -54h-286q-8 -32 -27.5 -110.5t-29.5 -120.5l3 3q24 22 39 33.5t47 24
t68 12.5q175 0 175 -203q0 -25 -6 -55.5t-23 -68.5t-42.5 -68t-71 -50.5t-102.5 -20.5q-53 0 -92.5 17.5t-59 40t-31 52.5t-14 47.5t-2.5 32.5z" />
    <glyph glyph-name="six" unicode="6" horiz-adv-x="552" 
d="M527 530l-57 -20q-23 114 -136 114q-77 0 -139 -94t-70 -204h3q26 53 80 88.5t119 35.5q82 0 124.5 -54.5t42.5 -124.5q0 -123 -73.5 -201t-173.5 -78q-50 0 -86.5 19.5t-55.5 46.5t-30 67.5t-13.5 71t-2.5 68.5q0 102 33.5 195.5t99 156.5t148.5 63q154 0 187 -150z
M310 394q-78 0 -130.5 -59t-52.5 -138q0 -21 3.5 -41t14.5 -47t38 -44t67 -17q79 0 131 66.5t52 151.5q0 15 -4 32.5t-15 41t-38 39t-66 15.5z" />
    <glyph glyph-name="seven" unicode="7" horiz-adv-x="424" 
d="M121 -96h-60v3q48 344 300 596l2 15h-334l8 54h419l-8 -56q-6 -4 -15.5 -11.5t-38.5 -35t-56 -59.5t-62.5 -85.5t-64 -112t-53.5 -140t-37 -168.5z" />
    <glyph glyph-name="eight" unicode="8" horiz-adv-x="530" 
d="M38 174q0 52 43.5 106.5t100.5 75.5l1 7q-81 51 -81 132q0 77 65.5 131t149.5 54q85 0 137 -41.5t52 -113.5q0 -48 -34.5 -92.5t-87.5 -68.5l-1 -8q97 -57 97 -153q0 -83 -70.5 -147t-168.5 -64q-90 0 -146.5 50t-56.5 132zM100 175q0 -59 41.5 -93t108.5 -34
q65 0 116.5 48t51.5 108q0 55 -36 92t-97 37h-12q-68 0 -120.5 -49t-52.5 -109zM163 500q0 -51 33.5 -82t90.5 -31q65 0 110.5 40t45.5 92q0 47 -36.5 76t-92.5 29q-59 0 -105 -36.5t-46 -87.5z" />
    <glyph glyph-name="nine" unicode="9" horiz-adv-x="552" 
d="M29 44l57 20q23 -114 136 -114q77 0 139 94t70 204h-3q-26 -53 -80 -88.5t-119 -35.5q-82 0 -124.5 54.5t-42.5 124.5q0 123 73.5 201t173.5 78q50 0 86.5 -19.5t55.5 -46.5t30 -67.5t13.5 -71t2.5 -68.5q0 -102 -33.5 -195.5t-99 -156.5t-148.5 -63q-154 0 -187 150z
M246 180q78 0 130.5 59t52.5 138q0 21 -3.5 41t-14.5 47t-38 44t-67 17q-79 0 -131 -66.5t-52 -151.5q0 -15 4 -32.5t15 -41t38 -39t66 -15.5z" />
    <glyph glyph-name="colon" unicode=":" horiz-adv-x="254" 
d="M102 95q21 0 33.5 -13.5t12.5 -33.5q0 -24 -16.5 -40t-39.5 -16q-20 0 -34 13.5t-14 33.5q0 24 17 40t41 16zM150 485q21 0 33.5 -13.5t12.5 -33.5q0 -24 -16.5 -40t-39.5 -16q-20 0 -34 13.5t-14 33.5q0 24 17 40t41 16z" />
    <glyph glyph-name="semicolon" unicode=";" horiz-adv-x="254" 
d="M135 49v-7q0 -34 -34 -85.5t-80 -85.5l-21 29q46 42 75 96q-40 7 -40 43q0 24 16.5 40t40.5 16q18 0 30.5 -13.5t12.5 -32.5zM140 485q21 0 33.5 -13.5t12.5 -33.5q0 -24 -16.5 -40t-39.5 -16q-20 0 -34 13.5t-14 33.5q0 24 17 40t41 16z" />
    <glyph glyph-name="less" unicode="&#x3c;" horiz-adv-x="428" 
d="M347 6l-43 -39l-284 324l364 324l33 -39l-313 -271l-4 -29z" />
    <glyph glyph-name="equal" unicode="=" horiz-adv-x="516" 
d="M69 319l7 54h396l-7 -54h-396zM49 169l7 54h396l-7 -54h-396z" />
    <glyph glyph-name="greater" unicode="&#x3e;" horiz-adv-x="428" 
d="M64 -33l-33 39l313 270l4 29l-247 271l43 39l284 -324z" />
    <glyph glyph-name="question" unicode="?" horiz-adv-x="451" 
d="M215 198h-60l13 98q5 43 37 68l116 102q27 24 38.5 43.5t11.5 46.5q0 37 -28.5 61.5t-80.5 24.5q-53 0 -89.5 -30t-42.5 -73h-61q8 67 65 113t137 46q78 0 119.5 -39t41.5 -99q0 -69 -71 -131l-112 -99q-19 -16 -22 -40zM170 91q19 0 31.5 -13t12.5 -32q0 -23 -16 -38.5
t-38 -15.5q-19 0 -32.5 13t-13.5 32q0 23 16.5 38.5t39.5 15.5z" />
    <glyph glyph-name="at" unicode="@" horiz-adv-x="847" 
d="M380 182q59 0 98.5 50.5t39.5 116.5q0 44 -22.5 72.5t-68.5 28.5q-59 0 -98 -47t-39 -109q0 -47 22 -79.5t68 -32.5zM739 383q0 105 -78 182t-199 77q-144 0 -249 -100t-105 -251q0 -125 83.5 -210.5t208.5 -85.5q86 0 173 51l32 -40q-104 -66 -210 -66q-147 0 -245 100
t-98 247q0 117 58 212.5t152.5 147t204.5 51.5q144 0 235 -91t91 -219q0 -65 -21.5 -123t-67 -97.5t-105.5 -39.5q-85 0 -95 70h-7q-49 -69 -126 -69q-60 0 -96.5 48t-36.5 114q0 89 54.5 150.5t143.5 61.5q75 0 114 -72h8l17 65h52l-68 -269q-2 -6 -2 -13q0 -30 50 -30
q55 0 93.5 63t38.5 136z" />
    <glyph glyph-name="A" unicode="A" horiz-adv-x="600" 
d="M548 0h-65l-47 205h-298l-90 -205h-67l306 690h99zM331 645l-167 -382h258l-88 382h-3z" />
    <glyph glyph-name="B" unicode="B" horiz-adv-x="625" 
d="M149 384h249q54 0 92 37t38 88t-38 87.5t-92 36.5h-216zM142 327l-36 -270h267q53 0 92 39.5t39 94.5q0 57 -38.5 96.5t-92.5 39.5h-231zM38 0l91 690h276q76 0 130.5 -52t54.5 -126q0 -52 -29 -91t-78 -57l-1 -11q37 -24 61 -68t24 -94q0 -80 -54 -135.5t-129 -55.5
h-346z" />
    <glyph glyph-name="C" unicode="C" horiz-adv-x="673" 
d="M315 -8q-61 0 -111.5 28t-83.5 75q-63 89 -63 219q0 151 76 256q91 128 245 128q124 0 196 -102q45 -63 54 -136h-64q-17 80 -60 125q-51 54 -129 54q-122 0 -194 -109q-61 -93 -61 -214q0 -116 55 -191q54 -74 144 -74q85 0 151 60q56 51 81 129h65q-13 -58 -56 -119
q-90 -129 -245 -129z" />
    <glyph glyph-name="D" unicode="D" horiz-adv-x="685" 
d="M109 57l203 1q118 0 190 102q61 88 61 215q0 107 -49 180q-54 78 -144 78h-186zM311 1l-273 -1l92 690h244q122 0 192 -99q60 -85 60 -214q0 -146 -74 -250q-90 -126 -241 -126z" />
    <glyph glyph-name="E" unicode="E" horiz-adv-x="618" 
d="M596 690l-7 -57h-406l-34 -255h366l-8 -57h-366l-35 -264h426l-7 -57h-487l91 690h467z" />
    <glyph glyph-name="F" unicode="F" horiz-adv-x="596" 
d="M596 690l-7 -57h-406l-34 -255h366l-8 -57h-366l-42 -321h-61l91 690h467z" />
    <glyph glyph-name="G" unicode="G" horiz-adv-x="670" 
d="M315 -8q-124 0 -195 103q-63 89 -63 219q0 151 76 256q93 128 245 128q117 0 190 -102q38 -53 38 -140h-61q0 65 -24 103q-51 80 -146 80q-120 0 -193 -104q-63 -89 -63 -220q0 -113 49 -184q56 -80 150 -80q115 0 188 104q36 50 43 141h-215l7 57h273l-47 -353h-61
l15 102q-42 -55 -89 -82.5t-117 -27.5z" />
    <glyph glyph-name="H" unicode="H" horiz-adv-x="688" 
d="M99 0h-61l91 690h61l-39 -299h398l39 299h61l-91 -690h-61l44 334h-398z" />
    <glyph glyph-name="I" unicode="I" horiz-adv-x="229" 
d="M38 0l91 690h61l-91 -690h-61z" />
    <glyph glyph-name="J" unicode="J" horiz-adv-x="525" 
d="M439 690h61l-60 -452q-32 -246 -244 -246q-177 0 -189 182l62 14q8 -137 133 -137q153 0 177 187z" />
    <glyph glyph-name="K" unicode="K" horiz-adv-x="609" 
d="M469 0l-209 330h-60l-65 -54l-36 -276h-61l91 690h61l-44 -337l399 337h81l-320 -270l-4 -33l245 -387h-78z" />
    <glyph glyph-name="L" unicode="L" horiz-adv-x="535" 
d="M190 690l-84 -633h375l-7 -57h-436l91 690h61z" />
    <glyph glyph-name="M" unicode="M" horiz-adv-x="798" 
d="M305 30l-123 598l-83 -628h-61l91 690h105l126 -607h8l286 607h105l-91 -690h-61l83 628l-281 -598h-104z" />
    <glyph glyph-name="N" unicode="N" horiz-adv-x="702" 
d="M602 690h61l-91 -690h-110l-274 647h-4l-85 -647h-61l91 690h110l273 -647h5z" />
    <glyph glyph-name="O" unicode="O" horiz-adv-x="695" 
d="M319 51q103 0 175 87q79 96 79 237q0 112 -51 186q-53 78 -148 78q-108 0 -179 -91q-75 -96 -75 -233q0 -111 53 -187q55 -77 146 -77zM315 -8q-124 0 -195 103q-63 89 -63 219q0 151 76 256q93 128 245 128q125 0 195 -102q63 -88 63 -219q0 -151 -76 -256
q-93 -129 -245 -129z" />
    <glyph glyph-name="P" unicode="P" horiz-adv-x="636" 
d="M413 286h-276l-37 -286h-62l90 690h319q75 0 121 -57t46 -143q0 -83 -61.5 -143.5t-139.5 -60.5zM182 633l-40 -290h268q54 0 97 43.5t43 101.5q0 61 -33.5 103t-86.5 42h-248z" />
    <glyph glyph-name="Q" unicode="Q" horiz-adv-x="695" 
d="M315 -8q-124 0 -195 103q-63 89 -63 219q0 151 76 256q93 128 245 128q125 0 195 -102q63 -88 63 -219q0 -151 -76 -256q-48 -66 -110 -98l62 -148l-55 -27l-65 153q-43 -9 -77 -9zM319 51q103 0 175 87q79 96 79 237q0 112 -51 186q-53 78 -148 78q-108 0 -179 -91
q-75 -96 -75 -233q0 -111 53 -187q55 -77 146 -77z" />
    <glyph glyph-name="R" unicode="R" horiz-adv-x="659" 
d="M612 497q0 -67 -45 -120t-110 -71l118 -306h-68l-113 301h-258l-37 -301h-61l90 690h316q75 0 121.5 -55t46.5 -138zM182 633l-39 -275h265q55 0 97.5 41t42.5 97q0 58 -33.5 97.5t-86.5 39.5h-246z" />
    <glyph glyph-name="S" unicode="S" horiz-adv-x="643" 
d="M344 698q100 0 168.5 -58.5t68.5 -136.5h-63q0 55 -53 95.5t-130 40.5q-64 0 -121.5 -35.5t-57.5 -97.5q0 -20 8 -37t23.5 -29t31.5 -20.5t40.5 -15t40.5 -10t40 -7.5q106 -19 166.5 -64.5t60.5 -135.5q0 -91 -78 -143t-198 -52q-32 0 -65 7t-67.5 24.5t-61.5 43t-44 66
t-17 90.5h63q0 -86 58.5 -129t140.5 -43q84 0 145.5 37t61.5 102q0 105 -190 139q-36 7 -62 13.5t-58.5 20.5t-52.5 32t-34 48t-14 69q0 84 77 135t173 51z" />
    <glyph glyph-name="T" unicode="T" horiz-adv-x="598" 
d="M612 690l-7 -57h-244l-84 -633h-61l84 633h-242l7 57h547z" />
    <glyph glyph-name="U" unicode="U" horiz-adv-x="668" 
d="M582 690h61l-58 -434q-18 -133 -86 -198.5t-204 -65.5q-65 0 -112.5 19t-74.5 52t-39.5 72.5t-12.5 85.5q0 27 3 46l57 423h61l-57 -417q-3 -19 -3 -39q0 -79 43.5 -131t138.5 -52q108 0 162 55t67 167z" />
    <glyph glyph-name="V" unicode="V" horiz-adv-x="597" 
d="M560 690h67l-325 -690h-99l-143 690h67l130 -645h3z" />
    <glyph glyph-name="W" unicode="W" horiz-adv-x="841" 
d="M461 614h-11l-219 -614h-93l-68 690h63l61 -626l212 596h111l54 -596l227 626h63l-250 -690h-93z" />
    <glyph glyph-name="X" unicode="X" horiz-adv-x="636" 
d="M649 690l-276 -314l-6 -46l203 -330h-76l-176 292h-15l-253 -292h-75l289 329l7 49l-193 312h76l164 -273h18l237 273h76z" />
    <glyph glyph-name="Y" unicode="Y" horiz-adv-x="575" 
d="M265 0h-61l42 322l-190 368h71l152 -301h13l232 301h71l-288 -368z" />
    <glyph glyph-name="Z" unicode="Z" horiz-adv-x="629" 
d="M538 0h-555l8 60l542 566l1 7h-435l8 57h511l-8 -59l-543 -567l-1 -7h480z" />
    <glyph glyph-name="bracketleft" unicode="[" horiz-adv-x="312" 
d="M343 726l-7 -54h-103l-102 -780h103l-7 -54h-162l116 888h162z" />
    <glyph glyph-name="backslash" unicode="\" horiz-adv-x="399" 
d="M72 690h69l206 -690h-69z" />
    <glyph glyph-name="bracketright" unicode="]" horiz-adv-x="312" 
d="M78 672l7 54h162l-116 -888h-162l7 54h103l102 780h-103z" />
    <glyph glyph-name="asciicircum" unicode="^" horiz-adv-x="472" 
d="M73 425l162 261h96l98 -261h-80l-71 213l-125 -213h-80z" />
    <glyph glyph-name="underscore" unicode="_" horiz-adv-x="453" 
d="M-34 -54l8 54h408l-8 -54h-408z" />
    <glyph glyph-name="grave" unicode="`" horiz-adv-x="303" 
d="M216 566l-162 101l46 60l149 -119z" />
    <glyph glyph-name="a" unicode="a" horiz-adv-x="596" 
d="M261 -8q-99 0 -155 74q-50 66 -50 167q0 112 60 191q71 93 194 93q114 0 170 -103h3l12 93h59l-65 -507h-59l10 89h-4q-37 -49 -75.5 -73t-99.5 -24zM267 48q92 0 149 74q47 63 47 153q0 80 -38 130q-41 56 -113 56q-93 0 -149 -73q-47 -63 -47 -154q0 -80 38 -130
q41 -56 113 -56z" />
    <glyph glyph-name="b" unicode="b" horiz-adv-x="599" 
d="M288 -8q-116 0 -168 97h-4l-12 -89h-59l91 696h59l-37 -282h3q44 57 79 80t98 23q98 0 154 -74q51 -66 51 -167q0 -110 -60 -189q-75 -95 -195 -95zM286 48q94 0 149 74q46 61 46 153q0 82 -37 130q-41 56 -112 56q-94 0 -150 -73q-46 -61 -46 -154q0 -80 37 -130
q41 -56 113 -56z" />
    <glyph glyph-name="c" unicode="c" horiz-adv-x="581" 
d="M270 -8q-103 0 -162 74q-52 65 -52 167q0 112 63 191q75 93 203 93q100 0 161 -75q40 -51 49 -126h-62q-9 60 -40 97q-40 48 -111 48q-98 0 -155 -75q-47 -62 -47 -152q0 -86 42 -137q41 -49 114 -49q66 0 113 35q42 31 65 84h65q-17 -46 -43 -80q-75 -95 -203 -95z" />
    <glyph glyph-name="d" unicode="d" horiz-adv-x="601" 
d="M261 -8q-99 0 -155 74q-50 66 -50 167q0 112 60 191q71 93 194 93q114 0 170 -103h3l37 282h59l-90 -696h-59l10 89h-3q-37 -48 -76 -72.5t-100 -24.5zM267 48q92 0 149 74q47 63 47 153q0 80 -38 130q-41 56 -113 56q-93 0 -149 -73q-47 -63 -47 -154q0 -80 38 -130
q41 -56 113 -56z" />
    <glyph glyph-name="e" unicode="e" horiz-adv-x="584" 
d="M270 -8q-99 0 -160 75q-54 67 -54 163q0 110 63 189q78 98 206 98q100 0 159 -77q47 -61 47 -172q0 -15 -3 -30h-410v-8q0 -76 38 -126q43 -56 115 -56q59 0 105 28q47 29 73 81l59 -16q-13 -28 -34 -55q-77 -94 -204 -94zM320 461q-72 0 -125 -47q-54 -47 -71 -124h345
q-2 79 -37 122q-39 49 -112 49z" />
    <glyph glyph-name="f" unicode="f" horiz-adv-x="350" 
d="M140 507l8 57q8 62 57.5 106t111.5 44q70 0 108 -55l-54 -28q-22 27 -61 27q-38 0 -68 -26.5t-35 -64.5l-8 -60h158l-7 -54h-158l-59 -453h-59l59 453h-119l7 54h119z" />
    <glyph glyph-name="g" unicode="g" horiz-adv-x="574" 
d="M434 225q11 76 11 97q0 68 -40.5 103.5t-100.5 35.5q-90 0 -141 -68q-45 -58 -45 -149q0 -78 36 -128q38 -51 100 -51q64 0 116.5 42t63.5 118zM405 -10l13 106q-50 -87 -167 -87q-87 0 -142 73q-52 62 -52 161q0 109 60 185q69 89 194 89q48 0 86 -22.5t59 -60.5h6
l10 73h59l-69 -533q-10 -77 -74 -128t-161 -51q-59 0 -113 30.5t-79 89.5l54 24q18 -44 58.5 -66t86.5 -22q73 0 118.5 41t52.5 98z" />
    <glyph glyph-name="h" unicode="h" horiz-adv-x="569" 
d="M351 461q-70 0 -136.5 -65.5t-80.5 -170.5l-30 -225h-59l91 696h59l-40 -300h4q38 55 92.5 88t113.5 33q60 0 102 -38t42 -92q0 -8 -1 -16l-48 -371h-59l47 361q1 6 1 14q0 31 -25 58.5t-73 27.5z" />
    <glyph glyph-name="i" unicode="i" horiz-adv-x="212" 
d="M43 0l66 507h59l-66 -507h-59zM162 687q18 0 29 -11.5t11 -29.5q0 -21 -14.5 -35t-34.5 -14q-18 0 -30 12t-12 29q0 21 15 35t36 14z" />
    <glyph glyph-name="j" unicode="j" horiz-adv-x="212" 
d="M168 507l-71 -552q-8 -66 -57.5 -113t-132.5 -47h-6l7 56h6q55 0 86 29.5t37 71.5l72 555h59zM162 687q18 0 29 -11.5t11 -29.5q0 -21 -14.5 -35t-34.5 -14q-18 0 -30 12t-12 29q0 21 15 35t36 14z" />
    <glyph glyph-name="k" unicode="k" horiz-adv-x="506" 
d="M104 0h-59l92 696h59l-50 -377h25l241 188h91l-206 -159l-2 -18l182 -330h-67l-163 295h-17l-97 -73z" />
    <glyph glyph-name="l" unicode="l" horiz-adv-x="218" 
d="M45 0l92 696h59l-92 -696h-59z" />
    <glyph glyph-name="m" unicode="m" horiz-adv-x="902" 
d="M101 0h-59l66 507h59l-15 -111h8q37 55 89 88t109 33q136 0 139 -121h10q37 55 88.5 88t108.5 33q37 0 64.5 -9.5t41 -23t21.5 -33t9.5 -33.5t1.5 -31q0 -3 -0.5 -9.5t-0.5 -7.5l-48 -370h-59l47 359l1 6v10q0 13 -3 25.5t-11.5 27.5t-29 24t-49.5 9q-67 0 -133 -63.5
t-79 -165.5l-30 -232h-59l47 359l1 6v10q0 13 -3 25.5t-12 27.5t-29 24t-49 9q-68 0 -133.5 -66.5t-79.5 -173.5z" />
    <glyph glyph-name="n" unicode="n" horiz-adv-x="566" 
d="M348 461q-70 0 -136.5 -65.5t-80.5 -170.5l-30 -225h-59l66 507h59l-15 -111h4q38 55 92.5 88t113.5 33q60 0 102 -38t42 -92q0 -8 -1 -16l-48 -371h-59l47 361q1 6 1 14q0 31 -25 58.5t-73 27.5z" />
    <glyph glyph-name="o" unicode="o" horiz-adv-x="592" 
d="M272 48q88 0 145 64q58 66 58 163q0 85 -40 135q-41 51 -115 51q-96 0 -154 -73q-49 -63 -49 -154q0 -80 36 -130q41 -56 119 -56zM270 -8q-103 0 -162 74q-52 65 -52 167q0 112 63 191q75 93 203 93q103 0 162 -74q52 -65 52 -167q0 -110 -63 -189q-78 -95 -203 -95z
" />
    <glyph glyph-name="p" unicode="p" horiz-adv-x="597" 
d="M336 517q99 0 155 -74q50 -66 50 -167q0 -112 -60 -191q-71 -93 -194 -93q-117 0 -170 97h-4l-35 -270h-59l89 688h59l-11 -93h3q39 51 77.5 77t99.5 26zM330 461q-92 0 -149 -74q-47 -63 -47 -153q0 -80 38 -130q41 -56 113 -56q93 0 149 73q47 63 47 154q0 80 -38 130
q-41 56 -113 56z" />
    <glyph glyph-name="q" unicode="q" horiz-adv-x="599" 
d="M311 517q111 0 167 -103h4l13 95h59l-90 -690h-59l35 270h-3q-42 -55 -77 -76t-99 -21q-98 0 -154 74q-51 66 -51 167q0 110 60 189q75 95 195 95zM313 461q-94 0 -149 -74q-46 -61 -46 -153q0 -82 37 -130q41 -56 112 -56q94 0 150 73q46 61 46 154q0 80 -37 130
q-41 56 -113 56z" />
    <glyph glyph-name="r" unicode="r" horiz-adv-x="383" 
d="M347 454q-70 0 -136.5 -65.5t-80.5 -170.5l-29 -218h-59l66 507h59l-16 -118h8q85 121 202 121q8 0 22 -2l-8 -57q-13 3 -28 3z" />
    <glyph glyph-name="s" unicode="s" horiz-adv-x="533" 
d="M263 233l-31 5q-30 4 -45 7.5t-38.5 14.5t-37.5 26q-33 36 -33 84q0 63 61 105q64 42 145 42t136 -45q48 -39 48 -101v-15h-61v10q0 42 -32 68q-38 27 -90 27q-63 0 -105 -28q-41 -24 -41 -64q0 -28 19 -47q24 -24 127 -36q118 -14 153 -47q36 -33 36 -82q0 -70 -64 -116
q-65 -49 -157 -49q-94 0 -154 47q-64 49 -64 117v7h61v-5q0 -21 12.5 -43.5t33.5 -35.5q48 -31 111 -31q60 0 113 32q47 29 47 75q0 30 -20 45q-9 7 -27 13t-30.5 8.5t-40 6.5t-32.5 5z" />
    <glyph glyph-name="t" unicode="t" horiz-adv-x="368" 
d="M191 453l-43 -323q-3 -15 -3 -29q0 -22 17.5 -37.5t44.5 -15.5q44 0 67 38l48 -27q-20 -30 -53 -48.5t-69 -18.5q-45 0 -80 28.5t-35 73.5q0 15 3 30l43 329h-105l6 54h106l17 133h59l-17 -133h150l-6 -54h-150z" />
    <glyph glyph-name="u" unicode="u" horiz-adv-x="564" 
d="M216 48q70 0 136.5 65.5t80.5 170.5l30 223h59l-66 -507h-59l14 107h-6q-81 -115 -203 -115q-60 0 -102 38t-42 92q0 8 1 16l48 369h59l-47 -359q-1 -6 -1 -14q0 -31 25 -58.5t73 -27.5z" />
    <glyph glyph-name="v" unicode="v" horiz-adv-x="524" 
d="M464 507h65l-254 -507h-94l-120 507h60l109 -461h4z" />
    <glyph glyph-name="w" unicode="w" horiz-adv-x="763" 
d="M401 427l-179 -427h-94l-66 507h61l58 -456h5l190 452h72l66 -452h5l184 456h61l-208 -507h-94z" />
    <glyph glyph-name="x" unicode="x" horiz-adv-x="502" 
d="M370 0l-122 218h-2l-178 -218h-75l216 258l3 17l-138 232h68l112 -197h2l165 197h77l-207 -237l-2 -14l149 -256h-68z" />
    <glyph glyph-name="y" unicode="y" horiz-adv-x="504" 
d="M31 -205q-26 0 -48 7l21 55q18 -6 31 -6q71 0 97 53l67 131l-143 472h62l116 -394h9l201 394h65l-321 -621q-47 -91 -157 -91z" />
    <glyph glyph-name="z" unicode="z" horiz-adv-x="506" 
d="M412 0h-412l4 54l366 396v3h-285l7 54h366l-7 -53l-366 -397v-3h334z" />
    <glyph glyph-name="braceleft" unicode="{" horiz-adv-x="289" 
d="M203 -106l-6 -56h-47q-31 0 -48.5 21t-17.5 60q0 15 1 23l27 221q1 5 1 14q0 52 -63 78l8 63q38 11 59.5 30t26.5 64l23 182q9 69 28.5 100.5t63.5 31.5h50l-6 -56h-23q-24 0 -33.5 -17.5t-17.5 -74.5l-23 -171q-12 -92 -86 -123q23 -13 40 -41.5t17 -58.5q0 -8 -1 -12
l-29 -218q-2 -16 -2 -22q0 -38 28 -38h30z" />
    <glyph glyph-name="bar" unicode="|" horiz-adv-x="314" 
d="M249 786l-117 -888h-60l117 888h60z" />
    <glyph glyph-name="braceright" unicode="}" horiz-adv-x="289" 
d="M86 670l6 56h47q31 0 48.5 -21t17.5 -60q0 -15 -1 -23l-27 -221q-1 -5 -1 -14q0 -52 63 -78l-8 -63q-38 -11 -59.5 -30t-26.5 -64l-23 -182q-9 -69 -28.5 -100.5t-63.5 -31.5h-50l6 56h23q24 0 33.5 17.5t17.5 74.5l23 171q12 92 86 123q-23 13 -40 41.5t-17 58.5
q0 8 1 12l29 218q2 16 2 22q0 38 -28 38h-30z" />
    <glyph glyph-name="asciitilde" unicode="~" horiz-adv-x="505" 
d="M79 214l-39 38q53 50 84.5 66.5t59.5 16.5q41 0 85 -29q30 -27 58 -30h-1q47 0 106 60l39 -38q-52 -50 -83.5 -66.5t-59.5 -16.5q-46 0 -82 27q-39 29 -61 32h1q-47 0 -107 -60z" />
    <glyph glyph-name="uni00A0" unicode="&#xa0;" horiz-adv-x="219" 
 />
    <glyph glyph-name="exclamdown" unicode="&#xa1;" horiz-adv-x="282" 
d="M119 289h38l-34 -458q-2 -17 -16 -29.5t-34 -12.5q-18 0 -29 11t-11 27v4zM153 396q-19 0 -31.5 13t-12.5 32q0 23 16 38.5t38 15.5q19 0 32.5 -13t13.5 -32q0 -23 -16.5 -38.5t-39.5 -15.5z" />
    <glyph glyph-name="cent" unicode="&#xa2;" horiz-adv-x="504" 
d="M244 0h-49l10 80q-63 11 -99.5 62.5t-36.5 132.5q0 86 54.5 149t134.5 69l10 79h49l-11 -81q56 -11 95 -53t43 -103h-62q-4 40 -26.5 65t-56.5 34l-38 -300q34 3 61.5 24.5t40.5 57.5h60q-15 -62 -59 -98.5t-110 -40.5zM129 272q0 -113 83 -135l39 300q-50 -8 -86 -55
t-36 -110z" />
    <glyph glyph-name="sterling" unicode="&#xa3;" horiz-adv-x="590" 
d="M435 266h-207q0 -6 1 -21t1 -24q0 -76 -67 -133q26 8 42 8q42 0 91.5 -19.5t83.5 -19.5t57 20t26 50h59q-6 -53 -46.5 -90t-92.5 -37q-41 0 -94 22.5t-89 22.5q-34 0 -58.5 -10t-63.5 -33l-4 -2l-24 42q51 33 86.5 83.5t35.5 113.5q0 9 -2 27h-97l6 50h90q-8 88 -8 102
q0 44 19 78t49 51.5t60 26t59 8.5q46 0 81 -15.5t52 -38.5t25 -43.5t8 -35.5v-4h-61q-1 28 -25.5 54.5t-81.5 26.5q-53 0 -89.5 -30.5t-36.5 -86.5q0 -18 5 -93h216z" />
    <glyph glyph-name="currency" unicode="&#xa4;" horiz-adv-x="530" 
d="M284 411q-57 0 -98.5 -38.5t-41.5 -97.5q0 -47 34 -80.5t83 -33.5q55 0 95 38.5t40 97.5q0 49 -30.5 81.5t-81.5 32.5zM292 467q61 0 104 -35l62 55l38 -43l-64 -55q22 -39 22 -86q0 -72 -45 -125l48 -50l-48 -43l-48 52q-47 -29 -105 -29q-62 0 -107 36l-68 -59l-38 43
l69 58q-25 39 -25 86q0 67 42 120l-47 52l48 43l46 -53q53 33 116 33z" />
    <glyph glyph-name="yen" unicode="&#xa5;" horiz-adv-x="541" 
d="M105 236l7 50h101l-138 286h64l130 -279l201 279h71l-215 -286h100l-7 -50h-127l-9 -70h127l-7 -50h-127l-15 -116h-60l15 116h-127l7 50h127l9 70h-127z" />
    <glyph glyph-name="brokenbar" unicode="&#xa6;" horiz-adv-x="314" 
d="M249 786l-46 -349h-60l46 349h60zM178 247l-46 -349h-60l46 349h60z" />
    <glyph glyph-name="section" unicode="&#xa7;" horiz-adv-x="427" 
d="M81 343q0 -38 37 -75l135 -120h14q72 33 72 89q0 38 -37 75l-135 120h-14q-72 -33 -72 -89zM228 98l-142 130q-66 58 -66 124q0 70 110 117q-31 35 -31 75t43 69.5t103 29.5t100.5 -29.5t40.5 -71.5h-60q0 19 -25.5 32t-60.5 13q-34 0 -57.5 -13t-23.5 -32q0 -27 33 -60
l142 -130q66 -58 66 -124q0 -70 -110 -117q31 -35 31 -75t-43 -69.5t-103 -29.5t-100.5 29.5t-40.5 71.5h60q0 -19 25.5 -32t60.5 -13q34 0 57.5 13t23.5 32q0 27 -33 60z" />
    <glyph glyph-name="dieresis" unicode="&#xa8;" horiz-adv-x="387" 
d="M293 686q18 0 29 -11.5t11 -29.5q0 -21 -14.5 -35t-34.5 -14q-18 0 -30 12t-12 29q0 21 15 35t36 14zM105 686q18 0 29 -11.5t11 -29.5q0 -21 -14.5 -35t-34.5 -14q-18 0 -30 12t-12 29q0 21 15 35t36 14z" />
    <glyph glyph-name="copyright" unicode="&#xa9;" horiz-adv-x="544" 
d="M358 303l41 -12q-28 -89 -115 -89q-54 0 -90.5 40t-36.5 103t37 103t90 40q42 0 72 -24t43 -66l-41 -12q-17 58 -74 58q-35 0 -58.5 -27.5t-23.5 -71.5q0 -45 23.5 -72t58.5 -27q58 0 74 57zM89 344q0 -80 57.5 -137.5t137.5 -57.5t138 57.5t58 137.5t-58 138t-138 58
t-137.5 -58t-57.5 -138zM45 344q0 99 70 169.5t169 70.5t169.5 -70.5t70.5 -169.5t-70.5 -169t-169.5 -70t-169 70t-70 169z" />
    <glyph glyph-name="ordfeminine" unicode="&#xaa;" horiz-adv-x="362" 
d="M178 410q-54 0 -86 41q-27 37 -27 91q0 62 33 105q41 51 106 51q61 0 93 -57h2l6 51h42l-35 -277h-43l6 49h-3q-20 -27 -41 -40.5t-53 -13.5zM184 453q47 0 75 36q23 30 23 74q0 36 -19 63q-21 28 -56 28q-47 0 -74 -36q-23 -32 -23 -75q0 -38 19 -63q20 -27 55 -27z" />
    <glyph glyph-name="guillemotleft" unicode="&#xab;" horiz-adv-x="488" 
d="M268 449l-164 -165l-1 -12l123 -165l-45 -38l-134 195l3 28l182 195zM468 449l-164 -165l-1 -12l123 -165l-45 -38l-134 195l3 28l182 195z" />
    <glyph glyph-name="logicalnot" unicode="&#xac;" horiz-adv-x="488" 
d="M47 254l7 54h388l-24 -181h-59l17 127h-329z" />
    <glyph glyph-name="uni00AD" unicode="&#xad;" horiz-adv-x="344" 
d="M35 214l6 54h258l-6 -54h-258z" />
    <glyph glyph-name="registered" unicode="&#xae;" horiz-adv-x="544" 
d="M389 408q0 -25 -16 -45.5t-41 -27.5l65 -122h-50l-63 116h-49v-116h-45v273h119q33 0 56.5 -23t23.5 -55zM235 444v-73h66q19 0 31 10.5t12 25.5q0 16 -12 26.5t-31 10.5h-66zM45 344q0 99 70 169.5t169 70.5t169.5 -70.5t70.5 -169.5t-70.5 -169t-169.5 -70t-169 70
t-70 169zM89 344q0 -80 57.5 -137.5t137.5 -57.5t138 57.5t58 137.5t-58 138t-138 58t-137.5 -58t-57.5 -138z" />
    <glyph glyph-name="macron" unicode="&#xaf;" horiz-adv-x="383" 
d="M54 616l7 54h268l-7 -54h-268z" />
    <glyph glyph-name="degree" unicode="&#xb0;" horiz-adv-x="299" 
d="M38 586q0 47 32.5 79.5t79.5 32.5t79 -32.5t32 -79.5q0 -46 -32.5 -78.5t-78.5 -32.5q-47 0 -79.5 32t-32.5 79zM84 586q0 -26 19 -45.5t47 -19.5q27 0 46 19.5t19 45.5q0 27 -19 46.5t-46 19.5q-28 0 -47 -19.5t-19 -46.5z" />
    <glyph glyph-name="plusminus" unicode="&#xb1;" horiz-adv-x="534" 
d="M67 300l7 54h176l24 178h59l-24 -178h175l-7 -54h-175l-23 -180h-59l23 180h-176zM31 8l7 54h408l-7 -54h-408z" />
    <glyph glyph-name="twosuperior" unicode="&#xb2;" horiz-adv-x="266" 
d="M79 449h141l-4 -42h-197l3 21q7 54 88 99q44 25 62.5 41t18.5 38q0 20 -12 32t-31 12t-35.5 -14.5t-16.5 -34.5h-47q0 39 31 67t72 28q36 0 61 -23.5t25 -58.5q0 -15 -2.5 -27t-9 -22t-11 -16.5t-17 -15t-18 -12t-22 -12.5t-21.5 -12q-47 -27 -58 -48z" />
    <glyph glyph-name="threesuperior" unicode="&#xb3;" horiz-adv-x="288" 
d="M133 532l5 42h16q18 0 32 11.5t14 28.5q0 14 -10.5 23t-26.5 9t-30 -11t-16 -25h-46q4 34 33 57.5t66 23.5q33 0 55.5 -20.5t22.5 -49.5q0 -25 -15 -42.5t-35 -25.5q16 -7 28 -22t12 -34q0 -41 -33.5 -70.5t-73.5 -29.5q-36 0 -60 22.5t-24 56.5l1 11l46 1v-5
q0 -17 12 -28.5t31 -11.5q22 0 39 14.5t17 36.5q0 16 -12 27t-31 11h-17z" />
    <glyph glyph-name="acute" unicode="&#xb4;" horiz-adv-x="319" 
d="M265 667l-190 -101l-21 42l179 119z" />
    <glyph glyph-name="mu" unicode="&#xb5;" horiz-adv-x="550" 
d="M254 -8q-30 0 -48 3t-45 19t-54 47l-29 -238h-59l84 684h59l-36 -296q-2 -13 -2 -35q0 -125 130 -125q64 0 109.5 66t59.5 180l26 210h59l-62 -507h-59l12 93h-4q-62 -101 -141 -101z" />
    <glyph glyph-name="paragraph" unicode="&#xb6;" horiz-adv-x="603" 
d="M154 -133l61 469q-65 0 -109 49.5t-44 122.5q0 74 58.5 128t141.5 54h327l-7 -54h-80l-101 -769h-59l101 769h-129l-101 -769h-59z" />
    <glyph glyph-name="periodcentered" unicode="&#xb7;" horiz-adv-x="294" 
d="M158 387q21 0 33.5 -13.5t12.5 -33.5q0 -24 -16.5 -40t-39.5 -16q-20 0 -34 13.5t-14 33.5q0 24 17 40t41 16z" />
    <glyph glyph-name="cedilla" unicode="&#xb8;" horiz-adv-x="293" 
d="M179 -119q0 36 -56 39l10 80h57l-6 -41q25 -8 40 -28.5t15 -44.5q0 -41 -30.5 -69t-73.5 -28q-29 0 -50.5 14t-30.5 38l55 25q7 -23 31 -23q17 0 28 11t11 27z" />
    <glyph glyph-name="onesuperior" unicode="&#xb9;" horiz-adv-x="197" 
d="M35 617l5 40q76 0 81 33h44l-37 -283h-46l29 227q-31 -17 -76 -17z" />
    <glyph glyph-name="ordmasculine" unicode="&#xba;" horiz-adv-x="370" 
d="M185 453q44 0 70 31q28 29 28 79q0 40 -19 65q-20 26 -56 26q-46 0 -74 -35q-24 -30 -24 -75q0 -41 18 -62q18 -29 57 -29zM183 410q-56 0 -89 40q-29 36 -29 93q0 59 35 104q41 51 110 51q57 0 90 -41q29 -36 29 -92q0 -58 -35 -103q-44 -52 -111 -52z" />
    <glyph glyph-name="guillemotright" unicode="&#xbb;" horiz-adv-x="488" 
d="M402 284l-122 165l44 38l134 -195l-3 -28l-182 -195l-35 38l163 165zM202 284l-122 165l44 38l134 -195l-3 -28l-182 -195l-35 38l163 165z" />
    <glyph glyph-name="onequarter" unicode="&#xbc;" 
d="M100 617l5 40q76 0 81 33h44l-37 -283h-46l29 227q-31 -17 -76 -17zM509 0h-45l8 65h-138l4 34l169 184h38l-23 -176h43l-5 -42h-43zM392 107h85l14 107zM538 690h57l-494 -690h-57z" />
    <glyph glyph-name="onehalf" unicode="&#xbd;" 
d="M100 617l5 40q76 0 81 33h44l-37 -283h-46l29 227q-31 -17 -76 -17zM417 42h141l-4 -42h-197l3 21q7 54 88 99q44 25 62.5 41t18.5 38q0 20 -12 32t-31 12t-35.5 -14.5t-16.5 -34.5h-47q0 39 31 67t72 28q36 0 61 -23.5t25 -58.5q0 -15 -2.5 -27t-9 -22t-11 -16.5
t-17 -15t-18 -12t-22 -12.5t-21.5 -12q-47 -27 -58 -48zM538 690h57l-494 -690h-57z" />
    <glyph glyph-name="threequarters" unicode="&#xbe;" 
d="M150 539l5 42h16q18 0 32 11.5t14 28.5q0 14 -10.5 23t-26.5 9t-30 -11t-16 -25h-46q4 34 33 57.5t66 23.5q33 0 55.5 -20.5t22.5 -49.5q0 -25 -15 -42.5t-35 -25.5q16 -7 28 -22t12 -34q0 -41 -33.5 -70.5t-73.5 -29.5q-36 0 -60 22.5t-24 56.5l1 12h46v-5
q0 -17 12 -28.5t31 -11.5q22 0 39 14.5t17 36.5q0 16 -12 27t-31 11h-17zM499 0h-45l8 65h-138l4 34l169 184h38l-23 -176h43l-5 -42h-43zM382 107h85l14 107zM538 690h57l-494 -690h-57z" />
    <glyph glyph-name="questiondown" unicode="&#xbf;" horiz-adv-x="385" 
d="M168 289h60l-13 -98q-5 -43 -37 -68l-116 -102q-27 -24 -38.5 -43.5t-11.5 -46.5q0 -37 28.5 -61.5t80.5 -24.5q53 0 89.5 30t42.5 73h61q-8 -67 -65 -113t-137 -46q-78 0 -119.5 39t-41.5 99q0 69 71 131l112 99q19 16 22 40zM213 396q-19 0 -31.5 13t-12.5 32
q0 23 16 38.5t38 15.5q19 0 32.5 -13t13.5 -32q0 -23 -16.5 -38.5t-39.5 -15.5z" />
    <glyph glyph-name="Agrave" unicode="&#xc0;" horiz-adv-x="600" 
d="M548 0h-65l-47 205h-298l-90 -205h-67l306 690h99zM331 645l-167 -382h258l-88 382h-3zM390 744l-184 80l40 67l171 -100z" />
    <glyph glyph-name="Aacute" unicode="&#xc1;" horiz-adv-x="600" 
d="M548 0h-65l-47 205h-298l-90 -205h-67l306 690h99zM331 645l-167 -382h258l-88 382h-3zM496 824l-204 -80l-15 47l197 100z" />
    <glyph glyph-name="Acircumflex" unicode="&#xc2;" horiz-adv-x="600" 
d="M548 0h-65l-47 205h-298l-90 -205h-67l306 690h99zM331 645l-167 -382h258l-88 382h-3zM329 899h49l120 -106l-45 -44l-101 91l-125 -91l-36 50z" />
    <glyph glyph-name="Atilde" unicode="&#xc3;" horiz-adv-x="600" 
d="M548 0h-65l-47 205h-298l-90 -205h-67l306 690h99zM331 645l-167 -382h258l-88 382h-3zM186 774l2 21q4 38 33.5 63.5t66.5 25.5q24 0 44.5 -9.5t31.5 -21t23 -21t22 -9.5q31 0 34 30l2 21h63l-2 -21q-4 -38 -33 -63.5t-67 -25.5q-24 0 -44.5 9.5t-31.5 21t-23 21
t-22 9.5q-31 0 -34 -30l-2 -21h-63z" />
    <glyph glyph-name="Adieresis" unicode="&#xc4;" horiz-adv-x="600" 
d="M548 0h-65l-47 205h-298l-90 -205h-67l306 690h99zM331 645l-167 -382h258l-88 382h-3zM259 872q18 0 30 -12.5t12 -30.5q0 -23 -15 -37.5t-37 -14.5q-19 0 -31.5 12.5t-12.5 30.5q0 23 16 37.5t38 14.5zM452 872q18 0 30 -12.5t12 -30.5q0 -23 -15 -37.5t-37 -14.5
q-19 0 -31.5 12.5t-12.5 30.5q0 23 16 37.5t38 14.5z" />
    <glyph glyph-name="Aring" unicode="&#xc5;" horiz-adv-x="600" 
d="M548 0h-65l-47 205h-298l-90 -205h-67l306 690h99zM331 645l-167 -382h258l-88 382h-3zM362 928q41 0 67 -27.5t26 -68.5q0 -49 -34 -81.5t-80 -32.5q-42 0 -70 27.5t-28 68.5q0 49 35.5 81.5t83.5 32.5zM356 876q-25 0 -42.5 -16.5t-17.5 -41.5q0 -20 14 -34t35 -14
q24 0 41 16.5t17 41.5q0 21 -13 34.5t-34 13.5z" />
    <glyph glyph-name="AE" unicode="&#xc6;" horiz-adv-x="981" 
d="M450 0l28 205h-287l-141 -205h-69l467 690h511l-8 -57h-356l-34 -255h316l-7 -57h-316l-35 -264h376l-8 -57h-437zM477 633l-248 -371h257l48 371h-57z" />
    <glyph glyph-name="Ccedilla" unicode="&#xc7;" horiz-adv-x="673" 
d="M560 121q-78 -113 -209 -127l-4 -28q26 -9 41.5 -30t15.5 -47q0 -42 -33 -71t-78 -29q-65 0 -87 54l59 27q7 -25 33 -25q19 0 30.5 12t11.5 30q0 35 -59 38l9 68q-108 10 -170 102q-63 89 -63 219q0 151 76 256q91 128 245 128q124 0 196 -102q45 -63 54 -136h-64
q-17 80 -60 125q-51 54 -129 54q-122 0 -194 -109q-61 -93 -61 -214q0 -116 55 -191q54 -74 144 -74q85 0 151 60q56 51 81 129h65q-13 -58 -56 -119z" />
    <glyph glyph-name="Egrave" unicode="&#xc8;" horiz-adv-x="618" 
d="M596 690l-7 -57h-406l-34 -255h366l-8 -57h-366l-35 -264h426l-7 -57h-487l91 690h467zM409 744l-184 80l40 67l171 -100z" />
    <glyph glyph-name="Eacute" unicode="&#xc9;" horiz-adv-x="618" 
d="M596 690l-7 -57h-406l-34 -255h366l-8 -57h-366l-35 -264h426l-7 -57h-487l91 690h467zM534 824l-204 -80l-15 47l197 100z" />
    <glyph glyph-name="Ecircumflex" unicode="&#xca;" horiz-adv-x="618" 
d="M596 690l-7 -57h-406l-34 -255h366l-8 -57h-366l-35 -264h426l-7 -57h-487l91 690h467zM355 899h49l120 -106l-45 -44l-101 91l-125 -91l-36 50z" />
    <glyph glyph-name="Edieresis" unicode="&#xcb;" horiz-adv-x="618" 
d="M596 690l-7 -57h-406l-34 -255h366l-8 -57h-366l-35 -264h426l-7 -57h-487l91 690h467zM284 872q18 0 30 -12.5t12 -30.5q0 -23 -15 -37.5t-37 -14.5q-19 0 -31.5 12.5t-12.5 30.5q0 23 16 37.5t38 14.5zM477 872q18 0 30 -12.5t12 -30.5q0 -23 -15 -37.5t-37 -14.5
q-19 0 -31.5 12.5t-12.5 30.5q0 23 16 37.5t38 14.5z" />
    <glyph glyph-name="Igrave" unicode="&#xcc;" horiz-adv-x="229" 
d="M38 0l91 690h61l-91 -690h-61zM186 744l-184 80l40 67l171 -100z" />
    <glyph glyph-name="Iacute" unicode="&#xcd;" horiz-adv-x="229" 
d="M38 0l91 690h61l-91 -690h-61zM349 824l-204 -80l-15 47l197 100z" />
    <glyph glyph-name="Icircumflex" unicode="&#xce;" horiz-adv-x="229" 
d="M38 0l91 690h61l-91 -690h-61zM155 899h49l120 -106l-45 -44l-101 91l-125 -91l-36 50z" />
    <glyph glyph-name="Idieresis" unicode="&#xcf;" horiz-adv-x="229" 
d="M38 0l91 690h61l-91 -690h-61zM79 872q18 0 30 -12.5t12 -30.5q0 -23 -15 -37.5t-37 -14.5q-19 0 -31.5 12.5t-12.5 30.5q0 23 16 37.5t38 14.5zM272 872q18 0 30 -12.5t12 -30.5q0 -23 -15 -37.5t-37 -14.5q-19 0 -31.5 12.5t-12.5 30.5q0 23 16 37.5t38 14.5z" />
    <glyph glyph-name="Eth" unicode="&#xd0;" horiz-adv-x="700" 
d="M326 1l-273 -1l42 317h-57l7 57h58l42 316h244q122 0 192 -99q60 -85 60 -214q0 -146 -74 -250q-90 -126 -241 -126zM124 57l203 1q118 0 190 102q61 88 61 215q0 107 -49 180q-54 78 -144 78h-186l-34 -259h175l-7 -57h-175z" />
    <glyph glyph-name="Ntilde" unicode="&#xd1;" horiz-adv-x="702" 
d="M602 690h61l-91 -690h-110l-274 647h-4l-85 -647h-61l91 690h110l273 -647h5zM245 774l2 21q4 38 33.5 63.5t66.5 25.5q24 0 44.5 -9.5t31.5 -21t23 -21t22 -9.5q31 0 34 30l2 21h63l-2 -21q-4 -38 -33 -63.5t-67 -25.5q-24 0 -44.5 9.5t-31.5 21t-23 21t-22 9.5
q-31 0 -34 -30l-2 -21h-63z" />
    <glyph glyph-name="Ograve" unicode="&#xd2;" horiz-adv-x="695" 
d="M319 51q103 0 175 87q79 96 79 237q0 112 -51 186q-53 78 -148 78q-108 0 -179 -91q-75 -96 -75 -233q0 -111 53 -187q55 -77 146 -77zM315 -8q-124 0 -195 103q-63 89 -63 219q0 151 76 256q93 128 245 128q125 0 195 -102q63 -88 63 -219q0 -151 -76 -256
q-93 -129 -245 -129zM441 744l-184 80l40 67l171 -100z" />
    <glyph glyph-name="Oacute" unicode="&#xd3;" horiz-adv-x="695" 
d="M319 51q103 0 175 87q79 96 79 237q0 112 -51 186q-53 78 -148 78q-108 0 -179 -91q-75 -96 -75 -233q0 -111 53 -187q55 -77 146 -77zM315 -8q-124 0 -195 103q-63 89 -63 219q0 151 76 256q93 128 245 128q125 0 195 -102q63 -88 63 -219q0 -151 -76 -256
q-93 -129 -245 -129zM528 824l-204 -80l-15 47l197 100z" />
    <glyph glyph-name="Ocircumflex" unicode="&#xd4;" horiz-adv-x="695" 
d="M319 51q103 0 175 87q79 96 79 237q0 112 -51 186q-53 78 -148 78q-108 0 -179 -91q-75 -96 -75 -233q0 -111 53 -187q55 -77 146 -77zM315 -8q-124 0 -195 103q-63 89 -63 219q0 151 76 256q93 128 245 128q125 0 195 -102q63 -88 63 -219q0 -151 -76 -256
q-93 -129 -245 -129zM371 899h49l120 -106l-45 -44l-101 91l-125 -91l-36 50z" />
    <glyph glyph-name="Otilde" unicode="&#xd5;" horiz-adv-x="695" 
d="M319 51q103 0 175 87q79 96 79 237q0 112 -51 186q-53 78 -148 78q-108 0 -179 -91q-75 -96 -75 -233q0 -111 53 -187q55 -77 146 -77zM315 -8q-124 0 -195 103q-63 89 -63 219q0 151 76 256q93 128 245 128q125 0 195 -102q63 -88 63 -219q0 -151 -76 -256
q-93 -129 -245 -129zM236 774l2 21q4 38 33.5 63.5t66.5 25.5q24 0 44.5 -9.5t31.5 -21t23 -21t22 -9.5q31 0 34 30l2 21h63l-2 -21q-4 -38 -33 -63.5t-67 -25.5q-24 0 -44.5 9.5t-31.5 21t-23 21t-22 9.5q-31 0 -34 -30l-2 -21h-63z" />
    <glyph glyph-name="Odieresis" unicode="&#xd6;" horiz-adv-x="695" 
d="M319 51q103 0 175 87q79 96 79 237q0 112 -51 186q-53 78 -148 78q-108 0 -179 -91q-75 -96 -75 -233q0 -111 53 -187q55 -77 146 -77zM315 -8q-124 0 -195 103q-63 89 -63 219q0 151 76 256q93 128 245 128q125 0 195 -102q63 -88 63 -219q0 -151 -76 -256
q-93 -129 -245 -129zM304 872q18 0 30 -12.5t12 -30.5q0 -23 -15 -37.5t-37 -14.5q-19 0 -31.5 12.5t-12.5 30.5q0 23 16 37.5t38 14.5zM497 872q18 0 30 -12.5t12 -30.5q0 -23 -15 -37.5t-37 -14.5q-19 0 -31.5 12.5t-12.5 30.5q0 23 16 37.5t38 14.5z" />
    <glyph glyph-name="multiply" unicode="&#xd7;" horiz-adv-x="539" 
d="M91 443l44 39l133 -159h19l174 159l34 -39l-179 -154l-2 -19l139 -153l-44 -39l-134 159h-19l-173 -159l-34 39l179 153l2 19z" />
    <glyph glyph-name="Oslash" unicode="&#xd8;" horiz-adv-x="695" 
d="M315 -8q-69 0 -122 33l-56 -96l-49 25l61 105q-13 13 -29 36q-63 89 -63 219q0 151 76 256q93 128 245 128q68 0 123 -34l56 96l49 -25l-61 -105q14 -16 28 -34q63 -88 63 -219q0 -151 -76 -256q-93 -129 -245 -129zM173 128l9 -12l289 496q-41 27 -97 27
q-108 0 -179 -91q-75 -96 -75 -233q0 -111 53 -187zM319 51q103 0 175 87q79 96 79 237q0 112 -51 186q-9 12 -10 13l-289 -496q41 -27 96 -27z" />
    <glyph glyph-name="Ugrave" unicode="&#xd9;" horiz-adv-x="668" 
d="M582 690h61l-58 -434q-18 -133 -86 -198.5t-204 -65.5q-65 0 -112.5 19t-74.5 52t-39.5 72.5t-12.5 85.5q0 27 3 46l57 423h61l-57 -417q-3 -19 -3 -39q0 -79 43.5 -131t138.5 -52q108 0 162 55t67 167zM459 744l-184 80l40 67l171 -100z" />
    <glyph glyph-name="Uacute" unicode="&#xda;" horiz-adv-x="668" 
d="M582 690h61l-58 -434q-18 -133 -86 -198.5t-204 -65.5q-65 0 -112.5 19t-74.5 52t-39.5 72.5t-12.5 85.5q0 27 3 46l57 423h61l-57 -417q-3 -19 -3 -39q0 -79 43.5 -131t138.5 -52q108 0 162 55t67 167zM546 824l-204 -80l-15 47l197 100z" />
    <glyph glyph-name="Ucircumflex" unicode="&#xdb;" horiz-adv-x="668" 
d="M582 690h61l-58 -434q-18 -133 -86 -198.5t-204 -65.5q-65 0 -112.5 19t-74.5 52t-39.5 72.5t-12.5 85.5q0 27 3 46l57 423h61l-57 -417q-3 -19 -3 -39q0 -79 43.5 -131t138.5 -52q108 0 162 55t67 167zM376 899h49l120 -106l-45 -44l-101 91l-125 -91l-36 50z" />
    <glyph glyph-name="Udieresis" unicode="&#xdc;" horiz-adv-x="668" 
d="M582 690h61l-58 -434q-18 -133 -86 -198.5t-204 -65.5q-65 0 -112.5 19t-74.5 52t-39.5 72.5t-12.5 85.5q0 27 3 46l57 423h61l-57 -417q-3 -19 -3 -39q0 -79 43.5 -131t138.5 -52q108 0 162 55t67 167zM307 872q18 0 30 -12.5t12 -30.5q0 -23 -15 -37.5t-37 -14.5
q-19 0 -31.5 12.5t-12.5 30.5q0 23 16 37.5t38 14.5zM500 872q18 0 30 -12.5t12 -30.5q0 -23 -15 -37.5t-37 -14.5q-19 0 -31.5 12.5t-12.5 30.5q0 23 16 37.5t38 14.5z" />
    <glyph glyph-name="Yacute" unicode="&#xdd;" horiz-adv-x="575" 
d="M265 0h-61l42 322l-190 368h71l152 -301h13l232 301h71l-288 -368zM487 824l-204 -80l-15 47l197 100z" />
    <glyph glyph-name="Thorn" unicode="&#xde;" horiz-adv-x="572" 
d="M349 146h-230l-19 -146h-62l90 690h62l-19 -140h212q75 0 121 -57t46 -143q0 -83 -61.5 -143.5t-139.5 -60.5zM164 493l-40 -290h222q54 0 97 43.5t43 101.5q0 61 -33.5 103t-86.5 42h-202z" />
    <glyph glyph-name="germandbls" unicode="&#xdf;" horiz-adv-x="551" 
d="M234 349l7 54h33q54 0 100 42.5t46 97.5q0 21 -4.5 39t-16 37t-37 30.5t-61.5 11.5q-49 0 -90.5 -38.5t-48.5 -89.5l-71 -533h-81l7 54h22l64 479q11 81 68 132.5t139 51.5q78 0 124.5 -47.5t46.5 -126.5q0 -48 -33 -88t-78 -67l-1 -9q58 -26 88.5 -65t30.5 -108
q0 -85 -73 -149.5t-166 -64.5q-39 0 -64 7l11 54q18 -5 56 -5q64 0 119.5 48.5t55.5 111.5q0 64 -39 102.5t-107 38.5h-47z" />
    <glyph glyph-name="agrave" unicode="&#xe0;" horiz-adv-x="596" 
d="M261 -8q-99 0 -155 74q-50 66 -50 167q0 112 60 191q71 93 194 93q114 0 170 -103h3l12 93h59l-65 -507h-59l10 89h-4q-37 -49 -75.5 -73t-99.5 -24zM267 48q92 0 149 74q47 63 47 153q0 80 -38 130q-41 56 -113 56q-93 0 -149 -73q-47 -63 -47 -154q0 -80 38 -130
q41 -56 113 -56zM367 566l-162 101l46 60l149 -119z" />
    <glyph glyph-name="aacute" unicode="&#xe1;" horiz-adv-x="596" 
d="M261 -8q-99 0 -155 74q-50 66 -50 167q0 112 60 191q71 93 194 93q114 0 170 -103h3l12 93h59l-65 -507h-59l10 89h-4q-37 -49 -75.5 -73t-99.5 -24zM267 48q92 0 149 74q47 63 47 153q0 80 -38 130q-41 56 -113 56q-93 0 -149 -73q-47 -63 -47 -154q0 -80 38 -130
q41 -56 113 -56zM464 667l-190 -101l-21 42l179 119z" />
    <glyph glyph-name="acircumflex" unicode="&#xe2;" horiz-adv-x="596" 
d="M261 -8q-99 0 -155 74q-50 66 -50 167q0 112 60 191q71 93 194 93q114 0 170 -103h3l12 93h59l-65 -507h-59l10 89h-4q-37 -49 -75.5 -73t-99.5 -24zM267 48q92 0 149 74q47 63 47 153q0 80 -38 130q-41 56 -113 56q-93 0 -149 -73q-47 -63 -47 -154q0 -80 38 -130
q41 -56 113 -56zM319 718h49l106 -108l-42 -42l-91 94l-115 -94l-36 46z" />
    <glyph glyph-name="atilde" unicode="&#xe3;" horiz-adv-x="596" 
d="M261 -8q-99 0 -155 74q-50 66 -50 167q0 112 60 191q71 93 194 93q114 0 170 -103h3l12 93h59l-65 -507h-59l10 89h-4q-37 -49 -75.5 -73t-99.5 -24zM267 48q92 0 149 74q47 63 47 153q0 80 -38 130q-41 56 -113 56q-93 0 -149 -73q-47 -63 -47 -154q0 -80 38 -130
q41 -56 113 -56zM178 596l3 19q4 37 33 61.5t65 24.5q29 0 49.5 -14.5t34.5 -29.5t27 -15t23.5 7.5t11.5 21.5l3 19h59l-3 -19q-4 -37 -33 -61.5t-65 -24.5q-29 0 -49.5 14.5t-34.5 29.5t-27 15t-23.5 -7.5t-11.5 -21.5l-3 -19h-59z" />
    <glyph glyph-name="adieresis" unicode="&#xe4;" horiz-adv-x="596" 
d="M261 -8q-99 0 -155 74q-50 66 -50 167q0 112 60 191q71 93 194 93q114 0 170 -103h3l12 93h59l-65 -507h-59l10 89h-4q-37 -49 -75.5 -73t-99.5 -24zM267 48q92 0 149 74q47 63 47 153q0 80 -38 130q-41 56 -113 56q-93 0 -149 -73q-47 -63 -47 -154q0 -80 38 -130
q41 -56 113 -56zM433 687q18 0 29 -11.5t11 -29.5q0 -21 -14.5 -35t-34.5 -14q-18 0 -30 12t-12 29q0 21 15 35t36 14zM245 687q18 0 29 -11.5t11 -29.5q0 -21 -14.5 -35t-34.5 -14q-18 0 -30 12t-12 29q0 21 15 35t36 14z" />
    <glyph glyph-name="aring" unicode="&#xe5;" horiz-adv-x="596" 
d="M261 -8q-99 0 -155 74q-50 66 -50 167q0 112 60 191q71 93 194 93q114 0 170 -103h3l12 93h59l-65 -507h-59l10 89h-4q-37 -49 -75.5 -73t-99.5 -24zM267 48q92 0 149 74q47 63 47 153q0 80 -38 130q-41 56 -113 56q-93 0 -149 -73q-47 -63 -47 -154q0 -80 38 -130
q41 -56 113 -56zM354 760q40 0 66 -27.5t26 -65.5q0 -48 -33 -80.5t-78 -32.5q-39 0 -67.5 28t-28.5 66q0 49 33.5 80.5t81.5 31.5zM351 708q-25 0 -42 -15.5t-17 -40.5q0 -19 14 -32.5t33 -13.5q24 0 40 16t16 41q0 18 -12.5 31.5t-31.5 13.5z" />
    <glyph glyph-name="ae" unicode="&#xe6;" horiz-adv-x="931" 
d="M624 -8q-96 0 -156 75q-10 12 -17 24h-18q-46 -50 -100 -74.5t-100 -24.5h-7q-170 0 -170 148q0 67 58.5 108.5t124.5 41.5h181l9 76q0 1 0.5 5t0.5 6q0 33 -25.5 58.5t-90.5 25.5q-38 0 -66.5 -9t-43.5 -21.5t-24 -27.5t-11.5 -24t-2.5 -15h-59q0 7 3.5 21.5t17 38.5
t35 43.5t63.5 34.5t97 15q76 0 115 -26t48 -65q78 91 191 91q98 0 155 -77q46 -62 46 -172q0 -15 -3 -30h-404q0 -83 37 -134q43 -56 113 -56q59 0 103 28q46 28 72 81l60 -16q-13 -28 -34 -55q-73 -94 -198 -94zM406 174l8 64h-163q-60 0 -98 -25.5t-38 -71.5
q0 -93 123 -93q57 0 109 37.5t59 88.5zM670 461q-70 0 -122 -47q-53 -45 -70 -124h338q-2 78 -36 122q-39 49 -110 49z" />
    <glyph glyph-name="ccedilla" unicode="&#xe7;" horiz-adv-x="581" 
d="M473 87q-66 -84 -176 -94l-5 -34q25 -8 40 -28.5t15 -44.5q0 -41 -30.5 -69t-73.5 -28q-29 0 -50.5 14t-30.5 38l55 25q7 -23 31 -23q17 0 28 11t11 27q0 36 -56 39l9 74q-83 10 -132 72q-52 65 -52 167q0 112 63 191q75 93 203 93q100 0 161 -75q40 -51 49 -126h-62
q-9 60 -40 97q-40 48 -111 48q-98 0 -155 -75q-47 -62 -47 -152q0 -86 42 -137q41 -49 114 -49q66 0 113 35q42 31 65 84h65q-17 -46 -43 -80z" />
    <glyph glyph-name="egrave" unicode="&#xe8;" horiz-adv-x="584" 
d="M270 -8q-99 0 -160 75q-54 67 -54 163q0 110 63 189q78 98 206 98q100 0 159 -77q47 -61 47 -172q0 -15 -3 -30h-410v-8q0 -76 38 -126q43 -56 115 -56q59 0 105 28q47 29 73 81l59 -16q-13 -28 -34 -55q-77 -94 -204 -94zM320 461q-72 0 -125 -47q-54 -47 -71 -124h345
q-2 79 -37 122q-39 49 -112 49zM367 566l-162 101l46 60l149 -119z" />
    <glyph glyph-name="eacute" unicode="&#xe9;" horiz-adv-x="584" 
d="M270 -8q-99 0 -160 75q-54 67 -54 163q0 110 63 189q78 98 206 98q100 0 159 -77q47 -61 47 -172q0 -15 -3 -30h-410v-8q0 -76 38 -126q43 -56 115 -56q59 0 105 28q47 29 73 81l59 -16q-13 -28 -34 -55q-77 -94 -204 -94zM320 461q-72 0 -125 -47q-54 -47 -71 -124h345
q-2 79 -37 122q-39 49 -112 49zM464 667l-190 -101l-21 42l179 119z" />
    <glyph glyph-name="ecircumflex" unicode="&#xea;" horiz-adv-x="584" 
d="M270 -8q-99 0 -160 75q-54 67 -54 163q0 110 63 189q78 98 206 98q100 0 159 -77q47 -61 47 -172q0 -15 -3 -30h-410v-8q0 -76 38 -126q43 -56 115 -56q59 0 105 28q47 29 73 81l59 -16q-13 -28 -34 -55q-77 -94 -204 -94zM320 461q-72 0 -125 -47q-54 -47 -71 -124h345
q-2 79 -37 122q-39 49 -112 49zM319 718h49l106 -108l-42 -42l-91 94l-115 -94l-36 46z" />
    <glyph glyph-name="edieresis" unicode="&#xeb;" horiz-adv-x="584" 
d="M270 -8q-99 0 -160 75q-54 67 -54 163q0 110 63 189q78 98 206 98q100 0 159 -77q47 -61 47 -172q0 -15 -3 -30h-410v-8q0 -76 38 -126q43 -56 115 -56q59 0 105 28q47 29 73 81l59 -16q-13 -28 -34 -55q-77 -94 -204 -94zM320 461q-72 0 -125 -47q-54 -47 -71 -124h345
q-2 79 -37 122q-39 49 -112 49zM433 687q18 0 29 -11.5t11 -29.5q0 -21 -14.5 -35t-34.5 -14q-18 0 -30 12t-12 29q0 21 15 35t36 14zM245 687q18 0 29 -11.5t11 -29.5q0 -21 -14.5 -35t-34.5 -14q-18 0 -30 12t-12 29q0 21 15 35t36 14z" />
    <glyph glyph-name="igrave" unicode="&#xec;" horiz-adv-x="212" 
d="M43 0l66 507h59l-66 -507h-59zM176 566l-162 101l46 60l149 -119z" />
    <glyph glyph-name="iacute" unicode="&#xed;" horiz-adv-x="212" 
d="M43 0l66 507h59l-66 -507h-59zM307 667l-190 -101l-21 42l179 119z" />
    <glyph glyph-name="icircumflex" unicode="&#xee;" horiz-adv-x="212" 
d="M43 0l66 507h59l-66 -507h-59zM137 718h49l106 -108l-42 -42l-91 94l-115 -94l-36 46z" />
    <glyph glyph-name="idieresis" unicode="&#xef;" horiz-adv-x="212" 
d="M43 0l66 507h59l-66 -507h-59zM255 686q18 0 29 -11.5t11 -29.5q0 -21 -14.5 -35t-34.5 -14q-18 0 -30 12t-12 29q0 21 15 35t36 14zM67 686q18 0 29 -11.5t11 -29.5q0 -21 -14.5 -35t-34.5 -14q-18 0 -30 12t-12 29q0 21 15 35t36 14z" />
    <glyph glyph-name="eth" unicode="&#xf0;" horiz-adv-x="592" 
d="M232 543l-31 35l101 53q-39 28 -86 53l44 35q55 -30 95 -60l112 59l31 -35l-105 -56q143 -132 143 -351q0 -110 -63 -189q-78 -95 -203 -95q-103 0 -162 74q-52 65 -52 167q0 112 63 191q75 93 203 93q57 0 121 -40q-31 59 -102 123zM273 48q94 0 153 74q48 62 48 153
q0 80 -38 130q-43 56 -117 56q-95 0 -153 -73q-48 -62 -48 -154q0 -80 38 -130q43 -56 117 -56z" />
    <glyph glyph-name="ntilde" unicode="&#xf1;" horiz-adv-x="566" 
d="M348 461q-70 0 -136.5 -65.5t-80.5 -170.5l-30 -225h-59l66 507h59l-15 -111h4q38 55 92.5 88t113.5 33q60 0 102 -38t42 -92q0 -8 -1 -16l-48 -371h-59l47 361q1 6 1 14q0 31 -25 58.5t-73 27.5zM178 596l3 19q4 37 33 61.5t65 24.5q29 0 49.5 -14.5t34.5 -29.5t27 -15
t23.5 7.5t11.5 21.5l3 19h59l-3 -19q-4 -37 -33 -61.5t-65 -24.5q-29 0 -49.5 14.5t-34.5 29.5t-27 15t-23.5 -7.5t-11.5 -21.5l-3 -19h-59z" />
    <glyph glyph-name="ograve" unicode="&#xf2;" horiz-adv-x="592" 
d="M272 48q88 0 145 64q58 66 58 163q0 85 -40 135q-41 51 -115 51q-96 0 -154 -73q-49 -63 -49 -154q0 -80 36 -130q41 -56 119 -56zM270 -8q-103 0 -162 74q-52 65 -52 167q0 112 63 191q75 93 203 93q103 0 162 -74q52 -65 52 -167q0 -110 -63 -189q-78 -95 -203 -95z
M367 566l-162 101l46 60l149 -119z" />
    <glyph glyph-name="oacute" unicode="&#xf3;" horiz-adv-x="592" 
d="M272 48q88 0 145 64q58 66 58 163q0 85 -40 135q-41 51 -115 51q-96 0 -154 -73q-49 -63 -49 -154q0 -80 36 -130q41 -56 119 -56zM270 -8q-103 0 -162 74q-52 65 -52 167q0 112 63 191q75 93 203 93q103 0 162 -74q52 -65 52 -167q0 -110 -63 -189q-78 -95 -203 -95z
M464 667l-190 -101l-21 42l179 119z" />
    <glyph glyph-name="ocircumflex" unicode="&#xf4;" horiz-adv-x="592" 
d="M272 48q88 0 145 64q58 66 58 163q0 85 -40 135q-41 51 -115 51q-96 0 -154 -73q-49 -63 -49 -154q0 -80 36 -130q41 -56 119 -56zM270 -8q-103 0 -162 74q-52 65 -52 167q0 112 63 191q75 93 203 93q103 0 162 -74q52 -65 52 -167q0 -110 -63 -189q-78 -95 -203 -95z
M319 718h49l106 -108l-42 -42l-91 94l-115 -94l-36 46z" />
    <glyph glyph-name="otilde" unicode="&#xf5;" horiz-adv-x="592" 
d="M272 48q88 0 145 64q58 66 58 163q0 85 -40 135q-41 51 -115 51q-96 0 -154 -73q-49 -63 -49 -154q0 -80 36 -130q41 -56 119 -56zM270 -8q-103 0 -162 74q-52 65 -52 167q0 112 63 191q75 93 203 93q103 0 162 -74q52 -65 52 -167q0 -110 -63 -189q-78 -95 -203 -95z
M178 596l3 19q4 37 33 61.5t65 24.5q29 0 49.5 -14.5t34.5 -29.5t27 -15t23.5 7.5t11.5 21.5l3 19h59l-3 -19q-4 -37 -33 -61.5t-65 -24.5q-29 0 -49.5 14.5t-34.5 29.5t-27 15t-23.5 -7.5t-11.5 -21.5l-3 -19h-59z" />
    <glyph glyph-name="odieresis" unicode="&#xf6;" horiz-adv-x="592" 
d="M272 48q88 0 145 64q58 66 58 163q0 85 -40 135q-41 51 -115 51q-96 0 -154 -73q-49 -63 -49 -154q0 -80 36 -130q41 -56 119 -56zM270 -8q-103 0 -162 74q-52 65 -52 167q0 112 63 191q75 93 203 93q103 0 162 -74q52 -65 52 -167q0 -110 -63 -189q-78 -95 -203 -95z
M433 687q18 0 29 -11.5t11 -29.5q0 -21 -14.5 -35t-34.5 -14q-18 0 -30 12t-12 29q0 21 15 35t36 14zM245 687q18 0 29 -11.5t11 -29.5q0 -21 -14.5 -35t-34.5 -14q-18 0 -30 12t-12 29q0 21 15 35t36 14z" />
    <glyph glyph-name="divide" unicode="&#xf7;" horiz-adv-x="485" 
d="M43 262l8 56h396l-8 -56h-396zM228 179q17 0 28.5 -12t11.5 -29q0 -21 -15 -35t-35 -14q-17 0 -29 12t-12 29q0 21 15 35t36 14zM267 491q17 0 28.5 -12t11.5 -29q0 -21 -15 -35t-35 -14q-17 0 -29 12t-12 29q0 21 15 35t36 14z" />
    <glyph glyph-name="oslash" unicode="&#xf8;" horiz-adv-x="592" 
d="M31 -40l80 101l-3 5q-52 65 -52 167q0 112 63 191q75 93 203 93q70 0 122 -36l73 92l42 -30l-77 -97l2 -3q52 -65 52 -167q0 -110 -63 -189q-78 -95 -203 -95q-69 0 -121 35l-77 -97zM117 234q0 -76 32 -125l259 326q-37 26 -88 26q-96 0 -154 -73q-49 -63 -49 -154z
M272 48q88 0 145 64q58 66 58 163q0 75 -31 123l-259 -326q37 -24 87 -24z" />
    <glyph glyph-name="ugrave" unicode="&#xf9;" horiz-adv-x="564" 
d="M216 48q70 0 136.5 65.5t80.5 170.5l30 223h59l-66 -507h-59l14 107h-6q-81 -115 -203 -115q-60 0 -102 38t-42 92q0 8 1 16l48 369h59l-47 -359q-1 -6 -1 -14q0 -31 25 -58.5t73 -27.5zM371 566l-162 101l46 60l149 -119z" />
    <glyph glyph-name="uacute" unicode="&#xfa;" horiz-adv-x="564" 
d="M216 48q70 0 136.5 65.5t80.5 170.5l30 223h59l-66 -507h-59l14 107h-6q-81 -115 -203 -115q-60 0 -102 38t-42 92q0 8 1 16l48 369h59l-47 -359q-1 -6 -1 -14q0 -31 25 -58.5t73 -27.5zM463 667l-190 -101l-21 42l179 119z" />
    <glyph glyph-name="ucircumflex" unicode="&#xfb;" horiz-adv-x="564" 
d="M216 48q70 0 136.5 65.5t80.5 170.5l30 223h59l-66 -507h-59l14 107h-6q-81 -115 -203 -115q-60 0 -102 38t-42 92q0 8 1 16l48 369h59l-47 -359q-1 -6 -1 -14q0 -31 25 -58.5t73 -27.5zM312 718h49l106 -108l-42 -42l-91 94l-115 -94l-36 46z" />
    <glyph glyph-name="udieresis" unicode="&#xfc;" horiz-adv-x="564" 
d="M216 48q70 0 136.5 65.5t80.5 170.5l30 223h59l-66 -507h-59l14 107h-6q-81 -115 -203 -115q-60 0 -102 38t-42 92q0 8 1 16l48 369h59l-47 -359q-1 -6 -1 -14q0 -31 25 -58.5t73 -27.5zM427 687q18 0 29 -11.5t11 -29.5q0 -21 -14.5 -35t-34.5 -14q-18 0 -30 12t-12 29
q0 21 15 35t36 14zM239 687q18 0 29 -11.5t11 -29.5q0 -21 -14.5 -35t-34.5 -14q-18 0 -30 12t-12 29q0 21 15 35t36 14z" />
    <glyph glyph-name="yacute" unicode="&#xfd;" horiz-adv-x="504" 
d="M31 -205q-26 0 -48 7l21 55q18 -6 31 -6q71 0 97 53l67 131l-143 472h62l116 -394h9l201 394h65l-321 -621q-47 -91 -157 -91zM429 667l-190 -101l-21 42l179 119z" />
    <glyph glyph-name="thorn" unicode="&#xfe;" horiz-adv-x="627" 
d="M363 517q99 0 155 -74q50 -66 50 -167q0 -112 -60 -191q-71 -93 -194 -93q-117 0 -170 97h-4l-36 -276h-59l113 877h59l-34 -276h3q39 51 77.5 77t99.5 26zM357 461q-92 0 -149 -74q-47 -63 -47 -153q0 -80 38 -130q41 -56 113 -56q93 0 149 73q47 63 47 154
q0 80 -38 130q-41 56 -113 56z" />
    <glyph glyph-name="ydieresis" unicode="&#xff;" horiz-adv-x="504" 
d="M31 -205q-26 0 -48 7l21 55q18 -6 31 -6q71 0 97 53l67 131l-143 472h62l116 -394h9l201 394h65l-321 -621q-47 -91 -157 -91zM395 686q18 0 29 -11.5t11 -29.5q0 -21 -14.5 -35t-34.5 -14q-18 0 -30 12t-12 29q0 21 15 35t36 14zM207 686q18 0 29 -11.5t11 -29.5
q0 -21 -14.5 -35t-34.5 -14q-18 0 -30 12t-12 29q0 21 15 35t36 14z" />
    <glyph glyph-name="Amacron" unicode="&#x100;" horiz-adv-x="600" 
d="M548 0h-65l-47 205h-298l-90 -205h-67l306 690h99zM331 645l-167 -382h258l-88 382h-3zM205 796l8 57h284l-8 -57h-284z" />
    <glyph glyph-name="amacron" unicode="&#x101;" horiz-adv-x="596" 
d="M261 -8q-99 0 -155 74q-50 66 -50 167q0 112 60 191q71 93 194 93q114 0 170 -103h3l12 93h59l-65 -507h-59l10 89h-4q-37 -49 -75.5 -73t-99.5 -24zM267 48q92 0 149 74q47 63 47 153q0 80 -38 130q-41 56 -113 56q-93 0 -149 -73q-47 -63 -47 -154q0 -80 38 -130
q41 -56 113 -56zM202 616l7 54h268l-7 -54h-268z" />
    <glyph glyph-name="Abreve" unicode="&#x102;" horiz-adv-x="600" 
d="M548 0h-65l-47 205h-298l-90 -205h-67l306 690h99zM331 645l-167 -382h258l-88 382h-3zM443 898h62q-4 -62 -52 -104.5t-108 -42.5q-58 0 -97.5 38t-39.5 94v15h63v-9q0 -34 22.5 -56.5t56.5 -22.5q36 0 63 25t30 63z" />
    <glyph glyph-name="abreve" unicode="&#x103;" horiz-adv-x="596" 
d="M261 -8q-99 0 -155 74q-50 66 -50 167q0 112 60 191q71 93 194 93q114 0 170 -103h3l12 93h59l-65 -507h-59l10 89h-4q-37 -49 -75.5 -73t-99.5 -24zM267 48q92 0 149 74q47 63 47 153q0 80 -38 130q-41 56 -113 56q-93 0 -149 -73q-47 -63 -47 -154q0 -80 38 -130
q41 -56 113 -56zM430 713h59q-4 -59 -49 -99t-101 -40q-55 0 -92 35.5t-37 89.5v14h56v-8q0 -32 21.5 -53.5t54.5 -21.5t59 24.5t29 58.5z" />
    <glyph glyph-name="Aogonek" unicode="&#x104;" horiz-adv-x="600" 
d="M331 645l-167 -382h258l-88 382h-3zM481 8l-45 197h-298l-90 -205h-67l306 690h99l162 -690q-4 -2 -11.5 -5.5t-26 -16t-32.5 -26.5t-25.5 -34.5t-11.5 -41.5q0 -13 10.5 -21t23.5 -8q28 0 42 26l48 -25q-10 -23 -37 -41t-64 -18t-62.5 20.5t-25.5 60.5q0 37 28.5 73
t76.5 65z" />
    <glyph glyph-name="aogonek" unicode="&#x105;" horiz-adv-x="596" 
d="M431 6l9 83h-4q-37 -49 -75.5 -73t-99.5 -24q-99 0 -155 74q-50 66 -50 167q0 112 60 191q71 93 194 93q114 0 170 -103h3l12 93h59l-65 -507q-22 -12 -42 -27t-41 -41t-21 -51q0 -36 37 -36q31 0 41 25l47 -24q-9 -22 -36.5 -39.5t-64.5 -17.5t-62.5 22t-25.5 63
q0 35 33 72t77 60zM267 48q92 0 149 74q47 63 47 153q0 80 -38 130q-41 56 -113 56q-93 0 -149 -73q-47 -63 -47 -154q0 -80 38 -130q41 -56 113 -56z" />
    <glyph glyph-name="Cacute" unicode="&#x106;" horiz-adv-x="673" 
d="M315 -8q-61 0 -111.5 28t-83.5 75q-63 89 -63 219q0 151 76 256q91 128 245 128q124 0 196 -102q45 -63 54 -136h-64q-17 80 -60 125q-51 54 -129 54q-122 0 -194 -109q-61 -93 -61 -214q0 -116 55 -191q54 -74 144 -74q85 0 151 60q56 51 81 129h65q-13 -58 -56 -119
q-90 -129 -245 -129zM534 824l-204 -80l-15 47l197 100z" />
    <glyph glyph-name="cacute" unicode="&#x107;" horiz-adv-x="581" 
d="M270 -8q-103 0 -162 74q-52 65 -52 167q0 112 63 191q75 93 203 93q100 0 161 -75q40 -51 49 -126h-62q-9 60 -40 97q-40 48 -111 48q-98 0 -155 -75q-47 -62 -47 -152q0 -86 42 -137q41 -49 114 -49q66 0 113 35q42 31 65 84h65q-17 -46 -43 -80q-75 -95 -203 -95z
M464 667l-190 -101l-21 42l179 119z" />
    <glyph glyph-name="Ccircumflex" unicode="&#x108;" horiz-adv-x="673" 
d="M315 -8q-61 0 -111.5 28t-83.5 75q-63 89 -63 219q0 151 76 256q91 128 245 128q124 0 196 -102q45 -63 54 -136h-64q-17 80 -60 125q-51 54 -129 54q-122 0 -194 -109q-61 -93 -61 -214q0 -116 55 -191q54 -74 144 -74q85 0 151 60q56 51 81 129h65q-13 -58 -56 -119
q-90 -129 -245 -129zM376 899h49l120 -106l-45 -44l-101 91l-125 -91l-36 50z" />
    <glyph glyph-name="ccircumflex" unicode="&#x109;" horiz-adv-x="581" 
d="M270 -8q-103 0 -162 74q-52 65 -52 167q0 112 63 191q75 93 203 93q100 0 161 -75q40 -51 49 -126h-62q-9 60 -40 97q-40 48 -111 48q-98 0 -155 -75q-47 -62 -47 -152q0 -86 42 -137q41 -49 114 -49q66 0 113 35q42 31 65 84h65q-17 -46 -43 -80q-75 -95 -203 -95z
M319 718h49l106 -108l-42 -42l-91 94l-115 -94l-36 46z" />
    <glyph glyph-name="Cdotaccent" unicode="&#x10a;" horiz-adv-x="673" 
d="M315 -8q-61 0 -111.5 28t-83.5 75q-63 89 -63 219q0 151 76 256q91 128 245 128q124 0 196 -102q45 -63 54 -136h-64q-17 80 -60 125q-51 54 -129 54q-122 0 -194 -109q-61 -93 -61 -214q0 -116 55 -191q54 -74 144 -74q85 0 151 60q56 51 81 129h65q-13 -58 -56 -119
q-90 -129 -245 -129zM408 872q18 0 30 -12.5t12 -30.5q0 -23 -15 -37.5t-37 -14.5q-19 0 -31.5 12.5t-12.5 30.5q0 23 16 37.5t38 14.5z" />
    <glyph glyph-name="cdotaccent" unicode="&#x10b;" horiz-adv-x="581" 
d="M270 -8q-103 0 -162 74q-52 65 -52 167q0 112 63 191q75 93 203 93q100 0 161 -75q40 -51 49 -126h-62q-9 60 -40 97q-40 48 -111 48q-98 0 -155 -75q-47 -62 -47 -152q0 -86 42 -137q41 -49 114 -49q66 0 113 35q42 31 65 84h65q-17 -46 -43 -80q-75 -95 -203 -95z
M339 687q18 0 29 -11.5t11 -29.5q0 -21 -14.5 -35t-34.5 -14q-18 0 -30 12t-12 29q0 21 15 35t36 14z" />
    <glyph glyph-name="Ccaron" unicode="&#x10c;" horiz-adv-x="673" 
d="M315 -8q-61 0 -111.5 28t-83.5 75q-63 89 -63 219q0 151 76 256q91 128 245 128q124 0 196 -102q45 -63 54 -136h-64q-17 80 -60 125q-51 54 -129 54q-122 0 -194 -109q-61 -93 -61 -214q0 -116 55 -191q54 -74 144 -74q85 0 151 60q56 51 81 129h65q-13 -58 -56 -119
q-90 -129 -245 -129zM423 749h-49l-120 106l45 44l101 -91l125 91l36 -50z" />
    <glyph glyph-name="ccaron" unicode="&#x10d;" horiz-adv-x="581" 
d="M270 -8q-103 0 -162 74q-52 65 -52 167q0 112 63 191q75 93 203 93q100 0 161 -75q40 -51 49 -126h-62q-9 60 -40 97q-40 48 -111 48q-98 0 -155 -75q-47 -62 -47 -152q0 -86 42 -137q41 -49 114 -49q66 0 113 35q42 31 65 84h65q-17 -46 -43 -80q-75 -95 -203 -95z
M355 568h-49l-106 108l42 42l91 -94l115 94l36 -46z" />
    <glyph glyph-name="Dcaron" unicode="&#x10e;" horiz-adv-x="685" 
d="M109 57l203 1q118 0 190 102q61 88 61 215q0 107 -49 180q-54 78 -144 78h-186zM311 1l-273 -1l92 690h244q122 0 192 -99q60 -85 60 -214q0 -146 -74 -250q-90 -126 -241 -126zM394 749h-49l-120 106l45 44l101 -91l125 91l36 -50z" />
    <glyph glyph-name="dcaron" unicode="&#x10f;" horiz-adv-x="656" 
d="M730 655v-8q0 -30 -25 -69t-67 -76l-25 27q38 37 57 75q-40 7 -40 40q0 24 16.5 39t40.5 15q18 0 30.5 -13t12.5 -30zM261 -8q-99 0 -155 74q-50 66 -50 167q0 112 60 191q71 93 194 93q114 0 170 -103h3l37 282h59l-90 -696h-59l10 89h-3q-37 -48 -76 -72.5t-100 -24.5z
M267 48q92 0 149 74q47 63 47 153q0 80 -38 130q-41 56 -113 56q-93 0 -149 -73q-47 -63 -47 -154q0 -80 38 -130q41 -56 113 -56z" />
    <glyph glyph-name="Dcroat" unicode="&#x110;" horiz-adv-x="700" 
d="M326 1l-273 -1l42 317h-57l7 57h58l42 316h244q122 0 192 -99q60 -85 60 -214q0 -146 -74 -250q-90 -126 -241 -126zM124 57l203 1q118 0 190 102q61 88 61 215q0 107 -49 180q-54 78 -144 78h-186l-34 -259h175l-7 -57h-175z" />
    <glyph glyph-name="dcroat" unicode="&#x111;" horiz-adv-x="601" 
d="M267 48q92 0 149 74q47 63 47 153q0 80 -38 130q-41 56 -113 56q-93 0 -149 -73q-47 -63 -47 -154q0 -80 38 -130q41 -56 113 -56zM621 564h-60l-72 -564h-59l10 89h-3q-37 -48 -76 -72.5t-100 -24.5q-99 0 -155 74q-50 66 -50 167q0 112 60 191q71 93 194 93
q114 0 170 -103h3l19 150h-151l7 54h151l11 78h59l-11 -78h60z" />
    <glyph glyph-name="Emacron" unicode="&#x112;" horiz-adv-x="618" 
d="M596 690l-7 -57h-406l-34 -255h366l-8 -57h-366l-35 -264h426l-7 -57h-487l91 690h467zM227 796l8 57h284l-8 -57h-284z" />
    <glyph glyph-name="emacron" unicode="&#x113;" horiz-adv-x="584" 
d="M270 -8q-99 0 -160 75q-54 67 -54 163q0 110 63 189q78 98 206 98q100 0 159 -77q47 -61 47 -172q0 -15 -3 -30h-410v-8q0 -76 38 -126q43 -56 115 -56q59 0 105 28q47 29 73 81l59 -16q-13 -28 -34 -55q-77 -94 -204 -94zM320 461q-72 0 -125 -47q-54 -47 -71 -124h345
q-2 79 -37 122q-39 49 -112 49zM202 616l7 54h268l-7 -54h-268z" />
    <glyph glyph-name="Ebreve" unicode="&#x114;" horiz-adv-x="618" 
d="M596 690l-7 -57h-406l-34 -255h366l-8 -57h-366l-35 -264h426l-7 -57h-487l91 690h467zM482 898h62q-4 -62 -52 -104.5t-108 -42.5q-58 0 -97.5 38t-39.5 94v15h63v-9q0 -34 22.5 -56.5t56.5 -22.5q36 0 63 25t30 63z" />
    <glyph glyph-name="ebreve" unicode="&#x115;" horiz-adv-x="584" 
d="M270 -8q-99 0 -160 75q-54 67 -54 163q0 110 63 189q78 98 206 98q100 0 159 -77q47 -61 47 -172q0 -15 -3 -30h-410v-8q0 -76 38 -126q43 -56 115 -56q59 0 105 28q47 29 73 81l59 -16q-13 -28 -34 -55q-77 -94 -204 -94zM320 461q-72 0 -125 -47q-54 -47 -71 -124h345
q-2 79 -37 122q-39 49 -112 49zM430 713h59q-4 -59 -49 -99t-101 -40q-55 0 -92 35.5t-37 89.5v14h56v-8q0 -32 21.5 -53.5t54.5 -21.5t59 24.5t29 58.5z" />
    <glyph glyph-name="Edotaccent" unicode="&#x116;" horiz-adv-x="618" 
d="M596 690l-7 -57h-406l-34 -255h366l-8 -57h-366l-35 -264h426l-7 -57h-487l91 690h467zM369 872q18 0 30 -12.5t12 -30.5q0 -23 -15 -37.5t-37 -14.5q-19 0 -31.5 12.5t-12.5 30.5q0 23 16 37.5t38 14.5z" />
    <glyph glyph-name="edotaccent" unicode="&#x117;" horiz-adv-x="584" 
d="M270 -8q-99 0 -160 75q-54 67 -54 163q0 110 63 189q78 98 206 98q100 0 159 -77q47 -61 47 -172q0 -15 -3 -30h-410v-8q0 -76 38 -126q43 -56 115 -56q59 0 105 28q47 29 73 81l59 -16q-13 -28 -34 -55q-77 -94 -204 -94zM320 461q-72 0 -125 -47q-54 -47 -71 -124h345
q-2 79 -37 122q-39 49 -112 49zM339 687q18 0 29 -11.5t11 -29.5q0 -21 -14.5 -35t-34.5 -14q-18 0 -30 12t-12 29q0 21 15 35t36 14z" />
    <glyph glyph-name="Eogonek" unicode="&#x118;" horiz-adv-x="618" 
d="M415 0h-377l91 690h467l-7 -57h-406l-34 -255h366l-8 -57h-366l-35 -264h426l-7 -57h-37q-4 -2 -11.5 -5.5t-26 -16t-32.5 -26.5t-25.5 -34.5t-11.5 -41.5q0 -13 10.5 -21t23.5 -8q28 0 42 26l48 -25q-10 -23 -37 -41t-64 -18t-62.5 20.5t-25.5 60.5q0 35 28.5 70
t70.5 60z" />
    <glyph glyph-name="eogonek" unicode="&#x119;" horiz-adv-x="584" 
d="M358 5q-39 -13 -88 -13q-99 0 -160 75q-54 67 -54 163q0 110 63 189q78 98 206 98q100 0 159 -77q47 -61 47 -172q0 -15 -3 -30h-410v-8q0 -76 38 -126q43 -56 115 -56q59 0 105 28q47 29 73 81l59 -16q-13 -28 -34 -55q-32 -42 -74.5 -85t-60 -67t-17.5 -53
q0 -36 37 -36q31 0 41 25l47 -24q-9 -22 -36.5 -39.5t-64.5 -17.5t-62.5 22t-25.5 63q0 34 30.5 71t69.5 60zM320 461q-72 0 -125 -47q-54 -47 -71 -124h345q-2 79 -37 122q-39 49 -112 49z" />
    <glyph glyph-name="Ecaron" unicode="&#x11a;" horiz-adv-x="618" 
d="M596 690l-7 -57h-406l-34 -255h366l-8 -57h-366l-35 -264h426l-7 -57h-487l91 690h467zM404 749h-49l-120 106l45 44l101 -91l125 91l36 -50z" />
    <glyph glyph-name="ecaron" unicode="&#x11b;" horiz-adv-x="584" 
d="M270 -8q-99 0 -160 75q-54 67 -54 163q0 110 63 189q78 98 206 98q100 0 159 -77q47 -61 47 -172q0 -15 -3 -30h-410v-8q0 -76 38 -126q43 -56 115 -56q59 0 105 28q47 29 73 81l59 -16q-13 -28 -34 -55q-77 -94 -204 -94zM320 461q-72 0 -125 -47q-54 -47 -71 -124h345
q-2 79 -37 122q-39 49 -112 49zM355 568h-49l-106 108l42 42l91 -94l115 94l36 -46z" />
    <glyph glyph-name="Gcircumflex" unicode="&#x11c;" horiz-adv-x="670" 
d="M315 -8q-124 0 -195 103q-63 89 -63 219q0 151 76 256q93 128 245 128q117 0 190 -102q38 -53 38 -140h-61q0 65 -24 103q-51 80 -146 80q-120 0 -193 -104q-63 -89 -63 -220q0 -113 49 -184q56 -80 150 -80q115 0 188 104q36 50 43 141h-215l7 57h273l-47 -353h-61
l15 102q-42 -55 -89 -82.5t-117 -27.5zM391 899h49l120 -106l-45 -44l-101 91l-125 -91l-36 50z" />
    <glyph glyph-name="gcircumflex" unicode="&#x11d;" horiz-adv-x="574" 
d="M434 225q11 76 11 97q0 68 -40.5 103.5t-100.5 35.5q-90 0 -141 -68q-45 -58 -45 -149q0 -78 36 -128q38 -51 100 -51q64 0 116.5 42t63.5 118zM405 -10l13 106q-50 -87 -167 -87q-87 0 -142 73q-52 62 -52 161q0 109 60 185q69 89 194 89q48 0 86 -22.5t59 -60.5h6
l10 73h59l-69 -533q-10 -77 -74 -128t-161 -51q-59 0 -113 30.5t-79 89.5l54 24q18 -44 58.5 -66t86.5 -22q73 0 118.5 41t52.5 98zM322 718h49l106 -108l-42 -42l-91 94l-115 -94l-36 46z" />
    <glyph glyph-name="Gbreve" unicode="&#x11e;" horiz-adv-x="670" 
d="M315 -8q-124 0 -195 103q-63 89 -63 219q0 151 76 256q93 128 245 128q117 0 190 -102q38 -53 38 -140h-61q0 65 -24 103q-51 80 -146 80q-120 0 -193 -104q-63 -89 -63 -220q0 -113 49 -184q56 -80 150 -80q115 0 188 104q36 50 43 141h-215l7 57h273l-47 -353h-61
l15 102q-42 -55 -89 -82.5t-117 -27.5zM519 898h62q-4 -62 -52 -104.5t-108 -42.5q-58 0 -97.5 38t-39.5 94v15h63v-9q0 -34 22.5 -56.5t56.5 -22.5q36 0 63 25t30 63z" />
    <glyph glyph-name="gbreve" unicode="&#x11f;" horiz-adv-x="574" 
d="M434 225q11 76 11 97q0 68 -40.5 103.5t-100.5 35.5q-90 0 -141 -68q-45 -58 -45 -149q0 -78 36 -128q38 -51 100 -51q64 0 116.5 42t63.5 118zM405 -10l13 106q-50 -87 -167 -87q-87 0 -142 73q-52 62 -52 161q0 109 60 185q69 89 194 89q48 0 86 -22.5t59 -60.5h6
l10 73h59l-69 -533q-10 -77 -74 -128t-161 -51q-59 0 -113 30.5t-79 89.5l54 24q18 -44 58.5 -66t86.5 -22q73 0 118.5 41t52.5 98zM426 713h59q-4 -59 -49 -99t-101 -40q-55 0 -92 35.5t-37 89.5v14h56v-8q0 -32 21.5 -53.5t54.5 -21.5t59 24.5t29 58.5z" />
    <glyph glyph-name="Gdotaccent" unicode="&#x120;" horiz-adv-x="670" 
d="M315 -8q-124 0 -195 103q-63 89 -63 219q0 151 76 256q93 128 245 128q117 0 190 -102q38 -53 38 -140h-61q0 65 -24 103q-51 80 -146 80q-120 0 -193 -104q-63 -89 -63 -220q0 -113 49 -184q56 -80 150 -80q115 0 188 104q36 50 43 141h-215l7 57h273l-47 -353h-61
l15 102q-42 -55 -89 -82.5t-117 -27.5zM414 872q18 0 30 -12.5t12 -30.5q0 -23 -15 -37.5t-37 -14.5q-19 0 -31.5 12.5t-12.5 30.5q0 23 16 37.5t38 14.5z" />
    <glyph glyph-name="gdotaccent" unicode="&#x121;" horiz-adv-x="574" 
d="M434 225q11 76 11 97q0 68 -40.5 103.5t-100.5 35.5q-90 0 -141 -68q-45 -58 -45 -149q0 -78 36 -128q38 -51 100 -51q64 0 116.5 42t63.5 118zM405 -10l13 106q-50 -87 -167 -87q-87 0 -142 73q-52 62 -52 161q0 109 60 185q69 89 194 89q48 0 86 -22.5t59 -60.5h6
l10 73h59l-69 -533q-10 -77 -74 -128t-161 -51q-59 0 -113 30.5t-79 89.5l54 24q18 -44 58.5 -66t86.5 -22q73 0 118.5 41t52.5 98zM325 687q18 0 29 -11.5t11 -29.5q0 -21 -14.5 -35t-34.5 -14q-18 0 -30 12t-12 29q0 21 15 35t36 14z" />
    <glyph glyph-name="Gcommaaccent" unicode="&#x122;" horiz-adv-x="670" 
d="M315 -8q-124 0 -195 103q-63 89 -63 219q0 151 76 256q93 128 245 128q117 0 190 -102q38 -53 38 -140h-61q0 65 -24 103q-51 80 -146 80q-120 0 -193 -104q-63 -89 -63 -220q0 -113 49 -184q56 -80 150 -80q115 0 188 104q36 50 43 141h-215l7 57h273l-47 -353h-61
l15 102q-42 -55 -89 -82.5t-117 -27.5zM341 -81v-8q0 -50 -80 -125l-25 27q36 29 45 55q-40 7 -40 40q0 24 16.5 39t40.5 15q18 0 30.5 -13t12.5 -30z" />
    <glyph glyph-name="gcommaaccent" unicode="&#x123;" horiz-adv-x="574" 
d="M274 600v8q0 50 80 125l25 -27q-36 -29 -45 -55q40 -7 40 -40q0 -24 -16.5 -39t-40.5 -15q-18 0 -30.5 13t-12.5 30zM434 225q11 76 11 97q0 68 -40.5 103.5t-100.5 35.5q-90 0 -141 -68q-45 -58 -45 -149q0 -78 36 -128q38 -51 100 -51q64 0 116.5 42t63.5 118zM405 -10
l13 106q-50 -87 -167 -87q-87 0 -142 73q-52 62 -52 161q0 109 60 185q69 89 194 89q48 0 86 -22.5t59 -60.5h6l10 73h59l-69 -533q-10 -77 -74 -128t-161 -51q-59 0 -113 30.5t-79 89.5l54 24q18 -44 58.5 -66t86.5 -22q73 0 118.5 41t52.5 98z" />
    <glyph glyph-name="Hcircumflex" unicode="&#x124;" horiz-adv-x="688" 
d="M99 0h-61l91 690h61l-39 -299h398l39 299h61l-91 -690h-61l44 334h-398zM381 899h49l120 -106l-45 -44l-101 91l-125 -91l-36 50z" />
    <glyph glyph-name="hcircumflex" unicode="&#x125;" horiz-adv-x="569" 
d="M351 461q-70 0 -136.5 -65.5t-80.5 -170.5l-30 -225h-59l91 696h59l-40 -300h4q38 55 92.5 88t113.5 33q60 0 102 -38t42 -92q0 -8 -1 -16l-48 -371h-59l47 361q1 6 1 14q0 31 -25 58.5t-73 27.5zM276 907h49l106 -108l-42 -42l-91 94l-115 -94l-36 46z" />
    <glyph glyph-name="Hbar" unicode="&#x126;" horiz-adv-x="681" 
d="M99 0h-61l67 513h-60l7 57h60l16 120h61l-16 -120h392l16 120h61l-16 -120h60l-7 -57h-60l-67 -513h-61l43 334h-392zM150 391h392l16 122h-392z" />
    <glyph glyph-name="hbar" unicode="&#x127;" horiz-adv-x="569" 
d="M329 564h-151l-23 -168h4q38 55 92.5 88t113.5 33q60 0 102 -38t42 -92q0 -8 -1 -16l-48 -371h-59l47 361q1 6 1 14q0 31 -25 58.5t-73 27.5q-70 0 -136.5 -65.5t-80.5 -170.5l-30 -225h-59l74 564h-60l7 54h60l10 78h59l-10 -78h151z" />
    <glyph glyph-name="Itilde" unicode="&#x128;" horiz-adv-x="229" 
d="M38 0l91 690h61l-91 -690h-61zM16 774l2 21q4 38 33.5 63.5t66.5 25.5q24 0 44.5 -9.5t31.5 -21t23 -21t22 -9.5q31 0 34 30l2 21h63l-2 -21q-4 -38 -33 -63.5t-67 -25.5q-24 0 -44.5 9.5t-31.5 21t-23 21t-22 9.5q-31 0 -34 -30l-2 -21h-63z" />
    <glyph glyph-name="itilde" unicode="&#x129;" horiz-adv-x="212" 
d="M43 0l66 507h59l-66 -507h-59zM1 596l3 19q4 37 33 61.5t65 24.5q29 0 49.5 -14.5t34.5 -29.5t27 -15t23.5 7.5t11.5 21.5l3 19h59l-3 -19q-4 -37 -33 -61.5t-65 -24.5q-29 0 -49.5 14.5t-34.5 29.5t-27 15t-23.5 -7.5t-11.5 -21.5l-3 -19h-59z" />
    <glyph glyph-name="Imacron" unicode="&#x12a;" horiz-adv-x="229" 
d="M38 0l91 690h61l-91 -690h-61zM30 796l8 57h284l-8 -57h-284z" />
    <glyph glyph-name="imacron" unicode="&#x12b;" horiz-adv-x="212" 
d="M43 0l66 507h59l-66 -507h-59zM20 616l7 54h268l-7 -54h-268z" />
    <glyph glyph-name="Ibreve" unicode="&#x12c;" horiz-adv-x="229" 
d="M38 0l91 690h61l-91 -690h-61zM272 898h62q-4 -62 -52 -104.5t-108 -42.5q-58 0 -97.5 38t-39.5 94v15h63v-9q0 -34 22.5 -56.5t56.5 -22.5q36 0 63 25t30 63z" />
    <glyph glyph-name="ibreve" unicode="&#x12d;" horiz-adv-x="212" 
d="M43 0l66 507h59l-66 -507h-59zM246 713h59q-4 -59 -49 -99t-101 -40q-55 0 -92 35.5t-37 89.5v14h56v-8q0 -32 21.5 -53.5t54.5 -21.5t59 24.5t29 58.5z" />
    <glyph glyph-name="Iogonek" unicode="&#x12e;" horiz-adv-x="229" 
d="M39 9l90 681h61l-91 -690q-4 -2 -11.5 -5.5t-26 -16t-32.5 -26.5t-25.5 -34.5t-11.5 -41.5q0 -13 10.5 -21t23.5 -8q28 0 42 26l48 -25q-10 -23 -37 -41t-64 -18t-62.5 20.5t-25.5 60.5q0 36 30.5 73t81.5 66z" />
    <glyph glyph-name="iogonek" unicode="&#x12f;" horiz-adv-x="212" 
d="M163 687q18 0 29 -11.5t11 -29.5q0 -21 -14.5 -35t-34.5 -14q-18 0 -30 12t-12 29q0 21 15 35t36 14zM-2 -119q0 -36 37 -36q31 0 41 25l47 -24q-9 -22 -36.5 -39.5t-64.5 -17.5t-62.5 22t-25.5 63q0 35 33 72t77 60l65 501h59l-66 -507q-22 -12 -42 -27t-41 -41t-21 -51
z" />
    <glyph glyph-name="Idotaccent" unicode="&#x130;" horiz-adv-x="229" 
d="M38 0l91 690h61l-91 -690h-61zM184 872q18 0 30 -12.5t12 -30.5q0 -23 -15 -37.5t-37 -14.5q-19 0 -31.5 12.5t-12.5 30.5q0 23 16 37.5t38 14.5z" />
    <glyph glyph-name="dotlessi" unicode="&#x131;" horiz-adv-x="212" 
d="M43 0l66 507h59l-66 -507h-59z" />
    <glyph glyph-name="IJ" unicode="&#x132;" horiz-adv-x="754" 
d="M38 0l91 690h61l-91 -690h-61zM668 690h61l-60 -452q-32 -246 -244 -246q-177 0 -189 182l62 14q8 -137 133 -137q153 0 177 187z" />
    <glyph glyph-name="ij" unicode="&#x133;" horiz-adv-x="424" 
d="M43 0l66 507h59l-66 -507h-59zM162 687q18 0 29 -11.5t11 -29.5q0 -21 -14.5 -35t-34.5 -14q-18 0 -30 12t-12 29q0 21 15 35t36 14zM380 507l-71 -552q-8 -66 -57.5 -113t-132.5 -47h-6l7 56h6q55 0 86 29.5t37 71.5l72 555h59zM374 687q18 0 29 -11.5t11 -29.5
q0 -21 -14.5 -35t-34.5 -14q-18 0 -30 12t-12 29q0 21 15 35t36 14z" />
    <glyph glyph-name="Jcircumflex" unicode="&#x134;" horiz-adv-x="525" 
d="M439 690h61l-60 -452q-32 -246 -244 -246q-177 0 -189 182l62 14q8 -137 133 -137q153 0 177 187zM365 899h49l120 -106l-45 -44l-101 91l-125 -91l-36 50z" />
    <glyph glyph-name="jcircumflex" unicode="&#x135;" horiz-adv-x="212" 
d="M168 507l-71 -552q-8 -66 -57.5 -113t-132.5 -47h-6l7 56h6q55 0 86 29.5t37 71.5l72 555h59zM137 718h49l106 -108l-42 -42l-91 94l-115 -94l-36 46z" />
    <glyph glyph-name="Kcommaaccent" unicode="&#x136;" horiz-adv-x="609" 
d="M469 0l-209 330h-60l-65 -54l-36 -276h-61l91 690h61l-44 -337l399 337h81l-320 -270l-4 -33l245 -387h-78zM320 -91v-8q0 -50 -80 -125l-25 27q36 29 45 55q-40 7 -40 40q0 24 16.5 39t40.5 15q18 0 30.5 -13t12.5 -30z" />
    <glyph glyph-name="kcommaaccent" unicode="&#x137;" horiz-adv-x="506" 
d="M104 0h-59l92 696h59l-50 -377h25l241 188h91l-206 -159l-2 -18l182 -330h-67l-163 295h-17l-97 -73zM281 -91v-8q0 -50 -80 -125l-25 27q36 29 45 55q-40 7 -40 40q0 24 16.5 39t40.5 15q18 0 30.5 -13t12.5 -30z" />
    <glyph glyph-name="kgreenlandic" unicode="&#x138;" horiz-adv-x="547" 
d="M101 0h-59l66 507h59l-30 -233h9l312 233h86l-276 -209l-1 -10l186 -288h-77l-159 245h-14l-78 -59z" />
    <glyph glyph-name="Lacute" unicode="&#x139;" horiz-adv-x="535" 
d="M190 690l-84 -633h375l-7 -57h-436l91 690h61zM345 824l-204 -80l-15 47l197 100z" />
    <glyph glyph-name="lacute" unicode="&#x13a;" horiz-adv-x="218" 
d="M346 792l-202 -53l-10 47l199 74zM45 0l92 696h59l-92 -696h-59z" />
    <glyph glyph-name="Lcommaaccent" unicode="&#x13b;" horiz-adv-x="535" 
d="M190 690l-84 -633h375l-7 -57h-436l91 690h61zM292 -91v-8q0 -50 -80 -125l-25 27q36 29 45 55q-40 7 -40 40q0 24 16.5 39t40.5 15q18 0 30.5 -13t12.5 -30z" />
    <glyph glyph-name="lcommaaccent" unicode="&#x13c;" horiz-adv-x="218" 
d="M45 0l92 696h59l-92 -696h-59zM113 -91v-8q0 -50 -80 -125l-25 27q36 29 45 55q-40 7 -40 40q0 24 16.5 39t40.5 15q18 0 30.5 -13t12.5 -30z" />
    <glyph glyph-name="Lcaron" unicode="&#x13d;" horiz-adv-x="535" 
d="M391 668v-8q0 -64 -92 -145l-25 27q38 38 57 75q-40 7 -40 40q0 24 16.5 39t40.5 15q18 0 30.5 -13t12.5 -30zM190 690l-84 -633h375l-7 -57h-436l91 690h61z" />
    <glyph glyph-name="lcaron" unicode="&#x13e;" horiz-adv-x="271" 
d="M346 655v-8q0 -30 -25 -69t-67 -76l-25 27q37 37 57 75q-40 7 -40 40q0 24 16.5 39t40.5 15q18 0 30.5 -13t12.5 -30zM45 0l92 696h59l-92 -696h-59z" />
    <glyph glyph-name="Ldot" unicode="&#x13f;" horiz-adv-x="535" 
d="M190 690l-84 -633h375l-7 -57h-436l91 690h61zM353 387q21 0 33.5 -13.5t12.5 -33.5q0 -24 -16.5 -40t-39.5 -16q-20 0 -34 13.5t-14 33.5q0 24 17 40t41 16z" />
    <glyph glyph-name="ldot" unicode="&#x140;" horiz-adv-x="351" 
d="M45 0l92 696h59l-92 -696h-59zM295 387q21 0 33.5 -13.5t12.5 -33.5q0 -24 -16.5 -40t-39.5 -16q-20 0 -34 13.5t-14 33.5q0 24 17 40t41 16z" />
    <glyph glyph-name="Lslash" unicode="&#x141;" horiz-adv-x="535" 
d="M138 296l-32 -239h375l-7 -57h-436l34 259l-79 -45l8 71l80 45l48 360h61l-43 -322l142 81l-10 -72z" />
    <glyph glyph-name="lslash" unicode="&#x142;" horiz-adv-x="218" 
d="M97 386l40 310h59l-36 -273l84 47l-10 -72l-83 -47l-46 -351h-59l41 315l-87 -49l9 71z" />
    <glyph glyph-name="Nacute" unicode="&#x143;" horiz-adv-x="702" 
d="M602 690h61l-91 -690h-110l-274 647h-4l-85 -647h-61l91 690h110l273 -647h5zM562 824l-204 -80l-15 47l197 100z" />
    <glyph glyph-name="nacute" unicode="&#x144;" horiz-adv-x="566" 
d="M348 461q-70 0 -136.5 -65.5t-80.5 -170.5l-30 -225h-59l66 507h59l-15 -111h4q38 55 92.5 88t113.5 33q60 0 102 -38t42 -92q0 -8 -1 -16l-48 -371h-59l47 361q1 6 1 14q0 31 -25 58.5t-73 27.5zM474 667l-190 -101l-21 42l179 119z" />
    <glyph glyph-name="Ncommaaccent" unicode="&#x145;" horiz-adv-x="702" 
d="M602 690h61l-91 -690h-110l-274 647h-4l-85 -647h-61l91 690h110l273 -647h5zM340 -91v-8q0 -50 -80 -125l-25 27q36 29 45 55q-40 7 -40 40q0 24 16.5 39t40.5 15q18 0 30.5 -13t12.5 -30z" />
    <glyph glyph-name="ncommaaccent" unicode="&#x146;" horiz-adv-x="566" 
d="M348 461q-70 0 -136.5 -65.5t-80.5 -170.5l-30 -225h-59l66 507h59l-15 -111h4q38 55 92.5 88t113.5 33q60 0 102 -38t42 -92q0 -8 -1 -16l-48 -371h-59l47 361q1 6 1 14q0 31 -25 58.5t-73 27.5zM295 -91v-8q0 -50 -80 -125l-25 27q36 29 45 55q-40 7 -40 40
q0 24 16.5 39t40.5 15q18 0 30.5 -13t12.5 -30z" />
    <glyph glyph-name="Ncaron" unicode="&#x147;" horiz-adv-x="702" 
d="M602 690h61l-91 -690h-110l-274 647h-4l-85 -647h-61l91 690h110l273 -647h5zM434 749h-49l-120 106l45 44l101 -91l125 91l36 -50z" />
    <glyph glyph-name="ncaron" unicode="&#x148;" horiz-adv-x="566" 
d="M348 461q-70 0 -136.5 -65.5t-80.5 -170.5l-30 -225h-59l66 507h59l-15 -111h4q38 55 92.5 88t113.5 33q60 0 102 -38t42 -92q0 -8 -1 -16l-48 -371h-59l47 361q1 6 1 14q0 31 -25 58.5t-73 27.5zM360 568h-49l-106 108l42 42l91 -94l115 94l36 -46z" />
    <glyph glyph-name="napostrophe" unicode="&#x149;" horiz-adv-x="566" 
d="M115 655v-8q0 -30 -25 -69t-67 -76l-25 27q38 37 57 75q-40 7 -40 40q0 24 16.5 39t40.5 15q18 0 30.5 -13t12.5 -30zM348 461q-70 0 -136.5 -65.5t-80.5 -170.5l-30 -225h-59l66 507h59l-15 -111h4q38 55 92.5 88t113.5 33q60 0 102 -38t42 -92q0 -8 -1 -16l-48 -371
h-59l47 361q1 6 1 14q0 31 -25 58.5t-73 27.5z" />
    <glyph glyph-name="Eng" unicode="&#x14a;" horiz-adv-x="702" 
d="M602 690h61l-87 -655q-16 -120 -79.5 -183t-186.5 -63q-53 0 -123 22l28 55q51 -18 102 -18q154 0 191 154l-320 645h-4l-85 -647h-61l91 690h110l286 -581z" />
    <glyph glyph-name="eng" unicode="&#x14b;" horiz-adv-x="567" 
d="M348 461q-70 0 -136.5 -65.5t-80.5 -170.5l-30 -225h-59l66 507h59l-15 -111h4q38 55 92.5 88t113.5 33q60 0 102 -38t42 -92q0 -8 -1 -16l-53 -416q-8 -66 -57.5 -113t-132.5 -47h-6l7 56h6q55 0 86 29.5t37 71.5l53 409q1 6 1 14q0 31 -25 58.5t-73 27.5z" />
    <glyph glyph-name="Omacron" unicode="&#x14c;" horiz-adv-x="695" 
d="M319 51q103 0 175 87q79 96 79 237q0 112 -51 186q-53 78 -148 78q-108 0 -179 -91q-75 -96 -75 -233q0 -111 53 -187q55 -77 146 -77zM315 -8q-124 0 -195 103q-63 89 -63 219q0 151 76 256q93 128 245 128q125 0 195 -102q63 -88 63 -219q0 -151 -76 -256
q-93 -129 -245 -129zM249 796l8 57h284l-8 -57h-284z" />
    <glyph glyph-name="omacron" unicode="&#x14d;" horiz-adv-x="592" 
d="M272 48q88 0 145 64q58 66 58 163q0 85 -40 135q-41 51 -115 51q-96 0 -154 -73q-49 -63 -49 -154q0 -80 36 -130q41 -56 119 -56zM270 -8q-103 0 -162 74q-52 65 -52 167q0 112 63 191q75 93 203 93q103 0 162 -74q52 -65 52 -167q0 -110 -63 -189q-78 -95 -203 -95z
M202 616l7 54h268l-7 -54h-268z" />
    <glyph glyph-name="Obreve" unicode="&#x14e;" horiz-adv-x="695" 
d="M319 51q103 0 175 87q79 96 79 237q0 112 -51 186q-53 78 -148 78q-108 0 -179 -91q-75 -96 -75 -233q0 -111 53 -187q55 -77 146 -77zM315 -8q-124 0 -195 103q-63 89 -63 219q0 151 76 256q93 128 245 128q125 0 195 -102q63 -88 63 -219q0 -151 -76 -256
q-93 -129 -245 -129zM486 898h62q-4 -62 -52 -104.5t-108 -42.5q-58 0 -97.5 38t-39.5 94v15h63v-9q0 -34 22.5 -56.5t56.5 -22.5q36 0 63 25t30 63z" />
    <glyph glyph-name="obreve" unicode="&#x14f;" horiz-adv-x="592" 
d="M272 48q88 0 145 64q58 66 58 163q0 85 -40 135q-41 51 -115 51q-96 0 -154 -73q-49 -63 -49 -154q0 -80 36 -130q41 -56 119 -56zM270 -8q-103 0 -162 74q-52 65 -52 167q0 112 63 191q75 93 203 93q103 0 162 -74q52 -65 52 -167q0 -110 -63 -189q-78 -95 -203 -95z
M430 713h59q-4 -59 -49 -99t-101 -40q-55 0 -92 35.5t-37 89.5v14h56v-8q0 -32 21.5 -53.5t54.5 -21.5t59 24.5t29 58.5z" />
    <glyph glyph-name="Ohungarumlaut" unicode="&#x150;" horiz-adv-x="695" 
d="M319 51q103 0 175 87q79 96 79 237q0 112 -51 186q-53 78 -148 78q-108 0 -179 -91q-75 -96 -75 -233q0 -111 53 -187q55 -77 146 -77zM315 -8q-124 0 -195 103q-63 89 -63 219q0 151 76 256q93 128 245 128q125 0 195 -102q63 -88 63 -219q0 -151 -76 -256
q-93 -129 -245 -129zM302 744l-30 38l148 135l42 -53zM443 744l-24 42l163 115l33 -59z" />
    <glyph glyph-name="ohungarumlaut" unicode="&#x151;" horiz-adv-x="592" 
d="M272 48q88 0 145 64q58 66 58 163q0 85 -40 135q-41 51 -115 51q-96 0 -154 -73q-49 -63 -49 -154q0 -80 36 -130q41 -56 119 -56zM270 -8q-103 0 -162 74q-52 65 -52 167q0 112 63 191q75 93 203 93q103 0 162 -74q52 -65 52 -167q0 -110 -63 -189q-78 -95 -203 -95z
M252 566l-28 37l144 131l41 -52zM388 566l-23 41l160 112l32 -57z" />
    <glyph glyph-name="OE" unicode="&#x152;" horiz-adv-x="1034" 
d="M308 -9q-121 0 -190 103q-61 88 -61 219q0 153 74 257q89 128 238 128q145 0 208 -149l18 141h417l-7 -57h-356l-31 -255h316l-7 -57h-316l-33 -264h376l-6 -57h-437l14 118q-94 -127 -217 -127zM312 51q98 0 169 87q44 57 62 131l14 110q-2 108 -49 182q-51 78 -143 78
q-104 0 -173 -91q-72 -97 -72 -233q0 -112 51 -187q53 -77 141 -77z" />
    <glyph glyph-name="oe" unicode="&#x153;" horiz-adv-x="1000" 
d="M686 -8q-69 0 -119 40.5t-71 105.5q-32 -66 -90 -106t-136 -40q-103 0 -162 74q-52 65 -52 167q0 112 63 191q75 93 203 93q73 0 122 -40t69 -108q31 67 90.5 107.5t137.5 40.5q100 0 159 -77q47 -61 47 -172q0 -15 -3 -30h-410q0 -84 38 -134q43 -56 115 -56
q59 0 105 28q47 29 73 81l59 -16q-13 -28 -34 -55q-77 -94 -204 -94zM272 48q88 0 145 64q58 66 58 163q0 85 -40 135q-41 51 -115 51q-96 0 -154 -73q-49 -63 -49 -154q0 -80 36 -130q41 -56 119 -56zM736 461q-72 0 -125 -47q-54 -47 -71 -124h345q-2 79 -37 122
q-39 49 -112 49z" />
    <glyph glyph-name="Racute" unicode="&#x154;" horiz-adv-x="659" 
d="M612 497q0 -67 -45 -120t-110 -71l118 -306h-68l-113 301h-258l-37 -301h-61l90 690h316q75 0 121.5 -55t46.5 -138zM182 633l-39 -275h265q55 0 97.5 41t42.5 97q0 58 -33.5 97.5t-86.5 39.5h-246zM542 824l-204 -80l-15 47l197 100z" />
    <glyph glyph-name="racute" unicode="&#x155;" horiz-adv-x="383" 
d="M347 454q-70 0 -136.5 -65.5t-80.5 -170.5l-29 -218h-59l66 507h59l-16 -118h8q85 121 202 121q8 0 22 -2l-8 -57q-13 3 -28 3zM443 667l-190 -101l-21 42l179 119z" />
    <glyph glyph-name="Rcommaaccent" unicode="&#x156;" horiz-adv-x="659" 
d="M612 497q0 -67 -45 -120t-110 -71l118 -306h-68l-113 301h-258l-37 -301h-61l90 690h316q75 0 121.5 -55t46.5 -138zM182 633l-39 -275h265q55 0 97.5 41t42.5 97q0 58 -33.5 97.5t-86.5 39.5h-246zM330 -91v-8q0 -50 -80 -125l-25 27q36 29 45 55q-40 7 -40 40
q0 24 16.5 39t40.5 15q18 0 30.5 -13t12.5 -30z" />
    <glyph glyph-name="rcommaaccent" unicode="&#x157;" horiz-adv-x="383" 
d="M347 454q-70 0 -136.5 -65.5t-80.5 -170.5l-29 -218h-59l66 507h59l-16 -118h8q85 121 202 121q8 0 22 -2l-8 -57q-13 3 -28 3zM110 -91v-8q0 -50 -80 -125l-25 27q36 29 45 55q-40 7 -40 40q0 24 16.5 39t40.5 15q18 0 30.5 -13t12.5 -30z" />
    <glyph glyph-name="Rcaron" unicode="&#x158;" horiz-adv-x="659" 
d="M612 497q0 -67 -45 -120t-110 -71l118 -306h-68l-113 301h-258l-37 -301h-61l90 690h316q75 0 121.5 -55t46.5 -138zM182 633l-39 -275h265q55 0 97.5 41t42.5 97q0 58 -33.5 97.5t-86.5 39.5h-246zM379 749h-49l-120 106l45 44l101 -91l125 91l36 -50z" />
    <glyph glyph-name="rcaron" unicode="&#x159;" horiz-adv-x="383" 
d="M347 454q-70 0 -136.5 -65.5t-80.5 -170.5l-29 -218h-59l66 507h59l-16 -118h8q85 121 202 121q8 0 22 -2l-8 -57q-13 3 -28 3zM284 568h-49l-106 108l42 42l91 -94l115 94l36 -46z" />
    <glyph glyph-name="Sacute" unicode="&#x15a;" horiz-adv-x="643" 
d="M344 698q100 0 168.5 -58.5t68.5 -136.5h-63q0 55 -53 95.5t-130 40.5q-64 0 -121.5 -35.5t-57.5 -97.5q0 -20 8 -37t23.5 -29t31.5 -20.5t40.5 -15t40.5 -10t40 -7.5q106 -19 166.5 -64.5t60.5 -135.5q0 -91 -78 -143t-198 -52q-32 0 -65 7t-67.5 24.5t-61.5 43t-44 66
t-17 90.5h63q0 -86 58.5 -129t140.5 -43q84 0 145.5 37t61.5 102q0 105 -190 139q-36 7 -62 13.5t-58.5 20.5t-52.5 32t-34 48t-14 69q0 84 77 135t173 51zM535 824l-204 -80l-15 47l197 100z" />
    <glyph glyph-name="sacute" unicode="&#x15b;" horiz-adv-x="533" 
d="M263 233l-31 5q-30 4 -45 7.5t-38.5 14.5t-37.5 26q-33 36 -33 84q0 63 61 105q64 42 145 42t136 -45q48 -39 48 -101v-15h-61v10q0 42 -32 68q-38 27 -90 27q-63 0 -105 -28q-41 -24 -41 -64q0 -28 19 -47q24 -24 127 -36q118 -14 153 -47q36 -33 36 -82q0 -70 -64 -116
q-65 -49 -157 -49q-94 0 -154 47q-64 49 -64 117v7h61v-5q0 -21 12.5 -43.5t33.5 -35.5q48 -31 111 -31q60 0 113 32q47 29 47 75q0 30 -20 45q-9 7 -27 13t-30.5 8.5t-40 6.5t-32.5 5zM433 667l-190 -101l-21 42l179 119z" />
    <glyph glyph-name="Scircumflex" unicode="&#x15c;" horiz-adv-x="643" 
d="M344 698q100 0 168.5 -58.5t68.5 -136.5h-63q0 55 -53 95.5t-130 40.5q-64 0 -121.5 -35.5t-57.5 -97.5q0 -20 8 -37t23.5 -29t31.5 -20.5t40.5 -15t40.5 -10t40 -7.5q106 -19 166.5 -64.5t60.5 -135.5q0 -91 -78 -143t-198 -52q-32 0 -65 7t-67.5 24.5t-61.5 43t-44 66
t-17 90.5h63q0 -86 58.5 -129t140.5 -43q84 0 145.5 37t61.5 102q0 105 -190 139q-36 7 -62 13.5t-58.5 20.5t-52.5 32t-34 48t-14 69q0 84 77 135t173 51zM368 899h49l120 -106l-45 -44l-101 91l-125 -91l-36 50z" />
    <glyph glyph-name="scircumflex" unicode="&#x15d;" horiz-adv-x="533" 
d="M263 233l-31 5q-30 4 -45 7.5t-38.5 14.5t-37.5 26q-33 36 -33 84q0 63 61 105q64 42 145 42t136 -45q48 -39 48 -101v-15h-61v10q0 42 -32 68q-38 27 -90 27q-63 0 -105 -28q-41 -24 -41 -64q0 -28 19 -47q24 -24 127 -36q118 -14 153 -47q36 -33 36 -82q0 -70 -64 -116
q-65 -49 -157 -49q-94 0 -154 47q-64 49 -64 117v7h61v-5q0 -21 12.5 -43.5t33.5 -35.5q48 -31 111 -31q60 0 113 32q47 29 47 75q0 30 -20 45q-9 7 -27 13t-30.5 8.5t-40 6.5t-32.5 5zM284 718h49l106 -108l-42 -42l-91 94l-115 -94l-36 46z" />
    <glyph glyph-name="Scedilla" unicode="&#x15e;" horiz-adv-x="643" 
d="M344 698q100 0 168.5 -58.5t68.5 -136.5h-63q0 55 -53 95.5t-130 40.5q-64 0 -121.5 -35.5t-57.5 -97.5q0 -20 8 -37t23.5 -29t31.5 -20.5t40.5 -15t40.5 -10t40 -7.5q106 -19 166.5 -64.5t60.5 -135.5q0 -87 -72 -138.5t-185 -55.5l-4 -27q26 -9 41.5 -30t15.5 -47
q0 -42 -33 -71t-78 -29q-65 0 -87 54l59 27q7 -25 33 -25q19 0 30.5 12t11.5 30q0 35 -59 38l9 70q-39 6 -74.5 21t-67.5 41t-51.5 69t-19.5 97h63q0 -86 58.5 -129t140.5 -43q84 0 145.5 37t61.5 102q0 105 -190 139q-36 7 -62 13.5t-58.5 20.5t-52.5 32t-34 48t-14 69
q0 84 77 135t173 51z" />
    <glyph glyph-name="scedilla" unicode="&#x15f;" horiz-adv-x="533" 
d="M268 -119q0 36 -56 39l9 74q-76 8 -122 45q-64 49 -64 117v7h61v-5q0 -21 12.5 -43.5t33.5 -35.5q48 -31 111 -31q60 0 113 32q47 29 47 75q0 30 -20 45q-9 7 -27 13t-30.5 8.5t-40 6.5t-32.5 5l-31 5q-30 4 -45 7.5t-38.5 14.5t-37.5 26q-33 36 -33 84q0 63 61 105
q64 42 145 42t136 -45q48 -39 48 -101v-15h-61v10q0 42 -32 68q-38 27 -90 27q-63 0 -105 -28q-41 -24 -41 -64q0 -28 19 -47q24 -24 127 -36q118 -14 153 -47q36 -33 36 -82q0 -70 -64 -116q-55 -41 -132 -48l-5 -34q25 -8 40 -28.5t15 -44.5q0 -41 -30.5 -69t-73.5 -28
q-29 0 -50.5 14t-30.5 38l55 25q7 -23 31 -23q17 0 28 11t11 27z" />
    <glyph glyph-name="Scaron" unicode="&#x160;" horiz-adv-x="643" 
d="M344 698q100 0 168.5 -58.5t68.5 -136.5h-63q0 55 -53 95.5t-130 40.5q-64 0 -121.5 -35.5t-57.5 -97.5q0 -20 8 -37t23.5 -29t31.5 -20.5t40.5 -15t40.5 -10t40 -7.5q106 -19 166.5 -64.5t60.5 -135.5q0 -91 -78 -143t-198 -52q-32 0 -65 7t-67.5 24.5t-61.5 43t-44 66
t-17 90.5h63q0 -86 58.5 -129t140.5 -43q84 0 145.5 37t61.5 102q0 105 -190 139q-36 7 -62 13.5t-58.5 20.5t-52.5 32t-34 48t-14 69q0 84 77 135t173 51zM375 749h-49l-120 106l45 44l101 -91l125 91l36 -50z" />
    <glyph glyph-name="scaron" unicode="&#x161;" horiz-adv-x="533" 
d="M263 233l-31 5q-30 4 -45 7.5t-38.5 14.5t-37.5 26q-33 36 -33 84q0 63 61 105q64 42 145 42t136 -45q48 -39 48 -101v-15h-61v10q0 42 -32 68q-38 27 -90 27q-63 0 -105 -28q-41 -24 -41 -64q0 -28 19 -47q24 -24 127 -36q118 -14 153 -47q36 -33 36 -82q0 -70 -64 -116
q-65 -49 -157 -49q-94 0 -154 47q-64 49 -64 117v7h61v-5q0 -21 12.5 -43.5t33.5 -35.5q48 -31 111 -31q60 0 113 32q47 29 47 75q0 30 -20 45q-9 7 -27 13t-30.5 8.5t-40 6.5t-32.5 5zM322 568h-49l-106 108l42 42l91 -94l115 94l36 -46z" />
    <glyph glyph-name="Tcommaaccent" unicode="&#x162;" horiz-adv-x="598" 
d="M612 690l-7 -57h-244l-89 -667q26 -9 41.5 -30t15.5 -47q0 -42 -33 -71t-78 -29q-65 0 -87 54l59 27q7 -25 33 -25q19 0 30.5 12t11.5 30q0 35 -59 38l94 708h-242l7 57h547z" />
    <glyph glyph-name="tcommaaccent" unicode="&#x163;" horiz-adv-x="368" 
d="M88 124l43 329h-105l6 54h106l17 133h59l-17 -133h150l-6 -54h-150l-43 -323q-3 -15 -3 -29q0 -22 17.5 -37.5t44.5 -15.5q44 0 67 38l48 -27q-36 -55 -102 -65l-5 -35q25 -8 40 -28.5t15 -44.5q0 -41 -30.5 -69t-73.5 -28q-29 0 -50.5 14t-30.5 38l55 25q7 -23 31 -23
q17 0 28 11t11 27q0 36 -56 39l9 78q-34 9 -56 35t-22 61q0 15 3 30z" />
    <glyph glyph-name="Tcaron" unicode="&#x164;" horiz-adv-x="598" 
d="M612 690l-7 -57h-244l-84 -633h-61l84 633h-242l7 57h547zM379 749h-49l-120 106l45 44l101 -91l125 91l36 -50z" />
    <glyph glyph-name="tcaron" unicode="&#x165;" horiz-adv-x="368" 
d="M386 712v-8q0 -64 -92 -145l-25 27q37 38 57 75q-40 7 -40 40q0 24 16.5 39t40.5 15q18 0 30.5 -13t12.5 -30zM191 453l-43 -323q-3 -15 -3 -29q0 -22 17.5 -37.5t44.5 -15.5q44 0 67 38l48 -27q-20 -30 -53 -48.5t-69 -18.5q-45 0 -80 28.5t-35 73.5q0 15 3 30l43 329
h-105l6 54h106l17 133h59l-17 -133h150l-6 -54h-150z" />
    <glyph glyph-name="Tbar" unicode="&#x166;" horiz-adv-x="598" 
d="M479 327h-158l-42 -327h-61l42 327h-161l8 57h160l33 249h-242l7 57h547l-7 -57h-244l-33 -249h159z" />
    <glyph glyph-name="tbar" unicode="&#x167;" horiz-adv-x="368" 
d="M88 124l20 158h-104l6 54h105l16 117h-105l6 54h106l17 133h59l-17 -133h150l-6 -54h-150l-16 -117h150l-6 -54h-151l-20 -152q-3 -15 -3 -29q0 -22 17.5 -37.5t44.5 -15.5q44 0 67 38l48 -27q-20 -30 -53 -48.5t-69 -18.5q-45 0 -80 28.5t-35 73.5q0 15 3 30z" />
    <glyph glyph-name="Utilde" unicode="&#x168;" horiz-adv-x="668" 
d="M582 690h61l-58 -434q-18 -133 -86 -198.5t-204 -65.5q-65 0 -112.5 19t-74.5 52t-39.5 72.5t-12.5 85.5q0 27 3 46l57 423h61l-57 -417q-3 -19 -3 -39q0 -79 43.5 -131t138.5 -52q108 0 162 55t67 167zM237 774l2 21q4 38 33.5 63.5t66.5 25.5q24 0 44.5 -9.5t31.5 -21
t23 -21t22 -9.5q31 0 34 30l2 21h63l-2 -21q-4 -38 -33 -63.5t-67 -25.5q-24 0 -44.5 9.5t-31.5 21t-23 21t-22 9.5q-31 0 -34 -30l-2 -21h-63z" />
    <glyph glyph-name="utilde" unicode="&#x169;" horiz-adv-x="564" 
d="M216 48q70 0 136.5 65.5t80.5 170.5l30 223h59l-66 -507h-59l14 107h-6q-81 -115 -203 -115q-60 0 -102 38t-42 92q0 8 1 16l48 369h59l-47 -359q-1 -6 -1 -14q0 -31 25 -58.5t73 -27.5zM181 596l3 19q4 37 33 61.5t65 24.5q29 0 49.5 -14.5t34.5 -29.5t27 -15t23.5 7.5
t11.5 21.5l3 19h59l-3 -19q-4 -37 -33 -61.5t-65 -24.5q-29 0 -49.5 14.5t-34.5 29.5t-27 15t-23.5 -7.5t-11.5 -21.5l-3 -19h-59z" />
    <glyph glyph-name="Umacron" unicode="&#x16a;" horiz-adv-x="668" 
d="M582 690h61l-58 -434q-18 -133 -86 -198.5t-204 -65.5q-65 0 -112.5 19t-74.5 52t-39.5 72.5t-12.5 85.5q0 27 3 46l57 423h61l-57 -417q-3 -19 -3 -39q0 -79 43.5 -131t138.5 -52q108 0 162 55t67 167zM250 796l8 57h284l-8 -57h-284z" />
    <glyph glyph-name="umacron" unicode="&#x16b;" horiz-adv-x="564" 
d="M216 48q70 0 136.5 65.5t80.5 170.5l30 223h59l-66 -507h-59l14 107h-6q-81 -115 -203 -115q-60 0 -102 38t-42 92q0 8 1 16l48 369h59l-47 -359q-1 -6 -1 -14q0 -31 25 -58.5t73 -27.5zM195 616l7 54h268l-7 -54h-268z" />
    <glyph glyph-name="Ubreve" unicode="&#x16c;" horiz-adv-x="668" 
d="M582 690h61l-58 -434q-18 -133 -86 -198.5t-204 -65.5q-65 0 -112.5 19t-74.5 52t-39.5 72.5t-12.5 85.5q0 27 3 46l57 423h61l-57 -417q-3 -19 -3 -39q0 -79 43.5 -131t138.5 -52q108 0 162 55t67 167zM490 898h62q-4 -62 -52 -104.5t-108 -42.5q-58 0 -97.5 38
t-39.5 94v15h63v-9q0 -34 22.5 -56.5t56.5 -22.5q36 0 63 25t30 63z" />
    <glyph glyph-name="ubreve" unicode="&#x16d;" horiz-adv-x="564" 
d="M216 48q70 0 136.5 65.5t80.5 170.5l30 223h59l-66 -507h-59l14 107h-6q-81 -115 -203 -115q-60 0 -102 38t-42 92q0 8 1 16l48 369h59l-47 -359q-1 -6 -1 -14q0 -31 25 -58.5t73 -27.5zM423 713h59q-4 -59 -49 -99t-101 -40q-55 0 -92 35.5t-37 89.5v14h56v-8
q0 -32 21.5 -53.5t54.5 -21.5t59 24.5t29 58.5z" />
    <glyph glyph-name="Uring" unicode="&#x16e;" horiz-adv-x="668" 
d="M582 690h61l-58 -434q-18 -133 -86 -198.5t-204 -65.5q-65 0 -112.5 19t-74.5 52t-39.5 72.5t-12.5 85.5q0 27 3 46l57 423h61l-57 -417q-3 -19 -3 -39q0 -79 43.5 -131t138.5 -52q108 0 162 55t67 167zM411 928q41 0 67 -27.5t26 -68.5q0 -49 -34 -81.5t-80 -32.5
q-42 0 -70 27.5t-28 68.5q0 49 35.5 81.5t83.5 32.5zM405 876q-25 0 -42.5 -16.5t-17.5 -41.5q0 -20 14 -34t35 -14q24 0 41 16.5t17 41.5q0 21 -13 34.5t-34 13.5z" />
    <glyph glyph-name="uring" unicode="&#x16f;" horiz-adv-x="564" 
d="M216 48q70 0 136.5 65.5t80.5 170.5l30 223h59l-66 -507h-59l14 107h-6q-81 -115 -203 -115q-60 0 -102 38t-42 92q0 8 1 16l48 369h59l-47 -359q-1 -6 -1 -14q0 -31 25 -58.5t73 -27.5zM348 760q40 0 66 -27.5t26 -65.5q0 -48 -33 -80.5t-78 -32.5q-39 0 -67.5 28
t-28.5 66q0 49 33.5 80.5t81.5 31.5zM345 708q-25 0 -42 -15.5t-17 -40.5q0 -19 14 -32.5t33 -13.5q24 0 40 16t16 41q0 18 -12.5 31.5t-31.5 13.5z" />
    <glyph glyph-name="Uhungarumlaut" unicode="&#x170;" horiz-adv-x="668" 
d="M582 690h61l-58 -434q-18 -133 -86 -198.5t-204 -65.5q-65 0 -112.5 19t-74.5 52t-39.5 72.5t-12.5 85.5q0 27 3 46l57 423h61l-57 -417q-3 -19 -3 -39q0 -79 43.5 -131t138.5 -52q108 0 162 55t67 167zM302 744l-30 38l148 135l42 -53zM443 744l-24 42l163 115l33 -59z
" />
    <glyph glyph-name="uhungarumlaut" unicode="&#x171;" horiz-adv-x="564" 
d="M216 48q70 0 136.5 65.5t80.5 170.5l30 223h59l-66 -507h-59l14 107h-6q-81 -115 -203 -115q-60 0 -102 38t-42 92q0 8 1 16l48 369h59l-47 -359q-1 -6 -1 -14q0 -31 25 -58.5t73 -27.5zM244 566l-28 37l144 131l41 -52zM380 566l-23 41l160 112l32 -57z" />
    <glyph glyph-name="Uogonek" unicode="&#x172;" horiz-adv-x="668" 
d="M306 -8h-11q-65 0 -112.5 19t-74.5 52t-39.5 72.5t-12.5 85.5q0 27 3 46l57 423h61l-57 -417q-3 -19 -3 -39q0 -79 43.5 -131t138.5 -52q108 0 162 55t67 167l54 417h61l-58 -434q-26 -189 -155 -242q-142 -58 -142 -138q0 -13 10.5 -21t23.5 -8q28 0 42 26l48 -25
q-10 -23 -37 -41t-64 -18t-62.5 20.5t-25.5 60.5q0 63 83 122z" />
    <glyph glyph-name="uogonek" unicode="&#x173;" horiz-adv-x="564" 
d="M398 6l13 101h-6q-81 -115 -203 -115q-60 0 -102 38t-42 92q0 8 1 16l48 369h59l-47 -359q-1 -6 -1 -14q0 -31 25 -58.5t73 -27.5q70 0 136.5 65.5t80.5 170.5l30 223h59l-66 -507q-22 -12 -42 -27t-41 -41t-21 -51q0 -36 37 -36q31 0 41 25l47 -24q-9 -22 -36.5 -39.5
t-64.5 -17.5t-62.5 22t-25.5 63q0 35 33 72t77 60z" />
    <glyph glyph-name="Wcircumflex" unicode="&#x174;" horiz-adv-x="841" 
d="M461 614h-11l-219 -614h-93l-68 690h63l61 -626l212 596h111l54 -596l227 626h63l-250 -690h-93zM461 899h49l120 -106l-45 -44l-101 91l-125 -91l-36 50z" />
    <glyph glyph-name="wcircumflex" unicode="&#x175;" horiz-adv-x="763" 
d="M401 427l-179 -427h-94l-66 507h61l58 -456h5l190 452h72l66 -452h5l184 456h61l-208 -507h-94zM414 718h49l106 -108l-42 -42l-91 94l-115 -94l-36 46z" />
    <glyph glyph-name="Ycircumflex" unicode="&#x176;" horiz-adv-x="575" 
d="M265 0h-61l42 322l-190 368h71l152 -301h13l232 301h71l-288 -368zM321 899h49l120 -106l-45 -44l-101 91l-125 -91l-36 50z" />
    <glyph glyph-name="ycircumflex" unicode="&#x177;" horiz-adv-x="504" 
d="M31 -205q-26 0 -48 7l21 55q18 -6 31 -6q71 0 97 53l67 131l-143 472h62l116 -394h9l201 394h65l-321 -621q-47 -91 -157 -91zM283 718h49l106 -108l-42 -42l-91 94l-115 -94l-36 46z" />
    <glyph glyph-name="Ydieresis" unicode="&#x178;" horiz-adv-x="575" 
d="M265 0h-61l42 322l-190 368h71l152 -301h13l232 301h71l-288 -368zM250 872q18 0 30 -12.5t12 -30.5q0 -23 -15 -37.5t-37 -14.5q-19 0 -31.5 12.5t-12.5 30.5q0 23 16 37.5t38 14.5zM443 872q18 0 30 -12.5t12 -30.5q0 -23 -15 -37.5t-37 -14.5q-19 0 -31.5 12.5
t-12.5 30.5q0 23 16 37.5t38 14.5z" />
    <glyph glyph-name="Zacute" unicode="&#x179;" horiz-adv-x="629" 
d="M538 0h-555l8 60l542 566l1 7h-435l8 57h511l-8 -59l-543 -567l-1 -7h480zM528 824l-204 -80l-15 47l197 100z" />
    <glyph glyph-name="zacute" unicode="&#x17a;" horiz-adv-x="506" 
d="M412 0h-412l4 54l366 396v3h-285l7 54h366l-7 -53l-366 -397v-3h334zM430 667l-190 -101l-21 42l179 119z" />
    <glyph glyph-name="Zdotaccent" unicode="&#x17b;" horiz-adv-x="629" 
d="M538 0h-555l8 60l542 566l1 7h-435l8 57h511l-8 -59l-543 -567l-1 -7h480zM385 872q18 0 30 -12.5t12 -30.5q0 -23 -15 -37.5t-37 -14.5q-19 0 -31.5 12.5t-12.5 30.5q0 23 16 37.5t38 14.5z" />
    <glyph glyph-name="zdotaccent" unicode="&#x17c;" horiz-adv-x="506" 
d="M412 0h-412l4 54l366 396v3h-285l7 54h366l-7 -53l-366 -397v-3h334zM299 687q18 0 29 -11.5t11 -29.5q0 -21 -14.5 -35t-34.5 -14q-18 0 -30 12t-12 29q0 21 15 35t36 14z" />
    <glyph glyph-name="Zcaron" unicode="&#x17d;" horiz-adv-x="629" 
d="M538 0h-555l8 60l542 566l1 7h-435l8 57h511l-8 -59l-543 -567l-1 -7h480zM403 749h-49l-120 106l45 44l101 -91l125 91l36 -50z" />
    <glyph glyph-name="zcaron" unicode="&#x17e;" horiz-adv-x="506" 
d="M412 0h-412l4 54l366 396v3h-285l7 54h366l-7 -53l-366 -397v-3h334zM310 568h-49l-106 108l42 42l91 -94l115 94l36 -46z" />
    <glyph glyph-name="longs" unicode="&#x17f;" horiz-adv-x="350" 
d="M140 507l8 57q8 62 57.5 106t111.5 44q70 0 108 -55l-54 -28q-22 27 -61 27q-38 0 -68 -26.5t-35 -64.5l-74 -567h-59l59 453h-119l7 54h119z" />
    <glyph glyph-name="uni018F" unicode="&#x18f;" horiz-adv-x="692" 
d="M375 698q125 0 195 -102q63 -92 63 -219q0 -151 -76 -256q-93 -129 -245 -129q-124 0 -195 103q-63 91 -63 232q0 9 3 36h514v12q0 111 -49 184q-56 80 -150 80q-166 0 -244 -163l-54 26q43 91 118.5 143.5t182.5 52.5zM508 155q44 63 58 151h-450q0 -104 49 -175
q56 -80 150 -80q120 0 193 104z" />
    <glyph glyph-name="florin" unicode="&#x192;" horiz-adv-x="459" 
d="M133 44l48 284h-136l9 52h136l17 103q11 63 56 97t118 34q74 0 113 -22l-32 -51q-28 15 -72 15q-105 0 -121 -90l-15 -86h172l-9 -52h-171l-51 -301q-11 -64 -56.5 -97.5t-117.5 -33.5q-78 0 -116 22l33 52q28 -15 69 -15q57 0 87 19.5t39 69.5z" />
    <glyph glyph-name="uni01B5" unicode="&#x1b5;" horiz-adv-x="629" 
d="M530 317h-221l-242 -253l-1 -7h480l-8 -57h-555l8 60l246 257h-131l8 57h177l242 252l1 7h-435l8 57h511l-8 -59l-246 -257h174z" />
    <glyph glyph-name="uni01B6" unicode="&#x1b6;" horiz-adv-x="506" 
d="M385 222h-148l-152 -165v-3h334l-7 -54h-412l4 54l155 168h-68l7 57h114l158 171v3h-285l7 54h366l-7 -53l-162 -175h103z" />
    <glyph glyph-name="Aringacute" unicode="&#x1fa;" horiz-adv-x="600" 
d="M548 0h-65l-47 205h-298l-90 -205h-67l306 690h99zM331 645l-167 -382h258l-88 382h-3zM361 918q41 0 67 -27.5t26 -68.5q0 -49 -34 -81.5t-80 -32.5q-42 0 -70 27.5t-28 68.5q0 49 35.5 81.5t83.5 32.5zM355 866q-25 0 -42.5 -16.5t-17.5 -41.5q0 -20 14 -34t35 -14
q24 0 41 16.5t17 41.5q0 21 -13 34.5t-34 13.5zM484 994l-204 -80l-15 47l197 100z" />
    <glyph glyph-name="aringacute" unicode="&#x1fb;" horiz-adv-x="596" 
d="M261 -8q-99 0 -155 74q-50 66 -50 167q0 112 60 191q71 93 194 93q114 0 170 -103h3l12 93h59l-65 -507h-59l10 89h-4q-37 -49 -75.5 -73t-99.5 -24zM267 48q92 0 149 74q47 63 47 153q0 80 -38 130q-41 56 -113 56q-93 0 -149 -73q-47 -63 -47 -154q0 -80 38 -130
q41 -56 113 -56zM345 749q40 0 66 -27.5t26 -65.5q0 -48 -33 -80.5t-78 -32.5q-39 0 -67.5 28t-28.5 66q0 49 33.5 80.5t81.5 31.5zM342 697q-25 0 -42 -15.5t-17 -40.5q0 -19 14 -32.5t33 -13.5q24 0 40 16t16 41q0 18 -12.5 31.5t-31.5 13.5zM463 856l-190 -101l-21 42
l179 119z" />
    <glyph glyph-name="AEacute" unicode="&#x1fc;" horiz-adv-x="981" 
d="M450 0l28 205h-287l-141 -205h-69l467 690h511l-8 -57h-356l-34 -255h316l-7 -57h-316l-35 -264h376l-8 -57h-437zM477 633l-248 -371h257l48 371h-57zM813 824l-204 -80l-15 47l197 100z" />
    <glyph glyph-name="aeacute" unicode="&#x1fd;" horiz-adv-x="931" 
d="M624 -8q-96 0 -156 75q-10 12 -17 24h-18q-46 -50 -100 -74.5t-100 -24.5h-7q-170 0 -170 148q0 67 58.5 108.5t124.5 41.5h181l9 76q0 1 0.5 5t0.5 6q0 33 -25.5 58.5t-90.5 25.5q-38 0 -66.5 -9t-43.5 -21.5t-24 -27.5t-11.5 -24t-2.5 -15h-59q0 7 3.5 21.5t17 38.5
t35 43.5t63.5 34.5t97 15q76 0 115 -26t48 -65q78 91 191 91q98 0 155 -77q46 -62 46 -172q0 -15 -3 -30h-404q0 -83 37 -134q43 -56 113 -56q59 0 103 28q46 28 72 81l60 -16q-13 -28 -34 -55q-73 -94 -198 -94zM406 174l8 64h-163q-60 0 -98 -25.5t-38 -71.5
q0 -93 123 -93q57 0 109 37.5t59 88.5zM670 461q-70 0 -122 -47q-53 -45 -70 -124h338q-2 78 -36 122q-39 49 -110 49zM665 667l-190 -101l-21 42l179 119z" />
    <glyph glyph-name="Oslashacute" unicode="&#x1fe;" horiz-adv-x="695" 
d="M315 -8q-69 0 -122 33l-56 -96l-49 25l61 105q-13 13 -29 36q-63 89 -63 219q0 151 76 256q93 128 245 128q68 0 123 -34l56 96l49 -25l-61 -105q14 -16 28 -34q63 -88 63 -219q0 -151 -76 -256q-93 -129 -245 -129zM173 128l9 -12l289 496q-41 27 -97 27
q-108 0 -179 -91q-75 -96 -75 -233q0 -111 53 -187zM319 51q103 0 175 87q79 96 79 237q0 112 -51 186q-9 12 -10 13l-289 -496q41 -27 96 -27zM528 824l-204 -80l-15 47l197 100z" />
    <glyph glyph-name="oslashacute" unicode="&#x1ff;" horiz-adv-x="592" 
d="M31 -40l80 101l-3 5q-52 65 -52 167q0 112 63 191q75 93 203 93q70 0 122 -36l73 92l42 -30l-77 -97l2 -3q52 -65 52 -167q0 -110 -63 -189q-78 -95 -203 -95q-69 0 -121 35l-77 -97zM117 234q0 -76 32 -125l259 326q-37 26 -88 26q-96 0 -154 -73q-49 -63 -49 -154z
M272 48q88 0 145 64q58 66 58 163q0 75 -31 123l-259 -326q37 -24 87 -24zM464 667l-190 -101l-21 42l179 119z" />
    <glyph glyph-name="Scommaaccent" unicode="&#x218;" horiz-adv-x="643" 
d="M344 698q100 0 168.5 -58.5t68.5 -136.5h-63q0 55 -53 95.5t-130 40.5q-64 0 -121.5 -35.5t-57.5 -97.5q0 -20 8 -37t23.5 -29t31.5 -20.5t40.5 -15t40.5 -10t40 -7.5q106 -19 166.5 -64.5t60.5 -135.5q0 -91 -78 -143t-198 -52q-32 0 -65 7t-67.5 24.5t-61.5 43t-44 66
t-17 90.5h63q0 -86 58.5 -129t140.5 -43q84 0 145.5 37t61.5 102q0 105 -190 139q-36 7 -62 13.5t-58.5 20.5t-52.5 32t-34 48t-14 69q0 84 77 135t173 51zM329 -91v-8q0 -50 -80 -125l-25 27q36 29 45 55q-40 7 -40 40q0 24 16.5 39t40.5 15q18 0 30.5 -13t12.5 -30z" />
    <glyph glyph-name="scommaaccent" unicode="&#x219;" horiz-adv-x="533" 
d="M263 233l-31 5q-30 4 -45 7.5t-38.5 14.5t-37.5 26q-33 36 -33 84q0 63 61 105q64 42 145 42t136 -45q48 -39 48 -101v-15h-61v10q0 42 -32 68q-38 27 -90 27q-63 0 -105 -28q-41 -24 -41 -64q0 -28 19 -47q24 -24 127 -36q118 -14 153 -47q36 -33 36 -82q0 -70 -64 -116
q-65 -49 -157 -49q-94 0 -154 47q-64 49 -64 117v7h61v-5q0 -21 12.5 -43.5t33.5 -35.5q48 -31 111 -31q60 0 113 32q47 29 47 75q0 30 -20 45q-9 7 -27 13t-30.5 8.5t-40 6.5t-32.5 5zM293 -91v-8q0 -50 -80 -125l-25 27q36 29 45 55q-40 7 -40 40q0 24 16.5 39t40.5 15
q18 0 30.5 -13t12.5 -30z" />
    <glyph glyph-name="uni021A" unicode="&#x21a;" horiz-adv-x="598" 
d="M612 690l-7 -57h-244l-84 -633h-61l84 633h-242l7 57h547zM284 -91v-8q0 -50 -80 -125l-25 27q36 29 45 55q-40 7 -40 40q0 24 16.5 39t40.5 15q18 0 30.5 -13t12.5 -30z" />
    <glyph glyph-name="uni021B" unicode="&#x21b;" horiz-adv-x="368" 
d="M191 453l-43 -323q-3 -15 -3 -29q0 -22 17.5 -37.5t44.5 -15.5q44 0 67 38l48 -27q-20 -30 -53 -48.5t-69 -18.5q-45 0 -80 28.5t-35 73.5q0 15 3 30l43 329h-105l6 54h106l17 133h59l-17 -133h150l-6 -54h-150zM217 -91v-8q0 -50 -80 -125l-25 27q36 29 45 55
q-40 7 -40 40q0 24 16.5 39t40.5 15q18 0 30.5 -13t12.5 -30z" />
    <glyph glyph-name="dotlessj" unicode="&#x237;" horiz-adv-x="212" 
d="M168 507l-71 -552q-8 -66 -57.5 -113t-132.5 -47h-6l7 56h6q55 0 86 29.5t37 71.5l72 555h59z" />
    <glyph glyph-name="uni0259" unicode="&#x259;" horiz-adv-x="584" 
d="M317 517q99 0 160 -75q54 -68 54 -163q0 -110 -63 -189q-78 -98 -206 -98q-100 0 -159 77q-47 61 -47 172q0 15 3 30h410v8q0 76 -38 126q-43 56 -115 56q-59 0 -105 -28q-47 -29 -73 -81l-59 16q13 28 34 55q77 94 204 94zM267 48q72 0 125 47q54 47 71 124h-345
q2 -79 37 -122q39 -49 112 -49z" />
    <glyph glyph-name="circumflex" unicode="&#x2c6;" horiz-adv-x="392" 
d="M183 718h49l106 -108l-42 -42l-91 94l-115 -94l-36 46z" />
    <glyph glyph-name="caron" unicode="&#x2c7;" horiz-adv-x="392" 
d="M209 568h-49l-106 108l42 42l91 -94l115 94l36 -46z" />
    <glyph glyph-name="uni02C9" unicode="&#x2c9;" horiz-adv-x="383" 
d="M54 616l7 54h268l-7 -54h-268z" />
    <glyph glyph-name="breve" unicode="&#x2d8;" horiz-adv-x="387" 
d="M274 713h59q-4 -59 -49 -99t-101 -40q-55 0 -92 35.5t-37 89.5v14h56v-8q0 -32 21.5 -53.5t54.5 -21.5t59 24.5t29 58.5z" />
    <glyph glyph-name="dotaccent" unicode="&#x2d9;" horiz-adv-x="199" 
d="M105 687q18 0 29 -11.5t11 -29.5q0 -21 -14.5 -35t-34.5 -14q-18 0 -30 12t-12 29q0 21 15 35t36 14z" />
    <glyph glyph-name="ring" unicode="&#x2da;" horiz-adv-x="315" 
d="M169 760q40 0 66 -27.5t26 -65.5q0 -48 -33 -80.5t-78 -32.5q-39 0 -67.5 28t-28.5 66q0 49 33.5 80.5t81.5 31.5zM166 708q-25 0 -42 -15.5t-17 -40.5q0 -19 14 -32.5t33 -13.5q24 0 40 16t16 41q0 18 -12.5 31.5t-31.5 13.5z" />
    <glyph glyph-name="ogonek" unicode="&#x2db;" horiz-adv-x="297" 
d="M153 0h69q-22 -12 -42 -27t-41 -41t-21 -51q0 -36 37 -36q31 0 41 25l47 -24q-9 -22 -36.5 -39.5t-64.5 -17.5t-62.5 22t-25.5 63q0 33 29.5 67.5t69.5 58.5z" />
    <glyph glyph-name="tilde" unicode="&#x2dc;" horiz-adv-x="417" 
d="M54 596l3 19q4 37 33 61.5t65 24.5q29 0 49.5 -14.5t34.5 -29.5t27 -15t23.5 7.5t11.5 21.5l3 19h59l-3 -19q-4 -37 -33 -61.5t-65 -24.5q-29 0 -49.5 14.5t-34.5 29.5t-27 15t-23.5 -7.5t-11.5 -21.5l-3 -19h-59z" />
    <glyph glyph-name="hungarumlaut" unicode="&#x2dd;" horiz-adv-x="441" 
d="M82 566l-28 37l144 131l41 -52zM218 566l-23 41l160 112l32 -57z" />
    <glyph glyph-name="uni0394" unicode="&#x394;" horiz-adv-x="544" 
d="M355 690l135 -636l-6 -54h-484l6 54l291 636h58zM430 54l-115 548l-249 -548h364z" />
    <glyph glyph-name="uni03A9" unicode="&#x3a9;" horiz-adv-x="621" 
d="M169 54l1 11q-4 5 -11 14t-24.5 37.5t-30.5 59t-24 75t-11 88.5q0 150 87.5 254.5t205.5 104.5q117 0 176.5 -81t59.5 -214q0 -53 -18.5 -107t-44.5 -94t-52 -72t-45 -48l-18 -17l-2 -11h132l-6 -54h-217l4 51q8 5 22 15t49 43t61.5 69t48.5 92.5t22 113.5
q0 255 -184 255q-94 0 -158 -91.5t-64 -214.5q0 -60 13.5 -111t32.5 -81t38 -51.5t32 -29.5l14 -9l-3 -51h-223l6 54h131z" />
    <glyph glyph-name="uni03BC" unicode="&#x3bc;" horiz-adv-x="550" 
d="M254 -8q-30 0 -48 3t-45 19t-54 47l-29 -238h-59l84 684h59l-36 -296q-2 -13 -2 -35q0 -125 130 -125q64 0 109.5 66t59.5 180l26 210h59l-62 -507h-59l12 93h-4q-62 -101 -141 -101z" />
    <glyph glyph-name="pi" unicode="&#x3c0;" horiz-adv-x="553" 
d="M374 137l42 319h-231l-59 -456h-60l59 456h-66l7 51h480l-7 -51h-63l-43 -330q-3 -19 -5 -41v2q0 -39 28 -39h25l-8 -56h-40q-32 0 -49.5 22.5t-17.5 60.5q0 6 8 62z" />
    <glyph glyph-name="afii10023" unicode="&#x401;" horiz-adv-x="618" 
d="M596 690l-7 -57h-406l-34 -255h366l-8 -57h-366l-35 -264h426l-7 -57h-487l91 690h467zM284 872q18 0 30 -12.5t12 -30.5q0 -23 -15 -37.5t-37 -14.5q-19 0 -31.5 12.5t-12.5 30.5q0 23 16 37.5t38 14.5zM477 872q18 0 30 -12.5t12 -30.5q0 -23 -15 -37.5t-37 -14.5
q-19 0 -31.5 12.5t-12.5 30.5q0 23 16 37.5t38 14.5z" />
    <glyph glyph-name="afii10051" unicode="&#x402;" horiz-adv-x="732" 
d="M535 633h-249l-29 -237h8q43 55 103.5 88t129.5 33q54 0 91.5 -13.5t53.5 -36t21.5 -40.5t5.5 -38q0 -5 -0.5 -11.5t-0.5 -7.5l-50 -415q-8 -66 -57.5 -113t-132.5 -47h-6l7 56h6q55 0 86.5 29.5t36.5 71.5l50 407q0 1 0.5 4.5t0.5 6.5q0 14 -4 26.5t-15 29t-37 26
t-64 9.5q-84 0 -162.5 -67t-91.5 -173l-27 -221h-59l77 633h-169l7 57h477z" />
    <glyph glyph-name="afii10052" unicode="&#x403;" horiz-adv-x="504" 
d="M558 690l-7 -57h-375l-77 -633h-61l84 690h436zM507 824l-204 -80l-15 47l197 100z" />
    <glyph glyph-name="afii10053" unicode="&#x404;" horiz-adv-x="651" 
d="M352 -8q-61 0 -111.5 28t-83.5 75q-63 89 -63 219q0 151 76 256q91 128 245 128q124 0 196 -102q28 -42 43 -90l-58 -26q-19 66 -55 105q-51 54 -129 54q-122 0 -194 -109q-42 -64 -57 -152h333l-7 -57h-330v-5q0 -116 55 -191q54 -74 144 -74q85 0 151 60q45 41 69 98
l57 -27q-18 -36 -36 -61q-90 -129 -245 -129z" />
    <glyph glyph-name="afii10054" unicode="&#x405;" horiz-adv-x="643" 
d="M344 698q100 0 168.5 -58.5t68.5 -136.5h-63q0 55 -53 95.5t-130 40.5q-64 0 -121.5 -35.5t-57.5 -97.5q0 -20 8 -37t23.5 -29t31.5 -20.5t40.5 -15t40.5 -10t40 -7.5q106 -19 166.5 -64.5t60.5 -135.5q0 -91 -78 -143t-198 -52q-32 0 -65 7t-67.5 24.5t-61.5 43t-44 66
t-17 90.5h63q0 -86 58.5 -129t140.5 -43q84 0 145.5 37t61.5 102q0 105 -190 139q-36 7 -62 13.5t-58.5 20.5t-52.5 32t-34 48t-14 69q0 84 77 135t173 51z" />
    <glyph glyph-name="afii10055" unicode="&#x406;" horiz-adv-x="229" 
d="M38 0l91 690h61l-91 -690h-61z" />
    <glyph glyph-name="afii10056" unicode="&#x407;" horiz-adv-x="229" 
d="M38 0l91 690h61l-91 -690h-61zM79 872q18 0 30 -12.5t12 -30.5q0 -23 -15 -37.5t-37 -14.5q-19 0 -31.5 12.5t-12.5 30.5q0 23 16 37.5t38 14.5zM272 872q18 0 30 -12.5t12 -30.5q0 -23 -15 -37.5t-37 -14.5q-19 0 -31.5 12.5t-12.5 30.5q0 23 16 37.5t38 14.5z" />
    <glyph glyph-name="afii10057" unicode="&#x408;" horiz-adv-x="525" 
d="M439 690h61l-60 -452q-32 -246 -244 -246q-177 0 -189 182l62 14q8 -137 133 -137q153 0 177 187z" />
    <glyph glyph-name="afii10058" unicode="&#x409;" horiz-adv-x="1051" 
d="M832 0h-328l77 633h-263l-80 -356q-64 -277 -224 -277l6 57q35 5 62.5 26t45.5 55t29 67.5t21 77.5l92 407h379l-35 -290h251q73 0 118.5 -56.5t45.5 -141.5q0 -82 -60.5 -142t-136.5 -60zM849 343h-242l-35 -286h257q52 0 94 43t42 100q0 60 -32.5 101.5t-83.5 41.5z
" />
    <glyph glyph-name="afii10059" unicode="&#x40a;" horiz-adv-x="1005" 
d="M542 690h61l-35 -290h251q73 0 118.5 -56.5t45.5 -141.5q0 -82 -60.5 -142t-136.5 -60h-328l42 343h-359l-42 -343h-61l84 690h61l-35 -290h359zM803 343h-242l-35 -286h257q52 0 94 43t42 100q0 60 -32.5 101.5t-83.5 41.5z" />
    <glyph glyph-name="afii10060" unicode="&#x40b;" horiz-adv-x="729" 
d="M535 633h-249l-29 -237h8q43 55 103.5 88t129.5 33q54 0 91.5 -13.5t53.5 -36t21.5 -40.5t5.5 -38q0 -12 -1 -19l-45 -370h-59l44 359q0 1 0.5 5t0.5 6q0 13 -4 26t-15 29t-37 26t-64 10q-84 0 -162.5 -67t-91.5 -173l-27 -221h-59l77 633h-169l7 57h477z" />
    <glyph glyph-name="afii10061" unicode="&#x40c;" horiz-adv-x="609" 
d="M38 0l84 690h61l-37 -303h41l356 303h86l-344 -293l-2 -18l187 -276q29 -44 84 -44l-7 -59q-13 0 -30.5 3t-48 19t-48.5 43l-179 265h-102l-40 -330h-61zM521 824l-204 -80l-15 47l197 100z" />
    <glyph glyph-name="afii10062" unicode="&#x40e;" horiz-adv-x="542" 
d="M89 -8q-27 0 -51 7l21 55q18 -6 35 -6q37 0 66.5 15t41.5 38l46 92l-156 497h66l126 -399h16l207 399h65l-316 -607q-21 -40 -65.5 -65.5t-101.5 -25.5zM444 898h62q-4 -62 -52 -104.5t-108 -42.5q-58 0 -97.5 38t-39.5 94v15h63v-9q0 -34 22.5 -56.5t56.5 -22.5
q36 0 63 25t30 63z" />
    <glyph glyph-name="afii10145" unicode="&#x40f;" horiz-adv-x="625" 
d="M586 690l-84 -690h-201l-24 -144h-50l11 144h-200l84 690h61l-78 -633h342l78 633h61z" />
    <glyph glyph-name="afii10017" unicode="&#x410;" horiz-adv-x="600" 
d="M548 0h-65l-47 205h-298l-90 -205h-67l306 690h99zM331 645l-167 -382h258l-88 382h-3z" />
    <glyph glyph-name="afii10018" unicode="&#x411;" horiz-adv-x="587" 
d="M122 690h436l-7 -57h-375l-28 -233h251q73 0 118.5 -56.5t45.5 -141.5q0 -82 -60.5 -142t-136.5 -60h-328zM383 343h-242l-35 -286h257q52 0 94 43t42 100q0 60 -32.5 101.5t-83.5 41.5z" />
    <glyph glyph-name="afii10019" unicode="&#x412;" horiz-adv-x="625" 
d="M149 384h249q54 0 92 37t38 88t-38 87.5t-92 36.5h-216zM142 327l-36 -270h267q53 0 92 39.5t39 94.5q0 57 -38.5 96.5t-92.5 39.5h-231zM38 0l91 690h276q76 0 130.5 -52t54.5 -126q0 -52 -29 -91t-78 -57l-1 -11q37 -24 61 -68t24 -94q0 -80 -54 -135.5t-129 -55.5
h-346z" />
    <glyph glyph-name="afii10020" unicode="&#x413;" horiz-adv-x="504" 
d="M558 690l-7 -57h-375l-77 -633h-61l84 690h436z" />
    <glyph glyph-name="afii10021" unicode="&#x414;" horiz-adv-x="651" 
d="M213 690h399l-78 -633h70l-29 -201h-57l18 144h-527l-22 -144h-57l24 201h70q71 53 109 226q14 60 34 162t33 173zM193 277q-40 -159 -95 -220h375l70 576h-281q-40 -232 -69 -356z" />
    <glyph glyph-name="afii10022" unicode="&#x415;" horiz-adv-x="618" 
d="M596 690l-7 -57h-406l-34 -255h366l-8 -57h-366l-35 -264h426l-7 -57h-487l91 690h467z" />
    <glyph glyph-name="afii10024" unicode="&#x416;" horiz-adv-x="1039" 
d="M410 330l-245 -265q-25 -27 -60 -43t-53.5 -19t-31.5 -3l7 59q55 0 94 42l260 281v15l-272 293h81l282 -303h43l37 303h61l-37 -303h41l356 303h86l-344 -293l-2 -18l187 -276q29 -44 84 -44l-7 -59q-13 0 -30.5 3t-48 19t-48.5 43l-179 265h-102l-40 -330h-61l40 330
h-98z" />
    <glyph glyph-name="afii10025" unicode="&#x417;" horiz-adv-x="525" 
d="M321 642q-60 0 -106 -35q-43 -35 -49 -81h-61q0 35 19.5 68t47.5 55q66 49 149 49q76 0 136 -43q63 -45 63 -121q0 -52 -37 -94q-32 -36 -92 -64l-2 -12q46 -20 78 -68q29 -44 29 -96q0 -82 -68 -144q-69 -64 -169 -64q-83 0 -147 53q-64 51 -68 125h62q6 -51 47 -83
q49 -39 107 -39q72 0 125 48q50 45 50 108t-40 98q-43 40 -113 40h-58l8 55h73q64 0 107 40q47 37 47 92q0 50 -44 83q-41 30 -94 30z" />
    <glyph glyph-name="afii10026" unicode="&#x418;" horiz-adv-x="695" 
d="M122 690h61l-79 -647h5l437 647h110l-84 -690h-61l79 647h-4l-438 -647h-110z" />
    <glyph glyph-name="afii10027" unicode="&#x419;" horiz-adv-x="695" 
d="M122 690h61l-79 -647h5l437 647h110l-84 -690h-61l79 647h-4l-438 -647h-110zM502 898h62q-4 -62 -52 -104.5t-108 -42.5q-58 0 -97.5 38t-39.5 94v15h63v-9q0 -34 22.5 -56.5t56.5 -22.5q36 0 63 25t30 63z" />
    <glyph glyph-name="afii10028" unicode="&#x41a;" horiz-adv-x="609" 
d="M38 0l84 690h61l-37 -303h41l356 303h86l-344 -293l-2 -18l187 -276q29 -44 84 -44l-7 -59q-13 0 -30.5 3t-48 19t-48.5 43l-179 265h-102l-40 -330h-61z" />
    <glyph glyph-name="afii10029" unicode="&#x41b;" horiz-adv-x="689" 
d="M257 690h393l-85 -690h-61l77 633h-275q-40 -232 -69 -356q-12 -49 -21 -80t-27.5 -71.5t-40.5 -65t-57 -43.5t-79 -24l7 58q30 3 54.5 19.5t39.5 37t28.5 54t20 58t15.5 63.5q14 60 34 162t33 173z" />
    <glyph glyph-name="afii10030" unicode="&#x41c;" horiz-adv-x="798" 
d="M305 30l-123 598l-83 -628h-61l91 690h105l126 -607h8l286 607h105l-91 -690h-61l83 628l-281 -598h-104z" />
    <glyph glyph-name="afii10031" unicode="&#x41d;" horiz-adv-x="688" 
d="M99 0h-61l91 690h61l-39 -299h398l39 299h61l-91 -690h-61l44 334h-398z" />
    <glyph glyph-name="afii10032" unicode="&#x41e;" horiz-adv-x="695" 
d="M319 51q103 0 175 87q79 96 79 237q0 112 -51 186q-53 78 -148 78q-108 0 -179 -91q-75 -96 -75 -233q0 -111 53 -187q55 -77 146 -77zM315 -8q-124 0 -195 103q-63 89 -63 219q0 151 76 256q93 128 245 128q125 0 195 -102q63 -88 63 -219q0 -151 -76 -256
q-93 -129 -245 -129z" />
    <glyph glyph-name="afii10033" unicode="&#x41f;" 
d="M99 0h-61l84 690h479l-84 -690h-61l77 633h-357z" />
    <glyph glyph-name="afii10034" unicode="&#x420;" horiz-adv-x="636" 
d="M413 286h-276l-37 -286h-62l90 690h319q75 0 121 -57t46 -143q0 -83 -61.5 -143.5t-139.5 -60.5zM182 633l-40 -290h268q54 0 97 43.5t43 101.5q0 61 -33.5 103t-86.5 42h-248z" />
    <glyph glyph-name="afii10035" unicode="&#x421;" horiz-adv-x="673" 
d="M315 -8q-61 0 -111.5 28t-83.5 75q-63 89 -63 219q0 151 76 256q91 128 245 128q124 0 196 -102q45 -63 54 -136h-64q-17 80 -60 125q-51 54 -129 54q-122 0 -194 -109q-61 -93 -61 -214q0 -116 55 -191q54 -74 144 -74q85 0 151 60q56 51 81 129h65q-13 -58 -56 -119
q-90 -129 -245 -129z" />
    <glyph glyph-name="afii10036" unicode="&#x422;" horiz-adv-x="598" 
d="M612 690l-7 -57h-244l-84 -633h-61l84 633h-242l7 57h547z" />
    <glyph glyph-name="afii10037" unicode="&#x423;" horiz-adv-x="542" 
d="M89 -8q-27 0 -51 7l21 55q18 -6 35 -6q37 0 66.5 15t41.5 38l25 51l-169 538h61l139 -440h21l228 440h65l-316 -607q-21 -40 -65.5 -65.5t-101.5 -25.5z" />
    <glyph glyph-name="afii10038" unicode="&#x424;" horiz-adv-x="763" 
d="M306 -10l9 74q-128 4 -193 70t-65 172q0 141 86.5 236t241.5 101l7 57h61l-7 -57q128 -4 193 -69.5t65 -171.5q0 -141 -86.5 -236t-241.5 -102l-9 -74h-61zM641 392q0 90 -50.5 139.5t-151.5 52.5l-56 -460q119 4 188.5 81t69.5 187zM120 316q0 -91 50.5 -140.5
t151.5 -51.5l56 460q-119 -4 -188.5 -81.5t-69.5 -186.5z" />
    <glyph glyph-name="afii10039" unicode="&#x425;" horiz-adv-x="636" 
d="M649 690l-276 -314l-6 -46l203 -330h-76l-176 292h-15l-253 -292h-75l289 329l7 49l-193 312h76l164 -273h18l237 273h76z" />
    <glyph glyph-name="afii10040" unicode="&#x426;" horiz-adv-x="626" 
d="M587 690l-78 -633h71l-30 -201h-57l18 144h-473l85 690h61l-78 -633h342l78 633h61z" />
    <glyph glyph-name="afii10041" unicode="&#x427;" horiz-adv-x="639" 
d="M541 696h59l-85 -696h-59l47 384h-8q-42 -55 -103 -88t-130 -33q-54 0 -91.5 13.5t-53.5 36t-21.5 40.5t-5.5 38q0 5 0.5 11.5t0.5 7.5l35 286h59l-33 -275q0 -1 -0.5 -5t-0.5 -8q0 -13 4 -26t15 -28.5t37 -25t63 -9.5q84 0 163 67t92 173z" />
    <glyph glyph-name="afii10042" unicode="&#x428;" horiz-adv-x="976" 
d="M38 0l84 690h61l-78 -633h316l78 633h61l-78 -633h316l78 633h61l-84 -690h-815z" />
    <glyph glyph-name="afii10043" unicode="&#x429;" horiz-adv-x="977" 
d="M806 0h-768l85 690h61l-78 -633h316l78 633h61l-78 -633h316l78 633h61l-78 -633h70l-29 -201h-57l18 144h-56z" />
    <glyph glyph-name="afii10044" unicode="&#x42a;" horiz-adv-x="744" 
d="M274 633h-216l7 57h277l-35 -290h251q73 0 118.5 -56.5t45.5 -141.5q0 -82 -60.5 -142t-136.5 -60h-328zM542 343h-242l-35 -286h257q52 0 94 43t42 100q0 60 -32.5 101.5t-83.5 41.5z" />
    <glyph glyph-name="afii10045" unicode="&#x42b;" horiz-adv-x="807" 
d="M662 0l84 690h61l-84 -690h-61zM122 690h61l-35 -290h251q73 0 118.5 -56.5t45.5 -141.5q0 -82 -60.5 -142t-136.5 -60h-328zM383 343h-242l-35 -286h257q52 0 94 43t42 100q0 60 -32.5 101.5t-83.5 41.5z" />
    <glyph glyph-name="afii10046" unicode="&#x42c;" horiz-adv-x="585" 
d="M122 690h61l-35 -290h251q73 0 118.5 -56.5t45.5 -141.5q0 -82 -60.5 -142t-136.5 -60h-328zM383 343h-242l-35 -286h257q52 0 94 43t42 100q0 60 -32.5 101.5t-83.5 41.5z" />
    <glyph glyph-name="afii10047" unicode="&#x42d;" horiz-adv-x="651" 
d="M320 -8q-124 0 -195 103q-28 40 -46 96l59 26q13 -52 40 -89q55 -77 146 -77q103 0 175 87q61 75 75 183h-332l7 57h329q-2 111 -51 183q-53 78 -148 78q-108 0 -179 -91q-23 -29 -38 -62l-57 29q20 38 33 55q93 128 245 128q125 0 195 -102q63 -88 63 -219
q0 -151 -76 -256q-93 -129 -245 -129z" />
    <glyph glyph-name="afii10048" unicode="&#x42e;" horiz-adv-x="935" 
d="M555 -8q-124 0 -195 103q-63 88 -63 219v20h-157l-41 -334h-61l84 690h61l-36 -299h156q17 106 70 179q93 128 245 128q125 0 195 -102q63 -89 63 -219q0 -151 -76 -256q-93 -129 -245 -129zM559 51q103 0 175 87q79 96 79 237q0 112 -51 186q-53 78 -148 78
q-108 0 -179 -91q-75 -96 -75 -233q0 -111 53 -187q55 -77 146 -77z" />
    <glyph glyph-name="afii10049" unicode="&#x42f;" horiz-adv-x="699" 
d="M515 0l36 301h-169l-204 -236q-56 -65 -151 -65h-10l7 59h8q66 0 104 44l172 198h-15q-75 0 -121.5 55t-46.5 138q0 77 60 136.5t137 59.5h338l-84 -690h-61zM309 358h249l34 275h-263q-55 0 -97.5 -40.5t-42.5 -97.5q0 -58 34 -97.5t86 -39.5z" />
    <glyph glyph-name="afii10065" unicode="&#x430;" horiz-adv-x="596" 
d="M261 -8q-99 0 -155 74q-50 66 -50 167q0 112 60 191q71 93 194 93q114 0 170 -103h3l12 93h59l-65 -507h-59l10 89h-4q-37 -49 -75.5 -73t-99.5 -24zM267 48q92 0 149 74q47 63 47 153q0 80 -38 130q-41 56 -113 56q-93 0 -149 -73q-47 -63 -47 -154q0 -80 38 -130
q41 -56 113 -56z" />
    <glyph glyph-name="afii10066" unicode="&#x431;" horiz-adv-x="589" 
d="M539 698l2 -53l-161 -24q-116 -18 -173 -73.5t-88 -148.5h7q70 118 184 118q100 0 160 -65.5t60 -175.5q0 -122 -74.5 -203t-191.5 -81q-103 0 -158.5 68t-55.5 172q0 210 79 312.5t251 130.5zM264 48q96 0 153 74q48 61 48 153q0 79 -39 131q-42 55 -116 55
q-95 0 -153 -73q-48 -63 -48 -154q0 -79 39 -131q42 -55 116 -55z" />
    <glyph glyph-name="afii10067" unicode="&#x432;" horiz-adv-x="496" 
d="M129 234l-22 -180h197q39 0 67.5 26t28.5 63q0 38 -28.5 64.5t-67.5 26.5h-175zM136 288h183q39 0 67 24.5t28 58.5q0 33 -28 57.5t-67 24.5h-163zM380 266v-4q35 -21 57.5 -53t22.5 -68q0 -58 -43 -99.5t-102 -41.5h-273l62 507h223q61 0 105 -38.5t44 -91.5
q0 -38 -27.5 -67t-68.5 -44z" />
    <glyph glyph-name="afii10068" unicode="&#x433;" horiz-adv-x="532" 
d="M301 461q-42 0 -90.5 -21.5t-71.5 -45.5l-38 42q92 81 207 81q51 0 89 -16t56.5 -39.5t26.5 -43.5t8 -35q0 -123 -200 -147q-167 -19 -167 -100q0 -36 32 -62t110 -26q46 0 91.5 17t75.5 43l33 -47q-36 -30 -91.5 -49.5t-115.5 -19.5q-100 0 -148 43.5t-48 95.5
q0 73 54.5 108.5t169.5 52.5q28 4 46.5 8t44 13t39 25t13.5 38q0 39 -35 62t-91 23z" />
    <glyph glyph-name="afii10069" unicode="&#x434;" horiz-adv-x="567" 
d="M514 293q0 -129 -71.5 -215t-195.5 -86q-100 0 -156.5 69.5t-56.5 171.5q0 116 72.5 199.5t193.5 83.5q46 0 91 -30t59 -76h9q-26 133 -102.5 194t-231.5 63l2 52q112 -1 188.5 -30t119.5 -86.5t61 -132t18 -177.5zM247 48q93 0 149 63t56 164q0 80 -40.5 133t-114.5 53
q-94 0 -148 -66t-54 -161q0 -76 38.5 -131t113.5 -55z" />
    <glyph glyph-name="afii10070" unicode="&#x435;" horiz-adv-x="584" 
d="M270 -8q-99 0 -160 75q-54 67 -54 163q0 110 63 189q78 98 206 98q100 0 159 -77q47 -61 47 -172q0 -15 -3 -30h-410v-8q0 -76 38 -126q43 -56 115 -56q59 0 105 28q47 29 73 81l59 -16q-13 -28 -34 -55q-77 -94 -204 -94zM320 461q-72 0 -125 -47q-54 -47 -71 -124h345
q-2 79 -37 122q-39 49 -112 49z" />
    <glyph glyph-name="afii10072" unicode="&#x436;" horiz-adv-x="807" 
d="M332 234l-170 -186q-45 -48 -136 -48l6 54q61 0 90 31l166 183l1 24l-199 215h78l198 -219h43l27 219h59l-27 -219h40l252 219h82l-253 -215l-3 -27l119 -180q20 -31 82 -31l-6 -54q-93 0 -125 48l-124 186h-71l-28 -234h-59l28 234h-70z" />
    <glyph glyph-name="afii10073" unicode="&#x437;" horiz-adv-x="437" 
d="M142 369l-54 24q21 56 71.5 90t124.5 34q67 0 114.5 -33t47.5 -90q0 -93 -93 -115l-2 -11q35 -11 57.5 -43t22.5 -72q0 -70 -55.5 -115.5t-137.5 -45.5q-105 0 -163 74q-27 36 -37 74l58 19q11 -40 27 -59q49 -52 115 -52q54 0 92.5 29.5t38.5 77.5q0 40 -25 65.5
t-75 25.5h-12h-52l6 54h56q52 0 85 22t33 59q0 40 -30.5 60t-75.5 20q-92 0 -137 -92z" />
    <glyph glyph-name="afii10074" unicode="&#x438;" horiz-adv-x="564" 
d="M216 48q70 0 136.5 65.5t80.5 170.5l30 223h59l-66 -507h-59l14 107h-6q-81 -115 -203 -115q-60 0 -102 38t-42 92q0 8 1 16l48 369h59l-47 -359q-1 -6 -1 -14q0 -31 25 -58.5t73 -27.5z" />
    <glyph glyph-name="afii10075" unicode="&#x439;" horiz-adv-x="564" 
d="M216 48q70 0 136.5 65.5t80.5 170.5l30 223h59l-66 -507h-59l14 107h-6q-81 -115 -203 -115q-60 0 -102 38t-42 92q0 8 1 16l48 369h59l-47 -359q-1 -6 -1 -14q0 -31 25 -58.5t73 -27.5zM411 713h59q-4 -59 -49 -99t-101 -40q-55 0 -92 35.5t-37 89.5v14h56v-8
q0 -32 21.5 -53.5t54.5 -21.5t59 24.5t29 58.5z" />
    <glyph glyph-name="afii10076" unicode="&#x43a;" horiz-adv-x="475" 
d="M42 0l62 507h59l-27 -219h40l252 219h82l-253 -215l-3 -27l119 -180q20 -31 82 -31l-6 -54q-93 0 -125 48l-124 186h-71l-28 -234h-59z" />
    <glyph glyph-name="afii10077" unicode="&#x43b;" horiz-adv-x="600" 
d="M225 507h333l-62 -507h-59l55 453h-220l-56 -249q-10 -40 -16.5 -62t-21 -53t-32 -47.5t-46.5 -29t-67 -12.5l6 54q30 2 50 13t32.5 34t18 41t13.5 52z" />
    <glyph glyph-name="afii10078" unicode="&#x43c;" horiz-adv-x="677" 
d="M265 32l-109 422l-55 -454h-59l62 507h103l107 -436h4l218 436h99l-62 -507h-59l55 454l-213 -422h-91z" />
    <glyph glyph-name="afii10079" unicode="&#x43d;" horiz-adv-x="580" 
d="M101 0h-59l62 507h59l-26 -213h316l26 213h59l-62 -507h-59l29 240h-316z" />
    <glyph glyph-name="afii10080" unicode="&#x43e;" horiz-adv-x="592" 
d="M272 48q88 0 145 64q58 66 58 163q0 85 -40 135q-41 51 -115 51q-96 0 -154 -73q-49 -63 -49 -154q0 -80 36 -130q41 -56 119 -56zM270 -8q-103 0 -162 74q-52 65 -52 167q0 112 63 191q75 93 203 93q103 0 162 -74q52 -65 52 -167q0 -110 -63 -189q-78 -95 -203 -95z
" />
    <glyph glyph-name="afii10081" unicode="&#x43f;" horiz-adv-x="566" 
d="M348 461q-70 0 -136.5 -65.5t-80.5 -170.5l-30 -225h-59q11 92 26 200t21 163t6 105q0 26 -1 39h56q2 -26 2 -42t-1 -32t-1.5 -26t-0.5 -11h7q38 55 92.5 88t113.5 33q60 0 102 -38t42 -92q0 -8 -1 -16q-40 -310 -48 -371h-59l47 361q1 6 1 14q0 31 -25 58.5t-73 27.5z
" />
    <glyph glyph-name="afii10082" unicode="&#x440;" horiz-adv-x="597" 
d="M336 517q99 0 155 -74q50 -66 50 -167q0 -112 -60 -191q-71 -93 -194 -93q-117 0 -170 97h-4l-35 -270h-59l89 688h59l-11 -93h3q39 51 77.5 77t99.5 26zM330 461q-92 0 -149 -74q-47 -63 -47 -153q0 -80 38 -130q41 -56 113 -56q93 0 149 73q47 63 47 154q0 80 -38 130
q-41 56 -113 56z" />
    <glyph glyph-name="afii10083" unicode="&#x441;" horiz-adv-x="581" 
d="M270 -8q-103 0 -162 74q-52 65 -52 167q0 112 63 191q75 93 203 93q100 0 161 -75q40 -51 49 -126h-62q-9 60 -40 97q-40 48 -111 48q-98 0 -155 -75q-47 -62 -47 -152q0 -86 42 -137q41 -49 114 -49q66 0 113 35q42 31 65 84h65q-17 -46 -43 -80q-75 -95 -203 -95z" />
    <glyph glyph-name="afii10084" unicode="&#x442;" horiz-adv-x="902" 
d="M101 0h-59q11 92 26 200t21 163t6 105q0 26 -1 39h56q2 -26 2 -42t-1 -32.5t-1 -26.5l-1 -10h11q37 55 89 88t109 33q136 0 139 -121h10q37 55 88.5 88t108.5 33q37 0 64.5 -9.5t41 -23t21.5 -33t9.5 -33.5t1.5 -31q0 -3 -0.5 -9.5t-0.5 -7.5q-40 -309 -48 -370h-59
l47 359l1 6v10q0 13 -3 25.5t-11.5 27.5t-29 24t-49.5 9q-67 0 -133 -63.5t-79 -165.5l-30 -232h-59l47 359l1 6v10q0 13 -3 25.5t-12 27.5t-29 24t-49 9q-68 0 -133.5 -66.5t-79.5 -173.5z" />
    <glyph glyph-name="afii10085" unicode="&#x443;" horiz-adv-x="504" 
d="M31 -205q-26 0 -48 7l21 55q18 -6 31 -6q71 0 97 53l67 131l-143 472h62l116 -394h9l201 394h65l-321 -621q-47 -91 -157 -91z" />
    <glyph glyph-name="afii10086" unicode="&#x444;" horiz-adv-x="734" 
d="M285 -175l20 168q-130 6 -189.5 73t-59.5 167q0 41 9.5 79.5t33 75.5t58.5 64.5t89.5 45t123.5 18.5l22 180h59l-22 -180q67 -3 117 -24t78 -55.5t41 -74.5t13 -86q0 -53 -16.5 -100t-51.5 -89t-98 -68t-148 -27l-20 -167h-59zM117 234q0 -78 46 -129.5t149 -56.5l51 413
q-71 -3 -121 -23.5t-76 -54.5t-37.5 -70.5t-11.5 -78.5zM617 275q0 78 -46 129t-149 56l-51 -412q71 3 121 23.5t76 54.5t37.5 70.5t11.5 78.5z" />
    <glyph glyph-name="afii10087" unicode="&#x445;" horiz-adv-x="502" 
d="M370 0l-122 218h-2l-178 -218h-75l216 258l3 17l-138 232h68l112 -197h2l165 197h77l-207 -237l-2 -14l149 -256h-68z" />
    <glyph glyph-name="afii10088" unicode="&#x446;" horiz-adv-x="562" 
d="M448 -144l18 144q-56 0 -56 48q0 6 5 59h-10q-81 -115 -203 -115q-60 0 -102 38t-42 92q0 8 1 16l48 369h59l-47 -359q-1 -6 -1 -14q0 -31 25 -58.5t73 -27.5q70 0 136.5 65.5t80.5 170.5l30 223h59q-52 -370 -52 -421q0 -32 35 -32h30l-30 -198h-57z" />
    <glyph glyph-name="afii10089" unicode="&#x447;" horiz-adv-x="542" 
d="M441 507h59l-63 -507h-59l28 233h-8q-99 -63 -193 -63q-46 0 -77 13t-44.5 35t-18.5 40t-5 38q0 10 2 28l23 183h59l-22 -171q-2 -16 -2 -22q0 -14 3.5 -26.5t12.5 -28t30 -24.5t52 -9q50 0 99 16t73 32l24 17z" />
    <glyph glyph-name="afii10090" unicode="&#x448;" horiz-adv-x="875" 
d="M774 507h59q-11 -92 -26 -200t-21 -163t-6 -105q0 -26 1 -39h-56q-2 26 -2 42q0 48 3 69h-11q-35 -55 -85 -88t-105 -33q-130 0 -133 121h-7q-36 -55 -86 -88t-106 -33q-37 0 -63.5 10t-40 23t-21 33t-9 33.5t-1.5 30.5q0 3 0.5 9.5t0.5 7.5q39 309 47 370h59l-45 -359
v-6q-1 -6 -1 -10q0 -13 3 -25.5t11.5 -27.5t27.5 -24t47 -9q65 0 128 66.5t76 173.5l28 221h59l-45 -359v-6q-1 -6 -1 -10q0 -13 3 -25.5t11.5 -27.5t27.5 -24t47 -9q65 0 128 66.5t76 173.5z" />
    <glyph glyph-name="afii10091" unicode="&#x449;" horiz-adv-x="873" 
d="M726 111h-11q-35 -55 -85 -88t-105 -33q-130 0 -133 121h-7q-36 -55 -86 -88t-106 -33q-37 0 -63.5 10t-40 23t-21 33t-9 33.5t-1.5 30.5q0 3 0.5 9.5t0.5 7.5l47 370h59l-45 -359v-6q-1 -6 -1 -10q0 -13 3 -25.5t11.5 -27.5t27.5 -24t47 -9q65 0 128 66.5t76 173.5
l28 221h59l-45 -359v-6q-1 -6 -1 -10q0 -13 3 -25.5t11.5 -27.5t27.5 -24t47 -9q65 0 128 66.5t76 173.5l28 221h59q-52 -370 -52 -421q0 -32 35 -32h30l-30 -198h-57l18 144q-56 0 -56 48q0 3 5 63z" />
    <glyph glyph-name="afii10092" unicode="&#x44a;" horiz-adv-x="629" 
d="M72 453l7 54h217l-25 -199h193q59 0 95.5 -43t36.5 -109q0 -63 -48.5 -109.5t-109.5 -46.5h-263l55 453h-158zM448 254h-183l-25 -200h193q39 0 70.5 30t31.5 70q0 42 -24.5 71t-62.5 29z" />
    <glyph glyph-name="afii10093" unicode="&#x44b;" horiz-adv-x="708" 
d="M42 0l62 507h59l-25 -199h193q59 0 95.5 -43t36.5 -109q0 -63 -48.5 -109.5t-109.5 -46.5h-263zM315 254h-183l-25 -200h193q39 0 70.5 30t31.5 70q0 42 -24.5 71t-62.5 29zM545 0l62 507h59l-62 -507h-59z" />
    <glyph glyph-name="afii10094" unicode="&#x44c;" horiz-adv-x="496" 
d="M42 0l62 507h59l-25 -199h193q59 0 95.5 -43t36.5 -109q0 -63 -48.5 -109.5t-109.5 -46.5h-263zM315 254h-183l-25 -200h193q39 0 70.5 30t31.5 70q0 42 -24.5 71t-62.5 29z" />
    <glyph glyph-name="afii10095" unicode="&#x44d;" horiz-adv-x="552" 
d="M266 -8q-103 0 -162 74q-23 27 -39 74l56 24q10 -36 28 -60q41 -56 119 -56q88 0 145 64q42 48 54 115h-264l7 54h261q-2 81 -40 129q-41 51 -115 51q-96 0 -154 -73q-13 -15 -25 -40l-54 26q14 28 32 50q75 93 203 93q103 0 162 -74q52 -65 52 -167q0 -110 -63 -189
q-78 -95 -203 -95z" />
    <glyph glyph-name="afii10096" unicode="&#x44e;" horiz-adv-x="789" 
d="M467 -8q-103 0 -162 74q-52 65 -52 167v7h-123l-29 -240h-59l62 507h59l-26 -213h121q15 77 58 130q75 93 203 93q103 0 162 -74q52 -65 52 -167q0 -110 -63 -189q-78 -95 -203 -95zM469 48q88 0 145 64q58 66 58 163q0 85 -40 135q-41 51 -115 51q-96 0 -154 -73
q-49 -63 -49 -154q0 -80 36 -130q41 -56 119 -56z" />
    <glyph glyph-name="afii10097" unicode="&#x44f;" horiz-adv-x="552" 
d="M389 0l25 205h-145l-90 -133q-49 -72 -148 -72l7 54h8q13 0 21 1t20.5 5t24 14.5t22.5 26.5l74 108q-47 13 -76.5 53t-29.5 93q0 59 46 105.5t105 46.5h257l-62 -507h-59zM247 259h173l24 194h-183q-39 0 -68.5 -28.5t-29.5 -68.5q0 -41 23.5 -69t60.5 -28z" />
    <glyph glyph-name="afii10071" unicode="&#x451;" horiz-adv-x="584" 
d="M270 -8q-99 0 -160 75q-54 67 -54 163q0 110 63 189q78 98 206 98q100 0 159 -77q47 -61 47 -172q0 -15 -3 -30h-410v-8q0 -76 38 -126q43 -56 115 -56q59 0 105 28q47 29 73 81l59 -16q-13 -28 -34 -55q-77 -94 -204 -94zM320 461q-72 0 -125 -47q-54 -47 -71 -124h345
q-2 79 -37 122q-39 49 -112 49zM433 687q18 0 29 -11.5t11 -29.5q0 -21 -14.5 -35t-34.5 -14q-18 0 -30 12t-12 29q0 21 15 35t36 14zM245 687q18 0 29 -11.5t11 -29.5q0 -21 -14.5 -35t-34.5 -14q-18 0 -30 12t-12 29q0 21 15 35t36 14z" />
    <glyph glyph-name="afii10099" unicode="&#x452;" horiz-adv-x="569" 
d="M300 553h-125l-20 -157h4q38 55 92.5 88t113.5 33q60 0 102 -38t42 -92q0 -8 -1 -16l-53 -416q-8 -66 -57.5 -113t-132.5 -47h-6l7 56h6q55 0 86 29.5t37 71.5l53 409q1 6 1 14q0 31 -25 58.5t-73 27.5q-70 0 -136.5 -65.5t-80.5 -170.5l-30 -225h-59l71 553h-64l7 54h64
l12 89h59l-12 -89h125z" />
    <glyph glyph-name="afii10100" unicode="&#x453;" horiz-adv-x="439" 
d="M101 0h-59l62 507h354l-7 -54h-295zM448 667l-190 -101l-21 42l179 119z" />
    <glyph glyph-name="afii10101" unicode="&#x454;" horiz-adv-x="552" 
d="M295 -8q-103 0 -162 74q-52 65 -52 167q0 112 63 191q75 93 203 93q100 0 161 -75q23 -31 37 -74l-56 -24q-11 41 -34 69q-40 48 -111 48q-98 0 -155 -75q-33 -43 -44 -105h245l-7 -54h-241q2 -82 42 -130q41 -49 114 -49q66 0 113 35q41 31 63 79l53 -26
q-16 -32 -29 -49q-75 -95 -203 -95z" />
    <glyph glyph-name="afii10102" unicode="&#x455;" horiz-adv-x="533" 
d="M263 233l-31 5q-30 4 -45 7.5t-38.5 14.5t-37.5 26q-33 36 -33 84q0 63 61 105q64 42 145 42t136 -45q48 -39 48 -101v-15h-61v10q0 42 -32 68q-38 27 -90 27q-63 0 -105 -28q-41 -24 -41 -64q0 -28 19 -47q24 -24 127 -36q118 -14 153 -47q36 -33 36 -82q0 -70 -64 -116
q-65 -49 -157 -49q-94 0 -154 47q-64 49 -64 117v7h61v-5q0 -21 12.5 -43.5t33.5 -35.5q48 -31 111 -31q60 0 113 32q47 29 47 75q0 30 -20 45q-9 7 -27 13t-30.5 8.5t-40 6.5t-32.5 5z" />
    <glyph glyph-name="afii10103" unicode="&#x456;" horiz-adv-x="212" 
d="M43 0l66 507h59l-66 -507h-59zM162 687q18 0 29 -11.5t11 -29.5q0 -21 -14.5 -35t-34.5 -14q-18 0 -30 12t-12 29q0 21 15 35t36 14z" />
    <glyph glyph-name="afii10104" unicode="&#x457;" horiz-adv-x="212" 
d="M43 0l66 507h59l-66 -507h-59zM255 686q18 0 29 -11.5t11 -29.5q0 -21 -14.5 -35t-34.5 -14q-18 0 -30 12t-12 29q0 21 15 35t36 14zM67 686q18 0 29 -11.5t11 -29.5q0 -21 -14.5 -35t-34.5 -14q-18 0 -30 12t-12 29q0 21 15 35t36 14z" />
    <glyph glyph-name="afii10105" unicode="&#x458;" horiz-adv-x="212" 
d="M168 507l-71 -552q-8 -66 -57.5 -113t-132.5 -47h-6l7 56h6q55 0 86 29.5t37 71.5l72 555h59zM162 687q18 0 29 -11.5t11 -29.5q0 -21 -14.5 -35t-34.5 -14q-18 0 -30 12t-12 29q0 21 15 35t36 14z" />
    <glyph glyph-name="afii10106" unicode="&#x459;" horiz-adv-x="891" 
d="M153 194l72 313h333l-25 -199h193q59 0 95.5 -43t36.5 -109q0 -63 -48.5 -109.5t-109.5 -46.5h-263l55 453h-220l-56 -249q-10 -40 -16.5 -62t-21 -53t-32 -47.5t-46.5 -29t-67 -12.5l6 54q30 2 50 13t32.5 34t18 41t13.5 52zM710 254h-183l-25 -200h193q39 0 70.5 30
t31.5 70q0 42 -24.5 71t-62.5 29z" />
    <glyph glyph-name="afii10107" unicode="&#x45a;" horiz-adv-x="841" 
d="M425 308l24 199h59l-25 -199h193q59 0 95.5 -43t36.5 -109q0 -63 -48.5 -109.5t-109.5 -46.5h-263l31 254h-286l-31 -254h-59l62 507h59l-25 -199h287zM660 254h-183l-25 -200h193q39 0 70.5 30t31.5 70q0 42 -24.5 71t-62.5 29z" />
    <glyph glyph-name="afii10108" unicode="&#x45b;" horiz-adv-x="569" 
d="M300 553h-125l-20 -157h4q38 55 92.5 88t113.5 33q60 0 102 -38t42 -92q0 -8 -1 -16l-48 -371h-59l47 361q1 6 1 14q0 31 -25 58.5t-73 27.5q-70 0 -136.5 -65.5t-80.5 -170.5l-30 -225h-59l71 553h-64l7 54h64l12 89h59l-12 -89h125z" />
    <glyph glyph-name="afii10109" unicode="&#x45c;" horiz-adv-x="475" 
d="M42 0l62 507h59l-27 -219h40l252 219h82l-253 -215l-3 -27l119 -180q20 -31 82 -31l-6 -54q-93 0 -125 48l-124 186h-71l-28 -234h-59zM431 667l-190 -101l-21 42l179 119z" />
    <glyph glyph-name="afii10110" unicode="&#x45e;" horiz-adv-x="504" 
d="M31 -205q-26 0 -48 7l21 55q18 -6 31 -6q71 0 97 53l67 131l-143 472h62l116 -394h9l201 394h65l-321 -621q-47 -91 -157 -91zM394 713h59q-4 -59 -49 -99t-101 -40q-55 0 -92 35.5t-37 89.5v14h56v-8q0 -32 21.5 -53.5t54.5 -21.5t59 24.5t29 58.5z" />
    <glyph glyph-name="afii10193" unicode="&#x45f;" horiz-adv-x="550" 
d="M104 507h59l-56 -453h286l56 453h59l-62 -507h-170l-24 -144h-50l11 144h-171z" />
    <glyph glyph-name="afii10050" unicode="&#x490;" horiz-adv-x="504" 
d="M38 0l84 690h365l28 144h50l-14 -201h-375l-77 -633h-61z" />
    <glyph glyph-name="afii10098" unicode="&#x491;" horiz-adv-x="439" 
d="M451 453h-295l-55 -453h-59l62 507h283l27 144h50z" />
    <glyph glyph-name="Wgrave" unicode="&#x1e80;" horiz-adv-x="841" 
d="M461 614h-11l-219 -614h-93l-68 690h63l61 -626l212 596h111l54 -596l227 626h63l-250 -690h-93zM528 744l-184 80l40 67l171 -100z" />
    <glyph glyph-name="wgrave" unicode="&#x1e81;" horiz-adv-x="763" 
d="M401 427l-179 -427h-94l-66 507h61l58 -456h5l190 452h72l66 -452h5l184 456h61l-208 -507h-94zM455 566l-162 101l46 60l149 -119z" />
    <glyph glyph-name="Wacute" unicode="&#x1e82;" horiz-adv-x="841" 
d="M461 614h-11l-219 -614h-93l-68 690h63l61 -626l212 596h111l54 -596l227 626h63l-250 -690h-93zM620 824l-204 -80l-15 47l197 100z" />
    <glyph glyph-name="wacute" unicode="&#x1e83;" horiz-adv-x="763" 
d="M401 427l-179 -427h-94l-66 507h61l58 -456h5l190 452h72l66 -452h5l184 456h61l-208 -507h-94zM577 667l-190 -101l-21 42l179 119z" />
    <glyph glyph-name="Wdieresis" unicode="&#x1e84;" horiz-adv-x="841" 
d="M461 614h-11l-219 -614h-93l-68 690h63l61 -626l212 596h111l54 -596l227 626h63l-250 -690h-93zM392 872q18 0 30 -12.5t12 -30.5q0 -23 -15 -37.5t-37 -14.5q-19 0 -31.5 12.5t-12.5 30.5q0 23 16 37.5t38 14.5zM585 872q18 0 30 -12.5t12 -30.5q0 -23 -15 -37.5
t-37 -14.5q-19 0 -31.5 12.5t-12.5 30.5q0 23 16 37.5t38 14.5z" />
    <glyph glyph-name="wdieresis" unicode="&#x1e85;" horiz-adv-x="763" 
d="M401 427l-179 -427h-94l-66 507h61l58 -456h5l190 452h72l66 -452h5l184 456h61l-208 -507h-94zM530 687q18 0 29 -11.5t11 -29.5q0 -21 -14.5 -35t-34.5 -14q-18 0 -30 12t-12 29q0 21 15 35t36 14zM342 687q18 0 29 -11.5t11 -29.5q0 -21 -14.5 -35t-34.5 -14
q-18 0 -30 12t-12 29q0 21 15 35t36 14z" />
    <glyph glyph-name="uni1E8A" unicode="&#x1e8a;" horiz-adv-x="636" 
d="M649 690l-276 -314l-6 -46l203 -330h-76l-176 292h-15l-253 -292h-75l289 329l7 49l-193 312h76l164 -273h18l237 273h76zM387 872q18 0 30 -12.5t12 -30.5q0 -23 -15 -37.5t-37 -14.5q-19 0 -31.5 12.5t-12.5 30.5q0 23 16 37.5t38 14.5z" />
    <glyph glyph-name="uni1E8B" unicode="&#x1e8b;" horiz-adv-x="502" 
d="M370 0l-122 218h-2l-178 -218h-75l216 258l3 17l-138 232h68l112 -197h2l165 197h77l-207 -237l-2 -14l149 -256h-68zM306 687q18 0 29 -11.5t11 -29.5q0 -21 -14.5 -35t-34.5 -14q-18 0 -30 12t-12 29q0 21 15 35t36 14z" />
    <glyph glyph-name="Ygrave" unicode="&#x1ef2;" horiz-adv-x="575" 
d="M265 0h-61l42 322l-190 368h71l152 -301h13l232 301h71l-288 -368zM382 744l-184 80l40 67l171 -100z" />
    <glyph glyph-name="ygrave" unicode="&#x1ef3;" horiz-adv-x="504" 
d="M31 -205q-26 0 -48 7l21 55q18 -6 31 -6q71 0 97 53l67 131l-143 472h62l116 -394h9l201 394h65l-321 -621q-47 -91 -157 -91zM334 566l-162 101l46 60l149 -119z" />
    <glyph glyph-name="uni2007" unicode="&#x2007;" horiz-adv-x="561" 
 />
    <glyph glyph-name="uni2008" unicode="&#x2008;" horiz-adv-x="230" 
 />
    <glyph glyph-name="uni200B" unicode="&#x200b;" horiz-adv-x="0" 
 />
    <glyph glyph-name="endash" unicode="&#x2013;" horiz-adv-x="591" 
d="M35 214l6 54h505l-6 -54h-505z" />
    <glyph glyph-name="emdash" unicode="&#x2014;" horiz-adv-x="953" 
d="M35 214l6 54h867l-6 -54h-867z" />
    <glyph glyph-name="quoteleft" unicode="&#x2018;" horiz-adv-x="219" 
d="M81 515v7q0 34 34 85.5t80 85.5l21 -29q-46 -42 -75 -96q40 -7 40 -43q0 -24 -16.5 -40t-40.5 -16q-18 0 -30.5 13.5t-12.5 32.5z" />
    <glyph glyph-name="quoteright" unicode="&#x2019;" horiz-adv-x="219" 
d="M180 654v-7q0 -34 -34 -85.5t-80 -85.5l-21 29q46 42 75 96q-40 7 -40 43q0 24 16.5 40t40.5 16q18 0 30.5 -13.5t12.5 -32.5z" />
    <glyph glyph-name="quotesinglbase" unicode="&#x201a;" horiz-adv-x="229" 
d="M109 49v-7q0 -34 -34 -85.5t-80 -85.5l-21 29q46 42 75 96q-40 7 -40 43q0 24 16.5 40t40.5 16q18 0 30.5 -13.5t12.5 -32.5z" />
    <glyph glyph-name="quotedblleft" unicode="&#x201c;" horiz-adv-x="385" 
d="M81 515v7q0 34 34 85.5t80 85.5l21 -29q-46 -42 -75 -96q40 -7 40 -43q0 -24 -16.5 -40t-40.5 -16q-18 0 -30.5 13.5t-12.5 32.5zM247 515v7q0 34 34 85.5t80 85.5l21 -29q-46 -42 -75 -96q40 -7 40 -43q0 -24 -16.5 -40t-40.5 -16q-18 0 -30.5 13.5t-12.5 32.5z" />
    <glyph glyph-name="quotedblright" unicode="&#x201d;" horiz-adv-x="385" 
d="M180 654v-7q0 -34 -34 -85.5t-80 -85.5l-21 29q46 42 75 96q-40 7 -40 43q0 24 16.5 40t40.5 16q18 0 30.5 -13.5t12.5 -32.5zM346 654v-7q0 -34 -34 -85.5t-80 -85.5l-21 29q46 42 75 96q-40 7 -40 43q0 24 16.5 40t40.5 16q18 0 30.5 -13.5t12.5 -32.5z" />
    <glyph glyph-name="quotedblbase" unicode="&#x201e;" horiz-adv-x="395" 
d="M109 49v-7q0 -34 -34 -85.5t-80 -85.5l-21 29q46 42 75 96q-40 7 -40 43q0 24 16.5 40t40.5 16q18 0 30.5 -13.5t12.5 -32.5zM275 49v-7q0 -34 -34 -85.5t-80 -85.5l-21 29q46 42 75 96q-40 7 -40 43q0 24 16.5 40t40.5 16q18 0 30.5 -13.5t12.5 -32.5z" />
    <glyph glyph-name="dagger" unicode="&#x2020;" horiz-adv-x="500" 
d="M71 513h175l25 185h59l-25 -185h175l-7 -54h-175l-73 -561h-59l73 561h-175z" />
    <glyph glyph-name="daggerdbl" unicode="&#x2021;" horiz-adv-x="500" 
d="M71 513h175l25 185h59l-25 -185h175l-7 -54h-175l-42 -322h175l-7 -54h-175l-24 -185h-59l24 185h-175l7 54h175l42 322h-175z" />
    <glyph glyph-name="bullet" unicode="&#x2022;" horiz-adv-x="406" 
d="M318 278q0 -48 -33.5 -81.5t-81.5 -33.5t-81.5 33.5t-33.5 81.5t33.5 81.5t81.5 33.5t81.5 -33.5t33.5 -81.5z" />
    <glyph glyph-name="ellipsis" unicode="&#x2026;" horiz-adv-x="712" 
d="M82 95q21 0 33.5 -13.5t12.5 -33.5q0 -24 -16.5 -40t-39.5 -16q-20 0 -34 13.5t-14 33.5q0 24 17 40t41 16zM323 95q21 0 33.5 -13.5t12.5 -33.5q0 -24 -16.5 -40t-39.5 -16q-20 0 -34 13.5t-14 33.5q0 24 17 40t41 16zM564 95q21 0 33.5 -13.5t12.5 -33.5
q0 -24 -16.5 -40t-39.5 -16q-20 0 -34 13.5t-14 33.5q0 24 17 40t41 16z" />
    <glyph glyph-name="perthousand" unicode="&#x2030;" horiz-adv-x="928" 
d="M521 690h57l-494 -690h-57zM202 700q54 0 88 -35.5t34 -88.5q0 -65 -44 -107t-105 -42q-54 0 -90.5 36t-36.5 88q0 65 45.5 107t108.5 42zM197 648q-39 0 -67.5 -26t-28.5 -66q0 -32 22.5 -54.5t56.5 -22.5q38 0 65 26t27 66q0 33 -21 55t-54 22zM434 263q54 0 88 -35.5
t34 -88.5q0 -65 -44 -107t-105 -42q-54 0 -90.5 36t-36.5 88q0 65 45.5 107t108.5 42zM429 211q-39 0 -67.5 -26t-28.5 -66q0 -32 22.5 -54.5t56.5 -22.5q38 0 65 26t27 66q0 33 -21 55t-54 22zM757 263q54 0 88 -35.5t34 -88.5q0 -65 -44 -107t-105 -42q-54 0 -90.5 36
t-36.5 88q0 65 45.5 107t108.5 42zM752 211q-39 0 -67.5 -26t-28.5 -66q0 -32 22.5 -54.5t56.5 -22.5q38 0 65 26t27 66q0 33 -21 55t-54 22z" />
    <glyph glyph-name="guilsinglleft" unicode="&#x2039;" horiz-adv-x="288" 
d="M268 449l-164 -165l-1 -12l123 -165l-45 -38l-134 195l3 28l182 195z" />
    <glyph glyph-name="guilsinglright" unicode="&#x203a;" horiz-adv-x="288" 
d="M202 284l-122 165l44 38l134 -195l-3 -28l-182 -195l-35 38l163 165z" />
    <glyph glyph-name="fraction" unicode="&#x2044;" horiz-adv-x="80" 
d="M279 690h57l-494 -690h-57z" />
    <glyph glyph-name="uni2070" unicode="&#x2070;" horiz-adv-x="271" 
d="M142 397q-40 0 -63 40q-21 36 -21 92q0 67 27 111q31 52 81 52q40 0 63 -40q21 -36 21 -92q0 -67 -27 -111q-31 -52 -81 -52zM142 443q24 0 42 30q19 31 19 87q0 43 -14 69q-11 17 -23 17q-24 0 -42 -30q-19 -31 -19 -87q0 -43 14 -69q11 -17 23 -17z" />
    <glyph glyph-name="uni2074" unicode="&#x2074;" horiz-adv-x="257" 
d="M187 407h-45l8 65h-138l4 34l169 184h38l-23 -176h43l-5 -42h-43zM70 514h85l14 107z" />
    <glyph glyph-name="uni2075" unicode="&#x2075;" horiz-adv-x="268" 
d="M43 467l43 11q5 -35 45 -35q21 0 34 12t15.5 23t2.5 22q0 46 -43 46q-30 0 -41 -22l-42 4l38 154h149l-6 -42h-113l-18 -71q20 22 46 22q43 0 60 -28t17 -62q0 -17 -7 -38.5t-32.5 -43.5t-64.5 -22q-22 0 -39 8.5t-26 22t-12.5 22.5t-5.5 17z" />
    <glyph glyph-name="uni2076" unicode="&#x2076;" horiz-adv-x="270" 
d="M104 561q31 31 57 31q38 0 61.5 -26.5t23.5 -63.5q0 -45 -31 -75t-69 -30q-39 0 -64.5 30t-25.5 76q0 72 30 128q32 60 87 60q26 0 45.5 -12.5t25 -22t8.5 -18.5l-39 -19q-11 27 -44 27q-18 0 -31.5 -11.5t-20 -28.5t-9.5 -27.5t-4 -17.5zM104 490q0 -19 12 -33t30 -14
q21 0 37.5 17t16.5 42q0 18 -12 31t-30 13q-20 0 -37 -16.5t-17 -39.5z" />
    <glyph glyph-name="uni2077" unicode="&#x2077;" horiz-adv-x="228" 
d="M105 407h-46v2q5 57 28 107.5t39.5 71t44.5 49.5q5 3 6 5v6h-139l4 42h191l-5 -42q-4 -3 -11.5 -8.5t-26.5 -26t-34.5 -45.5t-30.5 -68.5t-20 -92.5z" />
    <glyph glyph-name="uni2078" unicode="&#x2078;" horiz-adv-x="289" 
d="M98 483q0 -17 12.5 -29t30.5 -12q22 0 39 14t17 36q0 16 -12.5 27.5t-30.5 11.5q-21 0 -38.5 -14t-17.5 -34zM122 607q0 -13 10 -23t25 -10q18 0 31.5 11t13.5 29q0 13 -10 22.5t-25 9.5q-17 0 -31 -11t-14 -28zM167 691q33 0 57.5 -19.5t24.5 -50.5q0 -22 -13.5 -41.5
t-32.5 -28.5q18 -9 28.5 -27t10.5 -37q0 -37 -32 -63.5t-68 -26.5q-40 0 -65.5 19.5t-25.5 55.5q0 27 15.5 49.5t38.5 31.5q-29 23 -29 55q0 35 28 59t63 24z" />
    <glyph glyph-name="uni2079" unicode="&#x2079;" horiz-adv-x="270" 
d="M192 527q-31 -31 -57 -31q-38 0 -61.5 26.5t-23.5 63.5q0 45 31 75t69 30q39 0 64.5 -30t25.5 -76q0 -72 -30 -128q-32 -60 -87 -60q-26 0 -45.5 12.5t-25 22t-8.5 18.5l39 19q11 -27 44 -27q18 0 31.5 11.5t20 28.5t9.5 27.5t4 17.5zM192 598q0 19 -12 33t-30 14
q-21 0 -37.5 -17t-16.5 -42q0 -18 12 -31t30 -13q20 0 37 16.5t17 39.5z" />
    <glyph glyph-name="uni2080" unicode="&#x2080;" horiz-adv-x="271" 
d="M142 -140q-40 0 -63 40q-21 36 -21 92q0 67 27 111q31 52 81 52q40 0 63 -40q21 -36 21 -92q0 -67 -27 -111q-31 -52 -81 -52zM142 -94q24 0 42 30q19 31 19 87q0 43 -14 69q-11 17 -23 17q-24 0 -42 -30q-19 -31 -19 -87q0 -43 14 -69q11 -17 23 -17z" />
    <glyph glyph-name="uni2081" unicode="&#x2081;" horiz-adv-x="197" 
d="M35 80l5 40q76 0 81 33h44l-37 -283h-46l29 227q-31 -17 -76 -17z" />
    <glyph glyph-name="uni2082" unicode="&#x2082;" horiz-adv-x="266" 
d="M79 -88h141l-4 -42h-197l3 21q7 54 88 99q44 25 62.5 41t18.5 38q0 20 -12 32t-31 12t-35.5 -14.5t-16.5 -34.5h-47q0 39 31 67t72 28q36 0 61 -23.5t25 -58.5q0 -15 -2.5 -27t-9 -22t-11 -16.5t-17 -15t-18 -12t-22 -12.5t-21.5 -12q-47 -27 -58 -48z" />
    <glyph glyph-name="uni2083" unicode="&#x2083;" horiz-adv-x="288" 
d="M133 -5l5 42h16q18 0 32 11.5t14 28.5q0 14 -10.5 23t-26.5 9t-30 -11t-16 -25h-46q4 34 33 57.5t66 23.5q33 0 55.5 -20.5t22.5 -49.5q0 -25 -15 -42.5t-35 -25.5q16 -7 28 -22t12 -34q0 -41 -33.5 -70.5t-73.5 -29.5q-36 0 -60 22.5t-24 56.5l1 11l46 1v-5
q0 -17 12 -28.5t31 -11.5q22 0 39 14.5t17 36.5q0 16 -12 27t-31 11h-17z" />
    <glyph glyph-name="uni2084" unicode="&#x2084;" horiz-adv-x="257" 
d="M187 -130h-45l8 65h-138l4 34l169 184h38l-23 -176h43l-5 -42h-43zM70 -23h85l14 107z" />
    <glyph glyph-name="uni2085" unicode="&#x2085;" horiz-adv-x="268" 
d="M43 -70l43 11q5 -35 45 -35q21 0 34 12t15.5 23t2.5 22q0 46 -43 46q-30 0 -41 -22l-42 4l38 154h149l-6 -42h-113l-18 -71q20 22 46 22q43 0 60 -28t17 -62q0 -17 -7 -38.5t-32.5 -43.5t-64.5 -22q-22 0 -39 8.5t-26 22t-12.5 22.5t-5.5 17z" />
    <glyph glyph-name="uni2086" unicode="&#x2086;" horiz-adv-x="270" 
d="M104 24q31 31 57 31q38 0 61.5 -26.5t23.5 -63.5q0 -45 -31 -75t-69 -30q-39 0 -64.5 30t-25.5 76q0 72 30 128q32 60 87 60q26 0 45.5 -12.5t25 -22t8.5 -18.5l-39 -19q-11 27 -44 27q-18 0 -31.5 -11.5t-20 -28.5t-9.5 -27.5t-4 -17.5zM104 -47q0 -19 12 -33t30 -14
q21 0 37.5 17t16.5 42q0 18 -12 31t-30 13q-20 0 -37 -16.5t-17 -39.5z" />
    <glyph glyph-name="uni2087" unicode="&#x2087;" horiz-adv-x="228" 
d="M105 -130h-46v2q5 57 28 107.5t39.5 71t44.5 49.5q5 4 6 5v6h-139l4 42h191l-5 -42q-4 -3 -11.5 -8.5t-26.5 -26t-34.5 -45.5t-30.5 -68.5t-20 -92.5z" />
    <glyph glyph-name="uni2088" unicode="&#x2088;" horiz-adv-x="289" 
d="M98 -54q0 -17 12.5 -29t30.5 -12q22 0 39 14t17 36q0 16 -12.5 27.5t-30.5 11.5q-21 0 -38.5 -14t-17.5 -34zM122 70q0 -13 10 -23t25 -10q18 0 31.5 11t13.5 29q0 13 -10 22.5t-25 9.5q-17 0 -31 -11t-14 -28zM167 154q33 0 57.5 -19.5t24.5 -50.5q0 -22 -13.5 -41.5
t-32.5 -28.5q39 -20 39 -64q0 -37 -32 -63.5t-68 -26.5q-40 0 -65.5 19.5t-25.5 55.5q0 27 15.5 49.5t38.5 31.5q-29 23 -29 55q0 35 28 59t63 24z" />
    <glyph glyph-name="uni2089" unicode="&#x2089;" horiz-adv-x="270" 
d="M192 -10q-31 -31 -57 -31q-38 0 -61.5 26.5t-23.5 63.5q0 45 31 75t69 30q39 0 64.5 -30t25.5 -76q0 -72 -30 -128q-32 -60 -87 -60q-26 0 -45.5 12.5t-25 22t-8.5 18.5l39 19q11 -27 44 -27q18 0 31.5 11.5t20 28.5t9.5 27.5t4 17.5zM192 61q0 19 -12 33t-30 14
q-21 0 -37.5 -17t-16.5 -42q0 -18 12 -31t30 -13q20 0 37 16.5t17 39.5z" />
    <glyph glyph-name="Euro" unicode="&#x20ac;" horiz-adv-x="564" 
d="M396 204h-229q10 -62 38 -99q40 -57 114 -57q68 0 113 41q27 24 44 53l40 -46q-74 -104 -199 -104q-102 0 -162 83q-37 51 -48 129h-79l22 51h53v8q0 29 3 57h-64l22 50h52q16 59 50 107q75 105 202 105q96 0 158 -81l-30 -68q-10 23 -20 37q-39 56 -111 56
q-97 0 -155 -86q-21 -32 -32 -70h291l-22 -50h-280q-4 -25 -4 -57v-8h255z" />
    <glyph glyph-name="uni2117" unicode="&#x2117;" horiz-adv-x="544" 
d="M323 330h-79v-117h-45v273h124q33 0 56.5 -23t23.5 -55t-23.5 -55t-56.5 -23zM244 444v-73h71q19 0 31 10.5t12 25.5q0 16 -12 26.5t-31 10.5h-71zM45 344q0 99 70 169.5t169 70.5t169.5 -70.5t70.5 -169.5t-70.5 -169t-169.5 -70t-169 70t-70 169zM89 344
q0 -80 57.5 -137.5t137.5 -57.5t138 57.5t58 137.5t-58 138t-138 58t-137.5 -58t-57.5 -138z" />
    <glyph glyph-name="trademark" unicode="&#x2122;" horiz-adv-x="724" 
d="M344 690l-5 -43h-113l-37 -303h-46l37 303h-112l5 43h271zM651 344h-46l34 279q-19 -46 -46.5 -100.5t-46.5 -100.5h-61l-43 201l-34 -279h-46l42 346h64l52 -236q19 46 55 118t55 118h63z" />
    <glyph glyph-name="Omega" unicode="&#x2126;" horiz-adv-x="621" 
d="M169 54l1 11q-4 5 -11 14t-24.5 37.5t-30.5 59t-24 75t-11 88.5q0 150 87.5 254.5t205.5 104.5q117 0 176.5 -81t59.5 -214q0 -53 -18.5 -107t-44.5 -94t-52 -72t-45 -48l-18 -17l-2 -11h132l-6 -54h-217l4 51q8 5 22 15t49 43t61.5 69t48.5 92.5t22 113.5
q0 255 -184 255q-94 0 -158 -91.5t-64 -214.5q0 -60 13.5 -111t32.5 -81t38 -51.5t32 -29.5l14 -9l-3 -51h-223l6 54h131z" />
    <glyph glyph-name="onethird" unicode="&#x2153;" 
d="M453 130l5 42h16q18 0 32 11.5t14 28.5q0 14 -10.5 23t-26.5 9t-30 -11t-16 -25h-46q4 34 33 57.5t66 23.5q33 0 55.5 -20.5t22.5 -49.5q0 -25 -15 -42.5t-35 -25.5q16 -7 28 -22t12 -34q0 -41 -33.5 -70.5t-73.5 -29.5q-36 0 -60 22.5t-24 56.5l1 12h46v-5
q0 -17 12 -28.5t31 -11.5q22 0 39 14.5t17 36.5q0 16 -12 27t-31 11h-17zM100 617l5 40q76 0 81 33h44l-37 -283h-46l29 227q-31 -17 -76 -17zM538 690h57l-494 -690h-57z" />
    <glyph glyph-name="twothirds" unicode="&#x2154;" 
d="M109 451h141l-4 -42h-197l3 21q7 54 88 99q44 25 62.5 41t18.5 38q0 20 -12 32t-31 12t-35.5 -14.5t-16.5 -34.5h-47q0 39 31 67t72 28q36 0 61 -23.5t25 -58.5q0 -15 -2.5 -27t-9 -22t-11 -16.5t-17 -15t-18 -12t-22 -12.5t-21.5 -12q-47 -27 -58 -48zM453 130l5 42h16
q18 0 32 11.5t14 28.5q0 14 -10.5 23t-26.5 9t-30 -11t-16 -25h-46q4 34 33 57.5t66 23.5q33 0 55.5 -20.5t22.5 -49.5q0 -25 -15 -42.5t-35 -25.5q16 -7 28 -22t12 -34q0 -41 -33.5 -70.5t-73.5 -29.5q-36 0 -60 22.5t-24 56.5l1 12h46v-5q0 -17 12 -28.5t31 -11.5
q22 0 39 14.5t17 36.5q0 16 -12 27t-31 11h-17zM538 690h57l-494 -690h-57z" />
    <glyph glyph-name="uni2155" unicode="&#x2155;" 
d="M100 617l5 40q76 0 81 33h44l-37 -283h-46l29 227q-31 -17 -76 -17zM538 690h57l-494 -690h-57zM368 65l43 11q5 -35 45 -35q21 0 34 12t15.5 23t2.5 22q0 46 -43 46q-30 0 -41 -22l-42 4l38 154h149l-6 -42h-113l-18 -71q20 22 46 22q43 0 60 -28t17 -62q0 -17 -7 -38.5
t-32.5 -43.5t-64.5 -22q-22 0 -39 8.5t-26 22t-12.5 22.5t-5.5 17z" />
    <glyph glyph-name="uni2156" unicode="&#x2156;" 
d="M109 451h141l-4 -42h-197l3 21q7 54 88 99q44 25 62.5 41t18.5 38q0 20 -12 32t-31 12t-35.5 -14.5t-16.5 -34.5h-47q0 39 31 67t72 28q36 0 61 -23.5t25 -58.5q0 -15 -2.5 -27t-9 -22t-11 -16.5t-17 -15t-18 -12t-22 -12.5t-21.5 -12q-47 -27 -58 -48zM538 690h57
l-494 -690h-57zM368 65l43 11q5 -35 45 -35q21 0 34 12t15.5 23t2.5 22q0 46 -43 46q-30 0 -41 -22l-42 4l38 154h149l-6 -42h-113l-18 -71q20 22 46 22q43 0 60 -28t17 -62q0 -17 -7 -38.5t-32.5 -43.5t-64.5 -22q-22 0 -39 8.5t-26 22t-12.5 22.5t-5.5 17z" />
    <glyph glyph-name="uni2157" unicode="&#x2157;" 
d="M538 690h57l-494 -690h-57zM151 539l5 42h16q18 0 32 11.5t14 28.5q0 14 -10.5 23t-26.5 9t-30 -11t-16 -25h-46q4 34 33 57.5t66 23.5q33 0 55.5 -20.5t22.5 -49.5q0 -25 -15 -42.5t-35 -25.5q16 -7 28 -22t12 -34q0 -41 -33.5 -70.5t-73.5 -29.5q-36 0 -60 22.5
t-24 56.5l1 12h46v-5q0 -17 12 -28.5t31 -11.5q22 0 39 14.5t17 36.5q0 16 -12 27t-31 11h-17zM368 65l43 11q5 -35 45 -35q21 0 34 12t15.5 23t2.5 22q0 46 -43 46q-30 0 -41 -22l-42 4l38 154h149l-6 -42h-113l-18 -71q20 22 46 22q43 0 60 -28t17 -62q0 -17 -7 -38.5
t-32.5 -43.5t-64.5 -22q-22 0 -39 8.5t-26 22t-12.5 22.5t-5.5 17z" />
    <glyph glyph-name="uni2158" unicode="&#x2158;" 
d="M538 690h57l-494 -690h-57zM218 407h-45l8 65h-138l4 34l169 184h38l-23 -176h43l-5 -42h-43zM101 514h85l14 107zM368 65l43 11q5 -35 45 -35q21 0 34 12t15.5 23t2.5 22q0 46 -43 46q-30 0 -41 -22l-42 4l38 154h149l-6 -42h-113l-18 -71q20 22 46 22q43 0 60 -28
t17 -62q0 -17 -7 -38.5t-32.5 -43.5t-64.5 -22q-22 0 -39 8.5t-26 22t-12.5 22.5t-5.5 17z" />
    <glyph glyph-name="uni2159" unicode="&#x2159;" 
d="M100 617l5 40q76 0 81 33h44l-37 -283h-46l29 227q-31 -17 -76 -17zM538 690h57l-494 -690h-57zM423 159q31 31 57 31q38 0 61.5 -26.5t23.5 -63.5q0 -45 -31 -75t-69 -30q-39 0 -64.5 30t-25.5 76q0 72 30 128q32 60 87 60q26 0 45.5 -12.5t25 -22t8.5 -18.5l-39 -19
q-11 27 -44 27q-18 0 -31.5 -11.5t-20 -28.5t-9.5 -27.5t-4 -17.5zM423 88q0 -19 12 -33t30 -14q21 0 37.5 17t16.5 42q0 18 -12 31t-30 13q-20 0 -37 -16.5t-17 -39.5z" />
    <glyph glyph-name="uni215A" unicode="&#x215a;" 
d="M538 690h57l-494 -690h-57zM423 159q31 31 57 31q38 0 61.5 -26.5t23.5 -63.5q0 -45 -31 -75t-69 -30q-39 0 -64.5 30t-25.5 76q0 72 30 128q32 60 87 60q26 0 45.5 -12.5t25 -22t8.5 -18.5l-39 -19q-11 27 -44 27q-18 0 -31.5 -11.5t-20 -28.5t-9.5 -27.5t-4 -17.5z
M423 88q0 -19 12 -33t30 -14q21 0 37.5 17t16.5 42q0 18 -12 31t-30 13q-20 0 -37 -16.5t-17 -39.5zM70 475l43 11q5 -35 45 -35q21 0 34 12t15.5 23t2.5 22q0 46 -43 46q-30 0 -41 -22l-42 4l38 154h149l-6 -42h-113l-18 -71q20 22 46 22q43 0 60 -28t17 -62
q0 -17 -7 -38.5t-32.5 -43.5t-64.5 -22q-22 0 -39 8.5t-26 22t-12.5 22.5t-5.5 17z" />
    <glyph glyph-name="oneeighth" unicode="&#x215b;" 
d="M421 81q0 -17 12.5 -29t30.5 -12q22 0 39 14t17 36q0 16 -12.5 27.5t-30.5 11.5q-21 0 -38.5 -14t-17.5 -34zM445 205q0 -13 10 -23t25 -10q18 0 31.5 11t13.5 29q0 13 -10 22.5t-25 9.5q-17 0 -31 -11t-14 -28zM490 289q33 0 57.5 -19.5t24.5 -50.5q0 -22 -13.5 -41.5
t-32.5 -28.5q18 -9 28.5 -27t10.5 -37q0 -37 -32 -63.5t-68 -26.5q-40 0 -65.5 19.5t-25.5 55.5q0 27 15.5 49.5t38.5 31.5q-29 23 -29 55q0 35 28 59t63 24zM100 617l5 40q76 0 81 33h44l-37 -283h-46l29 227q-31 -17 -76 -17zM538 690h57l-494 -690h-57z" />
    <glyph glyph-name="threeeighths" unicode="&#x215c;" 
d="M421 81q0 -17 12.5 -29t30.5 -12q22 0 39 14t17 36q0 16 -12.5 27.5t-30.5 11.5q-21 0 -38.5 -14t-17.5 -34zM445 205q0 -13 10 -23t25 -10q18 0 31.5 11t13.5 29q0 13 -10 22.5t-25 9.5q-17 0 -31 -11t-14 -28zM490 289q33 0 57.5 -19.5t24.5 -50.5q0 -22 -13.5 -41.5
t-32.5 -28.5q18 -9 28.5 -27t10.5 -37q0 -37 -32 -63.5t-68 -26.5q-40 0 -65.5 19.5t-25.5 55.5q0 27 15.5 49.5t38.5 31.5q-29 23 -29 55q0 35 28 59t63 24zM538 690h57l-494 -690h-57zM150 539l5 42h16q18 0 32 11.5t14 28.5q0 14 -10.5 23t-26.5 9t-30 -11t-16 -25h-46
q4 34 33 57.5t66 23.5q33 0 55.5 -20.5t22.5 -49.5q0 -25 -15 -42.5t-35 -25.5q16 -7 28 -22t12 -34q0 -41 -33.5 -70.5t-73.5 -29.5q-36 0 -60 22.5t-24 56.5l1 12h46v-5q0 -17 12 -28.5t31 -11.5q22 0 39 14.5t17 36.5q0 16 -12 27t-31 11h-17z" />
    <glyph glyph-name="fiveeighths" unicode="&#x215d;" 
d="M421 81q0 -17 12.5 -29t30.5 -12q22 0 39 14t17 36q0 16 -12.5 27.5t-30.5 11.5q-21 0 -38.5 -14t-17.5 -34zM445 205q0 -13 10 -23t25 -10q18 0 31.5 11t13.5 29q0 13 -10 22.5t-25 9.5q-17 0 -31 -11t-14 -28zM490 289q33 0 57.5 -19.5t24.5 -50.5q0 -22 -13.5 -41.5
t-32.5 -28.5q18 -9 28.5 -27t10.5 -37q0 -37 -32 -63.5t-68 -26.5q-40 0 -65.5 19.5t-25.5 55.5q0 27 15.5 49.5t38.5 31.5q-29 23 -29 55q0 35 28 59t63 24zM538 690h57l-494 -690h-57zM69 475l43 11q5 -35 45 -35q21 0 34 12t15.5 23t2.5 22q0 46 -43 46q-30 0 -41 -22
l-42 4l38 154h149l-6 -42h-113l-18 -71q20 22 46 22q43 0 60 -28t17 -62q0 -17 -7 -38.5t-32.5 -43.5t-64.5 -22q-22 0 -39 8.5t-26 22t-12.5 22.5t-5.5 17z" />
    <glyph glyph-name="seveneighths" unicode="&#x215e;" 
d="M170 407h-46v2q7 57 31 107t42 71.5t46 49.5l5 5l1 6h-140l5 42h191l-5 -42q-4 -3 -11.5 -8.5t-27.5 -26t-36 -45.5t-32.5 -68.5t-22.5 -92.5zM421 81q0 -17 12.5 -29t30.5 -12q22 0 39 14t17 36q0 16 -12.5 27.5t-30.5 11.5q-21 0 -38.5 -14t-17.5 -34zM445 205
q0 -13 10 -23t25 -10q18 0 31.5 11t13.5 29q0 13 -10 22.5t-25 9.5q-17 0 -31 -11t-14 -28zM490 289q33 0 57.5 -19.5t24.5 -50.5q0 -22 -13.5 -41.5t-32.5 -28.5q18 -9 28.5 -27t10.5 -37q0 -37 -32 -63.5t-68 -26.5q-40 0 -65.5 19.5t-25.5 55.5q0 27 15.5 49.5t38.5 31.5
q-29 23 -29 55q0 35 28 59t63 24zM538 690h57l-494 -690h-57z" />
    <glyph glyph-name="arrowleft" unicode="&#x2190;" horiz-adv-x="603" 
d="M282 489l-125 -144h354v-54h-354l125 -144l-40 -38l-158 195v28l158 195z" />
    <glyph glyph-name="arrowup" unicode="&#x2191;" horiz-adv-x="602" 
d="M472 333l-144 125v-354h-54v354l-144 -125l-38 40l195 158h28l195 -158z" />
    <glyph glyph-name="arrowright" unicode="&#x2192;" horiz-adv-x="603" 
d="M446 345l-125 144l40 38l158 -195v-28l-158 -195l-40 38l125 144h-354v54h354z" />
    <glyph glyph-name="arrowdown" unicode="&#x2193;" horiz-adv-x="602" 
d="M328 177l144 125l38 -40l-195 -158h-28l-195 158l38 40l144 -125v354h54v-354z" />
    <glyph glyph-name="uni2196" unicode="&#x2196;" horiz-adv-x="583" 
d="M418 442l-191 6l224 -274l-42 -34l-224 274l-32 -187l-55 7l51 245l22 18h251z" />
    <glyph glyph-name="uni2197" unicode="&#x2197;" horiz-adv-x="583" 
d="M356 448l-191 -6l-4 55h251l22 -18l51 -245l-55 -7l-32 187l-224 -274l-42 34z" />
    <glyph glyph-name="uni2198" unicode="&#x2198;" horiz-adv-x="549" 
d="M131 195l191 -6l-224 274l42 34l224 -274l32 187l55 -7l-51 -245l-22 -18h-251z" />
    <glyph glyph-name="uni2199" unicode="&#x2199;" horiz-adv-x="583" 
d="M227 189l191 6l4 -55h-251l-22 18l-51 245l55 7l32 -187l224 274l42 -34z" />
    <glyph glyph-name="partialdiff" unicode="&#x2202;" horiz-adv-x="600" 
d="M244 47q81 0 133 64t52 134q0 67 -41 112t-98 45q-81 0 -133 -63t-52 -135q0 -67 41 -112t98 -45zM290 457q58 0 108 -35t73 -92h9q17 49 17 115q0 60 -11.5 106.5t-26.5 72.5t-38 45.5t-36.5 25.5t-32.5 13l8 60q11 0 30.5 -6t50 -27.5t55.5 -54.5t43.5 -94.5
t18.5 -140.5q0 -121 -40.5 -225t-113 -166t-160.5 -62q-80 0 -139 61t-59 151q0 57 29 114.5t86.5 98t128.5 40.5z" />
    <glyph glyph-name="Delta" unicode="&#x2206;" horiz-adv-x="544" 
d="M355 690l135 -636l-6 -54h-484l6 54l291 636h58zM430 54l-115 548l-249 -548h364z" />
    <glyph glyph-name="product" unicode="&#x220f;" horiz-adv-x="652" 
d="M497 -48h-60l84 688h-291l-84 -688h-60l84 688h-106l7 54h620l-7 -54h-103z" />
    <glyph glyph-name="summation" unicode="&#x2211;" horiz-adv-x="565" 
d="M94 639l6 51h484l-6 -54h-394l-1 -5l258 -286l-328 -286l-1 -5h394l-6 -54h-484l6 51l328 279l4 29z" />
    <glyph glyph-name="minus" unicode="&#x2212;" horiz-adv-x="496" 
d="M43 264l7 54h408l-7 -54h-408z" />
    <glyph glyph-name="uni2215" unicode="&#x2215;" horiz-adv-x="80" 
d="M279 690h57l-494 -690h-57z" />
    <glyph glyph-name="uni2219" unicode="&#x2219;" horiz-adv-x="294" 
d="M158 387q21 0 33.5 -13.5t12.5 -33.5q0 -24 -16.5 -40t-39.5 -16q-20 0 -34 13.5t-14 33.5q0 24 17 40t41 16z" />
    <glyph glyph-name="radical" unicode="&#x221a;" horiz-adv-x="529" 
d="M754 786h-151l-365 -794h-55l-99 506h59l80 -413l346 755h192z" />
    <glyph glyph-name="infinity" unicode="&#x221e;" horiz-adv-x="639" 
d="M596 268q0 -54 -42.5 -90t-94.5 -36q-20 0 -41.5 9t-38 22t-30.5 26.5t-21 22.5l-8 9q-10 -10 -27 -25t-59 -39.5t-72 -24.5q-51 0 -81.5 32t-30.5 83q0 52 42 89t97 37q34 0 69 -22.5t54 -45.5l18 -23q11 10 28 25t59 40.5t70 25.5q54 0 81.5 -30.5t27.5 -84.5zM173 198
q40 0 109 57l1 12q-53 60 -99 60q-29 0 -51 -21t-22 -49q0 -26 17.5 -42.5t44.5 -16.5zM535 267q0 60 -59 60q-39 0 -108 -59l-1 -10q53 -60 97 -60q27 0 49 21t22 48z" />
    <glyph glyph-name="integral" unicode="&#x222b;" horiz-adv-x="293" 
d="M-4 -158l6 54h20q25 0 45.5 18t23.5 43l96 777q5 44 41 75t78 31h34l-7 -54h-21q-25 0 -44.5 -17.5t-22.5 -42.5l-96 -778q-5 -43 -41 -74.5t-78 -31.5h-34z" />
    <glyph glyph-name="approxequal" unicode="&#x2248;" horiz-adv-x="524" 
d="M88 271l-39 38q53 50 84.5 66.5t59.5 16.5q41 0 85 -29q30 -27 58 -30h-1q47 0 106 60l39 -38q-52 -50 -83.5 -66.5t-59.5 -16.5q-46 0 -82 27q-39 29 -61 32h1q-47 0 -107 -60zM88 128l-39 38q53 50 84.5 66.5t59.5 16.5q41 0 85 -29q30 -27 58 -30h-1q47 0 106 60
l39 -38q-52 -50 -83.5 -66.5t-59.5 -16.5q-46 0 -82 27q-39 29 -61 32h1q-47 0 -107 -60z" />
    <glyph glyph-name="notequal" unicode="&#x2260;" horiz-adv-x="516" 
d="M415 480l-65 -107h122l-7 -54h-147l-58 -96h192l-7 -54h-218l-78 -130l-43 24l64 106h-121l7 54h146l59 96h-192l7 54h217l80 131z" />
    <glyph glyph-name="lessequal" unicode="&#x2264;" horiz-adv-x="553" 
d="M423 135l-43 -39l-284 324l364 324l33 -39l-313 -271l-4 -29zM15 -54l7 54h408l-7 -54h-408z" />
    <glyph glyph-name="greaterequal" unicode="&#x2265;" horiz-adv-x="553" 
d="M125 96l-33 39l313 270l4 29l-247 271l43 39l284 -324zM46 -54l7 54h408l-7 -54h-408z" />
    <glyph glyph-name="dotmath" unicode="&#x22c5;" horiz-adv-x="294" 
d="M158 387q21 0 33.5 -13.5t12.5 -33.5q0 -24 -16.5 -40t-39.5 -16q-20 0 -34 13.5t-14 33.5q0 24 17 40t41 16z" />
    <glyph glyph-name="uni25AF" unicode="&#x25af;" horiz-adv-x="566" 
d="M42 0v690h482v-690h-482zM96 54h374v582h-374v-582z" />
    <glyph glyph-name="lozenge" unicode="&#x25ca;" horiz-adv-x="568" 
d="M51 325l5 40l259 373h58l167 -373l-5 -40l-258 -373h-58zM114 336l142 -326l220 326l2 18l-140 326l-222 -326z" />
    <glyph glyph-name="fi" unicode="&#xfb01;" horiz-adv-x="562" 
d="M393 0l66 507h59l-66 -507h-59zM140 507l8 57q8 62 57.5 106t111.5 44q53 0 93 -21l-28 -52q-31 17 -72 17q-38 0 -68 -26.5t-35 -64.5l-8 -60h158l-7 -54h-158l-59 -453h-59l59 453h-119l7 54h119zM512 687q18 0 29 -11.5t11 -29.5q0 -21 -14.5 -35t-34.5 -14
q-18 0 -30 12t-12 29q0 21 15 35t36 14z" />
    <glyph glyph-name="fl" unicode="&#xfb02;" horiz-adv-x="568" 
d="M395 0l92 696h59l-92 -696h-59zM140 507l8 57q8 62 57.5 106t111.5 44q53 0 93 -21l-28 -52q-31 17 -72 17q-38 0 -68 -26.5t-35 -64.5l-8 -60h158l-7 -54h-158l-59 -453h-59l59 453h-119l7 54h119z" />
    <glyph glyph-name="i.latn_TRK" horiz-adv-x="212" 
d="M43 0l66 507h59l-66 -507h-59zM162 687q18 0 29 -11.5t11 -29.5q0 -21 -14.5 -35t-34.5 -14q-18 0 -30 12t-12 29q0 21 15 35t36 14z" />
    <glyph glyph-name="Ldot.latn_CAT" horiz-adv-x="535" 
d="M190 690l-84 -633h375l-7 -57h-436l91 690h61zM353 387q21 0 33.5 -13.5t12.5 -33.5q0 -24 -16.5 -40t-39.5 -16q-20 0 -34 13.5t-14 33.5q0 24 17 40t41 16z" />
    <glyph glyph-name="ldot.latn_CAT" horiz-adv-x="351" 
d="M45 0l92 696h59l-92 -696h-59zM295 387q21 0 33.5 -13.5t12.5 -33.5q0 -24 -16.5 -40t-39.5 -16q-20 0 -34 13.5t-14 33.5q0 24 17 40t41 16z" />
    <glyph glyph-name="zero.numr" horiz-adv-x="271" 
d="M142 397q-40 0 -63 40q-21 36 -21 92q0 67 27 111q31 52 81 52q40 0 63 -40q21 -36 21 -92q0 -67 -27 -111q-31 -52 -81 -52zM142 443q24 0 42 30q19 31 19 87q0 43 -14 69q-11 17 -23 17q-24 0 -42 -30q-19 -31 -19 -87q0 -43 14 -69q11 -17 23 -17z" />
    <glyph glyph-name="one.numr" horiz-adv-x="197" 
d="M35 617l5 40q76 0 81 33h44l-37 -283h-46l29 227q-31 -17 -76 -17z" />
    <glyph glyph-name="two.numr" horiz-adv-x="266" 
d="M79 449h141l-4 -42h-197l3 21q7 54 88 99q44 25 62.5 41t18.5 38q0 20 -12 32t-31 12t-35.5 -14.5t-16.5 -34.5h-47q0 39 31 67t72 28q36 0 61 -23.5t25 -58.5q0 -15 -2.5 -27t-9 -22t-11 -16.5t-17 -15t-18 -12t-22 -12.5t-21.5 -12q-47 -27 -58 -48z" />
    <glyph glyph-name="three.numr" horiz-adv-x="288" 
d="M133 532l5 42h16q18 0 32 11.5t14 28.5q0 14 -10.5 23t-26.5 9t-30 -11t-16 -25h-46q4 34 33 57.5t66 23.5q33 0 55.5 -20.5t22.5 -49.5q0 -25 -15 -42.5t-35 -25.5q16 -7 28 -22t12 -34q0 -41 -33.5 -70.5t-73.5 -29.5q-36 0 -60 22.5t-24 56.5l1 11l46 1v-5
q0 -17 12 -28.5t31 -11.5q22 0 39 14.5t17 36.5q0 16 -12 27t-31 11h-17z" />
    <glyph glyph-name="four.numr" horiz-adv-x="257" 
d="M187 407h-45l8 65h-138l4 34l169 184h38l-23 -176h43l-5 -42h-43zM70 514h85l14 107z" />
    <glyph glyph-name="five.numr" horiz-adv-x="268" 
d="M43 467l43 11q5 -35 45 -35q21 0 34 12t15.5 23t2.5 22q0 46 -43 46q-30 0 -41 -22l-42 4l38 154h149l-6 -42h-113l-18 -71q20 22 46 22q43 0 60 -28t17 -62q0 -17 -7 -38.5t-32.5 -43.5t-64.5 -22q-22 0 -39 8.5t-26 22t-12.5 22.5t-5.5 17z" />
    <glyph glyph-name="six.numr" horiz-adv-x="270" 
d="M104 561q31 31 57 31q38 0 61.5 -26.5t23.5 -63.5q0 -45 -31 -75t-69 -30q-39 0 -64.5 30t-25.5 76q0 72 30 128q32 60 87 60q26 0 45.5 -12.5t25 -22t8.5 -18.5l-39 -19q-11 27 -44 27q-18 0 -31.5 -11.5t-20 -28.5t-9.5 -27.5t-4 -17.5zM104 490q0 -19 12 -33t30 -14
q21 0 37.5 17t16.5 42q0 18 -12 31t-30 13q-20 0 -37 -16.5t-17 -39.5z" />
    <glyph glyph-name="seven.numr" horiz-adv-x="228" 
d="M105 407h-46v2q5 57 28 107.5t39.5 71t44.5 49.5q5 3 6 5v6h-139l4 42h191l-5 -42q-4 -3 -11.5 -8.5t-26.5 -26t-34.5 -45.5t-30.5 -68.5t-20 -92.5z" />
    <glyph glyph-name="eight.numr" horiz-adv-x="289" 
d="M98 483q0 -17 12.5 -29t30.5 -12q22 0 39 14t17 36q0 16 -12.5 27.5t-30.5 11.5q-21 0 -38.5 -14t-17.5 -34zM122 607q0 -13 10 -23t25 -10q18 0 31.5 11t13.5 29q0 13 -10 22.5t-25 9.5q-17 0 -31 -11t-14 -28zM167 691q33 0 57.5 -19.5t24.5 -50.5q0 -22 -13.5 -41.5
t-32.5 -28.5q18 -9 28.5 -27t10.5 -37q0 -37 -32 -63.5t-68 -26.5q-40 0 -65.5 19.5t-25.5 55.5q0 27 15.5 49.5t38.5 31.5q-29 23 -29 55q0 35 28 59t63 24z" />
    <glyph glyph-name="nine.numr" horiz-adv-x="270" 
d="M192 527q-31 -31 -57 -31q-38 0 -61.5 26.5t-23.5 63.5q0 45 31 75t69 30q39 0 64.5 -30t25.5 -76q0 -72 -30 -128q-32 -60 -87 -60q-26 0 -45.5 12.5t-25 22t-8.5 18.5l39 19q11 -27 44 -27q18 0 31.5 11.5t20 28.5t9.5 27.5t4 17.5zM192 598q0 19 -12 33t-30 14
q-21 0 -37.5 -17t-16.5 -42q0 -18 12 -31t30 -13q20 0 37 16.5t17 39.5z" />
    <glyph glyph-name="zero.dnom" horiz-adv-x="271" 
d="M142 -10q-40 0 -63 40q-21 36 -21 92q0 67 27 111q31 52 81 52q40 0 63 -40q21 -36 21 -92q0 -67 -27 -111q-31 -52 -81 -52zM142 36q24 0 42 30q19 31 19 87q0 43 -14 69q-11 17 -23 17q-24 0 -42 -30q-19 -31 -19 -87q0 -43 14 -69q11 -17 23 -17z" />
    <glyph glyph-name="one.dnom" horiz-adv-x="197" 
d="M35 210l5 40q76 0 81 33h44l-37 -283h-46l29 227q-31 -17 -76 -17z" />
    <glyph glyph-name="two.dnom" horiz-adv-x="266" 
d="M79 42h141l-4 -42h-197l3 21q7 54 88 99q44 25 62.5 41t18.5 38q0 20 -12 32t-31 12t-35.5 -14.5t-16.5 -34.5h-47q0 39 31 67t72 28q36 0 61 -23.5t25 -58.5q0 -15 -2.5 -27t-9 -22t-11 -16.5t-17 -15t-18 -12t-22 -12.5t-21.5 -12q-47 -27 -58 -48z" />
    <glyph glyph-name="three.dnom" horiz-adv-x="288" 
d="M133 125l5 42h16q18 0 32 11.5t14 28.5q0 14 -10.5 23t-26.5 9t-30 -11t-16 -25h-46q4 34 33 57.5t66 23.5q33 0 55.5 -20.5t22.5 -49.5q0 -25 -15 -42.5t-35 -25.5q16 -7 28 -22t12 -34q0 -41 -33.5 -70.5t-73.5 -29.5q-36 0 -60 22.5t-24 56.5l1 11l46 1v-5
q0 -17 12 -28.5t31 -11.5q22 0 39 14.5t17 36.5q0 16 -12 27t-31 11h-17z" />
    <glyph glyph-name="four.dnom" horiz-adv-x="257" 
d="M187 0h-45l8 65h-138l4 34l169 184h38l-23 -176h43l-5 -42h-43zM70 107h85l14 107z" />
    <glyph glyph-name="five.dnom" horiz-adv-x="268" 
d="M43 60l43 11q5 -35 45 -35q21 0 34 12t15.5 23t2.5 22q0 46 -43 46q-30 0 -41 -22l-42 4l38 154h149l-6 -42h-113l-18 -71q20 22 46 22q43 0 60 -28t17 -62q0 -17 -7 -38.5t-32.5 -43.5t-64.5 -22q-22 0 -39 8.5t-26 22t-12.5 22.5t-5.5 17z" />
    <glyph glyph-name="six.dnom" horiz-adv-x="270" 
d="M104 154q31 31 57 31q38 0 61.5 -26.5t23.5 -63.5q0 -45 -31 -75t-69 -30q-39 0 -64.5 30t-25.5 76q0 72 30 128q32 60 87 60q26 0 45.5 -12.5t25 -22t8.5 -18.5l-39 -19q-11 27 -44 27q-18 0 -31.5 -11.5t-20 -28.5t-9.5 -27.5t-4 -17.5zM104 83q0 -19 12 -33t30 -14
q21 0 37.5 17t16.5 42q0 18 -12 31t-30 13q-20 0 -37 -16.5t-17 -39.5z" />
    <glyph glyph-name="seven.dnom" horiz-adv-x="228" 
d="M105 0h-46v2q5 57 28 107.5t39.5 71t44.5 49.5q5 4 6 5v6h-139l4 42h191l-5 -42q-4 -3 -11.5 -8.5t-26.5 -26t-34.5 -45.5t-30.5 -68.5t-20 -92.5z" />
    <glyph glyph-name="eight.dnom" horiz-adv-x="289" 
d="M98 76q0 -17 12.5 -29t30.5 -12q22 0 39 14t17 36q0 16 -12.5 27.5t-30.5 11.5q-21 0 -38.5 -14t-17.5 -34zM122 200q0 -13 10 -23t25 -10q18 0 31.5 11t13.5 29q0 13 -10 22.5t-25 9.5q-17 0 -31 -11t-14 -28zM167 284q33 0 57.5 -19.5t24.5 -50.5q0 -22 -13.5 -41.5
t-32.5 -28.5q39 -20 39 -64q0 -37 -32 -63.5t-68 -26.5q-40 0 -65.5 19.5t-25.5 55.5q0 27 15.5 49.5t38.5 31.5q-29 23 -29 55q0 35 28 59t63 24z" />
    <glyph glyph-name="nine.dnom" horiz-adv-x="270" 
d="M192 120q-31 -31 -57 -31q-38 0 -61.5 26.5t-23.5 63.5q0 45 31 75t69 30q39 0 64.5 -30t25.5 -76q0 -72 -30 -128q-32 -60 -87 -60q-26 0 -45.5 12.5t-25 22t-8.5 18.5l39 19q11 -27 44 -27q18 0 31.5 11.5t20 28.5t9.5 27.5t4 17.5zM192 191q0 19 -12 33t-30 14
q-21 0 -37.5 -17t-16.5 -42q0 -18 12 -31t30 -13q20 0 37 16.5t17 39.5z" />
    <glyph glyph-name="space.frac" horiz-adv-x="43" 
 />
    <glyph glyph-name="numbersign.lf" horiz-adv-x="701" 
d="M177 10h-52l46 176h-146l15 54h146l50 190h-148l14 54h148l47 174h52l-47 -174h160l47 174h52l-47 -174h148l-14 -54h-148l-50 -190h150l-15 -54h-150l-46 -176h-52l46 176h-160zM287 430l-50 -190h160l50 190h-160z" />
    <glyph glyph-name="dollar.lf" horiz-adv-x="657" 
d="M359 676l14 105h56l-15 -108q76 -11 127 -48q74 -54 74 -126v-10h-60v8q0 51 -55 86q-58 37 -136 37t-136 -37q-55 -35 -55 -86q0 -94 137 -112l105 -16q93 -14 138 -55t45 -96q0 -92 -80 -156q-79 -62 -190 -62l-14 -107h-56l14 111q-78 12 -135 58q-81 64 -81 158v10
h58v-8q0 -72 63 -119t151 -47q85 0 150 45q63 46 63 114q0 44 -44.5 69.5t-97.5 31.5l-106 17q-179 30 -179 164q0 73 72 126q73 52 173 53z" />
    <glyph glyph-name="plus.lf" horiz-adv-x="523" 
d="M43 319l7 54h188l25 190h59l-25 -190h188l-7 -54h-188l-25 -192h-59l25 192h-188z" />
    <glyph glyph-name="zero.lf" horiz-adv-x="560" 
d="M250 48q49 0 89.5 35.5t65.5 93.5q46 103 46 244q0 93 -35 154q-39 67 -105 67q-49 0 -89.5 -35.5t-65.5 -93.5q-46 -103 -46 -244q0 -93 35 -154q39 -67 105 -67zM239 -8q-39 0 -77 22.5t-62 58.5q-49 77 -49 183q0 175 58 291q75 151 213 151q39 0 77 -22.5t62 -58.5
q49 -77 49 -183q0 -175 -58 -291q-75 -151 -213 -151z" />
    <glyph glyph-name="one.lf" horiz-adv-x="345" 
d="M224 690h59l-88 -690h-59l73 569h-7q-75 -50 -158 -50l8 55q49 0 107.5 32.5t64.5 83.5z" />
    <glyph glyph-name="two.lf" horiz-adv-x="531" 
d="M140 497h-62l1 9q3 26 17.5 57t41 62.5t71 52t98.5 20.5q48 0 85 -18t58 -46t31.5 -58t10.5 -59q0 -89 -49 -144.5t-160 -105.5q-61 -28 -100.5 -54.5t-57.5 -51.5t-23.5 -40.5t-9.5 -38.5l-4 -28h368l-7 -54h-438v6q0 55 16 101.5t38.5 77t59.5 58t67 43.5t72 34
q84 37 125.5 80t41.5 110q0 22 -5.5 42.5t-18 42t-40.5 34.5t-67 13q-69 0 -111.5 -47t-47.5 -89z" />
    <glyph glyph-name="three.lf" horiz-adv-x="509" 
d="M184 342l7 56h70q57 0 102 40t45 91t-42 83q-39 30 -90 30q-56 0 -101 -35q-43 -36 -47 -87l-59 18q10 67 65 111q63 49 143 49q74 0 131 -43q61 -45 61 -121q0 -52 -36 -94q-30 -35 -88 -64l-1 -18q48 -22 74 -62q27 -41 27 -96q0 -83 -66 -144q-67 -64 -165 -64
q-81 0 -144 53q-62 50 -66 125h62q6 -52 45 -83q47 -39 104 -39q70 0 121 48q48 45 48 108q0 62 -39 98q-42 40 -109 40h-52z" />
    <glyph glyph-name="four.lf" horiz-adv-x="509" 
d="M-10 193l6 41l378 456h75l-58 -443h95l-8 -54h-95l-25 -193h-59l25 193h-334zM378 616l-311 -369h265l48 369h-2z" />
    <glyph glyph-name="five.lf" horiz-adv-x="534" 
d="M37 189l61 9v-10q0 -15 2 -29.5t11 -35.5t23 -37t41.5 -27t63.5 -11q50 0 88 27.5t56.5 66.5t27 71.5t8.5 54.5q0 21 -1.5 37.5t-8 38.5t-18.5 36t-35 24.5t-55 10.5q-52 0 -96 -39t-51 -59l-70 8l86 365h341l-7 -54h-286q-46 -181 -58 -233h3q75 73 149 73
q169 0 169 -205q0 -24 -5.5 -54.5t-22 -71.5t-42.5 -74t-73 -56t-107 -23q-45 0 -80.5 12t-55 32.5t-32.5 41.5t-18 46.5t-6.5 38.5t-1.5 26z" />
    <glyph glyph-name="six.lf" horiz-adv-x="572" 
d="M294 405q-67 0 -121.5 -60.5t-54.5 -138.5q0 -74 39.5 -116t106.5 -42q70 0 123.5 59t53.5 149q0 73 -39 111t-108 38zM537 544l-57 -19q-25 117 -143 117q-79 0 -144.5 -95t-75.5 -212h4q22 49 76 87.5t108 38.5q92 0 144.5 -56t52.5 -152q0 -105 -72.5 -183t-172.5 -78
q-108 0 -158 70.5t-50 194.5q0 116 37 217t104 162.5t147 61.5q94 0 138 -38.5t62 -115.5z" />
    <glyph glyph-name="seven.lf" horiz-adv-x="404" 
d="M125 0h-60l1 3q15 113 49 217t77.5 180.5t82.5 129t78 91.5l2 15h-314l8 54h399l-8 -56q-5 -4 -14.5 -12.5t-37.5 -38.5t-54.5 -64t-60.5 -90t-61.5 -116.5t-51.5 -143t-35 -169.5z" />
    <glyph glyph-name="eight.lf" horiz-adv-x="527" 
d="M22 180q0 58 44 110q41 48 101 72l1 20q-36 16 -61 50q-22 33 -22 79q0 84 67 138q63 49 143 49q74 0 131 -43q61 -45 61 -121q0 -52 -36 -94q-30 -35 -88 -64l-1 -18q45 -20 74 -62q27 -46 27 -96q0 -83 -66 -144q-67 -64 -165 -64q-81 0 -144 53q-66 54 -66 135z
M83 186q0 -61 46 -99q47 -39 104 -39q70 0 121 48q48 45 48 108q0 62 -39 98q-42 40 -109 40q-69 0 -121 -50q-50 -47 -50 -106zM294 642q-58 0 -100 -36q-48 -36 -48 -98q0 -50 38 -80q36 -30 95 -30q60 0 102 40q45 37 45 91q0 51 -42 83q-39 30 -90 30z" />
    <glyph glyph-name="nine.lf" horiz-adv-x="572" 
d="M281 285q67 0 121.5 60.5t54.5 138.5q0 74 -39.5 116t-106.5 42q-70 0 -123.5 -59t-53.5 -149q0 -73 39 -111t108 -38zM38 146l57 19q25 -117 143 -117q79 0 144.5 95t75.5 212h-4q-22 -49 -76 -87.5t-108 -38.5q-92 0 -144.5 56t-52.5 152q0 105 72.5 183t172.5 78
q108 0 158 -70.5t50 -194.5q0 -116 -37 -217t-104 -162.5t-147 -61.5q-94 0 -138 38.5t-62 115.5z" />
    <glyph glyph-name="less.lf" horiz-adv-x="428" 
d="M356 81l-42 -39l-285 324l364 324l33 -39l-313 -271l-3 -29z" />
    <glyph glyph-name="equal.lf" horiz-adv-x="516" 
d="M69 394l7 54h396l-7 -54h-396zM49 244l7 54h396l-7 -54h-396z" />
    <glyph glyph-name="greater.lf" horiz-adv-x="428" 
d="M64 42l-34 39l314 270l3 29l-247 271l43 39l284 -324z" />
    <glyph glyph-name="asciitilde.lf" horiz-adv-x="505" 
d="M79 214l-39 38q53 50 84.5 66.5t59.5 16.5q41 0 85 -29q30 -27 58 -30h-1q47 0 106 60l39 -38q-52 -50 -83.5 -66.5t-59.5 -16.5q-46 0 -82 27q-39 29 -61 32h1q-47 0 -107 -60z" />
    <glyph glyph-name="cent.lf" horiz-adv-x="611" 
d="M226 0l10 77q-81 12 -128 72q-52 65 -52 167q0 112 63 191q70 86 185 92l10 80h49l-11 -81q80 -11 130 -73q40 -50 50 -126h-63q-8 57 -34 89q-36 46 -90 54l-53 -410q81 7 134 73q13 20 25 45h65q-17 -46 -43 -80q-71 -90 -188 -95l-10 -75h-49zM155 187q34 -44 88 -54
l53 410q-80 -8 -130 -72q-48 -62 -48 -154q0 -80 37 -130z" />
    <glyph glyph-name="sterling.lf" 
d="M474 343h-235v-43q0 -42 -5 -85q-8 -64 -79 -127q24 8 42 8q53 0 105 -19q56 -20 90 -20q35 0 59.5 20.5t24.5 49.5h59q0 -51 -43 -89t-97 -38q-48 0 -109 23q-62 22 -95 22q-34 0 -58.5 -9.5t-64.5 -33.5l-4 -2l-23 42q5 2 13 7t29 21.5t37.5 35.5t32.5 50t20 64
q5 38 5 81q0 28 -1 42h-95l6 54h91q-2 60 -2 88q0 43 3 69q5 42 25.5 72t50 44.5t58 20.5t59.5 6q51 0 88.5 -17t54.5 -42t24.5 -44.5t7.5 -32.5h-60q0 12 -8.5 29t-36.5 35t-70 18q-123 0 -133 -97q-3 -25 -3 -65q0 -11 0.5 -21.5t1 -28t0.5 -34.5h240z" />
    <glyph glyph-name="currency.lf" horiz-adv-x="530" 
d="M274 469q-57 0 -98.5 -38.5t-41.5 -97.5q0 -47 34 -80.5t83 -33.5q55 0 95 38.5t40 97.5q0 49 -30.5 81.5t-81.5 32.5zM282 525q61 0 104 -35l62 55l38 -43l-64 -55q22 -39 22 -86q0 -72 -45 -125l48 -50l-48 -43l-48 52q-47 -29 -105 -29q-62 0 -107 36l-68 -59l-38 43
l69 58q-25 39 -25 86q0 67 42 120l-47 52l48 43l46 -53q53 33 116 33z" />
    <glyph glyph-name="yen.lf" horiz-adv-x="580" 
d="M99 298l7 54h117l-167 328h71l159 -326l243 326h71l-252 -328h116l-7 -54h-148l-13 -101h148l-7 -54h-148l-18 -143h-61l18 143h-149l7 54h149l13 101h-149z" />
    <glyph glyph-name="section.lf" horiz-adv-x="427" 
d="M88 398q0 -38 37 -75l135 -120h14q72 33 72 89q0 38 -37 75l-135 120h-14q-72 -33 -72 -89zM235 153l-142 130q-66 58 -66 124q0 70 110 117q-31 35 -31 75t43 69.5t103 29.5t100.5 -29.5t40.5 -71.5h-60q0 19 -25.5 32t-60.5 13q-34 0 -57.5 -13t-23.5 -32q0 -27 33 -60
l142 -130q66 -58 66 -124q0 -70 -110 -117q31 -35 31 -75t-43 -69.5t-103 -29.5t-100.5 29.5t-40.5 71.5h60q0 -19 25.5 -32t60.5 -13q34 0 57.5 13t23.5 32q0 27 -33 60z" />
    <glyph glyph-name="logicalnot.lf" horiz-adv-x="488" 
d="M47 319l7 54h388l-24 -181h-59l17 127h-329z" />
    <glyph glyph-name="plusminus.lf" horiz-adv-x="534" 
d="M76 365l7 54h176l24 178h59l-24 -178h175l-7 -54h-175l-23 -180h-59l23 180h-176zM40 73l7 54h408l-7 -54h-408z" />
    <glyph glyph-name="multiply.lf" horiz-adv-x="539" 
d="M91 508l44 39l133 -159h19l174 159l34 -39l-179 -154l-2 -19l139 -153l-44 -39l-134 159h-19l-173 -159l-34 39l179 153l2 19z" />
    <glyph glyph-name="divide.lf" horiz-adv-x="485" 
d="M43 317l8 56h396l-8 -56h-396zM228 234q17 0 28.5 -12t11.5 -29q0 -21 -15 -35t-35 -14q-17 0 -29 12t-12 29q0 21 15 35t36 14zM267 546q17 0 28.5 -12t11.5 -29q0 -21 -15 -35t-35 -14q-17 0 -29 12t-12 29q0 21 15 35t36 14z" />
    <glyph glyph-name="florin.lf" horiz-adv-x="476" 
d="M136 44l63 376h-136l9 52h136l18 111q11 63 56 97t118 34q74 0 113 -22l-32 -51q-28 15 -72 15q-105 0 -121 -90l-16 -94h172l-9 -52h-171l-66 -393q-11 -64 -56.5 -97.5t-117.5 -33.5q-78 0 -116 22l33 52q28 -15 69 -15q57 0 87 19.5t39 69.5z" />
    <glyph glyph-name="Euro.lf" 
d="M141 382q-5 -37 -5 -66v-9h310l-32 -54h-274q11 -72 45 -121q56 -81 150 -81q120 0 192 106l12 18l43 -46q-1 -1 -2.5 -4t-2.5 -4q-90 -129 -245 -129q-123 0 -196 103q-45 64 -58 158h-95l32 54h59v7q0 37 4 68h-82l35 54h58q19 76 61 134q91 128 245 128
q124 0 196 -102l13 -21l-39 -63q-10 25 -25 47q-56 80 -148 80q-120 0 -193 -104q-30 -42 -47 -99h374l-35 -54h-350z" />
    <glyph glyph-name="minus.lf" horiz-adv-x="496" 
d="M43 319l7 54h408l-7 -54h-408z" />
    <glyph glyph-name="infinity.lf" horiz-adv-x="639" 
d="M596 268q0 -54 -42.5 -90t-94.5 -36q-20 0 -41.5 9t-38 22t-30.5 26.5t-21 22.5l-8 9q-10 -10 -27 -25t-59 -39.5t-72 -24.5q-51 0 -81.5 32t-30.5 83q0 52 42 89t97 37q34 0 69 -22.5t54 -45.5l18 -23q11 10 28 25t59 40.5t70 25.5q54 0 81.5 -30.5t27.5 -84.5zM173 198
q40 0 109 57l1 12q-53 60 -99 60q-29 0 -51 -21t-22 -49q0 -26 17.5 -42.5t44.5 -16.5zM535 267q0 60 -59 60q-39 0 -108 -59l-1 -10q53 -60 97 -60q27 0 49 21t22 48z" />
    <glyph glyph-name="approxequal.lf" horiz-adv-x="524" 
d="M88 271l-39 38q53 50 84.5 66.5t59.5 16.5q41 0 85 -29q30 -27 58 -30h-1q47 0 106 60l39 -38q-52 -50 -83.5 -66.5t-59.5 -16.5q-46 0 -82 27q-39 29 -61 32h1q-47 0 -107 -60zM88 128l-39 38q53 50 84.5 66.5t59.5 16.5q41 0 85 -29q30 -27 58 -30h-1q47 0 106 60
l39 -38q-52 -50 -83.5 -66.5t-59.5 -16.5q-46 0 -82 27q-39 29 -61 32h1q-47 0 -107 -60z" />
    <glyph glyph-name="notequal.lf" horiz-adv-x="516" 
d="M415 480l-65 -107h122l-7 -54h-147l-58 -96h192l-7 -54h-218l-78 -130l-43 24l64 106h-121l7 54h146l59 96h-192l7 54h217l80 131z" />
    <glyph glyph-name="commaaccent.case" horiz-adv-x="213" 
d="M159 -91v-8q0 -50 -80 -125l-25 27q36 29 45 55q-40 7 -40 40q0 24 16.5 39t40.5 15q18 0 30.5 -13t12.5 -30z" />
    <glyph glyph-name="parenleft.case" horiz-adv-x="283" 
d="M238 -105h-55q-103 172 -103 364q0 46 5 81q31 224 215 449h55q-7 -8 -19 -23t-43.5 -62.5t-57.5 -97.5t-51.5 -123t-35.5 -143q-6 -45 -6 -88q0 -92 24 -181t48 -133z" />
    <glyph glyph-name="parenright.case" horiz-adv-x="282" 
d="M-17 -105h-55q7 8 19 22.5t43.5 62t57.5 96.5t51 121.5t34 142.5q5 36 5 85q0 59 -10 118t-24 101t-27.5 76.5t-23.5 51.5l-10 17h55q104 -178 104 -370q0 -34 -5 -79q-9 -73 -35.5 -146.5t-62 -132.5t-62.5 -97t-54 -69z" />
    <glyph glyph-name="hyphen.case" horiz-adv-x="344" 
d="M30 314l6 54h258l-6 -54h-258z" />
    <glyph glyph-name="bracketleft.case" horiz-adv-x="312" 
d="M343 786l-7 -54h-103l-102 -780h103l-7 -54h-162l116 888h162z" />
    <glyph glyph-name="bracketright.case" horiz-adv-x="312" 
d="M78 732l7 54h162l-116 -888h-162l7 54h103l102 780h-103z" />
    <glyph glyph-name="grave.case" horiz-adv-x="331" 
d="M244 751l-184 80l40 67l171 -100z" />
    <glyph glyph-name="braceleft.case" horiz-adv-x="289" 
d="M203 -46l-6 -56h-47q-31 0 -48.5 21t-17.5 60q0 15 1 23l27 221q1 5 1 14q0 52 -63 78l8 63q38 11 59.5 30t26.5 64l23 182q9 69 28.5 100.5t63.5 31.5h50l-6 -56h-23q-24 0 -33.5 -17.5t-17.5 -74.5l-23 -171q-12 -92 -86 -123q23 -13 40 -41.5t17 -58.5q0 -8 -1 -12
l-29 -218q-2 -16 -2 -22q0 -38 28 -38h30z" />
    <glyph glyph-name="braceright.case" horiz-adv-x="289" 
d="M86 730l6 56h47q31 0 48.5 -21t17.5 -60q0 -15 -1 -23l-27 -221q-1 -5 -1 -14q0 -52 63 -78l-8 -63q-38 -11 -59.5 -30t-26.5 -64l-23 -182q-9 -69 -28.5 -100.5t-63.5 -31.5h-50l6 56h23q24 0 33.5 17.5t17.5 74.5l23 171q12 92 86 123q-23 13 -40 41.5t-17 58.5
q0 8 1 12l29 218q2 16 2 22q0 38 -28 38h-30z" />
    <glyph glyph-name="dieresis.case" horiz-adv-x="409" 
d="M114 872q18 0 30 -12.5t12 -30.5q0 -23 -15 -37.5t-37 -14.5q-19 0 -31.5 12.5t-12.5 30.5q0 23 16 37.5t38 14.5zM307 872q18 0 30 -12.5t12 -30.5q0 -23 -15 -37.5t-37 -14.5q-19 0 -31.5 12.5t-12.5 30.5q0 23 16 37.5t38 14.5z" />
    <glyph glyph-name="guillemotleft.case" horiz-adv-x="512" 
d="M280 489l-164 -165l-1 -12l123 -165l-45 -38l-134 195l3 28l182 195zM480 489l-164 -165l-1 -12l123 -165l-45 -38l-134 195l3 28l182 195z" />
    <glyph glyph-name="uni00AD.case" 
 />
    <glyph glyph-name="macron.case" horiz-adv-x="412" 
d="M60 796l8 57h284l-8 -57h-284z" />
    <glyph glyph-name="acute.case" horiz-adv-x="339" 
d="M279 831l-204 -80l-15 47l197 100z" />
    <glyph glyph-name="cedilla.case" horiz-adv-x="318" 
d="M258 -111q0 -42 -33 -71t-78 -29q-65 0 -87 54l59 27q7 -25 33 -25q19 0 30.5 12t11.5 30q0 35 -59 38l10 75h60l-4 -34q26 -9 41.5 -30t15.5 -47z" />
    <glyph glyph-name="guillemotright.case" horiz-adv-x="512" 
d="M414 324l-122 165l44 38l134 -195l-3 -28l-182 -195l-35 38l163 165zM214 324l-122 165l44 38l134 -195l-3 -28l-182 -195l-35 38l163 165z" />
    <glyph glyph-name="circumflex.case" horiz-adv-x="427" 
d="M198 899h49l120 -106l-45 -44l-101 91l-125 -91l-36 50z" />
    <glyph glyph-name="caron.case" horiz-adv-x="427" 
d="M229 749h-49l-120 106l45 44l101 -91l125 91l36 -50z" />
    <glyph glyph-name="breve.case" horiz-adv-x="417" 
d="M295 898h62q-4 -62 -52 -104.5t-108 -42.5q-58 0 -97.5 38t-39.5 94v15h63v-9q0 -34 22.5 -56.5t56.5 -22.5q36 0 63 25t30 63z" />
    <glyph glyph-name="dotaccent.case" horiz-adv-x="216" 
d="M114 872q18 0 30 -12.5t12 -30.5q0 -23 -15 -37.5t-37 -14.5q-19 0 -31.5 12.5t-12.5 30.5q0 23 16 37.5t38 14.5z" />
    <glyph glyph-name="ring.case" horiz-adv-x="332" 
d="M179 928q41 0 67 -27.5t26 -68.5q0 -49 -34 -81.5t-80 -32.5q-42 0 -70 27.5t-28 68.5q0 49 35.5 81.5t83.5 32.5zM173 876q-25 0 -42.5 -16.5t-17.5 -41.5q0 -20 14 -34t35 -14q24 0 41 16.5t17 41.5q0 21 -13 34.5t-34 13.5z" />
    <glyph glyph-name="ogonek.case" horiz-adv-x="309" 
d="M159 0h73q-4 -2 -11.5 -5.5t-26 -16t-32.5 -26.5t-25.5 -34.5t-11.5 -41.5q0 -13 10.5 -21t23.5 -8q28 0 42 26l48 -25q-10 -23 -37 -41t-64 -18t-62.5 20.5t-25.5 60.5q0 35 28.5 70t70.5 60z" />
    <glyph glyph-name="tilde.case" horiz-adv-x="442" 
d="M60 774l2 21q4 38 33.5 63.5t66.5 25.5q24 0 44.5 -9.5t31.5 -21t23 -21t22 -9.5q31 0 34 30l2 21h63l-2 -21q-4 -38 -33 -63.5t-67 -25.5q-24 0 -44.5 9.5t-31.5 21t-23 21t-22 9.5q-31 0 -34 -30l-2 -21h-63z" />
    <glyph glyph-name="hungarumlaut.case" horiz-adv-x="463" 
d="M90 751l-30 38l148 135l42 -53zM231 751l-24 42l163 115l33 -59z" />
    <glyph glyph-name="endash.case" horiz-adv-x="591" 
d="M30 314l6 54h505l-6 -54h-505z" />
    <glyph glyph-name="emdash.case" horiz-adv-x="953" 
d="M30 314l6 54h867l-6 -54h-867z" />
    <glyph glyph-name="guilsinglleft.case" horiz-adv-x="312" 
d="M280 489l-164 -165l-1 -12l123 -165l-45 -38l-134 195l3 28l182 195z" />
    <glyph glyph-name="guilsinglright.case" horiz-adv-x="312" 
d="M214 324l-122 165l44 38l134 -195l-3 -28l-182 -195l-35 38l163 165z" />
    <glyph glyph-name="zero.zero" horiz-adv-x="560" 
d="M239 -8q-39 0 -77 22.5t-62 58.5q-49 77 -49 183q0 175 58 291q75 151 213 151q39 0 77 -22.5t62 -58.5q49 -77 49 -183q0 -175 -58 -291q-75 -151 -213 -151zM250 48q49 0 89.5 35.5t65.5 93.5q46 103 46 244q0 53 -14 103l-292 -409q39 -67 105 -67zM110 269
q0 -55 11 -96l292 407q-39 62 -102 62q-49 0 -89.5 -35.5t-65.5 -93.5q-46 -103 -46 -244z" />
    <glyph glyph-name="a.ss01" horiz-adv-x="578" 
d="M462 224q-21 -147 -21 -154q0 -13 9 -20t20 -7q22 0 35 22l43 -22q-5 -9 -14 -19.5t-28 -21t-41 -10.5q-34 0 -52.5 22.5t-18.5 52.5h-9q-54 -75 -171 -75q-71 0 -119.5 39.5t-48.5 96.5q0 77 52.5 116.5t141.5 58.5l177 37q4 31 4 40q0 32 -25.5 56.5t-90.5 24.5
q-38 0 -67 -9t-43.5 -20.5t-23.5 -27t-11 -24t-2 -16.5h-59q0 3 1 9.5t5.5 21.5t12 30t24 32t37.5 30t55 21.5t76 8.5q51 0 87 -13t53 -35t24 -43t7 -45t-19 -157zM228 48q23 0 58 11t71.5 42t41.5 73l13 113l-154 -29q-153 -28 -153 -124q0 -35 36 -60.5t87 -25.5z" />
    <glyph glyph-name="agrave.ss01" horiz-adv-x="578" 
d="M462 224q-21 -147 -21 -154q0 -13 9 -20t20 -7q22 0 35 22l43 -22q-5 -9 -14 -19.5t-28 -21t-41 -10.5q-34 0 -52.5 22.5t-18.5 52.5h-9q-54 -75 -171 -75q-71 0 -119.5 39.5t-48.5 96.5q0 77 52.5 116.5t141.5 58.5l177 37q4 31 4 40q0 32 -25.5 56.5t-90.5 24.5
q-38 0 -67 -9t-43.5 -20.5t-23.5 -27t-11 -24t-2 -16.5h-59q0 3 1 9.5t5.5 21.5t12 30t24 32t37.5 30t55 21.5t76 8.5q51 0 87 -13t53 -35t24 -43t7 -45t-19 -157zM228 48q23 0 58 11t71.5 42t41.5 73l13 113l-154 -29q-153 -28 -153 -124q0 -35 36 -60.5t87 -25.5zM381 566
l-162 101l46 60l149 -119z" />
    <glyph glyph-name="aacute.ss01" horiz-adv-x="578" 
d="M462 224q-21 -147 -21 -154q0 -13 9 -20t20 -7q22 0 35 22l43 -22q-5 -9 -14 -19.5t-28 -21t-41 -10.5q-34 0 -52.5 22.5t-18.5 52.5h-9q-54 -75 -171 -75q-71 0 -119.5 39.5t-48.5 96.5q0 77 52.5 116.5t141.5 58.5l177 37q4 31 4 40q0 32 -25.5 56.5t-90.5 24.5
q-38 0 -67 -9t-43.5 -20.5t-23.5 -27t-11 -24t-2 -16.5h-59q0 3 1 9.5t5.5 21.5t12 30t24 32t37.5 30t55 21.5t76 8.5q51 0 87 -13t53 -35t24 -43t7 -45t-19 -157zM228 48q23 0 58 11t71.5 42t41.5 73l13 113l-154 -29q-153 -28 -153 -124q0 -35 36 -60.5t87 -25.5zM442 667
l-190 -101l-21 42l179 119z" />
    <glyph glyph-name="acircumflex.ss01" horiz-adv-x="578" 
d="M462 224q-21 -147 -21 -154q0 -13 9 -20t20 -7q22 0 35 22l43 -22q-5 -9 -14 -19.5t-28 -21t-41 -10.5q-34 0 -52.5 22.5t-18.5 52.5h-9q-54 -75 -171 -75q-71 0 -119.5 39.5t-48.5 96.5q0 77 52.5 116.5t141.5 58.5l177 37q4 31 4 40q0 32 -25.5 56.5t-90.5 24.5
q-38 0 -67 -9t-43.5 -20.5t-23.5 -27t-11 -24t-2 -16.5h-59q0 3 1 9.5t5.5 21.5t12 30t24 32t37.5 30t55 21.5t76 8.5q51 0 87 -13t53 -35t24 -43t7 -45t-19 -157zM228 48q23 0 58 11t71.5 42t41.5 73l13 113l-154 -29q-153 -28 -153 -124q0 -35 36 -60.5t87 -25.5zM322 718
h49l106 -108l-42 -42l-91 94l-115 -94l-36 46z" />
    <glyph glyph-name="atilde.ss01" horiz-adv-x="578" 
d="M462 224q-21 -147 -21 -154q0 -13 9 -20t20 -7q22 0 35 22l43 -22q-5 -9 -14 -19.5t-28 -21t-41 -10.5q-34 0 -52.5 22.5t-18.5 52.5h-9q-54 -75 -171 -75q-71 0 -119.5 39.5t-48.5 96.5q0 77 52.5 116.5t141.5 58.5l177 37q4 31 4 40q0 32 -25.5 56.5t-90.5 24.5
q-38 0 -67 -9t-43.5 -20.5t-23.5 -27t-11 -24t-2 -16.5h-59q0 3 1 9.5t5.5 21.5t12 30t24 32t37.5 30t55 21.5t76 8.5q51 0 87 -13t53 -35t24 -43t7 -45t-19 -157zM228 48q23 0 58 11t71.5 42t41.5 73l13 113l-154 -29q-153 -28 -153 -124q0 -35 36 -60.5t87 -25.5zM186 596
l3 19q4 37 33 61.5t65 24.5q29 0 49.5 -14.5t34.5 -29.5t27 -15t23.5 7.5t11.5 21.5l3 19h59l-3 -19q-4 -37 -33 -61.5t-65 -24.5q-29 0 -49.5 14.5t-34.5 29.5t-27 15t-23.5 -7.5t-11.5 -21.5l-3 -19h-59z" />
    <glyph glyph-name="adieresis.ss01" horiz-adv-x="578" 
d="M462 224q-21 -147 -21 -154q0 -13 9 -20t20 -7q22 0 35 22l43 -22q-5 -9 -14 -19.5t-28 -21t-41 -10.5q-34 0 -52.5 22.5t-18.5 52.5h-9q-54 -75 -171 -75q-71 0 -119.5 39.5t-48.5 96.5q0 77 52.5 116.5t141.5 58.5l177 37q4 31 4 40q0 32 -25.5 56.5t-90.5 24.5
q-38 0 -67 -9t-43.5 -20.5t-23.5 -27t-11 -24t-2 -16.5h-59q0 3 1 9.5t5.5 21.5t12 30t24 32t37.5 30t55 21.5t76 8.5q51 0 87 -13t53 -35t24 -43t7 -45t-19 -157zM228 48q23 0 58 11t71.5 42t41.5 73l13 113l-154 -29q-153 -28 -153 -124q0 -35 36 -60.5t87 -25.5zM438 703
q18 0 29 -11.5t11 -29.5q0 -21 -14.5 -35t-34.5 -14q-18 0 -30 12t-12 29q0 21 15 35t36 14zM250 703q18 0 29 -11.5t11 -29.5q0 -21 -14.5 -35t-34.5 -14q-18 0 -30 12t-12 29q0 21 15 35t36 14z" />
    <glyph glyph-name="aring.ss01" horiz-adv-x="578" 
d="M462 224q-21 -147 -21 -154q0 -13 9 -20t20 -7q22 0 35 22l43 -22q-5 -9 -14 -19.5t-28 -21t-41 -10.5q-34 0 -52.5 22.5t-18.5 52.5h-9q-54 -75 -171 -75q-71 0 -119.5 39.5t-48.5 96.5q0 77 52.5 116.5t141.5 58.5l177 37q4 31 4 40q0 32 -25.5 56.5t-90.5 24.5
q-38 0 -67 -9t-43.5 -20.5t-23.5 -27t-11 -24t-2 -16.5h-59q0 3 1 9.5t5.5 21.5t12 30t24 32t37.5 30t55 21.5t76 8.5q51 0 87 -13t53 -35t24 -43t7 -45t-19 -157zM228 48q23 0 58 11t71.5 42t41.5 73l13 113l-154 -29q-153 -28 -153 -124q0 -35 36 -60.5t87 -25.5zM355 760
q40 0 66 -27.5t26 -65.5q0 -48 -33 -80.5t-78 -32.5q-39 0 -67.5 28t-28.5 66q0 49 33.5 80.5t81.5 31.5zM352 708q-25 0 -42 -15.5t-17 -40.5q0 -19 14 -32.5t33 -13.5q24 0 40 16t16 41q0 18 -12.5 31.5t-31.5 13.5z" />
    <glyph glyph-name="amacron.ss01" horiz-adv-x="578" 
d="M462 224q-21 -147 -21 -154q0 -13 9 -20t20 -7q22 0 35 22l43 -22q-5 -9 -14 -19.5t-28 -21t-41 -10.5q-34 0 -52.5 22.5t-18.5 52.5h-9q-54 -75 -171 -75q-71 0 -119.5 39.5t-48.5 96.5q0 77 52.5 116.5t141.5 58.5l177 37q4 31 4 40q0 32 -25.5 56.5t-90.5 24.5
q-38 0 -67 -9t-43.5 -20.5t-23.5 -27t-11 -24t-2 -16.5h-59q0 3 1 9.5t5.5 21.5t12 30t24 32t37.5 30t55 21.5t76 8.5q51 0 87 -13t53 -35t24 -43t7 -45t-19 -157zM228 48q23 0 58 11t71.5 42t41.5 73l13 113l-154 -29q-153 -28 -153 -124q0 -35 36 -60.5t87 -25.5zM206 616
l7 54h268l-7 -54h-268z" />
    <glyph glyph-name="abreve.ss01" horiz-adv-x="578" 
d="M462 224q-21 -147 -21 -154q0 -13 9 -20t20 -7q22 0 35 22l43 -22q-5 -9 -14 -19.5t-28 -21t-41 -10.5q-34 0 -52.5 22.5t-18.5 52.5h-9q-54 -75 -171 -75q-71 0 -119.5 39.5t-48.5 96.5q0 77 52.5 116.5t141.5 58.5l177 37q4 31 4 40q0 32 -25.5 56.5t-90.5 24.5
q-38 0 -67 -9t-43.5 -20.5t-23.5 -27t-11 -24t-2 -16.5h-59q0 3 1 9.5t5.5 21.5t12 30t24 32t37.5 30t55 21.5t76 8.5q51 0 87 -13t53 -35t24 -43t7 -45t-19 -157zM228 48q23 0 58 11t71.5 42t41.5 73l13 113l-154 -29q-153 -28 -153 -124q0 -35 36 -60.5t87 -25.5zM436 713
h59q-4 -59 -49 -99t-101 -40q-55 0 -92 35.5t-37 89.5v14h56v-8q0 -32 21.5 -53.5t54.5 -21.5t59 24.5t29 58.5z" />
    <glyph glyph-name="aogonek.ss01" horiz-adv-x="578" 
d="M228 48q23 0 58 11t71.5 42t41.5 73l13 113l-154 -29q-153 -28 -153 -124q0 -35 36 -60.5t87 -25.5zM505 65l43 -22q-15 -27 -54.5 -55t-68.5 -53.5t-29 -53.5q0 -36 37 -36q31 0 41 25l47 -24q-9 -22 -36.5 -39.5t-64.5 -17.5t-62.5 22t-25.5 63q0 33 30.5 66t71.5 58
q-40 18 -40 69h-9q-54 -75 -171 -75q-71 0 -119.5 39.5t-48.5 96.5q0 77 52.5 116.5t141.5 58.5l177 37q4 31 4 40q0 32 -25.5 56.5t-90.5 24.5q-38 0 -67 -9t-43.5 -20.5t-23.5 -27t-11 -24t-2 -16.5h-59q0 3 1 9.5t5.5 21.5t12 30t24 32t37.5 30t55 21.5t76 8.5
q51 0 87 -13t53 -35t24 -43t7 -45t-19 -157q-21 -147 -21 -154q0 -13 9 -20t20 -7q22 0 35 22z" />
    <glyph glyph-name="aringacute.ss01" horiz-adv-x="578" 
d="M462 224q-21 -147 -21 -154q0 -13 9 -20t20 -7q22 0 35 22l43 -22q-5 -9 -14 -19.5t-28 -21t-41 -10.5q-34 0 -52.5 22.5t-18.5 52.5h-9q-54 -75 -171 -75q-71 0 -119.5 39.5t-48.5 96.5q0 77 52.5 116.5t141.5 58.5l177 37q4 31 4 40q0 32 -25.5 56.5t-90.5 24.5
q-38 0 -67 -9t-43.5 -20.5t-23.5 -27t-11 -24t-2 -16.5h-59q0 3 1 9.5t5.5 21.5t12 30t24 32t37.5 30t55 21.5t76 8.5q51 0 87 -13t53 -35t24 -43t7 -45t-19 -157zM228 48q23 0 58 11t71.5 42t41.5 73l13 113l-154 -29q-153 -28 -153 -124q0 -35 36 -60.5t87 -25.5zM351 749
q40 0 66 -27.5t26 -65.5q0 -48 -33 -80.5t-78 -32.5q-39 0 -67.5 28t-28.5 66q0 49 33.5 80.5t81.5 31.5zM348 697q-25 0 -42 -15.5t-17 -40.5q0 -19 14 -32.5t33 -13.5q24 0 40 16t16 41q0 18 -12.5 31.5t-31.5 13.5zM469 856l-190 -101l-21 42l179 119z" />
    <glyph glyph-name="afii10065.ss01" horiz-adv-x="578" 
d="M462 224q-21 -147 -21 -154q0 -13 9 -20t20 -7q22 0 35 22l43 -22q-5 -9 -14 -19.5t-28 -21t-41 -10.5q-34 0 -52.5 22.5t-18.5 52.5h-9q-54 -75 -171 -75q-71 0 -119.5 39.5t-48.5 96.5q0 77 52.5 116.5t141.5 58.5l177 37q4 31 4 40q0 32 -25.5 56.5t-90.5 24.5
q-38 0 -67 -9t-43.5 -20.5t-23.5 -27t-11 -24t-2 -16.5h-59q0 3 1 9.5t5.5 21.5t12 30t24 32t37.5 30t55 21.5t76 8.5q51 0 87 -13t53 -35t24 -43t7 -45t-19 -157zM228 48q23 0 58 11t71.5 42t41.5 73l13 113l-154 -29q-153 -28 -153 -124q0 -35 36 -60.5t87 -25.5z" />
    <glyph glyph-name="g.ss02" horiz-adv-x="532" 
d="M435 457q33 -41 33 -93q0 -78 -62 -132t-146 -54q-64 0 -101 26q-25 -4 -42.5 -21t-17.5 -47q0 -18 10.5 -25.5t38.5 -12.5q84 -14 158 -21q74 -9 125.5 -42.5t51.5 -95.5q0 -83 -81 -129q-55 -32 -152 -32q-35 0 -68 3.5t-70.5 14.5t-65 28.5t-45.5 47.5t-18 70
q0 94 109 120l1 7q-54 20 -54 62q0 58 71 90l3 25q-26 38 -26 85q0 79 62 132.5t147 53.5q56 0 102 -26l8 5q31 77 104 77q8 0 31 -3l-15 -57q-12 2 -21 2q-33 0 -51 -20t-19 -38zM42 -60q0 -35 24.5 -59t63 -33.5t65 -12.5t51.5 -3q74 0 125 25q53 27 53 79q0 23 -14 40.5
t-36.5 27t-43 15t-40.5 7.5q-99 12 -109 13h-7q-47 0 -89.5 -24t-42.5 -75zM293 463q-60 0 -103.5 -37.5t-43.5 -93.5q0 -43 33.5 -71.5t83.5 -28.5q59 0 102.5 38t43.5 93q0 43 -32 71.5t-84 28.5z" />
    <glyph glyph-name="gcircumflex.ss02" horiz-adv-x="532" 
d="M435 457q33 -41 33 -93q0 -78 -62 -132t-146 -54q-64 0 -101 26q-25 -4 -42.5 -21t-17.5 -47q0 -18 10.5 -25.5t38.5 -12.5q84 -14 158 -21q74 -9 125.5 -42.5t51.5 -95.5q0 -83 -81 -129q-55 -32 -152 -32q-35 0 -68 3.5t-70.5 14.5t-65 28.5t-45.5 47.5t-18 70
q0 94 109 120l1 7q-54 20 -54 62q0 58 71 90l3 25q-26 38 -26 85q0 79 62 132.5t147 53.5q56 0 102 -26l8 5q31 77 104 77q8 0 31 -3l-15 -57q-12 2 -21 2q-33 0 -51 -20t-19 -38zM42 -60q0 -35 24.5 -59t63 -33.5t65 -12.5t51.5 -3q74 0 125 25q53 27 53 79q0 23 -14 40.5
t-36.5 27t-43 15t-40.5 7.5q-99 12 -109 13h-7q-47 0 -89.5 -24t-42.5 -75zM293 463q-60 0 -103.5 -37.5t-43.5 -93.5q0 -43 33.5 -71.5t83.5 -28.5q59 0 102.5 38t43.5 93q0 43 -32 71.5t-84 28.5zM304 718h49l106 -108l-42 -42l-91 94l-115 -94l-36 46z" />
    <glyph glyph-name="gbreve.ss02" horiz-adv-x="532" 
d="M435 457q33 -41 33 -93q0 -78 -62 -132t-146 -54q-64 0 -101 26q-25 -4 -42.5 -21t-17.5 -47q0 -18 10.5 -25.5t38.5 -12.5q84 -14 158 -21q74 -9 125.5 -42.5t51.5 -95.5q0 -83 -81 -129q-55 -32 -152 -32q-35 0 -68 3.5t-70.5 14.5t-65 28.5t-45.5 47.5t-18 70
q0 94 109 120l1 7q-54 20 -54 62q0 58 71 90l3 25q-26 38 -26 85q0 79 62 132.5t147 53.5q56 0 102 -26l8 5q31 77 104 77q8 0 31 -3l-15 -57q-12 2 -21 2q-33 0 -51 -20t-19 -38zM42 -60q0 -35 24.5 -59t63 -33.5t65 -12.5t51.5 -3q74 0 125 25q53 27 53 79q0 23 -14 40.5
t-36.5 27t-43 15t-40.5 7.5q-99 12 -109 13h-7q-47 0 -89.5 -24t-42.5 -75zM293 463q-60 0 -103.5 -37.5t-43.5 -93.5q0 -43 33.5 -71.5t83.5 -28.5q59 0 102.5 38t43.5 93q0 43 -32 71.5t-84 28.5zM400 713h59q-4 -59 -49 -99t-101 -40q-55 0 -92 35.5t-37 89.5v14h56v-8
q0 -32 21.5 -53.5t54.5 -21.5t59 24.5t29 58.5z" />
    <glyph glyph-name="gdotaccent.ss02" horiz-adv-x="532" 
d="M435 457q33 -41 33 -93q0 -78 -62 -132t-146 -54q-64 0 -101 26q-25 -4 -42.5 -21t-17.5 -47q0 -18 10.5 -25.5t38.5 -12.5q84 -14 158 -21q74 -9 125.5 -42.5t51.5 -95.5q0 -83 -81 -129q-55 -32 -152 -32q-35 0 -68 3.5t-70.5 14.5t-65 28.5t-45.5 47.5t-18 70
q0 94 109 120l1 7q-54 20 -54 62q0 58 71 90l3 25q-26 38 -26 85q0 79 62 132.5t147 53.5q56 0 102 -26l8 5q31 77 104 77q8 0 31 -3l-15 -57q-12 2 -21 2q-33 0 -51 -20t-19 -38zM42 -60q0 -35 24.5 -59t63 -33.5t65 -12.5t51.5 -3q74 0 125 25q53 27 53 79q0 23 -14 40.5
t-36.5 27t-43 15t-40.5 7.5q-99 12 -109 13h-7q-47 0 -89.5 -24t-42.5 -75zM293 463q-60 0 -103.5 -37.5t-43.5 -93.5q0 -43 33.5 -71.5t83.5 -28.5q59 0 102.5 38t43.5 93q0 43 -32 71.5t-84 28.5zM313 687q18 0 29 -11.5t11 -29.5q0 -21 -14.5 -35t-34.5 -14q-18 0 -30 12
t-12 29q0 21 15 35t36 14z" />
    <glyph glyph-name="gcommaaccent.ss02" horiz-adv-x="532" 
d="M257 600v8q0 50 80 125l25 -27q-36 -29 -45 -55q40 -7 40 -40q0 -24 -16.5 -39t-40.5 -15q-18 0 -30.5 13t-12.5 30zM435 457q33 -41 33 -93q0 -78 -62 -132t-146 -54q-64 0 -101 26q-25 -4 -42.5 -21t-17.5 -47q0 -18 10.5 -25.5t38.5 -12.5q84 -14 158 -21
q74 -9 125.5 -42.5t51.5 -95.5q0 -83 -81 -129q-55 -32 -152 -32q-35 0 -68 3.5t-70.5 14.5t-65 28.5t-45.5 47.5t-18 70q0 94 109 120l1 7q-54 20 -54 62q0 58 71 90l3 25q-26 38 -26 85q0 79 62 132.5t147 53.5q56 0 102 -26l8 5q31 77 104 77q8 0 31 -3l-15 -57
q-12 2 -21 2q-33 0 -51 -20t-19 -38zM42 -60q0 -35 24.5 -59t63 -33.5t65 -12.5t51.5 -3q74 0 125 25q53 27 53 79q0 23 -14 40.5t-36.5 27t-43 15t-40.5 7.5q-99 12 -109 13h-7q-47 0 -89.5 -24t-42.5 -75zM293 463q-60 0 -103.5 -37.5t-43.5 -93.5q0 -43 33.5 -71.5
t83.5 -28.5q59 0 102.5 38t43.5 93q0 43 -32 71.5t-84 28.5z" />
    <glyph glyph-name="asterisk.ss04" horiz-adv-x="718" 
d="M46 207l234 125l51 15q-8 3 -25.5 8.5t-22.5 7.5l-200 125l34 48l196 -123l39 -36l-4 53l32 248h56l-32 -248l-18 -53q3 2 47 36l230 124l21 -48l-233 -126l-53 -16q24 -9 48 -15l201 -126l-34 -49l-198 124l-37 36l4 -52l-32 -248h-56l32 248l17 51q-14 -11 -46 -35
l-230 -123z" />
    <glyph glyph-name="dollar.ss05" horiz-adv-x="558" 
d="M208 -76l10 79q-69 11 -115 49q-68 56 -68 130v6h61v-6q0 -25 13.5 -50.5t36.5 -39.5q35 -26 80 -33l28 212q-101 14 -134 53q-35 38 -35 93q0 69 63 115q63 43 146 46l10 75h49l-10 -79q59 -10 100 -45q51 -42 51 -111v-17l-59 -1v14q0 47 -35 77q-26 21 -65 28
l-25 -195q114 -15 151 -49q38 -36 38 -92q0 -77 -68 -129q-69 -54 -164 -54l-10 -76h-49zM417 229q-28 23 -115 35l-28 -207q65 3 113 36q51 33 51 85q0 33 -21 51zM167 364q19 -22 95 -34l25 191q-61 -6 -96 -31q-44 -28 -44 -72q0 -34 20 -54z" />
    <glyph glyph-name="sterling.ss06" horiz-adv-x="583" 
d="M455 266h-208q2 -22 2 -35q0 -107 -106 -174v-3h370l-5 -54h-452l5 58q37 24 61 45t47 59t23 80q0 8 -2 24h-97l6 50h90q-8 88 -8 102q0 44 19 78t49 51.5t60 26t59 8.5q46 0 81 -15.5t52 -38.5t25 -43.5t8 -35.5v-4h-61q-1 28 -25.5 54.5t-81.5 26.5q-53 0 -89.5 -30.5
t-36.5 -86.5q0 -18 5 -93h216z" />
    <glyph glyph-name="commaaccent" horiz-adv-x="213" 
d="M159 -91v-8q0 -50 -80 -125l-25 27q36 29 45 55q-40 7 -40 40q0 24 16.5 39t40.5 15q18 0 30.5 -13t12.5 -30z" />
    </font>
</defs>
</svg>
