<?xml version="1.0" standalone="no"?>
<!DOCTYPE svg PUBLIC "-//W3C//DTD SVG 1.1//EN" "http://www.w3.org/Graphics/SVG/1.1/DTD/svg11.dtd" >
<svg xmlns="http://www.w3.org/2000/svg" xmlns:xlink="http://www.w3.org/1999/xlink" version="1.1">
<metadata>
Created by FontForge 20161003 at Wed May 31 14:56:09 2017
 By www-data
Copyright (c) by Kobi Benezri, www.lineto.com, All rights reserved. http://www.kobibenezri.com
</metadata>
<defs>
<font id="LetteraTextProBoldItalic" horiz-adv-x="640" >
  <font-face 
    font-family="LetteraTextProBoldItalic"
    font-weight="700"
    font-style="italic"
    font-stretch="normal"
    units-per-em="1000"
    panose-1="2 11 8 4 2 1 1 2 1 2"
    ascent="727"
    descent="-273"
    x-height="513"
    cap-height="690"
    bbox="-239 -272 1042 1123"
    underline-thickness="40"
    underline-position="-150"
    slope="-6"
    unicode-range="U+000D-FB02"
  />
<missing-glyph horiz-adv-x="557" 
d="M22 0v690h513v-690h-513zM101 79h355v532h-355v-532z" />
    <glyph glyph-name="f_i" unicode="fi" horiz-adv-x="590" 
d="M403 0l68 513h95l-68 -513h-95zM544 713q23 0 37 -15t14 -37q0 -27 -19 -45t-44 -18q-22 0 -37.5 15t-15.5 37q0 27 19.5 45t45.5 18zM40 513h107l9 59q11 71 62 106.5t122 35.5q46 0 99 -21l-43 -79q-40 19 -68 19q-30 0 -52.5 -20t-27.5 -56l-6 -44h145l-10 -77h-146
l-57 -436h-95l57 436h-106z" />
    <glyph glyph-name="f_l" unicode="fl" horiz-adv-x="593" 
d="M405 0l91 696h95l-91 -696h-95zM40 513h107l9 59q11 71 62 106.5t122 35.5q46 0 99 -21l-43 -79q-40 19 -68 19q-30 0 -52.5 -20t-27.5 -56l-6 -44h145l-10 -77h-146l-57 -436h-95l57 436h-106z" />
    <glyph glyph-name=".notdef" horiz-adv-x="557" 
d="M22 0v690h513v-690h-513zM101 79h355v532h-355v-532z" />
    <glyph glyph-name=".null" horiz-adv-x="0" 
 />
    <glyph glyph-name=".null" horiz-adv-x="0" 
 />
    <glyph glyph-name="uni000D" unicode="&#xd;" horiz-adv-x="219" 
 />
    <glyph glyph-name="space" unicode=" " horiz-adv-x="219" 
 />
    <glyph glyph-name="exclam" unicode="!" horiz-adv-x="286" 
d="M124 123q26 0 42 -17t16 -42q0 -31 -21.5 -51.5t-50.5 -20.5q-25 0 -42.5 17t-17.5 42q0 31 22 51.5t52 20.5zM167 192h-68l25 446q2 24 22 42t49 18q25 0 40.5 -15.5t15.5 -37.5v-7z" />
    <glyph glyph-name="quotedbl" unicode="&#x22;" horiz-adv-x="444" 
d="M119 419h-13q-1 9 -10 43.5t-16.5 79.5t-7.5 86q0 27 21.5 48.5t50.5 21.5q26 0 44 -18t18 -42q0 -19 -11.5 -52.5t-23.5 -59t-30.5 -63.5t-21.5 -44zM320 419h-13q-1 9 -10 43.5t-16.5 79.5t-7.5 86q0 27 21.5 48.5t50.5 21.5q26 0 44 -18t18 -42q0 -19 -11.5 -52.5
t-23.5 -59t-30.5 -63.5t-21.5 -44z" />
    <glyph glyph-name="numbersign" unicode="#" 
d="M172 -50h-70l46 173h-143l19 78h143l38 148h-145l20 78h145l45 171h70l-45 -171h127l48 171h70l-45 -171h145l-20 -78h-145l-38 -148h147l-19 -78h-147l-46 -173h-70l46 173h-130zM275 349l-38 -148h130l38 148h-130z" />
    <glyph glyph-name="dollar" unicode="$" horiz-adv-x="581" 
d="M194 -83l10 81q-78 15 -130.5 62.5t-52.5 123.5v8h100v-12q0 -52 44.5 -79.5t100.5 -27.5q50 0 100 26.5t50 73.5q0 18 -7.5 31.5t-17 20.5t-28.5 12t-31 6.5t-37 4t-34 3.5q-194 23 -194 153q0 81 63 126t146 53l10 77h83l-11 -80q68 -14 115 -56.5t47 -107.5v-18l-97 1
v14q0 42 -35 66t-87 24q-44 0 -89 -24.5t-45 -64.5q0 -20 8 -34t18.5 -22t33.5 -13t39.5 -7t48.5 -5q103 -9 152.5 -43t49.5 -112q0 -82 -70.5 -130.5t-160.5 -54.5l-9 -76h-83z" />
    <glyph glyph-name="percent" unicode="%" 
d="M510 690h89l-494 -690h-89zM198 700q53 0 87 -36t34 -89q0 -64 -44 -106t-104 -42q-54 0 -90.5 36t-36.5 89q0 64 45.5 106t108.5 42zM188 625q-28 0 -48.5 -19.5t-20.5 -48.5q0 -23 16 -39t40 -16q28 0 48 19.5t20 48.5q0 23 -15.5 39t-39.5 16zM451 263q53 0 87 -36
t34 -89q0 -64 -44 -106t-104 -42q-54 0 -90.5 36t-36.5 89q0 64 45.5 106t108.5 42zM441 188q-28 0 -48.5 -19.5t-20.5 -48.5q0 -23 16 -39t40 -16q28 0 48 19.5t20 48.5q0 23 -15.5 39t-39.5 16z" />
    <glyph glyph-name="ampersand" unicode="&#x26;" horiz-adv-x="609" 
d="M486 102l69 -102h-113l-29 40q-36 -23 -68 -34t-49.5 -12.5t-48.5 -1.5h-6q-92 0 -151 53t-59 142q0 40 19 78.5t48 65.5t50 43t37 24q-9 13 -19 31.5t-21 54t-11 66.5q0 58 45 103t121 45q63 0 106.5 -37t43.5 -91q0 -111 -140 -194l127 -198q22 23 41 61l82 -36
q-33 -58 -74 -101zM370 108l-140 219q-99 -61 -99 -133q0 -56 29 -88.5t84 -32.5q69 0 126 35zM350 554q0 63 -51 63q-29 0 -48 -21.5t-19 -49.5q0 -24 14 -58t21 -43q3 0 22.5 16t40 43t20.5 50z" />
    <glyph glyph-name="quotesingle" unicode="'" horiz-adv-x="243" 
d="M119 419h-13q-1 9 -10 43.5t-16.5 79.5t-7.5 86q0 27 21.5 48.5t50.5 21.5q26 0 44 -18t18 -42q0 -19 -11.5 -52.5t-23.5 -59t-30.5 -63.5t-21.5 -44z" />
    <glyph glyph-name="parenleft" unicode="(" horiz-adv-x="267" 
d="M260 -165h-91q-103 172 -103 364q0 46 5 81q31 224 215 449h91q-7 -8 -19 -23t-43.5 -62.5t-57.5 -97.5t-51.5 -123t-35.5 -143q-6 -45 -6 -88q0 -92 24 -181t48 -133z" />
    <glyph glyph-name="parenright" unicode=")" horiz-adv-x="280" 
d="M20 729h91q103 -172 103 -364q0 -46 -5 -81q-31 -224 -215 -449h-91q7 8 19 23t43.5 62.5t57.5 97.5t51.5 123t35.5 143q6 45 6 88q0 92 -24 181t-48 133z" />
    <glyph glyph-name="asterisk" unicode="*" horiz-adv-x="539" 
d="M250 498l-85 17l-108 68l55 78l107 -68l51 -65l-19 83l16 135h94l-16 -135l-41 -83l66 66l126 67l35 -78l-125 -67l-88 -18l85 -17l107 -68l-54 -78l-108 68l-51 65l20 -83l-17 -135h-94l17 135l40 83l-66 -66l-125 -67l-36 78l125 67z" />
    <glyph glyph-name="plus" unicode="+" horiz-adv-x="525" 
d="M18 261l9 79h188l22 178h77l-22 -178h188l-9 -79h-188l-22 -179h-77l22 179h-188z" />
    <glyph glyph-name="comma" unicode="," horiz-adv-x="229" 
d="M153 63v-9q0 -46 -38 -101.5t-103 -95.5l-28 37q37 32 54 52.5t30 50.5q-20 2 -33 16.5t-13 35.5q0 32 22 53t53 21q24 0 40 -17.5t16 -42.5z" />
    <glyph glyph-name="hyphen" unicode="-" horiz-adv-x="368" 
d="M39 211l10 79h276l-10 -79h-276z" />
    <glyph glyph-name="period" unicode="." horiz-adv-x="230" 
d="M91 123q26 0 42 -17t16 -42q0 -31 -21.5 -51.5t-50.5 -20.5q-25 0 -42.5 17t-17.5 42q0 31 22 51.5t52 20.5z" />
    <glyph glyph-name="slash" unicode="/" horiz-adv-x="399" 
d="M336 690h105l-374 -690h-105z" />
    <glyph glyph-name="zero" unicode="0" horiz-adv-x="561" 
d="M262 73q74 0 121 78q38 66 38 161q0 84 -30 136q-34 60 -92 60q-75 0 -121 -77q-38 -65 -38 -162q0 -83 30 -136q34 -60 92 -60zM254 -8q-101 0 -162 84q-52 77 -52 190q0 129 64 217q71 106 202 106q101 0 162 -84q52 -77 52 -190q0 -125 -64 -215q-77 -108 -202 -108z
" />
    <glyph glyph-name="one" unicode="1" horiz-adv-x="341" 
d="M206 587h82l-77 -587h-95l57 433q-63 -36 -131 -36l11 79q48 0 97 29.5t56 81.5z" />
    <glyph glyph-name="two" unicode="2" horiz-adv-x="504" 
d="M152 406v-2h-99v2q0 71 59.5 127t158.5 56q89 0 141.5 -46.5t52.5 -119.5q0 -74 -55.5 -129t-130.5 -81q-65 -22 -112.5 -55.5t-52.5 -65.5l-2 -13h322l-10 -79h-429l1 14q7 104 62.5 161t194.5 114q113 46 113 130q0 41 -28 65t-73 24q-53 0 -83 -32t-30 -70z" />
    <glyph glyph-name="three" unicode="3" horiz-adv-x="514" 
d="M208 -106q-90 0 -151 48.5t-63 133.5h99q2 -45 35 -73t88 -28q54 0 96.5 41.5t42.5 93.5t-28 82t-80 30h-77l10 79h68q49 0 88.5 34.5t39.5 84.5q0 43 -30.5 65.5t-79.5 22.5q-44 0 -77.5 -33t-39.5 -78l-91 26q19 72 80.5 119t140.5 47q93 0 146 -44t53 -122
q0 -87 -106 -160q85 -54 85 -146t-75.5 -157.5t-173.5 -65.5z" />
    <glyph glyph-name="four" unicode="4" horiz-adv-x="520" 
d="M-20 96l9 66l376 431h93l-55 -418h95l-11 -79h-95l-25 -192h-95l25 192h-317zM308 175l38 289l-244 -289h206z" />
    <glyph glyph-name="five" unicode="5" horiz-adv-x="523" 
d="M15 87l98 15q3 -57 30.5 -92t82.5 -35q34 0 61 15t43 36.5t27 48t15 47.5t4 37q0 25 -2.5 42.5t-11 39.5t-29.5 33.5t-53 11.5q-44 0 -84 -32t-45 -50h-99l86 374h355l-11 -79h-270l-42 -174q60 42 112 42q55 0 95 -18t60.5 -49t29.5 -64.5t9 -72.5q0 -26 -5.5 -57
t-22.5 -70t-43.5 -69.5t-73.5 -51.5t-107 -21q-52 0 -92.5 17.5t-61.5 41t-34.5 53t-17 49t-3.5 32.5z" />
    <glyph glyph-name="six" unicode="6" horiz-adv-x="554" 
d="M526 531l-87 -32q-20 107 -110 107q-59 0 -107 -61t-70 -158q32 32 74 50.5t73 18.5q96 0 146.5 -58t50.5 -145q0 -112 -72.5 -186.5t-176.5 -74.5q-54 0 -93.5 20.5t-60.5 49.5t-34 70.5t-16 72.5t-3 66q0 178 82.5 297t211.5 119q154 0 192 -156zM296 375
q-64 0 -106 -51.5t-42 -120.5q0 -18 3 -35.5t12 -41.5t30.5 -38.5t52.5 -14.5q62 0 105 55t43 130q0 13 -3 29t-12 38t-30.5 36t-52.5 14z" />
    <glyph glyph-name="seven" unicode="7" horiz-adv-x="442" 
d="M160 -96h-96v3q45 338 305 592h-335l10 79h446l-9 -70q-11 -7 -29 -21.5t-66.5 -68t-88.5 -117t-80.5 -170.5t-56.5 -227z" />
    <glyph glyph-name="eight" unicode="8" horiz-adv-x="530" 
d="M14 177q0 52 43 105t100 77q-82 52 -82 135q0 80 69 136.5t156 56.5q89 0 144 -43.5t55 -116.5q0 -50 -34.5 -96t-88.5 -71q100 -50 100 -154q0 -84 -74 -149t-175 -65q-95 0 -154 50.5t-59 134.5zM115 183q0 -51 34.5 -80.5t89.5 -29.5q53 0 95.5 41.5t42.5 93.5
q0 48 -29.5 80t-80.5 32h-9q-57 0 -100 -42.5t-43 -94.5zM174 498q0 -44 27 -71.5t73 -27.5q52 0 88 35t36 80q0 41 -29 66.5t-74 25.5q-47 0 -84 -31.5t-37 -76.5z" />
    <glyph glyph-name="nine" unicode="9" horiz-adv-x="552" 
d="M27 50l87 32q20 -107 110 -107q59 0 107 61t70 158q-32 -32 -74 -50.5t-73 -18.5q-96 0 -146.5 58t-50.5 145q0 112 72.5 186.5t176.5 74.5q54 0 93.5 -20.5t60.5 -49.5t34 -70.5t16 -72.5t3 -66q0 -178 -82.5 -297t-211.5 -119q-154 0 -192 156zM257 206q64 0 106 51.5
t42 120.5q0 18 -3 35.5t-12 41.5t-30.5 38.5t-52.5 14.5q-62 0 -105 -55t-43 -130q0 -13 3 -29t12 -38t30.5 -36t52.5 -14z" />
    <glyph glyph-name="colon" unicode=":" horiz-adv-x="254" 
d="M91 123q26 0 42 -17t16 -42q0 -31 -21.5 -51.5t-50.5 -20.5q-25 0 -42.5 17t-17.5 42q0 31 22 51.5t52 20.5zM137 492q26 0 42 -17t16 -42q0 -31 -21.5 -51.5t-50.5 -20.5q-25 0 -42.5 17t-17.5 42q0 31 22 51.5t52 20.5z" />
    <glyph glyph-name="semicolon" unicode=";" horiz-adv-x="254" 
d="M143 492q26 0 42 -17t16 -42q0 -31 -21.5 -51.5t-50.5 -20.5q-25 0 -42.5 17t-17.5 42q0 31 22 51.5t52 20.5zM153 63v-9q0 -46 -38 -101.5t-103 -95.5l-28 37q37 32 54 52.5t30 50.5q-20 2 -33 16.5t-13 35.5q0 32 22 53t53 21q24 0 40 -17.5t16 -42.5z" />
    <glyph glyph-name="less" unicode="&#x3c;" horiz-adv-x="531" 
d="M188 276l1 1l223 -246l-70 -64l-284 324l364 324l54 -64l-284 -246z" />
    <glyph glyph-name="equal" unicode="=" horiz-adv-x="496" 
d="M29 314l10 78h414l-10 -78h-414zM11 170l10 78h414l-10 -78h-414z" />
    <glyph glyph-name="greater" unicode="&#x3e;" horiz-adv-x="531" 
d="M340 277l-1 -1l4 29l-224 246l70 64l284 -324l-364 -324l-54 64z" />
    <glyph glyph-name="question" unicode="?" horiz-adv-x="367" 
d="M181 192h-94l14 115q5 39 41 72l2 2l110 98q31 27 31 70q0 75 -76 75q-53 0 -79 -27t-29 -63h-99q7 84 63 127.5t148 43.5q83 0 127.5 -41.5t44.5 -103.5q0 -68 -51 -113l-124 -113q-12 -11 -16 -37zM124 123q26 0 42 -17t16 -42q0 -31 -21.5 -51.5t-50.5 -20.5
q-25 0 -42.5 17t-17.5 42q0 31 22 51.5t52 20.5z" />
    <glyph glyph-name="at" unicode="@" horiz-adv-x="843" 
d="M690 379q0 114 -60 176t-175 62q-119 -1 -213 -95t-94 -224q0 -116 67.5 -196.5t181.5 -80.5q79 0 152 48l56 -63q-105 -65 -212 -65q-147 0 -245.5 99.5t-98.5 246.5q0 117 58 212t153 146.5t205 51.5q144 0 235 -90.5t91 -218.5q0 -102 -53 -180.5t-142 -78.5
q-30 0 -60.5 16.5t-39.5 52.5h-11q-3 -4 -13.5 -16t-14 -15.5t-12.5 -12t-15 -11.5t-16 -7.5t-21 -6t-24 -1.5q-66 0 -102.5 46.5t-36.5 118.5q0 82 56.5 145.5t140.5 64.5q67 0 93 -49h9l12 42h77l-58 -232q-2 -10 -2 -14q0 -17 11.5 -27.5t31.5 -10.5q40 0 64.5 47.5
t24.5 119.5zM387 209q36 0 61.5 34.5t29.5 82.5q1 6 1 16q0 34 -15.5 57t-46.5 23q-39 0 -65 -37.5t-26 -86.5q0 -38 15 -63.5t46 -25.5z" />
    <glyph glyph-name="A" unicode="A" horiz-adv-x="596" 
d="M544 0h-101l-42 196h-246l-94 -196h-100l324 690h116zM329 587l-136 -308h192z" />
    <glyph glyph-name="B" unicode="B" horiz-adv-x="616" 
d="M170 404h208q45 0 77 30t32 72q0 43 -26 72t-80 29h-184zM159 321l-31 -238h237q47 0 73 35t26 84q0 53 -26 86t-77 33h-202zM20 0l91 690h285q79 0 135.5 -51.5t56.5 -124.5q0 -52 -30.5 -90t-81.5 -57v-3q38 -25 63.5 -70.5t25.5 -96.5q0 -83 -55 -140t-133 -57h-357z
" />
    <glyph glyph-name="C" unicode="C" horiz-adv-x="661" 
d="M313 -8q-64 0 -117.5 29t-87.5 78q-66 94 -66 213q0 143 79 253q94 133 256 133q104 0 178 -69q76 -71 82 -181h-101q-6 74 -49 118q-46 48 -119 48q-96 0 -164 -98q-61 -88 -61 -197q0 -95 43 -165q47 -78 129 -78q77 0 134 51q50 44 75 119h100q-22 -111 -110 -184
q-86 -70 -201 -70z" />
    <glyph glyph-name="D" unicode="D" horiz-adv-x="667" 
d="M128 83l165 1q113 0 182 111q51 81 51 178q0 76 -26 134q-45 100 -144 100h-159zM290 1l-270 -1l91 690h256q76 0 132.5 -37.5t88.5 -101.5q39 -77 39 -174q0 -131 -72 -235q-99 -141 -265 -141z" />
    <glyph glyph-name="E" unicode="E" horiz-adv-x="609" 
d="M596 690l-11 -83h-388l-28 -216h348l-11 -83h-348l-30 -225h408l-11 -83h-505l91 690h485z" />
    <glyph glyph-name="F" unicode="F" horiz-adv-x="569" 
d="M596 690l-11 -83h-388l-28 -216h348l-11 -83h-348l-41 -308h-97l91 690h485z" />
    <glyph glyph-name="G" unicode="G" horiz-adv-x="686" 
d="M307 -8q-128 0 -201 103q-65 89 -65 219q0 150 78 256q96 128 252 128q109 0 186.5 -67t77.5 -175h-101q0 69 -46 113.5t-124 44.5q-105 0 -166 -96q-55 -80 -55 -200q0 -102 42 -168q49 -74 130 -74q105 0 166 96q33 47 45 111h-196l12 83h281l-48 -366h-97l9 77
q-85 -85 -180 -85z" />
    <glyph glyph-name="H" unicode="H" horiz-adv-x="671" 
d="M117 0h-97l91 690h97l-38 -286h344l38 286h97l-91 -690h-97l42 321h-344z" />
    <glyph glyph-name="I" unicode="I" horiz-adv-x="230" 
d="M20 0l91 690h97l-91 -690h-97z" />
    <glyph glyph-name="J" unicode="J" horiz-adv-x="513" 
d="M397 690h98l-61 -441q-16 -126 -76.5 -191.5t-176.5 -65.5q-91 0 -138.5 52.5t-53.5 137.5l96 20q9 -74 28 -100t81 -26q124 0 145 173z" />
    <glyph glyph-name="K" unicode="K" horiz-adv-x="604" 
d="M430 0l-200 317h-25l-52 -46l-36 -271h-97l91 690h97l-39 -293l328 293h129l-321 -284l-3 -22l245 -384h-117z" />
    <glyph glyph-name="L" unicode="L" horiz-adv-x="526" 
d="M208 690l-80 -607h357l-11 -83h-454l91 690h97z" />
    <glyph glyph-name="M" unicode="M" horiz-adv-x="779" 
d="M286 27l-96 536l-73 -563h-97l89 690h148l101 -567l245 567h154l-89 -690h-97l72 563l-235 -536h-122z" />
    <glyph glyph-name="N" unicode="N" horiz-adv-x="683" 
d="M564 690h97l-89 -690h-146l-233 587l-76 -587h-97l89 690h146l233 -589z" />
    <glyph glyph-name="O" unicode="O" horiz-adv-x="693" 
d="M320 76q97 0 164 88q66 88 66 208q0 114 -56 184q-46 58 -122 58q-104 0 -171 -97q-59 -85 -59 -199q0 -87 34 -151q47 -91 144 -91zM313 -8q-131 0 -205 103q-67 90 -67 219q0 149 80 256q98 128 258 128q131 0 205 -102q67 -90 67 -219q0 -149 -80 -256
q-98 -129 -258 -129z" />
    <glyph glyph-name="P" unicode="P" horiz-adv-x="620" 
d="M411 273h-258l-36 -273h-97l91 690h323q84 0 133.5 -58.5t49.5 -147.5q0 -86 -63 -148.5t-143 -62.5zM197 607l-33 -251h227q59 0 92 40.5t33 87.5q0 123 -95 123h-224z" />
    <glyph glyph-name="Q" unicode="Q" horiz-adv-x="693" 
d="M313 -8q-131 0 -205 103q-67 90 -67 219q0 149 80 256q98 128 258 128q131 0 205 -102q67 -90 67 -219q0 -149 -80 -256q-42 -55 -94 -86l65 -152l-86 -42l-67 159q-38 -8 -76 -8zM320 76q97 0 164 88q66 88 66 208q0 114 -56 184q-46 58 -122 58q-104 0 -171 -97
q-59 -85 -59 -199q0 -87 34 -151q47 -91 144 -91z" />
    <glyph glyph-name="R" unicode="R" horiz-adv-x="651" 
d="M614 491q0 -69 -45.5 -119.5t-113.5 -69.5l123 -302h-103l-117 288h-203l-38 -288h-97l91 690h317q84 0 135 -53t51 -146zM197 607l-31 -236h212q55 0 95 32.5t40 87.5q0 116 -93 116h-223z" />
    <glyph glyph-name="S" unicode="S" horiz-adv-x="635" 
d="M329 698q110 0 185.5 -61.5t75.5 -143.5h-100q0 50 -48 85.5t-120 35.5q-57 0 -112 -34.5t-55 -84.5q0 -20 8.5 -35.5t19 -24t33 -15.5t37 -9.5t46 -7.5t45.5 -7q33 -5 51 -9t46 -11.5t43.5 -16t34.5 -22.5t28.5 -32t16.5 -43.5t7 -57.5q0 -96 -83 -154t-208 -58
q-34 0 -69.5 7.5t-72 25.5t-65 44.5t-46.5 69t-18 94.5h100q0 -79 51.5 -118t125.5 -39q76 0 130 32t54 95q0 19 -3.5 34t-8 25t-15 18t-19.5 12.5t-27 8.5t-30.5 6t-37 5.5t-41.5 6.5l-16 3q-26 4 -40.5 7t-45.5 11.5t-50 20t-40.5 29t-32 44t-10.5 59.5q0 89 85 147
t191 58z" />
    <glyph glyph-name="T" unicode="T" horiz-adv-x="607" 
d="M631 690l-11 -83h-235l-80 -607h-97l80 607h-233l11 83h565z" />
    <glyph glyph-name="U" unicode="U" horiz-adv-x="668" 
d="M557 690h97l-60 -434q-19 -133 -89.5 -198.5t-212.5 -65.5q-67 0 -116.5 19t-77 52t-40.5 72.5t-13 85.5q0 27 3 46l58 423h97l-53 -401q-5 -30 -5 -52q0 -88 35 -124.5t126 -36.5q92 0 134.5 49.5t58.5 163.5z" />
    <glyph glyph-name="V" unicode="V" horiz-adv-x="596" 
d="M533 690h102l-325 -690h-116l-143 690h102l113 -584z" />
    <glyph glyph-name="W" unicode="W" horiz-adv-x="840" 
d="M498 0l-50 565l-200 -565h-120l-67 690h100l42 -566l188 536h138l48 -536l192 566h100l-251 -690h-120z" />
    <glyph glyph-name="X" unicode="X" horiz-adv-x="636" 
d="M656 690l-267 -326l-4 -22l194 -342h-114l-154 280h-6l-226 -280h-112l280 342l4 22l-183 326h113l143 -264h8l211 264h113z" />
    <glyph glyph-name="Y" unicode="Y" horiz-adv-x="555" 
d="M280 0h-97l44 337l-183 353h112l129 -270h3l201 270h112l-277 -353z" />
    <glyph glyph-name="Z" unicode="Z" horiz-adv-x="619" 
d="M541 0h-572l11 86l511 521h-411l11 83h530l-11 -85l-513 -522h455z" />
    <glyph glyph-name="bracketleft" unicode="[" horiz-adv-x="314" 
d="M356 726l-10 -77h-103l-90 -734h103l-9 -77h-198l109 888h198z" />
    <glyph glyph-name="backslash" unicode="\" horiz-adv-x="399" 
d="M46 690h105l206 -690h-105z" />
    <glyph glyph-name="bracketright" unicode="]" horiz-adv-x="314" 
d="M55 649l10 77h198l-109 -888h-197l8 77h103l90 734h-103z" />
    <glyph glyph-name="asciicircum" unicode="^" horiz-adv-x="494" 
d="M47 425l182 261h96l118 -261h-115l-61 178l-105 -178h-115z" />
    <glyph glyph-name="underscore" unicode="_" horiz-adv-x="486" 
d="M-22 -79l10 79h426l-10 -79h-426z" />
    <glyph glyph-name="grave" unicode="`" horiz-adv-x="310" 
d="M217 566l-173 104l68 85l154 -127z" />
    <glyph glyph-name="a" unicode="a" horiz-adv-x="582" 
d="M251 -8q-102 0 -161 75q-52 66 -52 169q0 115 62 194q74 94 202 94q86 0 141 -70h12l8 59h95l-68 -513h-95l8 57h-6q-32 -33 -64 -49t-82 -16zM266 73q78 0 126 67q40 56 40 136q0 73 -33 116q-33 51 -95 51q-79 0 -126 -66q-40 -56 -40 -137q0 -73 33 -116
q33 -51 95 -51z" />
    <glyph glyph-name="b" unicode="b" horiz-adv-x="581" 
d="M287 -8q-96 0 -147 65h-14l-8 -57h-94l90 690h95l-31 -236h9q32 37 64.5 53.5t85.5 16.5q98 0 155 -75q51 -67 51 -169q0 -110 -60 -192q-75 -96 -196 -96zM277 73q81 0 126 67q40 54 40 136q0 74 -31 116q-36 51 -96 51q-81 0 -127 -66q-40 -54 -40 -137q0 -72 31 -116
q36 -51 97 -51z" />
    <glyph glyph-name="c" unicode="c" horiz-adv-x="563" 
d="M256 -8q-105 0 -165 75q-53 66 -53 169q0 115 65 194q76 94 208 94q91 0 151 -57.5t62 -145.5h-100q-2 55 -34 88.5t-86 33.5q-65 0 -110 -50q-56 -62 -57 -153v-6q0 -74 35 -119q34 -42 93 -42q51 0 91 34t54 88h100q-18 -89 -83.5 -146t-170.5 -57z" />
    <glyph glyph-name="d" unicode="d" horiz-adv-x="584" 
d="M251 -8q-102 0 -161 75q-52 66 -52 169q0 115 62 194q74 94 202 94q86 0 141 -70h12l32 242h95l-92 -696h-95l8 57h-6q-32 -33 -64 -49t-82 -16zM266 73q78 0 126 67q40 56 40 136q0 73 -33 116q-33 51 -95 51q-79 0 -126 -66q-40 -56 -40 -137q0 -73 33 -116
q33 -51 95 -51z" />
    <glyph glyph-name="e" unicode="e" horiz-adv-x="570" 
d="M526 232h-389q6 -159 133 -159q39 0 78.5 29t68.5 82l85 -40q-34 -71 -99 -111.5t-142 -40.5q-100 0 -161.5 65.5t-61.5 178.5q0 121 75 204.5t204 83.5q93 0 153.5 -65t60.5 -165q0 -25 -2 -38zM310 443q-48 0 -96.5 -33t-66.5 -103h285q-6 71 -41.5 103.5t-80.5 32.5z
" />
    <glyph glyph-name="f" unicode="f" horiz-adv-x="398" 
d="M147 513l9 59q11 71 62 106.5t122 35.5q38 0 75.5 -19.5t52.5 -53.5l-80 -42q-20 34 -60 34q-30 0 -52.5 -20t-27.5 -56l-6 -44h145l-10 -77h-146l-57 -436h-95l57 436h-106l10 77h107z" />
    <glyph glyph-name="g" unicode="g" horiz-adv-x="572" 
d="M453 513h95l-68 -518q-11 -83 -78.5 -141.5t-182.5 -58.5q-142 0 -199 129l85 40q25 -50 51.5 -69t67.5 -19q66 0 111 38t51 89l7 52h-9q-31 -31 -62 -47t-76 -16q-100 0 -157 75q-51 67 -51 169q0 114 60 194q73 94 197 94q84 0 138 -70h12zM415 223q10 70 10 90
q0 64 -36 97t-89 33q-78 0 -123 -63q-40 -58 -40 -140q0 -73 32 -120q34 -47 89 -47t101 39t56 111z" />
    <glyph glyph-name="h" unicode="h" horiz-adv-x="559" 
d="M327 443q-59 0 -115 -63t-67 -164l-26 -216h-95l91 696h95l-33 -255h4q80 83 178 83q62 0 105.5 -38.5t43.5 -93.5q0 -8 -1 -16l-50 -376h-95l46 347q1 6 1 13q0 30 -21 56.5t-61 26.5z" />
    <glyph glyph-name="i" unicode="i" horiz-adv-x="209" 
d="M22 0l68 513h95l-68 -513h-95zM163 713q23 0 37 -15t14 -37q0 -27 -19 -45t-44 -18q-22 0 -37.5 15t-15.5 37q0 27 19.5 45t45.5 18z" />
    <glyph glyph-name="j" unicode="j" horiz-adv-x="209" 
d="M112 -43q-9 -68 -64 -115t-149 -47h-13l10 81h11q46 0 76 29.5t36 70.5l71 537h95zM163 713q23 0 37 -15t14 -37q0 -27 -19 -45t-44 -18q-22 0 -37.5 15t-15.5 37q0 27 19.5 45t45.5 18z" />
    <glyph glyph-name="k" unicode="k" horiz-adv-x="526" 
d="M119 0h-95l91 696h95l-48 -364l213 181h136l-215 -174l-1 -9l189 -330h-105l-160 274l-72 -57z" />
    <glyph glyph-name="l" unicode="l" horiz-adv-x="212" 
d="M24 0l91 696h95l-91 -696h-95z" />
    <glyph glyph-name="m" unicode="m" horiz-adv-x="889" 
d="M113 0h-95l68 513h95l-10 -72h7q78 83 174 83q115 0 141 -83h12q81 83 181 83q51 0 84 -13.5t46.5 -37t17.5 -41t4 -40.5q0 -3 -0.5 -9.5t-0.5 -7.5l-50 -375h-95l46 345q0 1 0.5 6t0.5 9q0 18 -4 34t-23.5 32.5t-52.5 16.5q-57 0 -112.5 -61t-67.5 -159l-29 -223h-95
l46 345q0 1 0.5 6t0.5 9q0 18 -4 34t-23.5 32.5t-52.5 16.5q-58 0 -113.5 -64t-67.5 -167z" />
    <glyph glyph-name="n" unicode="n" horiz-adv-x="557" 
d="M325 443q-59 0 -115 -63t-67 -164l-26 -216h-95l68 513h95l-10 -72h4q80 83 178 83q62 0 105.5 -38.5t43.5 -93.5q0 -8 -1 -16l-50 -376h-95l46 347q1 6 1 13q0 30 -21 56.5t-61 26.5z" />
    <glyph glyph-name="o" unicode="o" horiz-adv-x="578" 
d="M269 73q65 0 115 53q57 62 57 150q0 74 -32 120q-34 47 -100 47q-76 0 -126 -62q-46 -58 -46 -141q0 -76 33 -122q34 -45 99 -45zM261 -8q-107 0 -169 75q-54 65 -54 169q0 115 66 194q78 94 213 94q107 0 169 -75q54 -65 54 -169q0 -113 -66 -192q-82 -96 -213 -96z" />
    <glyph glyph-name="p" unicode="p" horiz-adv-x="582" 
d="M288 -8q-96 0 -147 65h-14l-32 -244h-94l91 700h95l-8 -59h9q32 37 64.5 53.5t85.5 16.5q98 0 155 -75q51 -67 51 -169q0 -110 -60 -192q-75 -96 -196 -96zM278 73q81 0 126 67q40 54 40 136q0 74 -31 116q-36 51 -96 51q-81 0 -127 -66q-40 -54 -40 -137q0 -72 31 -116
q36 -51 97 -51z" />
    <glyph glyph-name="q" unicode="q" horiz-adv-x="583" 
d="M251 -8q-102 0 -161 75q-52 66 -52 169q0 115 62 194q74 94 202 94q86 0 141 -70h12l7 58h95l-92 -699h-95l33 244h-6q-32 -33 -64 -49t-82 -16zM266 73q78 0 126 67q40 56 40 136q0 73 -33 116q-33 51 -95 51q-79 0 -126 -66q-40 -56 -40 -137q0 -73 33 -116
q33 -51 95 -51z" />
    <glyph glyph-name="r" unicode="r" horiz-adv-x="388" 
d="M349 433q-67 0 -129.5 -62t-75.5 -163l-27 -208h-95l68 513h95l-11 -82h14q78 85 174 85q9 0 23 -2l-10 -84q-12 3 -26 3z" />
    <glyph glyph-name="s" unicode="s" horiz-adv-x="532" 
d="M243 224q-33 4 -62.5 12.5t-57 24.5t-44 43t-16.5 62q0 77 70 117.5t154 40.5q76 0 138.5 -39.5t62.5 -108.5v-16h-99v11q0 35 -31.5 53.5t-78.5 18.5q-38 0 -77.5 -19.5t-39.5 -51.5q0 -20 9 -33.5t28.5 -20.5t39 -10.5t51.5 -6.5q191 -15 191 -142q0 -53 -37 -92.5
t-87 -57t-103 -17.5q-88 0 -156 45t-68 127v7h99v-7q0 -44 37.5 -67.5t86.5 -23.5q43 0 85.5 21.5t42.5 63.5q0 15 -6.5 26.5t-15.5 17.5t-25.5 10.5t-28 5.5t-32.5 3t-30 3z" />
    <glyph glyph-name="t" unicode="t" horiz-adv-x="398" 
d="M87 119l42 317h-97l10 77h97l17 133h95l-17 -133h134l-10 -77h-134l-41 -311q-1 -6 -1 -16q0 -20 9.5 -28t30.5 -8q33 0 56 41l82 -41q-45 -81 -143 -81q-55 0 -93 32t-38 80q0 10 1 15z" />
    <glyph glyph-name="u" unicode="u" horiz-adv-x="530" 
d="M203 70q59 0 114.5 63t67.5 164l26 216h95l-68 -513h-95l10 72h-4q-80 -83 -178 -83q-62 0 -105.5 38.5t-43.5 93.5q0 8 1 16l50 376h95l-46 -347q-1 -6 -1 -13q0 -30 21 -56.5t61 -26.5z" />
    <glyph glyph-name="v" unicode="v" horiz-adv-x="514" 
d="M415 513h104l-256 -513h-112l-122 513h97l92 -427z" />
    <glyph glyph-name="w" unicode="w" horiz-adv-x="752" 
d="M374 386l-165 -386h-119l-62 513h96l35 -428l179 424h104l63 -424l146 428h101l-196 -513h-119z" />
    <glyph glyph-name="x" unicode="x" horiz-adv-x="491" 
d="M326 0l-103 187l-140 -187h-115l212 262l1 9l-140 242h106l96 -175l132 175h116l-204 -242l-1 -9l145 -262h-105z" />
    <glyph glyph-name="y" unicode="y" horiz-adv-x="496" 
d="M5 -205q-31 0 -55 8l30 78q20 -5 35 -5q34 0 60 18t37 40l48 98l-135 481h98l93 -370l181 370h104l-322 -620q-53 -98 -174 -98z" />
    <glyph glyph-name="z" unicode="z" horiz-adv-x="493" 
d="M432 0h-432l9 71l332 365h-272l10 77h396l-9 -70l-333 -366h309z" />
    <glyph glyph-name="braceleft" unicode="{" horiz-adv-x="280" 
d="M210 -81l-10 -80h-54q-40 0 -59 28t-19 69q0 9 2 25l25 193q1 4 1 11q0 52 -64 79l11 85q37 11 58.5 30t26.5 62l23 180q16 125 111 125h50l-10 -81h-14q-24 0 -31.5 -16.5t-15.5 -75.5l-19 -146q-13 -94 -81 -122q53 -30 53 -92q0 -7 -2 -21l-25 -193q-2 -14 -2 -25
q0 -35 26 -35h19z" />
    <glyph glyph-name="bar" unicode="|" horiz-adv-x="306" 
d="M47 -102l109 888h96l-109 -888h-96z" />
    <glyph glyph-name="braceright" unicode="}" horiz-adv-x="280" 
d="M70 645l10 80h54q40 0 59 -28t19 -69q0 -9 -2 -25l-25 -193q-1 -4 -1 -11q0 -52 64 -79l-11 -85q-37 -11 -58.5 -30t-26.5 -62l-23 -180q-16 -125 -111 -125h-50l10 81h14q24 0 31.5 16.5t15.5 75.5l19 146q13 94 81 122q-53 30 -53 92q0 7 2 21l25 193q2 14 2 25
q0 35 -26 35h-19z" />
    <glyph glyph-name="asciitilde" unicode="~" horiz-adv-x="523" 
d="M75 203l-51 48q96 93 163 93q34 0 60.5 -15t45.5 -29.5t36 -14.5q40 0 101 62l51 -48q-96 -93 -162 -93q-34 0 -60.5 15t-46 29.5t-36.5 14.5q-40 0 -101 -62z" />
    <glyph glyph-name="uni00A0" unicode="&#xa0;" horiz-adv-x="219" 
 />
    <glyph glyph-name="exclamdown" unicode="&#xa1;" horiz-adv-x="286" 
d="M146 367q-26 0 -42 17t-16 42q0 31 21.5 51.5t50.5 20.5q25 0 42.5 -17t17.5 -42q0 -31 -22 -51.5t-52 -20.5zM103 298h68l-25 -446q-2 -24 -22 -42t-49 -18q-25 0 -40.5 15.5t-15.5 37.5v7z" />
    <glyph glyph-name="cent" unicode="&#xa2;" horiz-adv-x="576" 
d="M208 0l8 71q-63 13 -103 61q-48 58 -48 145q0 101 58 169t149 79l8 64h83l-8 -67q63 -14 105 -61.5t43 -111.5h-99q-3 71 -59 94l-36 -293q64 26 86 102h96q-13 -75 -62.5 -124t-129.5 -59l-8 -69h-83zM193 178q15 -18 33 -27l36 293q-29 -12 -50 -34q-47 -52 -48 -129
v-5q0 -59 29 -98z" />
    <glyph glyph-name="sterling" unicode="&#xa3;" horiz-adv-x="556" 
d="M404 256h-184q0 -3 0.5 -8.5t0.5 -8.5q0 -79 -59 -128q20 6 34 6q27 0 66 -17.5t67 -17.5q58 0 65 64h97q-8 -63 -47.5 -104.5t-98.5 -41.5q-36 0 -92.5 22t-93.5 22q-24 0 -46.5 -6t-37 -13.5t-42.5 -23.5l-5 -2l-33 47q61 38 95.5 80.5t34.5 111.5q0 3 -0.5 9t-0.5 9
h-102l9 74h90q-6 56 -8 89v7q0 68 59 115.5t140 47.5q49 0 85.5 -17t54.5 -43t26.5 -48.5t8.5 -40.5v-6h-99q0 4 -1 10t-5.5 18t-12.5 21t-25 16.5t-40 7.5q-37 0 -66 -26.5t-29 -71.5v-7q1 -26 6 -72h198z" />
    <glyph glyph-name="currency" unicode="&#xa4;" horiz-adv-x="540" 
d="M277 386q-44 0 -76 -30t-32 -75q0 -37 25.5 -62t62.5 -25q43 0 74.5 30t31.5 75q0 37 -24 62t-62 25zM289 481q58 0 104 -33l66 59l48 -55l-69 -59q20 -38 20 -84q0 -70 -42 -127l49 -54l-62 -55l-47 56q-49 -29 -107 -29q-53 0 -109 33l-68 -60l-48 55l71 61
q-21 43 -21 83q0 68 40 122l-51 59l62 55l49 -59q54 32 115 32z" />
    <glyph glyph-name="yen" unicode="&#xa5;" horiz-adv-x="579" 
d="M302 0h-94l13 111h-128l9 74h128l8 65h-128l9 74h84l-134 254h107l118 -254l180 254h107l-197 -254h85l-9 -74h-128l-8 -65h128l-9 -74h-128z" />
    <glyph glyph-name="brokenbar" unicode="&#xa6;" horiz-adv-x="306" 
d="M252 786l-42 -339h-96l42 339h96zM185 237l-42 -339h-96l42 339h96z" />
    <glyph glyph-name="section" unicode="&#xa7;" horiz-adv-x="502" 
d="M142 341q0 -12 8.5 -26t16.5 -22.5t10 -9.5l116 -99h8q57 23 57 70q0 12 -8.5 26t-16 22.5t-9.5 9.5l-116 99h-8q-58 -24 -58 -70zM223 541v-6q0 -19 34 -48l145 -129q48 -43 48 -110q0 -79 -108 -127l4 -5q26 -35 26 -60q0 -45 -43 -78t-112 -33q-62 0 -107 31t-45 80
h95q0 -12 13.5 -22.5t42.5 -10.5q31 0 45.5 10t14.5 23v6q0 19 -34 48l-145 129q-48 43 -48 110q0 79 108 127l-3 4q-27 35 -27 61q0 45 43 78t112 33q62 0 107 -31t45 -80h-95q0 12 -13.5 22.5t-42.5 10.5q-31 0 -45.5 -10t-14.5 -23z" />
    <glyph glyph-name="dieresis" unicode="&#xa8;" horiz-adv-x="392" 
d="M109 713q23 0 37 -15t14 -37q0 -27 -19 -45t-44 -18q-22 0 -37.5 15t-15.5 37q0 27 19.5 45t45.5 18zM297 713q23 0 37 -15t14 -37q0 -27 -19 -45t-44 -18q-22 0 -37.5 15t-15.5 37q0 27 19.5 45t45.5 18z" />
    <glyph glyph-name="copyright" unicode="&#xa9;" horiz-adv-x="531" 
d="M334 308l58 -17q-28 -89 -115 -89q-54 0 -90.5 40t-36.5 103t37 103t90 40q42 0 72 -24t43 -66l-58 -17q-13 45 -58 45q-27 0 -45.5 -22.5t-18.5 -58.5q0 -37 18 -59t46 -22q46 0 58 44zM99 344q0 -74 52.5 -126t125.5 -52q74 0 126.5 52.5t52.5 125.5q0 74 -53 126.5
t-126 52.5t-125.5 -52.5t-52.5 -126.5zM38 344q0 99 70 169.5t169 70.5t169.5 -70.5t70.5 -169.5t-70.5 -169t-169.5 -70t-169 70t-70 169z" />
    <glyph glyph-name="ordfeminine" unicode="&#xaa;" horiz-adv-x="350" 
d="M156 410q-54 0 -86 41q-27 37 -27 91q0 62 33 105q41 51 106 51q52 0 89 -48h2l5 42h62l-35 -277h-63l5 41h-3q-39 -46 -88 -46zM166 474q38 0 60 29q18 25 18 62q0 31 -15 52q-16 23 -44 23q-37 0 -59 -29q-18 -26 -18 -62q0 -34 15 -53q15 -22 43 -22z" />
    <glyph glyph-name="guillemotleft" unicode="&#xab;" horiz-adv-x="547" 
d="M308 441l-160 -163l120 -163l-63 -53l-146 212l1 8l198 212zM518 441l-160 -163l120 -163l-63 -53l-146 212l1 8l198 212z" />
    <glyph glyph-name="logicalnot" unicode="&#xac;" horiz-adv-x="484" 
d="M18 261l9 79h406l-25 -206h-77l16 127h-329z" />
    <glyph glyph-name="uni00AD" unicode="&#xad;" horiz-adv-x="368" 
d="M39 211l10 79h276l-10 -79h-276z" />
    <glyph glyph-name="registered" unicode="&#xae;" horiz-adv-x="531" 
d="M388 398q0 -51 -51 -75l53 -100h-66l-45 84h-29v-84h-61v253h119q31 0 55.5 -22.5t24.5 -55.5zM250 424v-62h45q13 0 22 8.5t9 20.5q0 14 -9 23.5t-22 9.5h-45zM38 344q0 99 70 169.5t169 70.5t169.5 -70.5t70.5 -169.5t-70.5 -169t-169.5 -70t-169 70t-70 169zM99 344
q0 -74 52.5 -126t125.5 -52q74 0 126.5 52.5t52.5 125.5q0 74 -53 126.5t-126 52.5t-125.5 -52.5t-52.5 -126.5z" />
    <glyph glyph-name="macron" unicode="&#xaf;" horiz-adv-x="386" 
d="M44 617l10 77h288l-10 -77h-288z" />
    <glyph glyph-name="degree" unicode="&#xb0;" horiz-adv-x="303" 
d="M30 586q0 52 35 87t87 35q51 0 86 -35t35 -87q0 -51 -35 -86t-86 -35q-52 0 -87 35t-35 86zM94 586q0 -24 17 -40.5t41 -16.5t40.5 17t16.5 40q0 24 -16.5 41t-40.5 17q-25 0 -41.5 -17t-16.5 -41z" />
    <glyph glyph-name="plusminus" unicode="&#xb1;" horiz-adv-x="500" 
d="M26 278l9 78h176l21 166h77l-21 -166h175l-9 -78h-175l-21 -168h-77l21 168h-176zM-9 -17l10 78h426l-10 -78h-426z" />
    <glyph glyph-name="twosuperior" unicode="&#xb2;" horiz-adv-x="277" 
d="M109 470h132l-7 -62h-211l4 37q4 30 30 55t55 38.5t53 30.5t24 33v3q0 13 -9.5 22t-22.5 9q-20 0 -32.5 -13t-12.5 -34h-64q0 45 34 76.5t81 31.5q38 0 65 -23t27 -60q0 -9 -1 -13q-4 -37 -36 -63t-67.5 -42.5t-41.5 -25.5z" />
    <glyph glyph-name="threesuperior" unicode="&#xb3;" horiz-adv-x="280" 
d="M31 490h69v-4q0 -12 9.5 -20t23.5 -8q15 0 29 10t14 26q0 13 -10 22t-25 9h-23l6 53h23q12 0 24 8t12 21q0 10 -8 17t-21 7t-23 -8t-11 -18h-67q4 34 36.5 60t71.5 26q38 0 63.5 -23t25.5 -55q0 -13 -10.5 -30.5t-32.5 -28.5q37 -17 37 -59q0 -39 -37.5 -69t-81.5 -30
q-40 0 -67.5 24t-27.5 59q0 6 1 11z" />
    <glyph glyph-name="acute" unicode="&#xb4;" horiz-adv-x="320" 
d="M276 670l-201 -104l-31 62l186 127z" />
    <glyph glyph-name="mu" unicode="&#xb5;" horiz-adv-x="534" 
d="M510 513l-62 -513h-95l7 58q-51 -66 -121 -66q-83 0 -114 59l-29 -238h-95l85 700h95l-33 -274q-3 -21 -3 -38q0 -69 32 -98.5t72 -29.5q44 0 83 40t50 131l33 269h95z" />
    <glyph glyph-name="paragraph" unicode="&#xb6;" horiz-adv-x="563" 
d="M583 612h-74l-92 -745h-95l92 745h-86l-92 -745h-95l53 438q-70 0 -113 50.5t-43 130.5q0 78 61 141t132 63h361z" />
    <glyph glyph-name="periodcentered" unicode="&#xb7;" horiz-adv-x="236" 
d="M125 402q26 0 42 -17t16 -42q0 -31 -21.5 -51.5t-50.5 -20.5q-25 0 -42.5 17t-17.5 42q0 31 22 51.5t52 20.5z" />
    <glyph glyph-name="cedilla" unicode="&#xb8;" horiz-adv-x="304" 
d="M179 -110q0 24 -48 26l10 84h86l-5 -46q38 -25 38 -67q0 -40 -36.5 -70t-82.5 -30q-40 0 -66 18t-31 36l77 35q7 -15 30 -15q11 0 19.5 8t8.5 21z" />
    <glyph glyph-name="onesuperior" unicode="&#xb9;" horiz-adv-x="197" 
d="M24 584l8 64q25 0 47.5 11.5t24.5 30.5h65l-34 -283h-67l24 201q-24 -24 -68 -24z" />
    <glyph glyph-name="ordmasculine" unicode="&#xba;" horiz-adv-x="298" 
d="M182 698q49 0 74.5 -35t25.5 -85q0 -42 -10.5 -78.5t-43 -66t-82.5 -29.5q-47 0 -71 37.5t-24 88.5q0 64 31.5 116t99.5 52zM176 637q-30 0 -45 -33.5t-15 -72.5q0 -66 39 -66q31 0 46.5 34t15.5 73q0 65 -41 65z" />
    <glyph glyph-name="guillemotright" unicode="&#xbb;" horiz-adv-x="547" 
d="M409 278l-120 163l62 53l146 -212l-1 -8l-198 -212l-49 53zM199 278l-120 163l62 53l146 -212l-1 -8l-198 -212l-49 53z" />
    <glyph glyph-name="onequarter" unicode="&#xbc;" 
d="M509 690h89l-494 -690h-89zM475 0h-67l7 64h-138l6 45l167 181h60l-21 -169h43l-7 -57h-43zM362 121h60l10 75zM106 584l8 64q25 0 47.5 11.5t24.5 30.5h65l-35 -283h-67l25 201q-24 -24 -68 -24z" />
    <glyph glyph-name="onehalf" unicode="&#xbd;" 
d="M509 690h89l-494 -690h-89zM106 584l8 64q25 0 47.5 11.5t24.5 30.5h65l-35 -283h-67l25 201q-24 -24 -68 -24zM403 63h132l-7 -62h-211l4 37q4 30 30 55t55 38.5t53 30.5t24 33v3q0 13 -9.5 22t-22.5 9q-20 0 -32.5 -13t-12.5 -34h-64q0 45 34 76.5t81 31.5q38 0 65 -23
t27 -60q0 -9 -1 -13q-4 -37 -36 -63t-67.5 -42.5t-41.5 -25.5z" />
    <glyph glyph-name="threequarters" unicode="&#xbe;" 
d="M475 0h-67l7 64h-138l6 45l167 181h60l-21 -169h43l-7 -57h-43zM362 121h60l10 75zM509 690h89l-494 -690h-89zM66 497h69v-4q0 -12 9.5 -20t23.5 -8q15 0 29 10t14 26q0 13 -10 22t-25 9h-23l6 53h23q12 0 24 8t12 21q0 10 -8 17t-21 7t-23 -8t-11 -18h-67q4 34 36.5 60
t71.5 26q38 0 63.5 -23t25.5 -55q0 -13 -10.5 -30.5t-32.5 -28.5q37 -17 37 -59q0 -39 -37.5 -69t-81.5 -30q-40 0 -67.5 24t-27.5 59q0 6 1 11z" />
    <glyph glyph-name="questiondown" unicode="&#xbf;" horiz-adv-x="430" 
d="M204 294h94l-14 -115q-5 -39 -41 -72l-2 -2l-110 -98q-31 -27 -31 -70q0 -75 76 -75q53 0 79 27t29 63h99q-7 -84 -63 -127.5t-148 -43.5q-83 0 -127.5 41.5t-44.5 103.5q0 68 51 113l124 113q12 11 16 37zM261 363q-26 0 -42 17t-16 42q0 31 21.5 51.5t50.5 20.5
q25 0 42.5 -17t17.5 -42q0 -31 -22 -51.5t-52 -20.5z" />
    <glyph glyph-name="Agrave" unicode="&#xc0;" horiz-adv-x="596" 
d="M544 0h-101l-42 196h-246l-94 -196h-100l324 690h116zM329 587l-136 -308h192zM407 744l-195 77l56 95l179 -103z" />
    <glyph glyph-name="Aacute" unicode="&#xc1;" horiz-adv-x="596" 
d="M544 0h-101l-42 196h-246l-94 -196h-100l324 690h116zM329 587l-136 -308h192zM505 821l-215 -77l-22 69l205 103z" />
    <glyph glyph-name="Acircumflex" unicode="&#xc2;" horiz-adv-x="596" 
d="M544 0h-101l-42 196h-246l-94 -196h-100l324 690h116zM329 587l-136 -308h192zM321 927h81l133 -116l-60 -60l-116 100l-142 -100l-50 67z" />
    <glyph glyph-name="Atilde" unicode="&#xc3;" horiz-adv-x="596" 
d="M544 0h-101l-42 196h-246l-94 -196h-100l324 690h116zM329 587l-136 -308h192zM309 910q31 0 53 -16t36.5 -31.5t27.5 -15.5q17 0 21 18l4 34h85l-4 -34q-6 -42 -39.5 -70.5t-75.5 -28.5q-31 0 -53.5 16t-37 31.5t-27.5 15.5q-18 0 -20 -18l-5 -34h-85l5 34q5 42 39 70.5
t76 28.5z" />
    <glyph glyph-name="Adieresis" unicode="&#xc4;" horiz-adv-x="596" 
d="M544 0h-101l-42 196h-246l-94 -196h-100l324 690h116zM329 587l-136 -308h192zM462 899q23 0 38 -15.5t15 -38.5q0 -29 -19 -47.5t-47 -18.5q-23 0 -39 15.5t-16 38.5q0 29 20 47.5t48 18.5zM270 899q23 0 38 -15.5t15 -38.5q0 -29 -19 -47.5t-47 -18.5q-23 0 -39 15.5
t-16 38.5q0 29 20 47.5t48 18.5z" />
    <glyph glyph-name="Aring" unicode="&#xc5;" horiz-adv-x="596" 
d="M544 0h-101l-42 196h-246l-94 -196h-100l324 690h116zM329 587l-136 -308h192zM376 955q46 0 75 -30.5t29 -76.5q0 -55 -38 -91.5t-90 -36.5q-46 0 -77.5 31t-31.5 76q0 55 39.5 91.5t93.5 36.5zM367 883q-21 0 -36 -14.5t-15 -35.5q0 -17 12 -28.5t29 -11.5
q21 0 35.5 14.5t14.5 35.5q0 17 -11.5 28.5t-28.5 11.5z" />
    <glyph glyph-name="AE" unicode="&#xc6;" horiz-adv-x="972" 
d="M415 0l26 196h-239l-134 -196h-107l467 690h531l-10 -83h-356l-29 -216h316l-11 -83h-316l-30 -225h376l-11 -83h-473zM473 607l-216 -328h195l44 328h-23z" />
    <glyph glyph-name="Ccedilla" unicode="&#xc7;" horiz-adv-x="661" 
d="M406 -110q0 -42 -36 -72.5t-86 -30.5q-42 0 -69.5 18.5t-31.5 37.5l79 35q7 -17 30 -17q12 0 20 8t8 21q0 23 -51 23l10 81q-108 13 -171 105q-66 94 -66 213q0 143 79 253q94 133 256 133q104 0 178 -69q76 -71 82 -181h-101q-6 74 -49 118q-46 48 -119 48
q-96 0 -164 -98q-61 -88 -61 -197q0 -95 43 -165q47 -78 129 -78q77 0 134 51q50 44 75 119h100q-22 -111 -110 -184q-64 -51 -142 -64l-4 -36q38 -24 38 -72z" />
    <glyph glyph-name="Egrave" unicode="&#xc8;" horiz-adv-x="609" 
d="M596 690l-11 -83h-388l-28 -216h348l-11 -83h-348l-30 -225h408l-11 -83h-505l91 690h485zM427 744l-195 77l56 95l179 -103z" />
    <glyph glyph-name="Eacute" unicode="&#xc9;" horiz-adv-x="609" 
d="M596 690l-11 -83h-388l-28 -216h348l-11 -83h-348l-30 -225h408l-11 -83h-505l91 690h485zM537 821l-215 -77l-22 69l205 103z" />
    <glyph glyph-name="Ecircumflex" unicode="&#xca;" horiz-adv-x="609" 
d="M596 690l-11 -83h-388l-28 -216h348l-11 -83h-348l-30 -225h408l-11 -83h-505l91 690h485zM334 927h81l133 -116l-60 -60l-116 100l-142 -100l-50 67z" />
    <glyph glyph-name="Edieresis" unicode="&#xcb;" horiz-adv-x="609" 
d="M596 690l-11 -83h-388l-28 -216h348l-11 -83h-348l-30 -225h408l-11 -83h-505l91 690h485zM471 899q23 0 38 -15.5t15 -38.5q0 -29 -19 -47.5t-47 -18.5q-23 0 -39 15.5t-16 38.5q0 29 20 47.5t48 18.5zM279 899q23 0 38 -15.5t15 -38.5q0 -29 -19 -47.5t-47 -18.5
q-23 0 -39 15.5t-16 38.5q0 29 20 47.5t48 18.5z" />
    <glyph glyph-name="Igrave" unicode="&#xcc;" horiz-adv-x="230" 
d="M20 0l91 690h97l-91 -690h-97zM199 744l-195 77l56 95l179 -103z" />
    <glyph glyph-name="Iacute" unicode="&#xcd;" horiz-adv-x="230" 
d="M20 0l91 690h97l-91 -690h-97zM348 821l-215 -77l-22 69l205 103z" />
    <glyph glyph-name="Icircumflex" unicode="&#xce;" horiz-adv-x="230" 
d="M20 0l91 690h97l-91 -690h-97zM142 927h81l133 -116l-60 -60l-116 100l-142 -100l-50 67z" />
    <glyph glyph-name="Idieresis" unicode="&#xcf;" horiz-adv-x="230" 
d="M20 0l91 690h97l-91 -690h-97zM282 899q23 0 38 -15.5t15 -38.5q0 -29 -19 -47.5t-47 -18.5q-23 0 -39 15.5t-16 38.5q0 29 20 47.5t48 18.5zM90 899q23 0 38 -15.5t15 -38.5q0 -29 -19 -47.5t-47 -18.5q-23 0 -39 15.5t-16 38.5q0 29 20 47.5t48 18.5z" />
    <glyph glyph-name="Eth" unicode="&#xd0;" horiz-adv-x="667" 
d="M290 1l-270 -1l40 304h-55l11 83h55l40 303h256q76 0 132.5 -37.5t88.5 -101.5q39 -77 39 -174q0 -131 -72 -235q-99 -141 -265 -141zM128 83l165 1q113 0 182 111q51 81 51 178q0 76 -26 134q-45 100 -144 100h-159l-29 -220h163l-11 -83h-163z" />
    <glyph glyph-name="Ntilde" unicode="&#xd1;" horiz-adv-x="683" 
d="M564 690h97l-89 -690h-146l-233 587l-76 -587h-97l89 690h146l233 -589zM348 910q31 0 53 -16t36.5 -31.5t27.5 -15.5q17 0 21 18l4 34h85l-4 -34q-6 -42 -39.5 -70.5t-75.5 -28.5q-31 0 -53.5 16t-37 31.5t-27.5 15.5q-18 0 -20 -18l-5 -34h-85l5 34q5 42 39 70.5
t76 28.5z" />
    <glyph glyph-name="Ograve" unicode="&#xd2;" horiz-adv-x="693" 
d="M320 76q97 0 164 88q66 88 66 208q0 114 -56 184q-46 58 -122 58q-104 0 -171 -97q-59 -85 -59 -199q0 -87 34 -151q47 -91 144 -91zM313 -8q-131 0 -205 103q-67 90 -67 219q0 149 80 256q98 128 258 128q131 0 205 -102q67 -90 67 -219q0 -149 -80 -256
q-98 -129 -258 -129zM438 744l-195 77l56 95l179 -103z" />
    <glyph glyph-name="Oacute" unicode="&#xd3;" horiz-adv-x="693" 
d="M320 76q97 0 164 88q66 88 66 208q0 114 -56 184q-46 58 -122 58q-104 0 -171 -97q-59 -85 -59 -199q0 -87 34 -151q47 -91 144 -91zM313 -8q-131 0 -205 103q-67 90 -67 219q0 149 80 256q98 128 258 128q131 0 205 -102q67 -90 67 -219q0 -149 -80 -256
q-98 -129 -258 -129zM539 821l-215 -77l-22 69l205 103z" />
    <glyph glyph-name="Ocircumflex" unicode="&#xd4;" horiz-adv-x="693" 
d="M320 76q97 0 164 88q66 88 66 208q0 114 -56 184q-46 58 -122 58q-104 0 -171 -97q-59 -85 -59 -199q0 -87 34 -151q47 -91 144 -91zM313 -8q-131 0 -205 103q-67 90 -67 219q0 149 80 256q98 128 258 128q131 0 205 -102q67 -90 67 -219q0 -149 -80 -256
q-98 -129 -258 -129zM357 927h81l133 -116l-60 -60l-116 100l-142 -100l-50 67z" />
    <glyph glyph-name="Otilde" unicode="&#xd5;" horiz-adv-x="693" 
d="M320 76q97 0 164 88q66 88 66 208q0 114 -56 184q-46 58 -122 58q-104 0 -171 -97q-59 -85 -59 -199q0 -87 34 -151q47 -91 144 -91zM313 -8q-131 0 -205 103q-67 90 -67 219q0 149 80 256q98 128 258 128q131 0 205 -102q67 -90 67 -219q0 -149 -80 -256
q-98 -129 -258 -129zM343 910q31 0 53 -16t36.5 -31.5t27.5 -15.5q17 0 21 18l4 34h85l-4 -34q-6 -42 -39.5 -70.5t-75.5 -28.5q-31 0 -53.5 16t-37 31.5t-27.5 15.5q-18 0 -20 -18l-5 -34h-85l5 34q5 42 39 70.5t76 28.5z" />
    <glyph glyph-name="Odieresis" unicode="&#xd6;" horiz-adv-x="693" 
d="M320 76q97 0 164 88q66 88 66 208q0 114 -56 184q-46 58 -122 58q-104 0 -171 -97q-59 -85 -59 -199q0 -87 34 -151q47 -91 144 -91zM313 -8q-131 0 -205 103q-67 90 -67 219q0 149 80 256q98 128 258 128q131 0 205 -102q67 -90 67 -219q0 -149 -80 -256
q-98 -129 -258 -129zM497 899q23 0 38 -15.5t15 -38.5q0 -29 -19 -47.5t-47 -18.5q-23 0 -39 15.5t-16 38.5q0 29 20 47.5t48 18.5zM305 899q23 0 38 -15.5t15 -38.5q0 -29 -19 -47.5t-47 -18.5q-23 0 -39 15.5t-16 38.5q0 29 20 47.5t48 18.5z" />
    <glyph glyph-name="multiply" unicode="&#xd7;" horiz-adv-x="518" 
d="M55 443l63 56l137 -169h7l179 168l49 -56l-188 -159l-1 -7l150 -157l-63 -56l-138 167h-7l-179 -167l-49 56l188 158v7z" />
    <glyph glyph-name="Oslash" unicode="&#xd8;" horiz-adv-x="693" 
d="M94 -43l51 97q-23 19 -37 41q-67 90 -67 219q0 149 80 256q98 128 258 128q51 0 94 -17l44 83l77 -37l-47 -90q19 -16 37 -41q67 -90 67 -219q0 -149 -80 -256q-98 -129 -258 -129q-52 0 -95 17l-46 -88zM320 76q97 0 164 88q66 88 66 208q0 107 -50 176l-241 -461
q27 -11 61 -11zM176 167q5 -12 15 -25l242 462q-26 10 -61 10q-104 0 -171 -97q-59 -85 -59 -199q0 -87 34 -151z" />
    <glyph glyph-name="Ugrave" unicode="&#xd9;" horiz-adv-x="668" 
d="M557 690h97l-60 -434q-19 -133 -89.5 -198.5t-212.5 -65.5q-67 0 -116.5 19t-77 52t-40.5 72.5t-13 85.5q0 27 3 46l58 423h97l-53 -401q-5 -30 -5 -52q0 -88 35 -124.5t126 -36.5q92 0 134.5 49.5t58.5 163.5zM465 744l-195 77l56 95l179 -103z" />
    <glyph glyph-name="Uacute" unicode="&#xda;" horiz-adv-x="668" 
d="M557 690h97l-60 -434q-19 -133 -89.5 -198.5t-212.5 -65.5q-67 0 -116.5 19t-77 52t-40.5 72.5t-13 85.5q0 27 3 46l58 423h97l-53 -401q-5 -30 -5 -52q0 -88 35 -124.5t126 -36.5q92 0 134.5 49.5t58.5 163.5zM557 821l-215 -77l-22 69l205 103z" />
    <glyph glyph-name="Ucircumflex" unicode="&#xdb;" horiz-adv-x="668" 
d="M557 690h97l-60 -434q-19 -133 -89.5 -198.5t-212.5 -65.5q-67 0 -116.5 19t-77 52t-40.5 72.5t-13 85.5q0 27 3 46l58 423h97l-53 -401q-5 -30 -5 -52q0 -88 35 -124.5t126 -36.5q92 0 134.5 49.5t58.5 163.5zM364 927h81l133 -116l-60 -60l-116 100l-142 -100l-50 67z
" />
    <glyph glyph-name="Udieresis" unicode="&#xdc;" horiz-adv-x="668" 
d="M557 690h97l-60 -434q-19 -133 -89.5 -198.5t-212.5 -65.5q-67 0 -116.5 19t-77 52t-40.5 72.5t-13 85.5q0 27 3 46l58 423h97l-53 -401q-5 -30 -5 -52q0 -88 35 -124.5t126 -36.5q92 0 134.5 49.5t58.5 163.5zM505 899q23 0 38 -15.5t15 -38.5q0 -29 -19 -47.5
t-47 -18.5q-23 0 -39 15.5t-16 38.5q0 29 20 47.5t48 18.5zM313 899q23 0 38 -15.5t15 -38.5q0 -29 -19 -47.5t-47 -18.5q-23 0 -39 15.5t-16 38.5q0 29 20 47.5t48 18.5z" />
    <glyph glyph-name="Yacute" unicode="&#xdd;" horiz-adv-x="555" 
d="M280 0h-97l44 337l-183 353h112l129 -270h3l201 270h112l-277 -353zM494 821l-215 -77l-22 69l205 103z" />
    <glyph glyph-name="Thorn" unicode="&#xde;" horiz-adv-x="605" 
d="M229 467l-31 -251h181q59 0 92 40.5t33 87.5q0 123 -95 123h-180zM399 133h-211l-16 -133h-97l84 690h97l-17 -140h183q84 0 133.5 -58.5t49.5 -147.5q0 -86 -63 -148.5t-143 -62.5z" />
    <glyph glyph-name="germandbls" unicode="&#xdf;" horiz-adv-x="558" 
d="M237 337l10 77h41q45 0 81 33.5t36 86.5q0 47 -23 74.5t-64 27.5t-75 -33t-40 -79l-69 -524h-120l10 78h25l59 450q12 85 71.5 137t142.5 52q81 0 131.5 -50t50.5 -129q0 -29 -9.5 -54t-28.5 -44.5t-32.5 -30t-36.5 -25.5q115 -47 115 -173q0 -88 -71.5 -153.5
t-166.5 -65.5q-56 0 -83 9l15 82q20 -10 56 -10q63 0 107 42.5t44 98.5t-33.5 89.5t-92.5 33.5h-50z" />
    <glyph glyph-name="agrave" unicode="&#xe0;" horiz-adv-x="582" 
d="M251 -8q-102 0 -161 75q-52 66 -52 169q0 115 62 194q74 94 202 94q86 0 141 -70h12l8 59h95l-68 -513h-95l8 57h-6q-32 -33 -64 -49t-82 -16zM266 73q78 0 126 67q40 56 40 136q0 73 -33 116q-33 51 -95 51q-79 0 -126 -66q-40 -56 -40 -137q0 -73 33 -116
q33 -51 95 -51zM341 566l-173 104l68 85l154 -127z" />
    <glyph glyph-name="aacute" unicode="&#xe1;" horiz-adv-x="582" 
d="M251 -8q-102 0 -161 75q-52 66 -52 169q0 115 62 194q74 94 202 94q86 0 141 -70h12l8 59h95l-68 -513h-95l8 57h-6q-32 -33 -64 -49t-82 -16zM266 73q78 0 126 67q40 56 40 136q0 73 -33 116q-33 51 -95 51q-79 0 -126 -66q-40 -56 -40 -137q0 -73 33 -116
q33 -51 95 -51zM483 670l-201 -104l-31 62l186 127z" />
    <glyph glyph-name="acircumflex" unicode="&#xe2;" horiz-adv-x="582" 
d="M251 -8q-102 0 -161 75q-52 66 -52 169q0 115 62 194q74 94 202 94q86 0 141 -70h12l8 59h95l-68 -513h-95l8 57h-6q-32 -33 -64 -49t-82 -16zM266 73q78 0 126 67q40 56 40 136q0 73 -33 116q-33 51 -95 51q-79 0 -126 -66q-40 -56 -40 -137q0 -73 33 -116
q33 -51 95 -51zM292 742h80l113 -116l-59 -58l-97 100l-123 -100l-49 64z" />
    <glyph glyph-name="atilde" unicode="&#xe3;" horiz-adv-x="582" 
d="M251 -8q-102 0 -161 75q-52 66 -52 169q0 115 62 194q74 94 202 94q86 0 141 -70h12l8 59h95l-68 -513h-95l8 57h-6q-32 -33 -64 -49t-82 -16zM266 73q78 0 126 67q40 56 40 136q0 73 -33 116q-33 51 -95 51q-79 0 -126 -66q-40 -56 -40 -137q0 -73 33 -116
q33 -51 95 -51zM277 723q29 0 50 -15t35 -30t26 -15q17 0 20 17l4 32h81l-4 -32q-6 -41 -38 -68t-72 -27q-29 0 -50 15t-35 30t-26 15q-17 0 -19 -17l-5 -32h-81l5 32q5 41 37 68t72 27z" />
    <glyph glyph-name="adieresis" unicode="&#xe4;" horiz-adv-x="582" 
d="M251 -8q-102 0 -161 75q-52 66 -52 169q0 115 62 194q74 94 202 94q86 0 141 -70h12l8 59h95l-68 -513h-95l8 57h-6q-32 -33 -64 -49t-82 -16zM266 73q78 0 126 67q40 56 40 136q0 73 -33 116q-33 51 -95 51q-79 0 -126 -66q-40 -56 -40 -137q0 -73 33 -116
q33 -51 95 -51zM241 713q23 0 37 -15t14 -37q0 -27 -19 -45t-44 -18q-22 0 -37.5 15t-15.5 37q0 27 19.5 45t45.5 18zM429 713q23 0 37 -15t14 -37q0 -27 -19 -45t-44 -18q-22 0 -37.5 15t-15.5 37q0 27 19.5 45t45.5 18z" />
    <glyph glyph-name="aring" unicode="&#xe5;" horiz-adv-x="582" 
d="M251 -8q-102 0 -161 75q-52 66 -52 169q0 115 62 194q74 94 202 94q86 0 141 -70h12l8 59h95l-68 -513h-95l8 57h-6q-32 -33 -64 -49t-82 -16zM266 73q78 0 126 67q40 56 40 136q0 73 -33 116q-33 51 -95 51q-79 0 -126 -66q-40 -56 -40 -137q0 -73 33 -116
q33 -51 95 -51zM338 796q45 0 73.5 -30t28.5 -75q0 -54 -37 -89.5t-88 -35.5q-46 0 -76.5 30.5t-30.5 74.5q0 54 38 89.5t92 35.5zM328 726q-19 0 -34 -14t-15 -34q0 -17 12 -28.5t29 -11.5q19 0 33.5 14t14.5 34q0 17 -11.5 28.5t-28.5 11.5z" />
    <glyph glyph-name="ae" unicode="&#xe6;" horiz-adv-x="894" 
d="M850 232h-388q6 -159 132 -159q39 0 78.5 29t68.5 82l85 -40q-34 -71 -99 -111.5t-142 -40.5q-122 0 -178 95q-82 -95 -208 -95q-15 0 -31 1.5t-44.5 10.5t-49 24t-36.5 46t-16 73q0 72 57.5 114t159.5 42h132q8 59 8 68q0 29 -20 50.5t-71 21.5q-37 0 -62.5 -11t-36 -27
t-14.5 -27.5t-4 -19.5h-99q1 12 3.5 26.5t16 41.5t36 47t67.5 35.5t106 15.5q117 0 155 -69q74 69 185 69q93 0 153.5 -65t60.5 -165q0 -25 -5 -62zM355 174l6 54h-120q-56 0 -88 -23t-32 -59q0 -73 92 -73h8q46 0 87.5 30t46.5 71zM634 443q-48 0 -96.5 -33t-66.5 -103h285
q-6 71 -41.5 103.5t-80.5 32.5z" />
    <glyph glyph-name="ccedilla" unicode="&#xe7;" horiz-adv-x="563" 
d="M262 -110q0 24 -48 26l9 79q-83 11 -132 72q-53 66 -53 169q0 115 65 194q76 94 208 94q91 0 151 -57.5t62 -145.5h-100q-2 55 -34 88.5t-86 33.5q-65 0 -110 -50q-56 -62 -57 -153v-6q0 -74 35 -119q34 -42 93 -42q51 0 91 34t54 88h100q-15 -77 -67 -131t-134 -68
l-4 -42q38 -25 38 -67q0 -40 -36.5 -70t-82.5 -30q-40 0 -66 18t-31 36l77 35q8 -15 30 -15q11 0 19.5 8t8.5 21z" />
    <glyph glyph-name="egrave" unicode="&#xe8;" horiz-adv-x="570" 
d="M526 232h-389q6 -159 133 -159q39 0 78.5 29t68.5 82l85 -40q-34 -71 -99 -111.5t-142 -40.5q-100 0 -161.5 65.5t-61.5 178.5q0 121 75 204.5t204 83.5q93 0 153.5 -65t60.5 -165q0 -25 -2 -38zM310 443q-48 0 -96.5 -33t-66.5 -103h285q-6 71 -41.5 103.5t-80.5 32.5z
M340 566l-173 104l68 85l154 -127z" />
    <glyph glyph-name="eacute" unicode="&#xe9;" horiz-adv-x="570" 
d="M526 232h-389q6 -159 133 -159q39 0 78.5 29t68.5 82l85 -40q-34 -71 -99 -111.5t-142 -40.5q-100 0 -161.5 65.5t-61.5 178.5q0 121 75 204.5t204 83.5q93 0 153.5 -65t60.5 -165q0 -25 -2 -38zM310 443q-48 0 -96.5 -33t-66.5 -103h285q-6 71 -41.5 103.5t-80.5 32.5z
M483 670l-201 -104l-31 62l186 127z" />
    <glyph glyph-name="ecircumflex" unicode="&#xea;" horiz-adv-x="570" 
d="M526 232h-389q6 -159 133 -159q39 0 78.5 29t68.5 82l85 -40q-34 -71 -99 -111.5t-142 -40.5q-100 0 -161.5 65.5t-61.5 178.5q0 121 75 204.5t204 83.5q93 0 153.5 -65t60.5 -165q0 -25 -2 -38zM310 443q-48 0 -96.5 -33t-66.5 -103h285q-6 71 -41.5 103.5t-80.5 32.5z
M292 742h80l113 -116l-59 -58l-97 100l-123 -100l-49 64z" />
    <glyph glyph-name="edieresis" unicode="&#xeb;" horiz-adv-x="570" 
d="M526 232h-389q6 -159 133 -159q39 0 78.5 29t68.5 82l85 -40q-34 -71 -99 -111.5t-142 -40.5q-100 0 -161.5 65.5t-61.5 178.5q0 121 75 204.5t204 83.5q93 0 153.5 -65t60.5 -165q0 -25 -2 -38zM310 443q-48 0 -96.5 -33t-66.5 -103h285q-6 71 -41.5 103.5t-80.5 32.5z
M241 713q23 0 37 -15t14 -37q0 -27 -19 -45t-44 -18q-22 0 -37.5 15t-15.5 37q0 27 19.5 45t45.5 18zM429 713q23 0 37 -15t14 -37q0 -27 -19 -45t-44 -18q-22 0 -37.5 15t-15.5 37q0 27 19.5 45t45.5 18z" />
    <glyph glyph-name="igrave" unicode="&#xec;" horiz-adv-x="209" 
d="M22 0l68 513h95l-68 -513h-95zM189 566l-173 104l68 85l154 -127z" />
    <glyph glyph-name="iacute" unicode="&#xed;" horiz-adv-x="209" 
d="M22 0l68 513h95l-68 -513h-95zM296 670l-201 -104l-31 62l186 127z" />
    <glyph glyph-name="icircumflex" unicode="&#xee;" horiz-adv-x="209" 
d="M22 0l68 513h95l-68 -513h-95zM120 742h80l113 -116l-59 -58l-97 100l-123 -100l-49 64z" />
    <glyph glyph-name="idieresis" unicode="&#xef;" horiz-adv-x="209" 
d="M22 0l68 513h95l-68 -513h-95zM68 713q23 0 37 -15t14 -37q0 -27 -19 -45t-44 -18q-22 0 -37.5 15t-15.5 37q0 27 19.5 45t45.5 18zM256 713q23 0 37 -15t14 -37q0 -27 -19 -45t-44 -18q-22 0 -37.5 15t-15.5 37q0 27 19.5 45t45.5 18z" />
    <glyph glyph-name="eth" unicode="&#xf0;" horiz-adv-x="580" 
d="M322 524q17 0 32.5 -3.5t24 -7.5t16.5 -9l8 -4q-21 36 -80 91l-103 -54l-40 48l91 49q-28 20 -79 47l58 51q46 -23 100 -62l109 59l45 -46l-103 -55q141 -139 141 -314q0 -61 -17 -116.5t-50 -102.5t-88.5 -75t-126.5 -28q-97 0 -159.5 62.5t-62.5 164.5q0 57 18.5 110.5
t52.5 97.5t89.5 70.5t123.5 26.5zM313 443q-75 0 -124.5 -67.5t-49.5 -147.5q0 -71 33 -113t95 -42q76 0 125 67.5t49 148.5q0 71 -33 112.5t-95 41.5z" />
    <glyph glyph-name="ntilde" unicode="&#xf1;" horiz-adv-x="557" 
d="M325 443q-59 0 -115 -63t-67 -164l-26 -216h-95l68 513h95l-10 -72h4q80 83 178 83q62 0 105.5 -38.5t43.5 -93.5q0 -8 -1 -16l-50 -376h-95l46 347q1 6 1 13q0 30 -21 56.5t-61 26.5zM273 723q29 0 50 -15t35 -30t26 -15q17 0 20 17l4 32h81l-4 -32q-6 -41 -38 -68
t-72 -27q-29 0 -50 15t-35 30t-26 15q-17 0 -19 -17l-5 -32h-81l5 32q5 41 37 68t72 27z" />
    <glyph glyph-name="ograve" unicode="&#xf2;" horiz-adv-x="578" 
d="M269 73q65 0 115 53q57 62 57 150q0 74 -32 120q-34 47 -100 47q-76 0 -126 -62q-46 -58 -46 -141q0 -76 33 -122q34 -45 99 -45zM261 -8q-107 0 -169 75q-54 65 -54 169q0 115 66 194q78 94 213 94q107 0 169 -75q54 -65 54 -169q0 -113 -66 -192q-82 -96 -213 -96z
M340 566l-173 104l68 85l154 -127z" />
    <glyph glyph-name="oacute" unicode="&#xf3;" horiz-adv-x="578" 
d="M269 73q65 0 115 53q57 62 57 150q0 74 -32 120q-34 47 -100 47q-76 0 -126 -62q-46 -58 -46 -141q0 -76 33 -122q34 -45 99 -45zM261 -8q-107 0 -169 75q-54 65 -54 169q0 115 66 194q78 94 213 94q107 0 169 -75q54 -65 54 -169q0 -113 -66 -192q-82 -96 -213 -96z
M483 670l-201 -104l-31 62l186 127z" />
    <glyph glyph-name="ocircumflex" unicode="&#xf4;" horiz-adv-x="578" 
d="M269 73q65 0 115 53q57 62 57 150q0 74 -32 120q-34 47 -100 47q-76 0 -126 -62q-46 -58 -46 -141q0 -76 33 -122q34 -45 99 -45zM261 -8q-107 0 -169 75q-54 65 -54 169q0 115 66 194q78 94 213 94q107 0 169 -75q54 -65 54 -169q0 -113 -66 -192q-82 -96 -213 -96z
M292 742h80l113 -116l-59 -58l-97 100l-123 -100l-49 64z" />
    <glyph glyph-name="otilde" unicode="&#xf5;" horiz-adv-x="578" 
d="M269 73q65 0 115 53q57 62 57 150q0 74 -32 120q-34 47 -100 47q-76 0 -126 -62q-46 -58 -46 -141q0 -76 33 -122q34 -45 99 -45zM261 -8q-107 0 -169 75q-54 65 -54 169q0 115 66 194q78 94 213 94q107 0 169 -75q54 -65 54 -169q0 -113 -66 -192q-82 -96 -213 -96z
M277 723q29 0 50 -15t35 -30t26 -15q17 0 20 17l4 32h81l-4 -32q-6 -41 -38 -68t-72 -27q-29 0 -50 15t-35 30t-26 15q-17 0 -19 -17l-5 -32h-81l5 32q5 41 37 68t72 27z" />
    <glyph glyph-name="odieresis" unicode="&#xf6;" horiz-adv-x="578" 
d="M269 73q65 0 115 53q57 62 57 150q0 74 -32 120q-34 47 -100 47q-76 0 -126 -62q-46 -58 -46 -141q0 -76 33 -122q34 -45 99 -45zM261 -8q-107 0 -169 75q-54 65 -54 169q0 115 66 194q78 94 213 94q107 0 169 -75q54 -65 54 -169q0 -113 -66 -192q-82 -96 -213 -96z
M241 713q23 0 37 -15t14 -37q0 -27 -19 -45t-44 -18q-22 0 -37.5 15t-15.5 37q0 27 19.5 45t45.5 18zM429 713q23 0 37 -15t14 -37q0 -27 -19 -45t-44 -18q-22 0 -37.5 15t-15.5 37q0 27 19.5 45t45.5 18z" />
    <glyph glyph-name="divide" unicode="&#xf7;" horiz-adv-x="486" 
d="M28 260l10 80h414l-10 -80h-414zM267 523q23 0 37 -15t14 -37q0 -27 -19 -45t-44 -18q-22 0 -37.5 15t-15.5 37q0 27 19.5 45t45.5 18zM226 192q23 0 37 -15t14 -37q0 -27 -19 -45t-44 -18q-22 0 -37.5 15t-15.5 37q0 27 19.5 45t45.5 18z" />
    <glyph glyph-name="oslash" unicode="&#xf8;" horiz-adv-x="577" 
d="M261 -8q-60 0 -108 25l-70 -92l-63 45l73 95q-1 1 -1 2q-54 65 -54 169q0 115 66 194q78 94 213 94q60 0 107 -25l66 85l63 -45l-68 -89q0 -1 1 -1q54 -65 54 -169q0 -113 -66 -192q-82 -96 -213 -96zM137 240q0 -54 17 -95l217 284q-25 14 -62 14q-76 0 -126 -62
q-46 -58 -46 -141zM269 73q65 0 115 53q57 62 57 150q0 52 -18 94l-217 -284q25 -13 63 -13z" />
    <glyph glyph-name="ugrave" unicode="&#xf9;" horiz-adv-x="530" 
d="M203 70q59 0 114.5 63t67.5 164l26 216h95l-68 -513h-95l10 72h-4q-80 -83 -178 -83q-62 0 -105.5 38.5t-43.5 93.5q0 8 1 16l50 376h95l-46 -347q-1 -6 -1 -13q0 -30 21 -56.5t61 -26.5zM322 566l-173 104l68 85l154 -127z" />
    <glyph glyph-name="uacute" unicode="&#xfa;" horiz-adv-x="530" 
d="M203 70q59 0 114.5 63t67.5 164l26 216h95l-68 -513h-95l10 72h-4q-80 -83 -178 -83q-62 0 -105.5 38.5t-43.5 93.5q0 8 1 16l50 376h95l-46 -347q-1 -6 -1 -13q0 -30 21 -56.5t61 -26.5zM467 670l-201 -104l-31 62l186 127z" />
    <glyph glyph-name="ucircumflex" unicode="&#xfb;" horiz-adv-x="530" 
d="M203 70q59 0 114.5 63t67.5 164l26 216h95l-68 -513h-95l10 72h-4q-80 -83 -178 -83q-62 0 -105.5 38.5t-43.5 93.5q0 8 1 16l50 376h95l-46 -347q-1 -6 -1 -13q0 -30 21 -56.5t61 -26.5zM272 742h80l113 -116l-59 -58l-97 100l-123 -100l-49 64z" />
    <glyph glyph-name="udieresis" unicode="&#xfc;" horiz-adv-x="530" 
d="M203 70q59 0 114.5 63t67.5 164l26 216h95l-68 -513h-95l10 72h-4q-80 -83 -178 -83q-62 0 -105.5 38.5t-43.5 93.5q0 8 1 16l50 376h95l-46 -347q-1 -6 -1 -13q0 -30 21 -56.5t61 -26.5zM221 713q23 0 37 -15t14 -37q0 -27 -19 -45t-44 -18q-22 0 -37.5 15t-15.5 37
q0 27 19.5 45t45.5 18zM409 713q23 0 37 -15t14 -37q0 -27 -19 -45t-44 -18q-22 0 -37.5 15t-15.5 37q0 27 19.5 45t45.5 18z" />
    <glyph glyph-name="yacute" unicode="&#xfd;" horiz-adv-x="496" 
d="M5 -205q-31 0 -55 8l30 78q20 -5 35 -5q34 0 60 18t37 40l48 98l-135 481h98l93 -370l181 370h104l-322 -620q-53 -98 -174 -98zM442 670l-201 -104l-31 62l186 127z" />
    <glyph glyph-name="thorn" unicode="&#xfe;" horiz-adv-x="582" 
d="M288 -8q-96 0 -147 65h-14l-32 -244h-94l114 883h95l-31 -242h9q32 37 64.5 53.5t85.5 16.5q98 0 155 -75q51 -67 51 -169q0 -110 -60 -192q-75 -96 -196 -96zM278 73q81 0 126 67q40 54 40 136q0 74 -31 116q-36 51 -96 51q-81 0 -127 -66q-40 -54 -40 -137
q0 -72 31 -116q36 -51 97 -51z" />
    <glyph glyph-name="ydieresis" unicode="&#xff;" horiz-adv-x="496" 
d="M5 -205q-31 0 -55 8l30 78q20 -5 35 -5q34 0 60 18t37 40l48 98l-135 481h98l93 -370l181 370h104l-322 -620q-53 -98 -174 -98zM190 713q23 0 37 -15t14 -37q0 -27 -19 -45t-44 -18q-22 0 -37.5 15t-15.5 37q0 27 19.5 45t45.5 18zM378 713q23 0 37 -15t14 -37
q0 -27 -19 -45t-44 -18q-22 0 -37.5 15t-15.5 37q0 27 19.5 45t45.5 18z" />
    <glyph glyph-name="Amacron" unicode="&#x100;" horiz-adv-x="596" 
d="M544 0h-101l-42 196h-246l-94 -196h-100l324 690h116zM329 587l-136 -308h192zM206 797l11 83h304l-11 -83h-304z" />
    <glyph glyph-name="amacron" unicode="&#x101;" horiz-adv-x="582" 
d="M251 -8q-102 0 -161 75q-52 66 -52 169q0 115 62 194q74 94 202 94q86 0 141 -70h12l8 59h95l-68 -513h-95l8 57h-6q-32 -33 -64 -49t-82 -16zM266 73q78 0 126 67q40 56 40 136q0 73 -33 116q-33 51 -95 51q-79 0 -126 -66q-40 -56 -40 -137q0 -73 33 -116
q33 -51 95 -51zM186 617l10 77h288l-10 -77h-288z" />
    <glyph glyph-name="Abreve" unicode="&#x102;" horiz-adv-x="596" 
d="M544 0h-101l-42 196h-246l-94 -196h-100l324 690h116zM329 587l-136 -308h192zM448 918h84q-4 -67 -55.5 -113t-114.5 -46q-62 0 -104.5 41t-42.5 102v16h84v-8q0 -30 20 -50.5t50 -20.5q29 0 53 22.5t26 56.5z" />
    <glyph glyph-name="abreve" unicode="&#x103;" horiz-adv-x="582" 
d="M251 -8q-102 0 -161 75q-52 66 -52 169q0 115 62 194q74 94 202 94q86 0 141 -70h12l8 59h95l-68 -513h-95l8 57h-6q-32 -33 -64 -49t-82 -16zM266 73q78 0 126 67q40 56 40 136q0 73 -33 116q-33 51 -95 51q-79 0 -126 -66q-40 -56 -40 -137q0 -73 33 -116
q33 -51 95 -51zM403 730h84q-4 -63 -53 -106.5t-110 -43.5q-58 0 -97.5 38.5t-39.5 96.5v15h84v-7q0 -26 17 -44t42 -18q29 0 50 20t23 49z" />
    <glyph glyph-name="Aogonek" unicode="&#x104;" horiz-adv-x="596" 
d="M441 11l-40 185h-246l-94 -196h-100l324 690h116l143 -690q-47 -16 -82 -51.5t-35 -60.5q0 -18 24 -20q20 0 33 26l77 -39q-45 -67 -127 -67q-44 0 -74 23.5t-30 63.5q0 70 111 136zM329 587l-136 -308h192z" />
    <glyph glyph-name="aogonek" unicode="&#x105;" horiz-adv-x="582" 
d="M396 6l7 51h-6q-32 -33 -64 -49t-82 -16q-102 0 -161 75q-52 66 -52 169q0 115 62 194q74 94 202 94q86 0 141 -70h12l8 59h95l-68 -513q-44 -22 -77 -55t-33 -59q0 -19 27 -19q16 0 31 23l68 -35q-19 -29 -50.5 -48t-68.5 -19q-39 0 -68.5 23t-29.5 63q0 72 107 132z
M266 73q78 0 126 67q40 56 40 136q0 73 -33 116q-33 51 -95 51q-79 0 -126 -66q-40 -56 -40 -137q0 -73 33 -116q33 -51 95 -51z" />
    <glyph glyph-name="Cacute" unicode="&#x106;" horiz-adv-x="661" 
d="M313 -8q-64 0 -117.5 29t-87.5 78q-66 94 -66 213q0 143 79 253q94 133 256 133q104 0 178 -69q76 -71 82 -181h-101q-6 74 -49 118q-46 48 -119 48q-96 0 -164 -98q-61 -88 -61 -197q0 -95 43 -165q47 -78 129 -78q77 0 134 51q50 44 75 119h100q-22 -111 -110 -184
q-86 -70 -201 -70zM539 821l-215 -77l-22 69l205 103z" />
    <glyph glyph-name="cacute" unicode="&#x107;" horiz-adv-x="563" 
d="M256 -8q-105 0 -165 75q-53 66 -53 169q0 115 65 194q76 94 208 94q91 0 151 -57.5t62 -145.5h-100q-2 55 -34 88.5t-86 33.5q-65 0 -110 -50q-56 -62 -57 -153v-6q0 -74 35 -119q34 -42 93 -42q51 0 91 34t54 88h100q-18 -89 -83.5 -146t-170.5 -57zM483 670l-201 -104
l-31 62l186 127z" />
    <glyph glyph-name="Ccircumflex" unicode="&#x108;" horiz-adv-x="661" 
d="M313 -8q-64 0 -117.5 29t-87.5 78q-66 94 -66 213q0 143 79 253q94 133 256 133q104 0 178 -69q76 -71 82 -181h-101q-6 74 -49 118q-46 48 -119 48q-96 0 -164 -98q-61 -88 -61 -197q0 -95 43 -165q47 -78 129 -78q77 0 134 51q50 44 75 119h100q-22 -111 -110 -184
q-86 -70 -201 -70zM357 927h81l133 -116l-60 -60l-116 100l-142 -100l-50 67z" />
    <glyph glyph-name="ccircumflex" unicode="&#x109;" horiz-adv-x="563" 
d="M256 -8q-105 0 -165 75q-53 66 -53 169q0 115 65 194q76 94 208 94q91 0 151 -57.5t62 -145.5h-100q-2 55 -34 88.5t-86 33.5q-65 0 -110 -50q-56 -62 -57 -153v-6q0 -74 35 -119q34 -42 93 -42q51 0 91 34t54 88h100q-18 -89 -83.5 -146t-170.5 -57zM292 742h80
l113 -116l-59 -58l-97 100l-123 -100l-49 64z" />
    <glyph glyph-name="Cdotaccent" unicode="&#x10a;" horiz-adv-x="661" 
d="M313 -8q-64 0 -117.5 29t-87.5 78q-66 94 -66 213q0 143 79 253q94 133 256 133q104 0 178 -69q76 -71 82 -181h-101q-6 74 -49 118q-46 48 -119 48q-96 0 -164 -98q-61 -88 -61 -197q0 -95 43 -165q47 -78 129 -78q77 0 134 51q50 44 75 119h100q-22 -111 -110 -184
q-86 -70 -201 -70zM401 899q23 0 38 -15.5t15 -38.5q0 -29 -19 -47.5t-47 -18.5q-23 0 -39 15.5t-16 38.5q0 29 20 47.5t48 18.5z" />
    <glyph glyph-name="cdotaccent" unicode="&#x10b;" horiz-adv-x="563" 
d="M256 -8q-105 0 -165 75q-53 66 -53 169q0 115 65 194q76 94 208 94q91 0 151 -57.5t62 -145.5h-100q-2 55 -34 88.5t-86 33.5q-65 0 -110 -50q-56 -62 -57 -153v-6q0 -74 35 -119q34 -42 93 -42q51 0 91 34t54 88h100q-18 -89 -83.5 -146t-170.5 -57zM335 713
q23 0 37 -15t14 -37q0 -27 -19 -45t-44 -18q-22 0 -37.5 15t-15.5 37q0 27 19.5 45t45.5 18z" />
    <glyph glyph-name="Ccaron" unicode="&#x10c;" horiz-adv-x="661" 
d="M313 -8q-64 0 -117.5 29t-87.5 78q-66 94 -66 213q0 143 79 253q94 133 256 133q104 0 178 -69q76 -71 82 -181h-101q-6 74 -49 118q-46 48 -119 48q-96 0 -164 -98q-61 -88 -61 -197q0 -95 43 -165q47 -78 129 -78q77 0 134 51q50 44 75 119h100q-22 -111 -110 -184
q-86 -70 -201 -70zM430 751h-81l-133 116l60 60l116 -100l142 100l50 -67z" />
    <glyph glyph-name="ccaron" unicode="&#x10d;" horiz-adv-x="563" 
d="M256 -8q-105 0 -165 75q-53 66 -53 169q0 115 65 194q76 94 208 94q91 0 151 -57.5t62 -145.5h-100q-2 55 -34 88.5t-86 33.5q-65 0 -110 -50q-56 -62 -57 -153v-6q0 -74 35 -119q34 -42 93 -42q51 0 91 34t54 88h100q-18 -89 -83.5 -146t-170.5 -57zM356 568h-80
l-113 116l59 58l97 -100l123 100l49 -64z" />
    <glyph glyph-name="Dcaron" unicode="&#x10e;" horiz-adv-x="667" 
d="M128 83l165 1q113 0 182 111q51 81 51 178q0 76 -26 134q-45 100 -144 100h-159zM290 1l-270 -1l91 690h256q76 0 132.5 -37.5t88.5 -101.5q39 -77 39 -174q0 -131 -72 -235q-99 -141 -265 -141zM406 751h-81l-133 116l60 60l116 -100l142 100l50 -67z" />
    <glyph glyph-name="dcaron" unicode="&#x10f;" horiz-adv-x="698" 
d="M751 667v-9q0 -81 -111 -177l-34 34q41 37 69 88q-50 10 -50 52q0 30 21 49t50 19q24 0 39.5 -16.5t15.5 -39.5zM251 -8q-102 0 -161 75q-52 66 -52 169q0 115 62 194q74 94 202 94q86 0 141 -70h12l32 242h95l-92 -696h-95l8 57h-6q-32 -33 -64 -49t-82 -16zM266 73
q78 0 126 67q40 56 40 136q0 73 -33 116q-33 51 -95 51q-79 0 -126 -66q-40 -56 -40 -137q0 -73 33 -116q33 -51 95 -51z" />
    <glyph glyph-name="Dcroat" unicode="&#x110;" horiz-adv-x="667" 
d="M290 1l-270 -1l40 304h-55l11 83h55l40 303h256q76 0 132.5 -37.5t88.5 -101.5q39 -77 39 -174q0 -131 -72 -235q-99 -141 -265 -141zM128 83l165 1q113 0 182 111q51 81 51 178q0 76 -26 134q-45 100 -144 100h-159l-29 -220h163l-11 -83h-163z" />
    <glyph glyph-name="dcroat" unicode="&#x111;" horiz-adv-x="592" 
d="M251 -8q-102 0 -161 75q-52 66 -52 169q0 115 62 194q74 94 202 94q86 0 141 -70h12l13 97h-134l11 80h133l9 65h95l-9 -65h60l-11 -80h-59l-73 -551h-95l8 57h-6q-32 -33 -64 -49t-82 -16zM266 73q78 0 126 67q40 56 40 136q0 73 -33 116q-33 51 -95 51q-79 0 -126 -66
q-40 -56 -40 -137q0 -73 33 -116q33 -51 95 -51z" />
    <glyph glyph-name="Emacron" unicode="&#x112;" horiz-adv-x="609" 
d="M596 690l-11 -83h-388l-28 -216h348l-11 -83h-348l-30 -225h408l-11 -83h-505l91 690h485zM212 797l11 83h304l-11 -83h-304z" />
    <glyph glyph-name="emacron" unicode="&#x113;" horiz-adv-x="570" 
d="M526 232h-389q6 -159 133 -159q39 0 78.5 29t68.5 82l85 -40q-34 -71 -99 -111.5t-142 -40.5q-100 0 -161.5 65.5t-61.5 178.5q0 121 75 204.5t204 83.5q93 0 153.5 -65t60.5 -165q0 -25 -2 -38zM310 443q-48 0 -96.5 -33t-66.5 -103h285q-6 71 -41.5 103.5t-80.5 32.5z
M186 617l10 77h288l-10 -77h-288z" />
    <glyph glyph-name="Ebreve" unicode="&#x114;" horiz-adv-x="609" 
d="M596 690l-11 -83h-388l-28 -216h348l-11 -83h-348l-30 -225h408l-11 -83h-505l91 690h485zM451 918h84q-4 -67 -55.5 -113t-114.5 -46q-62 0 -104.5 41t-42.5 102v16h84v-8q0 -30 20 -50.5t50 -20.5q29 0 53 22.5t26 56.5z" />
    <glyph glyph-name="ebreve" unicode="&#x115;" horiz-adv-x="570" 
d="M526 232h-389q6 -159 133 -159q39 0 78.5 29t68.5 82l85 -40q-34 -71 -99 -111.5t-142 -40.5q-100 0 -161.5 65.5t-61.5 178.5q0 121 75 204.5t204 83.5q93 0 153.5 -65t60.5 -165q0 -25 -2 -38zM310 443q-48 0 -96.5 -33t-66.5 -103h285q-6 71 -41.5 103.5t-80.5 32.5z
M403 730h84q-4 -63 -53 -106.5t-110 -43.5q-58 0 -97.5 38.5t-39.5 96.5v15h84v-7q0 -26 17 -44t42 -18q29 0 50 20t23 49z" />
    <glyph glyph-name="Edotaccent" unicode="&#x116;" horiz-adv-x="609" 
d="M596 690l-11 -83h-388l-28 -216h348l-11 -83h-348l-30 -225h408l-11 -83h-505l91 690h485zM382 899q23 0 38 -15.5t15 -38.5q0 -29 -19 -47.5t-47 -18.5q-23 0 -39 15.5t-16 38.5q0 29 20 47.5t48 18.5z" />
    <glyph glyph-name="edotaccent" unicode="&#x117;" horiz-adv-x="570" 
d="M526 232h-389q6 -159 133 -159q39 0 78.5 29t68.5 82l85 -40q-34 -71 -99 -111.5t-142 -40.5q-100 0 -161.5 65.5t-61.5 178.5q0 121 75 204.5t204 83.5q93 0 153.5 -65t60.5 -165q0 -25 -2 -38zM310 443q-48 0 -96.5 -33t-66.5 -103h285q-6 71 -41.5 103.5t-80.5 32.5z
M335 713q23 0 37 -15t14 -37q0 -27 -19 -45t-44 -18q-22 0 -37.5 15t-15.5 37q0 27 19.5 45t45.5 18z" />
    <glyph glyph-name="Eogonek" unicode="&#x118;" horiz-adv-x="609" 
d="M409 -132h-3q20 0 33 26l77 -39q-45 -67 -127 -67q-44 0 -74 23.5t-30 63.5q0 64 94 125h-359l91 690h485l-11 -83h-388l-29 -216h348l-11 -83h-348l-30 -225h408l-10 -83h-26q-47 -16 -82 -51.5t-35 -60.5q0 -20 27 -20z" />
    <glyph glyph-name="eogonek" unicode="&#x119;" horiz-adv-x="570" 
d="M355 -133q16 0 31 23l68 -35q-19 -29 -50.5 -48t-68.5 -19q-39 0 -68.5 23t-29.5 63q0 58 78 124q-28 -6 -54 -6q-100 0 -161.5 65.5t-61.5 178.5q0 121 75 204.5t204 83.5q93 0 153.5 -65t60.5 -165q0 -25 -5 -62h-389q6 -159 133 -159q39 0 78.5 29t68.5 82l85 -40
q-15 -39 -49 -78q-12 -15 -37.5 -43.5t-36.5 -42t-25.5 -33.5t-20 -34t-5.5 -27q0 -19 27 -19zM310 443q-48 0 -96.5 -33t-66.5 -103h285q-6 71 -41.5 103.5t-80.5 32.5z" />
    <glyph glyph-name="Ecaron" unicode="&#x11a;" horiz-adv-x="609" 
d="M596 690l-11 -83h-388l-28 -216h348l-11 -83h-348l-30 -225h408l-11 -83h-505l91 690h485zM416 751h-81l-133 116l60 60l116 -100l142 100l50 -67z" />
    <glyph glyph-name="ecaron" unicode="&#x11b;" horiz-adv-x="570" 
d="M526 232h-389q6 -159 133 -159q39 0 78.5 29t68.5 82l85 -40q-34 -71 -99 -111.5t-142 -40.5q-100 0 -161.5 65.5t-61.5 178.5q0 121 75 204.5t204 83.5q93 0 153.5 -65t60.5 -165q0 -25 -2 -38zM310 443q-48 0 -96.5 -33t-66.5 -103h285q-6 71 -41.5 103.5t-80.5 32.5z
M356 568h-80l-113 116l59 58l97 -100l123 100l49 -64z" />
    <glyph glyph-name="Gcircumflex" unicode="&#x11c;" horiz-adv-x="686" 
d="M307 -8q-128 0 -201 103q-65 89 -65 219q0 150 78 256q96 128 252 128q109 0 186.5 -67t77.5 -175h-101q0 69 -46 113.5t-124 44.5q-105 0 -166 -96q-55 -80 -55 -200q0 -102 42 -168q49 -74 130 -74q105 0 166 96q33 47 45 111h-196l12 83h281l-48 -366h-97l9 77
q-85 -85 -180 -85zM357 927h81l133 -116l-60 -60l-116 100l-142 -100l-50 67z" />
    <glyph glyph-name="gcircumflex" unicode="&#x11d;" horiz-adv-x="572" 
d="M453 513h95l-68 -518q-11 -83 -78.5 -141.5t-182.5 -58.5q-142 0 -199 129l85 40q25 -50 51.5 -69t67.5 -19q66 0 111 38t51 89l7 52h-9q-31 -31 -62 -47t-76 -16q-100 0 -157 75q-51 67 -51 169q0 114 60 194q73 94 197 94q84 0 138 -70h12zM415 223q10 70 10 90
q0 64 -36 97t-89 33q-78 0 -123 -63q-40 -58 -40 -140q0 -73 32 -120q34 -47 89 -47t101 39t56 111zM310 742h80l113 -116l-59 -58l-97 100l-123 -100l-49 64z" />
    <glyph glyph-name="Gbreve" unicode="&#x11e;" horiz-adv-x="686" 
d="M307 -8q-128 0 -201 103q-65 89 -65 219q0 150 78 256q96 128 252 128q109 0 186.5 -67t77.5 -175h-101q0 69 -46 113.5t-124 44.5q-105 0 -166 -96q-55 -80 -55 -200q0 -102 42 -168q49 -74 130 -74q105 0 166 96q33 47 45 111h-196l12 83h281l-48 -366h-97l9 77
q-85 -85 -180 -85zM475 918h84q-4 -67 -55.5 -113t-114.5 -46q-62 0 -104.5 41t-42.5 102v16h84v-8q0 -30 20 -50.5t50 -20.5q29 0 53 22.5t26 56.5z" />
    <glyph glyph-name="gbreve" unicode="&#x11f;" horiz-adv-x="572" 
d="M453 513h95l-68 -518q-11 -83 -78.5 -141.5t-182.5 -58.5q-142 0 -199 129l85 40q25 -50 51.5 -69t67.5 -19q66 0 111 38t51 89l7 52h-9q-31 -31 -62 -47t-76 -16q-100 0 -157 75q-51 67 -51 169q0 114 60 194q73 94 197 94q84 0 138 -70h12zM415 223q10 70 10 90
q0 64 -36 97t-89 33q-78 0 -123 -63q-40 -58 -40 -140q0 -73 32 -120q34 -47 89 -47t101 39t56 111zM409 730h84q-4 -63 -53 -106.5t-110 -43.5q-58 0 -97.5 38.5t-39.5 96.5v15h84v-7q0 -26 17 -44t42 -18q29 0 50 20t23 49z" />
    <glyph glyph-name="Gdotaccent" unicode="&#x120;" horiz-adv-x="686" 
d="M307 -8q-128 0 -201 103q-65 89 -65 219q0 150 78 256q96 128 252 128q109 0 186.5 -67t77.5 -175h-101q0 69 -46 113.5t-124 44.5q-105 0 -166 -96q-55 -80 -55 -200q0 -102 42 -168q49 -74 130 -74q105 0 166 96q33 47 45 111h-196l12 83h281l-48 -366h-97l9 77
q-85 -85 -180 -85zM401 899q23 0 38 -15.5t15 -38.5q0 -29 -19 -47.5t-47 -18.5q-23 0 -39 15.5t-16 38.5q0 29 20 47.5t48 18.5z" />
    <glyph glyph-name="gdotaccent" unicode="&#x121;" horiz-adv-x="572" 
d="M453 513h95l-68 -518q-11 -83 -78.5 -141.5t-182.5 -58.5q-142 0 -199 129l85 40q25 -50 51.5 -69t67.5 -19q66 0 111 38t51 89l7 52h-9q-31 -31 -62 -47t-76 -16q-100 0 -157 75q-51 67 -51 169q0 114 60 194q73 94 197 94q84 0 138 -70h12zM415 223q10 70 10 90
q0 64 -36 97t-89 33q-78 0 -123 -63q-40 -58 -40 -140q0 -73 32 -120q34 -47 89 -47t101 39t56 111zM335 713q23 0 37 -15t14 -37q0 -27 -19 -45t-44 -18q-22 0 -37.5 15t-15.5 37q0 27 19.5 45t45.5 18z" />
    <glyph glyph-name="Gcommaaccent" unicode="&#x122;" horiz-adv-x="686" 
d="M307 -8q-128 0 -201 103q-65 89 -65 219q0 150 78 256q96 128 252 128q109 0 186.5 -67t77.5 -175h-101q0 69 -46 113.5t-124 44.5q-105 0 -166 -96q-55 -80 -55 -200q0 -102 42 -168q49 -74 130 -74q105 0 166 96q33 47 45 111h-196l12 83h281l-48 -366h-97l9 77
q-85 -85 -180 -85zM357 -106v-9q0 -67 -100 -157l-31 31q38 39 55 71q-50 10 -50 52q0 30 21 49t50 19q24 0 39.5 -16.5t15.5 -39.5z" />
    <glyph glyph-name="gcommaaccent" unicode="&#x123;" horiz-adv-x="572" 
d="M244 622v9q0 67 100 157l31 -31q-38 -39 -55 -71q50 -10 50 -52q0 -30 -21 -49t-50 -19q-24 0 -39.5 16.5t-15.5 39.5zM453 513h95l-68 -518q-11 -83 -78.5 -141.5t-182.5 -58.5q-142 0 -199 129l85 40q25 -50 51.5 -69t67.5 -19q66 0 111 38t51 89l7 52h-9
q-31 -31 -62 -47t-76 -16q-100 0 -157 75q-51 67 -51 169q0 114 60 194q73 94 197 94q84 0 138 -70h12zM415 223q10 70 10 90q0 64 -36 97t-89 33q-78 0 -123 -63q-40 -58 -40 -140q0 -73 32 -120q34 -47 89 -47t101 39t56 111z" />
    <glyph glyph-name="Hcircumflex" unicode="&#x124;" horiz-adv-x="671" 
d="M117 0h-97l91 690h97l-38 -286h344l38 286h97l-91 -690h-97l42 321h-344zM362 927h81l133 -116l-60 -60l-116 100l-142 -100l-50 67z" />
    <glyph glyph-name="hcircumflex" unicode="&#x125;" horiz-adv-x="559" 
d="M327 443q-59 0 -115 -63t-67 -164l-26 -216h-95l91 696h95l-33 -255h4q80 83 178 83q62 0 105.5 -38.5t43.5 -93.5q0 -8 -1 -16l-50 -376h-95l46 347q1 6 1 13q0 30 -21 56.5t-61 26.5zM266 931h80l113 -116l-59 -58l-97 100l-123 -100l-49 64z" />
    <glyph glyph-name="Hbar" unicode="&#x126;" horiz-adv-x="688" 
d="M126 0h-97l66 500h-60l11 83h60l14 107h97l-14 -107h344l14 107h97l-14 -107h60l-11 -83h-60l-66 -500h-97l42 321h-344zM179 404h344l13 96h-344z" />
    <glyph glyph-name="hbar" unicode="&#x127;" horiz-adv-x="573" 
d="M341 443q-59 0 -115 -63t-67 -164l-26 -216h-95l72 551h-60l11 80h60l8 65h95l-8 -65h133l-11 -80h-133l-14 -110h4q80 83 178 83q62 0 105.5 -38.5t43.5 -93.5q0 -8 -1 -16l-50 -376h-95l46 347q1 6 1 13q0 30 -21 56.5t-61 26.5z" />
    <glyph glyph-name="Itilde" unicode="&#x128;" horiz-adv-x="230" 
d="M21 0l91 690h97l-91 -690h-97zM125 910q31 0 53 -16t36.5 -31.5t27.5 -15.5q17 0 21 18l4 34h85l-4 -34q-6 -42 -39.5 -70.5t-75.5 -28.5q-31 0 -53.5 16t-37 31.5t-27.5 15.5q-18 0 -20 -18l-5 -34h-85l5 34q5 42 39 70.5t76 28.5z" />
    <glyph glyph-name="itilde" unicode="&#x129;" horiz-adv-x="209" 
d="M21 0l68 513h95l-68 -513h-95zM103 723q29 0 50 -15t35 -30t26 -15q17 0 20 17l4 32h81l-4 -32q-6 -41 -38 -68t-72 -27q-29 0 -50 15t-35 30t-26 15q-17 0 -19 -17l-5 -32h-81l5 32q5 41 37 68t72 27z" />
    <glyph glyph-name="Imacron" unicode="&#x12a;" horiz-adv-x="230" 
d="M21 0l91 690h97l-91 -690h-97zM22 797l11 83h304l-11 -83h-304z" />
    <glyph glyph-name="imacron" unicode="&#x12b;" horiz-adv-x="209" 
d="M22 0l68 513h95l-68 -513h-95zM6 617l10 77h288l-10 -77h-288z" />
    <glyph glyph-name="Ibreve" unicode="&#x12c;" horiz-adv-x="230" 
d="M21 0l91 690h97l-91 -690h-97zM257 918h84q-4 -67 -55.5 -113t-114.5 -46q-62 0 -104.5 41t-42.5 102v16h84v-8q0 -30 20 -50.5t50 -20.5q29 0 53 22.5t26 56.5z" />
    <glyph glyph-name="ibreve" unicode="&#x12d;" horiz-adv-x="209" 
d="M21 0l68 513h95l-68 -513h-95zM230 730h84q-4 -63 -53 -106.5t-110 -43.5q-58 0 -97.5 38.5t-39.5 96.5v15h84v-7q0 -26 17 -44t42 -18q29 0 50 20t23 49z" />
    <glyph glyph-name="Iogonek" unicode="&#x12e;" horiz-adv-x="230" 
d="M22 14l89 676h97l-91 -690q-47 -16 -82 -51.5t-35 -60.5q0 -20 27 -20q17 3 30 26l77 -39q-45 -67 -127 -67q-44 0 -74 23.5t-30 63.5q0 36 35 75.5t84 63.5z" />
    <glyph glyph-name="iogonek" unicode="&#x12f;" horiz-adv-x="209" 
d="M23 6l67 507h95l-68 -513q-44 -22 -77 -55t-33 -59q0 -19 27 -19q16 0 31 23l68 -35q-19 -29 -50.5 -48t-68.5 -19q-39 0 -68.5 23t-29.5 63q0 72 107 132zM163 713q23 0 37 -15t14 -37q0 -27 -19 -45t-44 -18q-22 0 -37.5 15t-15.5 37q0 27 19.5 45t45.5 18z" />
    <glyph glyph-name="Idotaccent" unicode="&#x130;" horiz-adv-x="230" 
d="M20 0l91 690h97l-91 -690h-97zM186 899q23 0 38 -15.5t15 -38.5q0 -29 -19 -47.5t-47 -18.5q-23 0 -39 15.5t-16 38.5q0 29 20 47.5t48 18.5z" />
    <glyph glyph-name="dotlessi" unicode="&#x131;" horiz-adv-x="209" 
d="M22 0l68 513h95l-68 -513h-95z" />
    <glyph glyph-name="IJ" unicode="&#x132;" horiz-adv-x="742" 
d="M20 0l91 690h97l-91 -690h-97zM626 690h98l-61 -441q-16 -126 -76.5 -191.5t-176.5 -65.5q-91 0 -138.5 52.5t-53.5 137.5l96 20q9 -74 28 -100t81 -26q124 0 145 173z" />
    <glyph glyph-name="ij" unicode="&#x133;" horiz-adv-x="459" 
d="M22 0l68 513h95l-68 -513h-95zM163 713q23 0 37 -15t14 -37q0 -27 -19 -45t-44 -18q-22 0 -37.5 15t-15.5 37q0 27 19.5 45t45.5 18zM362 -43q-9 -68 -64 -115t-149 -47h-13l10 81h11q46 0 76 29.5t36 70.5l71 537h95zM413 713q23 0 37 -15t14 -37q0 -27 -19 -45t-44 -18
q-22 0 -37.5 15t-15.5 37q0 27 19.5 45t45.5 18z" />
    <glyph glyph-name="Jcircumflex" unicode="&#x134;" horiz-adv-x="513" 
d="M397 690h98l-61 -441q-16 -126 -76.5 -191.5t-176.5 -65.5q-91 0 -138.5 52.5t-53.5 137.5l96 20q9 -74 28 -100t81 -26q124 0 145 173zM329 927h81l133 -116l-60 -60l-116 100l-142 -100l-50 67z" />
    <glyph glyph-name="jcircumflex" unicode="&#x135;" horiz-adv-x="209" 
d="M112 -43q-9 -68 -64 -115t-149 -47h-13l10 81h11q46 0 76 29.5t36 70.5l71 537h95zM120 742h80l113 -116l-59 -58l-97 100l-123 -100l-49 64z" />
    <glyph glyph-name="Kcommaaccent" unicode="&#x136;" horiz-adv-x="604" 
d="M430 0l-200 317h-25l-52 -46l-36 -271h-97l91 690h97l-39 -293l328 293h129l-321 -284l-3 -22l245 -384h-117zM327 -106v-9q0 -67 -100 -157l-31 31q38 39 55 71q-50 10 -50 52q0 30 21 49t50 19q24 0 39.5 -16.5t15.5 -39.5z" />
    <glyph glyph-name="kcommaaccent" unicode="&#x137;" horiz-adv-x="526" 
d="M119 0h-95l91 696h95l-48 -364l213 181h136l-215 -174l-1 -9l189 -330h-105l-160 274l-72 -57zM291 -106v-9q0 -67 -100 -157l-31 31q38 39 55 71q-50 10 -50 52q0 30 21 49t50 19q24 0 39.5 -16.5t15.5 -39.5z" />
    <glyph glyph-name="kgreenlandic" unicode="&#x138;" horiz-adv-x="568" 
d="M117 0h-95l67 513h95l-29 -221l271 221h127l-266 -215l-1 -5l183 -293h-112l-146 234h-6l-65 -54z" />
    <glyph glyph-name="Lacute" unicode="&#x139;" horiz-adv-x="526" 
d="M208 690l-80 -607h357l-11 -83h-454l91 690h97zM348 821l-215 -77l-22 69l205 103z" />
    <glyph glyph-name="lacute" unicode="&#x13a;" horiz-adv-x="212" 
d="M24 0l91 696h95l-91 -696h-95zM337 816l-215 -77l-22 69l205 103z" />
    <glyph glyph-name="Lcommaaccent" unicode="&#x13b;" horiz-adv-x="526" 
d="M208 690l-80 -607h357l-11 -83h-454l91 690h97zM307 -106v-9q0 -67 -100 -157l-31 31q38 39 55 71q-50 10 -50 52q0 30 21 49t50 19q24 0 39.5 -16.5t15.5 -39.5z" />
    <glyph glyph-name="lcommaaccent" unicode="&#x13c;" horiz-adv-x="212" 
d="M24 0l91 696h95l-91 -696h-95zM122 -106v-9q0 -67 -100 -157l-31 31q38 39 55 71q-50 10 -50 52q0 30 21 49t50 19q24 0 39.5 -16.5t15.5 -39.5z" />
    <glyph glyph-name="Lcaron" unicode="&#x13d;" horiz-adv-x="526" 
d="M408 667v-9q0 -81 -111 -177l-34 34q41 37 69 88q-50 10 -50 52q0 30 21 49t50 19q24 0 39.5 -16.5t15.5 -39.5zM208 690l-80 -607h357l-11 -83h-454l91 690h97z" />
    <glyph glyph-name="lcaron" unicode="&#x13e;" horiz-adv-x="327" 
d="M373 642v-9q0 -81 -111 -177l-34 34q41 37 69 88q-50 10 -50 52q0 30 21 49t50 19q24 0 39.5 -16.5t15.5 -39.5zM24 0l91 696h95l-91 -696h-95z" />
    <glyph glyph-name="Ldot" unicode="&#x13f;" horiz-adv-x="526" 
d="M208 690l-80 -607h357l-11 -83h-454l91 690h97zM337 402q26 0 42 -17t16 -42q0 -31 -21.5 -51.5t-50.5 -20.5q-25 0 -42.5 17t-17.5 42q0 31 22 51.5t52 20.5z" />
    <glyph glyph-name="ldot" unicode="&#x140;" horiz-adv-x="362" 
d="M24 0l91 696h95l-91 -696h-95zM304 402q26 0 42 -17t16 -42q0 -31 -21.5 -51.5t-50.5 -20.5q-25 0 -42.5 17t-17.5 42q0 31 22 51.5t52 20.5z" />
    <glyph glyph-name="Lslash" unicode="&#x141;" horiz-adv-x="535" 
d="M2 209l13 102l59 33l46 346h97l-38 -286l124 70l-14 -102l-124 -71l-28 -218h357l-11 -83h-454l31 242z" />
    <glyph glyph-name="lslash" unicode="&#x142;" horiz-adv-x="234" 
d="M-1 247l13 97l76 43l41 309h95l-33 -250l77 44l-13 -97l-77 -44l-45 -349h-95l38 291z" />
    <glyph glyph-name="Nacute" unicode="&#x143;" horiz-adv-x="683" 
d="M564 690h97l-89 -690h-146l-233 587l-76 -587h-97l89 690h146l233 -589zM562 821l-215 -77l-22 69l205 103z" />
    <glyph glyph-name="nacute" unicode="&#x144;" horiz-adv-x="557" 
d="M325 443q-59 0 -115 -63t-67 -164l-26 -216h-95l68 513h95l-10 -72h4q80 83 178 83q62 0 105.5 -38.5t43.5 -93.5q0 -8 -1 -16l-50 -376h-95l46 347q1 6 1 13q0 30 -21 56.5t-61 26.5zM491 670l-201 -104l-31 62l186 127z" />
    <glyph glyph-name="Ncommaaccent" unicode="&#x145;" horiz-adv-x="683" 
d="M564 690h97l-89 -690h-146l-233 587l-76 -587h-97l89 690h146l233 -589zM351 -106v-9q0 -67 -100 -157l-31 31q38 39 55 71q-50 10 -50 52q0 30 21 49t50 19q24 0 39.5 -16.5t15.5 -39.5z" />
    <glyph glyph-name="ncommaaccent" unicode="&#x146;" horiz-adv-x="557" 
d="M325 443q-59 0 -115 -63t-67 -164l-26 -216h-95l68 513h95l-10 -72h4q80 83 178 83q62 0 105.5 -38.5t43.5 -93.5q0 -8 -1 -16l-50 -376h-95l46 347q1 6 1 13q0 30 -21 56.5t-61 26.5zM297 -106v-9q0 -67 -100 -157l-31 31q38 39 55 71q-50 10 -50 52q0 30 21 49t50 19
q24 0 39.5 -16.5t15.5 -39.5z" />
    <glyph glyph-name="Ncaron" unicode="&#x147;" horiz-adv-x="683" 
d="M564 690h97l-89 -690h-146l-233 587l-76 -587h-97l89 690h146l233 -589zM439 751h-81l-133 116l60 60l116 -100l142 100l50 -67z" />
    <glyph glyph-name="ncaron" unicode="&#x148;" horiz-adv-x="557" 
d="M325 443q-59 0 -115 -63t-67 -164l-26 -216h-95l68 513h95l-10 -72h4q80 83 178 83q62 0 105.5 -38.5t43.5 -93.5q0 -8 -1 -16l-50 -376h-95l46 347q1 6 1 13q0 30 -21 56.5t-61 26.5zM360 568h-80l-113 116l59 58l97 -100l123 100l49 -64z" />
    <glyph glyph-name="napostrophe" unicode="&#x149;" horiz-adv-x="607" 
d="M160 667v-9q0 -81 -111 -177l-34 34q41 37 69 88q-50 10 -50 52q0 30 21 49t50 19q24 0 39.5 -16.5t15.5 -39.5zM375 443q-59 0 -115 -63t-67 -164l-26 -216h-95l68 513h95l-10 -72h4q80 83 178 83q62 0 105.5 -38.5t43.5 -93.5q0 -8 -1 -16l-50 -376h-95l46 347
q1 6 1 13q0 30 -21 56.5t-61 26.5z" />
    <glyph glyph-name="Eng" unicode="&#x14a;" horiz-adv-x="683" 
d="M564 690h97l-83 -655q-15 -126 -78 -186t-184 -60q-59 0 -145 35l39 79q64 -30 117 -30q121 0 150 138l-283 576l-77 -587h-97l89 690h147l243 -506z" />
    <glyph glyph-name="eng" unicode="&#x14b;" horiz-adv-x="557" 
d="M449 -43q-9 -68 -64 -115t-149 -47h-13l10 81h11q46 0 76.5 29.5t36.5 70.5l49 371q1 6 1 13q0 30 -21 56.5t-61 26.5q-59 0 -115 -63t-67 -164l-26 -216h-95l68 513h95l-10 -72h4q80 83 178 83q62 0 105.5 -38.5t43.5 -93.5q0 -8 -1 -16z" />
    <glyph glyph-name="Omacron" unicode="&#x14c;" horiz-adv-x="693" 
d="M320 76q97 0 164 88q66 88 66 208q0 114 -56 184q-46 58 -122 58q-104 0 -171 -97q-59 -85 -59 -199q0 -87 34 -151q47 -91 144 -91zM313 -8q-131 0 -205 103q-67 90 -67 219q0 149 80 256q98 128 258 128q131 0 205 -102q67 -90 67 -219q0 -149 -80 -256
q-98 -129 -258 -129zM238 797l11 83h304l-11 -83h-304z" />
    <glyph glyph-name="omacron" unicode="&#x14d;" horiz-adv-x="578" 
d="M269 73q65 0 115 53q57 62 57 150q0 74 -32 120q-34 47 -100 47q-76 0 -126 -62q-46 -58 -46 -141q0 -76 33 -122q34 -45 99 -45zM261 -8q-107 0 -169 75q-54 65 -54 169q0 115 66 194q78 94 213 94q107 0 169 -75q54 -65 54 -169q0 -113 -66 -192q-82 -96 -213 -96z
M186 617l10 77h288l-10 -77h-288z" />
    <glyph glyph-name="Obreve" unicode="&#x14e;" horiz-adv-x="693" 
d="M320 76q97 0 164 88q66 88 66 208q0 114 -56 184q-46 58 -122 58q-104 0 -171 -97q-59 -85 -59 -199q0 -87 34 -151q47 -91 144 -91zM313 -8q-131 0 -205 103q-67 90 -67 219q0 149 80 256q98 128 258 128q131 0 205 -102q67 -90 67 -219q0 -149 -80 -256
q-98 -129 -258 -129zM475 918h84q-4 -67 -55.5 -113t-114.5 -46q-62 0 -104.5 41t-42.5 102v16h84v-8q0 -30 20 -50.5t50 -20.5q29 0 53 22.5t26 56.5z" />
    <glyph glyph-name="obreve" unicode="&#x14f;" horiz-adv-x="578" 
d="M269 73q65 0 115 53q57 62 57 150q0 74 -32 120q-34 47 -100 47q-76 0 -126 -62q-46 -58 -46 -141q0 -76 33 -122q34 -45 99 -45zM261 -8q-107 0 -169 75q-54 65 -54 169q0 115 66 194q78 94 213 94q107 0 169 -75q54 -65 54 -169q0 -113 -66 -192q-82 -96 -213 -96z
M403 730h84q-4 -63 -53 -106.5t-110 -43.5q-58 0 -97.5 38.5t-39.5 96.5v15h84v-7q0 -26 17 -44t42 -18q29 0 50 20t23 49z" />
    <glyph glyph-name="Ohungarumlaut" unicode="&#x150;" horiz-adv-x="693" 
d="M320 76q97 0 164 88q66 88 66 208q0 114 -56 184q-46 58 -122 58q-104 0 -171 -97q-59 -85 -59 -199q0 -87 34 -151q47 -91 144 -91zM313 -8q-131 0 -205 103q-67 90 -67 219q0 149 80 256q98 128 258 128q131 0 205 -102q67 -90 67 -219q0 -149 -80 -256
q-98 -129 -258 -129zM264 800l161 147l57 -76l-176 -127zM439 806l177 127l47 -83l-189 -106z" />
    <glyph glyph-name="ohungarumlaut" unicode="&#x151;" horiz-adv-x="578" 
d="M269 73q65 0 115 53q57 62 57 150q0 74 -32 120q-34 47 -100 47q-76 0 -126 -62q-46 -58 -46 -141q0 -76 33 -122q34 -45 99 -45zM261 -8q-107 0 -169 75q-54 65 -54 169q0 115 66 194q78 94 213 94q107 0 169 -75q54 -65 54 -169q0 -113 -66 -192q-82 -96 -213 -96z
M397 552l-34 60l166 123l48 -81zM239 555l-42 55l153 140l58 -73z" />
    <glyph glyph-name="OE" unicode="&#x152;" horiz-adv-x="1033" 
d="M297 -7q-122 0 -193 103q-63 91 -63 219q0 148 76 254q90 129 243 129q117 0 192 -107l13 99h455l-11 -83h-358l-28 -216h318l-11 -83h-318l-30 -225h378l-11 -83h-475l8 61q-81 -68 -185 -68zM307 76q90 0 152 88q46 66 59 173q2 12 2 38q0 110 -52 181q-43 58 -113 58
q-96 0 -158 -97q-55 -84 -55 -199q0 -88 31 -151q45 -91 134 -91z" />
    <glyph glyph-name="oe" unicode="&#x153;" horiz-adv-x="962" 
d="M918 232h-389q6 -159 133 -159q39 0 78.5 29t68.5 82l85 -40q-34 -71 -99 -111.5t-142 -40.5q-132 0 -180 114q-74 -114 -212 -114q-107 0 -169 75q-54 65 -54 169q0 115 66 194q78 94 213 94q125 0 177 -113q68 113 215 113q93 0 153.5 -65t60.5 -165q0 -25 -5 -62z
M269 73q65 0 115 53q57 62 57 150q0 74 -32 120q-34 47 -100 47q-76 0 -126 -62q-46 -58 -46 -141q0 -76 33 -122q34 -45 99 -45zM702 443q-48 0 -96.5 -33t-66.5 -103h285q-6 71 -41.5 103.5t-80.5 32.5z" />
    <glyph glyph-name="Racute" unicode="&#x154;" horiz-adv-x="651" 
d="M614 491q0 -69 -45.5 -119.5t-113.5 -69.5l123 -302h-103l-117 288h-203l-38 -288h-97l91 690h317q84 0 135 -53t51 -146zM197 607l-31 -236h212q55 0 95 32.5t40 87.5q0 116 -93 116h-223zM539 821l-215 -77l-22 69l205 103z" />
    <glyph glyph-name="racute" unicode="&#x155;" horiz-adv-x="388" 
d="M349 433q-67 0 -129.5 -62t-75.5 -163l-27 -208h-95l68 513h95l-11 -82h14q78 85 174 85q9 0 23 -2l-10 -84q-12 3 -26 3zM461 670l-201 -104l-31 62l186 127z" />
    <glyph glyph-name="Rcommaaccent" unicode="&#x156;" horiz-adv-x="651" 
d="M614 491q0 -69 -45.5 -119.5t-113.5 -69.5l123 -302h-103l-117 288h-203l-38 -288h-97l91 690h317q84 0 135 -53t51 -146zM197 607l-31 -236h212q55 0 95 32.5t40 87.5q0 116 -93 116h-223zM332 -106v-9q0 -67 -100 -157l-31 31q38 39 55 71q-50 10 -50 52q0 30 21 49
t50 19q24 0 39.5 -16.5t15.5 -39.5z" />
    <glyph glyph-name="rcommaaccent" unicode="&#x157;" horiz-adv-x="388" 
d="M349 433q-67 0 -129.5 -62t-75.5 -163l-27 -208h-95l68 513h95l-11 -82h14q78 85 174 85q9 0 23 -2l-10 -84q-12 3 -26 3zM120 -106v-9q0 -67 -100 -157l-31 31q38 39 55 71q-50 10 -50 52q0 30 21 49t50 19q24 0 39.5 -16.5t15.5 -39.5z" />
    <glyph glyph-name="Rcaron" unicode="&#x158;" horiz-adv-x="651" 
d="M614 491q0 -69 -45.5 -119.5t-113.5 -69.5l123 -302h-103l-117 288h-203l-38 -288h-97l91 690h317q84 0 135 -53t51 -146zM197 607l-31 -236h212q55 0 95 32.5t40 87.5q0 116 -93 116h-223zM396 751h-81l-133 116l60 60l116 -100l142 100l50 -67z" />
    <glyph glyph-name="rcaron" unicode="&#x159;" horiz-adv-x="388" 
d="M349 433q-67 0 -129.5 -62t-75.5 -163l-27 -208h-95l68 513h95l-11 -82h14q78 85 174 85q9 0 23 -2l-10 -84q-12 3 -26 3zM300 568h-80l-113 116l59 58l97 -100l123 100l49 -64z" />
    <glyph glyph-name="Sacute" unicode="&#x15a;" horiz-adv-x="635" 
d="M329 698q110 0 185.5 -61.5t75.5 -143.5h-100q0 50 -48 85.5t-120 35.5q-57 0 -112 -34.5t-55 -84.5q0 -20 8.5 -35.5t19 -24t33 -15.5t37 -9.5t46 -7.5t45.5 -7q33 -5 51 -9t46 -11.5t43.5 -16t34.5 -22.5t28.5 -32t16.5 -43.5t7 -57.5q0 -96 -83 -154t-208 -58
q-34 0 -69.5 7.5t-72 25.5t-65 44.5t-46.5 69t-18 94.5h100q0 -79 51.5 -118t125.5 -39q76 0 130 32t54 95q0 19 -3.5 34t-8 25t-15 18t-19.5 12.5t-27 8.5t-30.5 6t-37 5.5t-41.5 6.5l-16 3q-26 4 -40.5 7t-45.5 11.5t-50 20t-40.5 29t-32 44t-10.5 59.5q0 89 85 147
t191 58zM527 821l-215 -77l-22 69l205 103z" />
    <glyph glyph-name="sacute" unicode="&#x15b;" horiz-adv-x="532" 
d="M243 224q-33 4 -62.5 12.5t-57 24.5t-44 43t-16.5 62q0 77 70 117.5t154 40.5q76 0 138.5 -39.5t62.5 -108.5v-16h-99v11q0 35 -31.5 53.5t-78.5 18.5q-38 0 -77.5 -19.5t-39.5 -51.5q0 -20 9 -33.5t28.5 -20.5t39 -10.5t51.5 -6.5q191 -15 191 -142q0 -53 -37 -92.5
t-87 -57t-103 -17.5q-88 0 -156 45t-68 127v7h99v-7q0 -44 37.5 -67.5t86.5 -23.5q43 0 85.5 21.5t42.5 63.5q0 15 -6.5 26.5t-15.5 17.5t-25.5 10.5t-28 5.5t-32.5 3t-30 3zM450 670l-201 -104l-31 62l186 127z" />
    <glyph glyph-name="Scircumflex" unicode="&#x15c;" horiz-adv-x="635" 
d="M329 698q110 0 185.5 -61.5t75.5 -143.5h-100q0 50 -48 85.5t-120 35.5q-57 0 -112 -34.5t-55 -84.5q0 -20 8.5 -35.5t19 -24t33 -15.5t37 -9.5t46 -7.5t45.5 -7q33 -5 51 -9t46 -11.5t43.5 -16t34.5 -22.5t28.5 -32t16.5 -43.5t7 -57.5q0 -96 -83 -154t-208 -58
q-34 0 -69.5 7.5t-72 25.5t-65 44.5t-46.5 69t-18 94.5h100q0 -79 51.5 -118t125.5 -39q76 0 130 32t54 95q0 19 -3.5 34t-8 25t-15 18t-19.5 12.5t-27 8.5t-30.5 6t-37 5.5t-41.5 6.5l-16 3q-26 4 -40.5 7t-45.5 11.5t-50 20t-40.5 29t-32 44t-10.5 59.5q0 89 85 147
t191 58zM319 927h81l133 -116l-60 -60l-116 100l-142 -100l-50 67z" />
    <glyph glyph-name="scircumflex" unicode="&#x15d;" horiz-adv-x="532" 
d="M243 224q-33 4 -62.5 12.5t-57 24.5t-44 43t-16.5 62q0 77 70 117.5t154 40.5q76 0 138.5 -39.5t62.5 -108.5v-16h-99v11q0 35 -31.5 53.5t-78.5 18.5q-38 0 -77.5 -19.5t-39.5 -51.5q0 -20 9 -33.5t28.5 -20.5t39 -10.5t51.5 -6.5q191 -15 191 -142q0 -53 -37 -92.5
t-87 -57t-103 -17.5q-88 0 -156 45t-68 127v7h99v-7q0 -44 37.5 -67.5t86.5 -23.5q43 0 85.5 21.5t42.5 63.5q0 15 -6.5 26.5t-15.5 17.5t-25.5 10.5t-28 5.5t-32.5 3t-30 3zM263 742h80l113 -116l-59 -58l-97 100l-123 -100l-49 64z" />
    <glyph glyph-name="Scedilla" unicode="&#x15e;" horiz-adv-x="635" 
d="M329 698q110 0 185.5 -61.5t75.5 -143.5h-100q0 50 -48 85.5t-120 35.5q-57 0 -112 -34.5t-55 -84.5q0 -20 8.5 -35.5t19 -24t33 -15.5t37 -9.5t46 -7.5t45.5 -7q33 -5 51 -9t46 -11.5t43.5 -16t34.5 -22.5t28.5 -32t16.5 -43.5t7 -57.5q0 -87 -69.5 -143.5t-178.5 -66.5
l-4 -32q38 -24 38 -72q0 -42 -36 -72.5t-86 -30.5q-42 0 -69.5 18.5t-31.5 37.5l79 35q7 -17 30 -17q12 0 20 8t8 21q0 23 -51 23l10 83q-41 6 -78 22t-70 43t-53 71.5t-20 100.5h100q0 -79 51.5 -118t125.5 -39q76 0 130 32t54 95q0 22 -3.5 38t-13 27t-18 17.5t-27.5 12
t-32.5 7.5t-42 6.5t-46.5 7.5l-16 3q-26 4 -40.5 7t-45 11.5t-49.5 20t-40.5 29t-32 44t-10.5 59.5q0 89 85 147t191 58z" />
    <glyph glyph-name="scedilla" unicode="&#x15f;" horiz-adv-x="532" 
d="M243 224q-33 4 -62.5 12.5t-57 24.5t-44 43t-16.5 62q0 77 70 117.5t154 40.5q76 0 138.5 -39.5t62.5 -108.5v-16h-99v11q0 35 -31.5 53.5t-78.5 18.5q-38 0 -77.5 -19.5t-39.5 -51.5q0 -20 9 -33.5t28.5 -20.5t39 -10.5t51.5 -6.5q191 -15 191 -142q0 -69 -57 -112
t-133 -52l-4 -41q38 -25 38 -67q0 -40 -36.5 -70t-82.5 -30q-40 0 -66 18t-31 36l77 35q8 -15 30 -15q11 0 19.5 8t8.5 21q0 24 -48 26l9 80q-74 11 -124.5 54.5t-50.5 113.5v7h99v-7q0 -44 37.5 -67.5t86.5 -23.5q43 0 85.5 21.5t42.5 63.5q0 15 -6.5 26.5t-15.5 17.5
t-25.5 10.5t-28 5.5t-32.5 3t-30 3z" />
    <glyph glyph-name="Scaron" unicode="&#x160;" horiz-adv-x="635" 
d="M329 698q110 0 185.5 -61.5t75.5 -143.5h-100q0 50 -48 85.5t-120 35.5q-57 0 -112 -34.5t-55 -84.5q0 -20 8.5 -35.5t19 -24t33 -15.5t37 -9.5t46 -7.5t45.5 -7q33 -5 51 -9t46 -11.5t43.5 -16t34.5 -22.5t28.5 -32t16.5 -43.5t7 -57.5q0 -96 -83 -154t-208 -58
q-34 0 -69.5 7.5t-72 25.5t-65 44.5t-46.5 69t-18 94.5h100q0 -79 51.5 -118t125.5 -39q76 0 130 32t54 95q0 19 -3.5 34t-8 25t-15 18t-19.5 12.5t-27 8.5t-30.5 6t-37 5.5t-41.5 6.5l-16 3q-26 4 -40.5 7t-45.5 11.5t-50 20t-40.5 29t-32 44t-10.5 59.5q0 89 85 147
t191 58zM406 751h-81l-133 116l60 60l116 -100l142 100l50 -67z" />
    <glyph glyph-name="scaron" unicode="&#x161;" horiz-adv-x="532" 
d="M243 224q-33 4 -62.5 12.5t-57 24.5t-44 43t-16.5 62q0 77 70 117.5t154 40.5q76 0 138.5 -39.5t62.5 -108.5v-16h-99v11q0 35 -31.5 53.5t-78.5 18.5q-38 0 -77.5 -19.5t-39.5 -51.5q0 -20 9 -33.5t28.5 -20.5t39 -10.5t51.5 -6.5q191 -15 191 -142q0 -53 -37 -92.5
t-87 -57t-103 -17.5q-88 0 -156 45t-68 127v7h99v-7q0 -44 37.5 -67.5t86.5 -23.5q43 0 85.5 21.5t42.5 63.5q0 15 -6.5 26.5t-15.5 17.5t-25.5 10.5t-28 5.5t-32.5 3t-30 3zM335 568h-80l-113 116l59 58l97 -100l123 100l49 -64z" />
    <glyph glyph-name="Tcommaaccent" unicode="&#x162;" horiz-adv-x="607" 
d="M208 0l80 607h-233l11 83h565l-11 -83h-235l-80 -607l-6 -41q34 -25 34 -69q0 -42 -36 -72.5t-86 -30.5q-42 0 -69.5 18.5t-31.5 37.5l79 35q7 -17 30 -17q12 0 20 8t8 21q0 23 -51 23z" />
    <glyph glyph-name="tcommaaccent" unicode="&#x163;" horiz-adv-x="398" 
d="M87 119l42 317h-97l10 77h97l17 133h95l-17 -133h134l-10 -77h-134l-41 -311q-1 -6 -1 -16q0 -20 9.5 -28t30.5 -8q33 0 56 41l82 -41q-40 -70 -118 -79l-5 -40q38 -25 38 -67q0 -41 -36 -70.5t-83 -29.5q-40 0 -66 18t-31 36l77 35q8 -15 30 -15q11 0 19.5 8t8.5 21
q0 24 -48 26l11 88q-32 14 -51.5 40t-19.5 59q0 10 1 16z" />
    <glyph glyph-name="Tcaron" unicode="&#x164;" horiz-adv-x="607" 
d="M631 690l-11 -83h-235l-80 -607h-97l80 607h-233l11 83h565zM403 751h-81l-133 116l60 60l116 -100l142 100l50 -67z" />
    <glyph glyph-name="tcaron" unicode="&#x165;" horiz-adv-x="398" 
d="M448 751v-9q0 -81 -111 -177l-34 34q41 37 69 88q-50 10 -50 52q0 30 21 49t50 19q24 0 39.5 -16.5t15.5 -39.5zM87 119l42 317h-97l10 77h97l17 133h95l-17 -133h134l-10 -77h-134l-41 -311q-1 -6 -1 -16q0 -20 9.5 -28t30.5 -8q33 0 56 41l82 -41q-45 -81 -143 -81
q-55 0 -93 32t-38 80q0 10 1 15z" />
    <glyph glyph-name="Tbar" unicode="&#x166;" horiz-adv-x="607" 
d="M631 690l-11 -83h-235l-28 -209h149l-11 -83h-149l-41 -315h-97l41 315h-152l11 83h152l28 209h-233l11 83h565z" />
    <glyph glyph-name="tbar" unicode="&#x167;" horiz-adv-x="398" 
d="M87 119l20 154h-97l10 77h97l12 86h-97l10 77h97l17 133h95l-17 -133h134l-10 -77h-134l-12 -86h134l-10 -77h-134l-19 -148q-1 -6 -1 -16q0 -20 9.5 -28t30.5 -8q33 0 56 41l82 -41q-45 -81 -143 -81q-55 0 -93 32t-38 80q0 10 1 15z" />
    <glyph glyph-name="Utilde" unicode="&#x168;" horiz-adv-x="668" 
d="M557 690h97l-60 -434q-19 -133 -89.5 -198.5t-212.5 -65.5q-67 0 -116.5 19t-77 52t-40.5 72.5t-13 85.5q0 27 3 46l58 423h97l-53 -401q-5 -30 -5 -52q0 -88 35 -124.5t126 -36.5q92 0 134.5 49.5t58.5 163.5zM348 910q31 0 53 -16t36.5 -31.5t27.5 -15.5q17 0 21 18
l4 34h85l-4 -34q-6 -42 -39.5 -70.5t-75.5 -28.5q-31 0 -53.5 16t-37 31.5t-27.5 15.5q-18 0 -20 -18l-5 -34h-85l5 34q5 42 39 70.5t76 28.5z" />
    <glyph glyph-name="utilde" unicode="&#x169;" horiz-adv-x="530" 
d="M203 70q59 0 114.5 63t67.5 164l26 216h95l-68 -513h-95l10 72h-4q-80 -83 -178 -83q-62 0 -105.5 38.5t-43.5 93.5q0 8 1 16l50 376h95l-46 -347q-1 -6 -1 -13q0 -30 21 -56.5t61 -26.5zM257 723q29 0 50 -15t35 -30t26 -15q17 0 20 17l4 32h81l-4 -32q-6 -41 -38 -68
t-72 -27q-29 0 -50 15t-35 30t-26 15q-17 0 -19 -17l-5 -32h-81l5 32q5 41 37 68t72 27z" />
    <glyph glyph-name="Umacron" unicode="&#x16a;" horiz-adv-x="668" 
d="M557 690h97l-60 -434q-19 -133 -89.5 -198.5t-212.5 -65.5q-67 0 -116.5 19t-77 52t-40.5 72.5t-13 85.5q0 27 3 46l58 423h97l-53 -401q-5 -30 -5 -52q0 -88 35 -124.5t126 -36.5q92 0 134.5 49.5t58.5 163.5zM243 797l11 83h304l-11 -83h-304z" />
    <glyph glyph-name="umacron" unicode="&#x16b;" horiz-adv-x="530" 
d="M203 70q59 0 114.5 63t67.5 164l26 216h95l-68 -513h-95l10 72h-4q-80 -83 -178 -83q-62 0 -105.5 38.5t-43.5 93.5q0 8 1 16l50 376h95l-46 -347q-1 -6 -1 -13q0 -30 21 -56.5t61 -26.5zM158 617l10 77h288l-10 -77h-288z" />
    <glyph glyph-name="Ubreve" unicode="&#x16c;" horiz-adv-x="668" 
d="M557 690h97l-60 -434q-19 -133 -89.5 -198.5t-212.5 -65.5q-67 0 -116.5 19t-77 52t-40.5 72.5t-13 85.5q0 27 3 46l58 423h97l-53 -401q-5 -30 -5 -52q0 -88 35 -124.5t126 -36.5q92 0 134.5 49.5t58.5 163.5zM484 918h84q-4 -67 -55.5 -113t-114.5 -46q-62 0 -104.5 41
t-42.5 102v16h84v-8q0 -30 20 -50.5t50 -20.5q29 0 53 22.5t26 56.5z" />
    <glyph glyph-name="ubreve" unicode="&#x16d;" horiz-adv-x="530" 
d="M203 70q59 0 114.5 63t67.5 164l26 216h95l-68 -513h-95l10 72h-4q-80 -83 -178 -83q-62 0 -105.5 38.5t-43.5 93.5q0 8 1 16l50 376h95l-46 -347q-1 -6 -1 -13q0 -30 21 -56.5t61 -26.5zM384 730h84q-4 -63 -53 -106.5t-110 -43.5q-58 0 -97.5 38.5t-39.5 96.5v15h84v-7
q0 -26 17 -44t42 -18q29 0 50 20t23 49z" />
    <glyph glyph-name="Uring" unicode="&#x16e;" horiz-adv-x="668" 
d="M557 690h97l-60 -434q-19 -133 -89.5 -198.5t-212.5 -65.5q-67 0 -116.5 19t-77 52t-40.5 72.5t-13 85.5q0 27 3 46l58 423h97l-53 -401q-5 -30 -5 -52q0 -88 35 -124.5t126 -36.5q92 0 134.5 49.5t58.5 163.5zM414 955q46 0 75 -30.5t29 -76.5q0 -55 -38 -91.5
t-90 -36.5q-46 0 -77.5 31t-31.5 76q0 55 39.5 91.5t93.5 36.5zM405 883q-21 0 -36 -14.5t-15 -35.5q0 -17 12 -28.5t29 -11.5q21 0 35.5 14.5t14.5 35.5q0 17 -11.5 28.5t-28.5 11.5z" />
    <glyph glyph-name="uring" unicode="&#x16f;" horiz-adv-x="530" 
d="M203 70q59 0 114.5 63t67.5 164l26 216h95l-68 -513h-95l10 72h-4q-80 -83 -178 -83q-62 0 -105.5 38.5t-43.5 93.5q0 8 1 16l50 376h95l-46 -347q-1 -6 -1 -13q0 -30 21 -56.5t61 -26.5zM325 796q45 0 73.5 -30t28.5 -75q0 -54 -37 -89.5t-88 -35.5q-46 0 -76.5 30.5
t-30.5 74.5q0 54 38 89.5t92 35.5zM315 726q-19 0 -34 -14t-15 -34q0 -17 12 -28.5t29 -11.5q19 0 33.5 14t14.5 34q0 17 -11.5 28.5t-28.5 11.5z" />
    <glyph glyph-name="Uhungarumlaut" unicode="&#x170;" horiz-adv-x="668" 
d="M557 690h97l-60 -434q-19 -133 -89.5 -198.5t-212.5 -65.5q-67 0 -116.5 19t-77 52t-40.5 72.5t-13 85.5q0 27 3 46l58 423h97l-53 -401q-5 -30 -5 -52q0 -88 35 -124.5t126 -36.5q92 0 134.5 49.5t58.5 163.5zM247 800l161 147l57 -76l-176 -127zM422 806l177 127
l47 -83l-189 -106z" />
    <glyph glyph-name="uhungarumlaut" unicode="&#x171;" horiz-adv-x="530" 
d="M203 70q59 0 114.5 63t67.5 164l26 216h95l-68 -513h-95l10 72h-4q-80 -83 -178 -83q-62 0 -105.5 38.5t-43.5 93.5q0 8 1 16l50 376h95l-46 -347q-1 -6 -1 -13q0 -30 21 -56.5t61 -26.5zM320 552l-34 60l166 123l48 -81zM162 555l-42 55l153 140l58 -73z" />
    <glyph glyph-name="Uogonek" unicode="&#x172;" horiz-adv-x="668" 
d="M318 -132q19 0 33 26l77 -39q-45 -67 -127 -67q-44 0 -74 23.5t-30 63.5q0 59 82 117q-123 1 -180 58t-57 155q0 31 4 56l60 429h97l-56 -401q-5 -38 -5 -67q0 -70 34 -108t119 -38q54 0 92 15.5t60.5 46.5t34.5 66.5t19 84.5l56 401h97l-60 -429q-20 -147 -128 -223
q-13 -9 -48 -29.5t-59 -36t-44.5 -39t-20.5 -45.5q0 -20 24 -20z" />
    <glyph glyph-name="uogonek" unicode="&#x173;" horiz-adv-x="530" 
d="M344 6l9 66h-4q-80 -83 -178 -83q-62 0 -105.5 38.5t-43.5 93.5q0 8 1 16l50 376h95l-46 -347q-1 -6 -1 -13q0 -30 21 -56.5t61 -26.5q59 0 115 63t67 164l26 216h95l-68 -513q-44 -22 -77 -55t-33 -59q0 -19 27 -19q16 0 31 23l68 -35q-19 -29 -50.5 -48t-68.5 -19
q-39 0 -68.5 23t-29.5 63q0 72 107 132z" />
    <glyph glyph-name="Wcircumflex" unicode="&#x174;" horiz-adv-x="840" 
d="M498 0l-50 565l-200 -565h-120l-67 690h100l42 -566l188 536h138l48 -536l192 566h100l-251 -690h-120zM449 927h81l133 -116l-60 -60l-116 100l-142 -100l-50 67z" />
    <glyph glyph-name="wcircumflex" unicode="&#x175;" horiz-adv-x="752" 
d="M374 386l-165 -386h-119l-62 513h96l35 -428l179 424h104l63 -424l146 428h101l-196 -513h-119zM376 742h80l113 -116l-59 -58l-97 100l-123 -100l-49 64z" />
    <glyph glyph-name="Ycircumflex" unicode="&#x176;" horiz-adv-x="555" 
d="M280 0h-97l44 337l-183 353h112l129 -270h3l201 270h112l-277 -353zM306 927h81l133 -116l-60 -60l-116 100l-142 -100l-50 67z" />
    <glyph glyph-name="ycircumflex" unicode="&#x177;" horiz-adv-x="496" 
d="M5 -205q-31 0 -55 8l30 78q20 -5 35 -5q34 0 60 18t37 40l48 98l-135 481h98l93 -370l181 370h104l-322 -620q-53 -98 -174 -98zM247 742h80l113 -116l-59 -58l-97 100l-123 -100l-49 64z" />
    <glyph glyph-name="Ydieresis" unicode="&#x178;" horiz-adv-x="555" 
d="M280 0h-97l44 337l-183 353h112l129 -270h3l201 270h112l-277 -353zM444 899q23 0 38 -15.5t15 -38.5q0 -29 -19 -47.5t-47 -18.5q-23 0 -39 15.5t-16 38.5q0 29 20 47.5t48 18.5zM252 899q23 0 38 -15.5t15 -38.5q0 -29 -19 -47.5t-47 -18.5q-23 0 -39 15.5t-16 38.5
q0 29 20 47.5t48 18.5z" />
    <glyph glyph-name="Zacute" unicode="&#x179;" horiz-adv-x="619" 
d="M541 0h-572l11 86l511 521h-411l11 83h530l-11 -85l-513 -522h455zM530 821l-215 -77l-22 69l205 103z" />
    <glyph glyph-name="zacute" unicode="&#x17a;" horiz-adv-x="493" 
d="M432 0h-432l9 71l332 365h-272l10 77h396l-9 -70l-333 -366h309zM463 670l-201 -104l-31 62l186 127z" />
    <glyph glyph-name="Zdotaccent" unicode="&#x17b;" horiz-adv-x="619" 
d="M541 0h-572l11 86l511 521h-411l11 83h530l-11 -85l-513 -522h455zM386 899q23 0 38 -15.5t15 -38.5q0 -29 -19 -47.5t-47 -18.5q-23 0 -39 15.5t-16 38.5q0 29 20 47.5t48 18.5z" />
    <glyph glyph-name="zdotaccent" unicode="&#x17c;" horiz-adv-x="493" 
d="M432 0h-432l9 71l332 365h-272l10 77h396l-9 -70l-333 -366h309zM309 713q23 0 37 -15t14 -37q0 -27 -19 -45t-44 -18q-22 0 -37.5 15t-15.5 37q0 27 19.5 45t45.5 18z" />
    <glyph glyph-name="Zcaron" unicode="&#x17d;" horiz-adv-x="619" 
d="M541 0h-572l11 86l511 521h-411l11 83h530l-11 -85l-513 -522h455zM399 751h-81l-133 116l60 60l116 -100l142 100l50 -67z" />
    <glyph glyph-name="zcaron" unicode="&#x17e;" horiz-adv-x="493" 
d="M432 0h-432l9 71l332 365h-272l10 77h396l-9 -70l-333 -366h309zM328 568h-80l-113 116l59 58l97 -100l123 100l49 -64z" />
    <glyph glyph-name="longs" unicode="&#x17f;" horiz-adv-x="366" 
d="M147 513l9 59q11 71 62 106.5t122 35.5q39 0 77 -19.5t51 -53.5l-82 -43q-9 14 -14.5 20t-16 10.5t-27.5 4.5q-30 0 -52.5 -20t-27.5 -56l-74 -557h-95l57 436h-106l10 77h107z" />
    <glyph glyph-name="uni018F" unicode="&#x18f;" horiz-adv-x="692" 
d="M312 -8q-131 0 -205 103q-67 90 -67 219q0 34 4 62h505q-2 112 -56 180q-46 58 -122 58q-113 0 -181 -97q-22 -31 -35 -65l-89 42q15 38 44 76q19 25 38.5 43.5t52 40t77.5 33t100 11.5q131 0 205 -102q67 -90 67 -219q0 -149 -80 -256q-98 -129 -258 -129zM483 164
q41 56 57 129h-399q5 -72 34 -126q47 -91 144 -91t164 88z" />
    <glyph glyph-name="florin" unicode="&#x192;" horiz-adv-x="522" 
d="M136 62l42 250h-130l13 77h130l13 83q10 68 63 108.5t130 40.5q76 0 122 -26l-46 -74q-46 19 -67 19q-52 0 -75.5 -20.5t-31.5 -64.5l-12 -66h166l-13 -77h-165l-45 -267q-12 -68 -65.5 -108.5t-128.5 -40.5h-31q-65 0 -97 18l45 74q31 -11 69 -11q62 0 82.5 18t31.5 67z
" />
    <glyph glyph-name="uni01B5" unicode="&#x1b5;" horiz-adv-x="619" 
d="M541 0h-572l11 86l214 218h-105l11 83h175l216 220h-411l11 83h530l-11 -85l-215 -218h149l-11 -83h-219l-217 -221h455z" />
    <glyph glyph-name="uni01B6" unicode="&#x1b6;" horiz-adv-x="493" 
d="M432 0h-432l9 71l132 145h-73l10 77h133l130 143h-272l10 77h396l-9 -70l-137 -150h63l-10 -77h-123l-126 -139h309z" />
    <glyph glyph-name="Aringacute" unicode="&#x1fa;" horiz-adv-x="596" 
d="M545 0h-101l-42 196h-246l-94 -196h-100l324 690h116zM330 587l-136 -308h192zM377 945q46 0 75 -30.5t29 -76.5q0 -55 -38 -91.5t-90 -36.5q-46 0 -77.5 31t-31.5 76q0 55 39.5 91.5t93.5 36.5zM368 873q-21 0 -36 -14.5t-15 -35.5q0 -17 12 -28.5t29 -11.5
q21 0 35.5 14.5t14.5 35.5q0 17 -11.5 28.5t-28.5 11.5zM514 1028l-215 -77l-22 69l205 103z" />
    <glyph glyph-name="aringacute" unicode="&#x1fb;" horiz-adv-x="582" 
d="M495 867l-213 -77l-23 66l201 101zM251 -8q-102 0 -161 75q-52 66 -52 169q0 115 62 194q74 94 202 94q86 0 141 -70h12l8 59h95l-68 -513h-95l8 57h-6q-32 -33 -64 -49t-82 -16zM266 73q78 0 126 67q40 56 40 136q0 73 -33 116q-33 51 -95 51q-79 0 -126 -66
q-40 -56 -40 -137q0 -73 33 -116q33 -51 95 -51zM356 785q45 0 73.5 -30t28.5 -75q0 -54 -37 -89.5t-88 -35.5q-46 0 -76.5 30.5t-30.5 74.5q0 54 38 89.5t92 35.5zM346 715q-19 0 -34 -14t-15 -34q0 -17 12 -28.5t29 -11.5q19 0 33.5 14t14.5 34q0 17 -11.5 28.5
t-28.5 11.5z" />
    <glyph glyph-name="AEacute" unicode="&#x1fc;" horiz-adv-x="972" 
d="M415 0l26 196h-239l-134 -196h-107l467 690h531l-10 -83h-356l-29 -216h316l-11 -83h-316l-30 -225h376l-11 -83h-473zM473 607l-216 -328h195l44 328h-23zM804 821l-215 -77l-22 69l205 103z" />
    <glyph glyph-name="aeacute" unicode="&#x1fd;" horiz-adv-x="894" 
d="M850 232h-388q6 -159 132 -159q39 0 78.5 29t68.5 82l85 -40q-34 -71 -99 -111.5t-142 -40.5q-122 0 -178 95q-82 -95 -208 -95q-15 0 -31 1.5t-44.5 10.5t-49 24t-36.5 46t-16 73q0 72 57.5 114t159.5 42h132q8 59 8 68q0 29 -20 50.5t-71 21.5q-37 0 -62.5 -11t-36 -27
t-14.5 -27.5t-4 -19.5h-99q1 12 3.5 26.5t16 41.5t36 47t67.5 35.5t106 15.5q117 0 155 -69q74 69 185 69q93 0 153.5 -65t60.5 -165q0 -25 -5 -62zM355 174l6 54h-120q-56 0 -88 -23t-32 -59q0 -73 92 -73h8q46 0 87.5 30t46.5 71zM634 443q-48 0 -96.5 -33t-66.5 -103h285
q-6 71 -41.5 103.5t-80.5 32.5zM668 670l-201 -104l-31 62l186 127z" />
    <glyph glyph-name="Oslashacute" unicode="&#x1fe;" horiz-adv-x="693" 
d="M94 -43l51 97q-23 19 -37 41q-67 90 -67 219q0 149 80 256q98 128 258 128q51 0 94 -17l44 83l77 -37l-47 -90q19 -16 37 -41q67 -90 67 -219q0 -149 -80 -256q-98 -129 -258 -129q-52 0 -95 17l-46 -88zM320 76q97 0 164 88q66 88 66 208q0 107 -50 176l-241 -461
q27 -11 61 -11zM176 167q5 -12 15 -25l242 462q-26 10 -61 10q-104 0 -171 -97q-59 -85 -59 -199q0 -87 34 -151zM539 821l-215 -77l-22 69l205 103z" />
    <glyph glyph-name="oslashacute" unicode="&#x1ff;" horiz-adv-x="577" 
d="M261 -8q-60 0 -108 25l-70 -92l-63 45l73 95q-1 1 -1 2q-54 65 -54 169q0 115 66 194q78 94 213 94q60 0 107 -25l66 85l63 -45l-68 -89q0 -1 1 -1q54 -65 54 -169q0 -113 -66 -192q-82 -96 -213 -96zM137 240q0 -54 17 -95l217 284q-25 14 -62 14q-76 0 -126 -62
q-46 -58 -46 -141zM269 73q65 0 115 53q57 62 57 150q0 52 -18 94l-217 -284q25 -13 63 -13zM483 670l-201 -104l-31 62l186 127z" />
    <glyph glyph-name="Scommaaccent" unicode="&#x218;" horiz-adv-x="635" 
d="M329 698q110 0 185.5 -61.5t75.5 -143.5h-100q0 50 -48 85.5t-120 35.5q-57 0 -112 -34.5t-55 -84.5q0 -20 8.5 -35.5t19 -24t33 -15.5t37 -9.5t46 -7.5t45.5 -7q33 -5 51 -9t46 -11.5t43.5 -16t34.5 -22.5t28.5 -32t16.5 -43.5t7 -57.5q0 -96 -83 -154t-208 -58
q-34 0 -69.5 7.5t-72 25.5t-65 44.5t-46.5 69t-18 94.5h100q0 -79 51.5 -118t125.5 -39q76 0 130 32t54 95q0 19 -3.5 34t-8 25t-15 18t-19.5 12.5t-27 8.5t-30.5 6t-37 5.5t-41.5 6.5l-16 3q-26 4 -40.5 7t-45.5 11.5t-50 20t-40.5 29t-32 44t-10.5 59.5q0 89 85 147
t191 58zM333 -106v-9q0 -67 -100 -157l-31 31q38 39 55 71q-50 10 -50 52q0 30 21 49t50 19q24 0 39.5 -16.5t15.5 -39.5z" />
    <glyph glyph-name="scommaaccent" unicode="&#x219;" horiz-adv-x="532" 
d="M243 224q-33 4 -62.5 12.5t-57 24.5t-44 43t-16.5 62q0 77 70 117.5t154 40.5q76 0 138.5 -39.5t62.5 -108.5v-16h-99v11q0 35 -31.5 53.5t-78.5 18.5q-38 0 -77.5 -19.5t-39.5 -51.5q0 -20 9 -33.5t28.5 -20.5t39 -10.5t51.5 -6.5q191 -15 191 -142q0 -53 -37 -92.5
t-87 -57t-103 -17.5q-88 0 -156 45t-68 127v7h99v-7q0 -44 37.5 -67.5t86.5 -23.5q43 0 85.5 21.5t42.5 63.5q0 15 -6.5 26.5t-15.5 17.5t-25.5 10.5t-28 5.5t-32.5 3t-30 3zM300 -106v-9q0 -67 -100 -157l-31 31q38 39 55 71q-50 10 -50 52q0 30 21 49t50 19
q24 0 39.5 -16.5t15.5 -39.5z" />
    <glyph glyph-name="uni021A" unicode="&#x21a;" horiz-adv-x="607" 
d="M631 690l-11 -83h-235l-80 -607h-97l80 607h-233l11 83h565zM303 -106v-9q0 -67 -100 -157l-31 31q38 39 55 71q-50 10 -50 52q0 30 21 49t50 19q24 0 39.5 -16.5t15.5 -39.5z" />
    <glyph glyph-name="uni021B" unicode="&#x21b;" horiz-adv-x="398" 
d="M87 119l42 317h-97l10 77h97l17 133h95l-17 -133h134l-10 -77h-134l-41 -311q-1 -6 -1 -16q0 -20 9.5 -28t30.5 -8q33 0 56 41l82 -41q-45 -81 -143 -81q-55 0 -93 32t-38 80q0 10 1 15zM253 -106v-9q0 -67 -100 -157l-31 31q38 39 55 71q-50 10 -50 52q0 30 21 49t50 19
q24 0 39.5 -16.5t15.5 -39.5z" />
    <glyph glyph-name="dotlessj" unicode="&#x237;" horiz-adv-x="209" 
d="M112 -43q-9 -68 -64 -115t-149 -47h-13l10 81h11q46 0 76 29.5t36 70.5l71 537h95z" />
    <glyph glyph-name="uni0259" unicode="&#x259;" horiz-adv-x="570" 
d="M44 284h389q-6 159 -133 159q-39 0 -78.5 -29t-68.5 -82l-85 40q34 71 99 111.5t142 40.5q100 0 161.5 -65.5t61.5 -178.5q0 -121 -75 -204.5t-204 -83.5q-93 0 -153.5 65t-60.5 165q0 25 5 62zM260 73q48 0 96.5 33t66.5 103h-285q6 -71 41.5 -103.5t80.5 -32.5z" />
    <glyph glyph-name="circumflex" unicode="&#x2c6;" horiz-adv-x="416" 
d="M179 742h80l113 -116l-59 -58l-97 100l-123 -100l-49 64z" />
    <glyph glyph-name="caron" unicode="&#x2c7;" horiz-adv-x="416" 
d="M237 568h-80l-113 116l59 58l97 -100l123 100l49 -64z" />
    <glyph glyph-name="uni02C9" unicode="&#x2c9;" horiz-adv-x="386" 
d="M44 617l10 77h288l-10 -77h-288z" />
    <glyph glyph-name="breve" unicode="&#x2d8;" horiz-adv-x="388" 
d="M260 730h84q-4 -63 -53 -106.5t-110 -43.5q-58 0 -97.5 38.5t-39.5 96.5v15h84v-7q0 -26 17 -44t42 -18q29 0 50 20t23 49z" />
    <glyph glyph-name="dotaccent" unicode="&#x2d9;" horiz-adv-x="204" 
d="M109 713q23 0 37 -15t14 -37q0 -27 -19 -45t-44 -18q-22 0 -37.5 15t-15.5 37q0 27 19.5 45t45.5 18z" />
    <glyph glyph-name="ring" unicode="&#x2da;" horiz-adv-x="320" 
d="M174 796q45 0 73.5 -30t28.5 -75q0 -54 -37 -89.5t-88 -35.5q-46 0 -76.5 30.5t-30.5 74.5q0 54 38 89.5t92 35.5zM164 726q-19 0 -34 -14t-15 -34q0 -17 12 -28.5t29 -11.5q19 0 33.5 14t14.5 34q0 17 -11.5 28.5t-28.5 11.5z" />
    <glyph glyph-name="ogonek" unicode="&#x2db;" horiz-adv-x="305" 
d="M140 0h105q-44 -22 -77 -55t-33 -59q0 -19 27 -19q16 0 31 23l68 -35q-19 -29 -50.5 -48t-68.5 -19q-39 0 -68.5 23t-29.5 63q0 69 96 126z" />
    <glyph glyph-name="tilde" unicode="&#x2dc;" horiz-adv-x="418" 
d="M158 723q29 0 50 -15t35 -30t26 -15q17 0 20 17l4 32h81l-4 -32q-6 -41 -38 -68t-72 -27q-29 0 -50 15t-35 30t-26 15q-17 0 -19 -17l-5 -32h-81l5 32q5 41 37 68t72 27z" />
    <glyph glyph-name="hungarumlaut" unicode="&#x2dd;" horiz-adv-x="468" 
d="M244 552l-34 60l166 123l48 -81zM86 555l-42 55l153 140l58 -73z" />
    <glyph glyph-name="uni0394" unicode="&#x394;" horiz-adv-x="560" 
d="M375 690l140 -636l-6 -54h-548l6 54l296 636h112zM408 83l-104 479l-222 -479h326z" />
    <glyph glyph-name="uni03A9" unicode="&#x3a9;" horiz-adv-x="678" 
d="M364 614q-67 -2 -117.5 -48t-74 -111.5t-23.5 -136.5q0 -148 129 -252l-8 -66h-252l9 76h132q-111 127 -111 245q0 66 20 131t58 121t102.5 90.5t145.5 34.5q123 0 194 -75.5t71 -203.5q0 -92 -48 -182.5t-124 -160.5h122l-9 -76h-252l8 66q88 61 145 149t57 188
q0 46 -7 80.5t-25 65.5t-53.5 48t-88.5 17z" />
    <glyph glyph-name="uni03BC" unicode="&#x3bc;" horiz-adv-x="534" 
d="M510 513l-62 -513h-95l7 58q-51 -66 -121 -66q-83 0 -114 59l-29 -238h-95l85 700h95l-33 -274q-3 -21 -3 -38q0 -69 32 -98.5t72 -29.5q44 0 83 40t50 131l33 269h95z" />
    <glyph glyph-name="pi" unicode="&#x3c0;" horiz-adv-x="541" 
d="M338 137l37 299h-177l-53 -436h-96l53 436h-66l9 77h498l-9 -77h-63l-39 -321q-1 -5 -1 -14q0 -32 27 -32h26l-9 -77h-75q-65 0 -65 95q0 23 3 50z" />
    <glyph glyph-name="afii10023" unicode="&#x401;" horiz-adv-x="609" 
d="M596 690l-11 -83h-388l-28 -216h348l-11 -83h-348l-30 -225h408l-11 -83h-505l91 690h485zM471 899q23 0 38 -15.5t15 -38.5q0 -29 -19 -47.5t-47 -18.5q-23 0 -39 15.5t-16 38.5q0 29 20 47.5t48 18.5zM279 899q23 0 38 -15.5t15 -38.5q0 -29 -19 -47.5t-47 -18.5
q-23 0 -39 15.5t-16 38.5q0 29 20 47.5t48 18.5z" />
    <glyph glyph-name="afii10051" unicode="&#x402;" horiz-adv-x="724" 
d="M550 607h-231l-22 -166h8q107 83 193 83q60 0 101 -14t58 -36.5t23.5 -40.5t6.5 -36q0 -2 -57 -440q-9 -68 -64 -115t-149 -47h-13l10 81h11q47 0 77.5 29.5t35.5 70.5q50 387 50 389q0 12 -3.5 23t-13 23.5t-31 20.5t-53.5 8q-64 0 -113.5 -36.5t-74.5 -86t-32 -105.5
l-28 -212h-95l80 607h-169l11 83h495z" />
    <glyph glyph-name="afii10052" unicode="&#x403;" horiz-adv-x="541" 
d="M565 690l-10 -83h-357l-81 -607h-97l91 690h454zM501 821l-215 -77l-22 69l205 103z" />
    <glyph glyph-name="afii10053" unicode="&#x404;" horiz-adv-x="652" 
d="M312 -8q-64 0 -117.5 29t-87.5 78q-66 94 -66 213q0 143 79 253q94 133 256 133q104 0 178 -69q55 -52 74 -126l-91 -42q-10 61 -51 105q-46 48 -119 48q-96 0 -164 -98q-43 -61 -55 -125h312l-11 -83h-307q2 -88 43 -154q47 -78 129 -78q77 0 134 51q44 38 70 106
l89 -41q-29 -76 -94 -130q-86 -70 -201 -70z" />
    <glyph glyph-name="afii10054" unicode="&#x405;" horiz-adv-x="614" 
d="M329 698q110 0 185.5 -61.5t75.5 -143.5h-100q0 50 -48 85.5t-120 35.5q-57 0 -112 -34.5t-55 -84.5q0 -20 8.5 -35.5t19 -24t33 -15.5t37 -9.5t46 -7.5t45.5 -7q33 -5 51 -9t46 -11.5t43.5 -16t34.5 -22.5t28.5 -32t16.5 -43.5t7 -57.5q0 -96 -83 -154t-208 -58
q-34 0 -69.5 7.5t-72 25.5t-65 44.5t-46.5 69t-18 94.5h100q0 -79 51.5 -118t125.5 -39q76 0 130 32t54 95q0 19 -3.5 34t-8 25t-15 18t-19.5 12.5t-27 8.5t-30.5 6t-37 5.5t-41.5 6.5l-16 3q-26 4 -40.5 7t-45.5 11.5t-50 20t-40.5 29t-32 44t-10.5 59.5q0 89 85 147
t191 58z" />
    <glyph glyph-name="afii10055" unicode="&#x406;" horiz-adv-x="230" 
d="M20 0l91 690h97l-91 -690h-97z" />
    <glyph glyph-name="afii10056" unicode="&#x407;" horiz-adv-x="229" 
d="M20 0l91 690h97l-91 -690h-97zM282 899q23 0 38 -15.5t15 -38.5q0 -29 -19 -47.5t-47 -18.5q-23 0 -39 15.5t-16 38.5q0 29 20 47.5t48 18.5zM90 899q23 0 38 -15.5t15 -38.5q0 -29 -19 -47.5t-47 -18.5q-23 0 -39 15.5t-16 38.5q0 29 20 47.5t48 18.5z" />
    <glyph glyph-name="afii10057" unicode="&#x408;" horiz-adv-x="513" 
d="M397 690h98l-61 -441q-16 -126 -76.5 -191.5t-176.5 -65.5q-91 0 -138.5 52.5t-53.5 137.5l96 20q9 -74 28 -100t81 -26q124 0 145 173z" />
    <glyph glyph-name="afii10058" unicode="&#x409;" horiz-adv-x="1070" 
d="M495 0l80 607h-230l-78 -330q-30 -129 -91 -203t-171 -74l10 83q67 10 101 60t56 140l96 407h415l-36 -271h211q84 0 134 -58.5t50 -148.5q0 -86 -63.5 -149t-143.5 -63h-340zM845 336h-209l-28 -216l-5 -37h212q59 0 92.5 41t33.5 88q0 124 -96 124z" />
    <glyph glyph-name="afii10059" unicode="&#x40a;" horiz-adv-x="1015" 
d="M117 0h-97l91 690h97l-36 -271h323l36 271h97l-36 -271h211q84 0 134 -58.5t50 -148.5q0 -86 -63.5 -149t-143.5 -63h-340l44 336h-323zM790 336h-209l-33 -253h212q59 0 92.5 41t33.5 88q0 124 -96 124z" />
    <glyph glyph-name="afii10060" unicode="&#x40b;" horiz-adv-x="742" 
d="M550 607h-231l-22 -166h8q107 83 193 83q60 0 101 -14t58 -36.5t23.5 -40.5t6.5 -36q0 -2 -51 -397h-95q47 363 47 365q0 12 -3.5 23t-13 23.5t-31 20.5t-53.5 8q-64 0 -113.5 -36.5t-74.5 -86t-32 -105.5l-28 -212h-95l80 607h-169l11 83h495z" />
    <glyph glyph-name="afii10061" unicode="&#x40c;" horiz-adv-x="614" 
d="M214 319h-55l-41 -319h-98l89 690h98l-38 -289h7l337 289h123l-347 -299l-2 -12l166 -246q34 -51 76 -51h30l-10 -82h-32q-91 0 -137 69q-126 190 -166 250zM507 821l-215 -77l-22 69l205 103z" />
    <glyph glyph-name="afii10062" unicode="&#x40e;" horiz-adv-x="503" 
d="M571 690l-305 -600q-49 -98 -172 -98q-32 0 -62 10l29 78q28 -7 41 -7q25 0 44 10.5t28.5 23t21.5 33.5l34 71l-157 479h102l117 -354l178 354h101zM418 918h84q-4 -67 -55.5 -113t-114.5 -46q-62 0 -104.5 41t-42.5 102v16h84v-8q0 -30 20 -50.5t50 -20.5q29 0 53 22.5
t26 56.5z" />
    <glyph glyph-name="afii10145" unicode="&#x40f;" horiz-adv-x="613" 
d="M591 690l-89 -690h-192l-26 -144h-86l13 144h-191l89 690h97l-80 -607h288l80 607h97z" />
    <glyph glyph-name="afii10017" unicode="&#x410;" horiz-adv-x="596" 
d="M544 0h-101l-42 196h-246l-94 -196h-100l324 690h116zM329 587l-136 -308h192z" />
    <glyph glyph-name="afii10018" unicode="&#x411;" horiz-adv-x="615" 
d="M161 336l-33 -253h212q59 0 92.5 41t33.5 88q0 124 -96 124h-209zM20 0l91 690h454l-11 -83h-357l-25 -188h211q84 0 134 -58.5t50 -148.5q0 -86 -63.5 -149t-143.5 -63h-340z" />
    <glyph glyph-name="afii10019" unicode="&#x412;" horiz-adv-x="616" 
d="M170 404h208q45 0 77 30t32 72q0 43 -26 72t-80 29h-184zM159 321l-31 -238h237q47 0 73 35t26 84q0 53 -26 86t-77 33h-202zM20 0l91 690h285q79 0 135.5 -51.5t56.5 -124.5q0 -52 -30.5 -90t-81.5 -57v-3q38 -25 63.5 -70.5t25.5 -96.5q0 -83 -55 -140t-133 -57h-357z
" />
    <glyph glyph-name="afii10020" unicode="&#x413;" horiz-adv-x="541" 
d="M565 690l-10 -83h-357l-81 -607h-97l91 690h454z" />
    <glyph glyph-name="afii10021" unicode="&#x414;" horiz-adv-x="672" 
d="M204 690h417l-73 -607h79l-31 -227h-102l17 144h-473l-21 -144h-93l27 227h93q49 58 82 200q14 60 33.5 162t32.5 173zM221 277q-32 -134 -73 -194h303l63 524h-228q-36 -206 -65 -330z" />
    <glyph glyph-name="afii10022" unicode="&#x415;" horiz-adv-x="609" 
d="M596 690l-11 -83h-388l-28 -216h348l-11 -83h-348l-30 -225h408l-11 -83h-505l91 690h485z" />
    <glyph glyph-name="afii10024" unicode="&#x416;" horiz-adv-x="984" 
d="M584 319h-55l-41 -319h-98l41 319h-55l-231 -250q-64 -69 -154 -69h-32l11 82h31q41 0 89 51q184 199 228 246l2 12l-269 299h123l260 -289h7l38 289h98l-38 -289h7l337 289h123l-347 -299l-2 -12l166 -246q34 -51 76 -51h30l-10 -82h-32q-91 0 -137 69
q-126 190 -166 250z" />
    <glyph glyph-name="afii10025" unicode="&#x417;" horiz-adv-x="548" 
d="M294 614q-43 0 -78.5 -27.5t-42.5 -69.5h-101q0 37 20 72t50 58q69 51 154 51q79 0 141 -45q66 -48 66 -127q0 -55 -39 -100q-28 -31 -73 -56q33 -22 60 -59q30 -47 30 -101q0 -88 -73 -151q-72 -67 -178 -67q-87 0 -154 56q-68 55 -72 131h101q5 -41 40 -71
q40 -32 89 -32q55 0 100.5 40.5t45.5 93.5q0 54 -33 86q-37 34 -95 34h-66l10 79h86q45 0 82.5 32.5t37.5 78.5q0 44 -32 69t-76 25z" />
    <glyph glyph-name="afii10026" unicode="&#x418;" horiz-adv-x="683" 
d="M109 690h97l-76 -589l392 589h139l-89 -690h-97l75 587l-391 -587h-139z" />
    <glyph glyph-name="afii10027" unicode="&#x419;" horiz-adv-x="683" 
d="M109 690h97l-76 -589l392 589h139l-89 -690h-97l75 587l-391 -587h-139zM475 918h84q-4 -67 -55.5 -113t-114.5 -46q-62 0 -104.5 41t-42.5 102v16h84v-8q0 -30 20 -50.5t50 -20.5q29 0 53 22.5t26 56.5z" />
    <glyph glyph-name="afii10028" unicode="&#x41a;" horiz-adv-x="614" 
d="M214 319h-55l-41 -319h-98l89 690h98l-38 -289h7l337 289h123l-347 -299l-2 -12l166 -246q34 -51 76 -51h30l-10 -82h-32q-91 0 -137 69q-126 190 -166 250z" />
    <glyph glyph-name="afii10029" unicode="&#x41b;" horiz-adv-x="705" 
d="M274 690h409l-91 -690h-97l80 607h-222q-39 -206 -69 -330q-14 -56 -31.5 -100t-47.5 -87.5t-76 -68.5t-106 -28l11 83q30 3 54 17t39 31t28 46t20 52t16 61q15 60 35.5 162t33.5 173z" />
    <glyph glyph-name="afii10030" unicode="&#x41c;" horiz-adv-x="779" 
d="M286 27l-96 536l-73 -563h-97l89 690h148l101 -567l245 567h154l-89 -690h-97l72 563l-235 -536h-122z" />
    <glyph glyph-name="afii10031" unicode="&#x41d;" horiz-adv-x="671" 
d="M117 0h-97l91 690h97l-38 -286h344l38 286h97l-91 -690h-97l42 321h-344z" />
    <glyph glyph-name="afii10032" unicode="&#x41e;" horiz-adv-x="693" 
d="M320 76q97 0 164 88q66 88 66 208q0 114 -56 184q-46 58 -122 58q-104 0 -171 -97q-59 -85 -59 -199q0 -87 34 -151q47 -91 144 -91zM313 -8q-131 0 -205 103q-67 90 -67 219q0 149 80 256q98 128 258 128q131 0 205 -102q67 -90 67 -219q0 -149 -80 -256
q-98 -129 -258 -129z" />
    <glyph glyph-name="afii10033" unicode="&#x41f;" horiz-adv-x="629" 
d="M118 0h-98l90 690h497l-90 -690h-102l79 607h-297z" />
    <glyph glyph-name="afii10034" unicode="&#x420;" horiz-adv-x="620" 
d="M411 273h-258l-36 -273h-97l91 690h323q84 0 133.5 -58.5t49.5 -147.5q0 -86 -63 -148.5t-143 -62.5zM197 607l-33 -251h227q59 0 92 40.5t33 87.5q0 123 -95 123h-224z" />
    <glyph glyph-name="afii10035" unicode="&#x421;" horiz-adv-x="660" 
d="M312 -8q-64 0 -117.5 29t-87.5 78q-66 94 -66 213q0 143 79 253q94 133 256 133q104 0 178 -69q76 -71 82 -181h-101q-6 74 -49 118q-46 48 -119 48q-96 0 -164 -98q-61 -88 -61 -197q0 -95 43 -165q47 -78 129 -78q77 0 134 51q50 44 75 119h100q-22 -111 -110 -184
q-86 -70 -201 -70z" />
    <glyph glyph-name="afii10036" unicode="&#x422;" horiz-adv-x="607" 
d="M631 690l-11 -83h-235l-80 -607h-97l80 607h-233l11 83h565z" />
    <glyph glyph-name="afii10037" unicode="&#x423;" horiz-adv-x="503" 
d="M571 690l-305 -600q-49 -98 -172 -98q-32 0 -62 10l29 78q28 -7 41 -7q25 0 44 10.5t28.5 23t21.5 33.5l34 71l-157 479h102l117 -354l178 354h101z" />
    <glyph glyph-name="afii10038" unicode="&#x424;" horiz-adv-x="750" 
d="M279 -10l9 75q-123 9 -185 73.5t-62 167.5q0 138 85 232t238 104l9 58h97l-9 -58q123 -9 185 -73.5t62 -166.5q0 -138 -85 -232t-238 -105l-9 -75h-97zM142 320q0 -156 158 -169l53 405q-97 -10 -154 -77t-57 -159zM607 387q0 153 -157 168l-53 -404q97 11 153.5 77.5
t56.5 158.5z" />
    <glyph glyph-name="afii10039" unicode="&#x425;" horiz-adv-x="698" 
d="M656 690l-267 -326l-4 -22l194 -342h-114l-154 280h-6l-226 -280h-112l280 342l4 22l-183 326h113l143 -264h8l211 264h113z" />
    <glyph glyph-name="afii10040" unicode="&#x426;" horiz-adv-x="631" 
d="M586 690l-74 -607h72l-34 -227h-93l18 144h-455l84 690h97l-74 -607h288l74 607h97z" />
    <glyph glyph-name="afii10041" unicode="&#x427;" horiz-adv-x="620" 
d="M503 690h95l-91 -690h-95l42 324h-10q-91 -71 -189 -71q-60 0 -101 13.5t-58.5 35.5t-24 39.5t-6.5 35.5q0 2 41 313h95q-37 -279 -37 -280q0 -12 3.5 -23t13 -24t31.5 -21t54 -8q60 0 110 21.5t70 42.5l21 22z" />
    <glyph glyph-name="afii10042" unicode="&#x428;" horiz-adv-x="959" 
d="M20 0l84 690h97l-74 -607h271l74 607h97l-74 -607h271l74 607h97l-84 -690h-833z" />
    <glyph glyph-name="afii10043" unicode="&#x429;" horiz-adv-x="982" 
d="M826 0h-806l84 690h97l-74 -607h271l74 607h97l-74 -607h271l74 607h97l-74 -607h72l-34 -227h-93z" />
    <glyph glyph-name="afii10044" unicode="&#x42a;" horiz-adv-x="785" 
d="M55 608l11 82h312l-36 -271h211q84 0 134 -58.5t50 -148.5q0 -86 -63.5 -149t-143.5 -63h-340l80 608h-215zM331 336l-33 -253h212q59 0 92.5 41t33.5 88q0 124 -96 124h-209z" />
    <glyph glyph-name="afii10045" unicode="&#x42b;" horiz-adv-x="859" 
d="M161 336l-33 -253h212q59 0 92.5 41t33.5 88q0 124 -96 124h-209zM20 0l91 690h97l-36 -271h211q84 0 134 -58.5t50 -148.5q0 -86 -63.5 -149t-143.5 -63h-340zM649 0l91 690h97l-91 -690h-97z" />
    <glyph glyph-name="afii10046" unicode="&#x42c;" horiz-adv-x="615" 
d="M161 336l-33 -253h212q59 0 92.5 41t33.5 88q0 124 -96 124h-209zM20 0l91 690h97l-36 -271h211q84 0 134 -58.5t50 -148.5q0 -86 -63.5 -149t-143.5 -63h-340z" />
    <glyph glyph-name="afii10047" unicode="&#x42d;" horiz-adv-x="671" 
d="M358 698q64 0 117.5 -29t87.5 -78q66 -94 66 -213q0 -143 -79 -253q-94 -133 -256 -133q-104 0 -178 69q-55 52 -74 126l91 42q10 -61 51 -105q46 -48 119 -48q96 0 164 98q43 61 55 125h-312l11 83h307q-2 88 -43 154q-47 78 -129 78q-77 0 -134 -51q-44 -38 -70 -106
l-89 41q29 76 94 130q86 70 201 70z" />
    <glyph glyph-name="afii10048" unicode="&#x42e;" horiz-adv-x="969" 
d="M589 -8q-131 0 -205 103q-67 90 -67 219v7h-158l-42 -321h-97l91 690h97l-38 -286h155q19 95 72 166q98 128 258 128q131 0 205 -102q67 -90 67 -219q0 -149 -80 -256q-98 -129 -258 -129zM596 76q97 0 164 88q66 88 66 208q0 114 -56 184q-46 58 -122 58
q-104 0 -171 -97q-59 -85 -59 -199q0 -87 34 -151q47 -91 144 -91z" />
    <glyph glyph-name="afii10049" unicode="&#x42f;" horiz-adv-x="709" 
d="M536 288h-127l-203 -219q-65 -69 -154 -69h-32l10 82h31q41 0 89 51q94 101 147 157q-78 11 -116 66.5t-38 130.5q0 83 68 143t152 60h324l-91 -690h-97zM337 371h211l31 236h-203q-53 0 -92.5 -33t-39.5 -87q0 -116 93 -116z" />
    <glyph glyph-name="afii10065" unicode="&#x430;" horiz-adv-x="567" 
d="M175 358h-96q3 17 7 32.5t19.5 42t38 45t65 32.5t97.5 14q53 0 90 -13t55 -35.5t25 -44.5t7 -47q0 -9 -37 -289q0 -27 19 -27t29 20l63 -33q-36 -63 -97 -63q-37 0 -58 21t-21 44h-8q-64 -65 -157 -65h-4q-17 0 -33 1t-46 9t-51 22t-37.5 42.5t-16.5 68.5
q0 67 51.5 110.5t136.5 60.5l167 34q1 8 2 14t1.5 8.5t0.5 4v2.5q0 28 -22.5 51t-75.5 23q-105 0 -114 -85zM226 73q33 0 81.5 26t54.5 73l11 89l-124 -23q-122 -22 -122 -97q0 -28 29 -48t70 -20z" />
    <glyph glyph-name="afii10066" unicode="&#x431;" horiz-adv-x="576" 
d="M537 698l8 -75l-157 -23q-66 -10 -114 -31t-73 -49t-34.5 -45t-17.5 -39q30 39 75.5 63.5t90.5 24.5q99 0 161 -68.5t62 -179.5q0 -121 -79 -202.5t-197 -81.5q-103 0 -163.5 70.5t-60.5 169.5q0 209 83 312t257 131zM267 73q82 0 131 67q41 54 41 136q0 71 -33 117
q-37 50 -99 50q-82 0 -131 -66q-41 -56 -41 -137q0 -71 33 -117q37 -50 99 -50z" />
    <glyph glyph-name="afii10067" unicode="&#x432;" horiz-adv-x="516" 
d="M156 301h150q30 0 51.5 19.5t21.5 47.5q0 29 -17.5 48t-53.5 19h-134zM146 224l-19 -148h174q29 0 45 22t16 52q0 32 -16 53t-46 21h-154zM22 0l68 513h237q59 0 105 -39t46 -92q0 -39 -23 -71t-60 -47q29 -18 47.5 -49t18.5 -68q0 -62 -41 -104.5t-99 -42.5h-299z" />
    <glyph glyph-name="afii10068" unicode="&#x433;" horiz-adv-x="507" 
d="M268 443q-40 0 -84.5 -22t-64.5 -46l-55 63q99 86 219 86q44 0 78.5 -11.5t54.5 -28.5t33 -38t17.5 -36.5t4.5 -27.5q0 -74 -57 -110.5t-141 -45.5q-151 -16 -151 -81q0 -72 124 -72q86 0 154 57l46 -68q-37 -31 -93.5 -50.5t-117.5 -19.5q-104 0 -158 45.5t-54 100.5
q0 30 8 53.5t27 40t35 27t47.5 19.5t47.5 12.5t51 9.5l11 2q27 4 41.5 7.5t37 11t33 20t10.5 30.5q0 34 -27 53t-77 19z" />
    <glyph glyph-name="afii10069" unicode="&#x434;" horiz-adv-x="576" 
d="M538 293q0 -128 -76 -214.5t-201 -86.5q-100 0 -161.5 70t-61.5 171q0 116 73.5 203.5t194.5 87.5q43 0 86.5 -26.5t60.5 -61.5q-34 104 -105 156t-219 54l4 74q118 -1 198.5 -30t125 -87t63 -132.5t18.5 -177.5zM264 73q79 0 125.5 56.5t46.5 146.5q0 72 -34.5 119.5
t-95.5 47.5q-79 0 -124 -59t-45 -144q0 -69 32 -118t95 -49z" />
    <glyph glyph-name="afii10070" unicode="&#x435;" horiz-adv-x="570" 
d="M526 232h-389q6 -159 133 -159q39 0 78.5 29t68.5 82l85 -40q-34 -71 -99 -111.5t-142 -40.5q-100 0 -161.5 65.5t-61.5 178.5q0 121 75 204.5t204 83.5q93 0 153.5 -65t60.5 -165q0 -25 -2 -38zM310 443q-48 0 -96.5 -33t-66.5 -103h285q-6 71 -41.5 103.5t-80.5 32.5z
" />
    <glyph glyph-name="afii10072" unicode="&#x436;" horiz-adv-x="777" 
d="M214 265l2 22l-191 220h118l177 -205h6l28 211h95l-28 -211h6l232 205h118l-249 -220l-2 -22l88 -137q31 -51 77 -51h31l-10 -77h-37q-17 0 -36 3t-50 20t-50 46l-102 156h-26l-29 -225h-95l29 225h-26l-141 -156q-63 -69 -155 -69h-37l11 77h32q41 0 88 51z" />
    <glyph glyph-name="afii10073" unicode="&#x437;" horiz-adv-x="479" 
d="M261 443q-30 0 -53 -15.5t-30 -46.5h-99q2 65 57 104t125 39q63 0 116.5 -35.5t53.5 -97.5q0 -45 -31 -76q-26 -26 -52 -39q34 -24 50.5 -48.5t16.5 -68.5q0 -67 -58 -115q-57 -52 -143 -52q-71 0 -124 42q-57 42 -58 106h99q6 -29 27 -46q26 -21 61 -21q36 0 67 28.5
t31 58.5q0 31 -23 54q-23 21 -64 21h-57l10 77h68q30 0 55.5 20t25.5 50q0 26 -21 43.5t-50 17.5z" />
    <glyph glyph-name="afii10074" unicode="&#x438;" horiz-adv-x="542" 
d="M203 70q59 0 114.5 63t67.5 164l26 216h95l-68 -513h-95l10 72h-4q-80 -83 -178 -83q-62 0 -105.5 38.5t-43.5 93.5q0 8 1 16l50 376h95l-46 -347q-1 -6 -1 -13q0 -30 21 -56.5t61 -26.5z" />
    <glyph glyph-name="afii10075" unicode="&#x439;" horiz-adv-x="542" 
d="M203 70q59 0 114.5 63t67.5 164l26 216h95l-68 -513h-95l10 72h-4q-80 -83 -178 -83q-62 0 -105.5 38.5t-43.5 93.5q0 8 1 16l50 376h95l-46 -347q-1 -6 -1 -13q0 -30 21 -56.5t61 -26.5zM384 730h84q-4 -63 -53 -106.5t-110 -43.5q-58 0 -97.5 38.5t-39.5 96.5v15h84v-7
q0 -26 17 -44t42 -18q29 0 50 20t23 49z" />
    <glyph glyph-name="afii10076" unicode="&#x43a;" horiz-adv-x="507" 
d="M263 287l-2 -22l88 -137q31 -51 77 -51h31l-10 -77h-37q-17 0 -36 3t-50 20t-50 46l-102 156h-26l-29 -225h-95l67 513h95l-28 -211h6l232 205h118z" />
    <glyph glyph-name="afii10077" unicode="&#x43b;" horiz-adv-x="529" 
d="M157 513h348l-67 -513h-95l57 436h-168l-55 -232q-17 -73 -41.5 -117.5t-73.5 -70.5q-34 -16 -95 -16h-10l10 77q52 0 65 12q7 7 12.5 13t9.5 14t7 13.5t6.5 17t4.5 17t5 21.5t6 23z" />
    <glyph glyph-name="afii10078" unicode="&#x43c;" horiz-adv-x="662" 
d="M248 26l-83 343l-48 -369h-95l67 513h137l89 -375l190 375h133l-67 -513h-95l48 369l-172 -343h-104z" />
    <glyph glyph-name="afii10079" unicode="&#x43d;" horiz-adv-x="567" 
d="M117 0h-95l69 513h95l-28 -207h262l28 207h95l-69 -513h-95l30 229h-262z" />
    <glyph glyph-name="afii10080" unicode="&#x43e;" horiz-adv-x="578" 
d="M269 73q65 0 115 53q57 62 57 150q0 74 -32 120q-34 47 -100 47q-76 0 -126 -62q-46 -58 -46 -141q0 -76 33 -122q34 -45 99 -45zM261 -8q-107 0 -169 75q-54 65 -54 169q0 115 66 194q78 94 213 94q107 0 169 -75q54 -65 54 -169q0 -113 -66 -192q-82 -96 -213 -96z" />
    <glyph glyph-name="afii10081" unicode="&#x43f;" horiz-adv-x="557" 
d="M325 443q-59 0 -114.5 -63t-67.5 -164l-26 -216h-95q6 47 16.5 122.5t16 116t11.5 92t8.5 88t2.5 65.5q0 20 -1 29h95q2 -28 2 -38q0 -12 -2 -34h8q80 83 178 83q62 0 105.5 -38.5t43.5 -93.5q0 -8 -1 -16l-50 -376h-95l46 347q1 6 1 13q0 30 -21 56.5t-61 26.5z" />
    <glyph glyph-name="afii10082" unicode="&#x440;" horiz-adv-x="582" 
d="M288 -8q-96 0 -147 65h-14l-32 -244h-94l91 700h95l-8 -59h9q32 37 64.5 53.5t85.5 16.5q98 0 155 -75q51 -67 51 -169q0 -110 -60 -192q-75 -96 -196 -96zM278 73q81 0 126 67q40 54 40 136q0 74 -31 116q-36 51 -96 51q-81 0 -127 -66q-40 -54 -40 -137q0 -72 31 -116
q36 -51 97 -51z" />
    <glyph glyph-name="afii10083" unicode="&#x441;" horiz-adv-x="563" 
d="M256 -8q-105 0 -165 75q-53 66 -53 169q0 115 65 194q76 94 208 94q91 0 151 -57.5t62 -145.5h-100q-2 55 -34 88.5t-86 33.5q-65 0 -110 -50q-56 -62 -57 -153v-6q0 -74 35 -119q34 -42 93 -42q51 0 91 34t54 88h100q-18 -89 -83.5 -146t-170.5 -57z" />
    <glyph glyph-name="afii10084" unicode="&#x442;" horiz-adv-x="893" 
d="M117 0h-95q4 30 14 102.5t14 100t10.5 80.5t9 80.5t5 61t2.5 58.5q0 21 -1 30h95q2 -28 2 -38q0 -12 -2 -34h11q78 83 174 83q115 0 141 -83h12q81 83 181 83q51 0 84 -13.5t46.5 -37t17.5 -41t4 -40.5q0 -3 -0.5 -9.5t-0.5 -7.5l-50 -375h-95l46 345q0 1 0.5 6t0.5 9
q0 18 -4 34t-23.5 32.5t-52.5 16.5q-57 0 -112 -61t-68 -159l-29 -223h-95l46 345q0 1 0.5 6t0.5 9q0 18 -4 34t-23.5 32.5t-52.5 16.5q-58 0 -112.5 -64t-68.5 -167z" />
    <glyph glyph-name="afii10085" unicode="&#x443;" horiz-adv-x="496" 
d="M5 -205q-31 0 -55 8l30 78q20 -5 35 -5q34 0 60 18t37 40l48 98l-135 481h98l93 -370l181 370h104l-322 -620q-53 -98 -174 -98z" />
    <glyph glyph-name="afii10086" unicode="&#x444;" horiz-adv-x="718" 
d="M259 -175l21 169q-86 6 -142.5 43t-78 87t-21.5 113q0 52 16 98.5t50 88.5t96 68.5t145 30.5l21 173h95l-22 -173q65 -5 113 -27.5t75 -56.5t40 -73.5t13 -85.5q0 -52 -16 -99t-50 -89t-95.5 -68.5t-144.5 -30.5l-20 -168h-95zM137 240q0 -66 36 -111t117 -55l45 368
q-108 -10 -153 -67t-45 -135zM581 277q0 145 -152 164l-45 -367q56 5 96.5 25t61.5 49.5t30 61t9 67.5z" />
    <glyph glyph-name="afii10087" unicode="&#x445;" horiz-adv-x="491" 
d="M326 0l-103 187l-140 -187h-115l212 262l1 9l-140 242h106l96 -175l132 175h116l-204 -242l-1 -9l145 -262h-105z" />
    <glyph glyph-name="afii10088" unicode="&#x446;" horiz-adv-x="551" 
d="M411 513h95q1 0 -12.5 -92.5t-27.5 -200t-14 -136.5q0 -30 35 -30h31l-30 -198h-93l18 144q-57 0 -57 41v31h-7q-80 -83 -178 -83q-62 0 -105.5 38.5t-43.5 93.5q0 8 1 16l50 376h95l-46 -347q-1 -6 -1 -13q0 -30 21 -56.5t61 -26.5q59 0 114.5 63t67.5 164z" />
    <glyph glyph-name="afii10089" unicode="&#x447;" horiz-adv-x="530" 
d="M225 241q42 0 81.5 13.5t57.5 26.5l18 13l29 219h95l-67 -513h-95l26 206h-4q-83 -46 -173 -46q-62 0 -105.5 38.5t-43.5 93.5q0 8 1 16l28 205h95l-24 -176q-1 -6 -1 -13q0 -30 21 -56.5t61 -26.5z" />
    <glyph glyph-name="afii10090" unicode="&#x448;" horiz-adv-x="866" 
d="M747 513h95l-68 -513h-95l10 72h-7q-78 -83 -174 -83q-115 0 -141 83h-12q-81 -83 -181 -83q-51 0 -84 13.5t-46.5 37t-17.5 41t-4 40.5q0 3 0.5 9.5t0.5 7.5l50 375h95l-46 -345v-6q-1 -6 -1 -9q0 -18 4 -34t23.5 -32.5t52.5 -16.5q57 0 112.5 61t67.5 159l29 223h95
l-46 -345l-1 -6v-9q0 -18 4 -34t23.5 -32.5t52.5 -16.5q58 0 113.5 64t67.5 167z" />
    <glyph glyph-name="afii10091" unicode="&#x449;" horiz-adv-x="887" 
d="M747 513h95q1 0 -12.5 -92.5t-27.5 -200t-14 -136.5q0 -30 35 -30h31l-30 -198h-93l18 144q-57 0 -57 41v31h-10q-78 -83 -174 -83q-115 0 -141 83h-12q-81 -83 -181 -83q-51 0 -84 13.5t-46.5 37t-17.5 41t-4 40.5q0 3 0.5 9.5t0.5 7.5l50 375h95l-46 -345v-6
q-1 -6 -1 -9q0 -18 4 -34t23.5 -32.5t52.5 -16.5q57 0 112 61t68 159l29 223h95l-46 -345l-1 -6v-9q0 -18 4 -34t23.5 -32.5t52.5 -16.5q58 0 112.5 64t68.5 167z" />
    <glyph glyph-name="afii10092" unicode="&#x44a;" horiz-adv-x="601" 
d="M16 436l10 77h250l-25 -192h157q68 0 108.5 -45t40.5 -114q0 -65 -51.5 -113.5t-116.5 -48.5h-275l58 436h-156zM242 244l-23 -167h150q42 0 65.5 27t23.5 58q0 82 -68 82h-148z" />
    <glyph glyph-name="afii10093" unicode="&#x44b;" horiz-adv-x="715" 
d="M529 0l67 513h95l-67 -513h-95zM150 244l-23 -167h150q42 0 65.5 27t23.5 58q0 82 -68 82h-148zM22 0l68 513h94l-25 -192h157q68 0 108.5 -45t40.5 -114q0 -65 -51.5 -113.5t-116.5 -48.5h-275z" />
    <glyph glyph-name="afii10094" unicode="&#x44c;" horiz-adv-x="509" 
d="M150 244l-23 -167h150q42 0 65.5 27t23.5 58q0 82 -68 82h-148zM22 0l68 513h94l-25 -192h157q68 0 108.5 -45t40.5 -114q0 -65 -51.5 -113.5t-116.5 -48.5h-275z" />
    <glyph glyph-name="afii10095" unicode="&#x44d;" horiz-adv-x="560" 
d="M251 73q50 0 99 36t67 115h-241l7 75h239q-11 144 -132 144q-39 0 -80 -28.5t-70 -81.5l-82 39q34 71 99 111.5t142 40.5q100 0 161.5 -65.5t61.5 -178.5q0 -121 -75 -204.5t-204 -83.5q-75 0 -130.5 44t-74.5 116l88 38q13 -62 48 -89.5t77 -27.5z" />
    <glyph glyph-name="afii10096" unicode="&#x44e;" horiz-adv-x="793" 
d="M476 -8q-107 0 -169 75q-52 62 -54 162h-106l-30 -229h-95l69 513h95l-28 -207h102q17 74 59 124q78 94 213 94q107 0 169 -75q54 -65 54 -169q0 -113 -66 -192q-82 -96 -213 -96zM484 73q65 0 115 53q57 62 57 150q0 74 -32 120q-34 47 -100 47q-76 0 -126 -62
q-46 -58 -46 -141q0 -76 33 -122q34 -45 99 -45z" />
    <glyph glyph-name="afii10097" unicode="&#x44f;" horiz-adv-x="501" 
d="M313 0l26 195h-96l-85 -123q-49 -72 -178 -72h-6l11 77h4q22 0 34.5 1.5t33.5 12.5t36 33l53 77q-46 16 -72 54.5t-26 97.5q0 64 49.5 112t111.5 48h268l-69 -513h-95zM349 272l22 164h-141q-39 0 -60.5 -27t-21.5 -57q0 -80 63 -80h138z" />
    <glyph glyph-name="afii10071" unicode="&#x451;" horiz-adv-x="570" 
d="M526 232h-389q6 -159 133 -159q39 0 78.5 29t68.5 82l85 -40q-34 -71 -99 -111.5t-142 -40.5q-100 0 -161.5 65.5t-61.5 178.5q0 121 75 204.5t204 83.5q93 0 153.5 -65t60.5 -165q0 -25 -2 -38zM310 443q-48 0 -96.5 -33t-66.5 -103h285q-6 71 -41.5 103.5t-80.5 32.5z
M241 713q23 0 37 -15t14 -37q0 -27 -19 -45t-44 -18q-22 0 -37.5 15t-15.5 37q0 27 19.5 45t45.5 18zM429 713q23 0 37 -15t14 -37q0 -27 -19 -45t-44 -18q-22 0 -37.5 15t-15.5 37q0 27 19.5 45t45.5 18z" />
    <glyph glyph-name="afii10099" unicode="&#x452;" horiz-adv-x="563" 
d="M409 360q0 30 -21 56.5t-61 26.5q-59 0 -115 -63t-67 -164l-26 -216h-95l71 543h-60l10 77h60l10 76h95l-10 -76h93l-10 -77h-93l-13 -102h4q80 83 178 83q62 0 105.5 -38.5t43.5 -93.5q0 -8 -1 -16l-56 -419q-9 -68 -64 -115t-149 -47h-13l10 81h11q46 0 76.5 29.5
t36.5 70.5l49 371q1 6 1 13z" />
    <glyph glyph-name="afii10100" unicode="&#x453;" horiz-adv-x="458" 
d="M119 0h-95l67 513h372l-10 -77h-277zM429 670l-201 -104l-31 62l186 127z" />
    <glyph glyph-name="afii10101" unicode="&#x454;" horiz-adv-x="560" 
d="M309 443q-50 0 -99 -36t-67 -115h241l-7 -75h-239q11 -144 132 -144q39 0 80 28.5t70 81.5l82 -39q-34 -71 -99 -111.5t-142 -40.5q-100 0 -161.5 65.5t-61.5 178.5q0 121 75 204.5t204 83.5q75 0 130.5 -44t74.5 -116l-88 -38q-13 62 -48 89.5t-77 27.5z" />
    <glyph glyph-name="afii10102" unicode="&#x455;" horiz-adv-x="532" 
d="M243 224q-33 4 -62.5 12.5t-57 24.5t-44 43t-16.5 62q0 77 70 117.5t154 40.5q76 0 138.5 -39.5t62.5 -108.5v-16h-99v11q0 35 -31.5 53.5t-78.5 18.5q-38 0 -77.5 -19.5t-39.5 -51.5q0 -20 9 -33.5t28.5 -20.5t39 -10.5t51.5 -6.5q191 -15 191 -142q0 -53 -37 -92.5
t-87 -57t-103 -17.5q-88 0 -156 45t-68 127v7h99v-7q0 -44 37.5 -67.5t86.5 -23.5q43 0 85.5 21.5t42.5 63.5q0 15 -6.5 26.5t-15.5 17.5t-25.5 10.5t-28 5.5t-32.5 3t-30 3z" />
    <glyph glyph-name="afii10103" unicode="&#x456;" horiz-adv-x="209" 
d="M22 0l68 513h95l-68 -513h-95zM163 713q23 0 37 -15t14 -37q0 -27 -19 -45t-44 -18q-22 0 -37.5 15t-15.5 37q0 27 19.5 45t45.5 18z" />
    <glyph glyph-name="afii10104" unicode="&#x457;" horiz-adv-x="209" 
d="M22 0l68 513h95l-68 -513h-95zM68 713q23 0 37 -15t14 -37q0 -27 -19 -45t-44 -18q-22 0 -37.5 15t-15.5 37q0 27 19.5 45t45.5 18zM256 713q23 0 37 -15t14 -37q0 -27 -19 -45t-44 -18q-22 0 -37.5 15t-15.5 37q0 27 19.5 45t45.5 18z" />
    <glyph glyph-name="afii10105" unicode="&#x458;" horiz-adv-x="209" 
d="M112 -43q-9 -68 -64 -115t-149 -47h-13l10 81h11q46 0 76 29.5t36 70.5l71 537h95zM163 713q23 0 37 -15t14 -37q0 -27 -19 -45t-44 -18q-22 0 -37.5 15t-15.5 37q0 27 19.5 45t45.5 18z" />
    <glyph glyph-name="afii10106" unicode="&#x459;" horiz-adv-x="832" 
d="M345 0l58 436h-170l-55 -232q-19 -74 -43.5 -118t-72.5 -70q-34 -16 -95 -16h-10l10 77q52 0 66 12q7 7 12.5 13t9.5 14t7 13.5t6.5 17t4.5 17t5 21.5t6 23l75 305h348l-25 -192h157q68 0 108.5 -45t40.5 -114q0 -65 -51.5 -113.5t-116.5 -48.5h-275zM473 244l-23 -167
h150q42 0 65.5 27t23.5 58q0 82 -68 82h-148z" />
    <glyph glyph-name="afii10107" unicode="&#x45a;" horiz-adv-x="850" 
d="M363 0l32 244h-249l-33 -244h-95l68 513h95l-25 -192h249l26 192h94l-25 -192h157q68 0 108.5 -45t40.5 -114q0 -65 -51.5 -113.5t-116.5 -48.5h-275zM491 244l-23 -167h150q42 0 65.5 27t23.5 58q0 82 -68 82h-148z" />
    <glyph glyph-name="afii10108" unicode="&#x45b;" horiz-adv-x="559" 
d="M327 443q-59 0 -115 -63t-67 -164l-26 -216h-95l71 543h-60l10 77h60l10 76h95l-10 -76h93l-10 -77h-93l-13 -102h4q80 83 178 83q62 0 105.5 -38.5t43.5 -93.5q0 -8 -1 -16l-50 -376h-95l46 347q1 6 1 13q0 30 -21 56.5t-61 26.5z" />
    <glyph glyph-name="afii10109" unicode="&#x45c;" horiz-adv-x="507" 
d="M263 287l-2 -22l88 -137q31 -51 77 -51h31l-10 -77h-37q-17 0 -36 3t-50 20t-50 46l-102 156h-26l-29 -225h-95l67 513h95l-28 -211h6l232 205h118zM460 670l-201 -104l-31 62l186 127z" />
    <glyph glyph-name="afii10110" unicode="&#x45e;" horiz-adv-x="496" 
d="M5 -205q-31 0 -55 8l30 78q20 -5 35 -5q34 0 60 18t37 40l48 98l-135 481h98l93 -370l181 370h104l-322 -620q-53 -98 -174 -98zM345 730h84q-4 -63 -53 -106.5t-110 -43.5q-58 0 -97.5 38.5t-39.5 96.5v15h84v-7q0 -26 17 -44t42 -18q29 0 50 20t23 49z" />
    <glyph glyph-name="afii10193" unicode="&#x45f;" horiz-adv-x="537" 
d="M91 513h95l-59 -436h232l59 436h95l-69 -513h-161l-26 -144h-86l13 144h-162z" />
    <glyph glyph-name="afii10050" unicode="&#x490;" horiz-adv-x="540" 
d="M20 0l89 690h347l28 144h86l-16 -227h-359l-78 -607h-97z" />
    <glyph glyph-name="afii10098" unicode="&#x491;" horiz-adv-x="464" 
d="M452 436h-278l-57 -436h-95l67 513h266l29 138h85z" />
    <glyph glyph-name="Wgrave" unicode="&#x1e80;" horiz-adv-x="840" 
d="M498 0l-50 565l-200 -565h-120l-67 690h100l42 -566l188 536h138l48 -536l192 566h100l-251 -690h-120zM539 744l-195 77l56 95l179 -103z" />
    <glyph glyph-name="wgrave" unicode="&#x1e81;" horiz-adv-x="752" 
d="M374 386l-165 -386h-119l-62 513h96l35 -428l179 424h104l63 -424l146 428h101l-196 -513h-119zM406 566l-173 104l68 85l154 -127z" />
    <glyph glyph-name="Wacute" unicode="&#x1e82;" horiz-adv-x="840" 
d="M498 0l-50 565l-200 -565h-120l-67 690h100l42 -566l188 536h138l48 -536l192 566h100l-251 -690h-120zM619 821l-215 -77l-22 69l205 103z" />
    <glyph glyph-name="wacute" unicode="&#x1e83;" horiz-adv-x="752" 
d="M374 386l-165 -386h-119l-62 513h96l35 -428l179 424h104l63 -424l146 428h101l-196 -513h-119zM581 670l-201 -104l-31 62l186 127z" />
    <glyph glyph-name="Wdieresis" unicode="&#x1e84;" horiz-adv-x="840" 
d="M498 0l-50 565l-200 -565h-120l-67 690h100l42 -566l188 536h138l48 -536l192 566h100l-251 -690h-120zM590 899q23 0 38 -15.5t15 -38.5q0 -29 -19 -47.5t-47 -18.5q-23 0 -39 15.5t-16 38.5q0 29 20 47.5t48 18.5zM398 899q23 0 38 -15.5t15 -38.5q0 -29 -19 -47.5
t-47 -18.5q-23 0 -39 15.5t-16 38.5q0 29 20 47.5t48 18.5z" />
    <glyph glyph-name="wdieresis" unicode="&#x1e85;" horiz-adv-x="752" 
d="M374 386l-165 -386h-119l-62 513h96l35 -428l179 424h104l63 -424l146 428h101l-196 -513h-119zM319 713q23 0 37 -15t14 -37q0 -27 -19 -45t-44 -18q-22 0 -37.5 15t-15.5 37q0 27 19.5 45t45.5 18zM507 713q23 0 37 -15t14 -37q0 -27 -19 -45t-44 -18q-22 0 -37.5 15
t-15.5 37q0 27 19.5 45t45.5 18z" />
    <glyph glyph-name="uni1E8A" unicode="&#x1e8a;" horiz-adv-x="636" 
d="M656 690l-267 -326l-4 -22l194 -342h-114l-154 280h-6l-226 -280h-112l280 342l4 22l-183 326h113l143 -264h8l211 264h113zM377 899q23 0 38 -15.5t15 -38.5q0 -29 -19 -47.5t-47 -18.5q-23 0 -39 15.5t-16 38.5q0 29 20 47.5t48 18.5z" />
    <glyph glyph-name="uni1E8B" unicode="&#x1e8b;" horiz-adv-x="491" 
d="M326 0l-103 187l-140 -187h-115l212 262l1 9l-140 242h106l96 -175l132 175h116l-204 -242l-1 -9l145 -262h-105zM285 713q23 0 37 -15t14 -37q0 -27 -19 -45t-44 -18q-22 0 -37.5 15t-15.5 37q0 27 19.5 45t45.5 18z" />
    <glyph glyph-name="Ygrave" unicode="&#x1ef2;" horiz-adv-x="555" 
d="M280 0h-97l44 337l-183 353h112l129 -270h3l201 270h112l-277 -353zM378 744l-195 77l56 95l179 -103z" />
    <glyph glyph-name="ygrave" unicode="&#x1ef3;" horiz-adv-x="496" 
d="M5 -205q-31 0 -55 8l30 78q20 -5 35 -5q34 0 60 18t37 40l48 98l-135 481h98l93 -370l181 370h104l-322 -620q-53 -98 -174 -98zM285 566l-173 104l68 85l154 -127z" />
    <glyph glyph-name="uni2007" unicode="&#x2007;" horiz-adv-x="561" 
 />
    <glyph glyph-name="uni2008" unicode="&#x2008;" horiz-adv-x="230" 
 />
    <glyph glyph-name="uni200B" unicode="&#x200b;" horiz-adv-x="0" 
 />
    <glyph glyph-name="endash" unicode="&#x2013;" horiz-adv-x="615" 
d="M39 211l10 79h523l-10 -79h-523z" />
    <glyph glyph-name="emdash" unicode="&#x2014;" horiz-adv-x="977" 
d="M39 211l10 79h885l-10 -79h-885z" />
    <glyph glyph-name="quoteleft" unicode="&#x2018;" horiz-adv-x="219" 
d="M69 495v9q0 46 38 101.5t103 95.5l28 -37q-37 -32 -54 -52.5t-30 -50.5q20 -2 33 -16.5t13 -35.5q0 -32 -22 -53t-53 -21q-24 0 -40 17.5t-16 42.5z" />
    <glyph glyph-name="quoteright" unicode="&#x2019;" horiz-adv-x="199" 
d="M204 647v-9q0 -46 -38 -101.5t-103 -95.5l-28 37q37 32 54 52.5t30 50.5q-20 2 -33 16.5t-13 35.5q0 32 22 53t53 21q24 0 40 -17.5t16 -42.5z" />
    <glyph glyph-name="quotesinglbase" unicode="&#x201a;" horiz-adv-x="229" 
d="M145 63v-9q0 -46 -38 -101.5t-103 -95.5l-28 37q37 32 54 52.5t30 50.5q-20 2 -33 16.5t-13 35.5q0 32 22 53t53 21q24 0 40 -17.5t16 -42.5z" />
    <glyph glyph-name="quotedblleft" unicode="&#x201c;" horiz-adv-x="385" 
d="M69 495v9q0 46 38 101.5t103 95.5l28 -37q-37 -32 -54 -52.5t-30 -50.5q20 -2 33 -16.5t13 -35.5q0 -32 -22 -53t-53 -21q-24 0 -40 17.5t-16 42.5zM255 495v9q0 46 38 101.5t103 95.5l28 -37q-37 -32 -54 -52.5t-30 -50.5q20 -2 33 -16.5t13 -35.5q0 -32 -22 -53
t-53 -21q-24 0 -40 17.5t-16 42.5z" />
    <glyph glyph-name="quotedblright" unicode="&#x201d;" horiz-adv-x="385" 
d="M204 647v-9q0 -46 -38 -101.5t-103 -95.5l-28 37q37 32 54 52.5t30 50.5q-20 2 -33 16.5t-13 35.5q0 32 22 53t53 21q24 0 40 -17.5t16 -42.5zM390 647v-9q0 -46 -38 -101.5t-103 -95.5l-28 37q37 32 54 52.5t30 50.5q-20 2 -33 16.5t-13 35.5q0 32 22 53t53 21
q24 0 40 -17.5t16 -42.5z" />
    <glyph glyph-name="quotedblbase" unicode="&#x201e;" horiz-adv-x="415" 
d="M145 63v-9q0 -46 -38 -101.5t-103 -95.5l-28 37q37 32 54 52.5t30 50.5q-20 2 -33 16.5t-13 35.5q0 32 22 53t53 21q24 0 40 -17.5t16 -42.5zM331 63v-9q0 -46 -38 -101.5t-103 -95.5l-28 37q37 32 54 52.5t30 50.5q-20 2 -33 16.5t-13 35.5q0 32 22 53t53 21
q24 0 40 -17.5t16 -42.5z" />
    <glyph glyph-name="dagger" unicode="&#x2020;" horiz-adv-x="449" 
d="M44 525h157l21 173h95l-21 -173h157l-10 -79h-157l-67 -548h-95l67 548h-157z" />
    <glyph glyph-name="daggerdbl" unicode="&#x2021;" horiz-adv-x="449" 
d="M-12 71l10 79h157l36 296h-157l10 79h157l21 173h95l-21 -173h157l-10 -79h-157l-36 -296h157l-10 -79h-157l-21 -173h-95l21 173h-157z" />
    <glyph glyph-name="bullet" unicode="&#x2022;" horiz-adv-x="406" 
d="M331 277q0 -53 -37.5 -90t-91.5 -37q-52 0 -89.5 37t-37.5 90q0 54 37 91.5t90 37.5q54 0 91.5 -37.5t37.5 -91.5z" />
    <glyph glyph-name="ellipsis" unicode="&#x2026;" horiz-adv-x="760" 
d="M90 123q26 0 42 -17t16 -42q0 -31 -21.5 -51.5t-50.5 -20.5q-25 0 -42.5 17t-17.5 42q0 31 22 51.5t52 20.5zM355 123q26 0 42 -17t16 -42q0 -31 -21.5 -51.5t-50.5 -20.5q-25 0 -42.5 17t-17.5 42q0 31 22 51.5t52 20.5zM620 123q26 0 42 -17t16 -42q0 -31 -21.5 -51.5
t-50.5 -20.5q-25 0 -42.5 17t-17.5 42q0 31 22 51.5t52 20.5z" />
    <glyph glyph-name="perthousand" unicode="&#x2030;" horiz-adv-x="965" 
d="M510 690h89l-494 -690h-89zM198 700q53 0 87 -36t34 -89q0 -64 -44 -106t-104 -42q-54 0 -90.5 36t-36.5 89q0 64 45.5 106t108.5 42zM188 625q-28 0 -48.5 -19.5t-20.5 -48.5q0 -23 16 -39t40 -16q28 0 48 19.5t20 48.5q0 23 -15.5 39t-39.5 16zM451 263q53 0 87 -36
t34 -89q0 -64 -44 -106t-104 -42q-54 0 -90.5 36t-36.5 89q0 64 45.5 106t108.5 42zM441 188q-28 0 -48.5 -19.5t-20.5 -48.5q0 -23 16 -39t40 -16q28 0 48 19.5t20 48.5q0 23 -15.5 39t-39.5 16zM776 263q53 0 87 -36t34 -89q0 -64 -44 -106t-104 -42q-54 0 -90.5 36
t-36.5 89q0 64 45.5 106t108.5 42zM766 188q-28 0 -48.5 -19.5t-20.5 -48.5q0 -23 16 -39t40 -16q28 0 48 19.5t20 48.5q0 23 -15.5 39t-39.5 16z" />
    <glyph glyph-name="guilsinglleft" unicode="&#x2039;" horiz-adv-x="337" 
d="M308 441l-160 -163l120 -163l-63 -53l-146 212l1 8l198 212z" />
    <glyph glyph-name="guilsinglright" unicode="&#x203a;" horiz-adv-x="337" 
d="M199 278l-120 163l62 53l146 -212l-1 -8l-198 -212l-49 53z" />
    <glyph glyph-name="fraction" unicode="&#x2044;" horiz-adv-x="80" 
d="M255 690h89l-494 -690h-89z" />
    <glyph glyph-name="uni2070" unicode="&#x2070;" horiz-adv-x="298" 
d="M170 691q49 0 74.5 -35t25.5 -85q0 -42 -10.5 -78.5t-43 -66t-82.5 -29.5q-47 0 -71 37.5t-24 88.5q0 64 31.5 116t99.5 52zM164 630q-30 0 -45 -33.5t-15 -72.5q0 -66 39 -66q31 0 46.5 34t15.5 73q0 65 -41 65z" />
    <glyph glyph-name="uni2074" unicode="&#x2074;" horiz-adv-x="271" 
d="M199 407h-67l7 64h-138l6 45l167 181h60l-21 -169h43l-7 -57h-43zM86 528h60l10 75z" />
    <glyph glyph-name="uni2075" unicode="&#x2075;" horiz-adv-x="268" 
d="M31 464l62 16q8 -22 33 -22q18 0 33 11t15 30q0 12 -8 23t-25 11q-31 0 -40 -18l-56 9l38 158h166l-7 -62h-120l-11 -38q21 12 43 12q82 0 82 -92q0 -12 -5 -27.5t-17 -34t-36.5 -31t-58.5 -12.5q-43 0 -63 21.5t-25 45.5z" />
    <glyph glyph-name="uni2076" unicode="&#x2076;" horiz-adv-x="287" 
d="M255 638l-56 -27q-8 21 -33 21q-19 0 -33.5 -12.5t-20 -24t-8.5 -22.5q27 23 53 23q38 0 66 -27.5t28 -64.5q0 -47 -30.5 -77t-87.5 -30q-46 0 -71 33t-25 84q0 30 5.5 58t19 56.5t41 45.5t66.5 17q37 0 58 -16.5t28 -36.5zM140 459q18 0 31.5 12t13.5 29q0 14 -10.5 24
t-25.5 10q-18 0 -31 -11.5t-13 -29.5q0 -15 9.5 -24.5t25.5 -9.5z" />
    <glyph glyph-name="uni2077" unicode="&#x2077;" horiz-adv-x="239" 
d="M120 407h-68l1 2q3 27 9.5 51.5t16.5 45t18 35.5t21.5 31t20.5 23.5t21.5 21.5t16.5 16h-142l7 57h213l-6 -52q-4 -2 -11.5 -7t-27 -24t-36 -42.5t-32.5 -66t-22 -91.5z" />
    <glyph glyph-name="uni2078" unicode="&#x2078;" horiz-adv-x="289" 
d="M38 474q0 23 18 45.5t45 32.5q-39 22 -39 57t32 58.5t72 23.5q44 0 69 -18.5t25 -49.5q0 -21 -16 -40.5t-42 -30.5q28 -13 39.5 -31.5t11.5 -33.5q0 -35 -35 -63t-80 -28t-72.5 21t-27.5 57zM108 488q0 -14 11 -22t27 -8q15 0 27.5 12t12.5 26q0 13 -9 21.5t-24 8.5h-2
q-16 0 -29.5 -12t-13.5 -26zM129 604q0 -26 26 -26q15 0 26 9t11 20q0 24 -30 24q-13 0 -23 -8.5t-10 -18.5z" />
    <glyph glyph-name="uni2079" unicode="&#x2079;" horiz-adv-x="287" 
d="M40 452l56 27q8 -21 33 -21q19 0 33.5 12.5t20 24t8.5 22.5q-27 -23 -53 -23q-38 0 -66 27.5t-28 64.5q0 47 30.5 77t87.5 30q46 0 71 -33t25 -84q0 -30 -5.5 -58t-19 -56.5t-41 -45.5t-66.5 -17q-37 0 -58 16.5t-28 36.5zM155 631q-18 0 -31.5 -12t-13.5 -29
q0 -14 10.5 -24t25.5 -10q18 0 31 11.5t13 29.5q0 15 -10 24.5t-25 9.5z" />
    <glyph glyph-name="uni2080" unicode="&#x2080;" horiz-adv-x="299" 
d="M170 154q49 0 74.5 -35t25.5 -85q0 -42 -10.5 -78.5t-43 -66t-82.5 -29.5q-47 0 -71 37.5t-24 88.5q0 64 31.5 116t99.5 52zM164 93q-30 0 -45 -33.5t-15 -72.5q0 -66 39 -66q31 0 46.5 34t15.5 73q0 65 -41 65z" />
    <glyph glyph-name="uni2081" unicode="&#x2081;" horiz-adv-x="197" 
d="M24 47l8 64q25 0 47.5 11.5t24.5 30.5h65l-34 -283h-67l24 201q-24 -24 -68 -24z" />
    <glyph glyph-name="uni2082" unicode="&#x2082;" horiz-adv-x="277" 
d="M109 -67h132l-7 -62h-211l4 37q4 30 30 55t55 38.5t53 30.5t24 33v3q0 13 -9.5 22t-22.5 9q-20 0 -32.5 -13t-12.5 -34h-64q0 45 34 76.5t81 31.5q38 0 65 -23t27 -60q0 -9 -1 -13q-4 -37 -36 -63t-67.5 -42.5t-41.5 -25.5z" />
    <glyph glyph-name="uni2083" unicode="&#x2083;" horiz-adv-x="280" 
d="M31 -47h69v-4q0 -12 9.5 -20t23.5 -8q15 0 29 10t14 26q0 13 -10 22t-25 9h-23l6 53h23q12 0 24 8t12 21q0 10 -8 17t-21 7t-23 -8t-11 -18h-67q4 34 36.5 60t71.5 26q38 0 63.5 -23t25.5 -55q0 -13 -10.5 -30.5t-32.5 -28.5q37 -17 37 -59q0 -39 -37.5 -69t-81.5 -30
q-40 0 -67.5 24t-27.5 59q0 6 1 11z" />
    <glyph glyph-name="uni2084" unicode="&#x2084;" horiz-adv-x="271" 
d="M199 -130h-67l7 64h-138l6 45l167 181h60l-21 -169h43l-7 -57h-43zM86 -9h60l10 75z" />
    <glyph glyph-name="uni2085" unicode="&#x2085;" horiz-adv-x="268" 
d="M31 -73l62 16q8 -22 33 -22q18 0 33 11t15 30q0 12 -8 23t-25 11q-31 0 -40 -18l-56 9l38 158h166l-7 -62h-120l-11 -38q21 12 43 12q82 0 82 -92q0 -12 -5 -27.5t-17 -34t-36.5 -31t-58.5 -12.5q-43 0 -63 21.5t-25 45.5z" />
    <glyph glyph-name="uni2086" unicode="&#x2086;" horiz-adv-x="287" 
d="M255 101l-56 -27q-8 21 -33 21q-19 0 -33.5 -12.5t-20 -24t-8.5 -22.5q27 23 53 23q38 0 66 -27.5t28 -64.5q0 -47 -30.5 -77t-87.5 -30q-46 0 -71 33t-25 84q0 30 5.5 58t19 56.5t41 45.5t66.5 17q37 0 58 -16.5t28 -36.5zM140 -78q18 0 31.5 12t13.5 29q0 14 -10.5 24
t-25.5 10q-18 0 -31 -11.5t-13 -29.5q0 -14 9.5 -24t25.5 -10z" />
    <glyph glyph-name="uni2087" unicode="&#x2087;" horiz-adv-x="239" 
d="M120 -130h-68l1 2q3 27 9.5 51.5t16.5 45t18 35.5t21.5 31t20.5 23.5t21.5 21.5t16.5 16h-142l7 57h213l-6 -52q-4 -2 -11.5 -7t-27 -24t-36 -42.5t-32.5 -66t-22 -91.5z" />
    <glyph glyph-name="uni2088" unicode="&#x2088;" horiz-adv-x="289" 
d="M38 -63q0 23 18 45.5t45 32.5q-39 22 -39 57t32 58.5t72 23.5q44 0 69 -18.5t25 -49.5q0 -21 -16 -40.5t-42 -30.5q28 -13 39.5 -31.5t11.5 -33.5q0 -35 -35 -63t-80 -28t-72.5 21t-27.5 57zM108 -49q0 -14 11 -22t27 -8q15 0 27.5 12t12.5 26q0 13 -9 21.5t-24 8.5h-2
q-16 0 -29.5 -12t-13.5 -26zM129 67q0 -26 26 -26q15 0 26 9t11 20q0 24 -30 24q-13 0 -23 -8.5t-10 -18.5z" />
    <glyph glyph-name="uni2089" unicode="&#x2089;" horiz-adv-x="287" 
d="M40 -85l56 27q8 -21 33 -21q19 0 33.5 12.5t20 24t8.5 22.5q-27 -23 -53 -23q-38 0 -66 27.5t-28 64.5q0 47 30.5 77t87.5 30q46 0 71 -33t25 -84q0 -30 -5.5 -58t-19 -56.5t-41 -45.5t-66.5 -17q-37 0 -58 16.5t-28 36.5zM155 94q-18 0 -31.5 -12t-13.5 -29
q0 -14 10.5 -24t25.5 -10q18 0 31 11.5t13 29.5q0 14 -10 24t-25 10z" />
    <glyph glyph-name="Euro" unicode="&#x20ac;" horiz-adv-x="571" 
d="M17 315l32 74h61q15 51 47 95q77 105 208 105q96 0 157 -74l-46 -98q-13 41 -39 64q-25 27 -75 27q-65 0 -114 -58q-23 -29 -36 -61h252l-33 -74h-239q-3 -23 -3 -45v-5h220l-33 -74h-180q9 -41 29 -69q34 -49 97 -49q51 0 98 45q22 20 38 51l62 -66l-2 -3
q-81 -108 -208 -108q-104 0 -165 84q-34 47 -47 115h-96l32 74h58v1q0 24 3 49h-78z" />
    <glyph glyph-name="uni2117" unicode="&#x2117;" horiz-adv-x="531" 
d="M259 424v-62h39q13 0 22 8.5t9 20.5q0 14 -9 23.5t-22 9.5h-39zM38 344q0 99 70 169.5t169 70.5t169.5 -70.5t70.5 -169.5t-70.5 -169t-169.5 -70t-169 70t-70 169zM99 344q0 -74 52.5 -126t125.5 -52q74 0 126.5 52.5t52.5 125.5q0 74 -53 126.5t-126 52.5t-125.5 -52.5
t-52.5 -126.5zM198 223v253h108q37 0 61.5 -25.5t24.5 -64.5q0 -32 -24.5 -55.5t-61.5 -23.5h-47v-84h-61z" />
    <glyph glyph-name="trademark" unicode="&#x2122;" horiz-adv-x="667" 
d="M345 690l-7 -59h-108l-35 -287h-64l35 287h-107l7 59h279zM652 344h-64l25 209l-64 -138h-76l-28 139l-26 -210h-64l42 346h79l45 -209q19 47 48 106t47 103h78z" />
    <glyph glyph-name="Omega" unicode="&#x2126;" horiz-adv-x="678" 
d="M364 614q-67 -2 -117.5 -48t-74 -111.5t-23.5 -136.5q0 -148 129 -252l-8 -66h-252l9 76h132q-111 127 -111 245q0 66 20 131t58 121t102.5 90.5t145.5 34.5q123 0 194 -75.5t71 -203.5q0 -92 -48 -182.5t-124 -160.5h122l-9 -76h-252l8 66q88 61 145 149t57 188
q0 46 -7 80.5t-25 65.5t-53.5 48t-88.5 17z" />
    <glyph glyph-name="onethird" unicode="&#x2153;" 
d="M509 690h89l-494 -690h-89zM106 584l8 64q25 0 47.5 11.5t24.5 30.5h65l-35 -283h-67l25 201q-24 -24 -68 -24zM326 90h69v-4q0 -12 9.5 -20t23.5 -8q15 0 29 10t14 26q0 13 -10 22t-25 9h-23l6 53h23q12 0 24 8t12 21q0 10 -8 17t-21 7t-23 -8t-11 -18h-67q4 34 36.5 60
t71.5 26q38 0 63.5 -23t25.5 -55q0 -13 -10.5 -30.5t-32.5 -28.5q37 -17 37 -59q0 -39 -37.5 -69t-81.5 -30q-40 0 -67.5 24t-27.5 59q0 6 1 11z" />
    <glyph glyph-name="twothirds" unicode="&#x2154;" 
d="M509 690h89l-494 -690h-89zM326 90h69v-4q0 -12 9.5 -20t23.5 -8q15 0 29 10t14 26q0 13 -10 22t-25 9h-23l6 53h23q12 0 24 8t12 21q0 10 -8 17t-21 7t-23 -8t-11 -18h-67q4 34 36.5 60t71.5 26q38 0 63.5 -23t25.5 -55q0 -13 -10.5 -30.5t-32.5 -28.5q37 -17 37 -59
q0 -39 -37.5 -69t-81.5 -30q-40 0 -67.5 24t-27.5 59q0 6 1 11zM122 471h132l-7 -62h-211l4 37q4 30 30 55t55 38.5t53 30.5t24 33v3q0 13 -9.5 22t-22.5 9q-20 0 -32.5 -13t-12.5 -34h-64q0 45 34 76.5t81 31.5q38 0 65 -23t27 -60q0 -9 -1 -13q-4 -37 -36 -63t-67.5 -42.5
t-41.5 -25.5z" />
    <glyph glyph-name="uni2155" unicode="&#x2155;" 
d="M509 690h89l-494 -690h-89zM106 584l8 64q25 0 47.5 11.5t24.5 30.5h65l-35 -283h-67l25 201q-24 -24 -68 -24zM328 63l62 16q8 -22 33 -22q18 0 33 11t15 30q0 12 -8 23t-25 11q-31 0 -40 -18l-56 9l38 158h166l-7 -62h-120l-11 -38q21 12 43 12q82 0 82 -92
q0 -12 -5 -27.5t-17 -34t-36.5 -31t-58.5 -12.5q-43 0 -63 21.5t-25 45.5z" />
    <glyph glyph-name="uni2156" unicode="&#x2156;" 
d="M509 690h89l-494 -690h-89zM122 471h132l-7 -62h-211l4 37q4 30 30 55t55 38.5t53 30.5t24 33v3q0 13 -9.5 22t-22.5 9q-20 0 -32.5 -13t-12.5 -34h-64q0 45 34 76.5t81 31.5q38 0 65 -23t27 -60q0 -9 -1 -13q-4 -37 -36 -63t-67.5 -42.5t-41.5 -25.5zM331 63l62 16
q8 -22 33 -22q18 0 33 11t15 30q0 12 -8 23t-25 11q-31 0 -40 -18l-56 9l38 158h166l-7 -62h-120l-11 -38q21 12 43 12q82 0 82 -92q0 -12 -5 -27.5t-17 -34t-36.5 -31t-58.5 -12.5q-43 0 -63 21.5t-25 45.5z" />
    <glyph glyph-name="uni2157" unicode="&#x2157;" 
d="M509 690h89l-494 -690h-89zM62 497h69v-4q0 -12 9.5 -20t23.5 -8q15 0 29 10t14 26q0 13 -10 22t-25 9h-23l6 53h23q12 0 24 8t12 21q0 10 -8 17t-21 7t-23 -8t-11 -18h-67q4 34 36.5 60t71.5 26q38 0 63.5 -23t25.5 -55q0 -13 -10.5 -30.5t-32.5 -28.5q37 -17 37 -59
q0 -39 -37.5 -69t-81.5 -30q-40 0 -67.5 24t-27.5 59q0 6 1 11zM335 63l62 16q8 -22 33 -22q18 0 33 11t15 30q0 12 -8 23t-25 11q-31 0 -40 -18l-56 9l38 158h166l-7 -62h-120l-11 -38q21 12 43 12q82 0 82 -92q0 -12 -5 -27.5t-17 -34t-36.5 -31t-58.5 -12.5
q-43 0 -63 21.5t-25 45.5z" />
    <glyph glyph-name="uni2158" unicode="&#x2158;" 
d="M509 690h89l-494 -690h-89zM225 400h-67l7 64h-138l6 45l167 181h60l-21 -169h43l-7 -57h-43zM112 521h60l10 75zM335 63l62 16q8 -22 33 -22q18 0 33 11t15 30q0 12 -8 23t-25 11q-31 0 -40 -18l-56 9l38 158h166l-7 -62h-120l-11 -38q21 12 43 12q82 0 82 -92
q0 -12 -5 -27.5t-17 -34t-36.5 -31t-58.5 -12.5q-43 0 -63 21.5t-25 45.5z" />
    <glyph glyph-name="uni2159" unicode="&#x2159;" 
d="M509 690h89l-494 -690h-89zM106 584l8 64q25 0 47.5 11.5t24.5 30.5h65l-35 -283h-67l25 201q-24 -24 -68 -24zM538 237l-56 -27q-8 21 -33 21q-19 0 -33.5 -12.5t-20 -24t-8.5 -22.5q27 23 53 23q38 0 66 -27.5t28 -64.5q0 -47 -30.5 -77t-87.5 -30q-46 0 -71 33t-25 84
q0 30 5.5 58t19 56.5t41 45.5t66.5 17q37 0 58 -16.5t28 -36.5zM423 58q18 0 31.5 12t13.5 29q0 14 -10.5 24t-25.5 10q-18 0 -31 -11.5t-13 -29.5q0 -14 10 -24t25 -10z" />
    <glyph glyph-name="uni215A" unicode="&#x215a;" 
d="M509 690h89l-494 -690h-89zM544 237l-56 -27q-8 21 -33 21q-19 0 -33.5 -12.5t-20 -24t-8.5 -22.5q27 23 53 23q38 0 66 -27.5t28 -64.5q0 -47 -30.5 -77t-87.5 -30q-46 0 -71 33t-25 84q0 30 5.5 58t19 56.5t41 45.5t66.5 17q37 0 58 -16.5t28 -36.5zM429 58
q18 0 31.5 12t13.5 29q0 14 -10.5 24t-25.5 10q-18 0 -31 -11.5t-13 -29.5q0 -14 10 -24t25 -10zM110 472l62 16q8 -22 33 -22q18 0 33 11t15 30q0 12 -8 23t-25 11q-31 0 -40 -18l-56 9l38 158h166l-7 -62h-120l-11 -38q21 12 43 12q82 0 82 -92q0 -12 -5 -27.5t-17 -34
t-36.5 -31t-58.5 -12.5q-43 0 -63 21.5t-25 45.5z" />
    <glyph glyph-name="oneeighth" unicode="&#x215b;" 
d="M509 690h89l-494 -690h-89zM106 584l8 64q25 0 47.5 11.5t24.5 30.5h65l-35 -283h-67l25 201q-24 -24 -68 -24zM326 74q0 23 18 45.5t45 32.5q-39 22 -39 57t32 58.5t72 23.5q44 0 69 -18.5t25 -49.5q0 -21 -16 -40.5t-42 -30.5q28 -13 39.5 -31.5t11.5 -33.5
q0 -35 -35 -63t-80 -28t-72.5 21t-27.5 57zM396 88q0 -14 11 -22t27 -8q15 0 27.5 12t12.5 26q0 13 -9 21.5t-24 8.5h-2q-16 0 -29.5 -12t-13.5 -26zM417 204q0 -26 26 -26q15 0 26 9t11 20q0 24 -30 24q-13 0 -23 -8.5t-10 -18.5z" />
    <glyph glyph-name="threeeighths" unicode="&#x215c;" 
d="M509 690h89l-494 -690h-89zM326 74q0 23 18 45.5t45 32.5q-39 22 -39 57t32 58.5t72 23.5q44 0 69 -18.5t25 -49.5q0 -21 -16 -40.5t-42 -30.5q28 -13 39.5 -31.5t11.5 -33.5q0 -35 -35 -63t-80 -28t-72.5 21t-27.5 57zM396 88q0 -14 11 -22t27 -8q15 0 27.5 12t12.5 26
q0 30 -35 30q-16 0 -29.5 -12t-13.5 -26zM417 204q0 -26 26 -26q15 0 26 9t11 20q0 24 -30 24q-13 0 -23 -8.5t-10 -18.5zM62 497h69v-4q0 -12 9.5 -20t23.5 -8q15 0 29 10t14 26q0 13 -10 22t-25 9h-23l6 53h23q12 0 24 8t12 21q0 10 -8 17t-21 7t-23 -8t-11 -18h-67
q4 34 36.5 60t71.5 26q38 0 63.5 -23t25.5 -55q0 -13 -10.5 -30.5t-32.5 -28.5q37 -17 37 -59q0 -39 -37.5 -69t-81.5 -30q-40 0 -67.5 24t-27.5 59q0 6 1 11z" />
    <glyph glyph-name="fiveeighths" unicode="&#x215d;" 
d="M509 690h89l-494 -690h-89zM326 74q0 23 18 45.5t45 32.5q-39 22 -39 57t32 58.5t72 23.5q44 0 69 -18.5t25 -49.5q0 -21 -16 -40.5t-42 -30.5q28 -13 39.5 -31.5t11.5 -33.5q0 -35 -35 -63t-80 -28t-72.5 21t-27.5 57zM396 88q0 -14 11 -22t27 -8q15 0 27.5 12t12.5 26
q0 30 -35 30q-16 0 -29.5 -12t-13.5 -26zM417 204q0 -26 26 -26q15 0 26 9t11 20q0 24 -30 24q-13 0 -23 -8.5t-10 -18.5zM100 472l62 16q8 -22 33 -22q18 0 33 11t15 30q0 12 -8 23t-25 11q-31 0 -40 -18l-56 9l38 158h166l-7 -62h-120l-11 -38q21 12 43 12q82 0 82 -92
q0 -12 -5 -27.5t-17 -34t-36.5 -31t-58.5 -12.5q-43 0 -63 21.5t-25 45.5z" />
    <glyph glyph-name="seveneighths" unicode="&#x215e;" 
d="M509 690h89l-494 -690h-89zM326 74q0 23 18 45.5t45 32.5q-39 22 -39 57t32 58.5t72 23.5q44 0 69 -18.5t25 -49.5q0 -21 -16 -40.5t-42 -30.5q28 -13 39.5 -31.5t11.5 -33.5q0 -35 -35 -63t-80 -28t-72.5 21t-27.5 57zM396 88q0 -14 11 -22t27 -8q15 0 27.5 12t12.5 26
q0 13 -9 21.5t-24 8.5h-2q-16 0 -29.5 -12t-13.5 -26zM417 204q0 -26 26 -26q15 0 26 9t11 20q0 24 -30 24q-13 0 -23 -8.5t-10 -18.5zM219 407h-68l1 2q3 27 9.5 51.5t16.5 45t18 35.5t21.5 31t20.5 23.5t21.5 21.5t16.5 16h-142l7 57h213l-6 -52q-4 -2 -11.5 -7t-27 -24
t-36 -42.5t-32.5 -66t-22 -91.5z" />
    <glyph glyph-name="arrowleft" unicode="&#x2190;" horiz-adv-x="624" 
d="M532 280h-336l110 -126l-54 -51l-168 207v17l168 207l54 -51l-110 -126h336v-77z" />
    <glyph glyph-name="arrowup" unicode="&#x2191;" horiz-adv-x="615" 
d="M269 94v336l-126 -110l-51 54l207 168h17l207 -168l-51 -54l-126 110v-336h-77z" />
    <glyph glyph-name="arrowright" unicode="&#x2192;" horiz-adv-x="624" 
d="M428 280h-336v77h336l-110 126l54 51l168 -207v-17l-168 -207l-54 51z" />
    <glyph glyph-name="arrowdown" unicode="&#x2193;" horiz-adv-x="615" 
d="M269 206v336h77v-336l126 110l51 -54l-207 -168h-17l-207 168l51 54z" />
    <glyph glyph-name="uni2196" unicode="&#x2196;" horiz-adv-x="604" 
d="M412 125l-212 260l-28 -164l-74 9l55 261l13 11h267l-6 -74l-167 6l212 -260z" />
    <glyph glyph-name="uni2197" unicode="&#x2197;" horiz-adv-x="570" 
d="M370 385l-212 -260l-60 49l212 260l-167 -6l-6 74h267l13 -11l55 -261l-74 -9z" />
    <glyph glyph-name="uni2198" unicode="&#x2198;" horiz-adv-x="604" 
d="M192 512l212 -260l28 164l74 -9l-55 -261l-13 -11h-267l6 74l167 -6l-212 260z" />
    <glyph glyph-name="uni2199" unicode="&#x2199;" horiz-adv-x="570" 
d="M200 252l212 260l60 -49l-212 -260l167 6l6 -74h-267l-13 11l-55 261l74 9z" />
    <glyph glyph-name="partialdiff" unicode="&#x2202;" horiz-adv-x="613" 
d="M463 376q23 34 23 121q0 48 -11.5 84.5t-27 55t-35 30t-31 14t-19.5 2.5l11 85q12 0 33 -5.5t52.5 -23.5t58 -45t45.5 -77.5t19 -114.5q0 -54 -11 -117t-39 -134t-68.5 -127.5t-106.5 -94t-146 -37.5q-79 0 -133.5 54.5t-54.5 138.5q0 112 77.5 198t211.5 86
q53 0 96 -30.5t56 -62.5zM224 73q70 0 122.5 56t52.5 137q0 52 -29.5 87t-73.5 35q-68 0 -121 -61t-53 -134q0 -54 26 -87t76 -33z" />
    <glyph glyph-name="Delta" unicode="&#x2206;" horiz-adv-x="560" 
d="M375 690l140 -636l-6 -54h-548l6 54l296 636h112zM408 83l-104 479l-222 -479h326z" />
    <glyph glyph-name="product" unicode="&#x220f;" horiz-adv-x="697" 
d="M527 -48h-98l81 659h-271l-81 -659h-97l81 659h-106l10 83h675l-10 -83h-103z" />
    <glyph glyph-name="summation" unicode="&#x2211;" horiz-adv-x="564" 
d="M60 610l10 80h519l-10 -83h-379l-1 -5l232 -257l-295 -257v-5h379l-10 -83h-519l9 80l301 260l1 9z" />
    <glyph glyph-name="minus" unicode="&#x2212;" horiz-adv-x="498" 
d="M18 262l9 78h426l-9 -78h-426z" />
    <glyph glyph-name="uni2215" unicode="&#x2215;" horiz-adv-x="80" 
d="M255 690h89l-494 -690h-89z" />
    <glyph glyph-name="uni2219" unicode="&#x2219;" horiz-adv-x="236" 
d="M125 402q26 0 42 -17t16 -42q0 -31 -21.5 -51.5t-50.5 -20.5q-25 0 -42.5 17t-17.5 42q0 31 22 51.5t52 20.5z" />
    <glyph glyph-name="radical" unicode="&#x221a;" horiz-adv-x="561" 
d="M769 763h-161l-347 -771h-119l-104 506h101l77 -381l329 729h234z" />
    <glyph glyph-name="infinity" unicode="&#x221e;" 
d="M584 274q0 -59 -40.5 -100t-100.5 -41q-39 0 -72.5 20.5t-72.5 64.5q-4 -4 -23 -21.5t-24.5 -21.5t-21 -16t-25.5 -15t-25.5 -7t-32.5 -4q-53 0 -89.5 36.5t-36.5 81.5q0 58 39.5 99.5t103.5 41.5q91 0 148 -86q6 5 19.5 17.5t18.5 17t16.5 14t17.5 13.5t16.5 10t19 8
t19.5 4t23 2q49 0 86 -32t37 -86zM153 207q34 0 99 52l1 5q-51 54 -87 54q-26 0 -46.5 -16.5t-20.5 -40.5t14 -39t40 -15zM505 263q0 55 -54 55q-32 0 -95 -53v-4q47 -54 84 -54q24 0 44.5 15.5t20.5 40.5z" />
    <glyph glyph-name="integral" unicode="&#x222b;" horiz-adv-x="313" 
d="M53 -23l93 756q5 46 42 79.5t84 33.5h65l-10 -83h-31q-50 0 -56 -50l-93 -756q-5 -46 -42.5 -79.5t-84.5 -33.5h-65l11 83h31q50 0 56 50z" />
    <glyph glyph-name="approxequal" unicode="&#x2248;" horiz-adv-x="523" 
d="M59 117l-51 48q96 93 162 93q34 0 60.5 -15t46 -29.5t36.5 -14.5q40 0 101 62l51 -48q-96 -93 -163 -93q-34 0 -60.5 15t-46 29.5t-36.5 14.5q-40 0 -100 -62zM77 261l-52 48q96 93 163 93q34 0 60.5 -15t46 -29.5t36.5 -14.5q40 0 100 62l51 -48q-96 -93 -162 -93
q-34 0 -60.5 15t-46 29.5t-36.5 14.5q-40 0 -100 -62z" />
    <glyph glyph-name="notequal" unicode="&#x2260;" horiz-adv-x="496" 
d="M29 314l10 78h218l80 134l61 -36l-59 -98h114l-10 -78h-151l-39 -66h182l-10 -78h-219l-78 -132l-62 35l58 97h-113l10 78h150l39 66h-181z" />
    <glyph glyph-name="lessequal" unicode="&#x2264;" horiz-adv-x="538" 
d="M-20 -79l10 79h426l-10 -79h-426zM204 405v1l224 -246l-70 -64l-284 324l364 324l54 -64l-284 -246z" />
    <glyph glyph-name="greaterequal" unicode="&#x2265;" horiz-adv-x="538" 
d="M468 0l-10 -79h-426l10 79h426zM352 406v-1l4 29l-224 246l70 64l284 -324l-364 -324l-54 64z" />
    <glyph glyph-name="dotmath" unicode="&#x22c5;" horiz-adv-x="236" 
d="M125 402q26 0 42 -17t16 -42q0 -31 -21.5 -51.5t-50.5 -20.5q-25 0 -42.5 17t-17.5 42q0 31 22 51.5t52 20.5z" />
    <glyph glyph-name="uni25AF" unicode="&#x25af;" horiz-adv-x="557" 
d="M22 0v690h513v-690h-513zM101 79h355v532h-355v-532z" />
    <glyph glyph-name="lozenge" unicode="&#x25ca;" horiz-adv-x="622" 
d="M30 325l5 40l259 373h128l167 -373l-5 -40l-258 -373h-128zM138 336l135 -296l207 296l2 18l-134 296l-208 -296z" />
    <glyph glyph-name="fi" unicode="&#xfb01;" horiz-adv-x="590" 
d="M403 0l68 513h95l-68 -513h-95zM544 713q23 0 37 -15t14 -37q0 -27 -19 -45t-44 -18q-22 0 -37.5 15t-15.5 37q0 27 19.5 45t45.5 18zM40 513h107l9 59q11 71 62 106.5t122 35.5q46 0 99 -21l-43 -79q-40 19 -68 19q-30 0 -52.5 -20t-27.5 -56l-6 -44h145l-10 -77h-146
l-57 -436h-95l57 436h-106z" />
    <glyph glyph-name="fl" unicode="&#xfb02;" horiz-adv-x="593" 
d="M405 0l91 696h95l-91 -696h-95zM40 513h107l9 59q11 71 62 106.5t122 35.5q46 0 99 -21l-43 -79q-40 19 -68 19q-30 0 -52.5 -20t-27.5 -56l-6 -44h145l-10 -77h-146l-57 -436h-95l57 436h-106z" />
    <glyph glyph-name="i.latn_TRK" horiz-adv-x="209" 
d="M22 0l68 513h95l-68 -513h-95zM163 713q23 0 37 -15t14 -37q0 -27 -19 -45t-44 -18q-22 0 -37.5 15t-15.5 37q0 27 19.5 45t45.5 18z" />
    <glyph glyph-name="Ldot.latn_CAT" horiz-adv-x="526" 
d="M208 690l-80 -607h357l-11 -83h-454l91 690h97zM337 402q26 0 42 -17t16 -42q0 -31 -21.5 -51.5t-50.5 -20.5q-25 0 -42.5 17t-17.5 42q0 31 22 51.5t52 20.5z" />
    <glyph glyph-name="ldot.latn_CAT" horiz-adv-x="362" 
d="M24 0l91 696h95l-91 -696h-95zM304 402q26 0 42 -17t16 -42q0 -31 -21.5 -51.5t-50.5 -20.5q-25 0 -42.5 17t-17.5 42q0 31 22 51.5t52 20.5z" />
    <glyph glyph-name="zero.numr" horiz-adv-x="298" 
d="M170 691q49 0 74.5 -35t25.5 -85q0 -42 -10.5 -78.5t-43 -66t-82.5 -29.5q-47 0 -71 37.5t-24 88.5q0 64 31.5 116t99.5 52zM164 630q-30 0 -45 -33.5t-15 -72.5q0 -66 39 -66q31 0 46.5 34t15.5 73q0 65 -41 65z" />
    <glyph glyph-name="one.numr" horiz-adv-x="197" 
d="M24 584l8 64q25 0 47.5 11.5t24.5 30.5h65l-34 -283h-67l24 201q-24 -24 -68 -24z" />
    <glyph glyph-name="two.numr" horiz-adv-x="277" 
d="M109 470h132l-7 -62h-211l4 37q4 30 30 55t55 38.5t53 30.5t24 33v3q0 13 -9.5 22t-22.5 9q-20 0 -32.5 -13t-12.5 -34h-64q0 45 34 76.5t81 31.5q38 0 65 -23t27 -60q0 -9 -1 -13q-4 -37 -36 -63t-67.5 -42.5t-41.5 -25.5z" />
    <glyph glyph-name="three.numr" horiz-adv-x="280" 
d="M31 490h69v-4q0 -12 9.5 -20t23.5 -8q15 0 29 10t14 26q0 13 -10 22t-25 9h-23l6 53h23q12 0 24 8t12 21q0 10 -8 17t-21 7t-23 -8t-11 -18h-67q4 34 36.5 60t71.5 26q38 0 63.5 -23t25.5 -55q0 -13 -10.5 -30.5t-32.5 -28.5q37 -17 37 -59q0 -39 -37.5 -69t-81.5 -30
q-40 0 -67.5 24t-27.5 59q0 6 1 11z" />
    <glyph glyph-name="four.numr" horiz-adv-x="271" 
d="M199 407h-67l7 64h-138l6 45l167 181h60l-21 -169h43l-7 -57h-43zM86 528h60l10 75z" />
    <glyph glyph-name="five.numr" horiz-adv-x="268" 
d="M31 464l62 16q8 -22 33 -22q18 0 33 11t15 30q0 12 -8 23t-25 11q-31 0 -40 -18l-56 9l38 158h166l-7 -62h-120l-11 -38q21 12 43 12q82 0 82 -92q0 -12 -5 -27.5t-17 -34t-36.5 -31t-58.5 -12.5q-43 0 -63 21.5t-25 45.5z" />
    <glyph glyph-name="six.numr" horiz-adv-x="287" 
d="M255 638l-56 -27q-8 21 -33 21q-19 0 -33.5 -12.5t-20 -24t-8.5 -22.5q27 23 53 23q38 0 66 -27.5t28 -64.5q0 -47 -30.5 -77t-87.5 -30q-46 0 -71 33t-25 84q0 30 5.5 58t19 56.5t41 45.5t66.5 17q37 0 58 -16.5t28 -36.5zM140 459q18 0 31.5 12t13.5 29q0 14 -10.5 24
t-25.5 10q-18 0 -31 -11.5t-13 -29.5q0 -15 9.5 -24.5t25.5 -9.5z" />
    <glyph glyph-name="seven.numr" horiz-adv-x="239" 
d="M120 407h-68l1 2q3 27 9.5 51.5t16.5 45t18 35.5t21.5 31t20.5 23.5t21.5 21.5t16.5 16h-142l7 57h213l-6 -52q-4 -2 -11.5 -7t-27 -24t-36 -42.5t-32.5 -66t-22 -91.5z" />
    <glyph glyph-name="eight.numr" horiz-adv-x="289" 
d="M38 474q0 23 18 45.5t45 32.5q-39 22 -39 57t32 58.5t72 23.5q44 0 69 -18.5t25 -49.5q0 -21 -16 -40.5t-42 -30.5q28 -13 39.5 -31.5t11.5 -33.5q0 -35 -35 -63t-80 -28t-72.5 21t-27.5 57zM108 488q0 -14 11 -22t27 -8q15 0 27.5 12t12.5 26q0 13 -9 21.5t-24 8.5h-2
q-16 0 -29.5 -12t-13.5 -26zM129 604q0 -26 26 -26q15 0 26 9t11 20q0 24 -30 24q-13 0 -23 -8.5t-10 -18.5z" />
    <glyph glyph-name="nine.numr" horiz-adv-x="287" 
d="M40 452l56 27q8 -21 33 -21q19 0 33.5 12.5t20 24t8.5 22.5q-27 -23 -53 -23q-38 0 -66 27.5t-28 64.5q0 47 30.5 77t87.5 30q46 0 71 -33t25 -84q0 -30 -5.5 -58t-19 -56.5t-41 -45.5t-66.5 -17q-37 0 -58 16.5t-28 36.5zM155 631q-18 0 -31.5 -12t-13.5 -29
q0 -14 10.5 -24t25.5 -10q18 0 31 11.5t13 29.5q0 15 -10 24.5t-25 9.5z" />
    <glyph glyph-name="zero.dnom" horiz-adv-x="299" 
d="M170 284q49 0 74.5 -35t25.5 -85q0 -42 -10.5 -78.5t-43 -66t-82.5 -29.5q-47 0 -71 37.5t-24 88.5q0 64 31.5 116t99.5 52zM164 223q-30 0 -45 -33.5t-15 -72.5q0 -66 39 -66q31 0 46.5 34t15.5 73q0 65 -41 65z" />
    <glyph glyph-name="one.dnom" horiz-adv-x="197" 
d="M24 177l8 64q25 0 47.5 11.5t24.5 30.5h65l-34 -283h-67l24 201q-24 -24 -68 -24z" />
    <glyph glyph-name="two.dnom" horiz-adv-x="277" 
d="M109 63h132l-7 -62h-211l4 37q4 30 30 55t55 38.5t53 30.5t24 33v3q0 13 -9.5 22t-22.5 9q-20 0 -32.5 -13t-12.5 -34h-64q0 45 34 76.5t81 31.5q38 0 65 -23t27 -60q0 -9 -1 -13q-4 -37 -36 -63t-67.5 -42.5t-41.5 -25.5z" />
    <glyph glyph-name="three.dnom" horiz-adv-x="280" 
d="M31 83h69v-4q0 -12 9.5 -20t23.5 -8q15 0 29 10t14 26q0 13 -10 22t-25 9h-23l6 53h23q12 0 24 8t12 21q0 10 -8 17t-21 7t-23 -8t-11 -18h-67q4 34 36.5 60t71.5 26q38 0 63.5 -23t25.5 -55q0 -13 -10.5 -30.5t-32.5 -28.5q37 -17 37 -59q0 -39 -37.5 -69t-81.5 -30
q-40 0 -67.5 24t-27.5 59q0 6 1 11z" />
    <glyph glyph-name="four.dnom" horiz-adv-x="271" 
d="M199 0h-67l7 64h-138l6 45l167 181h60l-21 -169h43l-7 -57h-43zM86 121h60l10 75z" />
    <glyph glyph-name="five.dnom" horiz-adv-x="268" 
d="M31 57l62 16q8 -22 33 -22q18 0 33 11t15 30q0 12 -8 23t-25 11q-31 0 -40 -18l-56 9l38 158h166l-7 -62h-120l-11 -38q21 12 43 12q82 0 82 -92q0 -12 -5 -27.5t-17 -34t-36.5 -31t-58.5 -12.5q-43 0 -63 21.5t-25 45.5z" />
    <glyph glyph-name="six.dnom" horiz-adv-x="287" 
d="M255 231l-56 -27q-8 21 -33 21q-19 0 -33.5 -12.5t-20 -24t-8.5 -22.5q27 23 53 23q38 0 66 -27.5t28 -64.5q0 -47 -30.5 -77t-87.5 -30q-46 0 -71 33t-25 84q0 30 5.5 58t19 56.5t41 45.5t66.5 17q37 0 58 -16.5t28 -36.5zM140 52q18 0 31.5 12t13.5 29q0 14 -10.5 24
t-25.5 10q-18 0 -31 -11.5t-13 -29.5q0 -14 9.5 -24t25.5 -10z" />
    <glyph glyph-name="seven.dnom" horiz-adv-x="239" 
d="M120 0h-68l1 2q3 27 9.5 51.5t16.5 45t18 35.5t21.5 31t20.5 23.5t21.5 21.5t16.5 16h-142l7 57h213l-6 -52q-4 -2 -11.5 -7t-27 -24t-36 -42.5t-32.5 -66t-22 -91.5z" />
    <glyph glyph-name="eight.dnom" horiz-adv-x="289" 
d="M38 67q0 23 18 45.5t45 32.5q-39 22 -39 57t32 58.5t72 23.5q44 0 69 -18.5t25 -49.5q0 -21 -16 -40.5t-42 -30.5q28 -13 39.5 -31.5t11.5 -33.5q0 -35 -35 -63t-80 -28t-72.5 21t-27.5 57zM108 81q0 -14 11 -22t27 -8q15 0 27.5 12t12.5 26q0 13 -9 21.5t-24 8.5h-2
q-16 0 -29.5 -12t-13.5 -26zM129 197q0 -26 26 -26q15 0 26 9t11 20q0 24 -30 24q-13 0 -23 -8.5t-10 -18.5z" />
    <glyph glyph-name="nine.dnom" horiz-adv-x="287" 
d="M40 45l56 27q8 -21 33 -21q19 0 33.5 12.5t20 24t8.5 22.5q-27 -23 -53 -23q-38 0 -66 27.5t-28 64.5q0 47 30.5 77t87.5 30q46 0 71 -33t25 -84q0 -30 -5.5 -58t-19 -56.5t-41 -45.5t-66.5 -17q-37 0 -58 16.5t-28 36.5zM155 224q-18 0 -31.5 -12t-13.5 -29
q0 -14 10.5 -24t25.5 -10q18 0 31 11.5t13 29.5q0 14 -10 24t-25 10z" />
    <glyph glyph-name="space.frac" horiz-adv-x="43" 
 />
    <glyph glyph-name="numbersign.lf" 
d="M178 10h-70l45 173h-143l20 78h143l38 148h-145l19 78h145l45 171h70l-45 -171h127l48 171h70l-45 -171h145l-19 -78h-145l-38 -148h147l-20 -78h-147l-45 -173h-70l45 173h-130zM281 409l-38 -148h130l38 148h-130z" />
    <glyph glyph-name="dollar.lf" horiz-adv-x="635" 
d="M70 489q0 76 72 127.5t166 58.5l12 106h90l-14 -112q82 -16 134 -67.5t52 -112.5h-103q0 42 -44 73.5t-110 31.5q-53 0 -103.5 -30t-50.5 -73q0 -15 4 -27.5t15 -21.5t20 -15.5t28.5 -12.5t31 -9t37.5 -8.5t38 -8.5l21 -5q33 -8 48 -11.5t43 -12.5t41.5 -17t33 -21.5
t28 -29.5t15.5 -38.5t7 -50.5q0 -87 -76 -142t-192 -60l-13 -107h-90l14 113q-85 17 -144 72t-59 152h100q0 -74 51.5 -110.5t124.5 -36.5q75 0 129 31.5t54 87.5q0 18 -4 31.5t-15 23.5t-20.5 16t-30.5 12.5t-34.5 9.5t-42.5 9t-46 10l-15 3q-28 6 -46.5 11t-51.5 19
t-53 30.5t-36 46t-16 65.5z" />
    <glyph glyph-name="plus.lf" horiz-adv-x="525" 
d="M24 311l9 79h188l22 178h77l-22 -178h188l-9 -79h-188l-22 -179h-77l22 179h-188z" />
    <glyph glyph-name="zero.lf" horiz-adv-x="585" 
d="M330 617q-48 0 -85 -39.5t-55.5 -98.5t-27.5 -113t-9 -97q0 -50 7.5 -90t32.5 -73t66 -33q48 0 84.5 39.5t55 98t27.5 112t9 96.5q0 36 -4.5 67.5t-15 63t-32.5 49.5t-53 18zM342 698q52 0 90.5 -24t60 -65t32 -88.5t10.5 -100.5q0 -51 -7 -103.5t-27 -112.5
t-50.5 -105.5t-83 -76t-118.5 -30.5q-53 0 -92 24t-61 65.5t-32 88.5t-10 101q0 52 7 104t27 112t50.5 105.5t83.5 75.5t120 30z" />
    <glyph glyph-name="one.lf" horiz-adv-x="350" 
d="M140 0l74 560q-74 -44 -175 -44l10 78q169 0 182 96h95l-91 -690h-95z" />
    <glyph glyph-name="two.lf" horiz-adv-x="543" 
d="M170 491h-98l1 13q2 17 11 39t28.5 50t46 51t68.5 38.5t92 15.5q93 0 145 -59.5t52 -123.5q0 -84 -47.5 -138t-135.5 -102l-15 -8q-40 -22 -63 -35.5t-59 -38.5t-55.5 -49.5t-22.5 -48.5l-2 -17h370l-10 -78h-475l4 26q6 44 17.5 79.5t30.5 63.5t35.5 47.5t46.5 40
t50 32.5t59 33t61 34q34 20 55 36t39 47.5t18 69.5q0 43 -25.5 76t-82.5 33q-59 0 -95 -42.5t-43 -79.5z" />
    <glyph glyph-name="three.lf" horiz-adv-x="526" 
d="M190 330l10 79h81q48 2 83 34.5t35 80.5q0 40 -28.5 67t-73.5 27q-49 0 -85.5 -30t-43.5 -79l-90 27q14 73 74.5 117.5t153.5 44.5q81 0 137 -50.5t56 -113.5q0 -57 -35 -102.5t-93 -65.5q49 -22 76.5 -63.5t27.5 -93.5q0 -94 -71 -155.5t-170 -61.5q-91 0 -156.5 52
t-65.5 126v10h99q2 -50 35.5 -78.5t85.5 -28.5q62 0 103 40t41 101q0 50 -32 83t-84 33h-70z" />
    <glyph glyph-name="four.lf" horiz-adv-x="538" 
d="M0 181l8 63l389 446h93l-57 -431h95l-10 -78h-95l-24 -181h-95l24 181h-328zM377 555l-254 -296h215z" />
    <glyph glyph-name="five.lf" horiz-adv-x="523" 
d="M19 192l93 14q0 -5 0.5 -14t6.5 -32t17 -40.5t35.5 -32t57.5 -14.5q72 0 113 64t41 143q0 31 -6.5 56t-28.5 45.5t-57 20.5q-51 0 -86.5 -33.5t-42.5 -57.5l-97 10l85 369h358l-11 -78h-271q-31 -128 -40 -170l9 6q9 5 19.5 10.5t25 11.5t33 9.5t36.5 3.5q47 0 83 -20.5
t54.5 -51.5t27.5 -62t9 -59q0 -127 -69.5 -212.5t-196.5 -85.5q-86 0 -141 57t-57 143z" />
    <glyph glyph-name="six.lf" horiz-adv-x="581" 
d="M315 387q-62 -1 -108 -55.5t-46 -122.5q0 -66 30.5 -101t82.5 -35q64 0 109 59t45 123q0 59 -28.5 95.5t-84.5 36.5zM556 544l-85 -31q-14 52 -41.5 78t-83.5 26q-66 0 -113 -67t-66 -159q13 14 31 29t53.5 31.5t70.5 16.5q90 0 147.5 -59t57.5 -148q0 -107 -72.5 -188
t-190.5 -81q-108 0 -159 75.5t-51 190.5q0 190 82 315t220 125q160 0 200 -154z" />
    <glyph glyph-name="seven.lf" horiz-adv-x="454" 
d="M165 0h-96v3q48 358 307 609h-330l10 78h441l-9 -70q-6 -4 -15.5 -12t-38.5 -36t-56 -61t-62 -87t-63 -113t-52.5 -140t-35.5 -168v-3z" />
    <glyph glyph-name="eight.lf" horiz-adv-x="542" 
d="M313 618q-52 0 -88 -31.5t-36 -83.5q0 -40 29.5 -67t73.5 -27q49 0 86 33t37 82q0 40 -28.5 67t-73.5 27zM276 329q-60 0 -104.5 -40.5t-44.5 -100.5q0 -54 34 -84.5t87 -30.5q62 0 103 40t41 101q0 50 -32 82.5t-84 32.5zM322 698q81 0 137 -50.5t56 -113.5
q0 -57 -35 -102.5t-93 -65.5q49 -22 76.5 -63.5t27.5 -93.5q0 -94 -71 -155.5t-170 -61.5q-91 0 -156.5 52t-65.5 126q0 69 43 123t111 75q-43 21 -67.5 57t-24.5 80q0 85 64 139t168 54z" />
    <glyph glyph-name="nine.lf" horiz-adv-x="578" 
d="M282 303q62 1 108 55.5t46 122.5q0 66 -30.5 101t-82.5 35q-64 0 -109 -59t-45 -123q0 -59 28.5 -95.5t84.5 -36.5zM41 146l85 31q14 -52 41.5 -78t83.5 -26q66 0 113 67t66 159q-13 -14 -31 -29t-53.5 -31.5t-70.5 -16.5q-90 0 -147.5 59t-57.5 148q0 107 72.5 188
t190.5 81q108 0 159 -75.5t51 -190.5q0 -190 -82 -315t-220 -125q-160 0 -200 154z" />
    <glyph glyph-name="less.lf" horiz-adv-x="504" 
d="M198 326v1l223 -246l-69 -64l-285 324l364 324l54 -64l-284 -246z" />
    <glyph glyph-name="equal.lf" horiz-adv-x="496" 
d="M54 364l10 78h414l-10 -78h-414zM37 220l9 78h414l-9 -78h-414z" />
    <glyph glyph-name="greater.lf" horiz-adv-x="504" 
d="M336 327v-1l3 29l-224 246l70 64l284 -324l-363 -324l-55 64z" />
    <glyph glyph-name="asciitilde.lf" horiz-adv-x="523" 
d="M75 203l-51 48q96 93 163 93q34 0 60.5 -15t45.5 -29.5t36 -14.5q40 0 101 62l51 -48q-96 -93 -162 -93q-34 0 -60.5 15t-46 29.5t-36.5 14.5q-40 0 -101 -62z" />
    <glyph glyph-name="cent.lf" horiz-adv-x="571" 
d="M205 0l10 80q-78 14 -123 71q-53 66 -53 169q0 115 65 194q66 82 175 92l9 73h77l-10 -75q73 -15 121 -70t49 -129h-100q-5 91 -80 116l-43 -359q39 10 68 41.5t41 75.5h100q-16 -81 -72.5 -136.5t-147.5 -64.5l-9 -78h-77zM173 199q21 -28 52 -37l44 360
q-42 -10 -74 -45q-56 -62 -57 -159q0 -74 35 -119z" />
    <glyph glyph-name="sterling.lf" horiz-adv-x="585" 
d="M455 320h-203q0 -5 0.5 -15.5t0.5 -15.5q0 -35 -4 -63q-8 -62 -63 -115q20 6 33 6q43 0 82 -18q46 -17 76 -17q31 0 45.5 18t14.5 46h97q0 -57 -41 -101.5t-95 -44.5q-58 0 -120 22t-96 22q-24 0 -46.5 -6t-37 -13.5t-42.5 -23.5l-5 -2l-33 47q5 2 13 6.5t29 20.5
t37.5 34.5t32 49t19.5 63.5q5 43 5 82v18h-101l9 77h89q-2 58 -2 84q0 33 3 62q9 70 65.5 112.5t140.5 42.5q72 0 127 -42t57 -113h-98q0 7 -3.5 17.5t-12 24.5t-27.5 23.5t-46 9.5q-38 0 -69.5 -22.5t-37.5 -69.5q-4 -28 -4 -65q0 -34 3 -64h217z" />
    <glyph glyph-name="currency.lf" horiz-adv-x="540" 
d="M288 436q-44 0 -76 -30t-32 -75q0 -37 25.5 -62t62.5 -25q43 0 74.5 30t31.5 75q0 37 -24 62t-62 25zM300 531q58 0 104 -33l66 59l48 -55l-69 -59q20 -38 20 -84q0 -70 -42 -127l49 -54l-62 -55l-47 56q-49 -29 -107 -29q-53 0 -109 33l-68 -60l-48 55l71 61
q-21 43 -21 83q0 68 40 122l-51 59l62 55l49 -59q54 32 115 32z" />
    <glyph glyph-name="yen.lf" horiz-adv-x="565" 
d="M293 0h-97l18 153h-141l10 77h141l9 78h-141l10 77h94l-152 295h112l135 -295l208 295h112l-224 -295h93l-10 -77h-140l-9 -78h140l-10 -77h-140z" />
    <glyph glyph-name="section.lf" horiz-adv-x="502" 
d="M150 391q0 -12 8.5 -26t16.5 -22.5t10 -9.5l116 -99h8q57 23 57 70q0 12 -8.5 26t-16 22.5t-9.5 9.5l-116 99h-8q-58 -24 -58 -70zM231 591v-6q0 -19 34 -48l145 -129q48 -43 48 -110q0 -79 -108 -127l4 -5q26 -35 26 -60q0 -45 -43 -78t-112 -33q-62 0 -107 31t-45 80
h95q0 -12 13.5 -22.5t42.5 -10.5q31 0 45.5 10t14.5 23v6q0 19 -34 48l-145 129q-48 43 -48 110q0 79 108 127l-3 4q-27 35 -27 61q0 45 43 78t112 33q62 0 107 -31t45 -80h-95q0 12 -13.5 22.5t-42.5 10.5q-31 0 -45.5 -10t-14.5 -23z" />
    <glyph glyph-name="logicalnot.lf" horiz-adv-x="484" 
d="M24 311l9 79h406l-25 -206h-77l16 127h-329z" />
    <glyph glyph-name="plusminus.lf" horiz-adv-x="500" 
d="M48 348l10 78h176l20 166h77l-20 -166h175l-10 -78h-175l-20 -168h-77l20 168h-176zM14 53l10 78h426l-10 -78h-426z" />
    <glyph glyph-name="multiply.lf" horiz-adv-x="518" 
d="M69 513l63 56l138 -169h7l178 168l49 -56l-187 -159l-1 -7l150 -157l-63 -56l-139 167h-7l-178 -167l-49 56l187 158l1 7z" />
    <glyph glyph-name="divide.lf" horiz-adv-x="486" 
d="M23 310l10 80h414l-10 -80h-414zM262 573q23 0 37 -15t14 -37q0 -27 -19 -45t-44 -18q-22 0 -37.5 15t-15.5 37q0 27 19.5 45t45.5 18zM221 242q23 0 37 -15t14 -37q0 -27 -19 -45t-44 -18q-22 0 -37.5 15t-15.5 37q0 27 19.5 45t45.5 18z" />
    <glyph glyph-name="florin.lf" horiz-adv-x="485" 
d="M127 62l58 343h-130l13 77h130l13 83q10 68 63 108.5t130 40.5q76 0 122 -26l-46 -74q-46 19 -67 19q-52 0 -75.5 -20.5t-31.5 -64.5l-12 -66h166l-13 -77h-165l-61 -360q-12 -68 -65.5 -108.5t-128.5 -40.5h-31q-66 0 -97 18l45 74q31 -11 69 -11q62 0 82.5 18t31.5 67z
" />
    <glyph glyph-name="Euro.lf" horiz-adv-x="690" 
d="M26 370l48 77h54q19 61 60 118q94 133 256 133q128 0 204 -106l11 -17l-63 -102q-16 58 -53 97q-41 44 -108 44q-96 0 -164 -98q-26 -37 -39 -69h348l-46 -77h-321q-3 -24 -3 -51v-12h285l-46 -77h-229q9 -37 33 -76q47 -78 129 -78q71 0 126 45q41 32 68 88l67 -77
l-4 -6q-95 -134 -259 -134q-64 0 -117.5 29t-87.5 78q-44 60 -58 131h-108l48 77h52v5q0 30 3 58h-86z" />
    <glyph glyph-name="minus.lf" horiz-adv-x="498" 
d="M24 312l9 78h426l-9 -78h-426z" />
    <glyph glyph-name="infinity.lf" 
d="M584 274q0 -59 -40.5 -100t-100.5 -41q-39 0 -72.5 20.5t-72.5 64.5q-4 -4 -23 -21.5t-24.5 -21.5t-21 -16t-25.5 -15t-25.5 -7t-32.5 -4q-53 0 -89.5 36.5t-36.5 81.5q0 58 39.5 99.5t103.5 41.5q91 0 148 -86q6 5 19.5 17.5t18.5 17t16.5 14t17.5 13.5t16.5 10t19 8
t19.5 4t23 2q49 0 86 -32t37 -86zM153 207q34 0 99 52l1 5q-51 54 -87 54q-26 0 -46.5 -16.5t-20.5 -40.5t14 -39t40 -15zM505 263q0 55 -54 55q-32 0 -95 -53v-4q47 -54 84 -54q24 0 44.5 15.5t20.5 40.5z" />
    <glyph glyph-name="approxequal.lf" horiz-adv-x="523" 
d="M59 117l-51 48q96 93 162 93q34 0 60.5 -15t46 -29.5t36.5 -14.5q40 0 101 62l51 -48q-96 -93 -163 -93q-34 0 -60.5 15t-46 29.5t-36.5 14.5q-40 0 -100 -62zM77 261l-52 48q96 93 163 93q34 0 60.5 -15t46 -29.5t36.5 -14.5q40 0 100 62l51 -48q-96 -93 -162 -93
q-34 0 -60.5 15t-46 29.5t-36.5 14.5q-40 0 -100 -62z" />
    <glyph glyph-name="notequal.lf" horiz-adv-x="496" 
d="M29 314l10 78h218l80 134l61 -36l-59 -98h114l-10 -78h-151l-39 -66h182l-10 -78h-219l-78 -132l-62 35l58 97h-113l10 78h150l39 66h-181z" />
    <glyph glyph-name="commaaccent.case" horiz-adv-x="219" 
d="M175 -106v-9q0 -67 -100 -157l-31 31q38 39 55 71q-50 10 -50 52q0 30 21 49t50 19q24 0 39.5 -16.5t15.5 -39.5z" />
    <glyph glyph-name="parenleft.case" horiz-adv-x="280" 
d="M221 -105h-91q-103 172 -103 364q0 46 5 81q31 224 215 449h91q-7 -8 -19 -23t-43.5 -62.5t-57.5 -97.5t-51.5 -123t-35.5 -143q-6 -45 -6 -88q0 -92 24 -181t48 -133z" />
    <glyph glyph-name="parenright.case" horiz-adv-x="280" 
d="M56 789h91q103 -172 103 -364q0 -46 -5 -81q-31 -224 -215 -449h-91q7 8 19 23t43.5 62.5t57.5 97.5t51.5 123t35.5 143q6 45 6 88q0 92 -24 181t-48 133z" />
    <glyph glyph-name="hyphen.case" horiz-adv-x="368" 
d="M37 296l10 79h276l-10 -79h-276z" />
    <glyph glyph-name="bracketleft.case" horiz-adv-x="314" 
d="M339 786l-9 -77h-103l-91 -734h103l-9 -77h-198l109 888h198z" />
    <glyph glyph-name="bracketright.case" horiz-adv-x="314" 
d="M68 709l9 77h198l-109 -888h-197l8 77h103l91 734h-103z" />
    <glyph glyph-name="grave.case" horiz-adv-x="335" 
d="M245 744l-195 77l56 95l179 -103z" />
    <glyph glyph-name="braceleft.case" horiz-adv-x="270" 
d="M190 -21l-10 -80h-54q-40 0 -59 28t-19 69q0 9 2 25l25 193q1 4 1 11q0 52 -64 79l11 85q37 11 58.5 30t26.5 62l23 180q16 125 111 125h50l-10 -81h-14q-24 0 -31.5 -16.5t-15.5 -75.5l-19 -146q-13 -94 -81 -122q53 -30 53 -92q0 -7 -2 -21l-25 -193q-2 -14 -2 -25
q0 -35 26 -35h19z" />
    <glyph glyph-name="braceright.case" horiz-adv-x="270" 
d="M114 706l10 80h54q40 0 59 -28t19 -69q0 -9 -2 -25l-25 -193q-1 -4 -1 -11q0 -52 64 -79l-11 -85q-37 -11 -58.5 -30t-26.5 -62l-23 -180q-16 -125 -111 -125h-50l10 81h14q24 0 31.5 16.5t15.5 75.5l19 146q13 94 81 122q-53 30 -53 92q0 7 2 21l25 193q2 14 2 25
q0 35 -26 35h-19z" />
    <glyph glyph-name="dieresis.case" horiz-adv-x="413" 
d="M310 899q23 0 38 -15.5t15 -38.5q0 -29 -19 -47.5t-47 -18.5q-23 0 -39 15.5t-16 38.5q0 29 20 47.5t48 18.5zM118 899q23 0 38 -15.5t15 -38.5q0 -29 -19 -47.5t-47 -18.5q-23 0 -39 15.5t-16 38.5q0 29 20 47.5t48 18.5z" />
    <glyph glyph-name="guillemotleft.case" horiz-adv-x="547" 
d="M304 491l-160 -163l120 -163l-63 -53l-146 212l1 8l198 212zM514 491l-160 -163l120 -163l-63 -53l-146 212l1 8l198 212z" />
    <glyph glyph-name="uni00AD.case" 
 />
    <glyph glyph-name="macron.case" horiz-adv-x="415" 
d="M50 797l11 83h304l-11 -83h-304z" />
    <glyph glyph-name="acute.case" horiz-adv-x="337" 
d="M287 821l-215 -77l-22 69l205 103z" />
    <glyph glyph-name="cedilla.case" horiz-adv-x="323" 
d="M273 -110q0 -42 -36 -72.5t-86 -30.5q-42 0 -69.5 18.5t-31.5 37.5l79 35q7 -17 30 -17q12 0 20 8t8 21q0 23 -51 23l11 87h93l-5 -38q38 -24 38 -72z" />
    <glyph glyph-name="guillemotright.case" horiz-adv-x="547" 
d="M413 328l-120 163l62 53l146 -212l-1 -8l-198 -212l-49 53zM203 328l-120 163l62 53l146 -212l-1 -8l-198 -212l-49 53z" />
    <glyph glyph-name="circumflex.case" horiz-adv-x="468" 
d="M204 927h81l133 -116l-60 -60l-116 100l-142 -100l-50 67z" />
    <glyph glyph-name="caron.case" horiz-adv-x="468" 
d="M264 751h-81l-133 116l60 60l116 -100l142 100l50 -67z" />
    <glyph glyph-name="breve.case" horiz-adv-x="417" 
d="M283 918h84q-4 -67 -55.5 -113t-114.5 -46q-62 0 -104.5 41t-42.5 102v16h84v-8q0 -30 20 -50.5t50 -20.5q29 0 53 22.5t26 56.5z" />
    <glyph glyph-name="dotaccent.case" horiz-adv-x="221" 
d="M118 899q23 0 38 -15.5t15 -38.5q0 -29 -19 -47.5t-47 -18.5q-23 0 -39 15.5t-16 38.5q0 29 20 47.5t48 18.5z" />
    <glyph glyph-name="ring.case" horiz-adv-x="337" 
d="M183 955q46 0 75 -30.5t29 -76.5q0 -55 -38 -91.5t-90 -36.5q-46 0 -77.5 31t-31.5 76q0 55 39.5 91.5t93.5 36.5zM174 883q-21 0 -36 -14.5t-15 -35.5q0 -17 12 -28.5t29 -11.5q21 0 35.5 14.5t14.5 35.5q0 17 -11.5 28.5t-28.5 11.5z" />
    <glyph glyph-name="ogonek.case" horiz-adv-x="331" 
d="M144 0h120q-47 -16 -82 -51.5t-35 -60.5q0 -20 27 -20h-3q20 0 33 26l77 -39q-45 -67 -127 -67q-44 0 -74 23.5t-30 63.5q0 64 94 125z" />
    <glyph glyph-name="tilde.case" horiz-adv-x="447" 
d="M170 910q31 0 53 -16t36.5 -31.5t27.5 -15.5q17 0 21 18l4 34h85l-4 -34q-6 -42 -39.5 -70.5t-75.5 -28.5q-31 0 -53.5 16t-37 31.5t-27.5 15.5q-18 0 -20 -18l-5 -34h-85l5 34q5 42 39 70.5t76 28.5z" />
    <glyph glyph-name="hungarumlaut.case" horiz-adv-x="499" 
d="M50 800l161 147l57 -76l-176 -127zM225 806l177 127l47 -83l-189 -106z" />
    <glyph glyph-name="endash.case" horiz-adv-x="615" 
d="M37 296l10 79h523l-10 -79h-523z" />
    <glyph glyph-name="emdash.case" horiz-adv-x="977" 
d="M37 296l10 79h885l-10 -79h-885z" />
    <glyph glyph-name="guilsinglleft.case" horiz-adv-x="337" 
d="M304 491l-160 -163l120 -163l-63 -53l-146 212l1 8l198 212z" />
    <glyph glyph-name="guilsinglright.case" horiz-adv-x="337" 
d="M203 328l-120 163l62 53l146 -212l-1 -8l-198 -212l-49 53z" />
    <glyph glyph-name="zero.zero" horiz-adv-x="585" 
d="M93 295q0 169 74 285.5t196 116.5q58 0 101 -28t66.5 -75.5t34.5 -101.5t11 -114q0 -95 -29 -181t-92 -145t-147 -59q-57 0 -100 27.5t-67 73t-36 96.5t-12 105zM192 295q0 -42 7 -78l242 339q-30 60 -78 60q-73 0 -122 -99t-49 -222zM477 378q0 44 -8 92l-241 -338
q30 -58 78 -58q40 1 74 32.5t54.5 78.5t31.5 98t11 95z" />
    <glyph glyph-name="a.ss01" horiz-adv-x="567" 
d="M175 358h-96q3 17 7 32.5t19.5 42t38 45t65 32.5t97.5 14q53 0 90 -13t55 -35.5t25 -44.5t7 -47q0 -9 -37 -289q0 -27 19 -27t29 20l63 -33q-36 -63 -97 -63q-37 0 -58 21t-21 44h-8q-64 -65 -157 -65h-4q-17 0 -33 1t-46 9t-51 22t-37.5 42.5t-16.5 68.5
q0 67 51.5 110.5t136.5 60.5l167 34q1 8 2 14t1.5 8.5t0.5 4v2.5q0 28 -22.5 51t-75.5 23q-105 0 -114 -85zM226 73q33 0 81.5 26t54.5 73l11 89l-124 -23q-122 -22 -122 -97q0 -28 29 -48t70 -20z" />
    <glyph glyph-name="agrave.ss01" horiz-adv-x="567" 
d="M175 358h-96q3 17 7 32.5t19.5 42t38 45t65 32.5t97.5 14q53 0 90 -13t55 -35.5t25 -44.5t7 -47q0 -9 -37 -289q0 -27 19 -27t29 20l63 -33q-36 -63 -97 -63q-37 0 -58 21t-21 44h-8q-64 -65 -157 -65h-4q-17 0 -33 1t-46 9t-51 22t-37.5 42.5t-16.5 68.5
q0 67 51.5 110.5t136.5 60.5l167 34q1 8 2 14t1.5 8.5t0.5 4v2.5q0 28 -22.5 51t-75.5 23q-105 0 -114 -85zM226 73q33 0 81.5 26t54.5 73l11 89l-124 -23q-122 -22 -122 -97q0 -28 29 -48t70 -20zM341 566l-173 104l68 85l154 -127z" />
    <glyph glyph-name="aacute.ss01" horiz-adv-x="567" 
d="M175 358h-96q3 17 7 32.5t19.5 42t38 45t65 32.5t97.5 14q53 0 90 -13t55 -35.5t25 -44.5t7 -47q0 -9 -37 -289q0 -27 19 -27t29 20l63 -33q-36 -63 -97 -63q-37 0 -58 21t-21 44h-8q-64 -65 -157 -65h-4q-17 0 -33 1t-46 9t-51 22t-37.5 42.5t-16.5 68.5
q0 67 51.5 110.5t136.5 60.5l167 34q1 8 2 14t1.5 8.5t0.5 4v2.5q0 28 -22.5 51t-75.5 23q-105 0 -114 -85zM226 73q33 0 81.5 26t54.5 73l11 89l-124 -23q-122 -22 -122 -97q0 -28 29 -48t70 -20zM483 670l-201 -104l-31 62l186 127z" />
    <glyph glyph-name="acircumflex.ss01" horiz-adv-x="567" 
d="M175 358h-96q3 17 7 32.5t19.5 42t38 45t65 32.5t97.5 14q53 0 90 -13t55 -35.5t25 -44.5t7 -47q0 -9 -37 -289q0 -27 19 -27t29 20l63 -33q-36 -63 -97 -63q-37 0 -58 21t-21 44h-8q-64 -65 -157 -65h-4q-17 0 -33 1t-46 9t-51 22t-37.5 42.5t-16.5 68.5
q0 67 51.5 110.5t136.5 60.5l167 34q1 8 2 14t1.5 8.5t0.5 4v2.5q0 28 -22.5 51t-75.5 23q-105 0 -114 -85zM226 73q33 0 81.5 26t54.5 73l11 89l-124 -23q-122 -22 -122 -97q0 -28 29 -48t70 -20zM292 742h80l113 -116l-59 -58l-97 100l-123 -100l-49 64z" />
    <glyph glyph-name="atilde.ss01" horiz-adv-x="567" 
d="M175 358h-96q3 17 7 32.5t19.5 42t38 45t65 32.5t97.5 14q53 0 90 -13t55 -35.5t25 -44.5t7 -47q0 -9 -37 -289q0 -27 19 -27t29 20l63 -33q-36 -63 -97 -63q-37 0 -58 21t-21 44h-8q-64 -65 -157 -65h-4q-17 0 -33 1t-46 9t-51 22t-37.5 42.5t-16.5 68.5
q0 67 51.5 110.5t136.5 60.5l167 34q1 8 2 14t1.5 8.5t0.5 4v2.5q0 28 -22.5 51t-75.5 23q-105 0 -114 -85zM226 73q33 0 81.5 26t54.5 73l11 89l-124 -23q-122 -22 -122 -97q0 -28 29 -48t70 -20zM277 723q29 0 50 -15t35 -30t26 -15q17 0 20 17l4 32h81l-4 -32
q-6 -41 -38 -68t-72 -27q-29 0 -50 15t-35 30t-26 15q-17 0 -19 -17l-5 -32h-81l5 32q5 41 37 68t72 27z" />
    <glyph glyph-name="adieresis.ss01" horiz-adv-x="567" 
d="M175 358h-96q3 17 7 32.5t19.5 42t38 45t65 32.5t97.5 14q53 0 90 -13t55 -35.5t25 -44.5t7 -47q0 -9 -37 -289q0 -27 19 -27t29 20l63 -33q-36 -63 -97 -63q-37 0 -58 21t-21 44h-8q-64 -65 -157 -65h-4q-17 0 -33 1t-46 9t-51 22t-37.5 42.5t-16.5 68.5
q0 67 51.5 110.5t136.5 60.5l167 34q1 8 2 14t1.5 8.5t0.5 4v2.5q0 28 -22.5 51t-75.5 23q-105 0 -114 -85zM226 73q33 0 81.5 26t54.5 73l11 89l-124 -23q-122 -22 -122 -97q0 -28 29 -48t70 -20zM240 713q23 0 37 -15t14 -37q0 -27 -19 -45t-44 -18q-22 0 -37.5 15
t-15.5 37q0 27 19.5 45t45.5 18zM428 713q23 0 37 -15t14 -37q0 -27 -19 -45t-44 -18q-22 0 -37.5 15t-15.5 37q0 27 19.5 45t45.5 18z" />
    <glyph glyph-name="aring.ss01" horiz-adv-x="567" 
d="M175 358h-96q3 17 7 32.5t19.5 42t38 45t65 32.5t97.5 14q53 0 90 -13t55 -35.5t25 -44.5t7 -47q0 -9 -37 -289q0 -27 19 -27t29 20l63 -33q-36 -63 -97 -63q-37 0 -58 21t-21 44h-8q-64 -65 -157 -65h-4q-17 0 -33 1t-46 9t-51 22t-37.5 42.5t-16.5 68.5
q0 67 51.5 110.5t136.5 60.5l167 34q1 8 2 14t1.5 8.5t0.5 4v2.5q0 28 -22.5 51t-75.5 23q-105 0 -114 -85zM226 73q33 0 81.5 26t54.5 73l11 89l-124 -23q-122 -22 -122 -97q0 -28 29 -48t70 -20zM338 796q45 0 73.5 -30t28.5 -75q0 -54 -37 -89.5t-88 -35.5
q-46 0 -76.5 30.5t-30.5 74.5q0 54 38 89.5t92 35.5zM328 726q-19 0 -34 -14t-15 -34q0 -17 12 -28.5t29 -11.5q19 0 33.5 14t14.5 34q0 17 -11.5 28.5t-28.5 11.5z" />
    <glyph glyph-name="amacron.ss01" horiz-adv-x="567" 
d="M175 358h-96q3 17 7 32.5t19.5 42t38 45t65 32.5t97.5 14q53 0 90 -13t55 -35.5t25 -44.5t7 -47q0 -9 -37 -289q0 -27 19 -27t29 20l63 -33q-36 -63 -97 -63q-37 0 -58 21t-21 44h-8q-64 -65 -157 -65h-4q-17 0 -33 1t-46 9t-51 22t-37.5 42.5t-16.5 68.5
q0 67 51.5 110.5t136.5 60.5l167 34q1 8 2 14t1.5 8.5t0.5 4v2.5q0 28 -22.5 51t-75.5 23q-105 0 -114 -85zM226 73q33 0 81.5 26t54.5 73l11 89l-124 -23q-122 -22 -122 -97q0 -28 29 -48t70 -20zM183 617l10 77h288l-10 -77h-288z" />
    <glyph glyph-name="abreve.ss01" horiz-adv-x="567" 
d="M175 358h-96q3 17 7 32.5t19.5 42t38 45t65 32.5t97.5 14q53 0 90 -13t55 -35.5t25 -44.5t7 -47q0 -9 -37 -289q0 -27 19 -27t29 20l63 -33q-36 -63 -97 -63q-37 0 -58 21t-21 44h-8q-64 -65 -157 -65h-4q-17 0 -33 1t-46 9t-51 22t-37.5 42.5t-16.5 68.5
q0 67 51.5 110.5t136.5 60.5l167 34q1 8 2 14t1.5 8.5t0.5 4v2.5q0 28 -22.5 51t-75.5 23q-105 0 -114 -85zM226 73q33 0 81.5 26t54.5 73l11 89l-124 -23q-122 -22 -122 -97q0 -28 29 -48t70 -20zM396 730h84q-4 -63 -53 -106.5t-110 -43.5q-58 0 -97.5 38.5t-39.5 96.5v15
h84v-7q0 -26 17 -44t42 -18q29 0 50 20t23 49z" />
    <glyph glyph-name="aogonek.ss01" horiz-adv-x="567" 
d="M175 358h-96q3 17 7 32.5t19.5 42t38 45t65 32.5t97.5 14q53 0 90 -13t55 -35.5t25 -44.5t7 -47q0 -9 -37 -289q0 -27 19 -27t29 20l63 -33l-2 -4q-11 -21 -79.5 -78.5t-68.5 -86.5q0 -19 27 -19q16 0 31 23l68 -35q-19 -29 -50.5 -48t-68.5 -19q-39 0 -68.5 23t-29.5 63
q0 38 32.5 73t69.5 54q-37 19 -37 56h-8q-64 -65 -157 -65h-4q-17 0 -33 1t-46 9t-51 22t-37.5 42.5t-16.5 68.5q0 67 51.5 110.5t136.5 60.5l167 34q1 8 2 14t1.5 8.5t0.5 4v2.5q0 28 -22.5 51t-75.5 23q-105 0 -114 -85zM226 73q33 0 81.5 26t54.5 73l11 89l-124 -23
q-122 -22 -122 -97q0 -28 29 -48t70 -20z" />
    <glyph glyph-name="aringacute.ss01" horiz-adv-x="567" 
d="M477 867l-213 -77l-23 66l201 101zM175 358h-96q3 17 7 32.5t19.5 42t38 45t65 32.5t97.5 14q53 0 90 -13t55 -35.5t25 -44.5t7 -47q0 -9 -37 -289q0 -27 19 -27t29 20l63 -33q-36 -63 -97 -63q-37 0 -58 21t-21 44h-8q-64 -65 -157 -65h-4q-17 0 -33 1t-46 9t-51 22
t-37.5 42.5t-16.5 68.5q0 67 51.5 110.5t136.5 60.5l167 34q1 8 2 14t1.5 8.5t0.5 4v2.5q0 28 -22.5 51t-75.5 23q-105 0 -114 -85zM226 73q33 0 81.5 26t54.5 73l11 89l-124 -23q-122 -22 -122 -97q0 -28 29 -48t70 -20zM338 785q45 0 73.5 -30t28.5 -75q0 -54 -37 -89.5
t-88 -35.5q-46 0 -76.5 30.5t-30.5 74.5q0 54 38 89.5t92 35.5zM328 715q-19 0 -34 -14t-15 -34q0 -17 12 -28.5t29 -11.5q19 0 33.5 14t14.5 34q0 17 -11.5 28.5t-28.5 11.5z" />
    <glyph glyph-name="afii10065.ss01" horiz-adv-x="602" 
d="M251 -8q-102 0 -161 75q-52 66 -52 169q0 115 62 194q74 94 202 94q86 0 141 -70h12l8 59h95l-68 -513h-95l8 57h-6q-32 -33 -64 -49t-82 -16zM266 73q78 0 126 67q40 56 40 136q0 73 -33 116q-33 51 -95 51q-79 0 -126 -66q-40 -56 -40 -137q0 -73 33 -116
q33 -51 95 -51z" />
    <glyph glyph-name="g.ss02" horiz-adv-x="538" 
d="M453 456q32 -32 32 -91q0 -81 -65.5 -137.5t-153.5 -56.5q-51 0 -100 26q-34 -13 -34 -56q0 -32 40 -37l144 -20q77 -11 129 -45t52 -99q0 -83 -84 -132q-64 -37 -158 -37q-46 0 -89 7t-88 24t-72.5 53.5t-27.5 87.5q0 96 115 126q-17 7 -27 12.5t-20.5 18t-10.5 29.5
q1 66 76 100l1 12q-28 40 -28 89q0 82 65 138t155 56q62 0 107 -28h1q31 80 106 80q15 0 33 -3l-23 -80q-5 1 -18 1q-51 0 -57 -38zM75 -60q0 -24 15 -42t35 -26.5t47 -14t43.5 -6.5t32.5 -1q64 0 105 21q45 23 45 65q0 58 -113 74q-1 0 -20 3t-39.5 5.5t-33.5 3.5h-5
q-40 0 -76 -20t-36 -62zM296 445q-47 0 -81.5 -31.5t-34.5 -79.5q0 -36 26.5 -60t66.5 -24q46 0 80.5 32t34.5 79q0 37 -25.5 60.5t-66.5 23.5z" />
    <glyph glyph-name="gcircumflex.ss02" horiz-adv-x="538" 
d="M453 456q32 -32 32 -91q0 -81 -65.5 -137.5t-153.5 -56.5q-51 0 -100 26q-34 -13 -34 -56q0 -32 40 -37l144 -20q77 -11 129 -45t52 -99q0 -83 -84 -132q-64 -37 -158 -37q-46 0 -89 7t-88 24t-72.5 53.5t-27.5 87.5q0 96 115 126q-17 7 -27 12.5t-20.5 18t-10.5 29.5
q1 66 76 100l1 12q-28 40 -28 89q0 82 65 138t155 56q62 0 107 -28h1q31 80 106 80q15 0 33 -3l-23 -80q-5 1 -18 1q-51 0 -57 -38zM75 -60q0 -24 15 -42t35 -26.5t47 -14t43.5 -6.5t32.5 -1q64 0 105 21q45 23 45 65q0 58 -113 74q-1 0 -20 3t-39.5 5.5t-33.5 3.5h-5
q-40 0 -76 -20t-36 -62zM296 445q-47 0 -81.5 -31.5t-34.5 -79.5q0 -36 26.5 -60t66.5 -24q46 0 80.5 32t34.5 79q0 37 -25.5 60.5t-66.5 23.5zM278 742h80l113 -116l-59 -58l-97 100l-123 -100l-49 64z" />
    <glyph glyph-name="gbreve.ss02" horiz-adv-x="538" 
d="M453 456q32 -32 32 -91q0 -81 -65.5 -137.5t-153.5 -56.5q-51 0 -100 26q-34 -13 -34 -56q0 -32 40 -37l144 -20q77 -11 129 -45t52 -99q0 -83 -84 -132q-64 -37 -158 -37q-46 0 -89 7t-88 24t-72.5 53.5t-27.5 87.5q0 96 115 126q-17 7 -27 12.5t-20.5 18t-10.5 29.5
q1 66 76 100l1 12q-28 40 -28 89q0 82 65 138t155 56q62 0 107 -28h1q31 80 106 80q15 0 33 -3l-23 -80q-5 1 -18 1q-51 0 -57 -38zM75 -60q0 -24 15 -42t35 -26.5t47 -14t43.5 -6.5t32.5 -1q64 0 105 21q45 23 45 65q0 58 -113 74q-1 0 -20 3t-39.5 5.5t-33.5 3.5h-5
q-40 0 -76 -20t-36 -62zM296 445q-47 0 -81.5 -31.5t-34.5 -79.5q0 -36 26.5 -60t66.5 -24q46 0 80.5 32t34.5 79q0 37 -25.5 60.5t-66.5 23.5zM391 730h84q-4 -63 -53 -106.5t-110 -43.5q-58 0 -97.5 38.5t-39.5 96.5v15h84v-7q0 -26 17 -44t42 -18q29 0 50 20t23 49z" />
    <glyph glyph-name="gdotaccent.ss02" horiz-adv-x="538" 
d="M453 456q32 -32 32 -91q0 -81 -65.5 -137.5t-153.5 -56.5q-51 0 -100 26q-34 -13 -34 -56q0 -32 40 -37l144 -20q77 -11 129 -45t52 -99q0 -83 -84 -132q-64 -37 -158 -37q-46 0 -89 7t-88 24t-72.5 53.5t-27.5 87.5q0 96 115 126q-17 7 -27 12.5t-20.5 18t-10.5 29.5
q1 66 76 100l1 12q-28 40 -28 89q0 82 65 138t155 56q62 0 107 -28h1q31 80 106 80q15 0 33 -3l-23 -80q-5 1 -18 1q-51 0 -57 -38zM75 -60q0 -24 15 -42t35 -26.5t47 -14t43.5 -6.5t32.5 -1q64 0 105 21q45 23 45 65q0 58 -113 74q-1 0 -20 3t-39.5 5.5t-33.5 3.5h-5
q-40 0 -76 -20t-36 -62zM296 445q-47 0 -81.5 -31.5t-34.5 -79.5q0 -36 26.5 -60t66.5 -24q46 0 80.5 32t34.5 79q0 37 -25.5 60.5t-66.5 23.5zM330 695q23 0 37 -15t14 -37q0 -27 -19 -45t-44 -18q-22 0 -37.5 15t-15.5 37q0 27 19.5 45t45.5 18z" />
    <glyph glyph-name="gcommaaccent.ss02" horiz-adv-x="538" 
d="M261 647v9q0 68 116 170l23 -35q-46 -47 -65 -82q49 -8 49 -50q0 -30 -20 -48.5t-49 -18.5q-24 0 -39 16t-15 39zM453 456q32 -32 32 -91q0 -81 -65.5 -137.5t-153.5 -56.5q-51 0 -100 26q-34 -13 -34 -56q0 -32 40 -37l144 -20q77 -11 129 -45t52 -99q0 -83 -84 -132
q-64 -37 -158 -37q-46 0 -89 7t-88 24t-72.5 53.5t-27.5 87.5q0 96 115 126q-17 7 -27 12.5t-20.5 18t-10.5 29.5q1 66 76 100l1 12q-28 40 -28 89q0 82 65 138t155 56q62 0 107 -28h1q31 80 106 80q15 0 33 -3l-23 -80q-5 1 -18 1q-51 0 -57 -38zM75 -60q0 -24 15 -42
t35 -26.5t47 -14t43.5 -6.5t32.5 -1q64 0 105 21q45 23 45 65q0 58 -113 74q-1 0 -20 3t-39.5 5.5t-33.5 3.5h-5q-40 0 -76 -20t-36 -62zM296 445q-47 0 -81.5 -31.5t-34.5 -79.5q0 -36 26.5 -60t66.5 -24q46 0 80.5 32t34.5 79q0 37 -25.5 60.5t-66.5 23.5z" />
    <glyph glyph-name="asterisk.ss04" 
d="M332 347l-85 17l-173 109l54 78l174 -109l51 -65l-20 83l27 218h94l-27 -218l-40 -83l66 66l204 108l36 -78l-205 -108l-88 -18l85 -17l175 -111l-54 -78l-176 111l-51 65l20 -83l-26 -217h-94l26 217l40 83l-66 -66l-203 -107l-35 78l203 107z" />
    <glyph glyph-name="dollar.ss05" horiz-adv-x="581" 
d="M234 -83l10 81q-78 15 -130.5 62.5t-52.5 123.5v8h100v-12q0 -39 26 -64.5t67 -36.5l21 175q-168 28 -168 150q0 81 63 126t146 53l10 77h83l-10 -81q67 -13 114 -55.5t47 -107.5v-18l-97 1v14q0 63 -74 84l-21 -166q96 -10 142.5 -44t46.5 -109q0 -82 -70.5 -130.5
t-160.5 -54.5l-9 -76h-83zM456 173q0 37 -26 52.5t-72 19.5l-21 -170q47 8 83 33t36 65zM207 414q0 -34 20 -50.5t59 -23.5l20 159q-40 -9 -69.5 -31t-29.5 -54z" />
    <glyph glyph-name="sterling.ss06" horiz-adv-x="556" 
d="M454 256h-184v-12q0 -37 -19 -77t-34.5 -58.5t-29.5 -31.5h327l-9 -77h-473l9 68q52 16 93 59t41 114q0 3 -0.5 8t-0.5 7h-102l9 74h90q-6 56 -8 89v7q0 68 59 115.5t140 47.5q49 0 85.5 -17t54.5 -43t26.5 -48.5t8.5 -40.5v-6h-99q0 4 -1 10t-5.5 18t-12.5 21t-25 16.5
t-40 7.5q-37 0 -66 -26.5t-29 -71.5v-7q1 -26 6 -72h198z" />
    <glyph glyph-name="commaaccent" horiz-adv-x="219" 
d="M175 -106v-9q0 -67 -100 -157l-31 31q38 39 55 71q-50 10 -50 52q0 30 21 49t50 19q24 0 39.5 -16.5t15.5 -39.5z" />
    </font>
</defs>
</svg>
